<?xml version="1.0" encoding="utf-8" standalone="no"?>
<!DOCTYPE svg PUBLIC "-//W3C//DTD SVG 1.1//EN"
  "http://www.w3.org/Graphics/SVG/1.1/DTD/svg11.dtd">
<svg xmlns:xlink="http://www.w3.org/1999/xlink" width="1296pt" height="432pt" viewBox="0 0 1296 432" xmlns="http://www.w3.org/2000/svg" version="1.1">
 <metadata>
  <rdf:RDF xmlns:dc="http://purl.org/dc/elements/1.1/" xmlns:cc="http://creativecommons.org/ns#" xmlns:rdf="http://www.w3.org/1999/02/22-rdf-syntax-ns#">
   <cc:Work>
    <dc:type rdf:resource="http://purl.org/dc/dcmitype/StillImage"/>
    <dc:date>2025-03-28T12:11:04.201765</dc:date>
    <dc:format>image/svg+xml</dc:format>
    <dc:creator>
     <cc:Agent>
      <dc:title>Matplotlib v3.7.5, https://matplotlib.org/</dc:title>
     </cc:Agent>
    </dc:creator>
   </cc:Work>
  </rdf:RDF>
 </metadata>
 <defs>
  <style type="text/css">*{stroke-linejoin: round; stroke-linecap: butt}</style>
 </defs>
 <g id="figure_1">
  <g id="patch_1">
   <path d="M 0 432 
L 1296 432 
L 1296 0 
L 0 0 
z
" style="fill: #ffffff"/>
  </g>
  <g id="axes_1">
   <g id="patch_2">
    <path d="M 46.55 390.04 
L 1285.2 390.04 
L 1285.2 26.88 
L 46.55 26.88 
z
" style="fill: #ffffff"/>
   </g>
   <g id="matplotlib.axis_1">
    <g id="xtick_1">
     <g id="line2d_1">
      <defs>
       <path id="mdbe0f54d3c" d="M 0 0 
L 0 3.5 
" style="stroke: #000000; stroke-width: 0.8"/>
      </defs>
      <g>
       <use xlink:href="#mdbe0f54d3c" x="157.320415" y="390.04" style="stroke: #000000; stroke-width: 0.8"/>
      </g>
     </g>
     <g id="text_1">
      <!-- 1.077 -->
      <g transform="translate(143.006353 404.638438) scale(0.1 -0.1)">
       <defs>
        <path id="DejaVuSans-31" d="M 794 531 
L 1825 531 
L 1825 4091 
L 703 3866 
L 703 4441 
L 1819 4666 
L 2450 4666 
L 2450 531 
L 3481 531 
L 3481 0 
L 794 0 
L 794 531 
z
" transform="scale(0.015625)"/>
        <path id="DejaVuSans-2e" d="M 684 794 
L 1344 794 
L 1344 0 
L 684 0 
L 684 794 
z
" transform="scale(0.015625)"/>
        <path id="DejaVuSans-30" d="M 2034 4250 
Q 1547 4250 1301 3770 
Q 1056 3291 1056 2328 
Q 1056 1369 1301 889 
Q 1547 409 2034 409 
Q 2525 409 2770 889 
Q 3016 1369 3016 2328 
Q 3016 3291 2770 3770 
Q 2525 4250 2034 4250 
z
M 2034 4750 
Q 2819 4750 3233 4129 
Q 3647 3509 3647 2328 
Q 3647 1150 3233 529 
Q 2819 -91 2034 -91 
Q 1250 -91 836 529 
Q 422 1150 422 2328 
Q 422 3509 836 4129 
Q 1250 4750 2034 4750 
z
" transform="scale(0.015625)"/>
        <path id="DejaVuSans-37" d="M 525 4666 
L 3525 4666 
L 3525 4397 
L 1831 0 
L 1172 0 
L 2766 4134 
L 525 4134 
L 525 4666 
z
" transform="scale(0.015625)"/>
       </defs>
       <use xlink:href="#DejaVuSans-31"/>
       <use xlink:href="#DejaVuSans-2e" x="63.623047"/>
       <use xlink:href="#DejaVuSans-30" x="95.410156"/>
       <use xlink:href="#DejaVuSans-37" x="159.033203"/>
       <use xlink:href="#DejaVuSans-37" x="222.65625"/>
      </g>
     </g>
    </g>
    <g id="xtick_2">
     <g id="line2d_2">
      <g>
       <use xlink:href="#mdbe0f54d3c" x="334.373703" y="390.04" style="stroke: #000000; stroke-width: 0.8"/>
      </g>
     </g>
     <g id="text_2">
      <!-- 1.078 -->
      <g transform="translate(320.05964 404.638438) scale(0.1 -0.1)">
       <defs>
        <path id="DejaVuSans-38" d="M 2034 2216 
Q 1584 2216 1326 1975 
Q 1069 1734 1069 1313 
Q 1069 891 1326 650 
Q 1584 409 2034 409 
Q 2484 409 2743 651 
Q 3003 894 3003 1313 
Q 3003 1734 2745 1975 
Q 2488 2216 2034 2216 
z
M 1403 2484 
Q 997 2584 770 2862 
Q 544 3141 544 3541 
Q 544 4100 942 4425 
Q 1341 4750 2034 4750 
Q 2731 4750 3128 4425 
Q 3525 4100 3525 3541 
Q 3525 3141 3298 2862 
Q 3072 2584 2669 2484 
Q 3125 2378 3379 2068 
Q 3634 1759 3634 1313 
Q 3634 634 3220 271 
Q 2806 -91 2034 -91 
Q 1263 -91 848 271 
Q 434 634 434 1313 
Q 434 1759 690 2068 
Q 947 2378 1403 2484 
z
M 1172 3481 
Q 1172 3119 1398 2916 
Q 1625 2713 2034 2713 
Q 2441 2713 2670 2916 
Q 2900 3119 2900 3481 
Q 2900 3844 2670 4047 
Q 2441 4250 2034 4250 
Q 1625 4250 1398 4047 
Q 1172 3844 1172 3481 
z
" transform="scale(0.015625)"/>
       </defs>
       <use xlink:href="#DejaVuSans-31"/>
       <use xlink:href="#DejaVuSans-2e" x="63.623047"/>
       <use xlink:href="#DejaVuSans-30" x="95.410156"/>
       <use xlink:href="#DejaVuSans-37" x="159.033203"/>
       <use xlink:href="#DejaVuSans-38" x="222.65625"/>
      </g>
     </g>
    </g>
    <g id="xtick_3">
     <g id="line2d_3">
      <g>
       <use xlink:href="#mdbe0f54d3c" x="511.426991" y="390.04" style="stroke: #000000; stroke-width: 0.8"/>
      </g>
     </g>
     <g id="text_3">
      <!-- 1.079 -->
      <g transform="translate(497.112928 404.638438) scale(0.1 -0.1)">
       <defs>
        <path id="DejaVuSans-39" d="M 703 97 
L 703 672 
Q 941 559 1184 500 
Q 1428 441 1663 441 
Q 2288 441 2617 861 
Q 2947 1281 2994 2138 
Q 2813 1869 2534 1725 
Q 2256 1581 1919 1581 
Q 1219 1581 811 2004 
Q 403 2428 403 3163 
Q 403 3881 828 4315 
Q 1253 4750 1959 4750 
Q 2769 4750 3195 4129 
Q 3622 3509 3622 2328 
Q 3622 1225 3098 567 
Q 2575 -91 1691 -91 
Q 1453 -91 1209 -44 
Q 966 3 703 97 
z
M 1959 2075 
Q 2384 2075 2632 2365 
Q 2881 2656 2881 3163 
Q 2881 3666 2632 3958 
Q 2384 4250 1959 4250 
Q 1534 4250 1286 3958 
Q 1038 3666 1038 3163 
Q 1038 2656 1286 2365 
Q 1534 2075 1959 2075 
z
" transform="scale(0.015625)"/>
       </defs>
       <use xlink:href="#DejaVuSans-31"/>
       <use xlink:href="#DejaVuSans-2e" x="63.623047"/>
       <use xlink:href="#DejaVuSans-30" x="95.410156"/>
       <use xlink:href="#DejaVuSans-37" x="159.033203"/>
       <use xlink:href="#DejaVuSans-39" x="222.65625"/>
      </g>
     </g>
    </g>
    <g id="xtick_4">
     <g id="line2d_4">
      <g>
       <use xlink:href="#mdbe0f54d3c" x="688.480279" y="390.04" style="stroke: #000000; stroke-width: 0.8"/>
      </g>
     </g>
     <g id="text_4">
      <!-- 1.080 -->
      <g transform="translate(674.166216 404.638438) scale(0.1 -0.1)">
       <use xlink:href="#DejaVuSans-31"/>
       <use xlink:href="#DejaVuSans-2e" x="63.623047"/>
       <use xlink:href="#DejaVuSans-30" x="95.410156"/>
       <use xlink:href="#DejaVuSans-38" x="159.033203"/>
       <use xlink:href="#DejaVuSans-30" x="222.65625"/>
      </g>
     </g>
    </g>
    <g id="xtick_5">
     <g id="line2d_5">
      <g>
       <use xlink:href="#mdbe0f54d3c" x="865.533566" y="390.04" style="stroke: #000000; stroke-width: 0.8"/>
      </g>
     </g>
     <g id="text_5">
      <!-- 1.081 -->
      <g transform="translate(851.219504 404.638438) scale(0.1 -0.1)">
       <use xlink:href="#DejaVuSans-31"/>
       <use xlink:href="#DejaVuSans-2e" x="63.623047"/>
       <use xlink:href="#DejaVuSans-30" x="95.410156"/>
       <use xlink:href="#DejaVuSans-38" x="159.033203"/>
       <use xlink:href="#DejaVuSans-31" x="222.65625"/>
      </g>
     </g>
    </g>
    <g id="xtick_6">
     <g id="line2d_6">
      <g>
       <use xlink:href="#mdbe0f54d3c" x="1042.586854" y="390.04" style="stroke: #000000; stroke-width: 0.8"/>
      </g>
     </g>
     <g id="text_6">
      <!-- 1.082 -->
      <g transform="translate(1028.272792 404.638438) scale(0.1 -0.1)">
       <defs>
        <path id="DejaVuSans-32" d="M 1228 531 
L 3431 531 
L 3431 0 
L 469 0 
L 469 531 
Q 828 903 1448 1529 
Q 2069 2156 2228 2338 
Q 2531 2678 2651 2914 
Q 2772 3150 2772 3378 
Q 2772 3750 2511 3984 
Q 2250 4219 1831 4219 
Q 1534 4219 1204 4116 
Q 875 4013 500 3803 
L 500 4441 
Q 881 4594 1212 4672 
Q 1544 4750 1819 4750 
Q 2544 4750 2975 4387 
Q 3406 4025 3406 3419 
Q 3406 3131 3298 2873 
Q 3191 2616 2906 2266 
Q 2828 2175 2409 1742 
Q 1991 1309 1228 531 
z
" transform="scale(0.015625)"/>
       </defs>
       <use xlink:href="#DejaVuSans-31"/>
       <use xlink:href="#DejaVuSans-2e" x="63.623047"/>
       <use xlink:href="#DejaVuSans-30" x="95.410156"/>
       <use xlink:href="#DejaVuSans-38" x="159.033203"/>
       <use xlink:href="#DejaVuSans-32" x="222.65625"/>
      </g>
     </g>
    </g>
    <g id="xtick_7">
     <g id="line2d_7">
      <g>
       <use xlink:href="#mdbe0f54d3c" x="1219.640142" y="390.04" style="stroke: #000000; stroke-width: 0.8"/>
      </g>
     </g>
     <g id="text_7">
      <!-- 1.083 -->
      <g transform="translate(1205.32608 404.638438) scale(0.1 -0.1)">
       <defs>
        <path id="DejaVuSans-33" d="M 2597 2516 
Q 3050 2419 3304 2112 
Q 3559 1806 3559 1356 
Q 3559 666 3084 287 
Q 2609 -91 1734 -91 
Q 1441 -91 1130 -33 
Q 819 25 488 141 
L 488 750 
Q 750 597 1062 519 
Q 1375 441 1716 441 
Q 2309 441 2620 675 
Q 2931 909 2931 1356 
Q 2931 1769 2642 2001 
Q 2353 2234 1838 2234 
L 1294 2234 
L 1294 2753 
L 1863 2753 
Q 2328 2753 2575 2939 
Q 2822 3125 2822 3475 
Q 2822 3834 2567 4026 
Q 2313 4219 1838 4219 
Q 1578 4219 1281 4162 
Q 984 4106 628 3988 
L 628 4550 
Q 988 4650 1302 4700 
Q 1616 4750 1894 4750 
Q 2613 4750 3031 4423 
Q 3450 4097 3450 3541 
Q 3450 3153 3228 2886 
Q 3006 2619 2597 2516 
z
" transform="scale(0.015625)"/>
       </defs>
       <use xlink:href="#DejaVuSans-31"/>
       <use xlink:href="#DejaVuSans-2e" x="63.623047"/>
       <use xlink:href="#DejaVuSans-30" x="95.410156"/>
       <use xlink:href="#DejaVuSans-38" x="159.033203"/>
       <use xlink:href="#DejaVuSans-33" x="222.65625"/>
      </g>
     </g>
    </g>
    <g id="text_8">
     <!-- time -->
     <g transform="translate(654.578906 418.316562) scale(0.1 -0.1)">
      <defs>
       <path id="DejaVuSans-74" d="M 1172 4494 
L 1172 3500 
L 2356 3500 
L 2356 3053 
L 1172 3053 
L 1172 1153 
Q 1172 725 1289 603 
Q 1406 481 1766 481 
L 2356 481 
L 2356 0 
L 1766 0 
Q 1100 0 847 248 
Q 594 497 594 1153 
L 594 3053 
L 172 3053 
L 172 3500 
L 594 3500 
L 594 4494 
L 1172 4494 
z
" transform="scale(0.015625)"/>
       <path id="DejaVuSans-69" d="M 603 3500 
L 1178 3500 
L 1178 0 
L 603 0 
L 603 3500 
z
M 603 4863 
L 1178 4863 
L 1178 4134 
L 603 4134 
L 603 4863 
z
" transform="scale(0.015625)"/>
       <path id="DejaVuSans-6d" d="M 3328 2828 
Q 3544 3216 3844 3400 
Q 4144 3584 4550 3584 
Q 5097 3584 5394 3201 
Q 5691 2819 5691 2113 
L 5691 0 
L 5113 0 
L 5113 2094 
Q 5113 2597 4934 2840 
Q 4756 3084 4391 3084 
Q 3944 3084 3684 2787 
Q 3425 2491 3425 1978 
L 3425 0 
L 2847 0 
L 2847 2094 
Q 2847 2600 2669 2842 
Q 2491 3084 2119 3084 
Q 1678 3084 1418 2786 
Q 1159 2488 1159 1978 
L 1159 0 
L 581 0 
L 581 3500 
L 1159 3500 
L 1159 2956 
Q 1356 3278 1631 3431 
Q 1906 3584 2284 3584 
Q 2666 3584 2933 3390 
Q 3200 3197 3328 2828 
z
" transform="scale(0.015625)"/>
       <path id="DejaVuSans-65" d="M 3597 1894 
L 3597 1613 
L 953 1613 
Q 991 1019 1311 708 
Q 1631 397 2203 397 
Q 2534 397 2845 478 
Q 3156 559 3463 722 
L 3463 178 
Q 3153 47 2828 -22 
Q 2503 -91 2169 -91 
Q 1331 -91 842 396 
Q 353 884 353 1716 
Q 353 2575 817 3079 
Q 1281 3584 2069 3584 
Q 2775 3584 3186 3129 
Q 3597 2675 3597 1894 
z
M 3022 2063 
Q 3016 2534 2758 2815 
Q 2500 3097 2075 3097 
Q 1594 3097 1305 2825 
Q 1016 2553 972 2059 
L 3022 2063 
z
" transform="scale(0.015625)"/>
      </defs>
      <use xlink:href="#DejaVuSans-74"/>
      <use xlink:href="#DejaVuSans-69" x="39.208984"/>
      <use xlink:href="#DejaVuSans-6d" x="66.992188"/>
      <use xlink:href="#DejaVuSans-65" x="164.404297"/>
     </g>
    </g>
    <g id="text_9">
     <!-- 1e12 -->
     <g transform="translate(1259.959375 417.316562) scale(0.1 -0.1)">
      <use xlink:href="#DejaVuSans-31"/>
      <use xlink:href="#DejaVuSans-65" x="63.623047"/>
      <use xlink:href="#DejaVuSans-31" x="125.146484"/>
      <use xlink:href="#DejaVuSans-32" x="188.769531"/>
     </g>
    </g>
   </g>
   <g id="matplotlib.axis_2">
    <g id="ytick_1">
     <g id="line2d_8">
      <defs>
       <path id="m6f5641d2ae" d="M 0 0 
L -3.5 0 
" style="stroke: #000000; stroke-width: 0.8"/>
      </defs>
      <g>
       <use xlink:href="#m6f5641d2ae" x="46.55" y="344.750528" style="stroke: #000000; stroke-width: 0.8"/>
      </g>
     </g>
     <g id="text_10">
      <!-- −5 -->
      <g transform="translate(24.807812 348.549746) scale(0.1 -0.1)">
       <defs>
        <path id="DejaVuSans-2212" d="M 678 2272 
L 4684 2272 
L 4684 1741 
L 678 1741 
L 678 2272 
z
" transform="scale(0.015625)"/>
        <path id="DejaVuSans-35" d="M 691 4666 
L 3169 4666 
L 3169 4134 
L 1269 4134 
L 1269 2991 
Q 1406 3038 1543 3061 
Q 1681 3084 1819 3084 
Q 2600 3084 3056 2656 
Q 3513 2228 3513 1497 
Q 3513 744 3044 326 
Q 2575 -91 1722 -91 
Q 1428 -91 1123 -41 
Q 819 9 494 109 
L 494 744 
Q 775 591 1075 516 
Q 1375 441 1709 441 
Q 2250 441 2565 725 
Q 2881 1009 2881 1497 
Q 2881 1984 2565 2268 
Q 2250 2553 1709 2553 
Q 1456 2553 1204 2497 
Q 953 2441 691 2322 
L 691 4666 
z
" transform="scale(0.015625)"/>
       </defs>
       <use xlink:href="#DejaVuSans-2212"/>
       <use xlink:href="#DejaVuSans-35" x="83.789062"/>
      </g>
     </g>
    </g>
    <g id="ytick_2">
     <g id="line2d_9">
      <g>
       <use xlink:href="#m6f5641d2ae" x="46.55" y="282.562485" style="stroke: #000000; stroke-width: 0.8"/>
      </g>
     </g>
     <g id="text_11">
      <!-- 0 -->
      <g transform="translate(33.1875 286.361704) scale(0.1 -0.1)">
       <use xlink:href="#DejaVuSans-30"/>
      </g>
     </g>
    </g>
    <g id="ytick_3">
     <g id="line2d_10">
      <g>
       <use xlink:href="#m6f5641d2ae" x="46.55" y="220.374442" style="stroke: #000000; stroke-width: 0.8"/>
      </g>
     </g>
     <g id="text_12">
      <!-- 5 -->
      <g transform="translate(33.1875 224.173661) scale(0.1 -0.1)">
       <use xlink:href="#DejaVuSans-35"/>
      </g>
     </g>
    </g>
    <g id="ytick_4">
     <g id="line2d_11">
      <g>
       <use xlink:href="#m6f5641d2ae" x="46.55" y="158.1864" style="stroke: #000000; stroke-width: 0.8"/>
      </g>
     </g>
     <g id="text_13">
      <!-- 10 -->
      <g transform="translate(26.825 161.985618) scale(0.1 -0.1)">
       <use xlink:href="#DejaVuSans-31"/>
       <use xlink:href="#DejaVuSans-30" x="63.623047"/>
      </g>
     </g>
    </g>
    <g id="ytick_5">
     <g id="line2d_12">
      <g>
       <use xlink:href="#m6f5641d2ae" x="46.55" y="95.998357" style="stroke: #000000; stroke-width: 0.8"/>
      </g>
     </g>
     <g id="text_14">
      <!-- 15 -->
      <g transform="translate(26.825 99.797576) scale(0.1 -0.1)">
       <use xlink:href="#DejaVuSans-31"/>
       <use xlink:href="#DejaVuSans-35" x="63.623047"/>
      </g>
     </g>
    </g>
    <g id="ytick_6">
     <g id="line2d_13">
      <g>
       <use xlink:href="#m6f5641d2ae" x="46.55" y="33.810314" style="stroke: #000000; stroke-width: 0.8"/>
      </g>
     </g>
     <g id="text_15">
      <!-- 20 -->
      <g transform="translate(26.825 37.609533) scale(0.1 -0.1)">
       <use xlink:href="#DejaVuSans-32"/>
       <use xlink:href="#DejaVuSans-30" x="63.623047"/>
      </g>
     </g>
    </g>
    <g id="text_16">
     <!-- acc -->
     <g transform="translate(18.728125 217.0225) rotate(-90) scale(0.1 -0.1)">
      <defs>
       <path id="DejaVuSans-61" d="M 2194 1759 
Q 1497 1759 1228 1600 
Q 959 1441 959 1056 
Q 959 750 1161 570 
Q 1363 391 1709 391 
Q 2188 391 2477 730 
Q 2766 1069 2766 1631 
L 2766 1759 
L 2194 1759 
z
M 3341 1997 
L 3341 0 
L 2766 0 
L 2766 531 
Q 2569 213 2275 61 
Q 1981 -91 1556 -91 
Q 1019 -91 701 211 
Q 384 513 384 1019 
Q 384 1609 779 1909 
Q 1175 2209 1959 2209 
L 2766 2209 
L 2766 2266 
Q 2766 2663 2505 2880 
Q 2244 3097 1772 3097 
Q 1472 3097 1187 3025 
Q 903 2953 641 2809 
L 641 3341 
Q 956 3463 1253 3523 
Q 1550 3584 1831 3584 
Q 2591 3584 2966 3190 
Q 3341 2797 3341 1997 
z
" transform="scale(0.015625)"/>
       <path id="DejaVuSans-63" d="M 3122 3366 
L 3122 2828 
Q 2878 2963 2633 3030 
Q 2388 3097 2138 3097 
Q 1578 3097 1268 2742 
Q 959 2388 959 1747 
Q 959 1106 1268 751 
Q 1578 397 2138 397 
Q 2388 397 2633 464 
Q 2878 531 3122 666 
L 3122 134 
Q 2881 22 2623 -34 
Q 2366 -91 2075 -91 
Q 1284 -91 818 406 
Q 353 903 353 1747 
Q 353 2603 823 3093 
Q 1294 3584 2113 3584 
Q 2378 3584 2631 3529 
Q 2884 3475 3122 3366 
z
" transform="scale(0.015625)"/>
      </defs>
      <use xlink:href="#DejaVuSans-61"/>
      <use xlink:href="#DejaVuSans-63" x="61.279297"/>
      <use xlink:href="#DejaVuSans-63" x="116.259766"/>
     </g>
    </g>
   </g>
   <g id="line2d_14">
    <path d="M 102.852273 166.892726 
L 111.692012 168.758367 
L 120.580264 181.071599 
L 129.452405 182.937241 
L 138.265055 159.554537 
L 148.877098 262.537935 
L 157.722149 288.781289 
L 166.583489 262.537935 
L 175.42854 189.777925 
L 184.27908 311.666489 
L 193.134931 341.143621 
L 201.985471 314.402763 
L 210.846811 58.063651 
L 219.691862 131.943046 
L 228.547713 161.04705 
L 237.398253 307.313326 
L 246.254104 321.740952 
L 255.104644 311.168985 
L 263.955184 289.154418 
L 272.805724 245.498412 
L 281.667064 213.906886 
L 290.512115 172.489649 
L 299.373455 190.026677 
L 308.218506 203.459295 
L 317.074357 167.141478 
L 325.930386 150.599458 
L 334.780748 224.976357 
L 343.631288 260.672294 
L 352.487317 293.880709 
L 361.332368 274.478039 
L 370.193708 218.135673 
L 379.038759 288.283785 
L 387.900099 315.895276 
L 396.74515 294.875717 
L 405.601001 59.68054 
L 414.451541 179.205958 
L 423.302081 243.881522 
L 432.157932 293.010076 
L 441.01396 292.015068 
L 449.859012 299.726385 
L 458.714863 276.841185 
L 467.565403 257.31414 
L 476.426743 220.250066 
L 485.271794 156.693887 
L 494.127645 158.683904 
L 502.978185 196.369858 
L 511.834036 191.643567 
L 520.684576 181.071599 
L 529.545916 187.166027 
L 538.385655 237.787094 
L 547.241507 280.199339 
L 556.092047 273.109903 
L 564.953387 220.498818 
L 573.798438 300.721393 
L 582.648977 336.914834 
L 591.504829 306.815822 
L 600.355369 65.277464 
L 609.216709 135.3012 
L 618.06176 220.250066 
L 626.912299 198.733003 
L 635.768151 323.109089 
L 644.61869 304.079548 
L 653.474542 289.154418 
L 662.325082 273.980535 
L 671.175621 243.881522 
L 680.031473 208.185586 
L 688.882012 185.797891 
L 697.743352 169.628999 
L 706.588404 194.006712 
L 715.438943 176.345308 
L 724.294795 185.797891 
L 733.145334 231.56829 
L 742.001186 241.020872 
L 750.851725 286.791272 
L 759.702265 271.493013 
L 768.558117 244.503403 
L 777.408656 303.084539 
L 786.264508 313.53213 
L 795.115047 199.728012 
L 803.965587 49.606077 
L 812.821439 232.936427 
L 821.671978 155.32575 
L 830.533318 315.895276 
L 839.378369 302.587035 
L 848.228909 288.283785 
L 857.084761 278.333698 
L 865.9353 254.950994 
L 874.791152 176.842812 
L 883.641691 191.146062 
L 892.492231 209.678099 
L 901.348082 184.802882 
L 910.203934 155.823254 
L 919.054474 150.599458 
L 927.915814 248.234685 
L 936.750064 291.144435 
L 945.611404 289.154418 
L 954.461944 220.498818 
L 963.317796 255.448498 
L 972.173824 331.691039 
L 981.018875 326.964748 
L 989.880215 151.096963 
L 998.746867 76.222559 
L 1007.586606 241.020872 
L 1016.431657 209.678099 
L 1025.282197 300.721393 
L 1034.143537 291.144435 
L 1042.988588 294.378213 
L 1051.844439 274.478039 
L 1060.694979 251.59284 
L 1069.545519 227.339503 
L 1078.40137 192.141071 
L 1087.25191 146.7438 
L 1096.11325 174.852795 
L 1104.958301 144.007526 
L 1113.814153 184.802882 
L 1122.664692 243.384018 
L 1131.515232 276.841185 
L 1140.376572 273.980535 
L 1149.232423 213.906886 
L 1158.072163 282.064981 
L 1166.933503 332.561671 
L 1175.778554 280.199339 
L 1184.639894 43.387273 
L 1193.463345 197.364867 
L 1202.335485 161.917682 
L 1211.191336 308.308335 
L 1220.041876 301.592026 
L 1228.897727 286.791272 
L 1228.897727 286.791272 
" clip-path="url(#p1c66545f88)" style="fill: none; stroke: #1f77b4; stroke-width: 1.5; stroke-linecap: square"/>
   </g>
   <g id="line2d_15">
    <path d="M 102.852273 169.255871 
L 111.692012 169.255871 
L 120.580264 153.460108 
L 129.452405 147.241304 
L 138.265055 156.320758 
L 148.877098 55.203001 
L 157.722149 76.222559 
L 166.583489 192.887327 
L 175.42854 233.931436 
L 184.27908 190.026677 
L 193.134931 237.28959 
L 201.985471 232.563299 
L 210.846811 129.082396 
L 219.691862 202.091158 
L 228.547713 55.203001 
L 237.398253 164.778332 
L 246.254104 136.420585 
L 255.104644 190.524182 
L 263.955184 212.911877 
L 272.805724 158.683904 
L 281.667064 148.733817 
L 290.512115 139.529987 
L 299.373455 171.992145 
L 308.218506 159.554537 
L 317.074357 142.017508 
L 325.930386 156.320758 
L 334.780748 144.878158 
L 343.631288 57.193018 
L 352.487317 98.610255 
L 361.332368 191.146062 
L 370.193708 241.518377 
L 379.038759 217.389416 
L 387.900099 225.349486 
L 396.74515 211.046236 
L 405.601001 134.306191 
L 414.451541 212.538749 
L 423.302081 65.774968 
L 432.157932 129.082396 
L 441.01396 202.091158 
L 449.859012 131.445541 
L 458.714863 202.091158 
L 467.565403 209.678099 
L 476.426743 156.320758 
L 485.271794 121.992959 
L 494.127645 177.713445 
L 502.978185 183.434745 
L 511.834036 146.370671 
L 520.684576 157.688895 
L 529.545916 142.017508 
L 538.385655 46.247923 
L 547.241507 121.495454 
L 556.092047 200.10114 
L 564.953387 237.28959 
L 573.798438 198.733003 
L 582.648977 208.68309 
L 591.504829 194.752969 
L 600.355369 130.574909 
L 609.216709 210.051227 
L 618.06176 155.32575 
L 626.912299 86.172646 
L 635.768151 187.663532 
L 644.61869 137.664345 
L 653.474542 183.932249 
L 662.325082 188.161036 
L 671.175621 165.897717 
L 680.031473 160.549545 
L 688.882012 161.917682 
L 697.743352 168.758367 
L 706.588404 154.828245 
L 715.438943 155.823254 
L 724.294795 137.166841 
L 733.145334 117.764172 
L 742.001186 48.611068 
L 750.851725 123.8586 
L 759.702265 216.270031 
L 768.558117 236.792086 
L 777.408656 212.538749 
L 786.264508 233.931436 
L 795.115047 194.504217 
L 803.965587 118.634804 
L 812.821439 191.643567 
L 821.671978 62.043686 
L 830.533318 194.752969 
L 839.378369 156.320758 
L 848.228909 173.484658 
L 857.084761 188.161036 
L 865.9353 161.04705 
L 874.791152 158.683904 
L 883.641691 178.708454 
L 892.492231 170.624008 
L 901.348082 167.141478 
L 910.203934 170.126504 
L 919.054474 137.166841 
L 927.915814 94.381468 
L 936.750064 45.252914 
L 945.611404 144.380654 
L 954.461944 231.070786 
L 963.317796 223.981349 
L 972.173824 217.389416 
L 981.018875 250.722207 
L 989.880215 163.410195 
L 998.746867 121.495454 
L 1007.586606 186.295395 
L 1016.431657 52.839855 
L 1025.282197 192.141071 
L 1034.143537 159.554537 
L 1042.988588 180.574095 
L 1051.844439 202.091158 
L 1060.694979 173.982162 
L 1069.545519 160.549545 
L 1078.40137 141.395628 
L 1087.25191 156.693887 
L 1096.11325 166.395221 
L 1104.958301 148.236313 
L 1113.814153 146.370671 
L 1122.664692 57.193018 
L 1131.515232 83.063244 
L 1140.376572 212.911877 
L 1149.232423 247.861557 
L 1158.072163 202.464286 
L 1166.933503 218.135673 
L 1175.778554 206.319945 
L 1184.639894 121.495454 
L 1193.463345 219.752562 
L 1202.335485 51.969223 
L 1211.191336 174.852795 
L 1220.041876 153.460108 
L 1228.897727 176.842812 
L 1228.897727 176.842812 
" clip-path="url(#p1c66545f88)" style="fill: none; stroke: #ff7f0e; stroke-width: 1.5; stroke-linecap: square"/>
   </g>
   <g id="line2d_16">
    <path d="M 102.852273 258.337634 
L 111.692012 302.044009 
L 120.580264 343.548122 
L 129.452405 292.04914 
L 138.265055 218.188756 
L 148.877098 298.317108 
L 157.722149 311.700068 
L 166.583489 306.448527 
L 175.42854 259.184657 
L 184.27908 324.913624 
L 193.134931 290.18569 
L 201.985471 180.072723 
L 210.846811 373.532727 
L 219.691862 307.29555 
L 228.547713 188.204151 
L 237.398253 321.186722 
L 246.254104 317.798633 
L 255.104644 290.18569 
L 263.955184 287.305813 
L 281.667064 321.694937 
L 290.512115 322.541959 
L 299.373455 207.685674 
L 308.218506 342.531699 
L 317.074357 322.033746 
L 325.930386 223.94851 
L 334.780748 288.830453 
L 343.631288 263.927985 
L 352.487317 295.437232 
L 361.332368 300.180559 
L 370.193708 267.824288 
L 379.038759 316.443396 
L 387.900099 310.175426 
L 396.74515 196.84378 
L 405.601001 314.071731 
L 414.451541 283.578912 
L 423.302081 201.078894 
L 432.157932 334.061473 
L 441.01396 300.688772 
L 449.859012 307.803763 
L 458.714863 304.923886 
L 467.565403 310.683641 
L 476.426743 319.323274 
L 485.271794 313.055303 
L 494.127645 226.320173 
L 502.978185 332.028615 
L 511.834036 310.683641 
L 520.684576 242.074798 
L 529.545916 304.076863 
L 538.385655 324.066598 
L 547.241507 269.179525 
L 556.092047 290.18569 
L 564.953387 283.578912 
L 573.798438 324.913624 
L 582.648977 307.29555 
L 591.504829 210.057334 
L 600.355369 314.918755 
L 609.216709 272.059403 
L 618.06176 307.29555 
L 626.912299 198.19902 
L 635.768151 307.803763 
L 644.61869 309.667214 
L 653.474542 300.688772 
L 662.325082 294.420804 
L 671.175621 298.825322 
L 680.031473 314.918755 
L 688.882012 332.028615 
L 697.743352 166.859181 
L 706.588404 344.903361 
L 715.438943 295.437232 
L 724.294795 228.691836 
L 733.145334 323.050172 
L 742.001186 291.540926 
L 750.851725 262.572748 
L 759.702265 299.16413 
L 768.558117 279.174394 
L 777.408656 317.290417 
L 786.264508 304.415673 
L 795.115047 229.708266 
L 803.965587 271.042975 
L 812.821439 303.568649 
L 821.671978 206.330435 
L 830.533318 316.782206 
L 839.378369 345.411574 
L 848.228909 321.694937 
L 857.084761 293.573781 
L 865.9353 293.065567 
L 874.791152 274.431066 
L 883.641691 286.289385 
L 892.492231 284.934149 
L 901.348082 297.808895 
L 910.203934 308.311979 
L 919.054474 238.686705 
L 927.915814 287.305813 
L 936.750064 288.32224 
L 945.611404 306.787336 
L 954.461944 276.80273 
L 963.317796 288.830453 
L 972.173824 320.170296 
L 981.018875 302.552222 
L 989.880215 185.324273 
L 998.746867 289.169262 
L 1007.586606 293.573781 
L 1016.431657 199.723659 
L 1025.282197 314.918755 
L 1034.143537 313.563519 
L 1042.988588 298.317108 
L 1051.844439 296.453658 
L 1060.694979 310.175426 
L 1069.545519 314.918755 
L 1078.40137 305.940314 
L 1087.25191 168.722621 
L 1096.11325 357.778106 
L 1104.958301 322.541959 
L 1113.814153 201.078894 
L 1122.664692 303.568649 
L 1131.515232 288.830453 
L 1140.376572 310.175426 
L 1149.232423 263.41977 
L 1158.072163 322.541959 
L 1166.933503 316.782206 
L 1175.778554 168.722621 
L 1184.639894 315.935182 
L 1193.463345 300.688772 
L 1202.335485 195.319141 
L 1211.191336 322.541959 
L 1220.041876 300.688772 
L 1228.897727 294.929018 
L 1228.897727 294.929018 
" clip-path="url(#p1c66545f88)" style="fill: none; stroke: #2ca02c; stroke-width: 1.5; stroke-linecap: square"/>
   </g>
   <g id="patch_3">
    <path d="M 46.55 390.04 
L 46.55 26.88 
" style="fill: none; stroke: #000000; stroke-width: 0.8; stroke-linejoin: miter; stroke-linecap: square"/>
   </g>
   <g id="patch_4">
    <path d="M 1285.2 390.04 
L 1285.2 26.88 
" style="fill: none; stroke: #000000; stroke-width: 0.8; stroke-linejoin: miter; stroke-linecap: square"/>
   </g>
   <g id="patch_5">
    <path d="M 46.55 390.04 
L 1285.2 390.04 
" style="fill: none; stroke: #000000; stroke-width: 0.8; stroke-linejoin: miter; stroke-linecap: square"/>
   </g>
   <g id="patch_6">
    <path d="M 46.55 26.88 
L 1285.2 26.88 
" style="fill: none; stroke: #000000; stroke-width: 0.8; stroke-linejoin: miter; stroke-linecap: square"/>
   </g>
   <g id="text_17">
    <!-- User 15, Action 0 -->
    <g transform="translate(614.328437 20.88) scale(0.12 -0.12)">
     <defs>
      <path id="DejaVuSans-55" d="M 556 4666 
L 1191 4666 
L 1191 1831 
Q 1191 1081 1462 751 
Q 1734 422 2344 422 
Q 2950 422 3222 751 
Q 3494 1081 3494 1831 
L 3494 4666 
L 4128 4666 
L 4128 1753 
Q 4128 841 3676 375 
Q 3225 -91 2344 -91 
Q 1459 -91 1007 375 
Q 556 841 556 1753 
L 556 4666 
z
" transform="scale(0.015625)"/>
      <path id="DejaVuSans-73" d="M 2834 3397 
L 2834 2853 
Q 2591 2978 2328 3040 
Q 2066 3103 1784 3103 
Q 1356 3103 1142 2972 
Q 928 2841 928 2578 
Q 928 2378 1081 2264 
Q 1234 2150 1697 2047 
L 1894 2003 
Q 2506 1872 2764 1633 
Q 3022 1394 3022 966 
Q 3022 478 2636 193 
Q 2250 -91 1575 -91 
Q 1294 -91 989 -36 
Q 684 19 347 128 
L 347 722 
Q 666 556 975 473 
Q 1284 391 1588 391 
Q 1994 391 2212 530 
Q 2431 669 2431 922 
Q 2431 1156 2273 1281 
Q 2116 1406 1581 1522 
L 1381 1569 
Q 847 1681 609 1914 
Q 372 2147 372 2553 
Q 372 3047 722 3315 
Q 1072 3584 1716 3584 
Q 2034 3584 2315 3537 
Q 2597 3491 2834 3397 
z
" transform="scale(0.015625)"/>
      <path id="DejaVuSans-72" d="M 2631 2963 
Q 2534 3019 2420 3045 
Q 2306 3072 2169 3072 
Q 1681 3072 1420 2755 
Q 1159 2438 1159 1844 
L 1159 0 
L 581 0 
L 581 3500 
L 1159 3500 
L 1159 2956 
Q 1341 3275 1631 3429 
Q 1922 3584 2338 3584 
Q 2397 3584 2469 3576 
Q 2541 3569 2628 3553 
L 2631 2963 
z
" transform="scale(0.015625)"/>
      <path id="DejaVuSans-20" transform="scale(0.015625)"/>
      <path id="DejaVuSans-2c" d="M 750 794 
L 1409 794 
L 1409 256 
L 897 -744 
L 494 -744 
L 750 256 
L 750 794 
z
" transform="scale(0.015625)"/>
      <path id="DejaVuSans-41" d="M 2188 4044 
L 1331 1722 
L 3047 1722 
L 2188 4044 
z
M 1831 4666 
L 2547 4666 
L 4325 0 
L 3669 0 
L 3244 1197 
L 1141 1197 
L 716 0 
L 50 0 
L 1831 4666 
z
" transform="scale(0.015625)"/>
      <path id="DejaVuSans-6f" d="M 1959 3097 
Q 1497 3097 1228 2736 
Q 959 2375 959 1747 
Q 959 1119 1226 758 
Q 1494 397 1959 397 
Q 2419 397 2687 759 
Q 2956 1122 2956 1747 
Q 2956 2369 2687 2733 
Q 2419 3097 1959 3097 
z
M 1959 3584 
Q 2709 3584 3137 3096 
Q 3566 2609 3566 1747 
Q 3566 888 3137 398 
Q 2709 -91 1959 -91 
Q 1206 -91 779 398 
Q 353 888 353 1747 
Q 353 2609 779 3096 
Q 1206 3584 1959 3584 
z
" transform="scale(0.015625)"/>
      <path id="DejaVuSans-6e" d="M 3513 2113 
L 3513 0 
L 2938 0 
L 2938 2094 
Q 2938 2591 2744 2837 
Q 2550 3084 2163 3084 
Q 1697 3084 1428 2787 
Q 1159 2491 1159 1978 
L 1159 0 
L 581 0 
L 581 3500 
L 1159 3500 
L 1159 2956 
Q 1366 3272 1645 3428 
Q 1925 3584 2291 3584 
Q 2894 3584 3203 3211 
Q 3513 2838 3513 2113 
z
" transform="scale(0.015625)"/>
     </defs>
     <use xlink:href="#DejaVuSans-55"/>
     <use xlink:href="#DejaVuSans-73" x="73.193359"/>
     <use xlink:href="#DejaVuSans-65" x="125.292969"/>
     <use xlink:href="#DejaVuSans-72" x="186.816406"/>
     <use xlink:href="#DejaVuSans-20" x="227.929688"/>
     <use xlink:href="#DejaVuSans-31" x="259.716797"/>
     <use xlink:href="#DejaVuSans-35" x="323.339844"/>
     <use xlink:href="#DejaVuSans-2c" x="386.962891"/>
     <use xlink:href="#DejaVuSans-20" x="418.75"/>
     <use xlink:href="#DejaVuSans-41" x="450.537109"/>
     <use xlink:href="#DejaVuSans-63" x="517.195312"/>
     <use xlink:href="#DejaVuSans-74" x="572.175781"/>
     <use xlink:href="#DejaVuSans-69" x="611.384766"/>
     <use xlink:href="#DejaVuSans-6f" x="639.167969"/>
     <use xlink:href="#DejaVuSans-6e" x="700.349609"/>
     <use xlink:href="#DejaVuSans-20" x="763.728516"/>
     <use xlink:href="#DejaVuSans-30" x="795.515625"/>
    </g>
   </g>
   <g id="legend_1">
    <g id="patch_7">
     <path d="M 1219.548438 78.914375 
L 1278.2 78.914375 
Q 1280.2 78.914375 1280.2 76.914375 
L 1280.2 33.88 
Q 1280.2 31.88 1278.2 31.88 
L 1219.548438 31.88 
Q 1217.548438 31.88 1217.548438 33.88 
L 1217.548438 76.914375 
Q 1217.548438 78.914375 1219.548438 78.914375 
z
" style="fill: #ffffff; opacity: 0.8; stroke: #cccccc; stroke-linejoin: miter"/>
    </g>
    <g id="line2d_17">
     <path d="M 1221.548438 39.978437 
L 1231.548438 39.978437 
L 1241.548438 39.978437 
" style="fill: none; stroke: #1f77b4; stroke-width: 1.5; stroke-linecap: square"/>
    </g>
    <g id="text_18">
     <!-- acc-x -->
     <g transform="translate(1249.548438 43.478437) scale(0.1 -0.1)">
      <defs>
       <path id="DejaVuSans-2d" d="M 313 2009 
L 1997 2009 
L 1997 1497 
L 313 1497 
L 313 2009 
z
" transform="scale(0.015625)"/>
       <path id="DejaVuSans-78" d="M 3513 3500 
L 2247 1797 
L 3578 0 
L 2900 0 
L 1881 1375 
L 863 0 
L 184 0 
L 1544 1831 
L 300 3500 
L 978 3500 
L 1906 2253 
L 2834 3500 
L 3513 3500 
z
" transform="scale(0.015625)"/>
      </defs>
      <use xlink:href="#DejaVuSans-61"/>
      <use xlink:href="#DejaVuSans-63" x="61.279297"/>
      <use xlink:href="#DejaVuSans-63" x="116.259766"/>
      <use xlink:href="#DejaVuSans-2d" x="171.240234"/>
      <use xlink:href="#DejaVuSans-78" x="207.324219"/>
     </g>
    </g>
    <g id="line2d_18">
     <path d="M 1221.548438 54.656563 
L 1231.548438 54.656563 
L 1241.548438 54.656563 
" style="fill: none; stroke: #ff7f0e; stroke-width: 1.5; stroke-linecap: square"/>
    </g>
    <g id="text_19">
     <!-- acc-y -->
     <g transform="translate(1249.548438 58.156563) scale(0.1 -0.1)">
      <defs>
       <path id="DejaVuSans-79" d="M 2059 -325 
Q 1816 -950 1584 -1140 
Q 1353 -1331 966 -1331 
L 506 -1331 
L 506 -850 
L 844 -850 
Q 1081 -850 1212 -737 
Q 1344 -625 1503 -206 
L 1606 56 
L 191 3500 
L 800 3500 
L 1894 763 
L 2988 3500 
L 3597 3500 
L 2059 -325 
z
" transform="scale(0.015625)"/>
      </defs>
      <use xlink:href="#DejaVuSans-61"/>
      <use xlink:href="#DejaVuSans-63" x="61.279297"/>
      <use xlink:href="#DejaVuSans-63" x="116.259766"/>
      <use xlink:href="#DejaVuSans-2d" x="171.240234"/>
      <use xlink:href="#DejaVuSans-79" x="205.574219"/>
     </g>
    </g>
    <g id="line2d_19">
     <path d="M 1221.548438 69.334687 
L 1231.548438 69.334687 
L 1241.548438 69.334687 
" style="fill: none; stroke: #2ca02c; stroke-width: 1.5; stroke-linecap: square"/>
    </g>
    <g id="text_20">
     <!-- acc-z -->
     <g transform="translate(1249.548438 72.834687) scale(0.1 -0.1)">
      <defs>
       <path id="DejaVuSans-7a" d="M 353 3500 
L 3084 3500 
L 3084 2975 
L 922 459 
L 3084 459 
L 3084 0 
L 275 0 
L 275 525 
L 2438 3041 
L 353 3041 
L 353 3500 
z
" transform="scale(0.015625)"/>
      </defs>
      <use xlink:href="#DejaVuSans-61"/>
      <use xlink:href="#DejaVuSans-63" x="61.279297"/>
      <use xlink:href="#DejaVuSans-63" x="116.259766"/>
      <use xlink:href="#DejaVuSans-2d" x="171.240234"/>
      <use xlink:href="#DejaVuSans-7a" x="207.324219"/>
     </g>
    </g>
   </g>
  </g>
 </g>
 <defs>
  <clipPath id="p1c66545f88">
   <rect x="46.55" y="26.88" width="1238.65" height="363.16"/>
  </clipPath>
 </defs>
</svg>
