<?xml version="1.0" encoding="utf-8" standalone="no"?>
<!DOCTYPE svg PUBLIC "-//W3C//DTD SVG 1.1//EN"
  "http://www.w3.org/Graphics/SVG/1.1/DTD/svg11.dtd">
<svg xmlns:xlink="http://www.w3.org/1999/xlink" width="1296pt" height="432pt" viewBox="0 0 1296 432" xmlns="http://www.w3.org/2000/svg" version="1.1">
 <metadata>
  <rdf:RDF xmlns:dc="http://purl.org/dc/elements/1.1/" xmlns:cc="http://creativecommons.org/ns#" xmlns:rdf="http://www.w3.org/1999/02/22-rdf-syntax-ns#">
   <cc:Work>
    <dc:type rdf:resource="http://purl.org/dc/dcmitype/StillImage"/>
    <dc:date>2025-03-28T12:11:09.098551</dc:date>
    <dc:format>image/svg+xml</dc:format>
    <dc:creator>
     <cc:Agent>
      <dc:title>Matplotlib v3.7.5, https://matplotlib.org/</dc:title>
     </cc:Agent>
    </dc:creator>
   </cc:Work>
  </rdf:RDF>
 </metadata>
 <defs>
  <style type="text/css">*{stroke-linejoin: round; stroke-linecap: butt}</style>
 </defs>
 <g id="figure_1">
  <g id="patch_1">
   <path d="M 0 432 
L 1296 432 
L 1296 0 
L 0 0 
z
" style="fill: #ffffff"/>
  </g>
  <g id="axes_1">
   <g id="patch_2">
    <path d="M 52.94 390.04 
L 1285.2 390.04 
L 1285.2 26.88 
L 52.94 26.88 
z
" style="fill: #ffffff"/>
   </g>
   <g id="matplotlib.axis_1">
    <g id="xtick_1">
     <g id="line2d_1">
      <defs>
       <path id="m6ec2cbbd71" d="M 0 0 
L 0 3.5 
" style="stroke: #000000; stroke-width: 0.8"/>
      </defs>
      <g>
       <use xlink:href="#m6ec2cbbd71" x="119.391681" y="390.04" style="stroke: #000000; stroke-width: 0.8"/>
      </g>
     </g>
     <g id="text_1">
      <!-- 29 -->
      <g transform="translate(113.029181 404.638438) scale(0.1 -0.1)">
       <defs>
        <path id="DejaVuSans-32" d="M 1228 531 
L 3431 531 
L 3431 0 
L 469 0 
L 469 531 
Q 828 903 1448 1529 
Q 2069 2156 2228 2338 
Q 2531 2678 2651 2914 
Q 2772 3150 2772 3378 
Q 2772 3750 2511 3984 
Q 2250 4219 1831 4219 
Q 1534 4219 1204 4116 
Q 875 4013 500 3803 
L 500 4441 
Q 881 4594 1212 4672 
Q 1544 4750 1819 4750 
Q 2544 4750 2975 4387 
Q 3406 4025 3406 3419 
Q 3406 3131 3298 2873 
Q 3191 2616 2906 2266 
Q 2828 2175 2409 1742 
Q 1991 1309 1228 531 
z
" transform="scale(0.015625)"/>
        <path id="DejaVuSans-39" d="M 703 97 
L 703 672 
Q 941 559 1184 500 
Q 1428 441 1663 441 
Q 2288 441 2617 861 
Q 2947 1281 2994 2138 
Q 2813 1869 2534 1725 
Q 2256 1581 1919 1581 
Q 1219 1581 811 2004 
Q 403 2428 403 3163 
Q 403 3881 828 4315 
Q 1253 4750 1959 4750 
Q 2769 4750 3195 4129 
Q 3622 3509 3622 2328 
Q 3622 1225 3098 567 
Q 2575 -91 1691 -91 
Q 1453 -91 1209 -44 
Q 966 3 703 97 
z
M 1959 2075 
Q 2384 2075 2632 2365 
Q 2881 2656 2881 3163 
Q 2881 3666 2632 3958 
Q 2384 4250 1959 4250 
Q 1534 4250 1286 3958 
Q 1038 3666 1038 3163 
Q 1038 2656 1286 2365 
Q 1534 2075 1959 2075 
z
" transform="scale(0.015625)"/>
       </defs>
       <use xlink:href="#DejaVuSans-32"/>
       <use xlink:href="#DejaVuSans-39" x="63.623047"/>
      </g>
     </g>
    </g>
    <g id="xtick_2">
     <g id="line2d_2">
      <g>
       <use xlink:href="#m6ec2cbbd71" x="297.200429" y="390.04" style="stroke: #000000; stroke-width: 0.8"/>
      </g>
     </g>
     <g id="text_2">
      <!-- 30 -->
      <g transform="translate(290.837929 404.638438) scale(0.1 -0.1)">
       <defs>
        <path id="DejaVuSans-33" d="M 2597 2516 
Q 3050 2419 3304 2112 
Q 3559 1806 3559 1356 
Q 3559 666 3084 287 
Q 2609 -91 1734 -91 
Q 1441 -91 1130 -33 
Q 819 25 488 141 
L 488 750 
Q 750 597 1062 519 
Q 1375 441 1716 441 
Q 2309 441 2620 675 
Q 2931 909 2931 1356 
Q 2931 1769 2642 2001 
Q 2353 2234 1838 2234 
L 1294 2234 
L 1294 2753 
L 1863 2753 
Q 2328 2753 2575 2939 
Q 2822 3125 2822 3475 
Q 2822 3834 2567 4026 
Q 2313 4219 1838 4219 
Q 1578 4219 1281 4162 
Q 984 4106 628 3988 
L 628 4550 
Q 988 4650 1302 4700 
Q 1616 4750 1894 4750 
Q 2613 4750 3031 4423 
Q 3450 4097 3450 3541 
Q 3450 3153 3228 2886 
Q 3006 2619 2597 2516 
z
" transform="scale(0.015625)"/>
        <path id="DejaVuSans-30" d="M 2034 4250 
Q 1547 4250 1301 3770 
Q 1056 3291 1056 2328 
Q 1056 1369 1301 889 
Q 1547 409 2034 409 
Q 2525 409 2770 889 
Q 3016 1369 3016 2328 
Q 3016 3291 2770 3770 
Q 2525 4250 2034 4250 
z
M 2034 4750 
Q 2819 4750 3233 4129 
Q 3647 3509 3647 2328 
Q 3647 1150 3233 529 
Q 2819 -91 2034 -91 
Q 1250 -91 836 529 
Q 422 1150 422 2328 
Q 422 3509 836 4129 
Q 1250 4750 2034 4750 
z
" transform="scale(0.015625)"/>
       </defs>
       <use xlink:href="#DejaVuSans-33"/>
       <use xlink:href="#DejaVuSans-30" x="63.623047"/>
      </g>
     </g>
    </g>
    <g id="xtick_3">
     <g id="line2d_3">
      <g>
       <use xlink:href="#m6ec2cbbd71" x="475.009177" y="390.04" style="stroke: #000000; stroke-width: 0.8"/>
      </g>
     </g>
     <g id="text_3">
      <!-- 31 -->
      <g transform="translate(468.646677 404.638438) scale(0.1 -0.1)">
       <defs>
        <path id="DejaVuSans-31" d="M 794 531 
L 1825 531 
L 1825 4091 
L 703 3866 
L 703 4441 
L 1819 4666 
L 2450 4666 
L 2450 531 
L 3481 531 
L 3481 0 
L 794 0 
L 794 531 
z
" transform="scale(0.015625)"/>
       </defs>
       <use xlink:href="#DejaVuSans-33"/>
       <use xlink:href="#DejaVuSans-31" x="63.623047"/>
      </g>
     </g>
    </g>
    <g id="xtick_4">
     <g id="line2d_4">
      <g>
       <use xlink:href="#m6ec2cbbd71" x="652.817925" y="390.04" style="stroke: #000000; stroke-width: 0.8"/>
      </g>
     </g>
     <g id="text_4">
      <!-- 32 -->
      <g transform="translate(646.455425 404.638438) scale(0.1 -0.1)">
       <use xlink:href="#DejaVuSans-33"/>
       <use xlink:href="#DejaVuSans-32" x="63.623047"/>
      </g>
     </g>
    </g>
    <g id="xtick_5">
     <g id="line2d_5">
      <g>
       <use xlink:href="#m6ec2cbbd71" x="830.626673" y="390.04" style="stroke: #000000; stroke-width: 0.8"/>
      </g>
     </g>
     <g id="text_5">
      <!-- 33 -->
      <g transform="translate(824.264173 404.638438) scale(0.1 -0.1)">
       <use xlink:href="#DejaVuSans-33"/>
       <use xlink:href="#DejaVuSans-33" x="63.623047"/>
      </g>
     </g>
    </g>
    <g id="xtick_6">
     <g id="line2d_6">
      <g>
       <use xlink:href="#m6ec2cbbd71" x="1008.435421" y="390.04" style="stroke: #000000; stroke-width: 0.8"/>
      </g>
     </g>
     <g id="text_6">
      <!-- 34 -->
      <g transform="translate(1002.072921 404.638438) scale(0.1 -0.1)">
       <defs>
        <path id="DejaVuSans-34" d="M 2419 4116 
L 825 1625 
L 2419 1625 
L 2419 4116 
z
M 2253 4666 
L 3047 4666 
L 3047 1625 
L 3713 1625 
L 3713 1100 
L 3047 1100 
L 3047 0 
L 2419 0 
L 2419 1100 
L 313 1100 
L 313 1709 
L 2253 4666 
z
" transform="scale(0.015625)"/>
       </defs>
       <use xlink:href="#DejaVuSans-33"/>
       <use xlink:href="#DejaVuSans-34" x="63.623047"/>
      </g>
     </g>
    </g>
    <g id="xtick_7">
     <g id="line2d_7">
      <g>
       <use xlink:href="#m6ec2cbbd71" x="1186.244169" y="390.04" style="stroke: #000000; stroke-width: 0.8"/>
      </g>
     </g>
     <g id="text_7">
      <!-- 35 -->
      <g transform="translate(1179.881669 404.638438) scale(0.1 -0.1)">
       <defs>
        <path id="DejaVuSans-35" d="M 691 4666 
L 3169 4666 
L 3169 4134 
L 1269 4134 
L 1269 2991 
Q 1406 3038 1543 3061 
Q 1681 3084 1819 3084 
Q 2600 3084 3056 2656 
Q 3513 2228 3513 1497 
Q 3513 744 3044 326 
Q 2575 -91 1722 -91 
Q 1428 -91 1123 -41 
Q 819 9 494 109 
L 494 744 
Q 775 591 1075 516 
Q 1375 441 1709 441 
Q 2250 441 2565 725 
Q 2881 1009 2881 1497 
Q 2881 1984 2565 2268 
Q 2250 2553 1709 2553 
Q 1456 2553 1204 2497 
Q 953 2441 691 2322 
L 691 4666 
z
" transform="scale(0.015625)"/>
       </defs>
       <use xlink:href="#DejaVuSans-33"/>
       <use xlink:href="#DejaVuSans-35" x="63.623047"/>
      </g>
     </g>
    </g>
    <g id="text_8">
     <!-- time -->
     <g transform="translate(657.773906 418.316562) scale(0.1 -0.1)">
      <defs>
       <path id="DejaVuSans-74" d="M 1172 4494 
L 1172 3500 
L 2356 3500 
L 2356 3053 
L 1172 3053 
L 1172 1153 
Q 1172 725 1289 603 
Q 1406 481 1766 481 
L 2356 481 
L 2356 0 
L 1766 0 
Q 1100 0 847 248 
Q 594 497 594 1153 
L 594 3053 
L 172 3053 
L 172 3500 
L 594 3500 
L 594 4494 
L 1172 4494 
z
" transform="scale(0.015625)"/>
       <path id="DejaVuSans-69" d="M 603 3500 
L 1178 3500 
L 1178 0 
L 603 0 
L 603 3500 
z
M 603 4863 
L 1178 4863 
L 1178 4134 
L 603 4134 
L 603 4863 
z
" transform="scale(0.015625)"/>
       <path id="DejaVuSans-6d" d="M 3328 2828 
Q 3544 3216 3844 3400 
Q 4144 3584 4550 3584 
Q 5097 3584 5394 3201 
Q 5691 2819 5691 2113 
L 5691 0 
L 5113 0 
L 5113 2094 
Q 5113 2597 4934 2840 
Q 4756 3084 4391 3084 
Q 3944 3084 3684 2787 
Q 3425 2491 3425 1978 
L 3425 0 
L 2847 0 
L 2847 2094 
Q 2847 2600 2669 2842 
Q 2491 3084 2119 3084 
Q 1678 3084 1418 2786 
Q 1159 2488 1159 1978 
L 1159 0 
L 581 0 
L 581 3500 
L 1159 3500 
L 1159 2956 
Q 1356 3278 1631 3431 
Q 1906 3584 2284 3584 
Q 2666 3584 2933 3390 
Q 3200 3197 3328 2828 
z
" transform="scale(0.015625)"/>
       <path id="DejaVuSans-65" d="M 3597 1894 
L 3597 1613 
L 953 1613 
Q 991 1019 1311 708 
Q 1631 397 2203 397 
Q 2534 397 2845 478 
Q 3156 559 3463 722 
L 3463 178 
Q 3153 47 2828 -22 
Q 2503 -91 2169 -91 
Q 1331 -91 842 396 
Q 353 884 353 1716 
Q 353 2575 817 3079 
Q 1281 3584 2069 3584 
Q 2775 3584 3186 3129 
Q 3597 2675 3597 1894 
z
M 3022 2063 
Q 3016 2534 2758 2815 
Q 2500 3097 2075 3097 
Q 1594 3097 1305 2825 
Q 1016 2553 972 2059 
L 3022 2063 
z
" transform="scale(0.015625)"/>
      </defs>
      <use xlink:href="#DejaVuSans-74"/>
      <use xlink:href="#DejaVuSans-69" x="39.208984"/>
      <use xlink:href="#DejaVuSans-6d" x="66.992188"/>
      <use xlink:href="#DejaVuSans-65" x="164.404297"/>
     </g>
    </g>
    <g id="text_9">
     <!-- 1e9+1.311e14 -->
     <g transform="translate(1210.435938 417.316562) scale(0.1 -0.1)">
      <defs>
       <path id="DejaVuSans-2b" d="M 2944 4013 
L 2944 2272 
L 4684 2272 
L 4684 1741 
L 2944 1741 
L 2944 0 
L 2419 0 
L 2419 1741 
L 678 1741 
L 678 2272 
L 2419 2272 
L 2419 4013 
L 2944 4013 
z
" transform="scale(0.015625)"/>
       <path id="DejaVuSans-2e" d="M 684 794 
L 1344 794 
L 1344 0 
L 684 0 
L 684 794 
z
" transform="scale(0.015625)"/>
      </defs>
      <use xlink:href="#DejaVuSans-31"/>
      <use xlink:href="#DejaVuSans-65" x="63.623047"/>
      <use xlink:href="#DejaVuSans-39" x="125.146484"/>
      <use xlink:href="#DejaVuSans-2b" x="188.769531"/>
      <use xlink:href="#DejaVuSans-31" x="272.558594"/>
      <use xlink:href="#DejaVuSans-2e" x="336.181641"/>
      <use xlink:href="#DejaVuSans-33" x="367.96875"/>
      <use xlink:href="#DejaVuSans-31" x="431.591797"/>
      <use xlink:href="#DejaVuSans-31" x="495.214844"/>
      <use xlink:href="#DejaVuSans-65" x="558.837891"/>
      <use xlink:href="#DejaVuSans-31" x="620.361328"/>
      <use xlink:href="#DejaVuSans-34" x="683.984375"/>
     </g>
    </g>
   </g>
   <g id="matplotlib.axis_2">
    <g id="ytick_1">
     <g id="line2d_8">
      <defs>
       <path id="m76f3688673" d="M 0 0 
L -3.5 0 
" style="stroke: #000000; stroke-width: 0.8"/>
      </defs>
      <g>
       <use xlink:href="#m76f3688673" x="52.94" y="381.176775" style="stroke: #000000; stroke-width: 0.8"/>
      </g>
     </g>
     <g id="text_10">
      <!-- −15 -->
      <g transform="translate(24.835312 384.975994) scale(0.1 -0.1)">
       <defs>
        <path id="DejaVuSans-2212" d="M 678 2272 
L 4684 2272 
L 4684 1741 
L 678 1741 
L 678 2272 
z
" transform="scale(0.015625)"/>
       </defs>
       <use xlink:href="#DejaVuSans-2212"/>
       <use xlink:href="#DejaVuSans-31" x="83.789062"/>
       <use xlink:href="#DejaVuSans-35" x="147.412109"/>
      </g>
     </g>
    </g>
    <g id="ytick_2">
     <g id="line2d_9">
      <g>
       <use xlink:href="#m76f3688673" x="52.94" y="332.796726" style="stroke: #000000; stroke-width: 0.8"/>
      </g>
     </g>
     <g id="text_11">
      <!-- −10 -->
      <g transform="translate(24.835312 336.595945) scale(0.1 -0.1)">
       <use xlink:href="#DejaVuSans-2212"/>
       <use xlink:href="#DejaVuSans-31" x="83.789062"/>
       <use xlink:href="#DejaVuSans-30" x="147.412109"/>
      </g>
     </g>
    </g>
    <g id="ytick_3">
     <g id="line2d_10">
      <g>
       <use xlink:href="#m76f3688673" x="52.94" y="284.416677" style="stroke: #000000; stroke-width: 0.8"/>
      </g>
     </g>
     <g id="text_12">
      <!-- −5 -->
      <g transform="translate(31.197812 288.215896) scale(0.1 -0.1)">
       <use xlink:href="#DejaVuSans-2212"/>
       <use xlink:href="#DejaVuSans-35" x="83.789062"/>
      </g>
     </g>
    </g>
    <g id="ytick_4">
     <g id="line2d_11">
      <g>
       <use xlink:href="#m76f3688673" x="52.94" y="236.036628" style="stroke: #000000; stroke-width: 0.8"/>
      </g>
     </g>
     <g id="text_13">
      <!-- 0 -->
      <g transform="translate(39.5775 239.835847) scale(0.1 -0.1)">
       <use xlink:href="#DejaVuSans-30"/>
      </g>
     </g>
    </g>
    <g id="ytick_5">
     <g id="line2d_12">
      <g>
       <use xlink:href="#m76f3688673" x="52.94" y="187.656579" style="stroke: #000000; stroke-width: 0.8"/>
      </g>
     </g>
     <g id="text_14">
      <!-- 5 -->
      <g transform="translate(39.5775 191.455798) scale(0.1 -0.1)">
       <use xlink:href="#DejaVuSans-35"/>
      </g>
     </g>
    </g>
    <g id="ytick_6">
     <g id="line2d_13">
      <g>
       <use xlink:href="#m76f3688673" x="52.94" y="139.27653" style="stroke: #000000; stroke-width: 0.8"/>
      </g>
     </g>
     <g id="text_15">
      <!-- 10 -->
      <g transform="translate(33.215 143.075749) scale(0.1 -0.1)">
       <use xlink:href="#DejaVuSans-31"/>
       <use xlink:href="#DejaVuSans-30" x="63.623047"/>
      </g>
     </g>
    </g>
    <g id="ytick_7">
     <g id="line2d_14">
      <g>
       <use xlink:href="#m76f3688673" x="52.94" y="90.896481" style="stroke: #000000; stroke-width: 0.8"/>
      </g>
     </g>
     <g id="text_16">
      <!-- 15 -->
      <g transform="translate(33.215 94.6957) scale(0.1 -0.1)">
       <use xlink:href="#DejaVuSans-31"/>
       <use xlink:href="#DejaVuSans-35" x="63.623047"/>
      </g>
     </g>
    </g>
    <g id="ytick_8">
     <g id="line2d_15">
      <g>
       <use xlink:href="#m76f3688673" x="52.94" y="42.516432" style="stroke: #000000; stroke-width: 0.8"/>
      </g>
     </g>
     <g id="text_17">
      <!-- 20 -->
      <g transform="translate(33.215 46.315651) scale(0.1 -0.1)">
       <use xlink:href="#DejaVuSans-32"/>
       <use xlink:href="#DejaVuSans-30" x="63.623047"/>
      </g>
     </g>
    </g>
    <g id="text_18">
     <!-- acc -->
     <g transform="translate(18.755625 217.0225) rotate(-90) scale(0.1 -0.1)">
      <defs>
       <path id="DejaVuSans-61" d="M 2194 1759 
Q 1497 1759 1228 1600 
Q 959 1441 959 1056 
Q 959 750 1161 570 
Q 1363 391 1709 391 
Q 2188 391 2477 730 
Q 2766 1069 2766 1631 
L 2766 1759 
L 2194 1759 
z
M 3341 1997 
L 3341 0 
L 2766 0 
L 2766 531 
Q 2569 213 2275 61 
Q 1981 -91 1556 -91 
Q 1019 -91 701 211 
Q 384 513 384 1019 
Q 384 1609 779 1909 
Q 1175 2209 1959 2209 
L 2766 2209 
L 2766 2266 
Q 2766 2663 2505 2880 
Q 2244 3097 1772 3097 
Q 1472 3097 1187 3025 
Q 903 2953 641 2809 
L 641 3341 
Q 956 3463 1253 3523 
Q 1550 3584 1831 3584 
Q 2591 3584 2966 3190 
Q 3341 2797 3341 1997 
z
" transform="scale(0.015625)"/>
       <path id="DejaVuSans-63" d="M 3122 3366 
L 3122 2828 
Q 2878 2963 2633 3030 
Q 2388 3097 2138 3097 
Q 1578 3097 1268 2742 
Q 959 2388 959 1747 
Q 959 1106 1268 751 
Q 1578 397 2138 397 
Q 2388 397 2633 464 
Q 2878 531 3122 666 
L 3122 134 
Q 2881 22 2623 -34 
Q 2366 -91 2075 -91 
Q 1284 -91 818 406 
Q 353 903 353 1747 
Q 353 2603 823 3093 
Q 1294 3584 2113 3584 
Q 2378 3584 2631 3529 
Q 2884 3475 3122 3366 
z
" transform="scale(0.015625)"/>
      </defs>
      <use xlink:href="#DejaVuSans-61"/>
      <use xlink:href="#DejaVuSans-63" x="61.279297"/>
      <use xlink:href="#DejaVuSans-63" x="116.259766"/>
     </g>
    </g>
   </g>
   <g id="line2d_16">
    <path d="M 108.951818 141.114972 
L 116.163385 96.992367 
L 123.239107 193.752465 
L 130.358569 223.167535 
L 137.467007 218.61981 
L 151.683883 195.590907 
L 158.792321 139.27653 
L 165.911606 164.047115 
L 173.003686 200.041871 
L 187.226074 50.354 
L 194.377897 122.343513 
L 201.448284 110.442021 
L 208.583927 223.361055 
L 222.800804 233.424105 
L 229.920088 214.168846 
L 237.012346 179.722251 
L 244.147811 143.824255 
L 258.364687 117.795788 
L 265.478637 45.419235 
L 272.603256 102.314172 
L 279.695513 113.731864 
L 293.906878 246.873759 
L 301.053367 223.361055 
L 308.1346 207.879439 
L 315.270243 174.110165 
L 329.481785 151.565062 
L 336.601069 193.462185 
L 343.698661 137.438088 
L 350.834126 51.805401 
L 365.02931 156.306307 
L 372.170287 128.245879 
L 379.257032 153.403504 
L 386.370983 174.110165 
L 400.614886 237.87507 
L 407.728836 206.815078 
L 414.842786 68.931939 
L 421.934866 121.085631 
L 436.157254 206.815078 
L 443.287385 223.361055 
L 450.384977 213.781805 
L 457.498749 195.300627 
L 471.715625 75.511625 
L 478.851268 130.374601 
L 485.965041 74.447264 
L 493.057298 126.407437 
L 507.306713 134.825565 
L 514.409817 166.756398 
L 521.529102 212.717444 
L 528.621182 224.135136 
L 542.85975 224.135136 
L 550.000728 169.36892 
L 557.06578 101.056291 
L 564.179731 162.015153 
L 578.439992 235.262547 
L 585.543096 174.497206 
L 592.629841 43.387273 
L 599.765307 125.246316 
L 613.982183 203.041435 
L 621.096133 235.262547 
L 628.209905 241.938994 
L 635.307497 224.135136 
L 649.551578 156.693348 
L 656.660016 200.041871 
L 663.779301 104.152614 
L 670.866046 62.642532 
L 685.104615 140.340891 
L 692.240258 221.909654 
L 699.33785 239.036191 
L 706.429929 253.066405 
L 720.646806 165.885557 
L 728.042938 122.537033 
L 734.88004 184.463496 
L 741.988478 181.850973 
L 749.129456 149.33958 
L 763.351844 140.340891 
L 770.45477 119.63423 
L 777.574054 216.781368 
L 791.801777 250.163602 
L 798.904881 238.26211 
L 806.018653 212.330404 
L 813.116245 145.275656 
L 827.354814 169.755961 
L 834.474098 109.280899 
L 841.560844 76.672746 
L 848.696487 171.207362 
L 862.924209 191.623743 
L 870.043494 234.198186 
L 877.146598 248.32516 
L 886.023877 231.585663 
L 893.08893 197.526109 
L 900.262624 95.153925 
L 914.457808 216.394328 
L 921.57158 210.879002 
L 928.712557 81.413991 
L 942.918587 92.638163 
L 950.027025 78.511188 
L 957.135463 195.977947 
L 964.271106 210.879002 
L 978.477136 195.977947 
L 985.590908 197.139069 
L 992.694012 178.56113 
L 999.807962 197.139069 
L 1006.921735 206.428038 
L 1021.149457 43.580793 
L 1028.279588 108.603579 
L 1035.398873 156.016027 
L 1049.6538 148.565499 
L 1056.713341 148.178459 
L 1063.838137 181.850973 
L 1070.935729 227.424979 
L 1078.055013 217.84573 
L 1087.681223 107.442458 
L 1101.18722 209.427601 
L 1108.279478 221.522613 
L 1115.409609 231.972704 
L 1129.626485 147.114098 
L 1136.745769 176.335647 
L 1143.838027 115.183265 
L 1150.951799 67.770817 
L 1165.190368 199.364551 
L 1172.309653 147.888179 
L 1179.40191 165.304996 
L 1186.586273 162.015153 
L 1200.727225 134.825565 
L 1207.889894 135.212606 
L 1222.079744 206.815078 
L 1229.188182 208.26648 
L 1229.188182 208.26648 
" clip-path="url(#p009214b358)" style="fill: none; stroke: #1f77b4; stroke-width: 1.5; stroke-linecap: square"/>
   </g>
   <g id="line2d_17">
    <path d="M 108.951818 344.214418 
L 116.163385 255.291887 
L 123.239107 188.62418 
L 130.358569 155.628986 
L 137.467007 108.506819 
L 151.683883 136.276967 
L 158.792321 151.952103 
L 165.911606 227.90878 
L 173.003686 199.654831 
L 187.226074 115.957346 
L 194.377897 316.057229 
L 201.448284 307.639101 
L 208.583927 190.075581 
L 222.800804 177.496769 
L 229.920088 139.66357 
L 237.012346 109.66794 
L 244.147811 107.829498 
L 258.364687 171.594403 
L 265.478637 69.9963 
L 272.603256 272.418425 
L 279.695513 310.058103 
L 293.906878 194.913586 
L 301.053367 187.559819 
L 308.1346 133.374164 
L 315.270243 92.638163 
L 329.481785 159.30587 
L 336.601069 234.198186 
L 343.698661 264.677617 
L 350.834126 116.634667 
L 365.02931 180.399572 
L 372.170287 95.540966 
L 379.257032 114.409185 
L 386.370983 192.301064 
L 400.614886 253.840486 
L 407.728836 211.556323 
L 414.842786 84.123274 
L 421.934866 131.535722 
L 436.157254 194.526546 
L 443.287385 225.199497 
L 450.384977 238.939431 
L 457.498749 258.29145 
L 471.715625 131.922762 
L 478.851268 181.173652 
L 485.965041 162.595714 
L 493.057298 171.884683 
L 507.306713 234.972267 
L 514.409817 258.29145 
L 521.529102 225.586537 
L 528.621182 224.618936 
L 542.85975 189.01122 
L 550.000728 99.99193 
L 557.06578 48.902598 
L 564.179731 178.56113 
L 578.439992 234.585226 
L 585.543096 192.301064 
L 592.629841 83.639474 
L 599.765307 311.315984 
L 613.982183 193.752465 
L 621.096133 199.364551 
L 628.209905 195.977947 
L 635.307497 180.012531 
L 649.551578 96.605327 
L 656.660016 175.271286 
L 663.779301 77.350067 
L 670.866046 156.306307 
L 685.104615 225.586537 
L 692.240258 205.944237 
L 699.33785 187.172778 
L 706.429929 199.364551 
L 720.646806 112.280463 
L 728.042938 82.865393 
L 734.88004 201.202993 
L 741.988478 137.438088 
L 749.129456 237.87507 
L 763.351844 273.095745 
L 770.45477 270.192943 
L 777.574054 201.880313 
L 791.801777 192.688104 
L 798.904881 174.497206 
L 806.018653 137.051048 
L 813.116245 56.643406 
L 827.354814 178.94817 
L 834.474098 75.898666 
L 841.560844 126.020396 
L 848.696487 247.45432 
L 862.924209 242.713075 
L 870.043494 205.944237 
L 877.146598 187.559819 
L 886.023877 160.757272 
L 893.08893 116.634667 
L 900.262624 47.354437 
L 914.457808 203.041435 
L 921.57158 213.394765 
L 928.712557 115.183265 
L 942.918587 341.698655 
L 950.027025 298.640411 
L 957.135463 220.845293 
L 964.271106 189.398261 
L 978.477136 90.702961 
L 985.590908 105.991056 
L 992.694012 86.735797 
L 999.807962 181.850973 
L 1006.921735 231.972704 
L 1021.149457 66.319416 
L 1028.279588 142.953414 
L 1035.398873 197.429349 
L 1049.6538 163.466554 
L 1056.713341 227.90878 
L 1063.838137 244.164476 
L 1070.935729 270.192943 
L 1078.055013 236.810709 
L 1087.681223 98.830809 
L 1101.18722 180.399572 
L 1108.279478 199.654831 
L 1115.409609 213.781805 
L 1129.626485 196.364988 
L 1136.745769 241.164913 
L 1143.838027 178.94817 
L 1150.951799 121.472672 
L 1165.190368 211.266043 
L 1172.309653 175.948607 
L 1179.40191 183.689415 
L 1186.586273 181.560693 
L 1200.727225 261.968334 
L 1207.889894 297.57605 
L 1214.960459 209.717881 
L 1222.079744 187.559819 
L 1229.188182 220.071212 
L 1229.188182 220.071212 
" clip-path="url(#p009214b358)" style="fill: none; stroke: #ff7f0e; stroke-width: 1.5; stroke-linecap: square"/>
   </g>
   <g id="line2d_18">
    <path d="M 108.951818 224.618936 
L 116.163385 230.134262 
L 123.239107 250.937683 
L 130.358569 285.674558 
L 137.467007 310.541903 
L 151.683883 209.717881 
L 158.792321 151.952103 
L 165.911606 143.824255 
L 173.003686 273.095745 
L 187.226074 281.223594 
L 194.377897 268.354501 
L 201.448284 165.304996 
L 208.583927 193.075144 
L 222.800804 281.223594 
L 229.920088 274.934187 
L 237.012346 243.390395 
L 244.147811 238.649151 
L 258.364687 272.418425 
L 265.478637 257.90441 
L 272.603256 253.840486 
L 279.695513 256.840049 
L 293.906878 205.363677 
L 301.053367 267.96746 
L 308.1346 296.124649 
L 315.270243 236.423668 
L 329.481785 218.61981 
L 336.601069 240.487592 
L 343.698661 287.996801 
L 350.834126 328.249001 
L 365.02931 238.649151 
L 372.170287 202.267354 
L 379.257032 149.72662 
L 386.370983 242.713075 
L 400.614886 255.678928 
L 407.728836 257.130329 
L 414.842786 276.482349 
L 421.934866 195.977947 
L 436.157254 253.840486 
L 443.287385 253.840486 
L 450.384977 267.096619 
L 457.498749 272.418425 
L 471.715625 269.805902 
L 478.851268 233.811146 
L 485.965041 179.33521 
L 493.057298 217.458689 
L 507.306713 264.677617 
L 514.409817 253.066405 
L 521.529102 239.036191 
L 528.621182 245.615878 
L 542.85975 278.320791 
L 550.000728 289.835242 
L 557.06578 236.810709 
L 564.179731 100.669251 
L 578.439992 262.355375 
L 585.543096 277.93375 
L 592.629841 314.605828 
L 599.765307 193.462185 
L 613.982183 260.129892 
L 621.096133 283.062036 
L 628.209905 295.350568 
L 635.307497 281.610634 
L 649.551578 190.462622 
L 656.660016 161.144312 
L 663.779301 314.992868 
L 670.866046 273.482786 
L 685.104615 221.232333 
L 692.240258 249.776562 
L 699.33785 286.158359 
L 706.429929 301.639974 
L 720.646806 258.29145 
L 728.042938 179.33521 
L 734.88004 136.276967 
L 741.988478 294.576487 
L 749.129456 235.649588 
L 763.351844 246.873759 
L 770.45477 252.002044 
L 777.574054 253.840486 
L 791.801777 286.158359 
L 798.904881 276.095309 
L 806.018653 252.002044 
L 813.116245 239.036191 
L 827.354814 241.164913 
L 834.474098 312.090065 
L 841.560844 235.262547 
L 848.696487 266.516059 
L 862.924209 247.067279 
L 870.043494 267.96746 
L 877.146598 289.835242 
L 886.023877 288.383841 
L 893.08893 259.355812 
L 900.262624 235.649588 
L 914.457808 238.26211 
L 921.57158 278.320791 
L 928.712557 308.606701 
L 942.918587 247.067279 
L 950.027025 131.922762 
L 957.135463 231.198623 
L 964.271106 283.062036 
L 978.477136 302.704336 
L 985.590908 205.557197 
L 992.694012 168.207799 
L 999.807962 164.434155 
L 1006.921735 251.615004 
L 1021.149457 373.532727 
L 1028.279588 260.129892 
L 1035.398873 238.26211 
L 1049.6538 240.100552 
L 1056.713341 190.075581 
L 1063.838137 240.487592 
L 1070.935729 240.487592 
L 1078.055013 221.522613 
L 1087.681223 238.26211 
L 1101.18722 236.036628 
L 1108.279478 248.712201 
L 1115.409609 251.615004 
L 1129.626485 272.031384 
L 1136.745769 246.873759 
L 1143.838027 237.488029 
L 1150.951799 290.222283 
L 1165.190368 207.395639 
L 1172.309653 253.453446 
L 1179.40191 237.87507 
L 1186.586273 238.649151 
L 1200.727225 243.390395 
L 1207.889894 230.134262 
L 1214.960459 229.747222 
L 1222.079744 193.075144 
L 1229.188182 249.776562 
L 1229.188182 249.776562 
" clip-path="url(#p009214b358)" style="fill: none; stroke: #2ca02c; stroke-width: 1.5; stroke-linecap: square"/>
   </g>
   <g id="patch_3">
    <path d="M 52.94 390.04 
L 52.94 26.88 
" style="fill: none; stroke: #000000; stroke-width: 0.8; stroke-linejoin: miter; stroke-linecap: square"/>
   </g>
   <g id="patch_4">
    <path d="M 1285.2 390.04 
L 1285.2 26.88 
" style="fill: none; stroke: #000000; stroke-width: 0.8; stroke-linejoin: miter; stroke-linecap: square"/>
   </g>
   <g id="patch_5">
    <path d="M 52.94 390.04 
L 1285.2 390.04 
" style="fill: none; stroke: #000000; stroke-width: 0.8; stroke-linejoin: miter; stroke-linecap: square"/>
   </g>
   <g id="patch_6">
    <path d="M 52.94 26.88 
L 1285.2 26.88 
" style="fill: none; stroke: #000000; stroke-width: 0.8; stroke-linejoin: miter; stroke-linecap: square"/>
   </g>
   <g id="text_19">
    <!-- User 19, Action 3 -->
    <g transform="translate(617.523437 20.88) scale(0.12 -0.12)">
     <defs>
      <path id="DejaVuSans-55" d="M 556 4666 
L 1191 4666 
L 1191 1831 
Q 1191 1081 1462 751 
Q 1734 422 2344 422 
Q 2950 422 3222 751 
Q 3494 1081 3494 1831 
L 3494 4666 
L 4128 4666 
L 4128 1753 
Q 4128 841 3676 375 
Q 3225 -91 2344 -91 
Q 1459 -91 1007 375 
Q 556 841 556 1753 
L 556 4666 
z
" transform="scale(0.015625)"/>
      <path id="DejaVuSans-73" d="M 2834 3397 
L 2834 2853 
Q 2591 2978 2328 3040 
Q 2066 3103 1784 3103 
Q 1356 3103 1142 2972 
Q 928 2841 928 2578 
Q 928 2378 1081 2264 
Q 1234 2150 1697 2047 
L 1894 2003 
Q 2506 1872 2764 1633 
Q 3022 1394 3022 966 
Q 3022 478 2636 193 
Q 2250 -91 1575 -91 
Q 1294 -91 989 -36 
Q 684 19 347 128 
L 347 722 
Q 666 556 975 473 
Q 1284 391 1588 391 
Q 1994 391 2212 530 
Q 2431 669 2431 922 
Q 2431 1156 2273 1281 
Q 2116 1406 1581 1522 
L 1381 1569 
Q 847 1681 609 1914 
Q 372 2147 372 2553 
Q 372 3047 722 3315 
Q 1072 3584 1716 3584 
Q 2034 3584 2315 3537 
Q 2597 3491 2834 3397 
z
" transform="scale(0.015625)"/>
      <path id="DejaVuSans-72" d="M 2631 2963 
Q 2534 3019 2420 3045 
Q 2306 3072 2169 3072 
Q 1681 3072 1420 2755 
Q 1159 2438 1159 1844 
L 1159 0 
L 581 0 
L 581 3500 
L 1159 3500 
L 1159 2956 
Q 1341 3275 1631 3429 
Q 1922 3584 2338 3584 
Q 2397 3584 2469 3576 
Q 2541 3569 2628 3553 
L 2631 2963 
z
" transform="scale(0.015625)"/>
      <path id="DejaVuSans-20" transform="scale(0.015625)"/>
      <path id="DejaVuSans-2c" d="M 750 794 
L 1409 794 
L 1409 256 
L 897 -744 
L 494 -744 
L 750 256 
L 750 794 
z
" transform="scale(0.015625)"/>
      <path id="DejaVuSans-41" d="M 2188 4044 
L 1331 1722 
L 3047 1722 
L 2188 4044 
z
M 1831 4666 
L 2547 4666 
L 4325 0 
L 3669 0 
L 3244 1197 
L 1141 1197 
L 716 0 
L 50 0 
L 1831 4666 
z
" transform="scale(0.015625)"/>
      <path id="DejaVuSans-6f" d="M 1959 3097 
Q 1497 3097 1228 2736 
Q 959 2375 959 1747 
Q 959 1119 1226 758 
Q 1494 397 1959 397 
Q 2419 397 2687 759 
Q 2956 1122 2956 1747 
Q 2956 2369 2687 2733 
Q 2419 3097 1959 3097 
z
M 1959 3584 
Q 2709 3584 3137 3096 
Q 3566 2609 3566 1747 
Q 3566 888 3137 398 
Q 2709 -91 1959 -91 
Q 1206 -91 779 398 
Q 353 888 353 1747 
Q 353 2609 779 3096 
Q 1206 3584 1959 3584 
z
" transform="scale(0.015625)"/>
      <path id="DejaVuSans-6e" d="M 3513 2113 
L 3513 0 
L 2938 0 
L 2938 2094 
Q 2938 2591 2744 2837 
Q 2550 3084 2163 3084 
Q 1697 3084 1428 2787 
Q 1159 2491 1159 1978 
L 1159 0 
L 581 0 
L 581 3500 
L 1159 3500 
L 1159 2956 
Q 1366 3272 1645 3428 
Q 1925 3584 2291 3584 
Q 2894 3584 3203 3211 
Q 3513 2838 3513 2113 
z
" transform="scale(0.015625)"/>
     </defs>
     <use xlink:href="#DejaVuSans-55"/>
     <use xlink:href="#DejaVuSans-73" x="73.193359"/>
     <use xlink:href="#DejaVuSans-65" x="125.292969"/>
     <use xlink:href="#DejaVuSans-72" x="186.816406"/>
     <use xlink:href="#DejaVuSans-20" x="227.929688"/>
     <use xlink:href="#DejaVuSans-31" x="259.716797"/>
     <use xlink:href="#DejaVuSans-39" x="323.339844"/>
     <use xlink:href="#DejaVuSans-2c" x="386.962891"/>
     <use xlink:href="#DejaVuSans-20" x="418.75"/>
     <use xlink:href="#DejaVuSans-41" x="450.537109"/>
     <use xlink:href="#DejaVuSans-63" x="517.195312"/>
     <use xlink:href="#DejaVuSans-74" x="572.175781"/>
     <use xlink:href="#DejaVuSans-69" x="611.384766"/>
     <use xlink:href="#DejaVuSans-6f" x="639.167969"/>
     <use xlink:href="#DejaVuSans-6e" x="700.349609"/>
     <use xlink:href="#DejaVuSans-20" x="763.728516"/>
     <use xlink:href="#DejaVuSans-33" x="795.515625"/>
    </g>
   </g>
   <g id="legend_1">
    <g id="patch_7">
     <path d="M 1219.548438 78.914375 
L 1278.2 78.914375 
Q 1280.2 78.914375 1280.2 76.914375 
L 1280.2 33.88 
Q 1280.2 31.88 1278.2 31.88 
L 1219.548438 31.88 
Q 1217.548438 31.88 1217.548438 33.88 
L 1217.548438 76.914375 
Q 1217.548438 78.914375 1219.548438 78.914375 
z
" style="fill: #ffffff; opacity: 0.8; stroke: #cccccc; stroke-linejoin: miter"/>
    </g>
    <g id="line2d_19">
     <path d="M 1221.548438 39.978437 
L 1231.548438 39.978437 
L 1241.548438 39.978437 
" style="fill: none; stroke: #1f77b4; stroke-width: 1.5; stroke-linecap: square"/>
    </g>
    <g id="text_20">
     <!-- acc-x -->
     <g transform="translate(1249.548438 43.478437) scale(0.1 -0.1)">
      <defs>
       <path id="DejaVuSans-2d" d="M 313 2009 
L 1997 2009 
L 1997 1497 
L 313 1497 
L 313 2009 
z
" transform="scale(0.015625)"/>
       <path id="DejaVuSans-78" d="M 3513 3500 
L 2247 1797 
L 3578 0 
L 2900 0 
L 1881 1375 
L 863 0 
L 184 0 
L 1544 1831 
L 300 3500 
L 978 3500 
L 1906 2253 
L 2834 3500 
L 3513 3500 
z
" transform="scale(0.015625)"/>
      </defs>
      <use xlink:href="#DejaVuSans-61"/>
      <use xlink:href="#DejaVuSans-63" x="61.279297"/>
      <use xlink:href="#DejaVuSans-63" x="116.259766"/>
      <use xlink:href="#DejaVuSans-2d" x="171.240234"/>
      <use xlink:href="#DejaVuSans-78" x="207.324219"/>
     </g>
    </g>
    <g id="line2d_20">
     <path d="M 1221.548438 54.656563 
L 1231.548438 54.656563 
L 1241.548438 54.656563 
" style="fill: none; stroke: #ff7f0e; stroke-width: 1.5; stroke-linecap: square"/>
    </g>
    <g id="text_21">
     <!-- acc-y -->
     <g transform="translate(1249.548438 58.156563) scale(0.1 -0.1)">
      <defs>
       <path id="DejaVuSans-79" d="M 2059 -325 
Q 1816 -950 1584 -1140 
Q 1353 -1331 966 -1331 
L 506 -1331 
L 506 -850 
L 844 -850 
Q 1081 -850 1212 -737 
Q 1344 -625 1503 -206 
L 1606 56 
L 191 3500 
L 800 3500 
L 1894 763 
L 2988 3500 
L 3597 3500 
L 2059 -325 
z
" transform="scale(0.015625)"/>
      </defs>
      <use xlink:href="#DejaVuSans-61"/>
      <use xlink:href="#DejaVuSans-63" x="61.279297"/>
      <use xlink:href="#DejaVuSans-63" x="116.259766"/>
      <use xlink:href="#DejaVuSans-2d" x="171.240234"/>
      <use xlink:href="#DejaVuSans-79" x="205.574219"/>
     </g>
    </g>
    <g id="line2d_21">
     <path d="M 1221.548438 69.334687 
L 1231.548438 69.334687 
L 1241.548438 69.334687 
" style="fill: none; stroke: #2ca02c; stroke-width: 1.5; stroke-linecap: square"/>
    </g>
    <g id="text_22">
     <!-- acc-z -->
     <g transform="translate(1249.548438 72.834687) scale(0.1 -0.1)">
      <defs>
       <path id="DejaVuSans-7a" d="M 353 3500 
L 3084 3500 
L 3084 2975 
L 922 459 
L 3084 459 
L 3084 0 
L 275 0 
L 275 525 
L 2438 3041 
L 353 3041 
L 353 3500 
z
" transform="scale(0.015625)"/>
      </defs>
      <use xlink:href="#DejaVuSans-61"/>
      <use xlink:href="#DejaVuSans-63" x="61.279297"/>
      <use xlink:href="#DejaVuSans-63" x="116.259766"/>
      <use xlink:href="#DejaVuSans-2d" x="171.240234"/>
      <use xlink:href="#DejaVuSans-7a" x="207.324219"/>
     </g>
    </g>
   </g>
  </g>
 </g>
 <defs>
  <clipPath id="p009214b358">
   <rect x="52.94" y="26.88" width="1232.26" height="363.16"/>
  </clipPath>
 </defs>
</svg>
