<?xml version="1.0" encoding="utf-8" standalone="no"?>
<!DOCTYPE svg PUBLIC "-//W3C//DTD SVG 1.1//EN"
  "http://www.w3.org/Graphics/SVG/1.1/DTD/svg11.dtd">
<svg xmlns:xlink="http://www.w3.org/1999/xlink" width="1296pt" height="432pt" viewBox="0 0 1296 432" xmlns="http://www.w3.org/2000/svg" version="1.1">
 <metadata>
  <rdf:RDF xmlns:dc="http://purl.org/dc/elements/1.1/" xmlns:cc="http://creativecommons.org/ns#" xmlns:rdf="http://www.w3.org/1999/02/22-rdf-syntax-ns#">
   <cc:Work>
    <dc:type rdf:resource="http://purl.org/dc/dcmitype/StillImage"/>
    <dc:date>2025-03-28T12:11:09.386480</dc:date>
    <dc:format>image/svg+xml</dc:format>
    <dc:creator>
     <cc:Agent>
      <dc:title>Matplotlib v3.7.5, https://matplotlib.org/</dc:title>
     </cc:Agent>
    </dc:creator>
   </cc:Work>
  </rdf:RDF>
 </metadata>
 <defs>
  <style type="text/css">*{stroke-linejoin: round; stroke-linecap: butt}</style>
 </defs>
 <g id="figure_1">
  <g id="patch_1">
   <path d="M 0 432 
L 1296 432 
L 1296 0 
L 0 0 
z
" style="fill: #ffffff"/>
  </g>
  <g id="axes_1">
   <g id="patch_2">
    <path d="M 56 390.04 
L 1285.2 390.04 
L 1285.2 26.88 
L 56 26.88 
z
" style="fill: #ffffff"/>
   </g>
   <g id="matplotlib.axis_1">
    <g id="xtick_1">
     <g id="line2d_1">
      <defs>
       <path id="m2bb3c15d5d" d="M 0 0 
L 0 3.5 
" style="stroke: #000000; stroke-width: 0.8"/>
      </defs>
      <g>
       <use xlink:href="#m2bb3c15d5d" x="169.502983" y="390.04" style="stroke: #000000; stroke-width: 0.8"/>
      </g>
     </g>
     <g id="text_1">
      <!-- −3 -->
      <g transform="translate(162.131889 404.638438) scale(0.1 -0.1)">
       <defs>
        <path id="DejaVuSans-2212" d="M 678 2272 
L 4684 2272 
L 4684 1741 
L 678 1741 
L 678 2272 
z
" transform="scale(0.015625)"/>
        <path id="DejaVuSans-33" d="M 2597 2516 
Q 3050 2419 3304 2112 
Q 3559 1806 3559 1356 
Q 3559 666 3084 287 
Q 2609 -91 1734 -91 
Q 1441 -91 1130 -33 
Q 819 25 488 141 
L 488 750 
Q 750 597 1062 519 
Q 1375 441 1716 441 
Q 2309 441 2620 675 
Q 2931 909 2931 1356 
Q 2931 1769 2642 2001 
Q 2353 2234 1838 2234 
L 1294 2234 
L 1294 2753 
L 1863 2753 
Q 2328 2753 2575 2939 
Q 2822 3125 2822 3475 
Q 2822 3834 2567 4026 
Q 2313 4219 1838 4219 
Q 1578 4219 1281 4162 
Q 984 4106 628 3988 
L 628 4550 
Q 988 4650 1302 4700 
Q 1616 4750 1894 4750 
Q 2613 4750 3031 4423 
Q 3450 4097 3450 3541 
Q 3450 3153 3228 2886 
Q 3006 2619 2597 2516 
z
" transform="scale(0.015625)"/>
       </defs>
       <use xlink:href="#DejaVuSans-2212"/>
       <use xlink:href="#DejaVuSans-33" x="83.789062"/>
      </g>
     </g>
    </g>
    <g id="xtick_2">
     <g id="line2d_2">
      <g>
       <use xlink:href="#m2bb3c15d5d" x="344.92687" y="390.04" style="stroke: #000000; stroke-width: 0.8"/>
      </g>
     </g>
     <g id="text_2">
      <!-- −2 -->
      <g transform="translate(337.555776 404.638438) scale(0.1 -0.1)">
       <defs>
        <path id="DejaVuSans-32" d="M 1228 531 
L 3431 531 
L 3431 0 
L 469 0 
L 469 531 
Q 828 903 1448 1529 
Q 2069 2156 2228 2338 
Q 2531 2678 2651 2914 
Q 2772 3150 2772 3378 
Q 2772 3750 2511 3984 
Q 2250 4219 1831 4219 
Q 1534 4219 1204 4116 
Q 875 4013 500 3803 
L 500 4441 
Q 881 4594 1212 4672 
Q 1544 4750 1819 4750 
Q 2544 4750 2975 4387 
Q 3406 4025 3406 3419 
Q 3406 3131 3298 2873 
Q 3191 2616 2906 2266 
Q 2828 2175 2409 1742 
Q 1991 1309 1228 531 
z
" transform="scale(0.015625)"/>
       </defs>
       <use xlink:href="#DejaVuSans-2212"/>
       <use xlink:href="#DejaVuSans-32" x="83.789062"/>
      </g>
     </g>
    </g>
    <g id="xtick_3">
     <g id="line2d_3">
      <g>
       <use xlink:href="#m2bb3c15d5d" x="520.350757" y="390.04" style="stroke: #000000; stroke-width: 0.8"/>
      </g>
     </g>
     <g id="text_3">
      <!-- −1 -->
      <g transform="translate(512.979663 404.638438) scale(0.1 -0.1)">
       <defs>
        <path id="DejaVuSans-31" d="M 794 531 
L 1825 531 
L 1825 4091 
L 703 3866 
L 703 4441 
L 1819 4666 
L 2450 4666 
L 2450 531 
L 3481 531 
L 3481 0 
L 794 0 
L 794 531 
z
" transform="scale(0.015625)"/>
       </defs>
       <use xlink:href="#DejaVuSans-2212"/>
       <use xlink:href="#DejaVuSans-31" x="83.789062"/>
      </g>
     </g>
    </g>
    <g id="xtick_4">
     <g id="line2d_4">
      <g>
       <use xlink:href="#m2bb3c15d5d" x="695.774643" y="390.04" style="stroke: #000000; stroke-width: 0.8"/>
      </g>
     </g>
     <g id="text_4">
      <!-- 0 -->
      <g transform="translate(692.593393 404.638438) scale(0.1 -0.1)">
       <defs>
        <path id="DejaVuSans-30" d="M 2034 4250 
Q 1547 4250 1301 3770 
Q 1056 3291 1056 2328 
Q 1056 1369 1301 889 
Q 1547 409 2034 409 
Q 2525 409 2770 889 
Q 3016 1369 3016 2328 
Q 3016 3291 2770 3770 
Q 2525 4250 2034 4250 
z
M 2034 4750 
Q 2819 4750 3233 4129 
Q 3647 3509 3647 2328 
Q 3647 1150 3233 529 
Q 2819 -91 2034 -91 
Q 1250 -91 836 529 
Q 422 1150 422 2328 
Q 422 3509 836 4129 
Q 1250 4750 2034 4750 
z
" transform="scale(0.015625)"/>
       </defs>
       <use xlink:href="#DejaVuSans-30"/>
      </g>
     </g>
    </g>
    <g id="xtick_5">
     <g id="line2d_5">
      <g>
       <use xlink:href="#m2bb3c15d5d" x="871.19853" y="390.04" style="stroke: #000000; stroke-width: 0.8"/>
      </g>
     </g>
     <g id="text_5">
      <!-- 1 -->
      <g transform="translate(868.01728 404.638438) scale(0.1 -0.1)">
       <use xlink:href="#DejaVuSans-31"/>
      </g>
     </g>
    </g>
    <g id="xtick_6">
     <g id="line2d_6">
      <g>
       <use xlink:href="#m2bb3c15d5d" x="1046.622417" y="390.04" style="stroke: #000000; stroke-width: 0.8"/>
      </g>
     </g>
     <g id="text_6">
      <!-- 2 -->
      <g transform="translate(1043.441167 404.638438) scale(0.1 -0.1)">
       <use xlink:href="#DejaVuSans-32"/>
      </g>
     </g>
    </g>
    <g id="xtick_7">
     <g id="line2d_7">
      <g>
       <use xlink:href="#m2bb3c15d5d" x="1222.046304" y="390.04" style="stroke: #000000; stroke-width: 0.8"/>
      </g>
     </g>
     <g id="text_7">
      <!-- 3 -->
      <g transform="translate(1218.865054 404.638438) scale(0.1 -0.1)">
       <use xlink:href="#DejaVuSans-33"/>
      </g>
     </g>
    </g>
    <g id="text_8">
     <!-- time -->
     <g transform="translate(659.303906 418.316562) scale(0.1 -0.1)">
      <defs>
       <path id="DejaVuSans-74" d="M 1172 4494 
L 1172 3500 
L 2356 3500 
L 2356 3053 
L 1172 3053 
L 1172 1153 
Q 1172 725 1289 603 
Q 1406 481 1766 481 
L 2356 481 
L 2356 0 
L 1766 0 
Q 1100 0 847 248 
Q 594 497 594 1153 
L 594 3053 
L 172 3053 
L 172 3500 
L 594 3500 
L 594 4494 
L 1172 4494 
z
" transform="scale(0.015625)"/>
       <path id="DejaVuSans-69" d="M 603 3500 
L 1178 3500 
L 1178 0 
L 603 0 
L 603 3500 
z
M 603 4863 
L 1178 4863 
L 1178 4134 
L 603 4134 
L 603 4863 
z
" transform="scale(0.015625)"/>
       <path id="DejaVuSans-6d" d="M 3328 2828 
Q 3544 3216 3844 3400 
Q 4144 3584 4550 3584 
Q 5097 3584 5394 3201 
Q 5691 2819 5691 2113 
L 5691 0 
L 5113 0 
L 5113 2094 
Q 5113 2597 4934 2840 
Q 4756 3084 4391 3084 
Q 3944 3084 3684 2787 
Q 3425 2491 3425 1978 
L 3425 0 
L 2847 0 
L 2847 2094 
Q 2847 2600 2669 2842 
Q 2491 3084 2119 3084 
Q 1678 3084 1418 2786 
Q 1159 2488 1159 1978 
L 1159 0 
L 581 0 
L 581 3500 
L 1159 3500 
L 1159 2956 
Q 1356 3278 1631 3431 
Q 1906 3584 2284 3584 
Q 2666 3584 2933 3390 
Q 3200 3197 3328 2828 
z
" transform="scale(0.015625)"/>
       <path id="DejaVuSans-65" d="M 3597 1894 
L 3597 1613 
L 953 1613 
Q 991 1019 1311 708 
Q 1631 397 2203 397 
Q 2534 397 2845 478 
Q 3156 559 3463 722 
L 3463 178 
Q 3153 47 2828 -22 
Q 2503 -91 2169 -91 
Q 1331 -91 842 396 
Q 353 884 353 1716 
Q 353 2575 817 3079 
Q 1281 3584 2069 3584 
Q 2775 3584 3186 3129 
Q 3597 2675 3597 1894 
z
M 3022 2063 
Q 3016 2534 2758 2815 
Q 2500 3097 2075 3097 
Q 1594 3097 1305 2825 
Q 1016 2553 972 2059 
L 3022 2063 
z
" transform="scale(0.015625)"/>
      </defs>
      <use xlink:href="#DejaVuSans-74"/>
      <use xlink:href="#DejaVuSans-69" x="39.208984"/>
      <use xlink:href="#DejaVuSans-6d" x="66.992188"/>
      <use xlink:href="#DejaVuSans-65" x="164.404297"/>
     </g>
    </g>
    <g id="text_9">
     <!-- 1e9+1.314e14 -->
     <g transform="translate(1210.435938 417.316562) scale(0.1 -0.1)">
      <defs>
       <path id="DejaVuSans-39" d="M 703 97 
L 703 672 
Q 941 559 1184 500 
Q 1428 441 1663 441 
Q 2288 441 2617 861 
Q 2947 1281 2994 2138 
Q 2813 1869 2534 1725 
Q 2256 1581 1919 1581 
Q 1219 1581 811 2004 
Q 403 2428 403 3163 
Q 403 3881 828 4315 
Q 1253 4750 1959 4750 
Q 2769 4750 3195 4129 
Q 3622 3509 3622 2328 
Q 3622 1225 3098 567 
Q 2575 -91 1691 -91 
Q 1453 -91 1209 -44 
Q 966 3 703 97 
z
M 1959 2075 
Q 2384 2075 2632 2365 
Q 2881 2656 2881 3163 
Q 2881 3666 2632 3958 
Q 2384 4250 1959 4250 
Q 1534 4250 1286 3958 
Q 1038 3666 1038 3163 
Q 1038 2656 1286 2365 
Q 1534 2075 1959 2075 
z
" transform="scale(0.015625)"/>
       <path id="DejaVuSans-2b" d="M 2944 4013 
L 2944 2272 
L 4684 2272 
L 4684 1741 
L 2944 1741 
L 2944 0 
L 2419 0 
L 2419 1741 
L 678 1741 
L 678 2272 
L 2419 2272 
L 2419 4013 
L 2944 4013 
z
" transform="scale(0.015625)"/>
       <path id="DejaVuSans-2e" d="M 684 794 
L 1344 794 
L 1344 0 
L 684 0 
L 684 794 
z
" transform="scale(0.015625)"/>
       <path id="DejaVuSans-34" d="M 2419 4116 
L 825 1625 
L 2419 1625 
L 2419 4116 
z
M 2253 4666 
L 3047 4666 
L 3047 1625 
L 3713 1625 
L 3713 1100 
L 3047 1100 
L 3047 0 
L 2419 0 
L 2419 1100 
L 313 1100 
L 313 1709 
L 2253 4666 
z
" transform="scale(0.015625)"/>
      </defs>
      <use xlink:href="#DejaVuSans-31"/>
      <use xlink:href="#DejaVuSans-65" x="63.623047"/>
      <use xlink:href="#DejaVuSans-39" x="125.146484"/>
      <use xlink:href="#DejaVuSans-2b" x="188.769531"/>
      <use xlink:href="#DejaVuSans-31" x="272.558594"/>
      <use xlink:href="#DejaVuSans-2e" x="336.181641"/>
      <use xlink:href="#DejaVuSans-33" x="367.96875"/>
      <use xlink:href="#DejaVuSans-31" x="431.591797"/>
      <use xlink:href="#DejaVuSans-34" x="495.214844"/>
      <use xlink:href="#DejaVuSans-65" x="558.837891"/>
      <use xlink:href="#DejaVuSans-31" x="620.361328"/>
      <use xlink:href="#DejaVuSans-34" x="683.984375"/>
     </g>
    </g>
   </g>
   <g id="matplotlib.axis_2">
    <g id="ytick_1">
     <g id="line2d_8">
      <defs>
       <path id="m1f6fffc4e7" d="M 0 0 
L -3.5 0 
" style="stroke: #000000; stroke-width: 0.8"/>
      </defs>
      <g>
       <use xlink:href="#m1f6fffc4e7" x="56" y="362.805312" style="stroke: #000000; stroke-width: 0.8"/>
      </g>
     </g>
     <g id="text_10">
      <!-- −7.5 -->
      <g transform="translate(24.717187 366.604531) scale(0.1 -0.1)">
       <defs>
        <path id="DejaVuSans-37" d="M 525 4666 
L 3525 4666 
L 3525 4397 
L 1831 0 
L 1172 0 
L 2766 4134 
L 525 4134 
L 525 4666 
z
" transform="scale(0.015625)"/>
        <path id="DejaVuSans-35" d="M 691 4666 
L 3169 4666 
L 3169 4134 
L 1269 4134 
L 1269 2991 
Q 1406 3038 1543 3061 
Q 1681 3084 1819 3084 
Q 2600 3084 3056 2656 
Q 3513 2228 3513 1497 
Q 3513 744 3044 326 
Q 2575 -91 1722 -91 
Q 1428 -91 1123 -41 
Q 819 9 494 109 
L 494 744 
Q 775 591 1075 516 
Q 1375 441 1709 441 
Q 2250 441 2565 725 
Q 2881 1009 2881 1497 
Q 2881 1984 2565 2268 
Q 2250 2553 1709 2553 
Q 1456 2553 1204 2497 
Q 953 2441 691 2322 
L 691 4666 
z
" transform="scale(0.015625)"/>
       </defs>
       <use xlink:href="#DejaVuSans-2212"/>
       <use xlink:href="#DejaVuSans-37" x="83.789062"/>
       <use xlink:href="#DejaVuSans-2e" x="147.412109"/>
       <use xlink:href="#DejaVuSans-35" x="179.199219"/>
      </g>
     </g>
    </g>
    <g id="ytick_2">
     <g id="line2d_9">
      <g>
       <use xlink:href="#m1f6fffc4e7" x="56" y="316.566453" style="stroke: #000000; stroke-width: 0.8"/>
      </g>
     </g>
     <g id="text_11">
      <!-- −5.0 -->
      <g transform="translate(24.717187 320.365672) scale(0.1 -0.1)">
       <use xlink:href="#DejaVuSans-2212"/>
       <use xlink:href="#DejaVuSans-35" x="83.789062"/>
       <use xlink:href="#DejaVuSans-2e" x="147.412109"/>
       <use xlink:href="#DejaVuSans-30" x="179.199219"/>
      </g>
     </g>
    </g>
    <g id="ytick_3">
     <g id="line2d_10">
      <g>
       <use xlink:href="#m1f6fffc4e7" x="56" y="270.327594" style="stroke: #000000; stroke-width: 0.8"/>
      </g>
     </g>
     <g id="text_12">
      <!-- −2.5 -->
      <g transform="translate(24.717187 274.126812) scale(0.1 -0.1)">
       <use xlink:href="#DejaVuSans-2212"/>
       <use xlink:href="#DejaVuSans-32" x="83.789062"/>
       <use xlink:href="#DejaVuSans-2e" x="147.412109"/>
       <use xlink:href="#DejaVuSans-35" x="179.199219"/>
      </g>
     </g>
    </g>
    <g id="ytick_4">
     <g id="line2d_11">
      <g>
       <use xlink:href="#m1f6fffc4e7" x="56" y="224.088734" style="stroke: #000000; stroke-width: 0.8"/>
      </g>
     </g>
     <g id="text_13">
      <!-- 0.0 -->
      <g transform="translate(33.096875 227.887953) scale(0.1 -0.1)">
       <use xlink:href="#DejaVuSans-30"/>
       <use xlink:href="#DejaVuSans-2e" x="63.623047"/>
       <use xlink:href="#DejaVuSans-30" x="95.410156"/>
      </g>
     </g>
    </g>
    <g id="ytick_5">
     <g id="line2d_12">
      <g>
       <use xlink:href="#m1f6fffc4e7" x="56" y="177.849875" style="stroke: #000000; stroke-width: 0.8"/>
      </g>
     </g>
     <g id="text_14">
      <!-- 2.5 -->
      <g transform="translate(33.096875 181.649094) scale(0.1 -0.1)">
       <use xlink:href="#DejaVuSans-32"/>
       <use xlink:href="#DejaVuSans-2e" x="63.623047"/>
       <use xlink:href="#DejaVuSans-35" x="95.410156"/>
      </g>
     </g>
    </g>
    <g id="ytick_6">
     <g id="line2d_13">
      <g>
       <use xlink:href="#m1f6fffc4e7" x="56" y="131.611016" style="stroke: #000000; stroke-width: 0.8"/>
      </g>
     </g>
     <g id="text_15">
      <!-- 5.0 -->
      <g transform="translate(33.096875 135.410235) scale(0.1 -0.1)">
       <use xlink:href="#DejaVuSans-35"/>
       <use xlink:href="#DejaVuSans-2e" x="63.623047"/>
       <use xlink:href="#DejaVuSans-30" x="95.410156"/>
      </g>
     </g>
    </g>
    <g id="ytick_7">
     <g id="line2d_14">
      <g>
       <use xlink:href="#m1f6fffc4e7" x="56" y="85.372157" style="stroke: #000000; stroke-width: 0.8"/>
      </g>
     </g>
     <g id="text_16">
      <!-- 7.5 -->
      <g transform="translate(33.096875 89.171376) scale(0.1 -0.1)">
       <use xlink:href="#DejaVuSans-37"/>
       <use xlink:href="#DejaVuSans-2e" x="63.623047"/>
       <use xlink:href="#DejaVuSans-35" x="95.410156"/>
      </g>
     </g>
    </g>
    <g id="ytick_8">
     <g id="line2d_15">
      <g>
       <use xlink:href="#m1f6fffc4e7" x="56" y="39.133298" style="stroke: #000000; stroke-width: 0.8"/>
      </g>
     </g>
     <g id="text_17">
      <!-- 10.0 -->
      <g transform="translate(26.734375 42.932516) scale(0.1 -0.1)">
       <use xlink:href="#DejaVuSans-31"/>
       <use xlink:href="#DejaVuSans-30" x="63.623047"/>
       <use xlink:href="#DejaVuSans-2e" x="127.246094"/>
       <use xlink:href="#DejaVuSans-30" x="159.033203"/>
      </g>
     </g>
    </g>
    <g id="text_18">
     <!-- acc -->
     <g transform="translate(18.6375 217.0225) rotate(-90) scale(0.1 -0.1)">
      <defs>
       <path id="DejaVuSans-61" d="M 2194 1759 
Q 1497 1759 1228 1600 
Q 959 1441 959 1056 
Q 959 750 1161 570 
Q 1363 391 1709 391 
Q 2188 391 2477 730 
Q 2766 1069 2766 1631 
L 2766 1759 
L 2194 1759 
z
M 3341 1997 
L 3341 0 
L 2766 0 
L 2766 531 
Q 2569 213 2275 61 
Q 1981 -91 1556 -91 
Q 1019 -91 701 211 
Q 384 513 384 1019 
Q 384 1609 779 1909 
Q 1175 2209 1959 2209 
L 2766 2209 
L 2766 2266 
Q 2766 2663 2505 2880 
Q 2244 3097 1772 3097 
Q 1472 3097 1187 3025 
Q 903 2953 641 2809 
L 641 3341 
Q 956 3463 1253 3523 
Q 1550 3584 1831 3584 
Q 2591 3584 2966 3190 
Q 3341 2797 3341 1997 
z
" transform="scale(0.015625)"/>
       <path id="DejaVuSans-63" d="M 3122 3366 
L 3122 2828 
Q 2878 2963 2633 3030 
Q 2388 3097 2138 3097 
Q 1578 3097 1268 2742 
Q 959 2388 959 1747 
Q 959 1106 1268 751 
Q 1578 397 2138 397 
Q 2388 397 2633 464 
Q 2878 531 3122 666 
L 3122 134 
Q 2881 22 2623 -34 
Q 2366 -91 2075 -91 
Q 1284 -91 818 406 
Q 353 903 353 1747 
Q 353 2603 823 3093 
Q 1294 3584 2113 3584 
Q 2378 3584 2631 3529 
Q 2884 3475 3122 3366 
z
" transform="scale(0.015625)"/>
      </defs>
      <use xlink:href="#DejaVuSans-61"/>
      <use xlink:href="#DejaVuSans-63" x="61.279297"/>
      <use xlink:href="#DejaVuSans-63" x="116.259766"/>
     </g>
    </g>
   </g>
   <g id="line2d_16">
    <path d="M 111.872727 318.970873 
L 118.891086 324.149626 
L 132.933417 321.005383 
L 139.941075 318.970873 
L 146.95961 320.635472 
L 153.978144 323.409804 
L 168.004336 319.895651 
L 175.038834 316.381497 
L 182.046492 311.202745 
L 189.065027 309.723102 
L 203.085781 310.462923 
L 210.115016 313.977077 
L 217.133375 311.942567 
L 224.146471 310.462923 
L 238.172663 309.723102 
L 245.196636 314.716898 
L 252.214994 314.716898 
L 259.228091 312.682389 
L 273.259721 314.716898 
L 280.283518 321.005383 
L 287.301877 320.635472 
L 301.328069 321.745205 
L 308.357304 318.970873 
L 315.364962 317.49123 
L 322.383497 311.202745 
L 329.391155 312.682389 
L 343.428223 316.381497 
L 350.446582 309.168235 
L 357.470379 304.91426 
L 364.488913 302.694795 
L 378.509668 321.745205 
L 385.538903 324.149626 
L 392.557262 324.519537 
L 399.570358 317.49123 
L 413.59655 336.726595 
L 420.647187 328.958467 
L 427.638881 316.751408 
L 434.651978 308.428414 
L 448.683608 286.603672 
L 455.701967 297.146132 
L 462.725764 321.005383 
L 476.757394 331.917754 
L 483.797155 334.692086 
L 490.794287 292.892157 
L 497.812646 288.638182 
L 504.815042 326.184135 
L 518.85211 327.663779 
L 525.870469 321.745205 
L 532.894266 318.970873 
L 539.987706 316.751408 
L 553.938993 321.745205 
L 560.957352 313.977077 
L 567.981149 303.434617 
L 574.999683 297.885954 
L 589.025875 286.603672 
L 596.049672 288.638182 
L 603.062768 298.44082 
L 610.102704 290.117825 
L 624.107495 291.412513 
L 631.131292 309.168235 
L 638.149651 373.532727 
L 652.175843 310.462923 
L 659.205078 300.660285 
L 666.212736 296.40631 
L 673.231271 294.926667 
L 680.244367 305.469127 
L 694.28126 294.186845 
L 701.299794 343.754902 
L 708.318153 338.206239 
L 722.349784 329.698289 
L 729.36288 316.381497 
L 736.381239 312.682389 
L 743.405036 304.91426 
L 750.418132 300.660285 
L 764.449762 319.895651 
L 771.468296 326.923957 
L 778.492093 328.218645 
L 792.523548 317.49123 
L 799.547345 312.682389 
L 806.555179 310.462923 
L 813.562837 310.462923 
L 820.586634 318.231052 
L 834.634228 327.663779 
L 841.642061 325.444314 
L 848.66042 321.005383 
L 862.686788 321.005383 
L 869.705147 322.669982 
L 883.74204 331.177932 
L 890.846181 327.663779 
L 904.786767 320.635472 
L 911.810564 309.168235 
L 918.828922 306.208948 
L 932.860553 324.149626 
L 939.873649 330.438111 
L 946.892183 326.923957 
L 953.910542 319.895651 
L 960.923638 311.202745 
L 974.960532 316.381497 
L 982.000468 324.149626 
L 990.662373 328.218645 
L 997.814756 335.986774 
L 1004.763647 331.917754 
L 1018.80054 327.663779 
L 1025.835038 328.218645 
L 1032.858835 334.692086 
L 1039.904033 339.500927 
L 1053.903386 336.726595 
L 1060.937884 326.184135 
L 1067.951155 313.237255 
L 1074.958813 301.954973 
L 1088.995706 314.716898 
L 1096.008803 332.47262 
L 1103.016636 340.98057 
L 1110.045696 345.974367 
L 1124.055924 321.745205 
L 1131.090422 316.381497 
L 1138.103518 324.519537 
L 1145.132578 332.47262 
L 1159.137369 324.149626 
L 1166.177305 323.409804 
L 1180.214198 330.438111 
L 1194.24039 323.409804 
L 1201.264187 321.745205 
L 1208.38973 324.519537 
L 1215.30108 328.958467 
L 1229.327273 329.698289 
L 1229.327273 329.698289 
" clip-path="url(#p257a4e86e4)" style="fill: none; stroke: #1f77b4; stroke-width: 1.5; stroke-linecap: square"/>
   </g>
   <g id="line2d_17">
    <path d="M 111.872727 77.419073 
L 118.891086 75.199608 
L 132.933417 75.93943 
L 139.941075 75.199608 
L 146.95961 75.199608 
L 153.978144 74.644742 
L 168.004336 76.679251 
L 175.038834 72.425276 
L 182.046492 71.685455 
L 189.065027 66.876613 
L 203.085781 66.876613 
L 210.115016 70.945633 
L 217.133375 70.390766 
L 224.146471 66.876613 
L 238.172663 67.43148 
L 245.196636 69.650945 
L 252.214994 69.650945 
L 259.228091 68.171301 
L 273.259721 74.644742 
L 280.283518 73.90492 
L 287.301877 78.713761 
L 301.328069 73.90492 
L 308.357304 75.199608 
L 315.364962 70.390766 
L 322.383497 72.425276 
L 329.391155 70.945633 
L 343.428223 78.158895 
L 350.446582 68.171301 
L 357.470379 62.622638 
L 364.488913 56.149198 
L 378.509668 72.425276 
L 385.538903 82.227914 
L 392.557262 73.90492 
L 399.570358 71.685455 
L 413.59655 67.43148 
L 420.647187 75.93943 
L 427.638881 76.679251 
L 434.651978 63.36246 
L 448.683608 48.935936 
L 455.701967 56.88902 
L 462.725764 70.945633 
L 476.757394 78.158895 
L 483.797155 80.933226 
L 490.794287 78.713761 
L 497.812646 84.44738 
L 504.815042 81.673048 
L 518.85211 43.387273 
L 525.870469 56.149198 
L 532.894266 61.882816 
L 539.987706 71.685455 
L 553.938993 63.917326 
L 560.957352 79.453583 
L 567.981149 71.685455 
L 574.999683 54.114688 
L 589.025875 46.901426 
L 596.049672 54.114688 
L 603.062768 72.425276 
L 610.102704 86.111979 
L 624.107495 68.171301 
L 631.131292 54.85451 
L 638.149651 54.85451 
L 652.175843 73.90492 
L 659.205078 83.707558 
L 666.212736 72.425276 
L 673.231271 73.165098 
L 680.244367 55.594332 
L 694.28126 116.999537 
L 701.299794 59.663351 
L 708.318153 81.673048 
L 722.349784 82.967736 
L 729.36288 80.193405 
L 736.381239 64.657148 
L 743.405036 52.450089 
L 750.418132 52.080178 
L 764.449762 79.453583 
L 771.468296 78.713761 
L 778.492093 79.453583 
L 792.523548 73.90492 
L 799.547345 70.390766 
L 806.555179 68.911123 
L 813.562837 70.945633 
L 820.586634 72.425276 
L 834.634228 82.967736 
L 841.642061 82.967736 
L 848.66042 78.713761 
L 862.686788 72.425276 
L 869.705147 80.933226 
L 876.723681 82.967736 
L 883.74204 76.679251 
L 890.846181 81.673048 
L 904.786767 72.425276 
L 911.810564 75.93943 
L 918.828922 69.650945 
L 932.860553 78.158895 
L 939.873649 83.707558 
L 946.892183 85.372157 
L 953.910542 75.199608 
L 960.923638 68.911123 
L 974.960532 71.685455 
L 982.000468 77.419073 
L 990.662373 82.967736 
L 997.814756 80.193405 
L 1004.763647 83.707558 
L 1018.80054 78.713761 
L 1025.835038 83.707558 
L 1032.858835 76.679251 
L 1039.904033 76.679251 
L 1053.903386 91.660642 
L 1060.937884 97.949127 
L 1067.951155 79.453583 
L 1074.958813 66.136791 
L 1088.995706 59.108485 
L 1103.016636 95.914617 
L 1110.045696 98.688948 
L 1124.055924 70.945633 
L 1131.090422 68.911123 
L 1138.103518 78.158895 
L 1145.132578 81.673048 
L 1159.137369 77.419073 
L 1166.177305 76.679251 
L 1173.185138 81.673048 
L 1180.214198 80.933226 
L 1194.24039 78.158895 
L 1201.264187 75.199608 
L 1208.38973 78.713761 
L 1215.30108 80.933226 
L 1229.327273 80.193405 
L 1229.327273 80.193405 
" clip-path="url(#p257a4e86e4)" style="fill: none; stroke: #ff7f0e; stroke-width: 1.5; stroke-linecap: square"/>
   </g>
   <g id="line2d_18">
    <path d="M 111.872727 250.352406 
L 118.891086 250.352406 
L 132.933417 249.612585 
L 139.941075 248.687807 
L 146.95961 247.578075 
L 153.978144 245.913476 
L 168.004336 245.913476 
L 175.038834 246.838253 
L 182.046492 245.913476 
L 189.065027 246.838253 
L 203.085781 245.913476 
L 210.115016 244.063922 
L 217.133375 245.913476 
L 224.146471 245.913476 
L 238.172663 247.578075 
L 245.196636 246.838253 
L 252.214994 245.913476 
L 259.228091 247.578075 
L 273.259721 248.687807 
L 280.283518 250.352406 
L 287.301877 249.612585 
L 301.328069 249.612585 
L 308.357304 247.578075 
L 315.364962 245.913476 
L 322.383497 244.803743 
L 329.391155 244.063922 
L 343.428223 247.578075 
L 350.446582 251.092228 
L 357.470379 251.092228 
L 364.488913 250.352406 
L 378.509668 251.092228 
L 385.538903 250.352406 
L 392.557262 253.86656 
L 399.570358 246.838253 
L 413.59655 231.117041 
L 420.647187 234.631194 
L 427.638881 241.659501 
L 434.651978 241.28959 
L 448.683608 241.28959 
L 455.701967 233.891373 
L 462.725764 231.856863 
L 476.757394 231.117041 
L 483.797155 204.113547 
L 490.794287 223.348913 
L 497.812646 207.25779 
L 504.815042 248.687807 
L 518.85211 199.489661 
L 525.870469 193.571087 
L 532.894266 207.25779 
L 539.987706 195.050731 
L 553.938993 188.022424 
L 560.957352 205.778146 
L 567.981149 216.320606 
L 574.999683 198.564884 
L 589.025875 199.859572 
L 596.049672 198.564884 
L 603.062768 197.825062 
L 610.102704 213.546275 
L 624.107495 247.578075 
L 631.131292 247.578075 
L 638.149651 178.774652 
L 652.175843 231.856863 
L 659.205078 222.054225 
L 666.212736 245.913476 
L 673.231271 249.612585 
L 680.244367 256.086025 
L 694.28126 244.803743 
L 701.299794 262.37451 
L 708.318153 252.571872 
L 722.349784 252.571872 
L 729.36288 248.687807 
L 736.381239 246.838253 
L 743.405036 238.885169 
L 750.418132 229.082531 
L 764.449762 254.606381 
L 771.468296 258.860357 
L 778.492093 257.380713 
L 792.523548 258.860357 
L 799.547345 256.086025 
L 806.555179 253.86656 
L 813.562837 253.86656 
L 820.586634 255.346203 
L 834.634228 256.086025 
L 841.642061 258.120535 
L 848.66042 257.380713 
L 869.705147 253.126738 
L 876.723681 253.86656 
L 883.74204 253.86656 
L 890.846181 251.092228 
L 904.786767 248.687807 
L 932.860553 248.687807 
L 939.873649 249.612585 
L 946.892183 251.092228 
L 953.910542 250.352406 
L 960.923638 248.687807 
L 974.960532 248.687807 
L 982.000468 251.092228 
L 990.662373 251.092228 
L 997.814756 251.83205 
L 1004.763647 249.612585 
L 1018.80054 251.83205 
L 1025.835038 251.83205 
L 1032.858835 255.346203 
L 1039.904033 255.346203 
L 1053.903386 253.126738 
L 1060.937884 249.612585 
L 1067.951155 247.578075 
L 1074.958813 245.913476 
L 1088.995706 253.86656 
L 1096.008803 251.83205 
L 1103.016636 251.83205 
L 1110.045696 252.571872 
L 1124.055924 252.571872 
L 1131.090422 248.687807 
L 1138.103518 248.687807 
L 1145.132578 251.092228 
L 1159.137369 249.612585 
L 1166.177305 248.687807 
L 1173.185138 251.092228 
L 1180.214198 253.126738 
L 1194.24039 253.126738 
L 1201.264187 251.83205 
L 1215.30108 251.83205 
L 1229.327273 249.612585 
L 1229.327273 249.612585 
" clip-path="url(#p257a4e86e4)" style="fill: none; stroke: #2ca02c; stroke-width: 1.5; stroke-linecap: square"/>
   </g>
   <g id="patch_3">
    <path d="M 56 390.04 
L 56 26.88 
" style="fill: none; stroke: #000000; stroke-width: 0.8; stroke-linejoin: miter; stroke-linecap: square"/>
   </g>
   <g id="patch_4">
    <path d="M 1285.2 390.04 
L 1285.2 26.88 
" style="fill: none; stroke: #000000; stroke-width: 0.8; stroke-linejoin: miter; stroke-linecap: square"/>
   </g>
   <g id="patch_5">
    <path d="M 56 390.04 
L 1285.2 390.04 
" style="fill: none; stroke: #000000; stroke-width: 0.8; stroke-linejoin: miter; stroke-linecap: square"/>
   </g>
   <g id="patch_6">
    <path d="M 56 26.88 
L 1285.2 26.88 
" style="fill: none; stroke: #000000; stroke-width: 0.8; stroke-linejoin: miter; stroke-linecap: square"/>
   </g>
   <g id="text_19">
    <!-- User 19, Action 5 -->
    <g transform="translate(619.053437 20.88) scale(0.12 -0.12)">
     <defs>
      <path id="DejaVuSans-55" d="M 556 4666 
L 1191 4666 
L 1191 1831 
Q 1191 1081 1462 751 
Q 1734 422 2344 422 
Q 2950 422 3222 751 
Q 3494 1081 3494 1831 
L 3494 4666 
L 4128 4666 
L 4128 1753 
Q 4128 841 3676 375 
Q 3225 -91 2344 -91 
Q 1459 -91 1007 375 
Q 556 841 556 1753 
L 556 4666 
z
" transform="scale(0.015625)"/>
      <path id="DejaVuSans-73" d="M 2834 3397 
L 2834 2853 
Q 2591 2978 2328 3040 
Q 2066 3103 1784 3103 
Q 1356 3103 1142 2972 
Q 928 2841 928 2578 
Q 928 2378 1081 2264 
Q 1234 2150 1697 2047 
L 1894 2003 
Q 2506 1872 2764 1633 
Q 3022 1394 3022 966 
Q 3022 478 2636 193 
Q 2250 -91 1575 -91 
Q 1294 -91 989 -36 
Q 684 19 347 128 
L 347 722 
Q 666 556 975 473 
Q 1284 391 1588 391 
Q 1994 391 2212 530 
Q 2431 669 2431 922 
Q 2431 1156 2273 1281 
Q 2116 1406 1581 1522 
L 1381 1569 
Q 847 1681 609 1914 
Q 372 2147 372 2553 
Q 372 3047 722 3315 
Q 1072 3584 1716 3584 
Q 2034 3584 2315 3537 
Q 2597 3491 2834 3397 
z
" transform="scale(0.015625)"/>
      <path id="DejaVuSans-72" d="M 2631 2963 
Q 2534 3019 2420 3045 
Q 2306 3072 2169 3072 
Q 1681 3072 1420 2755 
Q 1159 2438 1159 1844 
L 1159 0 
L 581 0 
L 581 3500 
L 1159 3500 
L 1159 2956 
Q 1341 3275 1631 3429 
Q 1922 3584 2338 3584 
Q 2397 3584 2469 3576 
Q 2541 3569 2628 3553 
L 2631 2963 
z
" transform="scale(0.015625)"/>
      <path id="DejaVuSans-20" transform="scale(0.015625)"/>
      <path id="DejaVuSans-2c" d="M 750 794 
L 1409 794 
L 1409 256 
L 897 -744 
L 494 -744 
L 750 256 
L 750 794 
z
" transform="scale(0.015625)"/>
      <path id="DejaVuSans-41" d="M 2188 4044 
L 1331 1722 
L 3047 1722 
L 2188 4044 
z
M 1831 4666 
L 2547 4666 
L 4325 0 
L 3669 0 
L 3244 1197 
L 1141 1197 
L 716 0 
L 50 0 
L 1831 4666 
z
" transform="scale(0.015625)"/>
      <path id="DejaVuSans-6f" d="M 1959 3097 
Q 1497 3097 1228 2736 
Q 959 2375 959 1747 
Q 959 1119 1226 758 
Q 1494 397 1959 397 
Q 2419 397 2687 759 
Q 2956 1122 2956 1747 
Q 2956 2369 2687 2733 
Q 2419 3097 1959 3097 
z
M 1959 3584 
Q 2709 3584 3137 3096 
Q 3566 2609 3566 1747 
Q 3566 888 3137 398 
Q 2709 -91 1959 -91 
Q 1206 -91 779 398 
Q 353 888 353 1747 
Q 353 2609 779 3096 
Q 1206 3584 1959 3584 
z
" transform="scale(0.015625)"/>
      <path id="DejaVuSans-6e" d="M 3513 2113 
L 3513 0 
L 2938 0 
L 2938 2094 
Q 2938 2591 2744 2837 
Q 2550 3084 2163 3084 
Q 1697 3084 1428 2787 
Q 1159 2491 1159 1978 
L 1159 0 
L 581 0 
L 581 3500 
L 1159 3500 
L 1159 2956 
Q 1366 3272 1645 3428 
Q 1925 3584 2291 3584 
Q 2894 3584 3203 3211 
Q 3513 2838 3513 2113 
z
" transform="scale(0.015625)"/>
     </defs>
     <use xlink:href="#DejaVuSans-55"/>
     <use xlink:href="#DejaVuSans-73" x="73.193359"/>
     <use xlink:href="#DejaVuSans-65" x="125.292969"/>
     <use xlink:href="#DejaVuSans-72" x="186.816406"/>
     <use xlink:href="#DejaVuSans-20" x="227.929688"/>
     <use xlink:href="#DejaVuSans-31" x="259.716797"/>
     <use xlink:href="#DejaVuSans-39" x="323.339844"/>
     <use xlink:href="#DejaVuSans-2c" x="386.962891"/>
     <use xlink:href="#DejaVuSans-20" x="418.75"/>
     <use xlink:href="#DejaVuSans-41" x="450.537109"/>
     <use xlink:href="#DejaVuSans-63" x="517.195312"/>
     <use xlink:href="#DejaVuSans-74" x="572.175781"/>
     <use xlink:href="#DejaVuSans-69" x="611.384766"/>
     <use xlink:href="#DejaVuSans-6f" x="639.167969"/>
     <use xlink:href="#DejaVuSans-6e" x="700.349609"/>
     <use xlink:href="#DejaVuSans-20" x="763.728516"/>
     <use xlink:href="#DejaVuSans-35" x="795.515625"/>
    </g>
   </g>
   <g id="legend_1">
    <g id="patch_7">
     <path d="M 1219.548438 78.914375 
L 1278.2 78.914375 
Q 1280.2 78.914375 1280.2 76.914375 
L 1280.2 33.88 
Q 1280.2 31.88 1278.2 31.88 
L 1219.548438 31.88 
Q 1217.548438 31.88 1217.548438 33.88 
L 1217.548438 76.914375 
Q 1217.548438 78.914375 1219.548438 78.914375 
z
" style="fill: #ffffff; opacity: 0.8; stroke: #cccccc; stroke-linejoin: miter"/>
    </g>
    <g id="line2d_19">
     <path d="M 1221.548438 39.978437 
L 1231.548438 39.978437 
L 1241.548438 39.978437 
" style="fill: none; stroke: #1f77b4; stroke-width: 1.5; stroke-linecap: square"/>
    </g>
    <g id="text_20">
     <!-- acc-x -->
     <g transform="translate(1249.548438 43.478437) scale(0.1 -0.1)">
      <defs>
       <path id="DejaVuSans-2d" d="M 313 2009 
L 1997 2009 
L 1997 1497 
L 313 1497 
L 313 2009 
z
" transform="scale(0.015625)"/>
       <path id="DejaVuSans-78" d="M 3513 3500 
L 2247 1797 
L 3578 0 
L 2900 0 
L 1881 1375 
L 863 0 
L 184 0 
L 1544 1831 
L 300 3500 
L 978 3500 
L 1906 2253 
L 2834 3500 
L 3513 3500 
z
" transform="scale(0.015625)"/>
      </defs>
      <use xlink:href="#DejaVuSans-61"/>
      <use xlink:href="#DejaVuSans-63" x="61.279297"/>
      <use xlink:href="#DejaVuSans-63" x="116.259766"/>
      <use xlink:href="#DejaVuSans-2d" x="171.240234"/>
      <use xlink:href="#DejaVuSans-78" x="207.324219"/>
     </g>
    </g>
    <g id="line2d_20">
     <path d="M 1221.548438 54.656563 
L 1231.548438 54.656563 
L 1241.548438 54.656563 
" style="fill: none; stroke: #ff7f0e; stroke-width: 1.5; stroke-linecap: square"/>
    </g>
    <g id="text_21">
     <!-- acc-y -->
     <g transform="translate(1249.548438 58.156563) scale(0.1 -0.1)">
      <defs>
       <path id="DejaVuSans-79" d="M 2059 -325 
Q 1816 -950 1584 -1140 
Q 1353 -1331 966 -1331 
L 506 -1331 
L 506 -850 
L 844 -850 
Q 1081 -850 1212 -737 
Q 1344 -625 1503 -206 
L 1606 56 
L 191 3500 
L 800 3500 
L 1894 763 
L 2988 3500 
L 3597 3500 
L 2059 -325 
z
" transform="scale(0.015625)"/>
      </defs>
      <use xlink:href="#DejaVuSans-61"/>
      <use xlink:href="#DejaVuSans-63" x="61.279297"/>
      <use xlink:href="#DejaVuSans-63" x="116.259766"/>
      <use xlink:href="#DejaVuSans-2d" x="171.240234"/>
      <use xlink:href="#DejaVuSans-79" x="205.574219"/>
     </g>
    </g>
    <g id="line2d_21">
     <path d="M 1221.548438 69.334687 
L 1231.548438 69.334687 
L 1241.548438 69.334687 
" style="fill: none; stroke: #2ca02c; stroke-width: 1.5; stroke-linecap: square"/>
    </g>
    <g id="text_22">
     <!-- acc-z -->
     <g transform="translate(1249.548438 72.834687) scale(0.1 -0.1)">
      <defs>
       <path id="DejaVuSans-7a" d="M 353 3500 
L 3084 3500 
L 3084 2975 
L 922 459 
L 3084 459 
L 3084 0 
L 275 0 
L 275 525 
L 2438 3041 
L 353 3041 
L 353 3500 
z
" transform="scale(0.015625)"/>
      </defs>
      <use xlink:href="#DejaVuSans-61"/>
      <use xlink:href="#DejaVuSans-63" x="61.279297"/>
      <use xlink:href="#DejaVuSans-63" x="116.259766"/>
      <use xlink:href="#DejaVuSans-2d" x="171.240234"/>
      <use xlink:href="#DejaVuSans-7a" x="207.324219"/>
     </g>
    </g>
   </g>
  </g>
 </g>
 <defs>
  <clipPath id="p257a4e86e4">
   <rect x="56" y="26.88" width="1229.2" height="363.16"/>
  </clipPath>
 </defs>
</svg>
