<?xml version="1.0" encoding="utf-8" standalone="no"?>
<!DOCTYPE svg PUBLIC "-//W3C//DTD SVG 1.1//EN"
  "http://www.w3.org/Graphics/SVG/1.1/DTD/svg11.dtd">
<svg xmlns:xlink="http://www.w3.org/1999/xlink" width="1296pt" height="432pt" viewBox="0 0 1296 432" xmlns="http://www.w3.org/2000/svg" version="1.1">
 <metadata>
  <rdf:RDF xmlns:dc="http://purl.org/dc/elements/1.1/" xmlns:cc="http://creativecommons.org/ns#" xmlns:rdf="http://www.w3.org/1999/02/22-rdf-syntax-ns#">
   <cc:Work>
    <dc:type rdf:resource="http://purl.org/dc/dcmitype/StillImage"/>
    <dc:date>2025-03-28T12:11:09.776542</dc:date>
    <dc:format>image/svg+xml</dc:format>
    <dc:creator>
     <cc:Agent>
      <dc:title>Matplotlib v3.7.5, https://matplotlib.org/</dc:title>
     </cc:Agent>
    </dc:creator>
   </cc:Work>
  </rdf:RDF>
 </metadata>
 <defs>
  <style type="text/css">*{stroke-linejoin: round; stroke-linecap: butt}</style>
 </defs>
 <g id="figure_1">
  <g id="patch_1">
   <path d="M 0 432 
L 1296 432 
L 1296 0 
L 0 0 
z
" style="fill: #ffffff"/>
  </g>
  <g id="axes_1">
   <g id="patch_2">
    <path d="M 46.55 390.04 
L 1285.2 390.04 
L 1285.2 26.88 
L 46.55 26.88 
z
" style="fill: #ffffff"/>
   </g>
   <g id="matplotlib.axis_1">
    <g id="xtick_1">
     <g id="line2d_1">
      <defs>
       <path id="m515846e3bd" d="M 0 0 
L 0 3.5 
" style="stroke: #000000; stroke-width: 0.8"/>
      </defs>
      <g>
       <use xlink:href="#m515846e3bd" x="208.506483" y="390.04" style="stroke: #000000; stroke-width: 0.8"/>
      </g>
     </g>
     <g id="text_1">
      <!-- 4.41 -->
      <g transform="translate(197.37367 404.638438) scale(0.1 -0.1)">
       <defs>
        <path id="DejaVuSans-34" d="M 2419 4116 
L 825 1625 
L 2419 1625 
L 2419 4116 
z
M 2253 4666 
L 3047 4666 
L 3047 1625 
L 3713 1625 
L 3713 1100 
L 3047 1100 
L 3047 0 
L 2419 0 
L 2419 1100 
L 313 1100 
L 313 1709 
L 2253 4666 
z
" transform="scale(0.015625)"/>
        <path id="DejaVuSans-2e" d="M 684 794 
L 1344 794 
L 1344 0 
L 684 0 
L 684 794 
z
" transform="scale(0.015625)"/>
        <path id="DejaVuSans-31" d="M 794 531 
L 1825 531 
L 1825 4091 
L 703 3866 
L 703 4441 
L 1819 4666 
L 2450 4666 
L 2450 531 
L 3481 531 
L 3481 0 
L 794 0 
L 794 531 
z
" transform="scale(0.015625)"/>
       </defs>
       <use xlink:href="#DejaVuSans-34"/>
       <use xlink:href="#DejaVuSans-2e" x="63.623047"/>
       <use xlink:href="#DejaVuSans-34" x="95.410156"/>
       <use xlink:href="#DejaVuSans-31" x="159.033203"/>
      </g>
     </g>
    </g>
    <g id="xtick_2">
     <g id="line2d_2">
      <g>
       <use xlink:href="#m515846e3bd" x="385.281541" y="390.04" style="stroke: #000000; stroke-width: 0.8"/>
      </g>
     </g>
     <g id="text_2">
      <!-- 4.42 -->
      <g transform="translate(374.148728 404.638438) scale(0.1 -0.1)">
       <defs>
        <path id="DejaVuSans-32" d="M 1228 531 
L 3431 531 
L 3431 0 
L 469 0 
L 469 531 
Q 828 903 1448 1529 
Q 2069 2156 2228 2338 
Q 2531 2678 2651 2914 
Q 2772 3150 2772 3378 
Q 2772 3750 2511 3984 
Q 2250 4219 1831 4219 
Q 1534 4219 1204 4116 
Q 875 4013 500 3803 
L 500 4441 
Q 881 4594 1212 4672 
Q 1544 4750 1819 4750 
Q 2544 4750 2975 4387 
Q 3406 4025 3406 3419 
Q 3406 3131 3298 2873 
Q 3191 2616 2906 2266 
Q 2828 2175 2409 1742 
Q 1991 1309 1228 531 
z
" transform="scale(0.015625)"/>
       </defs>
       <use xlink:href="#DejaVuSans-34"/>
       <use xlink:href="#DejaVuSans-2e" x="63.623047"/>
       <use xlink:href="#DejaVuSans-34" x="95.410156"/>
       <use xlink:href="#DejaVuSans-32" x="159.033203"/>
      </g>
     </g>
    </g>
    <g id="xtick_3">
     <g id="line2d_3">
      <g>
       <use xlink:href="#m515846e3bd" x="562.056599" y="390.04" style="stroke: #000000; stroke-width: 0.8"/>
      </g>
     </g>
     <g id="text_3">
      <!-- 4.43 -->
      <g transform="translate(550.923787 404.638438) scale(0.1 -0.1)">
       <defs>
        <path id="DejaVuSans-33" d="M 2597 2516 
Q 3050 2419 3304 2112 
Q 3559 1806 3559 1356 
Q 3559 666 3084 287 
Q 2609 -91 1734 -91 
Q 1441 -91 1130 -33 
Q 819 25 488 141 
L 488 750 
Q 750 597 1062 519 
Q 1375 441 1716 441 
Q 2309 441 2620 675 
Q 2931 909 2931 1356 
Q 2931 1769 2642 2001 
Q 2353 2234 1838 2234 
L 1294 2234 
L 1294 2753 
L 1863 2753 
Q 2328 2753 2575 2939 
Q 2822 3125 2822 3475 
Q 2822 3834 2567 4026 
Q 2313 4219 1838 4219 
Q 1578 4219 1281 4162 
Q 984 4106 628 3988 
L 628 4550 
Q 988 4650 1302 4700 
Q 1616 4750 1894 4750 
Q 2613 4750 3031 4423 
Q 3450 4097 3450 3541 
Q 3450 3153 3228 2886 
Q 3006 2619 2597 2516 
z
" transform="scale(0.015625)"/>
       </defs>
       <use xlink:href="#DejaVuSans-34"/>
       <use xlink:href="#DejaVuSans-2e" x="63.623047"/>
       <use xlink:href="#DejaVuSans-34" x="95.410156"/>
       <use xlink:href="#DejaVuSans-33" x="159.033203"/>
      </g>
     </g>
    </g>
    <g id="xtick_4">
     <g id="line2d_4">
      <g>
       <use xlink:href="#m515846e3bd" x="738.831658" y="390.04" style="stroke: #000000; stroke-width: 0.8"/>
      </g>
     </g>
     <g id="text_4">
      <!-- 4.44 -->
      <g transform="translate(727.698845 404.638438) scale(0.1 -0.1)">
       <use xlink:href="#DejaVuSans-34"/>
       <use xlink:href="#DejaVuSans-2e" x="63.623047"/>
       <use xlink:href="#DejaVuSans-34" x="95.410156"/>
       <use xlink:href="#DejaVuSans-34" x="159.033203"/>
      </g>
     </g>
    </g>
    <g id="xtick_5">
     <g id="line2d_5">
      <g>
       <use xlink:href="#m515846e3bd" x="915.606716" y="390.04" style="stroke: #000000; stroke-width: 0.8"/>
      </g>
     </g>
     <g id="text_5">
      <!-- 4.45 -->
      <g transform="translate(904.473903 404.638438) scale(0.1 -0.1)">
       <defs>
        <path id="DejaVuSans-35" d="M 691 4666 
L 3169 4666 
L 3169 4134 
L 1269 4134 
L 1269 2991 
Q 1406 3038 1543 3061 
Q 1681 3084 1819 3084 
Q 2600 3084 3056 2656 
Q 3513 2228 3513 1497 
Q 3513 744 3044 326 
Q 2575 -91 1722 -91 
Q 1428 -91 1123 -41 
Q 819 9 494 109 
L 494 744 
Q 775 591 1075 516 
Q 1375 441 1709 441 
Q 2250 441 2565 725 
Q 2881 1009 2881 1497 
Q 2881 1984 2565 2268 
Q 2250 2553 1709 2553 
Q 1456 2553 1204 2497 
Q 953 2441 691 2322 
L 691 4666 
z
" transform="scale(0.015625)"/>
       </defs>
       <use xlink:href="#DejaVuSans-34"/>
       <use xlink:href="#DejaVuSans-2e" x="63.623047"/>
       <use xlink:href="#DejaVuSans-34" x="95.410156"/>
       <use xlink:href="#DejaVuSans-35" x="159.033203"/>
      </g>
     </g>
    </g>
    <g id="xtick_6">
     <g id="line2d_6">
      <g>
       <use xlink:href="#m515846e3bd" x="1092.381774" y="390.04" style="stroke: #000000; stroke-width: 0.8"/>
      </g>
     </g>
     <g id="text_6">
      <!-- 4.46 -->
      <g transform="translate(1081.248962 404.638438) scale(0.1 -0.1)">
       <defs>
        <path id="DejaVuSans-36" d="M 2113 2584 
Q 1688 2584 1439 2293 
Q 1191 2003 1191 1497 
Q 1191 994 1439 701 
Q 1688 409 2113 409 
Q 2538 409 2786 701 
Q 3034 994 3034 1497 
Q 3034 2003 2786 2293 
Q 2538 2584 2113 2584 
z
M 3366 4563 
L 3366 3988 
Q 3128 4100 2886 4159 
Q 2644 4219 2406 4219 
Q 1781 4219 1451 3797 
Q 1122 3375 1075 2522 
Q 1259 2794 1537 2939 
Q 1816 3084 2150 3084 
Q 2853 3084 3261 2657 
Q 3669 2231 3669 1497 
Q 3669 778 3244 343 
Q 2819 -91 2113 -91 
Q 1303 -91 875 529 
Q 447 1150 447 2328 
Q 447 3434 972 4092 
Q 1497 4750 2381 4750 
Q 2619 4750 2861 4703 
Q 3103 4656 3366 4563 
z
" transform="scale(0.015625)"/>
       </defs>
       <use xlink:href="#DejaVuSans-34"/>
       <use xlink:href="#DejaVuSans-2e" x="63.623047"/>
       <use xlink:href="#DejaVuSans-34" x="95.410156"/>
       <use xlink:href="#DejaVuSans-36" x="159.033203"/>
      </g>
     </g>
    </g>
    <g id="xtick_7">
     <g id="line2d_7">
      <g>
       <use xlink:href="#m515846e3bd" x="1269.156833" y="390.04" style="stroke: #000000; stroke-width: 0.8"/>
      </g>
     </g>
     <g id="text_7">
      <!-- 4.47 -->
      <g transform="translate(1258.02402 404.638438) scale(0.1 -0.1)">
       <defs>
        <path id="DejaVuSans-37" d="M 525 4666 
L 3525 4666 
L 3525 4397 
L 1831 0 
L 1172 0 
L 2766 4134 
L 525 4134 
L 525 4666 
z
" transform="scale(0.015625)"/>
       </defs>
       <use xlink:href="#DejaVuSans-34"/>
       <use xlink:href="#DejaVuSans-2e" x="63.623047"/>
       <use xlink:href="#DejaVuSans-34" x="95.410156"/>
       <use xlink:href="#DejaVuSans-37" x="159.033203"/>
      </g>
     </g>
    </g>
    <g id="text_8">
     <!-- time -->
     <g transform="translate(654.578906 418.316562) scale(0.1 -0.1)">
      <defs>
       <path id="DejaVuSans-74" d="M 1172 4494 
L 1172 3500 
L 2356 3500 
L 2356 3053 
L 1172 3053 
L 1172 1153 
Q 1172 725 1289 603 
Q 1406 481 1766 481 
L 2356 481 
L 2356 0 
L 1766 0 
Q 1100 0 847 248 
Q 594 497 594 1153 
L 594 3053 
L 172 3053 
L 172 3500 
L 594 3500 
L 594 4494 
L 1172 4494 
z
" transform="scale(0.015625)"/>
       <path id="DejaVuSans-69" d="M 603 3500 
L 1178 3500 
L 1178 0 
L 603 0 
L 603 3500 
z
M 603 4863 
L 1178 4863 
L 1178 4134 
L 603 4134 
L 603 4863 
z
" transform="scale(0.015625)"/>
       <path id="DejaVuSans-6d" d="M 3328 2828 
Q 3544 3216 3844 3400 
Q 4144 3584 4550 3584 
Q 5097 3584 5394 3201 
Q 5691 2819 5691 2113 
L 5691 0 
L 5113 0 
L 5113 2094 
Q 5113 2597 4934 2840 
Q 4756 3084 4391 3084 
Q 3944 3084 3684 2787 
Q 3425 2491 3425 1978 
L 3425 0 
L 2847 0 
L 2847 2094 
Q 2847 2600 2669 2842 
Q 2491 3084 2119 3084 
Q 1678 3084 1418 2786 
Q 1159 2488 1159 1978 
L 1159 0 
L 581 0 
L 581 3500 
L 1159 3500 
L 1159 2956 
Q 1356 3278 1631 3431 
Q 1906 3584 2284 3584 
Q 2666 3584 2933 3390 
Q 3200 3197 3328 2828 
z
" transform="scale(0.015625)"/>
       <path id="DejaVuSans-65" d="M 3597 1894 
L 3597 1613 
L 953 1613 
Q 991 1019 1311 708 
Q 1631 397 2203 397 
Q 2534 397 2845 478 
Q 3156 559 3463 722 
L 3463 178 
Q 3153 47 2828 -22 
Q 2503 -91 2169 -91 
Q 1331 -91 842 396 
Q 353 884 353 1716 
Q 353 2575 817 3079 
Q 1281 3584 2069 3584 
Q 2775 3584 3186 3129 
Q 3597 2675 3597 1894 
z
M 3022 2063 
Q 3016 2534 2758 2815 
Q 2500 3097 2075 3097 
Q 1594 3097 1305 2825 
Q 1016 2553 972 2059 
L 3022 2063 
z
" transform="scale(0.015625)"/>
      </defs>
      <use xlink:href="#DejaVuSans-74"/>
      <use xlink:href="#DejaVuSans-69" x="39.208984"/>
      <use xlink:href="#DejaVuSans-6d" x="66.992188"/>
      <use xlink:href="#DejaVuSans-65" x="164.404297"/>
     </g>
    </g>
    <g id="text_9">
     <!-- 1e11 -->
     <g transform="translate(1259.959375 417.316562) scale(0.1 -0.1)">
      <use xlink:href="#DejaVuSans-31"/>
      <use xlink:href="#DejaVuSans-65" x="63.623047"/>
      <use xlink:href="#DejaVuSans-31" x="125.146484"/>
      <use xlink:href="#DejaVuSans-31" x="188.769531"/>
     </g>
    </g>
   </g>
   <g id="matplotlib.axis_2">
    <g id="ytick_1">
     <g id="line2d_8">
      <defs>
       <path id="m5fb831c95e" d="M 0 0 
L -3.5 0 
" style="stroke: #000000; stroke-width: 0.8"/>
      </defs>
      <g>
       <use xlink:href="#m5fb831c95e" x="46.55" y="340.71005" style="stroke: #000000; stroke-width: 0.8"/>
      </g>
     </g>
     <g id="text_10">
      <!-- −5 -->
      <g transform="translate(24.807812 344.509269) scale(0.1 -0.1)">
       <defs>
        <path id="DejaVuSans-2212" d="M 678 2272 
L 4684 2272 
L 4684 1741 
L 678 1741 
L 678 2272 
z
" transform="scale(0.015625)"/>
       </defs>
       <use xlink:href="#DejaVuSans-2212"/>
       <use xlink:href="#DejaVuSans-35" x="83.789062"/>
      </g>
     </g>
    </g>
    <g id="ytick_2">
     <g id="line2d_9">
      <g>
       <use xlink:href="#m5fb831c95e" x="46.55" y="277.260887" style="stroke: #000000; stroke-width: 0.8"/>
      </g>
     </g>
     <g id="text_11">
      <!-- 0 -->
      <g transform="translate(33.1875 281.060106) scale(0.1 -0.1)">
       <defs>
        <path id="DejaVuSans-30" d="M 2034 4250 
Q 1547 4250 1301 3770 
Q 1056 3291 1056 2328 
Q 1056 1369 1301 889 
Q 1547 409 2034 409 
Q 2525 409 2770 889 
Q 3016 1369 3016 2328 
Q 3016 3291 2770 3770 
Q 2525 4250 2034 4250 
z
M 2034 4750 
Q 2819 4750 3233 4129 
Q 3647 3509 3647 2328 
Q 3647 1150 3233 529 
Q 2819 -91 2034 -91 
Q 1250 -91 836 529 
Q 422 1150 422 2328 
Q 422 3509 836 4129 
Q 1250 4750 2034 4750 
z
" transform="scale(0.015625)"/>
       </defs>
       <use xlink:href="#DejaVuSans-30"/>
      </g>
     </g>
    </g>
    <g id="ytick_3">
     <g id="line2d_10">
      <g>
       <use xlink:href="#m5fb831c95e" x="46.55" y="213.811724" style="stroke: #000000; stroke-width: 0.8"/>
      </g>
     </g>
     <g id="text_12">
      <!-- 5 -->
      <g transform="translate(33.1875 217.610943) scale(0.1 -0.1)">
       <use xlink:href="#DejaVuSans-35"/>
      </g>
     </g>
    </g>
    <g id="ytick_4">
     <g id="line2d_11">
      <g>
       <use xlink:href="#m5fb831c95e" x="46.55" y="150.362561" style="stroke: #000000; stroke-width: 0.8"/>
      </g>
     </g>
     <g id="text_13">
      <!-- 10 -->
      <g transform="translate(26.825 154.16178) scale(0.1 -0.1)">
       <use xlink:href="#DejaVuSans-31"/>
       <use xlink:href="#DejaVuSans-30" x="63.623047"/>
      </g>
     </g>
    </g>
    <g id="ytick_5">
     <g id="line2d_12">
      <g>
       <use xlink:href="#m5fb831c95e" x="46.55" y="86.913398" style="stroke: #000000; stroke-width: 0.8"/>
      </g>
     </g>
     <g id="text_14">
      <!-- 15 -->
      <g transform="translate(26.825 90.712617) scale(0.1 -0.1)">
       <use xlink:href="#DejaVuSans-31"/>
       <use xlink:href="#DejaVuSans-35" x="63.623047"/>
      </g>
     </g>
    </g>
    <g id="text_15">
     <!-- acc -->
     <g transform="translate(18.728125 217.0225) rotate(-90) scale(0.1 -0.1)">
      <defs>
       <path id="DejaVuSans-61" d="M 2194 1759 
Q 1497 1759 1228 1600 
Q 959 1441 959 1056 
Q 959 750 1161 570 
Q 1363 391 1709 391 
Q 2188 391 2477 730 
Q 2766 1069 2766 1631 
L 2766 1759 
L 2194 1759 
z
M 3341 1997 
L 3341 0 
L 2766 0 
L 2766 531 
Q 2569 213 2275 61 
Q 1981 -91 1556 -91 
Q 1019 -91 701 211 
Q 384 513 384 1019 
Q 384 1609 779 1909 
Q 1175 2209 1959 2209 
L 2766 2209 
L 2766 2266 
Q 2766 2663 2505 2880 
Q 2244 3097 1772 3097 
Q 1472 3097 1187 3025 
Q 903 2953 641 2809 
L 641 3341 
Q 956 3463 1253 3523 
Q 1550 3584 1831 3584 
Q 2591 3584 2966 3190 
Q 3341 2797 3341 1997 
z
" transform="scale(0.015625)"/>
       <path id="DejaVuSans-63" d="M 3122 3366 
L 3122 2828 
Q 2878 2963 2633 3030 
Q 2388 3097 2138 3097 
Q 1578 3097 1268 2742 
Q 959 2388 959 1747 
Q 959 1106 1268 751 
Q 1578 397 2138 397 
Q 2388 397 2633 464 
Q 2878 531 3122 666 
L 3122 134 
Q 2881 22 2623 -34 
Q 2366 -91 2075 -91 
Q 1284 -91 818 406 
Q 353 903 353 1747 
Q 353 2603 823 3093 
Q 1294 3584 2113 3584 
Q 2378 3584 2631 3529 
Q 2884 3475 3122 3366 
z
" transform="scale(0.015625)"/>
      </defs>
      <use xlink:href="#DejaVuSans-61"/>
      <use xlink:href="#DejaVuSans-63" x="61.279297"/>
      <use xlink:href="#DejaVuSans-63" x="116.259766"/>
     </g>
    </g>
   </g>
   <g id="line2d_13">
    <path d="M 102.852273 255.81507 
L 113.614692 241.348661 
L 122.53759 291.727296 
L 131.282475 324.467064 
L 140.189286 307.33579 
L 148.793989 186.401686 
L 157.835503 47.321121 
L 166.483339 210.258571 
L 175.503286 249.597052 
L 184.410098 354.034374 
L 193.160286 321.04081 
L 202.072401 279.164362 
L 210.828069 185.259601 
L 219.734881 211.527554 
L 228.344887 260.637207 
L 237.381097 286.397567 
L 246.028756 252.515714 
L 255.048881 170.285599 
L 264.047261 184.498211 
L 272.797627 186.909279 
L 281.531729 219.902844 
L 290.449147 326.878133 
L 299.053849 248.074272 
L 308.100843 248.581866 
L 316.737719 294.138365 
L 325.757843 319.898725 
L 334.659174 317.487657 
L 343.39858 204.29435 
L 352.316174 52.777749 
L 360.936964 194.650077 
L 369.956911 256.830257 
L 378.847459 345.405288 
L 387.603128 322.055996 
L 396.509939 279.671955 
L 405.125248 197.061145 
L 414.156156 199.979807 
L 422.803815 259.241325 
L 431.807676 279.671955 
L 440.714487 250.485341 
L 449.453892 170.793192 
L 458.37679 187.416873 
L 467.008363 174.219447 
L 476.03379 241.856254 
L 484.919035 316.726267 
L 493.680007 246.170797 
L 502.581338 246.170797 
L 511.326223 298.199111 
L 520.238338 331.192676 
L 528.864607 307.843384 
L 537.884555 182.594736 
L 546.791366 50.366681 
L 555.541554 210.258571 
L 564.459149 244.774916 
L 573.204034 352.638493 
L 582.116149 319.898725 
L 590.736938 276.753294 
L 599.767669 202.390875 
L 608.663697 203.786757 
L 617.413886 258.226138 
L 626.320697 288.554838 
L 635.070885 252.515714 
L 643.977697 149.347375 
L 652.614749 201.375688 
L 661.640177 175.615328 
L 670.541508 270.027683 
L 679.280913 311.269639 
L 688.203811 240.333474 
L 696.93261 255.81507 
L 705.855508 299.214298 
L 714.492384 320.533216 
L 723.512508 300.102586 
L 732.403056 171.808378 
L 741.158724 52.777749 
L 750.070839 229.547117 
L 758.810244 258.226138 
L 767.727839 349.212238 
L 776.348628 312.66552 
L 785.379359 260.38341 
L 794.275387 198.457027 
L 803.031055 222.313912 
L 811.93769 262.794478 
L 820.536913 281.067837 
L 829.573123 230.562303 
L 838.469151 151.758443 
L 847.246387 207.720605 
L 856.147718 162.544801 
L 864.892603 277.260887 
L 873.788455 302.006061 
L 882.414724 242.236949 
L 891.445454 265.459343 
L 900.341483 305.432316 
L 909.097151 330.304387 
L 918.009266 296.676331 
L 926.748671 138.687915 
L 935.666266 63.817903 
L 944.287055 263.048275 
L 953.312482 241.856254 
L 961.965621 344.897695 
L 970.82382 313.173113 
L 979.660451 267.109021 
L 988.691182 180.437465 
L 997.317451 215.588301 
L 1006.337398 265.205546 
L 1015.23873 284.494092 
L 1024.005182 238.937593 
L 1032.906513 145.540425 
L 1041.651398 210.258571 
L 1050.574296 174.72704 
L 1060.970084 308.85857 
L 1069.801235 276.245701 
L 1078.64317 232.973372 
L 1087.479802 274.849819 
L 1096.316434 308.85857 
L 1105.169152 324.467064 
L 1113.995 264.063461 
L 1122.836935 113.435149 
L 1131.673566 104.806062 
L 1140.510198 262.794478 
L 1149.352133 233.480965 
L 1158.194245 343.75561 
L 1167.030699 310.762045 
L 1175.867331 260.38341 
L 1184.703963 191.731416 
L 1193.551378 223.836692 
L 1202.388009 265.966936 
L 1211.224464 279.164362 
L 1220.066576 226.24776 
L 1228.897727 151.758443 
L 1228.897727 151.758443 
" clip-path="url(#p25873d843f)" style="fill: none; stroke: #1f77b4; stroke-width: 1.5; stroke-linecap: square"/>
   </g>
   <g id="line2d_14">
    <path d="M 102.852273 75.619447 
L 113.614692 171.808378 
L 122.53759 209.116486 
L 131.282475 224.72498 
L 140.189286 249.089459 
L 148.793989 221.806319 
L 157.835503 61.406835 
L 166.483339 227.643642 
L 175.503286 66.736565 
L 184.410098 204.801943 
L 193.160286 143.63695 
L 202.072401 122.698726 
L 210.828069 131.962304 
L 219.734881 197.061145 
L 228.344887 178.53399 
L 237.381097 157.595766 
L 246.028756 147.4439 
L 255.048881 139.703102 
L 264.047261 104.298469 
L 272.797627 111.531674 
L 281.531729 112.039267 
L 290.449147 60.899242 
L 299.053849 64.83309 
L 308.100843 162.544801 
L 316.737719 215.588301 
L 325.757843 224.72498 
L 334.659174 252.00812 
L 343.39858 220.918031 
L 352.316174 68.259345 
L 360.936964 213.938623 
L 369.956911 90.085857 
L 378.847459 175.107735 
L 387.603128 151.758443 
L 396.509939 104.806062 
L 405.125248 132.977491 
L 414.156156 209.62408 
L 422.803815 175.615328 
L 431.807676 160.133733 
L 440.714487 141.098984 
L 449.453892 137.799627 
L 458.37679 112.039267 
L 467.008363 117.368997 
L 476.03379 81.45677 
L 484.919035 60.899242 
L 493.680007 69.147633 
L 502.581338 179.929871 
L 511.326223 216.095894 
L 520.238338 226.628455 
L 528.864607 254.926782 
L 537.884555 222.821505 
L 546.791366 52.777749 
L 555.541554 244.267323 
L 564.459149 81.45677 
L 573.204034 174.219447 
L 582.116149 152.266036 
L 590.736938 121.175946 
L 599.767669 124.094608 
L 608.663697 208.608893 
L 617.413886 179.549176 
L 626.320697 153.915715 
L 635.070885 138.30722 
L 643.977697 137.799627 
L 652.614749 93.004518 
L 661.640177 122.191133 
L 670.541508 77.396024 
L 679.280913 70.162819 
L 688.203811 83.360245 
L 696.93261 195.15767 
L 705.855508 216.476589 
L 714.492384 230.562303 
L 723.512508 250.992934 
L 732.403056 204.29435 
L 741.158724 43.387273 
L 750.070839 233.480965 
L 758.810244 71.051108 
L 767.727839 193.127297 
L 776.348628 132.977491 
L 785.379359 105.059859 
L 794.275387 172.696667 
L 803.031055 191.223822 
L 811.93769 171.808378 
L 820.536913 154.677104 
L 829.573123 144.017645 
L 838.469151 131.962304 
L 847.246387 100.237723 
L 856.147718 144.525238 
L 864.892603 68.259345 
L 873.788455 62.422022 
L 882.414724 84.756127 
L 891.445454 196.045959 
L 900.341483 224.217387 
L 909.097151 235.892033 
L 918.009266 248.074272 
L 926.748671 182.848533 
L 935.666266 51.128071 
L 944.287055 219.902844 
L 953.312482 62.422022 
L 961.965621 189.827941 
L 970.82382 146.936307 
L 979.660451 112.54686 
L 988.691182 158.230258 
L 997.317451 196.045959 
L 1006.337398 168.889717 
L 1015.23873 150.870155 
L 1024.005182 130.566423 
L 1032.906513 137.292034 
L 1041.651398 103.790876 
L 1050.574296 142.621764 
L 1060.970084 48.717002 
L 1069.801235 81.45677 
L 1078.64317 124.094608 
L 1087.479802 200.4874 
L 1096.316434 216.095894 
L 1105.169152 241.856254 
L 1113.995 231.57749 
L 1122.836935 155.184698 
L 1131.673566 83.867839 
L 1140.510198 209.62408 
L 1149.352133 58.107479 
L 1158.194245 205.309537 
L 1167.030699 138.30722 
L 1175.867331 111.02408 
L 1184.703963 174.219447 
L 1193.551378 190.335534 
L 1202.388009 173.20426 
L 1211.224464 144.017645 
L 1220.066576 130.058829 
L 1228.897727 131.962304 
L 1228.897727 131.962304 
" clip-path="url(#p25873d843f)" style="fill: none; stroke: #ff7f0e; stroke-width: 1.5; stroke-linecap: square"/>
   </g>
   <g id="line2d_15">
    <path d="M 102.852273 228.692866 
L 113.614692 314.767153 
L 122.53759 293.853521 
L 131.282475 296.61896 
L 140.189286 276.223848 
L 148.793989 208.297751 
L 157.835503 143.655617 
L 166.483339 244.766981 
L 175.503286 270.86581 
L 184.410098 310.273314 
L 193.160286 333.088181 
L 202.072401 325.828908 
L 210.828069 275.359648 
L 219.734881 293.853521 
L 228.344887 287.458443 
L 237.381097 300.594278 
L 246.028756 224.19903 
L 255.048881 305.952316 
L 264.047261 290.915242 
L 272.797627 198.964396 
L 281.531729 254.964535 
L 290.449147 373.532727 
L 299.053849 231.976826 
L 308.100843 312.174554 
L 316.737719 296.61896 
L 325.757843 299.211558 
L 334.659174 288.841163 
L 352.316174 128.44571 
L 360.936964 227.137306 
L 369.956911 286.075723 
L 378.847459 290.396723 
L 387.603128 331.705467 
L 396.509939 320.470871 
L 405.125248 315.112831 
L 414.156156 277.260887 
L 422.803815 286.075723 
L 431.807676 294.1992 
L 440.714487 248.050937 
L 449.453892 284.001644 
L 458.37679 285.038684 
L 467.008363 179.087803 
L 476.03379 298.693039 
L 484.919035 330.668424 
L 493.680007 249.606497 
L 502.581338 310.273314 
L 511.326223 299.557239 
L 520.238338 300.594278 
L 528.864607 282.618925 
L 537.884555 207.779232 
L 546.791366 128.96423 
L 555.541554 244.24846 
L 564.459149 286.421403 
L 573.204034 294.1992 
L 582.116149 334.125225 
L 590.736938 324.44619 
L 599.767669 303.532559 
L 608.663697 276.742367 
L 617.413886 288.495483 
L 626.320697 294.1992 
L 635.070885 233.532384 
L 643.977697 306.989356 
L 652.614749 283.137445 
L 661.640177 190.668079 
L 670.541508 306.470838 
L 679.280913 304.915277 
L 688.203811 264.125051 
L 696.93261 316.149873 
L 705.855508 288.841163 
L 714.492384 308.372074 
L 723.512508 278.297927 
L 741.158724 120.322225 
L 750.070839 278.297927 
L 758.810244 259.804053 
L 767.727839 312.693072 
L 776.348628 329.80423 
L 785.379359 320.98939 
L 794.275387 268.446051 
L 803.031055 291.433762 
L 811.93769 297.655999 
L 820.536913 267.581851 
L 829.573123 270.00161 
L 838.469151 303.532559 
L 847.246387 243.729939 
L 856.147718 200.519958 
L 864.892603 346.742543 
L 873.788455 275.878168 
L 882.414724 275.359648 
L 891.445454 310.273314 
L 900.341483 300.075758 
L 909.097151 303.532559 
L 918.009266 271.38433 
L 926.748671 170.272972 
L 935.666266 153.853179 
L 944.287055 270.00161 
L 953.312482 256.347255 
L 961.965621 332.223987 
L 970.82382 329.285711 
L 979.660451 313.730112 
L 988.691182 275.878168 
L 997.317451 293.335 
L 1006.337398 288.841163 
L 1015.23873 270.86581 
L 1024.005182 259.285534 
L 1032.906513 304.051076 
L 1041.651398 245.112661 
L 1050.574296 206.223674 
L 1060.970084 371.631492 
L 1069.801235 235.952145 
L 1078.64317 292.816481 
L 1087.479802 311.828874 
L 1096.316434 295.236241 
L 1105.169152 298.693039 
L 1113.995 243.211421 
L 1122.836935 176.149525 
L 1131.673566 179.606324 
L 1140.510198 303.532559 
L 1149.352133 220.915074 
L 1158.194245 329.80423 
L 1167.030699 333.088181 
L 1175.867331 313.211594 
L 1184.703963 270.00161 
L 1193.551378 293.335 
L 1202.388009 292.297962 
L 1211.224464 249.606497 
L 1220.066576 260.668254 
L 1228.897727 310.273314 
L 1228.897727 310.273314 
" clip-path="url(#p25873d843f)" style="fill: none; stroke: #2ca02c; stroke-width: 1.5; stroke-linecap: square"/>
   </g>
   <g id="patch_3">
    <path d="M 46.55 390.04 
L 46.55 26.88 
" style="fill: none; stroke: #000000; stroke-width: 0.8; stroke-linejoin: miter; stroke-linecap: square"/>
   </g>
   <g id="patch_4">
    <path d="M 1285.2 390.04 
L 1285.2 26.88 
" style="fill: none; stroke: #000000; stroke-width: 0.8; stroke-linejoin: miter; stroke-linecap: square"/>
   </g>
   <g id="patch_5">
    <path d="M 46.55 390.04 
L 1285.2 390.04 
" style="fill: none; stroke: #000000; stroke-width: 0.8; stroke-linejoin: miter; stroke-linecap: square"/>
   </g>
   <g id="patch_6">
    <path d="M 46.55 26.88 
L 1285.2 26.88 
" style="fill: none; stroke: #000000; stroke-width: 0.8; stroke-linejoin: miter; stroke-linecap: square"/>
   </g>
   <g id="text_16">
    <!-- User 20, Action 0 -->
    <g transform="translate(614.328437 20.88) scale(0.12 -0.12)">
     <defs>
      <path id="DejaVuSans-55" d="M 556 4666 
L 1191 4666 
L 1191 1831 
Q 1191 1081 1462 751 
Q 1734 422 2344 422 
Q 2950 422 3222 751 
Q 3494 1081 3494 1831 
L 3494 4666 
L 4128 4666 
L 4128 1753 
Q 4128 841 3676 375 
Q 3225 -91 2344 -91 
Q 1459 -91 1007 375 
Q 556 841 556 1753 
L 556 4666 
z
" transform="scale(0.015625)"/>
      <path id="DejaVuSans-73" d="M 2834 3397 
L 2834 2853 
Q 2591 2978 2328 3040 
Q 2066 3103 1784 3103 
Q 1356 3103 1142 2972 
Q 928 2841 928 2578 
Q 928 2378 1081 2264 
Q 1234 2150 1697 2047 
L 1894 2003 
Q 2506 1872 2764 1633 
Q 3022 1394 3022 966 
Q 3022 478 2636 193 
Q 2250 -91 1575 -91 
Q 1294 -91 989 -36 
Q 684 19 347 128 
L 347 722 
Q 666 556 975 473 
Q 1284 391 1588 391 
Q 1994 391 2212 530 
Q 2431 669 2431 922 
Q 2431 1156 2273 1281 
Q 2116 1406 1581 1522 
L 1381 1569 
Q 847 1681 609 1914 
Q 372 2147 372 2553 
Q 372 3047 722 3315 
Q 1072 3584 1716 3584 
Q 2034 3584 2315 3537 
Q 2597 3491 2834 3397 
z
" transform="scale(0.015625)"/>
      <path id="DejaVuSans-72" d="M 2631 2963 
Q 2534 3019 2420 3045 
Q 2306 3072 2169 3072 
Q 1681 3072 1420 2755 
Q 1159 2438 1159 1844 
L 1159 0 
L 581 0 
L 581 3500 
L 1159 3500 
L 1159 2956 
Q 1341 3275 1631 3429 
Q 1922 3584 2338 3584 
Q 2397 3584 2469 3576 
Q 2541 3569 2628 3553 
L 2631 2963 
z
" transform="scale(0.015625)"/>
      <path id="DejaVuSans-20" transform="scale(0.015625)"/>
      <path id="DejaVuSans-2c" d="M 750 794 
L 1409 794 
L 1409 256 
L 897 -744 
L 494 -744 
L 750 256 
L 750 794 
z
" transform="scale(0.015625)"/>
      <path id="DejaVuSans-41" d="M 2188 4044 
L 1331 1722 
L 3047 1722 
L 2188 4044 
z
M 1831 4666 
L 2547 4666 
L 4325 0 
L 3669 0 
L 3244 1197 
L 1141 1197 
L 716 0 
L 50 0 
L 1831 4666 
z
" transform="scale(0.015625)"/>
      <path id="DejaVuSans-6f" d="M 1959 3097 
Q 1497 3097 1228 2736 
Q 959 2375 959 1747 
Q 959 1119 1226 758 
Q 1494 397 1959 397 
Q 2419 397 2687 759 
Q 2956 1122 2956 1747 
Q 2956 2369 2687 2733 
Q 2419 3097 1959 3097 
z
M 1959 3584 
Q 2709 3584 3137 3096 
Q 3566 2609 3566 1747 
Q 3566 888 3137 398 
Q 2709 -91 1959 -91 
Q 1206 -91 779 398 
Q 353 888 353 1747 
Q 353 2609 779 3096 
Q 1206 3584 1959 3584 
z
" transform="scale(0.015625)"/>
      <path id="DejaVuSans-6e" d="M 3513 2113 
L 3513 0 
L 2938 0 
L 2938 2094 
Q 2938 2591 2744 2837 
Q 2550 3084 2163 3084 
Q 1697 3084 1428 2787 
Q 1159 2491 1159 1978 
L 1159 0 
L 581 0 
L 581 3500 
L 1159 3500 
L 1159 2956 
Q 1366 3272 1645 3428 
Q 1925 3584 2291 3584 
Q 2894 3584 3203 3211 
Q 3513 2838 3513 2113 
z
" transform="scale(0.015625)"/>
     </defs>
     <use xlink:href="#DejaVuSans-55"/>
     <use xlink:href="#DejaVuSans-73" x="73.193359"/>
     <use xlink:href="#DejaVuSans-65" x="125.292969"/>
     <use xlink:href="#DejaVuSans-72" x="186.816406"/>
     <use xlink:href="#DejaVuSans-20" x="227.929688"/>
     <use xlink:href="#DejaVuSans-32" x="259.716797"/>
     <use xlink:href="#DejaVuSans-30" x="323.339844"/>
     <use xlink:href="#DejaVuSans-2c" x="386.962891"/>
     <use xlink:href="#DejaVuSans-20" x="418.75"/>
     <use xlink:href="#DejaVuSans-41" x="450.537109"/>
     <use xlink:href="#DejaVuSans-63" x="517.195312"/>
     <use xlink:href="#DejaVuSans-74" x="572.175781"/>
     <use xlink:href="#DejaVuSans-69" x="611.384766"/>
     <use xlink:href="#DejaVuSans-6f" x="639.167969"/>
     <use xlink:href="#DejaVuSans-6e" x="700.349609"/>
     <use xlink:href="#DejaVuSans-20" x="763.728516"/>
     <use xlink:href="#DejaVuSans-30" x="795.515625"/>
    </g>
   </g>
   <g id="legend_1">
    <g id="patch_7">
     <path d="M 1219.548438 78.914375 
L 1278.2 78.914375 
Q 1280.2 78.914375 1280.2 76.914375 
L 1280.2 33.88 
Q 1280.2 31.88 1278.2 31.88 
L 1219.548438 31.88 
Q 1217.548438 31.88 1217.548438 33.88 
L 1217.548438 76.914375 
Q 1217.548438 78.914375 1219.548438 78.914375 
z
" style="fill: #ffffff; opacity: 0.8; stroke: #cccccc; stroke-linejoin: miter"/>
    </g>
    <g id="line2d_16">
     <path d="M 1221.548438 39.978437 
L 1231.548438 39.978437 
L 1241.548438 39.978437 
" style="fill: none; stroke: #1f77b4; stroke-width: 1.5; stroke-linecap: square"/>
    </g>
    <g id="text_17">
     <!-- acc-x -->
     <g transform="translate(1249.548438 43.478437) scale(0.1 -0.1)">
      <defs>
       <path id="DejaVuSans-2d" d="M 313 2009 
L 1997 2009 
L 1997 1497 
L 313 1497 
L 313 2009 
z
" transform="scale(0.015625)"/>
       <path id="DejaVuSans-78" d="M 3513 3500 
L 2247 1797 
L 3578 0 
L 2900 0 
L 1881 1375 
L 863 0 
L 184 0 
L 1544 1831 
L 300 3500 
L 978 3500 
L 1906 2253 
L 2834 3500 
L 3513 3500 
z
" transform="scale(0.015625)"/>
      </defs>
      <use xlink:href="#DejaVuSans-61"/>
      <use xlink:href="#DejaVuSans-63" x="61.279297"/>
      <use xlink:href="#DejaVuSans-63" x="116.259766"/>
      <use xlink:href="#DejaVuSans-2d" x="171.240234"/>
      <use xlink:href="#DejaVuSans-78" x="207.324219"/>
     </g>
    </g>
    <g id="line2d_17">
     <path d="M 1221.548438 54.656563 
L 1231.548438 54.656563 
L 1241.548438 54.656563 
" style="fill: none; stroke: #ff7f0e; stroke-width: 1.5; stroke-linecap: square"/>
    </g>
    <g id="text_18">
     <!-- acc-y -->
     <g transform="translate(1249.548438 58.156563) scale(0.1 -0.1)">
      <defs>
       <path id="DejaVuSans-79" d="M 2059 -325 
Q 1816 -950 1584 -1140 
Q 1353 -1331 966 -1331 
L 506 -1331 
L 506 -850 
L 844 -850 
Q 1081 -850 1212 -737 
Q 1344 -625 1503 -206 
L 1606 56 
L 191 3500 
L 800 3500 
L 1894 763 
L 2988 3500 
L 3597 3500 
L 2059 -325 
z
" transform="scale(0.015625)"/>
      </defs>
      <use xlink:href="#DejaVuSans-61"/>
      <use xlink:href="#DejaVuSans-63" x="61.279297"/>
      <use xlink:href="#DejaVuSans-63" x="116.259766"/>
      <use xlink:href="#DejaVuSans-2d" x="171.240234"/>
      <use xlink:href="#DejaVuSans-79" x="205.574219"/>
     </g>
    </g>
    <g id="line2d_18">
     <path d="M 1221.548438 69.334687 
L 1231.548438 69.334687 
L 1241.548438 69.334687 
" style="fill: none; stroke: #2ca02c; stroke-width: 1.5; stroke-linecap: square"/>
    </g>
    <g id="text_19">
     <!-- acc-z -->
     <g transform="translate(1249.548438 72.834687) scale(0.1 -0.1)">
      <defs>
       <path id="DejaVuSans-7a" d="M 353 3500 
L 3084 3500 
L 3084 2975 
L 922 459 
L 3084 459 
L 3084 0 
L 275 0 
L 275 525 
L 2438 3041 
L 353 3041 
L 353 3500 
z
" transform="scale(0.015625)"/>
      </defs>
      <use xlink:href="#DejaVuSans-61"/>
      <use xlink:href="#DejaVuSans-63" x="61.279297"/>
      <use xlink:href="#DejaVuSans-63" x="116.259766"/>
      <use xlink:href="#DejaVuSans-2d" x="171.240234"/>
      <use xlink:href="#DejaVuSans-7a" x="207.324219"/>
     </g>
    </g>
   </g>
  </g>
 </g>
 <defs>
  <clipPath id="p25873d843f">
   <rect x="46.55" y="26.88" width="1238.65" height="363.16"/>
  </clipPath>
 </defs>
</svg>
