<?xml version="1.0" encoding="utf-8" standalone="no"?>
<!DOCTYPE svg PUBLIC "-//W3C//DTD SVG 1.1//EN"
  "http://www.w3.org/Graphics/SVG/1.1/DTD/svg11.dtd">
<svg xmlns:xlink="http://www.w3.org/1999/xlink" width="1296pt" height="432pt" viewBox="0 0 1296 432" xmlns="http://www.w3.org/2000/svg" version="1.1">
 <metadata>
  <rdf:RDF xmlns:dc="http://purl.org/dc/elements/1.1/" xmlns:cc="http://creativecommons.org/ns#" xmlns:rdf="http://www.w3.org/1999/02/22-rdf-syntax-ns#">
   <cc:Work>
    <dc:type rdf:resource="http://purl.org/dc/dcmitype/StillImage"/>
    <dc:date>2025-03-28T12:11:10.166737</dc:date>
    <dc:format>image/svg+xml</dc:format>
    <dc:creator>
     <cc:Agent>
      <dc:title>Matplotlib v3.7.5, https://matplotlib.org/</dc:title>
     </cc:Agent>
    </dc:creator>
   </cc:Work>
  </rdf:RDF>
 </metadata>
 <defs>
  <style type="text/css">*{stroke-linejoin: round; stroke-linecap: butt}</style>
 </defs>
 <g id="figure_1">
  <g id="patch_1">
   <path d="M 0 432 
L 1296 432 
L 1296 0 
L 0 0 
z
" style="fill: #ffffff"/>
  </g>
  <g id="axes_1">
   <g id="patch_2">
    <path d="M 52.94 390.04 
L 1284.139354 390.04 
L 1284.139354 26.88 
L 52.94 26.88 
z
" style="fill: #ffffff"/>
   </g>
   <g id="matplotlib.axis_1">
    <g id="xtick_1">
     <g id="line2d_1">
      <defs>
       <path id="mb58a76ebaa" d="M 0 0 
L 0 3.5 
" style="stroke: #000000; stroke-width: 0.8"/>
      </defs>
      <g>
       <use xlink:href="#mb58a76ebaa" x="220.268336" y="390.04" style="stroke: #000000; stroke-width: 0.8"/>
      </g>
     </g>
     <g id="text_1">
      <!-- 2.800 -->
      <g transform="translate(205.954274 404.638438) scale(0.1 -0.1)">
       <defs>
        <path id="DejaVuSans-32" d="M 1228 531 
L 3431 531 
L 3431 0 
L 469 0 
L 469 531 
Q 828 903 1448 1529 
Q 2069 2156 2228 2338 
Q 2531 2678 2651 2914 
Q 2772 3150 2772 3378 
Q 2772 3750 2511 3984 
Q 2250 4219 1831 4219 
Q 1534 4219 1204 4116 
Q 875 4013 500 3803 
L 500 4441 
Q 881 4594 1212 4672 
Q 1544 4750 1819 4750 
Q 2544 4750 2975 4387 
Q 3406 4025 3406 3419 
Q 3406 3131 3298 2873 
Q 3191 2616 2906 2266 
Q 2828 2175 2409 1742 
Q 1991 1309 1228 531 
z
" transform="scale(0.015625)"/>
        <path id="DejaVuSans-2e" d="M 684 794 
L 1344 794 
L 1344 0 
L 684 0 
L 684 794 
z
" transform="scale(0.015625)"/>
        <path id="DejaVuSans-38" d="M 2034 2216 
Q 1584 2216 1326 1975 
Q 1069 1734 1069 1313 
Q 1069 891 1326 650 
Q 1584 409 2034 409 
Q 2484 409 2743 651 
Q 3003 894 3003 1313 
Q 3003 1734 2745 1975 
Q 2488 2216 2034 2216 
z
M 1403 2484 
Q 997 2584 770 2862 
Q 544 3141 544 3541 
Q 544 4100 942 4425 
Q 1341 4750 2034 4750 
Q 2731 4750 3128 4425 
Q 3525 4100 3525 3541 
Q 3525 3141 3298 2862 
Q 3072 2584 2669 2484 
Q 3125 2378 3379 2068 
Q 3634 1759 3634 1313 
Q 3634 634 3220 271 
Q 2806 -91 2034 -91 
Q 1263 -91 848 271 
Q 434 634 434 1313 
Q 434 1759 690 2068 
Q 947 2378 1403 2484 
z
M 1172 3481 
Q 1172 3119 1398 2916 
Q 1625 2713 2034 2713 
Q 2441 2713 2670 2916 
Q 2900 3119 2900 3481 
Q 2900 3844 2670 4047 
Q 2441 4250 2034 4250 
Q 1625 4250 1398 4047 
Q 1172 3844 1172 3481 
z
" transform="scale(0.015625)"/>
        <path id="DejaVuSans-30" d="M 2034 4250 
Q 1547 4250 1301 3770 
Q 1056 3291 1056 2328 
Q 1056 1369 1301 889 
Q 1547 409 2034 409 
Q 2525 409 2770 889 
Q 3016 1369 3016 2328 
Q 3016 3291 2770 3770 
Q 2525 4250 2034 4250 
z
M 2034 4750 
Q 2819 4750 3233 4129 
Q 3647 3509 3647 2328 
Q 3647 1150 3233 529 
Q 2819 -91 2034 -91 
Q 1250 -91 836 529 
Q 422 1150 422 2328 
Q 422 3509 836 4129 
Q 1250 4750 2034 4750 
z
" transform="scale(0.015625)"/>
       </defs>
       <use xlink:href="#DejaVuSans-32"/>
       <use xlink:href="#DejaVuSans-2e" x="63.623047"/>
       <use xlink:href="#DejaVuSans-38" x="95.410156"/>
       <use xlink:href="#DejaVuSans-30" x="159.033203"/>
       <use xlink:href="#DejaVuSans-30" x="222.65625"/>
      </g>
     </g>
    </g>
    <g id="xtick_2">
     <g id="line2d_2">
      <g>
       <use xlink:href="#mb58a76ebaa" x="394.88251" y="390.04" style="stroke: #000000; stroke-width: 0.8"/>
      </g>
     </g>
     <g id="text_2">
      <!-- 2.801 -->
      <g transform="translate(380.568448 404.638438) scale(0.1 -0.1)">
       <defs>
        <path id="DejaVuSans-31" d="M 794 531 
L 1825 531 
L 1825 4091 
L 703 3866 
L 703 4441 
L 1819 4666 
L 2450 4666 
L 2450 531 
L 3481 531 
L 3481 0 
L 794 0 
L 794 531 
z
" transform="scale(0.015625)"/>
       </defs>
       <use xlink:href="#DejaVuSans-32"/>
       <use xlink:href="#DejaVuSans-2e" x="63.623047"/>
       <use xlink:href="#DejaVuSans-38" x="95.410156"/>
       <use xlink:href="#DejaVuSans-30" x="159.033203"/>
       <use xlink:href="#DejaVuSans-31" x="222.65625"/>
      </g>
     </g>
    </g>
    <g id="xtick_3">
     <g id="line2d_3">
      <g>
       <use xlink:href="#mb58a76ebaa" x="569.496684" y="390.04" style="stroke: #000000; stroke-width: 0.8"/>
      </g>
     </g>
     <g id="text_3">
      <!-- 2.802 -->
      <g transform="translate(555.182622 404.638438) scale(0.1 -0.1)">
       <use xlink:href="#DejaVuSans-32"/>
       <use xlink:href="#DejaVuSans-2e" x="63.623047"/>
       <use xlink:href="#DejaVuSans-38" x="95.410156"/>
       <use xlink:href="#DejaVuSans-30" x="159.033203"/>
       <use xlink:href="#DejaVuSans-32" x="222.65625"/>
      </g>
     </g>
    </g>
    <g id="xtick_4">
     <g id="line2d_4">
      <g>
       <use xlink:href="#mb58a76ebaa" x="744.110858" y="390.04" style="stroke: #000000; stroke-width: 0.8"/>
      </g>
     </g>
     <g id="text_4">
      <!-- 2.803 -->
      <g transform="translate(729.796796 404.638438) scale(0.1 -0.1)">
       <defs>
        <path id="DejaVuSans-33" d="M 2597 2516 
Q 3050 2419 3304 2112 
Q 3559 1806 3559 1356 
Q 3559 666 3084 287 
Q 2609 -91 1734 -91 
Q 1441 -91 1130 -33 
Q 819 25 488 141 
L 488 750 
Q 750 597 1062 519 
Q 1375 441 1716 441 
Q 2309 441 2620 675 
Q 2931 909 2931 1356 
Q 2931 1769 2642 2001 
Q 2353 2234 1838 2234 
L 1294 2234 
L 1294 2753 
L 1863 2753 
Q 2328 2753 2575 2939 
Q 2822 3125 2822 3475 
Q 2822 3834 2567 4026 
Q 2313 4219 1838 4219 
Q 1578 4219 1281 4162 
Q 984 4106 628 3988 
L 628 4550 
Q 988 4650 1302 4700 
Q 1616 4750 1894 4750 
Q 2613 4750 3031 4423 
Q 3450 4097 3450 3541 
Q 3450 3153 3228 2886 
Q 3006 2619 2597 2516 
z
" transform="scale(0.015625)"/>
       </defs>
       <use xlink:href="#DejaVuSans-32"/>
       <use xlink:href="#DejaVuSans-2e" x="63.623047"/>
       <use xlink:href="#DejaVuSans-38" x="95.410156"/>
       <use xlink:href="#DejaVuSans-30" x="159.033203"/>
       <use xlink:href="#DejaVuSans-33" x="222.65625"/>
      </g>
     </g>
    </g>
    <g id="xtick_5">
     <g id="line2d_5">
      <g>
       <use xlink:href="#mb58a76ebaa" x="918.725032" y="390.04" style="stroke: #000000; stroke-width: 0.8"/>
      </g>
     </g>
     <g id="text_5">
      <!-- 2.804 -->
      <g transform="translate(904.41097 404.638438) scale(0.1 -0.1)">
       <defs>
        <path id="DejaVuSans-34" d="M 2419 4116 
L 825 1625 
L 2419 1625 
L 2419 4116 
z
M 2253 4666 
L 3047 4666 
L 3047 1625 
L 3713 1625 
L 3713 1100 
L 3047 1100 
L 3047 0 
L 2419 0 
L 2419 1100 
L 313 1100 
L 313 1709 
L 2253 4666 
z
" transform="scale(0.015625)"/>
       </defs>
       <use xlink:href="#DejaVuSans-32"/>
       <use xlink:href="#DejaVuSans-2e" x="63.623047"/>
       <use xlink:href="#DejaVuSans-38" x="95.410156"/>
       <use xlink:href="#DejaVuSans-30" x="159.033203"/>
       <use xlink:href="#DejaVuSans-34" x="222.65625"/>
      </g>
     </g>
    </g>
    <g id="xtick_6">
     <g id="line2d_6">
      <g>
       <use xlink:href="#mb58a76ebaa" x="1093.339206" y="390.04" style="stroke: #000000; stroke-width: 0.8"/>
      </g>
     </g>
     <g id="text_6">
      <!-- 2.805 -->
      <g transform="translate(1079.025144 404.638438) scale(0.1 -0.1)">
       <defs>
        <path id="DejaVuSans-35" d="M 691 4666 
L 3169 4666 
L 3169 4134 
L 1269 4134 
L 1269 2991 
Q 1406 3038 1543 3061 
Q 1681 3084 1819 3084 
Q 2600 3084 3056 2656 
Q 3513 2228 3513 1497 
Q 3513 744 3044 326 
Q 2575 -91 1722 -91 
Q 1428 -91 1123 -41 
Q 819 9 494 109 
L 494 744 
Q 775 591 1075 516 
Q 1375 441 1709 441 
Q 2250 441 2565 725 
Q 2881 1009 2881 1497 
Q 2881 1984 2565 2268 
Q 2250 2553 1709 2553 
Q 1456 2553 1204 2497 
Q 953 2441 691 2322 
L 691 4666 
z
" transform="scale(0.015625)"/>
       </defs>
       <use xlink:href="#DejaVuSans-32"/>
       <use xlink:href="#DejaVuSans-2e" x="63.623047"/>
       <use xlink:href="#DejaVuSans-38" x="95.410156"/>
       <use xlink:href="#DejaVuSans-30" x="159.033203"/>
       <use xlink:href="#DejaVuSans-35" x="222.65625"/>
      </g>
     </g>
    </g>
    <g id="xtick_7">
     <g id="line2d_7">
      <g>
       <use xlink:href="#mb58a76ebaa" x="1267.95338" y="390.04" style="stroke: #000000; stroke-width: 0.8"/>
      </g>
     </g>
     <g id="text_7">
      <!-- 2.806 -->
      <g transform="translate(1253.639318 404.638438) scale(0.1 -0.1)">
       <defs>
        <path id="DejaVuSans-36" d="M 2113 2584 
Q 1688 2584 1439 2293 
Q 1191 2003 1191 1497 
Q 1191 994 1439 701 
Q 1688 409 2113 409 
Q 2538 409 2786 701 
Q 3034 994 3034 1497 
Q 3034 2003 2786 2293 
Q 2538 2584 2113 2584 
z
M 3366 4563 
L 3366 3988 
Q 3128 4100 2886 4159 
Q 2644 4219 2406 4219 
Q 1781 4219 1451 3797 
Q 1122 3375 1075 2522 
Q 1259 2794 1537 2939 
Q 1816 3084 2150 3084 
Q 2853 3084 3261 2657 
Q 3669 2231 3669 1497 
Q 3669 778 3244 343 
Q 2819 -91 2113 -91 
Q 1303 -91 875 529 
Q 447 1150 447 2328 
Q 447 3434 972 4092 
Q 1497 4750 2381 4750 
Q 2619 4750 2861 4703 
Q 3103 4656 3366 4563 
z
" transform="scale(0.015625)"/>
       </defs>
       <use xlink:href="#DejaVuSans-32"/>
       <use xlink:href="#DejaVuSans-2e" x="63.623047"/>
       <use xlink:href="#DejaVuSans-38" x="95.410156"/>
       <use xlink:href="#DejaVuSans-30" x="159.033203"/>
       <use xlink:href="#DejaVuSans-36" x="222.65625"/>
      </g>
     </g>
    </g>
    <g id="text_8">
     <!-- time -->
     <g transform="translate(657.243583 418.316562) scale(0.1 -0.1)">
      <defs>
       <path id="DejaVuSans-74" d="M 1172 4494 
L 1172 3500 
L 2356 3500 
L 2356 3053 
L 1172 3053 
L 1172 1153 
Q 1172 725 1289 603 
Q 1406 481 1766 481 
L 2356 481 
L 2356 0 
L 1766 0 
Q 1100 0 847 248 
Q 594 497 594 1153 
L 594 3053 
L 172 3053 
L 172 3500 
L 594 3500 
L 594 4494 
L 1172 4494 
z
" transform="scale(0.015625)"/>
       <path id="DejaVuSans-69" d="M 603 3500 
L 1178 3500 
L 1178 0 
L 603 0 
L 603 3500 
z
M 603 4863 
L 1178 4863 
L 1178 4134 
L 603 4134 
L 603 4863 
z
" transform="scale(0.015625)"/>
       <path id="DejaVuSans-6d" d="M 3328 2828 
Q 3544 3216 3844 3400 
Q 4144 3584 4550 3584 
Q 5097 3584 5394 3201 
Q 5691 2819 5691 2113 
L 5691 0 
L 5113 0 
L 5113 2094 
Q 5113 2597 4934 2840 
Q 4756 3084 4391 3084 
Q 3944 3084 3684 2787 
Q 3425 2491 3425 1978 
L 3425 0 
L 2847 0 
L 2847 2094 
Q 2847 2600 2669 2842 
Q 2491 3084 2119 3084 
Q 1678 3084 1418 2786 
Q 1159 2488 1159 1978 
L 1159 0 
L 581 0 
L 581 3500 
L 1159 3500 
L 1159 2956 
Q 1356 3278 1631 3431 
Q 1906 3584 2284 3584 
Q 2666 3584 2933 3390 
Q 3200 3197 3328 2828 
z
" transform="scale(0.015625)"/>
       <path id="DejaVuSans-65" d="M 3597 1894 
L 3597 1613 
L 953 1613 
Q 991 1019 1311 708 
Q 1631 397 2203 397 
Q 2534 397 2845 478 
Q 3156 559 3463 722 
L 3463 178 
Q 3153 47 2828 -22 
Q 2503 -91 2169 -91 
Q 1331 -91 842 396 
Q 353 884 353 1716 
Q 353 2575 817 3079 
Q 1281 3584 2069 3584 
Q 2775 3584 3186 3129 
Q 3597 2675 3597 1894 
z
M 3022 2063 
Q 3016 2534 2758 2815 
Q 2500 3097 2075 3097 
Q 1594 3097 1305 2825 
Q 1016 2553 972 2059 
L 3022 2063 
z
" transform="scale(0.015625)"/>
      </defs>
      <use xlink:href="#DejaVuSans-74"/>
      <use xlink:href="#DejaVuSans-69" x="39.208984"/>
      <use xlink:href="#DejaVuSans-6d" x="66.992188"/>
      <use xlink:href="#DejaVuSans-65" x="164.404297"/>
     </g>
    </g>
    <g id="text_9">
     <!-- 1e12 -->
     <g transform="translate(1258.898729 417.316562) scale(0.1 -0.1)">
      <use xlink:href="#DejaVuSans-31"/>
      <use xlink:href="#DejaVuSans-65" x="63.623047"/>
      <use xlink:href="#DejaVuSans-31" x="125.146484"/>
      <use xlink:href="#DejaVuSans-32" x="188.769531"/>
     </g>
    </g>
   </g>
   <g id="matplotlib.axis_2">
    <g id="ytick_1">
     <g id="line2d_8">
      <defs>
       <path id="m9da350a539" d="M 0 0 
L -3.5 0 
" style="stroke: #000000; stroke-width: 0.8"/>
      </defs>
      <g>
       <use xlink:href="#m9da350a539" x="52.94" y="370.292873" style="stroke: #000000; stroke-width: 0.8"/>
      </g>
     </g>
     <g id="text_10">
      <!-- −10 -->
      <g transform="translate(24.835312 374.092092) scale(0.1 -0.1)">
       <defs>
        <path id="DejaVuSans-2212" d="M 678 2272 
L 4684 2272 
L 4684 1741 
L 678 1741 
L 678 2272 
z
" transform="scale(0.015625)"/>
       </defs>
       <use xlink:href="#DejaVuSans-2212"/>
       <use xlink:href="#DejaVuSans-31" x="83.789062"/>
       <use xlink:href="#DejaVuSans-30" x="147.412109"/>
      </g>
     </g>
    </g>
    <g id="ytick_2">
     <g id="line2d_9">
      <g>
       <use xlink:href="#m9da350a539" x="52.94" y="310.295575" style="stroke: #000000; stroke-width: 0.8"/>
      </g>
     </g>
     <g id="text_11">
      <!-- −5 -->
      <g transform="translate(31.197812 314.094793) scale(0.1 -0.1)">
       <use xlink:href="#DejaVuSans-2212"/>
       <use xlink:href="#DejaVuSans-35" x="83.789062"/>
      </g>
     </g>
    </g>
    <g id="ytick_3">
     <g id="line2d_10">
      <g>
       <use xlink:href="#m9da350a539" x="52.94" y="250.298276" style="stroke: #000000; stroke-width: 0.8"/>
      </g>
     </g>
     <g id="text_12">
      <!-- 0 -->
      <g transform="translate(39.5775 254.097495) scale(0.1 -0.1)">
       <use xlink:href="#DejaVuSans-30"/>
      </g>
     </g>
    </g>
    <g id="ytick_4">
     <g id="line2d_11">
      <g>
       <use xlink:href="#m9da350a539" x="52.94" y="190.300978" style="stroke: #000000; stroke-width: 0.8"/>
      </g>
     </g>
     <g id="text_13">
      <!-- 5 -->
      <g transform="translate(39.5775 194.100196) scale(0.1 -0.1)">
       <use xlink:href="#DejaVuSans-35"/>
      </g>
     </g>
    </g>
    <g id="ytick_5">
     <g id="line2d_12">
      <g>
       <use xlink:href="#m9da350a539" x="52.94" y="130.303679" style="stroke: #000000; stroke-width: 0.8"/>
      </g>
     </g>
     <g id="text_14">
      <!-- 10 -->
      <g transform="translate(33.215 134.102898) scale(0.1 -0.1)">
       <use xlink:href="#DejaVuSans-31"/>
       <use xlink:href="#DejaVuSans-30" x="63.623047"/>
      </g>
     </g>
    </g>
    <g id="ytick_6">
     <g id="line2d_13">
      <g>
       <use xlink:href="#m9da350a539" x="52.94" y="70.306381" style="stroke: #000000; stroke-width: 0.8"/>
      </g>
     </g>
     <g id="text_15">
      <!-- 15 -->
      <g transform="translate(33.215 74.105599) scale(0.1 -0.1)">
       <use xlink:href="#DejaVuSans-31"/>
       <use xlink:href="#DejaVuSans-35" x="63.623047"/>
      </g>
     </g>
    </g>
    <g id="text_16">
     <!-- acc -->
     <g transform="translate(18.755625 217.0225) rotate(-90) scale(0.1 -0.1)">
      <defs>
       <path id="DejaVuSans-61" d="M 2194 1759 
Q 1497 1759 1228 1600 
Q 959 1441 959 1056 
Q 959 750 1161 570 
Q 1363 391 1709 391 
Q 2188 391 2477 730 
Q 2766 1069 2766 1631 
L 2766 1759 
L 2194 1759 
z
M 3341 1997 
L 3341 0 
L 2766 0 
L 2766 531 
Q 2569 213 2275 61 
Q 1981 -91 1556 -91 
Q 1019 -91 701 211 
Q 384 513 384 1019 
Q 384 1609 779 1909 
Q 1175 2209 1959 2209 
L 2766 2209 
L 2766 2266 
Q 2766 2663 2505 2880 
Q 2244 3097 1772 3097 
Q 1472 3097 1187 3025 
Q 903 2953 641 2809 
L 641 3341 
Q 956 3463 1253 3523 
Q 1550 3584 1831 3584 
Q 2591 3584 2966 3190 
Q 3341 2797 3341 1997 
z
" transform="scale(0.015625)"/>
       <path id="DejaVuSans-63" d="M 3122 3366 
L 3122 2828 
Q 2878 2963 2633 3030 
Q 2388 3097 2138 3097 
Q 1578 3097 1268 2742 
Q 959 2388 959 1747 
Q 959 1106 1268 751 
Q 1578 397 2138 397 
Q 2388 397 2633 464 
Q 2878 531 3122 666 
L 3122 134 
Q 2881 22 2623 -34 
Q 2366 -91 2075 -91 
Q 1284 -91 818 406 
Q 353 903 353 1747 
Q 353 2603 823 3093 
Q 1294 3584 2113 3584 
Q 2378 3584 2631 3529 
Q 2884 3475 3122 3366 
z
" transform="scale(0.015625)"/>
      </defs>
      <use xlink:href="#DejaVuSans-61"/>
      <use xlink:href="#DejaVuSans-63" x="61.279297"/>
      <use xlink:href="#DejaVuSans-63" x="116.259766"/>
     </g>
    </g>
   </g>
   <g id="line2d_14">
    <path d="M 108.903607 247.5384 
L 121.133235 245.738481 
L 129.867086 247.058422 
L 138.600938 236.138914 
L 147.329551 240.21873 
L 156.063403 188.141075 
L 164.786778 238.418811 
L 173.52063 258.937887 
L 182.249243 234.338995 
L 190.988508 244.298546 
L 199.711708 231.459124 
L 208.440322 248.018379 
L 217.174173 238.898789 
L 225.908025 226.419351 
L 234.636638 258.937887 
L 243.365252 292.656369 
L 252.099103 279.696952 
L 260.827717 253.058152 
L 269.561568 210.220081 
L 278.290182 219.099681 
L 287.024034 254.378092 
L 295.747408 254.858071 
L 304.486499 276.457098 
L 313.209874 373.532727 
L 321.943725 305.375796 
L 330.672339 219.939643 
L 339.400952 257.617947 
L 348.134804 275.617136 
L 356.863417 251.258233 
L 365.597269 230.499168 
L 374.325882 225.459395 
L 383.054495 219.579659 
L 391.788347 197.020675 
L 400.522199 258.577903 
L 409.250812 313.175445 
L 417.984664 288.336563 
L 426.713277 257.137968 
L 435.441891 276.457098 
L 444.175742 269.137428 
L 452.904356 247.5384 
L 461.632969 237.33886 
L 470.361582 244.298546 
L 479.100673 245.738481 
L 487.824047 263.737671 
L 496.557899 261.217784 
L 505.286513 245.738481 
L 514.015126 249.338319 
L 522.748978 261.217784 
L 531.477591 236.858881 
L 540.211443 244.298546 
L 548.945294 253.898114 
L 557.668669 283.29679 
L 566.402521 262.177741 
L 575.131134 259.417866 
L 583.864986 255.338049 
L 592.5936 242.978606 
L 601.327451 250.778255 
L 610.056065 244.298546 
L 618.789916 241.658665 
L 627.51853 246.578444 
L 636.247143 253.058152 
L 644.975756 185.861178 
L 653.714847 230.019189 
L 662.438221 234.578984 
L 671.172073 248.018379 
L 679.905925 233.739022 
L 688.634538 237.818838 
L 697.363152 262.777714 
L 706.091765 282.456828 
L 714.825617 245.258503 
L 723.548817 237.818838 
L 732.282843 258.937887 
L 741.011282 275.97712 
L 749.745308 257.137968 
L 758.47916 242.978606 
L 767.207773 259.897844 
L 775.936387 262.177741 
L 784.664826 248.018379 
L 793.398852 276.937077 
L 802.132704 296.256207 
L 810.861317 253.53813 
L 819.595169 260.977795 
L 828.32902 259.417866 
L 837.052395 257.137968 
L 845.786247 249.818298 
L 854.51486 232.299087 
L 863.243474 243.938563 
L 871.977326 217.659746 
L 880.711177 265.057612 
L 889.439791 258.577903 
L 898.168404 242.018649 
L 906.897017 233.259043 
L 915.630869 248.018379 
L 924.359482 248.498357 
L 933.093334 256.65799 
L 941.821947 279.696952 
L 950.550561 253.898114 
L 959.284413 245.738481 
L 968.013026 282.456828 
L 976.757529 221.379578 
L 987.23403 289.896493 
L 995.946579 278.377012 
L 1004.685844 232.299087 
L 1013.409044 242.018649 
L 1022.148309 257.137968 
L 1030.956721 280.176931 
L 1039.605361 249.338319 
L 1048.339387 248.498357 
L 1057.062588 248.498357 
L 1065.801852 245.738481 
L 1074.530466 222.21954 
L 1083.264318 238.418811 
L 1091.982279 271.057341 
L 1100.726783 235.538941 
L 1109.444744 235.538941 
L 1118.189248 263.737671 
L 1130.413462 257.137968 
L 1139.179443 237.33886 
L 1147.88134 248.498357 
L 1156.593889 270.577363 
L 1165.338567 265.53759 
L 1175.804242 236.138914 
L 1184.522204 240.21873 
L 1193.266707 270.097385 
L 1201.984669 237.818838 
L 1210.723934 255.818028 
L 1219.457786 279.696952 
L 1228.175747 272.377282 
L 1228.175747 272.377282 
" clip-path="url(#p9a8e11b5f4)" style="fill: none; stroke: #1f77b4; stroke-width: 1.5; stroke-linecap: square"/>
   </g>
   <g id="line2d_15">
    <path d="M 108.903607 173.981712 
L 121.133235 184.061259 
L 129.867086 242.978606 
L 138.600938 231.819108 
L 147.329551 246.21846 
L 156.063403 90.825457 
L 164.786778 177.701545 
L 173.52063 132.103598 
L 182.249243 148.302869 
L 190.988508 139.543263 
L 199.711708 156.94248 
L 208.440322 143.623079 
L 217.174173 115.664338 
L 225.908025 135.343452 
L 234.636638 146.382955 
L 243.365252 135.943425 
L 252.099103 144.103058 
L 260.827717 135.943425 
L 269.561568 116.144317 
L 278.290182 129.343722 
L 287.024034 99.105084 
L 295.747408 109.304625 
L 304.486499 110.504571 
L 313.209874 87.945586 
L 321.943725 94.545289 
L 330.672339 146.022971 
L 339.400952 186.941129 
L 348.134804 185.381199 
L 356.863417 176.741588 
L 365.597269 174.461691 
L 374.325882 173.981712 
L 383.054495 134.863474 
L 391.788347 82.065851 
L 400.522199 165.582091 
L 409.250812 131.263636 
L 417.984664 89.745505 
L 426.713277 162.582226 
L 435.441891 115.18436 
L 444.175742 128.863744 
L 452.904356 133.663528 
L 461.632969 126.583847 
L 470.361582 124.783928 
L 479.100673 129.823701 
L 487.824047 130.783658 
L 496.557899 137.743344 
L 505.286513 135.343452 
L 514.015126 131.62362 
L 522.748978 106.424754 
L 531.477591 99.105084 
L 540.211443 77.026078 
L 548.945294 94.545289 
L 557.668669 105.944776 
L 566.402521 102.704922 
L 575.131134 125.743884 
L 583.864986 130.783658 
L 592.5936 123.943966 
L 601.327451 171.221837 
L 610.056065 197.860637 
L 618.789916 201.100491 
L 627.51853 237.33886 
L 636.247143 249.338319 
L 644.975756 131.263636 
L 653.714847 169.421918 
L 662.438221 172.181793 
L 671.172073 109.304625 
L 679.905925 152.862663 
L 688.634538 123.463987 
L 697.363152 147.82289 
L 706.091765 139.543263 
L 714.825617 137.743344 
L 723.548817 135.343452 
L 732.282843 143.263096 
L 741.011282 145.063015 
L 749.745308 119.264176 
L 758.47916 83.385792 
L 767.207773 60.10684 
L 775.936387 96.825187 
L 784.664826 96.825187 
L 793.398852 81.585873 
L 802.132704 134.383495 
L 810.861317 118.424214 
L 819.595169 145.063015 
L 828.32902 190.420972 
L 837.052395 201.58047 
L 845.786247 247.5384 
L 854.51486 248.498357 
L 863.243474 221.379578 
L 871.977326 55.307056 
L 880.711177 225.939373 
L 889.439791 94.905273 
L 898.168404 114.104409 
L 906.897017 140.50322 
L 915.630869 155.142561 
L 924.359482 143.623079 
L 933.093334 152.382685 
L 941.821947 133.063555 
L 950.550561 135.343452 
L 959.284413 125.263906 
L 968.013026 98.145127 
L 976.757529 64.666635 
L 987.23403 70.066391 
L 995.946579 98.625106 
L 1004.685844 93.105354 
L 1013.409044 113.864419 
L 1022.148309 121.544074 
L 1030.956721 181.301383 
L 1039.605361 202.060448 
L 1048.339387 220.8996 
L 1057.062588 241.658665 
L 1065.801852 233.259043 
L 1074.530466 77.386062 
L 1083.264318 191.020945 
L 1091.982279 148.662852 
L 1100.726783 96.345208 
L 1109.444744 132.103598 
L 1118.189248 146.862934 
L 1130.413462 142.303139 
L 1139.179443 140.983198 
L 1147.88134 140.023242 
L 1156.593889 146.022971 
L 1165.338567 124.783928 
L 1175.804242 77.386062 
L 1184.522204 55.307056 
L 1193.266707 68.746451 
L 1201.984669 86.265662 
L 1210.723934 115.664338 
L 1219.457786 130.303679 
L 1228.175747 143.623079 
L 1228.175747 143.623079 
" clip-path="url(#p9a8e11b5f4)" style="fill: none; stroke: #ff7f0e; stroke-width: 1.5; stroke-linecap: square"/>
   </g>
   <g id="line2d_16">
    <path d="M 108.903607 219.572156 
L 121.133235 212.544372 
L 129.867086 222.677453 
L 138.600938 212.544372 
L 147.329551 190.480402 
L 156.063403 43.387273 
L 164.786778 203.882221 
L 173.52063 180.020447 
L 182.249243 213.524992 
L 190.988508 210.256259 
L 199.711708 218.101224 
L 208.440322 231.503042 
L 217.174173 224.965571 
L 225.908025 243.43393 
L 234.636638 236.079273 
L 243.365252 247.02954 
L 252.099103 246.539229 
L 260.827717 227.743996 
L 269.561568 245.722045 
L 278.290182 280.207214 
L 287.024034 212.217499 
L 295.747408 182.308561 
L 304.486499 207.968141 
L 313.209874 230.522421 
L 321.943725 234.608342 
L 330.672339 234.281469 
L 339.400952 233.791157 
L 348.134804 236.896458 
L 356.863417 221.860271 
L 365.597269 208.458452 
L 374.325882 207.477832 
L 383.054495 185.904172 
L 391.788347 120.69288 
L 400.522199 175.444219 
L 409.250812 244.741425 
L 417.984664 229.541802 
L 426.713277 241.145814 
L 435.441891 268.276325 
L 444.175742 262.229164 
L 452.904356 240.165194 
L 461.632969 252.586392 
L 470.361582 256.345438 
L 479.100673 219.572156 
L 487.824047 243.924241 
L 496.557899 260.431359 
L 505.286513 250.788587 
L 514.015126 238.857699 
L 522.748978 259.450738 
L 531.477591 261.738853 
L 540.211443 228.724617 
L 548.945294 209.439072 
L 557.668669 193.749139 
L 566.402521 195.056631 
L 575.131134 269.58382 
L 583.864986 206.660645 
L 592.5936 227.743996 
L 601.327451 220.879651 
L 610.056065 209.765947 
L 618.789916 214.832487 
L 627.51853 215.322798 
L 636.247143 213.034684 
L 644.975756 55.808465 
L 653.714847 210.746567 
L 662.438221 190.480402 
L 671.172073 178.549518 
L 679.905925 234.281469 
L 688.634538 220.389338 
L 697.363152 212.217499 
L 706.091765 216.79373 
L 714.825617 244.251114 
L 723.548817 245.231735 
L 732.282843 237.877077 
L 741.011282 237.877077 
L 749.745308 235.098653 
L 758.47916 240.165194 
L 767.207773 235.098653 
L 775.936387 173.973283 
L 784.664826 180.347318 
L 793.398852 235.588963 
L 802.132704 256.672312 
L 810.861317 214.015303 
L 819.595169 206.170337 
L 828.32902 233.791157 
L 837.052395 231.012733 
L 845.786247 227.743996 
L 854.51486 218.101224 
L 863.243474 106.47388 
L 871.977326 172.992665 
L 880.711177 205.189715 
L 889.439791 180.020447 
L 898.168404 225.946191 
L 906.897017 229.214927 
L 915.630869 214.832487 
L 924.359482 219.89903 
L 933.093334 227.743996 
L 941.821947 231.829916 
L 950.550561 228.234307 
L 959.284413 265.007589 
L 968.013026 252.096081 
L 976.757529 212.544372 
L 987.23403 148.640581 
L 995.946579 180.837631 
L 1004.685844 236.569584 
L 1013.409044 274.650361 
L 1022.148309 224.475259 
L 1030.956721 232.320227 
L 1039.605361 224.475259 
L 1048.339387 231.012733 
L 1057.062588 214.505616 
L 1065.801852 201.103791 
L 1074.530466 115.626348 
L 1083.264318 181.818248 
L 1091.982279 240.655504 
L 1100.726783 214.505616 
L 1109.444744 222.187144 
L 1118.189248 215.813109 
L 1130.413462 230.032111 
L 1139.179443 231.829916 
L 1147.88134 231.503042 
L 1156.593889 230.032111 
L 1165.338567 235.588963 
L 1175.804242 252.096081 
L 1184.522204 210.256259 
L 1193.266707 91.764558 
L 1201.984669 212.544372 
L 1210.723934 313.221451 
L 1219.457786 213.524992 
L 1228.175747 231.012733 
L 1228.175747 231.012733 
" clip-path="url(#p9a8e11b5f4)" style="fill: none; stroke: #2ca02c; stroke-width: 1.5; stroke-linecap: square"/>
   </g>
   <g id="patch_3">
    <path d="M 52.94 390.04 
L 52.94 26.88 
" style="fill: none; stroke: #000000; stroke-width: 0.8; stroke-linejoin: miter; stroke-linecap: square"/>
   </g>
   <g id="patch_4">
    <path d="M 1284.139354 390.04 
L 1284.139354 26.88 
" style="fill: none; stroke: #000000; stroke-width: 0.8; stroke-linejoin: miter; stroke-linecap: square"/>
   </g>
   <g id="patch_5">
    <path d="M 52.94 390.04 
L 1284.139354 390.04 
" style="fill: none; stroke: #000000; stroke-width: 0.8; stroke-linejoin: miter; stroke-linecap: square"/>
   </g>
   <g id="patch_6">
    <path d="M 52.94 26.88 
L 1284.139354 26.88 
" style="fill: none; stroke: #000000; stroke-width: 0.8; stroke-linejoin: miter; stroke-linecap: square"/>
   </g>
   <g id="text_17">
    <!-- User 20, Action 2 -->
    <g transform="translate(616.993115 20.88) scale(0.12 -0.12)">
     <defs>
      <path id="DejaVuSans-55" d="M 556 4666 
L 1191 4666 
L 1191 1831 
Q 1191 1081 1462 751 
Q 1734 422 2344 422 
Q 2950 422 3222 751 
Q 3494 1081 3494 1831 
L 3494 4666 
L 4128 4666 
L 4128 1753 
Q 4128 841 3676 375 
Q 3225 -91 2344 -91 
Q 1459 -91 1007 375 
Q 556 841 556 1753 
L 556 4666 
z
" transform="scale(0.015625)"/>
      <path id="DejaVuSans-73" d="M 2834 3397 
L 2834 2853 
Q 2591 2978 2328 3040 
Q 2066 3103 1784 3103 
Q 1356 3103 1142 2972 
Q 928 2841 928 2578 
Q 928 2378 1081 2264 
Q 1234 2150 1697 2047 
L 1894 2003 
Q 2506 1872 2764 1633 
Q 3022 1394 3022 966 
Q 3022 478 2636 193 
Q 2250 -91 1575 -91 
Q 1294 -91 989 -36 
Q 684 19 347 128 
L 347 722 
Q 666 556 975 473 
Q 1284 391 1588 391 
Q 1994 391 2212 530 
Q 2431 669 2431 922 
Q 2431 1156 2273 1281 
Q 2116 1406 1581 1522 
L 1381 1569 
Q 847 1681 609 1914 
Q 372 2147 372 2553 
Q 372 3047 722 3315 
Q 1072 3584 1716 3584 
Q 2034 3584 2315 3537 
Q 2597 3491 2834 3397 
z
" transform="scale(0.015625)"/>
      <path id="DejaVuSans-72" d="M 2631 2963 
Q 2534 3019 2420 3045 
Q 2306 3072 2169 3072 
Q 1681 3072 1420 2755 
Q 1159 2438 1159 1844 
L 1159 0 
L 581 0 
L 581 3500 
L 1159 3500 
L 1159 2956 
Q 1341 3275 1631 3429 
Q 1922 3584 2338 3584 
Q 2397 3584 2469 3576 
Q 2541 3569 2628 3553 
L 2631 2963 
z
" transform="scale(0.015625)"/>
      <path id="DejaVuSans-20" transform="scale(0.015625)"/>
      <path id="DejaVuSans-2c" d="M 750 794 
L 1409 794 
L 1409 256 
L 897 -744 
L 494 -744 
L 750 256 
L 750 794 
z
" transform="scale(0.015625)"/>
      <path id="DejaVuSans-41" d="M 2188 4044 
L 1331 1722 
L 3047 1722 
L 2188 4044 
z
M 1831 4666 
L 2547 4666 
L 4325 0 
L 3669 0 
L 3244 1197 
L 1141 1197 
L 716 0 
L 50 0 
L 1831 4666 
z
" transform="scale(0.015625)"/>
      <path id="DejaVuSans-6f" d="M 1959 3097 
Q 1497 3097 1228 2736 
Q 959 2375 959 1747 
Q 959 1119 1226 758 
Q 1494 397 1959 397 
Q 2419 397 2687 759 
Q 2956 1122 2956 1747 
Q 2956 2369 2687 2733 
Q 2419 3097 1959 3097 
z
M 1959 3584 
Q 2709 3584 3137 3096 
Q 3566 2609 3566 1747 
Q 3566 888 3137 398 
Q 2709 -91 1959 -91 
Q 1206 -91 779 398 
Q 353 888 353 1747 
Q 353 2609 779 3096 
Q 1206 3584 1959 3584 
z
" transform="scale(0.015625)"/>
      <path id="DejaVuSans-6e" d="M 3513 2113 
L 3513 0 
L 2938 0 
L 2938 2094 
Q 2938 2591 2744 2837 
Q 2550 3084 2163 3084 
Q 1697 3084 1428 2787 
Q 1159 2491 1159 1978 
L 1159 0 
L 581 0 
L 581 3500 
L 1159 3500 
L 1159 2956 
Q 1366 3272 1645 3428 
Q 1925 3584 2291 3584 
Q 2894 3584 3203 3211 
Q 3513 2838 3513 2113 
z
" transform="scale(0.015625)"/>
     </defs>
     <use xlink:href="#DejaVuSans-55"/>
     <use xlink:href="#DejaVuSans-73" x="73.193359"/>
     <use xlink:href="#DejaVuSans-65" x="125.292969"/>
     <use xlink:href="#DejaVuSans-72" x="186.816406"/>
     <use xlink:href="#DejaVuSans-20" x="227.929688"/>
     <use xlink:href="#DejaVuSans-32" x="259.716797"/>
     <use xlink:href="#DejaVuSans-30" x="323.339844"/>
     <use xlink:href="#DejaVuSans-2c" x="386.962891"/>
     <use xlink:href="#DejaVuSans-20" x="418.75"/>
     <use xlink:href="#DejaVuSans-41" x="450.537109"/>
     <use xlink:href="#DejaVuSans-63" x="517.195312"/>
     <use xlink:href="#DejaVuSans-74" x="572.175781"/>
     <use xlink:href="#DejaVuSans-69" x="611.384766"/>
     <use xlink:href="#DejaVuSans-6f" x="639.167969"/>
     <use xlink:href="#DejaVuSans-6e" x="700.349609"/>
     <use xlink:href="#DejaVuSans-20" x="763.728516"/>
     <use xlink:href="#DejaVuSans-32" x="795.515625"/>
    </g>
   </g>
   <g id="legend_1">
    <g id="patch_7">
     <path d="M 1218.487792 78.914375 
L 1277.139354 78.914375 
Q 1279.139354 78.914375 1279.139354 76.914375 
L 1279.139354 33.88 
Q 1279.139354 31.88 1277.139354 31.88 
L 1218.487792 31.88 
Q 1216.487792 31.88 1216.487792 33.88 
L 1216.487792 76.914375 
Q 1216.487792 78.914375 1218.487792 78.914375 
z
" style="fill: #ffffff; opacity: 0.8; stroke: #cccccc; stroke-linejoin: miter"/>
    </g>
    <g id="line2d_17">
     <path d="M 1220.487792 39.978437 
L 1230.487792 39.978437 
L 1240.487792 39.978437 
" style="fill: none; stroke: #1f77b4; stroke-width: 1.5; stroke-linecap: square"/>
    </g>
    <g id="text_18">
     <!-- acc-x -->
     <g transform="translate(1248.487792 43.478437) scale(0.1 -0.1)">
      <defs>
       <path id="DejaVuSans-2d" d="M 313 2009 
L 1997 2009 
L 1997 1497 
L 313 1497 
L 313 2009 
z
" transform="scale(0.015625)"/>
       <path id="DejaVuSans-78" d="M 3513 3500 
L 2247 1797 
L 3578 0 
L 2900 0 
L 1881 1375 
L 863 0 
L 184 0 
L 1544 1831 
L 300 3500 
L 978 3500 
L 1906 2253 
L 2834 3500 
L 3513 3500 
z
" transform="scale(0.015625)"/>
      </defs>
      <use xlink:href="#DejaVuSans-61"/>
      <use xlink:href="#DejaVuSans-63" x="61.279297"/>
      <use xlink:href="#DejaVuSans-63" x="116.259766"/>
      <use xlink:href="#DejaVuSans-2d" x="171.240234"/>
      <use xlink:href="#DejaVuSans-78" x="207.324219"/>
     </g>
    </g>
    <g id="line2d_18">
     <path d="M 1220.487792 54.656563 
L 1230.487792 54.656563 
L 1240.487792 54.656563 
" style="fill: none; stroke: #ff7f0e; stroke-width: 1.5; stroke-linecap: square"/>
    </g>
    <g id="text_19">
     <!-- acc-y -->
     <g transform="translate(1248.487792 58.156563) scale(0.1 -0.1)">
      <defs>
       <path id="DejaVuSans-79" d="M 2059 -325 
Q 1816 -950 1584 -1140 
Q 1353 -1331 966 -1331 
L 506 -1331 
L 506 -850 
L 844 -850 
Q 1081 -850 1212 -737 
Q 1344 -625 1503 -206 
L 1606 56 
L 191 3500 
L 800 3500 
L 1894 763 
L 2988 3500 
L 3597 3500 
L 2059 -325 
z
" transform="scale(0.015625)"/>
      </defs>
      <use xlink:href="#DejaVuSans-61"/>
      <use xlink:href="#DejaVuSans-63" x="61.279297"/>
      <use xlink:href="#DejaVuSans-63" x="116.259766"/>
      <use xlink:href="#DejaVuSans-2d" x="171.240234"/>
      <use xlink:href="#DejaVuSans-79" x="205.574219"/>
     </g>
    </g>
    <g id="line2d_19">
     <path d="M 1220.487792 69.334687 
L 1230.487792 69.334687 
L 1240.487792 69.334687 
" style="fill: none; stroke: #2ca02c; stroke-width: 1.5; stroke-linecap: square"/>
    </g>
    <g id="text_20">
     <!-- acc-z -->
     <g transform="translate(1248.487792 72.834687) scale(0.1 -0.1)">
      <defs>
       <path id="DejaVuSans-7a" d="M 353 3500 
L 3084 3500 
L 3084 2975 
L 922 459 
L 3084 459 
L 3084 0 
L 275 0 
L 275 525 
L 2438 3041 
L 353 3041 
L 353 3500 
z
" transform="scale(0.015625)"/>
      </defs>
      <use xlink:href="#DejaVuSans-61"/>
      <use xlink:href="#DejaVuSans-63" x="61.279297"/>
      <use xlink:href="#DejaVuSans-63" x="116.259766"/>
      <use xlink:href="#DejaVuSans-2d" x="171.240234"/>
      <use xlink:href="#DejaVuSans-7a" x="207.324219"/>
     </g>
    </g>
   </g>
  </g>
 </g>
 <defs>
  <clipPath id="p9a8e11b5f4">
   <rect x="52.94" y="26.88" width="1231.199354" height="363.16"/>
  </clipPath>
 </defs>
</svg>
