<?xml version="1.0" encoding="utf-8" standalone="no"?>
<!DOCTYPE svg PUBLIC "-//W3C//DTD SVG 1.1//EN"
  "http://www.w3.org/Graphics/SVG/1.1/DTD/svg11.dtd">
<svg xmlns:xlink="http://www.w3.org/1999/xlink" width="1296pt" height="432pt" viewBox="0 0 1296 432" xmlns="http://www.w3.org/2000/svg" version="1.1">
 <metadata>
  <rdf:RDF xmlns:dc="http://purl.org/dc/elements/1.1/" xmlns:cc="http://creativecommons.org/ns#" xmlns:rdf="http://www.w3.org/1999/02/22-rdf-syntax-ns#">
   <cc:Work>
    <dc:type rdf:resource="http://purl.org/dc/dcmitype/StillImage"/>
    <dc:date>2025-03-28T12:11:09.870939</dc:date>
    <dc:format>image/svg+xml</dc:format>
    <dc:creator>
     <cc:Agent>
      <dc:title>Matplotlib v3.7.5, https://matplotlib.org/</dc:title>
     </cc:Agent>
    </dc:creator>
   </cc:Work>
  </rdf:RDF>
 </metadata>
 <defs>
  <style type="text/css">*{stroke-linejoin: round; stroke-linecap: butt}</style>
 </defs>
 <g id="figure_1">
  <g id="patch_1">
   <path d="M 0 432 
L 1296 432 
L 1296 0 
L 0 0 
z
" style="fill: #ffffff"/>
  </g>
  <g id="axes_1">
   <g id="patch_2">
    <path d="M 46.55 390.04 
L 1285.2 390.04 
L 1285.2 26.88 
L 46.55 26.88 
z
" style="fill: #ffffff"/>
   </g>
   <g id="matplotlib.axis_1">
    <g id="xtick_1">
     <g id="line2d_1">
      <defs>
       <path id="m3dc42e91e6" d="M 0 0 
L 0 3.5 
" style="stroke: #000000; stroke-width: 0.8"/>
      </defs>
      <g>
       <use xlink:href="#m3dc42e91e6" x="180.105108" y="390.04" style="stroke: #000000; stroke-width: 0.8"/>
      </g>
     </g>
     <g id="text_1">
      <!-- 5.28 -->
      <g transform="translate(168.972295 404.638438) scale(0.1 -0.1)">
       <defs>
        <path id="DejaVuSans-35" d="M 691 4666 
L 3169 4666 
L 3169 4134 
L 1269 4134 
L 1269 2991 
Q 1406 3038 1543 3061 
Q 1681 3084 1819 3084 
Q 2600 3084 3056 2656 
Q 3513 2228 3513 1497 
Q 3513 744 3044 326 
Q 2575 -91 1722 -91 
Q 1428 -91 1123 -41 
Q 819 9 494 109 
L 494 744 
Q 775 591 1075 516 
Q 1375 441 1709 441 
Q 2250 441 2565 725 
Q 2881 1009 2881 1497 
Q 2881 1984 2565 2268 
Q 2250 2553 1709 2553 
Q 1456 2553 1204 2497 
Q 953 2441 691 2322 
L 691 4666 
z
" transform="scale(0.015625)"/>
        <path id="DejaVuSans-2e" d="M 684 794 
L 1344 794 
L 1344 0 
L 684 0 
L 684 794 
z
" transform="scale(0.015625)"/>
        <path id="DejaVuSans-32" d="M 1228 531 
L 3431 531 
L 3431 0 
L 469 0 
L 469 531 
Q 828 903 1448 1529 
Q 2069 2156 2228 2338 
Q 2531 2678 2651 2914 
Q 2772 3150 2772 3378 
Q 2772 3750 2511 3984 
Q 2250 4219 1831 4219 
Q 1534 4219 1204 4116 
Q 875 4013 500 3803 
L 500 4441 
Q 881 4594 1212 4672 
Q 1544 4750 1819 4750 
Q 2544 4750 2975 4387 
Q 3406 4025 3406 3419 
Q 3406 3131 3298 2873 
Q 3191 2616 2906 2266 
Q 2828 2175 2409 1742 
Q 1991 1309 1228 531 
z
" transform="scale(0.015625)"/>
        <path id="DejaVuSans-38" d="M 2034 2216 
Q 1584 2216 1326 1975 
Q 1069 1734 1069 1313 
Q 1069 891 1326 650 
Q 1584 409 2034 409 
Q 2484 409 2743 651 
Q 3003 894 3003 1313 
Q 3003 1734 2745 1975 
Q 2488 2216 2034 2216 
z
M 1403 2484 
Q 997 2584 770 2862 
Q 544 3141 544 3541 
Q 544 4100 942 4425 
Q 1341 4750 2034 4750 
Q 2731 4750 3128 4425 
Q 3525 4100 3525 3541 
Q 3525 3141 3298 2862 
Q 3072 2584 2669 2484 
Q 3125 2378 3379 2068 
Q 3634 1759 3634 1313 
Q 3634 634 3220 271 
Q 2806 -91 2034 -91 
Q 1263 -91 848 271 
Q 434 634 434 1313 
Q 434 1759 690 2068 
Q 947 2378 1403 2484 
z
M 1172 3481 
Q 1172 3119 1398 2916 
Q 1625 2713 2034 2713 
Q 2441 2713 2670 2916 
Q 2900 3119 2900 3481 
Q 2900 3844 2670 4047 
Q 2441 4250 2034 4250 
Q 1625 4250 1398 4047 
Q 1172 3844 1172 3481 
z
" transform="scale(0.015625)"/>
       </defs>
       <use xlink:href="#DejaVuSans-35"/>
       <use xlink:href="#DejaVuSans-2e" x="63.623047"/>
       <use xlink:href="#DejaVuSans-32" x="95.410156"/>
       <use xlink:href="#DejaVuSans-38" x="159.033203"/>
      </g>
     </g>
    </g>
    <g id="xtick_2">
     <g id="line2d_2">
      <g>
       <use xlink:href="#m3dc42e91e6" x="356.601122" y="390.04" style="stroke: #000000; stroke-width: 0.8"/>
      </g>
     </g>
     <g id="text_2">
      <!-- 5.29 -->
      <g transform="translate(345.46831 404.638438) scale(0.1 -0.1)">
       <defs>
        <path id="DejaVuSans-39" d="M 703 97 
L 703 672 
Q 941 559 1184 500 
Q 1428 441 1663 441 
Q 2288 441 2617 861 
Q 2947 1281 2994 2138 
Q 2813 1869 2534 1725 
Q 2256 1581 1919 1581 
Q 1219 1581 811 2004 
Q 403 2428 403 3163 
Q 403 3881 828 4315 
Q 1253 4750 1959 4750 
Q 2769 4750 3195 4129 
Q 3622 3509 3622 2328 
Q 3622 1225 3098 567 
Q 2575 -91 1691 -91 
Q 1453 -91 1209 -44 
Q 966 3 703 97 
z
M 1959 2075 
Q 2384 2075 2632 2365 
Q 2881 2656 2881 3163 
Q 2881 3666 2632 3958 
Q 2384 4250 1959 4250 
Q 1534 4250 1286 3958 
Q 1038 3666 1038 3163 
Q 1038 2656 1286 2365 
Q 1534 2075 1959 2075 
z
" transform="scale(0.015625)"/>
       </defs>
       <use xlink:href="#DejaVuSans-35"/>
       <use xlink:href="#DejaVuSans-2e" x="63.623047"/>
       <use xlink:href="#DejaVuSans-32" x="95.410156"/>
       <use xlink:href="#DejaVuSans-39" x="159.033203"/>
      </g>
     </g>
    </g>
    <g id="xtick_3">
     <g id="line2d_3">
      <g>
       <use xlink:href="#m3dc42e91e6" x="533.097137" y="390.04" style="stroke: #000000; stroke-width: 0.8"/>
      </g>
     </g>
     <g id="text_3">
      <!-- 5.30 -->
      <g transform="translate(521.964324 404.638438) scale(0.1 -0.1)">
       <defs>
        <path id="DejaVuSans-33" d="M 2597 2516 
Q 3050 2419 3304 2112 
Q 3559 1806 3559 1356 
Q 3559 666 3084 287 
Q 2609 -91 1734 -91 
Q 1441 -91 1130 -33 
Q 819 25 488 141 
L 488 750 
Q 750 597 1062 519 
Q 1375 441 1716 441 
Q 2309 441 2620 675 
Q 2931 909 2931 1356 
Q 2931 1769 2642 2001 
Q 2353 2234 1838 2234 
L 1294 2234 
L 1294 2753 
L 1863 2753 
Q 2328 2753 2575 2939 
Q 2822 3125 2822 3475 
Q 2822 3834 2567 4026 
Q 2313 4219 1838 4219 
Q 1578 4219 1281 4162 
Q 984 4106 628 3988 
L 628 4550 
Q 988 4650 1302 4700 
Q 1616 4750 1894 4750 
Q 2613 4750 3031 4423 
Q 3450 4097 3450 3541 
Q 3450 3153 3228 2886 
Q 3006 2619 2597 2516 
z
" transform="scale(0.015625)"/>
        <path id="DejaVuSans-30" d="M 2034 4250 
Q 1547 4250 1301 3770 
Q 1056 3291 1056 2328 
Q 1056 1369 1301 889 
Q 1547 409 2034 409 
Q 2525 409 2770 889 
Q 3016 1369 3016 2328 
Q 3016 3291 2770 3770 
Q 2525 4250 2034 4250 
z
M 2034 4750 
Q 2819 4750 3233 4129 
Q 3647 3509 3647 2328 
Q 3647 1150 3233 529 
Q 2819 -91 2034 -91 
Q 1250 -91 836 529 
Q 422 1150 422 2328 
Q 422 3509 836 4129 
Q 1250 4750 2034 4750 
z
" transform="scale(0.015625)"/>
       </defs>
       <use xlink:href="#DejaVuSans-35"/>
       <use xlink:href="#DejaVuSans-2e" x="63.623047"/>
       <use xlink:href="#DejaVuSans-33" x="95.410156"/>
       <use xlink:href="#DejaVuSans-30" x="159.033203"/>
      </g>
     </g>
    </g>
    <g id="xtick_4">
     <g id="line2d_4">
      <g>
       <use xlink:href="#m3dc42e91e6" x="709.593151" y="390.04" style="stroke: #000000; stroke-width: 0.8"/>
      </g>
     </g>
     <g id="text_4">
      <!-- 5.31 -->
      <g transform="translate(698.460339 404.638438) scale(0.1 -0.1)">
       <defs>
        <path id="DejaVuSans-31" d="M 794 531 
L 1825 531 
L 1825 4091 
L 703 3866 
L 703 4441 
L 1819 4666 
L 2450 4666 
L 2450 531 
L 3481 531 
L 3481 0 
L 794 0 
L 794 531 
z
" transform="scale(0.015625)"/>
       </defs>
       <use xlink:href="#DejaVuSans-35"/>
       <use xlink:href="#DejaVuSans-2e" x="63.623047"/>
       <use xlink:href="#DejaVuSans-33" x="95.410156"/>
       <use xlink:href="#DejaVuSans-31" x="159.033203"/>
      </g>
     </g>
    </g>
    <g id="xtick_5">
     <g id="line2d_5">
      <g>
       <use xlink:href="#m3dc42e91e6" x="886.089165" y="390.04" style="stroke: #000000; stroke-width: 0.8"/>
      </g>
     </g>
     <g id="text_5">
      <!-- 5.32 -->
      <g transform="translate(874.956353 404.638438) scale(0.1 -0.1)">
       <use xlink:href="#DejaVuSans-35"/>
       <use xlink:href="#DejaVuSans-2e" x="63.623047"/>
       <use xlink:href="#DejaVuSans-33" x="95.410156"/>
       <use xlink:href="#DejaVuSans-32" x="159.033203"/>
      </g>
     </g>
    </g>
    <g id="xtick_6">
     <g id="line2d_6">
      <g>
       <use xlink:href="#m3dc42e91e6" x="1062.58518" y="390.04" style="stroke: #000000; stroke-width: 0.8"/>
      </g>
     </g>
     <g id="text_6">
      <!-- 5.33 -->
      <g transform="translate(1051.452367 404.638438) scale(0.1 -0.1)">
       <use xlink:href="#DejaVuSans-35"/>
       <use xlink:href="#DejaVuSans-2e" x="63.623047"/>
       <use xlink:href="#DejaVuSans-33" x="95.410156"/>
       <use xlink:href="#DejaVuSans-33" x="159.033203"/>
      </g>
     </g>
    </g>
    <g id="xtick_7">
     <g id="line2d_7">
      <g>
       <use xlink:href="#m3dc42e91e6" x="1239.081194" y="390.04" style="stroke: #000000; stroke-width: 0.8"/>
      </g>
     </g>
     <g id="text_7">
      <!-- 5.34 -->
      <g transform="translate(1227.948382 404.638438) scale(0.1 -0.1)">
       <defs>
        <path id="DejaVuSans-34" d="M 2419 4116 
L 825 1625 
L 2419 1625 
L 2419 4116 
z
M 2253 4666 
L 3047 4666 
L 3047 1625 
L 3713 1625 
L 3713 1100 
L 3047 1100 
L 3047 0 
L 2419 0 
L 2419 1100 
L 313 1100 
L 313 1709 
L 2253 4666 
z
" transform="scale(0.015625)"/>
       </defs>
       <use xlink:href="#DejaVuSans-35"/>
       <use xlink:href="#DejaVuSans-2e" x="63.623047"/>
       <use xlink:href="#DejaVuSans-33" x="95.410156"/>
       <use xlink:href="#DejaVuSans-34" x="159.033203"/>
      </g>
     </g>
    </g>
    <g id="text_8">
     <!-- time -->
     <g transform="translate(654.578906 418.316562) scale(0.1 -0.1)">
      <defs>
       <path id="DejaVuSans-74" d="M 1172 4494 
L 1172 3500 
L 2356 3500 
L 2356 3053 
L 1172 3053 
L 1172 1153 
Q 1172 725 1289 603 
Q 1406 481 1766 481 
L 2356 481 
L 2356 0 
L 1766 0 
Q 1100 0 847 248 
Q 594 497 594 1153 
L 594 3053 
L 172 3053 
L 172 3500 
L 594 3500 
L 594 4494 
L 1172 4494 
z
" transform="scale(0.015625)"/>
       <path id="DejaVuSans-69" d="M 603 3500 
L 1178 3500 
L 1178 0 
L 603 0 
L 603 3500 
z
M 603 4863 
L 1178 4863 
L 1178 4134 
L 603 4134 
L 603 4863 
z
" transform="scale(0.015625)"/>
       <path id="DejaVuSans-6d" d="M 3328 2828 
Q 3544 3216 3844 3400 
Q 4144 3584 4550 3584 
Q 5097 3584 5394 3201 
Q 5691 2819 5691 2113 
L 5691 0 
L 5113 0 
L 5113 2094 
Q 5113 2597 4934 2840 
Q 4756 3084 4391 3084 
Q 3944 3084 3684 2787 
Q 3425 2491 3425 1978 
L 3425 0 
L 2847 0 
L 2847 2094 
Q 2847 2600 2669 2842 
Q 2491 3084 2119 3084 
Q 1678 3084 1418 2786 
Q 1159 2488 1159 1978 
L 1159 0 
L 581 0 
L 581 3500 
L 1159 3500 
L 1159 2956 
Q 1356 3278 1631 3431 
Q 1906 3584 2284 3584 
Q 2666 3584 2933 3390 
Q 3200 3197 3328 2828 
z
" transform="scale(0.015625)"/>
       <path id="DejaVuSans-65" d="M 3597 1894 
L 3597 1613 
L 953 1613 
Q 991 1019 1311 708 
Q 1631 397 2203 397 
Q 2534 397 2845 478 
Q 3156 559 3463 722 
L 3463 178 
Q 3153 47 2828 -22 
Q 2503 -91 2169 -91 
Q 1331 -91 842 396 
Q 353 884 353 1716 
Q 353 2575 817 3079 
Q 1281 3584 2069 3584 
Q 2775 3584 3186 3129 
Q 3597 2675 3597 1894 
z
M 3022 2063 
Q 3016 2534 2758 2815 
Q 2500 3097 2075 3097 
Q 1594 3097 1305 2825 
Q 1016 2553 972 2059 
L 3022 2063 
z
" transform="scale(0.015625)"/>
      </defs>
      <use xlink:href="#DejaVuSans-74"/>
      <use xlink:href="#DejaVuSans-69" x="39.208984"/>
      <use xlink:href="#DejaVuSans-6d" x="66.992188"/>
      <use xlink:href="#DejaVuSans-65" x="164.404297"/>
     </g>
    </g>
    <g id="text_9">
     <!-- 1e11 -->
     <g transform="translate(1259.959375 417.316562) scale(0.1 -0.1)">
      <use xlink:href="#DejaVuSans-31"/>
      <use xlink:href="#DejaVuSans-65" x="63.623047"/>
      <use xlink:href="#DejaVuSans-31" x="125.146484"/>
      <use xlink:href="#DejaVuSans-31" x="188.769531"/>
     </g>
    </g>
   </g>
   <g id="matplotlib.axis_2">
    <g id="ytick_1">
     <g id="line2d_8">
      <defs>
       <path id="me646b55319" d="M 0 0 
L -3.5 0 
" style="stroke: #000000; stroke-width: 0.8"/>
      </defs>
      <g>
       <use xlink:href="#me646b55319" x="46.55" y="355.411831" style="stroke: #000000; stroke-width: 0.8"/>
      </g>
     </g>
     <g id="text_10">
      <!-- −5 -->
      <g transform="translate(24.807812 359.21105) scale(0.1 -0.1)">
       <defs>
        <path id="DejaVuSans-2212" d="M 678 2272 
L 4684 2272 
L 4684 1741 
L 678 1741 
L 678 2272 
z
" transform="scale(0.015625)"/>
       </defs>
       <use xlink:href="#DejaVuSans-2212"/>
       <use xlink:href="#DejaVuSans-35" x="83.789062"/>
      </g>
     </g>
    </g>
    <g id="ytick_2">
     <g id="line2d_9">
      <g>
       <use xlink:href="#me646b55319" x="46.55" y="288.825284" style="stroke: #000000; stroke-width: 0.8"/>
      </g>
     </g>
     <g id="text_11">
      <!-- 0 -->
      <g transform="translate(33.1875 292.624503) scale(0.1 -0.1)">
       <use xlink:href="#DejaVuSans-30"/>
      </g>
     </g>
    </g>
    <g id="ytick_3">
     <g id="line2d_10">
      <g>
       <use xlink:href="#me646b55319" x="46.55" y="222.238737" style="stroke: #000000; stroke-width: 0.8"/>
      </g>
     </g>
     <g id="text_12">
      <!-- 5 -->
      <g transform="translate(33.1875 226.037956) scale(0.1 -0.1)">
       <use xlink:href="#DejaVuSans-35"/>
      </g>
     </g>
    </g>
    <g id="ytick_4">
     <g id="line2d_11">
      <g>
       <use xlink:href="#me646b55319" x="46.55" y="155.652191" style="stroke: #000000; stroke-width: 0.8"/>
      </g>
     </g>
     <g id="text_13">
      <!-- 10 -->
      <g transform="translate(26.825 159.451409) scale(0.1 -0.1)">
       <use xlink:href="#DejaVuSans-31"/>
       <use xlink:href="#DejaVuSans-30" x="63.623047"/>
      </g>
     </g>
    </g>
    <g id="ytick_5">
     <g id="line2d_12">
      <g>
       <use xlink:href="#me646b55319" x="46.55" y="89.065644" style="stroke: #000000; stroke-width: 0.8"/>
      </g>
     </g>
     <g id="text_14">
      <!-- 15 -->
      <g transform="translate(26.825 92.864863) scale(0.1 -0.1)">
       <use xlink:href="#DejaVuSans-31"/>
       <use xlink:href="#DejaVuSans-35" x="63.623047"/>
      </g>
     </g>
    </g>
    <g id="text_15">
     <!-- acc -->
     <g transform="translate(18.728125 217.0225) rotate(-90) scale(0.1 -0.1)">
      <defs>
       <path id="DejaVuSans-61" d="M 2194 1759 
Q 1497 1759 1228 1600 
Q 959 1441 959 1056 
Q 959 750 1161 570 
Q 1363 391 1709 391 
Q 2188 391 2477 730 
Q 2766 1069 2766 1631 
L 2766 1759 
L 2194 1759 
z
M 3341 1997 
L 3341 0 
L 2766 0 
L 2766 531 
Q 2569 213 2275 61 
Q 1981 -91 1556 -91 
Q 1019 -91 701 211 
Q 384 513 384 1019 
Q 384 1609 779 1909 
Q 1175 2209 1959 2209 
L 2766 2209 
L 2766 2266 
Q 2766 2663 2505 2880 
Q 2244 3097 1772 3097 
Q 1472 3097 1187 3025 
Q 903 2953 641 2809 
L 641 3341 
Q 956 3463 1253 3523 
Q 1550 3584 1831 3584 
Q 2591 3584 2966 3190 
Q 3341 2797 3341 1997 
z
" transform="scale(0.015625)"/>
       <path id="DejaVuSans-63" d="M 3122 3366 
L 3122 2828 
Q 2878 2963 2633 3030 
Q 2388 3097 2138 3097 
Q 1578 3097 1268 2742 
Q 959 2388 959 1747 
Q 959 1106 1268 751 
Q 1578 397 2138 397 
Q 2388 397 2633 464 
Q 2878 531 3122 666 
L 3122 134 
Q 2881 22 2623 -34 
Q 2366 -91 2075 -91 
Q 1284 -91 818 406 
Q 353 903 353 1747 
Q 353 2603 823 3093 
Q 1294 3584 2113 3584 
Q 2378 3584 2631 3529 
Q 2884 3475 3122 3366 
z
" transform="scale(0.015625)"/>
      </defs>
      <use xlink:href="#DejaVuSans-61"/>
      <use xlink:href="#DejaVuSans-63" x="61.279297"/>
      <use xlink:href="#DejaVuSans-63" x="116.259766"/>
     </g>
    </g>
   </g>
   <g id="line2d_13">
    <path d="M 102.852273 223.570468 
L 113.581642 295.883458 
L 122.490455 332.772405 
L 131.232302 336.368079 
L 140.151881 251.137299 
L 148.8992 84.804105 
L 157.808013 162.710365 
L 166.544389 295.483939 
L 175.458674 287.36038 
L 184.200521 334.770002 
L 193.109334 294.951247 
L 201.824178 218.509891 
L 210.743933 202.662293 
L 219.437245 246.076721 
L 228.346057 282.699322 
L 237.233338 263.788743 
L 245.964419 213.31614 
L 254.878703 191.475753 
L 263.620551 209.187774 
L 272.523892 187.746906 
L 281.260445 265.786339 
L 290.169258 311.86423 
L 298.900339 254.732972 
L 307.814447 244.878163 
L 316.545528 310.266152 
L 325.454341 335.835386 
L 334.153124 304.539709 
L 343.061936 204.127197 
L 351.949217 88.799298 
L 360.675003 197.601715 
L 369.589111 259.260858 
L 378.320192 336.767598 
L 387.239948 334.237309 
L 395.971029 283.764707 
L 404.885137 226.100757 
L 413.62169 205.725274 
L 422.535797 252.602203 
L 431.23458 286.294996 
L 440.148864 264.854127 
L 448.869179 194.538734 
L 457.777992 170.034885 
L 466.665272 218.509891 
L 475.40712 187.746906 
L 484.310461 313.329134 
L 493.05778 289.357977 
L 501.966593 229.696431 
L 510.708441 273.110859 
L 519.622725 328.510866 
L 528.364572 336.767598 
L 537.267914 278.704129 
L 546.004467 141.935362 
L 554.907808 110.639685 
L 563.633595 251.669991 
L 572.547702 268.316628 
L 581.251956 356.077697 
L 590.155298 321.452692 
L 599.048049 254.20028 
L 607.784426 182.153636 
L 616.693238 225.568065 
L 625.429791 273.909898 
L 634.333133 279.236822 
L 643.058919 225.568065 
L 651.978498 177.093059 
L 660.715051 196.53633 
L 669.623864 186.282002 
L 678.322646 261.258454 
L 687.220693 311.331537 
L 696.124034 242.347875 
L 704.855116 244.878163 
L 713.898595 312.263749 
L 724.121773 341.428656 
L 732.938985 316.924807 
L 741.766962 189.744503 
L 750.589645 46.450254 
L 759.417623 254.732972 
L 768.240306 240.882971 
L 777.062988 359.806543 
L 785.890966 330.774809 
L 794.713649 265.38682 
L 803.536332 192.274791 
L 812.364309 208.255563 
L 821.186992 259.79355 
L 830.01497 277.638744 
L 838.837652 245.410856 
L 847.66563 187.746906 
L 856.488313 184.683925 
L 865.310996 203.594504 
L 874.133678 195.470946 
L 882.961656 324.515673 
L 891.784339 264.321435 
L 900.617788 233.691624 
L 909.434999 300.011824 
L 918.257682 337.30029 
L 927.08566 323.982981 
L 935.908342 236.754605 
L 944.73632 80.542566 
L 955.336494 171.499789 
L 964.142939 259.79355 
L 972.970917 351.549811 
L 981.788128 333.305098 
L 990.627049 251.669991 
L 999.438965 202.1296 
L 1008.277709 225.035372 
L 1017.084154 263.25605 
L 1025.92837 283.764707 
L 1034.740286 239.284893 
L 1043.584501 175.095462 
L 1052.385475 186.282002 
L 1061.224396 192.807484 
L 1070.036136 235.68922 
L 1078.875056 322.917596 
L 1087.681501 264.321435 
L 1096.51495 224.635853 
L 1105.348399 311.331537 
L 1114.160139 339.830579 
L 1122.99906 332.772405 
L 1131.816271 208.655082 
L 1140.64972 66.426218 
L 1149.461637 205.725274 
L 1158.30038 246.609414 
L 1167.112297 337.832983 
L 1175.951041 343.426253 
L 1184.757486 279.636341 
L 1193.596406 214.781044 
L 1202.413618 199.066619 
L 1211.241595 254.732972 
L 1220.058983 284.297399 
L 1228.897727 260.193069 
L 1228.897727 260.193069 
" clip-path="url(#pba372ce010)" style="fill: none; stroke: #1f77b4; stroke-width: 1.5; stroke-linecap: square"/>
   </g>
   <g id="line2d_14">
    <path d="M 102.852273 127.552668 
L 113.581642 212.250755 
L 122.490455 233.691624 
L 131.232302 244.345471 
L 140.151881 234.757008 
L 148.8992 115.433916 
L 157.808013 153.654594 
L 166.544389 185.216617 
L 175.458674 88.399778 
L 184.200521 177.625751 
L 193.109334 119.961802 
L 201.824178 109.307954 
L 210.743933 208.655082 
L 219.437245 189.744503 
L 228.346057 165.240653 
L 237.233338 158.182479 
L 245.964419 163.908922 
L 254.878703 148.594017 
L 263.620551 104.780069 
L 272.523892 141.40267 
L 281.260445 104.780069 
L 290.169258 64.295448 
L 298.900339 91.46276 
L 307.814447 169.502192 
L 316.545528 219.841622 
L 325.454341 233.158931 
L 334.153124 255.132492 
L 343.061936 230.628642 
L 351.949217 69.888718 
L 360.675003 219.308929 
L 369.589111 131.681034 
L 378.320192 138.339688 
L 387.239948 170.967096 
L 395.971029 110.639685 
L 404.885137 136.874784 
L 413.62169 197.601715 
L 422.535797 182.686329 
L 431.23458 164.974307 
L 440.148864 158.182479 
L 448.869179 156.717575 
L 457.777992 136.342092 
L 466.665272 108.109396 
L 475.40712 161.245461 
L 484.310461 55.239678 
L 493.05778 79.077662 
L 501.966593 128.08536 
L 510.708441 203.061812 
L 519.622725 216.512294 
L 528.364572 245.410856 
L 537.267914 246.609414 
L 546.004467 173.497385 
L 554.907808 70.421411 
L 563.633595 217.311333 
L 572.547702 89.33199 
L 581.251956 190.94306 
L 590.155298 130.615649 
L 599.048049 112.903628 
L 607.784426 183.751713 
L 616.693238 199.066619 
L 625.429791 166.971904 
L 634.333133 162.177672 
L 643.058919 160.712768 
L 651.978498 148.594017 
L 660.715051 113.835839 
L 669.623864 132.346899 
L 678.322646 111.30555 
L 687.220693 52.176697 
L 696.124034 84.271412 
L 704.855116 175.095462 
L 713.898595 217.844025 
L 724.121773 238.352682 
L 732.938985 242.880567 
L 741.766962 203.061812 
L 750.589645 47.915158 
L 759.417623 232.22672 
L 768.240306 85.336797 
L 777.062988 194.006042 
L 785.890966 144.998343 
L 794.713649 107.84305 
L 803.536332 152.056517 
L 812.364309 208.655082 
L 821.186992 177.093059 
L 830.01497 160.180076 
L 838.837652 164.441615 
L 847.66563 155.652191 
L 856.488313 121.959398 
L 865.310996 121.959398 
L 874.133678 153.121902 
L 882.961656 49.513235 
L 891.784339 79.077662 
L 900.617788 154.054114 
L 909.434999 209.187774 
L 918.257682 230.229123 
L 927.08566 252.602203 
L 935.908342 235.68922 
L 944.73632 87.334394 
L 955.336494 186.282002 
L 964.142939 95.990645 
L 972.970917 179.090655 
L 981.788128 124.489687 
L 990.627049 119.961802 
L 999.438965 144.998343 
L 1008.277709 213.848833 
L 1017.084154 180.15604 
L 1025.92837 163.908922 
L 1034.740286 164.974307 
L 1043.584501 153.121902 
L 1052.385475 110.373339 
L 1061.224396 132.346899 
L 1070.036136 133.67863 
L 1078.875056 43.387273 
L 1087.681501 77.213239 
L 1096.51495 167.904115 
L 1105.348399 219.841622 
L 1114.160139 241.28249 
L 1122.99906 253.667588 
L 1131.816271 221.04018 
L 1140.64972 63.363237 
L 1149.461637 212.250755 
L 1158.30038 135.143534 
L 1167.112297 146.99594 
L 1175.951041 156.717575 
L 1184.757486 113.835839 
L 1193.596406 131.148341 
L 1202.413618 214.248352 
L 1211.241595 182.153636 
L 1220.058983 163.908922 
L 1228.897727 160.712768 
L 1228.897727 160.712768 
" clip-path="url(#pba372ce010)" style="fill: none; stroke: #ff7f0e; stroke-width: 1.5; stroke-linecap: square"/>
   </g>
   <g id="line2d_15">
    <path d="M 102.852273 300.978172 
L 113.581642 312.768287 
L 122.490455 309.684719 
L 131.232302 306.238377 
L 140.151881 249.464438 
L 148.8992 149.520542 
L 157.808013 191.420799 
L 166.544389 290.820535 
L 175.458674 302.066491 
L 184.200521 343.966749 
L 193.109334 327.09781 
L 201.824178 330.181379 
L 210.743933 293.904103 
L 219.437245 300.6154 
L 228.346057 283.202306 
L 237.233338 249.464438 
L 245.964419 327.09781 
L 254.878703 294.992421 
L 263.620551 288.281125 
L 272.523892 213.368548 
L 281.260445 305.694218 
L 290.169258 327.09781 
L 298.900339 267.96585 
L 307.814447 317.302947 
L 316.545528 308.777786 
L 325.454341 311.861354 
L 334.153124 295.899353 
L 343.061936 226.609758 
L 351.949217 125.577538 
L 360.675003 225.521436 
L 369.589111 297.531831 
L 378.320192 290.276375 
L 387.239948 340.883175 
L 395.971029 345.961996 
L 404.885137 328.18613 
L 413.62169 280.662897 
L 422.535797 303.154809 
L 431.23458 283.202306 
L 440.148864 267.421691 
L 448.869179 285.197556 
L 457.777992 327.09781 
L 466.665272 237.85571 
L 475.40712 234.772142 
L 484.310461 373.532727 
L 493.05778 249.101668 
L 501.966593 304.06174 
L 510.708441 326.553653 
L 519.622725 301.522331 
L 528.364572 310.773037 
L 537.267914 263.249805 
L 546.004467 175.64018 
L 554.907808 165.845326 
L 563.633595 276.128238 
L 572.547702 278.667646 
L 581.251956 340.883175 
L 590.155298 342.334267 
L 599.048049 311.861354 
L 607.784426 300.978172 
L 616.693238 304.06174 
L 625.429791 298.438762 
L 634.333133 246.018098 
L 643.058919 294.448262 
L 651.978498 322.563151 
L 660.715051 279.211806 
L 669.623864 214.819642 
L 678.322646 293.904103 
L 687.220693 332.176629 
L 696.124034 275.584078 
L 704.855116 323.470084 
L 713.898595 306.601149 
L 724.121773 316.396017 
L 732.938985 290.276375 
L 741.766962 199.583184 
L 750.589645 155.143509 
L 759.417623 244.929779 
L 768.240306 272.50051 
L 777.062988 332.176629 
L 785.890966 339.250698 
L 794.713649 317.847107 
L 803.536332 303.154809 
L 812.364309 308.777786 
L 821.186992 298.982922 
L 830.01497 248.557507 
L 838.837652 287.736966 
L 847.66563 326.009492 
L 856.488313 291.364694 
L 865.310996 222.437867 
L 874.133678 253.092167 
L 882.961656 367.909753 
L 891.784339 252.548007 
L 900.617788 312.224128 
L 909.434999 316.396017 
L 918.257682 307.14531 
L 927.08566 303.698968 
L 935.908342 226.065596 
L 944.73632 141.358163 
L 955.336494 210.284978 
L 964.142939 259.803462 
L 972.970917 357.20795 
L 981.788128 344.510902 
L 990.627049 317.302947 
L 999.438965 290.820535 
L 1008.277709 315.307697 
L 1017.084154 305.150059 
L 1025.92837 254.724645 
L 1034.740286 280.118738 
L 1043.584501 324.558402 
L 1052.385475 286.285875 
L 1061.224396 222.075094 
L 1070.036136 262.342872 
L 1078.875056 359.747361 
L 1087.681501 259.259305 
L 1096.51495 318.391264 
L 1105.348399 315.307697 
L 1114.160139 315.307697 
L 1122.99906 296.443512 
L 1131.816271 212.280233 
L 1140.64972 137.730422 
L 1149.461637 233.139666 
L 1158.30038 294.992421 
L 1167.112297 292.453012 
L 1175.951041 347.957241 
L 1184.757486 323.470084 
L 1193.596406 325.102562 
L 1202.413618 302.61065 
L 1211.241595 300.6154 
L 1220.058983 271.956351 
L 1228.897727 278.123488 
L 1228.897727 278.123488 
" clip-path="url(#pba372ce010)" style="fill: none; stroke: #2ca02c; stroke-width: 1.5; stroke-linecap: square"/>
   </g>
   <g id="patch_3">
    <path d="M 46.55 390.04 
L 46.55 26.88 
" style="fill: none; stroke: #000000; stroke-width: 0.8; stroke-linejoin: miter; stroke-linecap: square"/>
   </g>
   <g id="patch_4">
    <path d="M 1285.2 390.04 
L 1285.2 26.88 
" style="fill: none; stroke: #000000; stroke-width: 0.8; stroke-linejoin: miter; stroke-linecap: square"/>
   </g>
   <g id="patch_5">
    <path d="M 46.55 390.04 
L 1285.2 390.04 
" style="fill: none; stroke: #000000; stroke-width: 0.8; stroke-linejoin: miter; stroke-linecap: square"/>
   </g>
   <g id="patch_6">
    <path d="M 46.55 26.88 
L 1285.2 26.88 
" style="fill: none; stroke: #000000; stroke-width: 0.8; stroke-linejoin: miter; stroke-linecap: square"/>
   </g>
   <g id="text_16">
    <!-- User 20, Action 0 -->
    <g transform="translate(614.328437 20.88) scale(0.12 -0.12)">
     <defs>
      <path id="DejaVuSans-55" d="M 556 4666 
L 1191 4666 
L 1191 1831 
Q 1191 1081 1462 751 
Q 1734 422 2344 422 
Q 2950 422 3222 751 
Q 3494 1081 3494 1831 
L 3494 4666 
L 4128 4666 
L 4128 1753 
Q 4128 841 3676 375 
Q 3225 -91 2344 -91 
Q 1459 -91 1007 375 
Q 556 841 556 1753 
L 556 4666 
z
" transform="scale(0.015625)"/>
      <path id="DejaVuSans-73" d="M 2834 3397 
L 2834 2853 
Q 2591 2978 2328 3040 
Q 2066 3103 1784 3103 
Q 1356 3103 1142 2972 
Q 928 2841 928 2578 
Q 928 2378 1081 2264 
Q 1234 2150 1697 2047 
L 1894 2003 
Q 2506 1872 2764 1633 
Q 3022 1394 3022 966 
Q 3022 478 2636 193 
Q 2250 -91 1575 -91 
Q 1294 -91 989 -36 
Q 684 19 347 128 
L 347 722 
Q 666 556 975 473 
Q 1284 391 1588 391 
Q 1994 391 2212 530 
Q 2431 669 2431 922 
Q 2431 1156 2273 1281 
Q 2116 1406 1581 1522 
L 1381 1569 
Q 847 1681 609 1914 
Q 372 2147 372 2553 
Q 372 3047 722 3315 
Q 1072 3584 1716 3584 
Q 2034 3584 2315 3537 
Q 2597 3491 2834 3397 
z
" transform="scale(0.015625)"/>
      <path id="DejaVuSans-72" d="M 2631 2963 
Q 2534 3019 2420 3045 
Q 2306 3072 2169 3072 
Q 1681 3072 1420 2755 
Q 1159 2438 1159 1844 
L 1159 0 
L 581 0 
L 581 3500 
L 1159 3500 
L 1159 2956 
Q 1341 3275 1631 3429 
Q 1922 3584 2338 3584 
Q 2397 3584 2469 3576 
Q 2541 3569 2628 3553 
L 2631 2963 
z
" transform="scale(0.015625)"/>
      <path id="DejaVuSans-20" transform="scale(0.015625)"/>
      <path id="DejaVuSans-2c" d="M 750 794 
L 1409 794 
L 1409 256 
L 897 -744 
L 494 -744 
L 750 256 
L 750 794 
z
" transform="scale(0.015625)"/>
      <path id="DejaVuSans-41" d="M 2188 4044 
L 1331 1722 
L 3047 1722 
L 2188 4044 
z
M 1831 4666 
L 2547 4666 
L 4325 0 
L 3669 0 
L 3244 1197 
L 1141 1197 
L 716 0 
L 50 0 
L 1831 4666 
z
" transform="scale(0.015625)"/>
      <path id="DejaVuSans-6f" d="M 1959 3097 
Q 1497 3097 1228 2736 
Q 959 2375 959 1747 
Q 959 1119 1226 758 
Q 1494 397 1959 397 
Q 2419 397 2687 759 
Q 2956 1122 2956 1747 
Q 2956 2369 2687 2733 
Q 2419 3097 1959 3097 
z
M 1959 3584 
Q 2709 3584 3137 3096 
Q 3566 2609 3566 1747 
Q 3566 888 3137 398 
Q 2709 -91 1959 -91 
Q 1206 -91 779 398 
Q 353 888 353 1747 
Q 353 2609 779 3096 
Q 1206 3584 1959 3584 
z
" transform="scale(0.015625)"/>
      <path id="DejaVuSans-6e" d="M 3513 2113 
L 3513 0 
L 2938 0 
L 2938 2094 
Q 2938 2591 2744 2837 
Q 2550 3084 2163 3084 
Q 1697 3084 1428 2787 
Q 1159 2491 1159 1978 
L 1159 0 
L 581 0 
L 581 3500 
L 1159 3500 
L 1159 2956 
Q 1366 3272 1645 3428 
Q 1925 3584 2291 3584 
Q 2894 3584 3203 3211 
Q 3513 2838 3513 2113 
z
" transform="scale(0.015625)"/>
     </defs>
     <use xlink:href="#DejaVuSans-55"/>
     <use xlink:href="#DejaVuSans-73" x="73.193359"/>
     <use xlink:href="#DejaVuSans-65" x="125.292969"/>
     <use xlink:href="#DejaVuSans-72" x="186.816406"/>
     <use xlink:href="#DejaVuSans-20" x="227.929688"/>
     <use xlink:href="#DejaVuSans-32" x="259.716797"/>
     <use xlink:href="#DejaVuSans-30" x="323.339844"/>
     <use xlink:href="#DejaVuSans-2c" x="386.962891"/>
     <use xlink:href="#DejaVuSans-20" x="418.75"/>
     <use xlink:href="#DejaVuSans-41" x="450.537109"/>
     <use xlink:href="#DejaVuSans-63" x="517.195312"/>
     <use xlink:href="#DejaVuSans-74" x="572.175781"/>
     <use xlink:href="#DejaVuSans-69" x="611.384766"/>
     <use xlink:href="#DejaVuSans-6f" x="639.167969"/>
     <use xlink:href="#DejaVuSans-6e" x="700.349609"/>
     <use xlink:href="#DejaVuSans-20" x="763.728516"/>
     <use xlink:href="#DejaVuSans-30" x="795.515625"/>
    </g>
   </g>
   <g id="legend_1">
    <g id="patch_7">
     <path d="M 1219.548438 78.914375 
L 1278.2 78.914375 
Q 1280.2 78.914375 1280.2 76.914375 
L 1280.2 33.88 
Q 1280.2 31.88 1278.2 31.88 
L 1219.548438 31.88 
Q 1217.548438 31.88 1217.548438 33.88 
L 1217.548438 76.914375 
Q 1217.548438 78.914375 1219.548438 78.914375 
z
" style="fill: #ffffff; opacity: 0.8; stroke: #cccccc; stroke-linejoin: miter"/>
    </g>
    <g id="line2d_16">
     <path d="M 1221.548438 39.978437 
L 1231.548438 39.978437 
L 1241.548438 39.978437 
" style="fill: none; stroke: #1f77b4; stroke-width: 1.5; stroke-linecap: square"/>
    </g>
    <g id="text_17">
     <!-- acc-x -->
     <g transform="translate(1249.548438 43.478437) scale(0.1 -0.1)">
      <defs>
       <path id="DejaVuSans-2d" d="M 313 2009 
L 1997 2009 
L 1997 1497 
L 313 1497 
L 313 2009 
z
" transform="scale(0.015625)"/>
       <path id="DejaVuSans-78" d="M 3513 3500 
L 2247 1797 
L 3578 0 
L 2900 0 
L 1881 1375 
L 863 0 
L 184 0 
L 1544 1831 
L 300 3500 
L 978 3500 
L 1906 2253 
L 2834 3500 
L 3513 3500 
z
" transform="scale(0.015625)"/>
      </defs>
      <use xlink:href="#DejaVuSans-61"/>
      <use xlink:href="#DejaVuSans-63" x="61.279297"/>
      <use xlink:href="#DejaVuSans-63" x="116.259766"/>
      <use xlink:href="#DejaVuSans-2d" x="171.240234"/>
      <use xlink:href="#DejaVuSans-78" x="207.324219"/>
     </g>
    </g>
    <g id="line2d_17">
     <path d="M 1221.548438 54.656563 
L 1231.548438 54.656563 
L 1241.548438 54.656563 
" style="fill: none; stroke: #ff7f0e; stroke-width: 1.5; stroke-linecap: square"/>
    </g>
    <g id="text_18">
     <!-- acc-y -->
     <g transform="translate(1249.548438 58.156563) scale(0.1 -0.1)">
      <defs>
       <path id="DejaVuSans-79" d="M 2059 -325 
Q 1816 -950 1584 -1140 
Q 1353 -1331 966 -1331 
L 506 -1331 
L 506 -850 
L 844 -850 
Q 1081 -850 1212 -737 
Q 1344 -625 1503 -206 
L 1606 56 
L 191 3500 
L 800 3500 
L 1894 763 
L 2988 3500 
L 3597 3500 
L 2059 -325 
z
" transform="scale(0.015625)"/>
      </defs>
      <use xlink:href="#DejaVuSans-61"/>
      <use xlink:href="#DejaVuSans-63" x="61.279297"/>
      <use xlink:href="#DejaVuSans-63" x="116.259766"/>
      <use xlink:href="#DejaVuSans-2d" x="171.240234"/>
      <use xlink:href="#DejaVuSans-79" x="205.574219"/>
     </g>
    </g>
    <g id="line2d_18">
     <path d="M 1221.548438 69.334687 
L 1231.548438 69.334687 
L 1241.548438 69.334687 
" style="fill: none; stroke: #2ca02c; stroke-width: 1.5; stroke-linecap: square"/>
    </g>
    <g id="text_19">
     <!-- acc-z -->
     <g transform="translate(1249.548438 72.834687) scale(0.1 -0.1)">
      <defs>
       <path id="DejaVuSans-7a" d="M 353 3500 
L 3084 3500 
L 3084 2975 
L 922 459 
L 3084 459 
L 3084 0 
L 275 0 
L 275 525 
L 2438 3041 
L 353 3041 
L 353 3500 
z
" transform="scale(0.015625)"/>
      </defs>
      <use xlink:href="#DejaVuSans-61"/>
      <use xlink:href="#DejaVuSans-63" x="61.279297"/>
      <use xlink:href="#DejaVuSans-63" x="116.259766"/>
      <use xlink:href="#DejaVuSans-2d" x="171.240234"/>
      <use xlink:href="#DejaVuSans-7a" x="207.324219"/>
     </g>
    </g>
   </g>
  </g>
 </g>
 <defs>
  <clipPath id="pba372ce010">
   <rect x="46.55" y="26.88" width="1238.65" height="363.16"/>
  </clipPath>
 </defs>
</svg>
