<?xml version="1.0" encoding="utf-8" standalone="no"?>
<!DOCTYPE svg PUBLIC "-//W3C//DTD SVG 1.1//EN"
  "http://www.w3.org/Graphics/SVG/1.1/DTD/svg11.dtd">
<svg xmlns:xlink="http://www.w3.org/1999/xlink" width="1296pt" height="432pt" viewBox="0 0 1296 432" xmlns="http://www.w3.org/2000/svg" version="1.1">
 <metadata>
  <rdf:RDF xmlns:dc="http://purl.org/dc/elements/1.1/" xmlns:cc="http://creativecommons.org/ns#" xmlns:rdf="http://www.w3.org/1999/02/22-rdf-syntax-ns#">
   <cc:Work>
    <dc:type rdf:resource="http://purl.org/dc/dcmitype/StillImage"/>
    <dc:date>2025-03-28T12:11:14.531043</dc:date>
    <dc:format>image/svg+xml</dc:format>
    <dc:creator>
     <cc:Agent>
      <dc:title>Matplotlib v3.7.5, https://matplotlib.org/</dc:title>
     </cc:Agent>
    </dc:creator>
   </cc:Work>
  </rdf:RDF>
 </metadata>
 <defs>
  <style type="text/css">*{stroke-linejoin: round; stroke-linecap: butt}</style>
 </defs>
 <g id="figure_1">
  <g id="patch_1">
   <path d="M 0 432 
L 1296 432 
L 1296 0 
L 0 0 
z
" style="fill: #ffffff"/>
  </g>
  <g id="axes_1">
   <g id="patch_2">
    <path d="M 52.94 390.04 
L 1285.2 390.04 
L 1285.2 26.88 
L 52.94 26.88 
z
" style="fill: #ffffff"/>
   </g>
   <g id="matplotlib.axis_1">
    <g id="xtick_1">
     <g id="line2d_1">
      <defs>
       <path id="m7b6280169b" d="M 0 0 
L 0 3.5 
" style="stroke: #000000; stroke-width: 0.8"/>
      </defs>
      <g>
       <use xlink:href="#m7b6280169b" x="191.226923" y="390.04" style="stroke: #000000; stroke-width: 0.8"/>
      </g>
     </g>
     <g id="text_1">
      <!-- 1.755 -->
      <g transform="translate(176.912861 404.638438) scale(0.1 -0.1)">
       <defs>
        <path id="DejaVuSans-31" d="M 794 531 
L 1825 531 
L 1825 4091 
L 703 3866 
L 703 4441 
L 1819 4666 
L 2450 4666 
L 2450 531 
L 3481 531 
L 3481 0 
L 794 0 
L 794 531 
z
" transform="scale(0.015625)"/>
        <path id="DejaVuSans-2e" d="M 684 794 
L 1344 794 
L 1344 0 
L 684 0 
L 684 794 
z
" transform="scale(0.015625)"/>
        <path id="DejaVuSans-37" d="M 525 4666 
L 3525 4666 
L 3525 4397 
L 1831 0 
L 1172 0 
L 2766 4134 
L 525 4134 
L 525 4666 
z
" transform="scale(0.015625)"/>
        <path id="DejaVuSans-35" d="M 691 4666 
L 3169 4666 
L 3169 4134 
L 1269 4134 
L 1269 2991 
Q 1406 3038 1543 3061 
Q 1681 3084 1819 3084 
Q 2600 3084 3056 2656 
Q 3513 2228 3513 1497 
Q 3513 744 3044 326 
Q 2575 -91 1722 -91 
Q 1428 -91 1123 -41 
Q 819 9 494 109 
L 494 744 
Q 775 591 1075 516 
Q 1375 441 1709 441 
Q 2250 441 2565 725 
Q 2881 1009 2881 1497 
Q 2881 1984 2565 2268 
Q 2250 2553 1709 2553 
Q 1456 2553 1204 2497 
Q 953 2441 691 2322 
L 691 4666 
z
" transform="scale(0.015625)"/>
       </defs>
       <use xlink:href="#DejaVuSans-31"/>
       <use xlink:href="#DejaVuSans-2e" x="63.623047"/>
       <use xlink:href="#DejaVuSans-37" x="95.410156"/>
       <use xlink:href="#DejaVuSans-35" x="159.033203"/>
       <use xlink:href="#DejaVuSans-35" x="222.65625"/>
      </g>
     </g>
    </g>
    <g id="xtick_2">
     <g id="line2d_2">
      <g>
       <use xlink:href="#m7b6280169b" x="367.083291" y="390.04" style="stroke: #000000; stroke-width: 0.8"/>
      </g>
     </g>
     <g id="text_2">
      <!-- 1.756 -->
      <g transform="translate(352.769228 404.638438) scale(0.1 -0.1)">
       <defs>
        <path id="DejaVuSans-36" d="M 2113 2584 
Q 1688 2584 1439 2293 
Q 1191 2003 1191 1497 
Q 1191 994 1439 701 
Q 1688 409 2113 409 
Q 2538 409 2786 701 
Q 3034 994 3034 1497 
Q 3034 2003 2786 2293 
Q 2538 2584 2113 2584 
z
M 3366 4563 
L 3366 3988 
Q 3128 4100 2886 4159 
Q 2644 4219 2406 4219 
Q 1781 4219 1451 3797 
Q 1122 3375 1075 2522 
Q 1259 2794 1537 2939 
Q 1816 3084 2150 3084 
Q 2853 3084 3261 2657 
Q 3669 2231 3669 1497 
Q 3669 778 3244 343 
Q 2819 -91 2113 -91 
Q 1303 -91 875 529 
Q 447 1150 447 2328 
Q 447 3434 972 4092 
Q 1497 4750 2381 4750 
Q 2619 4750 2861 4703 
Q 3103 4656 3366 4563 
z
" transform="scale(0.015625)"/>
       </defs>
       <use xlink:href="#DejaVuSans-31"/>
       <use xlink:href="#DejaVuSans-2e" x="63.623047"/>
       <use xlink:href="#DejaVuSans-37" x="95.410156"/>
       <use xlink:href="#DejaVuSans-35" x="159.033203"/>
       <use xlink:href="#DejaVuSans-36" x="222.65625"/>
      </g>
     </g>
    </g>
    <g id="xtick_3">
     <g id="line2d_3">
      <g>
       <use xlink:href="#m7b6280169b" x="542.939658" y="390.04" style="stroke: #000000; stroke-width: 0.8"/>
      </g>
     </g>
     <g id="text_3">
      <!-- 1.757 -->
      <g transform="translate(528.625596 404.638438) scale(0.1 -0.1)">
       <use xlink:href="#DejaVuSans-31"/>
       <use xlink:href="#DejaVuSans-2e" x="63.623047"/>
       <use xlink:href="#DejaVuSans-37" x="95.410156"/>
       <use xlink:href="#DejaVuSans-35" x="159.033203"/>
       <use xlink:href="#DejaVuSans-37" x="222.65625"/>
      </g>
     </g>
    </g>
    <g id="xtick_4">
     <g id="line2d_4">
      <g>
       <use xlink:href="#m7b6280169b" x="718.796026" y="390.04" style="stroke: #000000; stroke-width: 0.8"/>
      </g>
     </g>
     <g id="text_4">
      <!-- 1.758 -->
      <g transform="translate(704.481963 404.638438) scale(0.1 -0.1)">
       <defs>
        <path id="DejaVuSans-38" d="M 2034 2216 
Q 1584 2216 1326 1975 
Q 1069 1734 1069 1313 
Q 1069 891 1326 650 
Q 1584 409 2034 409 
Q 2484 409 2743 651 
Q 3003 894 3003 1313 
Q 3003 1734 2745 1975 
Q 2488 2216 2034 2216 
z
M 1403 2484 
Q 997 2584 770 2862 
Q 544 3141 544 3541 
Q 544 4100 942 4425 
Q 1341 4750 2034 4750 
Q 2731 4750 3128 4425 
Q 3525 4100 3525 3541 
Q 3525 3141 3298 2862 
Q 3072 2584 2669 2484 
Q 3125 2378 3379 2068 
Q 3634 1759 3634 1313 
Q 3634 634 3220 271 
Q 2806 -91 2034 -91 
Q 1263 -91 848 271 
Q 434 634 434 1313 
Q 434 1759 690 2068 
Q 947 2378 1403 2484 
z
M 1172 3481 
Q 1172 3119 1398 2916 
Q 1625 2713 2034 2713 
Q 2441 2713 2670 2916 
Q 2900 3119 2900 3481 
Q 2900 3844 2670 4047 
Q 2441 4250 2034 4250 
Q 1625 4250 1398 4047 
Q 1172 3844 1172 3481 
z
" transform="scale(0.015625)"/>
       </defs>
       <use xlink:href="#DejaVuSans-31"/>
       <use xlink:href="#DejaVuSans-2e" x="63.623047"/>
       <use xlink:href="#DejaVuSans-37" x="95.410156"/>
       <use xlink:href="#DejaVuSans-35" x="159.033203"/>
       <use xlink:href="#DejaVuSans-38" x="222.65625"/>
      </g>
     </g>
    </g>
    <g id="xtick_5">
     <g id="line2d_5">
      <g>
       <use xlink:href="#m7b6280169b" x="894.652393" y="390.04" style="stroke: #000000; stroke-width: 0.8"/>
      </g>
     </g>
     <g id="text_5">
      <!-- 1.759 -->
      <g transform="translate(880.338331 404.638438) scale(0.1 -0.1)">
       <defs>
        <path id="DejaVuSans-39" d="M 703 97 
L 703 672 
Q 941 559 1184 500 
Q 1428 441 1663 441 
Q 2288 441 2617 861 
Q 2947 1281 2994 2138 
Q 2813 1869 2534 1725 
Q 2256 1581 1919 1581 
Q 1219 1581 811 2004 
Q 403 2428 403 3163 
Q 403 3881 828 4315 
Q 1253 4750 1959 4750 
Q 2769 4750 3195 4129 
Q 3622 3509 3622 2328 
Q 3622 1225 3098 567 
Q 2575 -91 1691 -91 
Q 1453 -91 1209 -44 
Q 966 3 703 97 
z
M 1959 2075 
Q 2384 2075 2632 2365 
Q 2881 2656 2881 3163 
Q 2881 3666 2632 3958 
Q 2384 4250 1959 4250 
Q 1534 4250 1286 3958 
Q 1038 3666 1038 3163 
Q 1038 2656 1286 2365 
Q 1534 2075 1959 2075 
z
" transform="scale(0.015625)"/>
       </defs>
       <use xlink:href="#DejaVuSans-31"/>
       <use xlink:href="#DejaVuSans-2e" x="63.623047"/>
       <use xlink:href="#DejaVuSans-37" x="95.410156"/>
       <use xlink:href="#DejaVuSans-35" x="159.033203"/>
       <use xlink:href="#DejaVuSans-39" x="222.65625"/>
      </g>
     </g>
    </g>
    <g id="xtick_6">
     <g id="line2d_6">
      <g>
       <use xlink:href="#m7b6280169b" x="1070.508761" y="390.04" style="stroke: #000000; stroke-width: 0.8"/>
      </g>
     </g>
     <g id="text_6">
      <!-- 1.760 -->
      <g transform="translate(1056.194698 404.638438) scale(0.1 -0.1)">
       <defs>
        <path id="DejaVuSans-30" d="M 2034 4250 
Q 1547 4250 1301 3770 
Q 1056 3291 1056 2328 
Q 1056 1369 1301 889 
Q 1547 409 2034 409 
Q 2525 409 2770 889 
Q 3016 1369 3016 2328 
Q 3016 3291 2770 3770 
Q 2525 4250 2034 4250 
z
M 2034 4750 
Q 2819 4750 3233 4129 
Q 3647 3509 3647 2328 
Q 3647 1150 3233 529 
Q 2819 -91 2034 -91 
Q 1250 -91 836 529 
Q 422 1150 422 2328 
Q 422 3509 836 4129 
Q 1250 4750 2034 4750 
z
" transform="scale(0.015625)"/>
       </defs>
       <use xlink:href="#DejaVuSans-31"/>
       <use xlink:href="#DejaVuSans-2e" x="63.623047"/>
       <use xlink:href="#DejaVuSans-37" x="95.410156"/>
       <use xlink:href="#DejaVuSans-36" x="159.033203"/>
       <use xlink:href="#DejaVuSans-30" x="222.65625"/>
      </g>
     </g>
    </g>
    <g id="xtick_7">
     <g id="line2d_7">
      <g>
       <use xlink:href="#m7b6280169b" x="1246.365128" y="390.04" style="stroke: #000000; stroke-width: 0.8"/>
      </g>
     </g>
     <g id="text_7">
      <!-- 1.761 -->
      <g transform="translate(1232.051066 404.638438) scale(0.1 -0.1)">
       <use xlink:href="#DejaVuSans-31"/>
       <use xlink:href="#DejaVuSans-2e" x="63.623047"/>
       <use xlink:href="#DejaVuSans-37" x="95.410156"/>
       <use xlink:href="#DejaVuSans-36" x="159.033203"/>
       <use xlink:href="#DejaVuSans-31" x="222.65625"/>
      </g>
     </g>
    </g>
    <g id="text_8">
     <!-- time -->
     <g transform="translate(657.773906 418.316562) scale(0.1 -0.1)">
      <defs>
       <path id="DejaVuSans-74" d="M 1172 4494 
L 1172 3500 
L 2356 3500 
L 2356 3053 
L 1172 3053 
L 1172 1153 
Q 1172 725 1289 603 
Q 1406 481 1766 481 
L 2356 481 
L 2356 0 
L 1766 0 
Q 1100 0 847 248 
Q 594 497 594 1153 
L 594 3053 
L 172 3053 
L 172 3500 
L 594 3500 
L 594 4494 
L 1172 4494 
z
" transform="scale(0.015625)"/>
       <path id="DejaVuSans-69" d="M 603 3500 
L 1178 3500 
L 1178 0 
L 603 0 
L 603 3500 
z
M 603 4863 
L 1178 4863 
L 1178 4134 
L 603 4134 
L 603 4863 
z
" transform="scale(0.015625)"/>
       <path id="DejaVuSans-6d" d="M 3328 2828 
Q 3544 3216 3844 3400 
Q 4144 3584 4550 3584 
Q 5097 3584 5394 3201 
Q 5691 2819 5691 2113 
L 5691 0 
L 5113 0 
L 5113 2094 
Q 5113 2597 4934 2840 
Q 4756 3084 4391 3084 
Q 3944 3084 3684 2787 
Q 3425 2491 3425 1978 
L 3425 0 
L 2847 0 
L 2847 2094 
Q 2847 2600 2669 2842 
Q 2491 3084 2119 3084 
Q 1678 3084 1418 2786 
Q 1159 2488 1159 1978 
L 1159 0 
L 581 0 
L 581 3500 
L 1159 3500 
L 1159 2956 
Q 1356 3278 1631 3431 
Q 1906 3584 2284 3584 
Q 2666 3584 2933 3390 
Q 3200 3197 3328 2828 
z
" transform="scale(0.015625)"/>
       <path id="DejaVuSans-65" d="M 3597 1894 
L 3597 1613 
L 953 1613 
Q 991 1019 1311 708 
Q 1631 397 2203 397 
Q 2534 397 2845 478 
Q 3156 559 3463 722 
L 3463 178 
Q 3153 47 2828 -22 
Q 2503 -91 2169 -91 
Q 1331 -91 842 396 
Q 353 884 353 1716 
Q 353 2575 817 3079 
Q 1281 3584 2069 3584 
Q 2775 3584 3186 3129 
Q 3597 2675 3597 1894 
z
M 3022 2063 
Q 3016 2534 2758 2815 
Q 2500 3097 2075 3097 
Q 1594 3097 1305 2825 
Q 1016 2553 972 2059 
L 3022 2063 
z
" transform="scale(0.015625)"/>
      </defs>
      <use xlink:href="#DejaVuSans-74"/>
      <use xlink:href="#DejaVuSans-69" x="39.208984"/>
      <use xlink:href="#DejaVuSans-6d" x="66.992188"/>
      <use xlink:href="#DejaVuSans-65" x="164.404297"/>
     </g>
    </g>
    <g id="text_9">
     <!-- 1e12 -->
     <g transform="translate(1259.959375 417.316562) scale(0.1 -0.1)">
      <defs>
       <path id="DejaVuSans-32" d="M 1228 531 
L 3431 531 
L 3431 0 
L 469 0 
L 469 531 
Q 828 903 1448 1529 
Q 2069 2156 2228 2338 
Q 2531 2678 2651 2914 
Q 2772 3150 2772 3378 
Q 2772 3750 2511 3984 
Q 2250 4219 1831 4219 
Q 1534 4219 1204 4116 
Q 875 4013 500 3803 
L 500 4441 
Q 881 4594 1212 4672 
Q 1544 4750 1819 4750 
Q 2544 4750 2975 4387 
Q 3406 4025 3406 3419 
Q 3406 3131 3298 2873 
Q 3191 2616 2906 2266 
Q 2828 2175 2409 1742 
Q 1991 1309 1228 531 
z
" transform="scale(0.015625)"/>
      </defs>
      <use xlink:href="#DejaVuSans-31"/>
      <use xlink:href="#DejaVuSans-65" x="63.623047"/>
      <use xlink:href="#DejaVuSans-31" x="125.146484"/>
      <use xlink:href="#DejaVuSans-32" x="188.769531"/>
     </g>
    </g>
   </g>
   <g id="matplotlib.axis_2">
    <g id="ytick_1">
     <g id="line2d_8">
      <defs>
       <path id="m2c88e6ec2c" d="M 0 0 
L -3.5 0 
" style="stroke: #000000; stroke-width: 0.8"/>
      </defs>
      <g>
       <use xlink:href="#m2c88e6ec2c" x="52.94" y="383.276384" style="stroke: #000000; stroke-width: 0.8"/>
      </g>
     </g>
     <g id="text_10">
      <!-- −10 -->
      <g transform="translate(24.835312 387.075603) scale(0.1 -0.1)">
       <defs>
        <path id="DejaVuSans-2212" d="M 678 2272 
L 4684 2272 
L 4684 1741 
L 678 1741 
L 678 2272 
z
" transform="scale(0.015625)"/>
       </defs>
       <use xlink:href="#DejaVuSans-2212"/>
       <use xlink:href="#DejaVuSans-31" x="83.789062"/>
       <use xlink:href="#DejaVuSans-30" x="147.412109"/>
      </g>
     </g>
    </g>
    <g id="ytick_2">
     <g id="line2d_9">
      <g>
       <use xlink:href="#m2c88e6ec2c" x="52.94" y="320.005887" style="stroke: #000000; stroke-width: 0.8"/>
      </g>
     </g>
     <g id="text_11">
      <!-- −5 -->
      <g transform="translate(31.197812 323.805105) scale(0.1 -0.1)">
       <use xlink:href="#DejaVuSans-2212"/>
       <use xlink:href="#DejaVuSans-35" x="83.789062"/>
      </g>
     </g>
    </g>
    <g id="ytick_3">
     <g id="line2d_10">
      <g>
       <use xlink:href="#m2c88e6ec2c" x="52.94" y="256.735389" style="stroke: #000000; stroke-width: 0.8"/>
      </g>
     </g>
     <g id="text_12">
      <!-- 0 -->
      <g transform="translate(39.5775 260.534608) scale(0.1 -0.1)">
       <use xlink:href="#DejaVuSans-30"/>
      </g>
     </g>
    </g>
    <g id="ytick_4">
     <g id="line2d_11">
      <g>
       <use xlink:href="#m2c88e6ec2c" x="52.94" y="193.464892" style="stroke: #000000; stroke-width: 0.8"/>
      </g>
     </g>
     <g id="text_13">
      <!-- 5 -->
      <g transform="translate(39.5775 197.264111) scale(0.1 -0.1)">
       <use xlink:href="#DejaVuSans-35"/>
      </g>
     </g>
    </g>
    <g id="ytick_5">
     <g id="line2d_12">
      <g>
       <use xlink:href="#m2c88e6ec2c" x="52.94" y="130.194395" style="stroke: #000000; stroke-width: 0.8"/>
      </g>
     </g>
     <g id="text_14">
      <!-- 10 -->
      <g transform="translate(33.215 133.993614) scale(0.1 -0.1)">
       <use xlink:href="#DejaVuSans-31"/>
       <use xlink:href="#DejaVuSans-30" x="63.623047"/>
      </g>
     </g>
    </g>
    <g id="ytick_6">
     <g id="line2d_13">
      <g>
       <use xlink:href="#m2c88e6ec2c" x="52.94" y="66.923898" style="stroke: #000000; stroke-width: 0.8"/>
      </g>
     </g>
     <g id="text_15">
      <!-- 15 -->
      <g transform="translate(33.215 70.723116) scale(0.1 -0.1)">
       <use xlink:href="#DejaVuSans-31"/>
       <use xlink:href="#DejaVuSans-35" x="63.623047"/>
      </g>
     </g>
    </g>
    <g id="text_16">
     <!-- acc -->
     <g transform="translate(18.755625 217.0225) rotate(-90) scale(0.1 -0.1)">
      <defs>
       <path id="DejaVuSans-61" d="M 2194 1759 
Q 1497 1759 1228 1600 
Q 959 1441 959 1056 
Q 959 750 1161 570 
Q 1363 391 1709 391 
Q 2188 391 2477 730 
Q 2766 1069 2766 1631 
L 2766 1759 
L 2194 1759 
z
M 3341 1997 
L 3341 0 
L 2766 0 
L 2766 531 
Q 2569 213 2275 61 
Q 1981 -91 1556 -91 
Q 1019 -91 701 211 
Q 384 513 384 1019 
Q 384 1609 779 1909 
Q 1175 2209 1959 2209 
L 2766 2209 
L 2766 2266 
Q 2766 2663 2505 2880 
Q 2244 3097 1772 3097 
Q 1472 3097 1187 3025 
Q 903 2953 641 2809 
L 641 3341 
Q 956 3463 1253 3523 
Q 1550 3584 1831 3584 
Q 2591 3584 2966 3190 
Q 3341 2797 3341 1997 
z
" transform="scale(0.015625)"/>
       <path id="DejaVuSans-63" d="M 3122 3366 
L 3122 2828 
Q 2878 2963 2633 3030 
Q 2388 3097 2138 3097 
Q 1578 3097 1268 2742 
Q 959 2388 959 1747 
Q 959 1106 1268 751 
Q 1578 397 2138 397 
Q 2388 397 2633 464 
Q 2878 531 3122 666 
L 3122 134 
Q 2881 22 2623 -34 
Q 2366 -91 2075 -91 
Q 1284 -91 818 406 
Q 353 903 353 1747 
Q 353 2603 823 3093 
Q 1294 3584 2113 3584 
Q 2378 3584 2631 3529 
Q 2884 3475 3122 3366 
z
" transform="scale(0.015625)"/>
      </defs>
      <use xlink:href="#DejaVuSans-61"/>
      <use xlink:href="#DejaVuSans-63" x="61.279297"/>
      <use xlink:href="#DejaVuSans-63" x="116.259766"/>
     </g>
    </g>
   </g>
   <g id="line2d_14">
    <path d="M 108.951818 301.910524 
L 117.763805 327.977969 
L 126.559965 348.47761 
L 135.350673 334.811183 
L 144.157384 325.194067 
L 152.94264 312.033804 
L 161.738624 312.033804 
L 170.534784 296.848885 
L 179.330767 278.626981 
L 188.121476 275.210375 
L 196.906732 275.210375 
L 205.708167 287.737933 
L 214.504151 269.895653 
L 223.289584 248.004061 
L 232.080116 244.967077 
L 240.876276 236.868453 
L 249.672259 250.028717 
L 258.468243 240.664683 
L 267.253676 250.40834 
L 276.049659 286.345982 
L 284.840367 265.846341 
L 293.636351 315.32387 
L 302.432335 312.033804 
L 311.217767 303.302475 
L 320.013751 299.253164 
L 328.804459 287.737933 
L 337.600443 298.493918 
L 346.391151 310.009148 
L 355.181859 303.808639 
L 363.977843 305.706754 
L 372.768551 317.728149 
L 381.564535 341.011692 
L 390.355243 300.898196 
L 399.145951 318.740477 
L 407.936483 307.098705 
L 416.732643 292.040327 
L 425.528627 278.120817 
L 434.319335 294.95077 
L 443.110043 265.846341 
L 451.906027 280.018932 
L 460.696735 272.806096 
L 469.492719 253.318783 
L 478.283427 246.61211 
L 487.074135 234.843797 
L 495.870119 239.272732 
L 504.660827 235.349961 
L 513.456811 268.25062 
L 522.247519 255.723061 
L 531.038227 263.442062 
L 539.839486 307.604869 
L 548.624919 294.95077 
L 557.420903 303.302475 
L 566.211611 290.142212 
L 575.002319 291.534163 
L 583.798303 308.111033 
L 592.594286 301.910524 
L 601.384994 300.898196 
L 610.175703 328.484133 
L 618.966411 332.913068 
L 627.76767 312.919591 
L 636.553103 283.815162 
L 645.349086 297.355049 
L 654.139794 313.425755 
L 662.930502 277.614653 
L 671.726486 292.546491 
L 680.517194 274.198047 
L 689.313178 259.645832 
L 698.103886 276.096162 
L 706.89987 246.105946 
L 715.690578 248.004061 
L 724.481286 248.510225 
L 733.27727 250.914504 
L 742.067978 274.198047 
L 750.858686 239.272732 
L 759.65467 302.290147 
L 768.445378 292.546491 
L 777.241362 306.719082 
L 786.03207 304.314803 
L 794.822778 299.253164 
L 803.618762 307.098705 
L 812.40947 316.336198 
L 821.205454 313.425755 
L 829.996162 300.898196 
L 838.78687 305.706754 
L 847.582854 316.842362 
L 856.373562 330.888412 
L 865.169546 327.092182 
L 873.960254 302.290147 
L 882.74551 307.098705 
L 891.546946 299.253164 
L 900.337654 276.602326 
L 909.128186 288.750261 
L 917.924346 279.006604 
L 926.715054 272.806096 
L 935.511038 280.525096 
L 944.301746 264.45439 
L 953.097729 253.318783 
L 961.882986 255.723061 
L 970.679146 248.510225 
L 979.469678 248.510225 
L 988.260386 300.392032 
L 1000.566287 251.926832 
L 1009.362271 294.95077 
L 1018.15843 289.636048 
L 1026.954414 296.848885 
L 1035.750398 303.808639 
L 1044.541106 308.617197 
L 1053.331814 314.438083 
L 1062.122522 299.253164 
L 1070.966867 305.706754 
L 1079.719942 307.604869 
L 1088.499747 311.021476 
L 1097.295906 321.65092 
L 1106.081163 300.392032 
L 1114.946961 295.456934 
L 1123.678582 311.52764 
L 1132.464014 296.848885 
L 1141.254547 272.299932 
L 1150.050706 295.456934 
L 1158.841238 262.556275 
L 1167.642674 275.716539 
L 1176.42793 279.006604 
L 1185.22409 250.40834 
L 1194.009346 245.473241 
L 1202.800055 244.967077 
L 1211.606766 236.362289 
L 1220.392198 293.558819 
L 1229.188182 248.004061 
L 1229.188182 248.004061 
" clip-path="url(#pac20107e08)" style="fill: none; stroke: #1f77b4; stroke-width: 1.5; stroke-linecap: square"/>
   </g>
   <g id="line2d_15">
    <path d="M 108.951818 156.894545 
L 117.763805 143.354658 
L 126.559965 71.099751 
L 135.350673 81.855735 
L 144.157384 119.058787 
L 152.94264 119.058787 
L 161.738624 126.271624 
L 170.534784 140.444215 
L 179.330767 148.66938 
L 188.121476 151.073659 
L 196.906732 167.397447 
L 205.708167 152.971774 
L 214.504151 154.490266 
L 223.289584 176.255317 
L 232.080116 197.640745 
L 240.876276 198.146909 
L 249.672259 185.872432 
L 258.468243 88.056244 
L 267.253676 130.700559 
L 276.049659 123.487722 
L 284.840367 158.286496 
L 293.636351 170.434431 
L 302.432335 176.255317 
L 311.217767 162.58889 
L 320.013751 143.354658 
L 328.804459 146.771265 
L 337.600443 144.746609 
L 346.391151 147.657052 
L 355.181859 160.184611 
L 363.977843 144.746609 
L 372.768551 98.179523 
L 381.564535 72.997865 
L 390.355243 82.108817 
L 399.145951 122.981558 
L 407.936483 120.071115 
L 416.732643 129.688231 
L 425.528627 147.150888 
L 434.319335 159.298824 
L 443.110043 168.536316 
L 451.906027 138.546101 
L 460.696735 174.863366 
L 469.492719 176.761481 
L 478.283427 180.557711 
L 487.074135 183.468154 
L 495.870119 177.267645 
L 504.660827 133.990625 
L 513.456811 115.262558 
L 522.247519 150.061331 
L 531.038227 173.344874 
L 539.839486 123.867345 
L 548.624919 156.894545 
L 557.420903 141.836166 
L 566.211611 146.771265 
L 575.002319 165.499332 
L 583.798303 149.555167 
L 592.594286 138.039937 
L 601.384994 145.758937 
L 610.175703 139.052265 
L 618.966411 99.191851 
L 627.76767 75.908308 
L 636.553103 105.898524 
L 645.349086 142.848494 
L 654.139794 109.947836 
L 662.930502 113.111361 
L 671.726486 146.265101 
L 680.517194 153.477938 
L 689.313178 180.557711 
L 698.103886 171.446759 
L 706.89987 183.468154 
L 715.690578 173.851038 
L 724.481286 178.153432 
L 733.27727 160.184611 
L 742.067978 75.402144 
L 750.858686 181.063875 
L 759.65467 118.173 
L 768.445378 160.690775 
L 777.241362 184.480482 
L 786.03207 169.548644 
L 794.822778 157.780332 
L 803.618762 157.780332 
L 812.40947 131.586346 
L 821.205454 133.104838 
L 829.996162 145.758937 
L 838.78687 148.66938 
L 847.582854 138.546101 
L 856.373562 94.383293 
L 865.169546 74.010193 
L 873.960254 96.281408 
L 882.74551 133.990625 
L 891.546946 133.990625 
L 900.337654 127.790116 
L 909.128186 156.388381 
L 917.924346 157.780332 
L 926.715054 148.66938 
L 935.511038 152.46561 
L 944.301746 168.030152 
L 953.097729 167.397447 
L 961.882986 184.986646 
L 970.679146 182.96199 
L 979.469678 149.175544 
L 988.260386 79.704538 
L 1000.566287 149.175544 
L 1009.362271 136.141822 
L 1018.15843 164.993168 
L 1026.954414 174.357202 
L 1035.750398 157.780332 
L 1044.541106 161.829644 
L 1053.331814 144.240445 
L 1062.122522 142.848494 
L 1070.966867 139.938052 
L 1079.719942 145.252773 
L 1088.499747 126.271624 
L 1097.295906 101.59613 
L 1106.081163 66.291193 
L 1114.946961 112.352115 
L 1123.678582 122.475394 
L 1132.464014 114.25023 
L 1141.254547 127.790116 
L 1150.050706 152.971774 
L 1158.841238 161.196939 
L 1167.642674 151.579823 
L 1176.42793 170.434431 
L 1185.22409 175.242989 
L 1194.009346 175.242989 
L 1202.800055 178.659596 
L 1211.606766 174.357202 
L 1220.392198 43.387273 
L 1229.188182 210.674467 
L 1229.188182 210.674467 
" clip-path="url(#pac20107e08)" style="fill: none; stroke: #ff7f0e; stroke-width: 1.5; stroke-linecap: square"/>
   </g>
   <g id="line2d_16">
    <path d="M 108.951818 256.735389 
L 117.763805 252.432996 
L 126.559965 246.61211 
L 135.350673 244.713995 
L 144.157384 255.723061 
L 152.94264 269.262948 
L 161.738624 243.068962 
L 170.534784 254.837274 
L 179.330767 261.543947 
L 188.121476 280.018932 
L 196.906732 284.321326 
L 205.708167 291.534163 
L 214.504151 301.910524 
L 223.289584 302.290147 
L 232.080116 312.413427 
L 240.876276 331.90074 
L 249.672259 359.992841 
L 258.468243 373.532727 
L 267.253676 342.02402 
L 276.049659 302.290147 
L 284.840367 307.098705 
L 293.636351 284.82749 
L 302.432335 280.018932 
L 311.217767 267.364833 
L 320.013751 273.565342 
L 328.804459 271.161063 
L 337.600443 270.401817 
L 346.391151 268.25062 
L 355.181859 263.062439 
L 363.977843 258.12734 
L 372.768551 252.432996 
L 381.564535 228.137125 
L 390.355243 257.241553 
L 399.145951 283.435539 
L 407.936483 281.03126 
L 416.732643 248.004061 
L 425.528627 239.905437 
L 434.319335 266.858669 
L 443.110043 283.435539 
L 451.906027 296.848885 
L 460.696735 300.898196 
L 469.492719 306.719082 
L 478.283427 311.021476 
L 487.074135 319.879346 
L 495.870119 347.338741 
L 504.660827 359.486677 
L 513.456811 361.384792 
L 522.247519 327.092182 
L 531.038227 307.098705 
L 539.839486 293.052655 
L 548.624919 268.25062 
L 557.420903 259.645832 
L 566.211611 276.096162 
L 575.002319 269.262948 
L 583.798303 264.45439 
L 592.594286 270.401817 
L 601.384994 265.466718 
L 610.175703 261.543947 
L 618.966411 244.967077 
L 627.76767 253.824947 
L 636.553103 272.299932 
L 645.349086 272.806096 
L 654.139794 255.343438 
L 662.930502 251.926832 
L 671.726486 268.756784 
L 680.517194 282.929375 
L 689.313178 294.191524 
L 698.103886 287.231769 
L 706.89987 302.290147 
L 715.690578 320.638592 
L 724.481286 322.536707 
L 733.27727 353.53925 
L 742.067978 357.588562 
L 750.858686 323.549034 
L 759.65467 300.392032 
L 768.445378 284.321326 
L 777.241362 266.858669 
L 786.03207 283.435539 
L 794.822778 264.45439 
L 803.618762 261.037783 
L 812.40947 259.645832 
L 821.205454 254.33111 
L 829.996162 244.967077 
L 838.78687 247.118274 
L 847.582854 243.575126 
L 856.373562 239.905437 
L 865.169546 248.004061 
L 873.960254 282.929375 
L 882.74551 274.704211 
L 891.546946 260.531619 
L 900.337654 252.812619 
L 909.128186 252.812619 
L 917.924346 265.466718 
L 926.715054 299.000082 
L 935.511038 280.525096 
L 944.301746 300.392032 
L 953.097729 314.438083 
L 961.882986 314.438083 
L 970.679146 327.977969 
L 979.469678 361.384792 
L 988.260386 348.730692 
L 1000.566287 312.919591 
L 1009.362271 303.808639 
L 1018.15843 286.345982 
L 1026.954414 271.161063 
L 1035.750398 270.401817 
L 1044.541106 281.03126 
L 1053.331814 266.352505 
L 1062.122522 258.12734 
L 1070.966867 255.723061 
L 1079.719942 240.664683 
L 1088.499747 233.95801 
L 1097.295906 241.803552 
L 1106.081163 241.803552 
L 1114.946961 280.018932 
L 1123.678582 272.806096 
L 1132.464014 253.824947 
L 1141.254547 247.624438 
L 1150.050706 248.004061 
L 1158.841238 275.716539 
L 1167.642674 272.299932 
L 1176.42793 283.815162 
L 1185.22409 306.212918 
L 1194.009346 318.234313 
L 1202.800055 323.04287 
L 1211.606766 360.499005 
L 1220.392198 350.881889 
L 1229.188182 313.931919 
L 1229.188182 313.931919 
" clip-path="url(#pac20107e08)" style="fill: none; stroke: #2ca02c; stroke-width: 1.5; stroke-linecap: square"/>
   </g>
   <g id="patch_3">
    <path d="M 52.94 390.04 
L 52.94 26.88 
" style="fill: none; stroke: #000000; stroke-width: 0.8; stroke-linejoin: miter; stroke-linecap: square"/>
   </g>
   <g id="patch_4">
    <path d="M 1285.2 390.04 
L 1285.2 26.88 
" style="fill: none; stroke: #000000; stroke-width: 0.8; stroke-linejoin: miter; stroke-linecap: square"/>
   </g>
   <g id="patch_5">
    <path d="M 52.94 390.04 
L 1285.2 390.04 
" style="fill: none; stroke: #000000; stroke-width: 0.8; stroke-linejoin: miter; stroke-linecap: square"/>
   </g>
   <g id="patch_6">
    <path d="M 52.94 26.88 
L 1285.2 26.88 
" style="fill: none; stroke: #000000; stroke-width: 0.8; stroke-linejoin: miter; stroke-linecap: square"/>
   </g>
   <g id="text_17">
    <!-- User 22, Action 2 -->
    <g transform="translate(617.523437 20.88) scale(0.12 -0.12)">
     <defs>
      <path id="DejaVuSans-55" d="M 556 4666 
L 1191 4666 
L 1191 1831 
Q 1191 1081 1462 751 
Q 1734 422 2344 422 
Q 2950 422 3222 751 
Q 3494 1081 3494 1831 
L 3494 4666 
L 4128 4666 
L 4128 1753 
Q 4128 841 3676 375 
Q 3225 -91 2344 -91 
Q 1459 -91 1007 375 
Q 556 841 556 1753 
L 556 4666 
z
" transform="scale(0.015625)"/>
      <path id="DejaVuSans-73" d="M 2834 3397 
L 2834 2853 
Q 2591 2978 2328 3040 
Q 2066 3103 1784 3103 
Q 1356 3103 1142 2972 
Q 928 2841 928 2578 
Q 928 2378 1081 2264 
Q 1234 2150 1697 2047 
L 1894 2003 
Q 2506 1872 2764 1633 
Q 3022 1394 3022 966 
Q 3022 478 2636 193 
Q 2250 -91 1575 -91 
Q 1294 -91 989 -36 
Q 684 19 347 128 
L 347 722 
Q 666 556 975 473 
Q 1284 391 1588 391 
Q 1994 391 2212 530 
Q 2431 669 2431 922 
Q 2431 1156 2273 1281 
Q 2116 1406 1581 1522 
L 1381 1569 
Q 847 1681 609 1914 
Q 372 2147 372 2553 
Q 372 3047 722 3315 
Q 1072 3584 1716 3584 
Q 2034 3584 2315 3537 
Q 2597 3491 2834 3397 
z
" transform="scale(0.015625)"/>
      <path id="DejaVuSans-72" d="M 2631 2963 
Q 2534 3019 2420 3045 
Q 2306 3072 2169 3072 
Q 1681 3072 1420 2755 
Q 1159 2438 1159 1844 
L 1159 0 
L 581 0 
L 581 3500 
L 1159 3500 
L 1159 2956 
Q 1341 3275 1631 3429 
Q 1922 3584 2338 3584 
Q 2397 3584 2469 3576 
Q 2541 3569 2628 3553 
L 2631 2963 
z
" transform="scale(0.015625)"/>
      <path id="DejaVuSans-20" transform="scale(0.015625)"/>
      <path id="DejaVuSans-2c" d="M 750 794 
L 1409 794 
L 1409 256 
L 897 -744 
L 494 -744 
L 750 256 
L 750 794 
z
" transform="scale(0.015625)"/>
      <path id="DejaVuSans-41" d="M 2188 4044 
L 1331 1722 
L 3047 1722 
L 2188 4044 
z
M 1831 4666 
L 2547 4666 
L 4325 0 
L 3669 0 
L 3244 1197 
L 1141 1197 
L 716 0 
L 50 0 
L 1831 4666 
z
" transform="scale(0.015625)"/>
      <path id="DejaVuSans-6f" d="M 1959 3097 
Q 1497 3097 1228 2736 
Q 959 2375 959 1747 
Q 959 1119 1226 758 
Q 1494 397 1959 397 
Q 2419 397 2687 759 
Q 2956 1122 2956 1747 
Q 2956 2369 2687 2733 
Q 2419 3097 1959 3097 
z
M 1959 3584 
Q 2709 3584 3137 3096 
Q 3566 2609 3566 1747 
Q 3566 888 3137 398 
Q 2709 -91 1959 -91 
Q 1206 -91 779 398 
Q 353 888 353 1747 
Q 353 2609 779 3096 
Q 1206 3584 1959 3584 
z
" transform="scale(0.015625)"/>
      <path id="DejaVuSans-6e" d="M 3513 2113 
L 3513 0 
L 2938 0 
L 2938 2094 
Q 2938 2591 2744 2837 
Q 2550 3084 2163 3084 
Q 1697 3084 1428 2787 
Q 1159 2491 1159 1978 
L 1159 0 
L 581 0 
L 581 3500 
L 1159 3500 
L 1159 2956 
Q 1366 3272 1645 3428 
Q 1925 3584 2291 3584 
Q 2894 3584 3203 3211 
Q 3513 2838 3513 2113 
z
" transform="scale(0.015625)"/>
     </defs>
     <use xlink:href="#DejaVuSans-55"/>
     <use xlink:href="#DejaVuSans-73" x="73.193359"/>
     <use xlink:href="#DejaVuSans-65" x="125.292969"/>
     <use xlink:href="#DejaVuSans-72" x="186.816406"/>
     <use xlink:href="#DejaVuSans-20" x="227.929688"/>
     <use xlink:href="#DejaVuSans-32" x="259.716797"/>
     <use xlink:href="#DejaVuSans-32" x="323.339844"/>
     <use xlink:href="#DejaVuSans-2c" x="386.962891"/>
     <use xlink:href="#DejaVuSans-20" x="418.75"/>
     <use xlink:href="#DejaVuSans-41" x="450.537109"/>
     <use xlink:href="#DejaVuSans-63" x="517.195312"/>
     <use xlink:href="#DejaVuSans-74" x="572.175781"/>
     <use xlink:href="#DejaVuSans-69" x="611.384766"/>
     <use xlink:href="#DejaVuSans-6f" x="639.167969"/>
     <use xlink:href="#DejaVuSans-6e" x="700.349609"/>
     <use xlink:href="#DejaVuSans-20" x="763.728516"/>
     <use xlink:href="#DejaVuSans-32" x="795.515625"/>
    </g>
   </g>
   <g id="legend_1">
    <g id="patch_7">
     <path d="M 59.94 78.914375 
L 118.591562 78.914375 
Q 120.591562 78.914375 120.591562 76.914375 
L 120.591562 33.88 
Q 120.591562 31.88 118.591562 31.88 
L 59.94 31.88 
Q 57.94 31.88 57.94 33.88 
L 57.94 76.914375 
Q 57.94 78.914375 59.94 78.914375 
z
" style="fill: #ffffff; opacity: 0.8; stroke: #cccccc; stroke-linejoin: miter"/>
    </g>
    <g id="line2d_17">
     <path d="M 61.94 39.978437 
L 71.94 39.978437 
L 81.94 39.978437 
" style="fill: none; stroke: #1f77b4; stroke-width: 1.5; stroke-linecap: square"/>
    </g>
    <g id="text_18">
     <!-- acc-x -->
     <g transform="translate(89.94 43.478437) scale(0.1 -0.1)">
      <defs>
       <path id="DejaVuSans-2d" d="M 313 2009 
L 1997 2009 
L 1997 1497 
L 313 1497 
L 313 2009 
z
" transform="scale(0.015625)"/>
       <path id="DejaVuSans-78" d="M 3513 3500 
L 2247 1797 
L 3578 0 
L 2900 0 
L 1881 1375 
L 863 0 
L 184 0 
L 1544 1831 
L 300 3500 
L 978 3500 
L 1906 2253 
L 2834 3500 
L 3513 3500 
z
" transform="scale(0.015625)"/>
      </defs>
      <use xlink:href="#DejaVuSans-61"/>
      <use xlink:href="#DejaVuSans-63" x="61.279297"/>
      <use xlink:href="#DejaVuSans-63" x="116.259766"/>
      <use xlink:href="#DejaVuSans-2d" x="171.240234"/>
      <use xlink:href="#DejaVuSans-78" x="207.324219"/>
     </g>
    </g>
    <g id="line2d_18">
     <path d="M 61.94 54.656563 
L 71.94 54.656563 
L 81.94 54.656563 
" style="fill: none; stroke: #ff7f0e; stroke-width: 1.5; stroke-linecap: square"/>
    </g>
    <g id="text_19">
     <!-- acc-y -->
     <g transform="translate(89.94 58.156563) scale(0.1 -0.1)">
      <defs>
       <path id="DejaVuSans-79" d="M 2059 -325 
Q 1816 -950 1584 -1140 
Q 1353 -1331 966 -1331 
L 506 -1331 
L 506 -850 
L 844 -850 
Q 1081 -850 1212 -737 
Q 1344 -625 1503 -206 
L 1606 56 
L 191 3500 
L 800 3500 
L 1894 763 
L 2988 3500 
L 3597 3500 
L 2059 -325 
z
" transform="scale(0.015625)"/>
      </defs>
      <use xlink:href="#DejaVuSans-61"/>
      <use xlink:href="#DejaVuSans-63" x="61.279297"/>
      <use xlink:href="#DejaVuSans-63" x="116.259766"/>
      <use xlink:href="#DejaVuSans-2d" x="171.240234"/>
      <use xlink:href="#DejaVuSans-79" x="205.574219"/>
     </g>
    </g>
    <g id="line2d_19">
     <path d="M 61.94 69.334687 
L 71.94 69.334687 
L 81.94 69.334687 
" style="fill: none; stroke: #2ca02c; stroke-width: 1.5; stroke-linecap: square"/>
    </g>
    <g id="text_20">
     <!-- acc-z -->
     <g transform="translate(89.94 72.834687) scale(0.1 -0.1)">
      <defs>
       <path id="DejaVuSans-7a" d="M 353 3500 
L 3084 3500 
L 3084 2975 
L 922 459 
L 3084 459 
L 3084 0 
L 275 0 
L 275 525 
L 2438 3041 
L 353 3041 
L 353 3500 
z
" transform="scale(0.015625)"/>
      </defs>
      <use xlink:href="#DejaVuSans-61"/>
      <use xlink:href="#DejaVuSans-63" x="61.279297"/>
      <use xlink:href="#DejaVuSans-63" x="116.259766"/>
      <use xlink:href="#DejaVuSans-2d" x="171.240234"/>
      <use xlink:href="#DejaVuSans-7a" x="207.324219"/>
     </g>
    </g>
   </g>
  </g>
 </g>
 <defs>
  <clipPath id="pac20107e08">
   <rect x="52.94" y="26.88" width="1232.26" height="363.16"/>
  </clipPath>
 </defs>
</svg>
