<?xml version="1.0" encoding="utf-8" standalone="no"?>
<!DOCTYPE svg PUBLIC "-//W3C//DTD SVG 1.1//EN"
  "http://www.w3.org/Graphics/SVG/1.1/DTD/svg11.dtd">
<svg xmlns:xlink="http://www.w3.org/1999/xlink" width="1296pt" height="432pt" viewBox="0 0 1296 432" xmlns="http://www.w3.org/2000/svg" version="1.1">
 <metadata>
  <rdf:RDF xmlns:dc="http://purl.org/dc/elements/1.1/" xmlns:cc="http://creativecommons.org/ns#" xmlns:rdf="http://www.w3.org/1999/02/22-rdf-syntax-ns#">
   <cc:Work>
    <dc:type rdf:resource="http://purl.org/dc/dcmitype/StillImage"/>
    <dc:date>2025-03-28T12:11:14.229680</dc:date>
    <dc:format>image/svg+xml</dc:format>
    <dc:creator>
     <cc:Agent>
      <dc:title>Matplotlib v3.7.5, https://matplotlib.org/</dc:title>
     </cc:Agent>
    </dc:creator>
   </cc:Work>
  </rdf:RDF>
 </metadata>
 <defs>
  <style type="text/css">*{stroke-linejoin: round; stroke-linecap: butt}</style>
 </defs>
 <g id="figure_1">
  <g id="patch_1">
   <path d="M 0 432 
L 1296 432 
L 1296 0 
L 0 0 
z
" style="fill: #ffffff"/>
  </g>
  <g id="axes_1">
   <g id="patch_2">
    <path d="M 52.94 390.04 
L 1285.2 390.04 
L 1285.2 26.88 
L 52.94 26.88 
z
" style="fill: #ffffff"/>
   </g>
   <g id="matplotlib.axis_1">
    <g id="xtick_1">
     <g id="line2d_1">
      <defs>
       <path id="m207ec0d7a9" d="M 0 0 
L 0 3.5 
" style="stroke: #000000; stroke-width: 0.8"/>
      </defs>
      <g>
       <use xlink:href="#m207ec0d7a9" x="203.070399" y="390.04" style="stroke: #000000; stroke-width: 0.8"/>
      </g>
     </g>
     <g id="text_1">
      <!-- 1.072 -->
      <g transform="translate(188.756336 404.638438) scale(0.1 -0.1)">
       <defs>
        <path id="DejaVuSans-31" d="M 794 531 
L 1825 531 
L 1825 4091 
L 703 3866 
L 703 4441 
L 1819 4666 
L 2450 4666 
L 2450 531 
L 3481 531 
L 3481 0 
L 794 0 
L 794 531 
z
" transform="scale(0.015625)"/>
        <path id="DejaVuSans-2e" d="M 684 794 
L 1344 794 
L 1344 0 
L 684 0 
L 684 794 
z
" transform="scale(0.015625)"/>
        <path id="DejaVuSans-30" d="M 2034 4250 
Q 1547 4250 1301 3770 
Q 1056 3291 1056 2328 
Q 1056 1369 1301 889 
Q 1547 409 2034 409 
Q 2525 409 2770 889 
Q 3016 1369 3016 2328 
Q 3016 3291 2770 3770 
Q 2525 4250 2034 4250 
z
M 2034 4750 
Q 2819 4750 3233 4129 
Q 3647 3509 3647 2328 
Q 3647 1150 3233 529 
Q 2819 -91 2034 -91 
Q 1250 -91 836 529 
Q 422 1150 422 2328 
Q 422 3509 836 4129 
Q 1250 4750 2034 4750 
z
" transform="scale(0.015625)"/>
        <path id="DejaVuSans-37" d="M 525 4666 
L 3525 4666 
L 3525 4397 
L 1831 0 
L 1172 0 
L 2766 4134 
L 525 4134 
L 525 4666 
z
" transform="scale(0.015625)"/>
        <path id="DejaVuSans-32" d="M 1228 531 
L 3431 531 
L 3431 0 
L 469 0 
L 469 531 
Q 828 903 1448 1529 
Q 2069 2156 2228 2338 
Q 2531 2678 2651 2914 
Q 2772 3150 2772 3378 
Q 2772 3750 2511 3984 
Q 2250 4219 1831 4219 
Q 1534 4219 1204 4116 
Q 875 4013 500 3803 
L 500 4441 
Q 881 4594 1212 4672 
Q 1544 4750 1819 4750 
Q 2544 4750 2975 4387 
Q 3406 4025 3406 3419 
Q 3406 3131 3298 2873 
Q 3191 2616 2906 2266 
Q 2828 2175 2409 1742 
Q 1991 1309 1228 531 
z
" transform="scale(0.015625)"/>
       </defs>
       <use xlink:href="#DejaVuSans-31"/>
       <use xlink:href="#DejaVuSans-2e" x="63.623047"/>
       <use xlink:href="#DejaVuSans-30" x="95.410156"/>
       <use xlink:href="#DejaVuSans-37" x="159.033203"/>
       <use xlink:href="#DejaVuSans-32" x="222.65625"/>
      </g>
     </g>
    </g>
    <g id="xtick_2">
     <g id="line2d_2">
      <g>
       <use xlink:href="#m207ec0d7a9" x="378.106674" y="390.04" style="stroke: #000000; stroke-width: 0.8"/>
      </g>
     </g>
     <g id="text_2">
      <!-- 1.073 -->
      <g transform="translate(363.792612 404.638438) scale(0.1 -0.1)">
       <defs>
        <path id="DejaVuSans-33" d="M 2597 2516 
Q 3050 2419 3304 2112 
Q 3559 1806 3559 1356 
Q 3559 666 3084 287 
Q 2609 -91 1734 -91 
Q 1441 -91 1130 -33 
Q 819 25 488 141 
L 488 750 
Q 750 597 1062 519 
Q 1375 441 1716 441 
Q 2309 441 2620 675 
Q 2931 909 2931 1356 
Q 2931 1769 2642 2001 
Q 2353 2234 1838 2234 
L 1294 2234 
L 1294 2753 
L 1863 2753 
Q 2328 2753 2575 2939 
Q 2822 3125 2822 3475 
Q 2822 3834 2567 4026 
Q 2313 4219 1838 4219 
Q 1578 4219 1281 4162 
Q 984 4106 628 3988 
L 628 4550 
Q 988 4650 1302 4700 
Q 1616 4750 1894 4750 
Q 2613 4750 3031 4423 
Q 3450 4097 3450 3541 
Q 3450 3153 3228 2886 
Q 3006 2619 2597 2516 
z
" transform="scale(0.015625)"/>
       </defs>
       <use xlink:href="#DejaVuSans-31"/>
       <use xlink:href="#DejaVuSans-2e" x="63.623047"/>
       <use xlink:href="#DejaVuSans-30" x="95.410156"/>
       <use xlink:href="#DejaVuSans-37" x="159.033203"/>
       <use xlink:href="#DejaVuSans-33" x="222.65625"/>
      </g>
     </g>
    </g>
    <g id="xtick_3">
     <g id="line2d_3">
      <g>
       <use xlink:href="#m207ec0d7a9" x="553.14295" y="390.04" style="stroke: #000000; stroke-width: 0.8"/>
      </g>
     </g>
     <g id="text_3">
      <!-- 1.074 -->
      <g transform="translate(538.828887 404.638438) scale(0.1 -0.1)">
       <defs>
        <path id="DejaVuSans-34" d="M 2419 4116 
L 825 1625 
L 2419 1625 
L 2419 4116 
z
M 2253 4666 
L 3047 4666 
L 3047 1625 
L 3713 1625 
L 3713 1100 
L 3047 1100 
L 3047 0 
L 2419 0 
L 2419 1100 
L 313 1100 
L 313 1709 
L 2253 4666 
z
" transform="scale(0.015625)"/>
       </defs>
       <use xlink:href="#DejaVuSans-31"/>
       <use xlink:href="#DejaVuSans-2e" x="63.623047"/>
       <use xlink:href="#DejaVuSans-30" x="95.410156"/>
       <use xlink:href="#DejaVuSans-37" x="159.033203"/>
       <use xlink:href="#DejaVuSans-34" x="222.65625"/>
      </g>
     </g>
    </g>
    <g id="xtick_4">
     <g id="line2d_4">
      <g>
       <use xlink:href="#m207ec0d7a9" x="728.179225" y="390.04" style="stroke: #000000; stroke-width: 0.8"/>
      </g>
     </g>
     <g id="text_4">
      <!-- 1.075 -->
      <g transform="translate(713.865163 404.638438) scale(0.1 -0.1)">
       <defs>
        <path id="DejaVuSans-35" d="M 691 4666 
L 3169 4666 
L 3169 4134 
L 1269 4134 
L 1269 2991 
Q 1406 3038 1543 3061 
Q 1681 3084 1819 3084 
Q 2600 3084 3056 2656 
Q 3513 2228 3513 1497 
Q 3513 744 3044 326 
Q 2575 -91 1722 -91 
Q 1428 -91 1123 -41 
Q 819 9 494 109 
L 494 744 
Q 775 591 1075 516 
Q 1375 441 1709 441 
Q 2250 441 2565 725 
Q 2881 1009 2881 1497 
Q 2881 1984 2565 2268 
Q 2250 2553 1709 2553 
Q 1456 2553 1204 2497 
Q 953 2441 691 2322 
L 691 4666 
z
" transform="scale(0.015625)"/>
       </defs>
       <use xlink:href="#DejaVuSans-31"/>
       <use xlink:href="#DejaVuSans-2e" x="63.623047"/>
       <use xlink:href="#DejaVuSans-30" x="95.410156"/>
       <use xlink:href="#DejaVuSans-37" x="159.033203"/>
       <use xlink:href="#DejaVuSans-35" x="222.65625"/>
      </g>
     </g>
    </g>
    <g id="xtick_5">
     <g id="line2d_5">
      <g>
       <use xlink:href="#m207ec0d7a9" x="903.215501" y="390.04" style="stroke: #000000; stroke-width: 0.8"/>
      </g>
     </g>
     <g id="text_5">
      <!-- 1.076 -->
      <g transform="translate(888.901438 404.638438) scale(0.1 -0.1)">
       <defs>
        <path id="DejaVuSans-36" d="M 2113 2584 
Q 1688 2584 1439 2293 
Q 1191 2003 1191 1497 
Q 1191 994 1439 701 
Q 1688 409 2113 409 
Q 2538 409 2786 701 
Q 3034 994 3034 1497 
Q 3034 2003 2786 2293 
Q 2538 2584 2113 2584 
z
M 3366 4563 
L 3366 3988 
Q 3128 4100 2886 4159 
Q 2644 4219 2406 4219 
Q 1781 4219 1451 3797 
Q 1122 3375 1075 2522 
Q 1259 2794 1537 2939 
Q 1816 3084 2150 3084 
Q 2853 3084 3261 2657 
Q 3669 2231 3669 1497 
Q 3669 778 3244 343 
Q 2819 -91 2113 -91 
Q 1303 -91 875 529 
Q 447 1150 447 2328 
Q 447 3434 972 4092 
Q 1497 4750 2381 4750 
Q 2619 4750 2861 4703 
Q 3103 4656 3366 4563 
z
" transform="scale(0.015625)"/>
       </defs>
       <use xlink:href="#DejaVuSans-31"/>
       <use xlink:href="#DejaVuSans-2e" x="63.623047"/>
       <use xlink:href="#DejaVuSans-30" x="95.410156"/>
       <use xlink:href="#DejaVuSans-37" x="159.033203"/>
       <use xlink:href="#DejaVuSans-36" x="222.65625"/>
      </g>
     </g>
    </g>
    <g id="xtick_6">
     <g id="line2d_6">
      <g>
       <use xlink:href="#m207ec0d7a9" x="1078.251776" y="390.04" style="stroke: #000000; stroke-width: 0.8"/>
      </g>
     </g>
     <g id="text_6">
      <!-- 1.077 -->
      <g transform="translate(1063.937713 404.638438) scale(0.1 -0.1)">
       <use xlink:href="#DejaVuSans-31"/>
       <use xlink:href="#DejaVuSans-2e" x="63.623047"/>
       <use xlink:href="#DejaVuSans-30" x="95.410156"/>
       <use xlink:href="#DejaVuSans-37" x="159.033203"/>
       <use xlink:href="#DejaVuSans-37" x="222.65625"/>
      </g>
     </g>
    </g>
    <g id="xtick_7">
     <g id="line2d_7">
      <g>
       <use xlink:href="#m207ec0d7a9" x="1253.288051" y="390.04" style="stroke: #000000; stroke-width: 0.8"/>
      </g>
     </g>
     <g id="text_7">
      <!-- 1.078 -->
      <g transform="translate(1238.973989 404.638438) scale(0.1 -0.1)">
       <defs>
        <path id="DejaVuSans-38" d="M 2034 2216 
Q 1584 2216 1326 1975 
Q 1069 1734 1069 1313 
Q 1069 891 1326 650 
Q 1584 409 2034 409 
Q 2484 409 2743 651 
Q 3003 894 3003 1313 
Q 3003 1734 2745 1975 
Q 2488 2216 2034 2216 
z
M 1403 2484 
Q 997 2584 770 2862 
Q 544 3141 544 3541 
Q 544 4100 942 4425 
Q 1341 4750 2034 4750 
Q 2731 4750 3128 4425 
Q 3525 4100 3525 3541 
Q 3525 3141 3298 2862 
Q 3072 2584 2669 2484 
Q 3125 2378 3379 2068 
Q 3634 1759 3634 1313 
Q 3634 634 3220 271 
Q 2806 -91 2034 -91 
Q 1263 -91 848 271 
Q 434 634 434 1313 
Q 434 1759 690 2068 
Q 947 2378 1403 2484 
z
M 1172 3481 
Q 1172 3119 1398 2916 
Q 1625 2713 2034 2713 
Q 2441 2713 2670 2916 
Q 2900 3119 2900 3481 
Q 2900 3844 2670 4047 
Q 2441 4250 2034 4250 
Q 1625 4250 1398 4047 
Q 1172 3844 1172 3481 
z
" transform="scale(0.015625)"/>
       </defs>
       <use xlink:href="#DejaVuSans-31"/>
       <use xlink:href="#DejaVuSans-2e" x="63.623047"/>
       <use xlink:href="#DejaVuSans-30" x="95.410156"/>
       <use xlink:href="#DejaVuSans-37" x="159.033203"/>
       <use xlink:href="#DejaVuSans-38" x="222.65625"/>
      </g>
     </g>
    </g>
    <g id="text_8">
     <!-- time -->
     <g transform="translate(657.773906 418.316562) scale(0.1 -0.1)">
      <defs>
       <path id="DejaVuSans-74" d="M 1172 4494 
L 1172 3500 
L 2356 3500 
L 2356 3053 
L 1172 3053 
L 1172 1153 
Q 1172 725 1289 603 
Q 1406 481 1766 481 
L 2356 481 
L 2356 0 
L 1766 0 
Q 1100 0 847 248 
Q 594 497 594 1153 
L 594 3053 
L 172 3053 
L 172 3500 
L 594 3500 
L 594 4494 
L 1172 4494 
z
" transform="scale(0.015625)"/>
       <path id="DejaVuSans-69" d="M 603 3500 
L 1178 3500 
L 1178 0 
L 603 0 
L 603 3500 
z
M 603 4863 
L 1178 4863 
L 1178 4134 
L 603 4134 
L 603 4863 
z
" transform="scale(0.015625)"/>
       <path id="DejaVuSans-6d" d="M 3328 2828 
Q 3544 3216 3844 3400 
Q 4144 3584 4550 3584 
Q 5097 3584 5394 3201 
Q 5691 2819 5691 2113 
L 5691 0 
L 5113 0 
L 5113 2094 
Q 5113 2597 4934 2840 
Q 4756 3084 4391 3084 
Q 3944 3084 3684 2787 
Q 3425 2491 3425 1978 
L 3425 0 
L 2847 0 
L 2847 2094 
Q 2847 2600 2669 2842 
Q 2491 3084 2119 3084 
Q 1678 3084 1418 2786 
Q 1159 2488 1159 1978 
L 1159 0 
L 581 0 
L 581 3500 
L 1159 3500 
L 1159 2956 
Q 1356 3278 1631 3431 
Q 1906 3584 2284 3584 
Q 2666 3584 2933 3390 
Q 3200 3197 3328 2828 
z
" transform="scale(0.015625)"/>
       <path id="DejaVuSans-65" d="M 3597 1894 
L 3597 1613 
L 953 1613 
Q 991 1019 1311 708 
Q 1631 397 2203 397 
Q 2534 397 2845 478 
Q 3156 559 3463 722 
L 3463 178 
Q 3153 47 2828 -22 
Q 2503 -91 2169 -91 
Q 1331 -91 842 396 
Q 353 884 353 1716 
Q 353 2575 817 3079 
Q 1281 3584 2069 3584 
Q 2775 3584 3186 3129 
Q 3597 2675 3597 1894 
z
M 3022 2063 
Q 3016 2534 2758 2815 
Q 2500 3097 2075 3097 
Q 1594 3097 1305 2825 
Q 1016 2553 972 2059 
L 3022 2063 
z
" transform="scale(0.015625)"/>
      </defs>
      <use xlink:href="#DejaVuSans-74"/>
      <use xlink:href="#DejaVuSans-69" x="39.208984"/>
      <use xlink:href="#DejaVuSans-6d" x="66.992188"/>
      <use xlink:href="#DejaVuSans-65" x="164.404297"/>
     </g>
    </g>
    <g id="text_9">
     <!-- 1e12 -->
     <g transform="translate(1259.959375 417.316562) scale(0.1 -0.1)">
      <use xlink:href="#DejaVuSans-31"/>
      <use xlink:href="#DejaVuSans-65" x="63.623047"/>
      <use xlink:href="#DejaVuSans-31" x="125.146484"/>
      <use xlink:href="#DejaVuSans-32" x="188.769531"/>
     </g>
    </g>
   </g>
   <g id="matplotlib.axis_2">
    <g id="ytick_1">
     <g id="line2d_8">
      <defs>
       <path id="m80d7b90d5e" d="M 0 0 
L -3.5 0 
" style="stroke: #000000; stroke-width: 0.8"/>
      </defs>
      <g>
       <use xlink:href="#m80d7b90d5e" x="52.94" y="355.285071" style="stroke: #000000; stroke-width: 0.8"/>
      </g>
     </g>
     <g id="text_10">
      <!-- −10 -->
      <g transform="translate(24.835312 359.08429) scale(0.1 -0.1)">
       <defs>
        <path id="DejaVuSans-2212" d="M 678 2272 
L 4684 2272 
L 4684 1741 
L 678 1741 
L 678 2272 
z
" transform="scale(0.015625)"/>
       </defs>
       <use xlink:href="#DejaVuSans-2212"/>
       <use xlink:href="#DejaVuSans-31" x="83.789062"/>
       <use xlink:href="#DejaVuSans-30" x="147.412109"/>
      </g>
     </g>
    </g>
    <g id="ytick_2">
     <g id="line2d_9">
      <g>
       <use xlink:href="#m80d7b90d5e" x="52.94" y="302.546181" style="stroke: #000000; stroke-width: 0.8"/>
      </g>
     </g>
     <g id="text_11">
      <!-- −5 -->
      <g transform="translate(31.197812 306.345399) scale(0.1 -0.1)">
       <use xlink:href="#DejaVuSans-2212"/>
       <use xlink:href="#DejaVuSans-35" x="83.789062"/>
      </g>
     </g>
    </g>
    <g id="ytick_3">
     <g id="line2d_10">
      <g>
       <use xlink:href="#m80d7b90d5e" x="52.94" y="249.80729" style="stroke: #000000; stroke-width: 0.8"/>
      </g>
     </g>
     <g id="text_12">
      <!-- 0 -->
      <g transform="translate(39.5775 253.606509) scale(0.1 -0.1)">
       <use xlink:href="#DejaVuSans-30"/>
      </g>
     </g>
    </g>
    <g id="ytick_4">
     <g id="line2d_11">
      <g>
       <use xlink:href="#m80d7b90d5e" x="52.94" y="197.0684" style="stroke: #000000; stroke-width: 0.8"/>
      </g>
     </g>
     <g id="text_13">
      <!-- 5 -->
      <g transform="translate(39.5775 200.867618) scale(0.1 -0.1)">
       <use xlink:href="#DejaVuSans-35"/>
      </g>
     </g>
    </g>
    <g id="ytick_5">
     <g id="line2d_12">
      <g>
       <use xlink:href="#m80d7b90d5e" x="52.94" y="144.329509" style="stroke: #000000; stroke-width: 0.8"/>
      </g>
     </g>
     <g id="text_14">
      <!-- 10 -->
      <g transform="translate(33.215 148.128728) scale(0.1 -0.1)">
       <use xlink:href="#DejaVuSans-31"/>
       <use xlink:href="#DejaVuSans-30" x="63.623047"/>
      </g>
     </g>
    </g>
    <g id="ytick_6">
     <g id="line2d_13">
      <g>
       <use xlink:href="#m80d7b90d5e" x="52.94" y="91.590619" style="stroke: #000000; stroke-width: 0.8"/>
      </g>
     </g>
     <g id="text_15">
      <!-- 15 -->
      <g transform="translate(33.215 95.389837) scale(0.1 -0.1)">
       <use xlink:href="#DejaVuSans-31"/>
       <use xlink:href="#DejaVuSans-35" x="63.623047"/>
      </g>
     </g>
    </g>
    <g id="ytick_7">
     <g id="line2d_14">
      <g>
       <use xlink:href="#m80d7b90d5e" x="52.94" y="38.851728" style="stroke: #000000; stroke-width: 0.8"/>
      </g>
     </g>
     <g id="text_16">
      <!-- 20 -->
      <g transform="translate(33.215 42.650947) scale(0.1 -0.1)">
       <use xlink:href="#DejaVuSans-32"/>
       <use xlink:href="#DejaVuSans-30" x="63.623047"/>
      </g>
     </g>
    </g>
    <g id="text_17">
     <!-- acc -->
     <g transform="translate(18.755625 217.0225) rotate(-90) scale(0.1 -0.1)">
      <defs>
       <path id="DejaVuSans-61" d="M 2194 1759 
Q 1497 1759 1228 1600 
Q 959 1441 959 1056 
Q 959 750 1161 570 
Q 1363 391 1709 391 
Q 2188 391 2477 730 
Q 2766 1069 2766 1631 
L 2766 1759 
L 2194 1759 
z
M 3341 1997 
L 3341 0 
L 2766 0 
L 2766 531 
Q 2569 213 2275 61 
Q 1981 -91 1556 -91 
Q 1019 -91 701 211 
Q 384 513 384 1019 
Q 384 1609 779 1909 
Q 1175 2209 1959 2209 
L 2766 2209 
L 2766 2266 
Q 2766 2663 2505 2880 
Q 2244 3097 1772 3097 
Q 1472 3097 1187 3025 
Q 903 2953 641 2809 
L 641 3341 
Q 956 3463 1253 3523 
Q 1550 3584 1831 3584 
Q 2591 3584 2966 3190 
Q 3341 2797 3341 1997 
z
" transform="scale(0.015625)"/>
       <path id="DejaVuSans-63" d="M 3122 3366 
L 3122 2828 
Q 2878 2963 2633 3030 
Q 2388 3097 2138 3097 
Q 1578 3097 1268 2742 
Q 959 2388 959 1747 
Q 959 1106 1268 751 
Q 1578 397 2138 397 
Q 2388 397 2633 464 
Q 2878 531 3122 666 
L 3122 134 
Q 2881 22 2623 -34 
Q 2366 -91 2075 -91 
Q 1284 -91 818 406 
Q 353 903 353 1747 
Q 353 2603 823 3093 
Q 1294 3584 2113 3584 
Q 2378 3584 2631 3529 
Q 2884 3475 3122 3366 
z
" transform="scale(0.015625)"/>
      </defs>
      <use xlink:href="#DejaVuSans-61"/>
      <use xlink:href="#DejaVuSans-63" x="61.279297"/>
      <use xlink:href="#DejaVuSans-63" x="116.259766"/>
     </g>
    </g>
   </g>
   <g id="line2d_15">
    <path d="M 108.951818 200.549166 
L 119.731252 241.369068 
L 128.219286 262.253668 
L 137.086449 134.30912 
L 154.633836 273.645269 
L 164.9594 280.079413 
L 175.466478 199.283433 
L 184.221442 180.719344 
L 192.971156 229.239123 
L 201.715443 91.379663 
L 210.475834 141.059698 
L 219.220121 251.811368 
L 227.97526 218.585867 
L 236.724799 240.947157 
L 245.479938 148.759576 
L 254.234902 299.487325 
L 262.97919 125.343509 
L 271.745006 145.173331 
L 280.494545 308.874848 
L 289.244258 300.331147 
L 297.999222 250.229201 
L 306.748936 193.587633 
L 315.504075 196.1191 
L 324.253613 137.051542 
L 333.003327 173.124943 
L 341.758291 193.165722 
L 350.508005 234.407534 
L 359.263144 223.965234 
L 368.018108 170.698954 
L 376.762396 257.823602 
L 385.51736 183.145333 
L 394.267073 100.239797 
L 403.022213 283.243747 
L 411.771751 329.864926 
L 420.521465 269.215202 
L 429.276429 162.893599 
L 438.026142 175.339977 
L 446.781282 216.370834 
L 455.53082 127.453064 
L 464.285959 194.115022 
L 473.040924 231.243201 
L 481.785211 168.905832 
L 490.540351 256.241435 
L 499.289889 140.321353 
L 508.039602 223.121412 
L 516.794567 153.295121 
L 525.54428 226.391223 
L 537.803471 296.639425 
L 546.53183 265.945391 
L 555.286794 204.135411 
L 564.041758 178.715266 
L 572.802149 215.948922 
L 581.551862 120.913442 
L 590.301576 178.293355 
L 599.05654 213.417456 
L 607.806253 194.536933 
L 616.561218 269.637113 
L 625.310931 125.343509 
L 634.060644 267.633035 
L 642.815609 121.335353 
L 651.565322 220.695423 
L 660.320287 284.193047 
L 669.07 320.477403 
L 677.819713 154.455376 
L 686.574678 311.195359 
L 695.324391 218.374911 
L 704.079356 150.869132 
L 712.829069 151.291043 
L 721.578782 198.545089 
L 730.333747 227.129567 
L 739.078034 194.536933 
L 747.838424 257.40169 
L 756.588138 157.303276 
L 765.337851 251.389457 
L 774.092815 116.905286 
L 782.842529 234.829445 
L 791.597493 291.471014 
L 800.347207 305.499559 
L 809.09692 212.995545 
L 817.851884 147.915754 
L 826.601598 226.391223 
L 835.356562 112.89713 
L 844.106275 145.489765 
L 852.855989 239.997857 
L 861.610953 236.833523 
L 870.360667 206.5614 
L 879.115631 194.536933 
L 887.865344 242.21289 
L 896.615058 196.541011 
L 905.364771 137.051542 
L 914.119735 270.059024 
L 922.8747 301.913314 
L 931.624413 257.085257 
L 940.374126 174.70711 
L 949.134517 180.719344 
L 957.878804 263.624879 
L 966.633769 96.231641 
L 975.383482 150.341743 
L 984.133195 222.804978 
L 992.88816 229.555556 
L 1001.637873 232.825367 
L 1010.392838 174.70711 
L 1019.142551 223.543323 
L 1027.892264 183.567244 
L 1036.647229 164.897676 
L 1045.396942 277.231513 
L 1054.151906 317.629503 
L 1062.90162 253.393535 
L 1071.651333 213.417456 
L 1080.406297 202.553244 
L 1089.156011 145.173331 
L 1097.910975 173.75781 
L 1106.660689 133.887209 
L 1115.410402 202.975155 
L 1124.165366 195.1698 
L 1132.91508 243.795057 
L 1141.670044 219.535167 
L 1150.419757 203.7135 
L 1159.169471 164.159332 
L 1167.924435 136.313198 
L 1176.6794 287.040947 
L 1185.429113 305.499559 
L 1194.178826 269.637113 
L 1202.92854 212.995545 
L 1211.683504 208.987389 
L 1220.433217 373.532727 
L 1229.188182 64.377351 
L 1229.188182 64.377351 
" clip-path="url(#p4f134e8fbf)" style="fill: none; stroke: #1f77b4; stroke-width: 1.5; stroke-linecap: square"/>
   </g>
   <g id="line2d_16">
    <path d="M 108.951818 260.24959 
L 119.731252 156.881365 
L 128.219286 51.825495 
L 137.086449 57.415818 
L 145.77735 164.581243 
L 154.633836 251.389457 
L 164.9594 283.665658 
L 175.466478 203.7135 
L 184.221442 80.831885 
L 192.971156 174.285199 
L 201.715443 80.620929 
L 210.475834 106.673941 
L 219.220121 197.173877 
L 227.97526 230.82129 
L 236.724799 248.963468 
L 245.479938 164.897676 
L 254.234902 44.547528 
L 262.97919 70.811496 
L 271.745006 120.913442 
L 280.494545 235.251356 
L 289.244258 281.028713 
L 297.999222 237.993779 
L 306.748936 117.221719 
L 315.504075 165.319588 
L 324.253613 66.381429 
L 333.003327 95.493297 
L 341.758291 166.901754 
L 350.508005 219.113256 
L 359.263144 220.695423 
L 368.018108 232.403456 
L 376.762396 43.387273 
L 385.51736 53.829573 
L 394.267073 120.913442 
L 403.022213 212.995545 
L 411.771751 264.363224 
L 420.521465 282.083491 
L 429.276429 214.577711 
L 438.026142 79.249718 
L 446.781282 176.711188 
L 455.53082 67.225251 
L 464.285959 124.077775 
L 473.040924 229.977467 
L 481.785211 242.529323 
L 490.540351 251.389457 
L 499.289889 73.659396 
L 508.039602 52.56384 
L 516.794567 69.65124 
L 525.54428 200.127255 
L 537.803471 282.083491 
L 546.53183 256.241435 
L 555.286794 144.329509 
L 564.041758 102.665786 
L 572.802149 158.463532 
L 581.551862 86.211252 
L 590.301576 125.343509 
L 599.05654 224.387145 
L 607.806253 216.370834 
L 616.561218 236.833523 
L 625.310931 93.489219 
L 634.060644 43.387273 
L 642.815609 79.249718 
L 651.565322 177.133099 
L 660.320287 242.951234 
L 669.07 312.039181 
L 677.819713 177.55501 
L 686.574678 167.323665 
L 695.324391 171.331821 
L 704.079356 95.80973 
L 712.829069 107.623241 
L 721.578782 124.077775 
L 730.333747 224.387145 
L 739.078034 224.387145 
L 747.838424 253.393535 
L 756.588138 69.229329 
L 765.337851 44.547528 
L 774.092815 101.50553 
L 791.597493 254.237357 
L 800.347207 259.827679 
L 809.09692 197.173877 
L 817.851884 65.221173 
L 826.601598 194.536933 
L 835.356562 66.381429 
L 844.106275 97.497374 
L 852.855989 180.719344 
L 861.610953 214.1558 
L 870.360667 244.533401 
L 879.115631 204.557322 
L 887.865344 45.813262 
L 896.615058 46.973517 
L 905.364771 96.653552 
L 914.119735 212.995545 
L 922.8747 280.501324 
L 931.624413 274.489091 
L 940.374126 196.962922 
L 949.134517 82.835963 
L 957.878804 208.143567 
L 966.633769 87.793419 
L 975.383482 99.923363 
L 984.133195 176.711188 
L 992.88816 255.819524 
L 1001.637873 204.979233 
L 1010.392838 151.923909 
L 1019.142551 53.829573 
L 1027.892264 56.677473 
L 1036.647229 132.621475 
L 1045.396942 232.403456 
L 1054.151906 284.193047 
L 1062.90162 272.801446 
L 1071.651333 123.339431 
L 1080.406297 186.309666 
L 1089.156011 118.909364 
L 1097.910975 112.475219 
L 1106.660689 105.091775 
L 1115.410402 173.335899 
L 1124.165366 229.555556 
L 1132.91508 248.963468 
L 1141.670044 200.971078 
L 1150.419757 43.809184 
L 1159.169471 47.395428 
L 1167.924435 118.909364 
L 1176.6794 214.999622 
L 1185.429113 263.835835 
L 1194.178826 259.827679 
L 1202.92854 209.831211 
L 1211.683504 91.06323 
L 1220.433217 259.405768 
L 1229.188182 65.537607 
L 1229.188182 65.537607 
" clip-path="url(#p4f134e8fbf)" style="fill: none; stroke: #ff7f0e; stroke-width: 1.5; stroke-linecap: square"/>
   </g>
   <g id="line2d_17">
    <path d="M 108.951818 217.953 
L 119.731252 262.253668 
L 128.219286 254.237357 
L 137.086449 202.975155 
L 145.77735 214.1558 
L 154.633836 237.782823 
L 164.9594 245.377223 
L 175.466478 202.975155 
L 184.221442 270.797369 
L 192.971156 299.909236 
L 201.715443 224.387145 
L 210.475834 196.1191 
L 219.220121 196.541011 
L 227.97526 189.579477 
L 236.724799 240.947157 
L 245.479938 276.809602 
L 254.234902 279.235591 
L 262.97919 207.405222 
L 271.745006 204.557322 
L 280.494545 255.081179 
L 289.244258 268.793291 
L 297.999222 223.121412 
L 306.748936 214.999622 
L 315.504075 298.221592 
L 324.253613 267.633035 
L 333.003327 192.743811 
L 341.758291 194.115022 
L 350.508005 206.5614 
L 359.263144 205.401144 
L 368.018108 273.645269 
L 376.762396 272.801446 
L 385.51736 245.799134 
L 394.267073 201.709422 
L 403.022213 264.785135 
L 411.771751 295.90108 
L 420.521465 250.229201 
L 429.276429 156.459454 
L 438.026142 258.245513 
L 446.781282 293.897003 
L 455.53082 203.397067 
L 464.285959 186.309666 
L 473.040924 184.305588 
L 481.785211 227.551478 
L 490.540351 226.391223 
L 499.289889 302.440703 
L 508.039602 242.21289 
L 516.794567 199.283433 
L 525.54428 250.967546 
L 537.803471 278.497247 
L 546.53183 231.559634 
L 555.286794 187.99731 
L 564.041758 299.487325 
L 572.802149 281.239669 
L 581.551862 210.569556 
L 590.301576 185.14941 
L 599.05654 221.961156 
L 607.806253 186.309666 
L 616.561218 254.237357 
L 625.310931 268.793291 
L 634.060644 256.663346 
L 642.815609 196.1191 
L 651.565322 232.825367 
L 660.320287 267.211124 
L 669.07 233.985623 
L 677.819713 166.901754 
L 686.574678 245.799134 
L 695.324391 302.440703 
L 704.079356 282.083491 
L 712.829069 209.4093 
L 721.578782 182.30151 
L 730.333747 197.701266 
L 739.078034 223.543323 
L 747.838424 235.778745 
L 756.588138 291.787447 
L 765.337851 242.951234 
L 774.092815 181.879599 
L 782.842529 235.778745 
L 791.597493 253.393535 
L 800.347207 260.776979 
L 809.09692 168.905832 
L 817.851884 305.077647 
L 826.601598 260.776979 
L 835.356562 220.378989 
L 844.106275 204.979233 
L 852.855989 198.545089 
L 861.610953 183.567244 
L 870.360667 219.535167 
L 879.115631 276.071258 
L 887.865344 279.657502 
L 896.615058 254.659268 
L 905.364771 194.536933 
L 914.119735 242.951234 
L 922.8747 253.393535 
L 931.624413 231.243201 
L 940.374126 202.975155 
L 949.134517 277.231513 
L 957.878804 274.06718 
L 966.633769 219.957078 
L 975.383482 208.565478 
L 984.133195 218.585867 
L 992.88816 191.161644 
L 1001.637873 209.4093 
L 1010.392838 238.837601 
L 1019.142551 258.245513 
L 1027.892264 216.581789 
L 1036.647229 208.565478 
L 1045.396942 241.790979 
L 1054.151906 241.369068 
L 1062.90162 222.804978 
L 1071.651333 206.983311 
L 1080.406297 295.90108 
L 1089.156011 326.911548 
L 1097.910975 195.697188 
L 1106.660689 192.532855 
L 1115.410402 186.731577 
L 1124.165366 189.157566 
L 1132.91508 259.827679 
L 1141.670044 265.628957 
L 1150.419757 274.06718 
L 1159.169471 226.391223 
L 1167.924435 189.579477 
L 1176.6794 229.239123 
L 1185.429113 240.947157 
L 1194.178826 224.387145 
L 1202.92854 240.947157 
L 1211.683504 264.785135 
L 1220.433217 230.82129 
L 1229.188182 221.117334 
L 1229.188182 221.117334 
" clip-path="url(#p4f134e8fbf)" style="fill: none; stroke: #2ca02c; stroke-width: 1.5; stroke-linecap: square"/>
   </g>
   <g id="patch_3">
    <path d="M 52.94 390.04 
L 52.94 26.88 
" style="fill: none; stroke: #000000; stroke-width: 0.8; stroke-linejoin: miter; stroke-linecap: square"/>
   </g>
   <g id="patch_4">
    <path d="M 1285.2 390.04 
L 1285.2 26.88 
" style="fill: none; stroke: #000000; stroke-width: 0.8; stroke-linejoin: miter; stroke-linecap: square"/>
   </g>
   <g id="patch_5">
    <path d="M 52.94 390.04 
L 1285.2 390.04 
" style="fill: none; stroke: #000000; stroke-width: 0.8; stroke-linejoin: miter; stroke-linecap: square"/>
   </g>
   <g id="patch_6">
    <path d="M 52.94 26.88 
L 1285.2 26.88 
" style="fill: none; stroke: #000000; stroke-width: 0.8; stroke-linejoin: miter; stroke-linecap: square"/>
   </g>
   <g id="text_18">
    <!-- User 22, Action 1 -->
    <g transform="translate(617.523437 20.88) scale(0.12 -0.12)">
     <defs>
      <path id="DejaVuSans-55" d="M 556 4666 
L 1191 4666 
L 1191 1831 
Q 1191 1081 1462 751 
Q 1734 422 2344 422 
Q 2950 422 3222 751 
Q 3494 1081 3494 1831 
L 3494 4666 
L 4128 4666 
L 4128 1753 
Q 4128 841 3676 375 
Q 3225 -91 2344 -91 
Q 1459 -91 1007 375 
Q 556 841 556 1753 
L 556 4666 
z
" transform="scale(0.015625)"/>
      <path id="DejaVuSans-73" d="M 2834 3397 
L 2834 2853 
Q 2591 2978 2328 3040 
Q 2066 3103 1784 3103 
Q 1356 3103 1142 2972 
Q 928 2841 928 2578 
Q 928 2378 1081 2264 
Q 1234 2150 1697 2047 
L 1894 2003 
Q 2506 1872 2764 1633 
Q 3022 1394 3022 966 
Q 3022 478 2636 193 
Q 2250 -91 1575 -91 
Q 1294 -91 989 -36 
Q 684 19 347 128 
L 347 722 
Q 666 556 975 473 
Q 1284 391 1588 391 
Q 1994 391 2212 530 
Q 2431 669 2431 922 
Q 2431 1156 2273 1281 
Q 2116 1406 1581 1522 
L 1381 1569 
Q 847 1681 609 1914 
Q 372 2147 372 2553 
Q 372 3047 722 3315 
Q 1072 3584 1716 3584 
Q 2034 3584 2315 3537 
Q 2597 3491 2834 3397 
z
" transform="scale(0.015625)"/>
      <path id="DejaVuSans-72" d="M 2631 2963 
Q 2534 3019 2420 3045 
Q 2306 3072 2169 3072 
Q 1681 3072 1420 2755 
Q 1159 2438 1159 1844 
L 1159 0 
L 581 0 
L 581 3500 
L 1159 3500 
L 1159 2956 
Q 1341 3275 1631 3429 
Q 1922 3584 2338 3584 
Q 2397 3584 2469 3576 
Q 2541 3569 2628 3553 
L 2631 2963 
z
" transform="scale(0.015625)"/>
      <path id="DejaVuSans-20" transform="scale(0.015625)"/>
      <path id="DejaVuSans-2c" d="M 750 794 
L 1409 794 
L 1409 256 
L 897 -744 
L 494 -744 
L 750 256 
L 750 794 
z
" transform="scale(0.015625)"/>
      <path id="DejaVuSans-41" d="M 2188 4044 
L 1331 1722 
L 3047 1722 
L 2188 4044 
z
M 1831 4666 
L 2547 4666 
L 4325 0 
L 3669 0 
L 3244 1197 
L 1141 1197 
L 716 0 
L 50 0 
L 1831 4666 
z
" transform="scale(0.015625)"/>
      <path id="DejaVuSans-6f" d="M 1959 3097 
Q 1497 3097 1228 2736 
Q 959 2375 959 1747 
Q 959 1119 1226 758 
Q 1494 397 1959 397 
Q 2419 397 2687 759 
Q 2956 1122 2956 1747 
Q 2956 2369 2687 2733 
Q 2419 3097 1959 3097 
z
M 1959 3584 
Q 2709 3584 3137 3096 
Q 3566 2609 3566 1747 
Q 3566 888 3137 398 
Q 2709 -91 1959 -91 
Q 1206 -91 779 398 
Q 353 888 353 1747 
Q 353 2609 779 3096 
Q 1206 3584 1959 3584 
z
" transform="scale(0.015625)"/>
      <path id="DejaVuSans-6e" d="M 3513 2113 
L 3513 0 
L 2938 0 
L 2938 2094 
Q 2938 2591 2744 2837 
Q 2550 3084 2163 3084 
Q 1697 3084 1428 2787 
Q 1159 2491 1159 1978 
L 1159 0 
L 581 0 
L 581 3500 
L 1159 3500 
L 1159 2956 
Q 1366 3272 1645 3428 
Q 1925 3584 2291 3584 
Q 2894 3584 3203 3211 
Q 3513 2838 3513 2113 
z
" transform="scale(0.015625)"/>
     </defs>
     <use xlink:href="#DejaVuSans-55"/>
     <use xlink:href="#DejaVuSans-73" x="73.193359"/>
     <use xlink:href="#DejaVuSans-65" x="125.292969"/>
     <use xlink:href="#DejaVuSans-72" x="186.816406"/>
     <use xlink:href="#DejaVuSans-20" x="227.929688"/>
     <use xlink:href="#DejaVuSans-32" x="259.716797"/>
     <use xlink:href="#DejaVuSans-32" x="323.339844"/>
     <use xlink:href="#DejaVuSans-2c" x="386.962891"/>
     <use xlink:href="#DejaVuSans-20" x="418.75"/>
     <use xlink:href="#DejaVuSans-41" x="450.537109"/>
     <use xlink:href="#DejaVuSans-63" x="517.195312"/>
     <use xlink:href="#DejaVuSans-74" x="572.175781"/>
     <use xlink:href="#DejaVuSans-69" x="611.384766"/>
     <use xlink:href="#DejaVuSans-6f" x="639.167969"/>
     <use xlink:href="#DejaVuSans-6e" x="700.349609"/>
     <use xlink:href="#DejaVuSans-20" x="763.728516"/>
     <use xlink:href="#DejaVuSans-31" x="795.515625"/>
    </g>
   </g>
   <g id="legend_1">
    <g id="patch_7">
     <path d="M 59.94 78.914375 
L 118.591562 78.914375 
Q 120.591562 78.914375 120.591562 76.914375 
L 120.591562 33.88 
Q 120.591562 31.88 118.591562 31.88 
L 59.94 31.88 
Q 57.94 31.88 57.94 33.88 
L 57.94 76.914375 
Q 57.94 78.914375 59.94 78.914375 
z
" style="fill: #ffffff; opacity: 0.8; stroke: #cccccc; stroke-linejoin: miter"/>
    </g>
    <g id="line2d_18">
     <path d="M 61.94 39.978437 
L 71.94 39.978437 
L 81.94 39.978437 
" style="fill: none; stroke: #1f77b4; stroke-width: 1.5; stroke-linecap: square"/>
    </g>
    <g id="text_19">
     <!-- acc-x -->
     <g transform="translate(89.94 43.478437) scale(0.1 -0.1)">
      <defs>
       <path id="DejaVuSans-2d" d="M 313 2009 
L 1997 2009 
L 1997 1497 
L 313 1497 
L 313 2009 
z
" transform="scale(0.015625)"/>
       <path id="DejaVuSans-78" d="M 3513 3500 
L 2247 1797 
L 3578 0 
L 2900 0 
L 1881 1375 
L 863 0 
L 184 0 
L 1544 1831 
L 300 3500 
L 978 3500 
L 1906 2253 
L 2834 3500 
L 3513 3500 
z
" transform="scale(0.015625)"/>
      </defs>
      <use xlink:href="#DejaVuSans-61"/>
      <use xlink:href="#DejaVuSans-63" x="61.279297"/>
      <use xlink:href="#DejaVuSans-63" x="116.259766"/>
      <use xlink:href="#DejaVuSans-2d" x="171.240234"/>
      <use xlink:href="#DejaVuSans-78" x="207.324219"/>
     </g>
    </g>
    <g id="line2d_19">
     <path d="M 61.94 54.656563 
L 71.94 54.656563 
L 81.94 54.656563 
" style="fill: none; stroke: #ff7f0e; stroke-width: 1.5; stroke-linecap: square"/>
    </g>
    <g id="text_20">
     <!-- acc-y -->
     <g transform="translate(89.94 58.156563) scale(0.1 -0.1)">
      <defs>
       <path id="DejaVuSans-79" d="M 2059 -325 
Q 1816 -950 1584 -1140 
Q 1353 -1331 966 -1331 
L 506 -1331 
L 506 -850 
L 844 -850 
Q 1081 -850 1212 -737 
Q 1344 -625 1503 -206 
L 1606 56 
L 191 3500 
L 800 3500 
L 1894 763 
L 2988 3500 
L 3597 3500 
L 2059 -325 
z
" transform="scale(0.015625)"/>
      </defs>
      <use xlink:href="#DejaVuSans-61"/>
      <use xlink:href="#DejaVuSans-63" x="61.279297"/>
      <use xlink:href="#DejaVuSans-63" x="116.259766"/>
      <use xlink:href="#DejaVuSans-2d" x="171.240234"/>
      <use xlink:href="#DejaVuSans-79" x="205.574219"/>
     </g>
    </g>
    <g id="line2d_20">
     <path d="M 61.94 69.334687 
L 71.94 69.334687 
L 81.94 69.334687 
" style="fill: none; stroke: #2ca02c; stroke-width: 1.5; stroke-linecap: square"/>
    </g>
    <g id="text_21">
     <!-- acc-z -->
     <g transform="translate(89.94 72.834687) scale(0.1 -0.1)">
      <defs>
       <path id="DejaVuSans-7a" d="M 353 3500 
L 3084 3500 
L 3084 2975 
L 922 459 
L 3084 459 
L 3084 0 
L 275 0 
L 275 525 
L 2438 3041 
L 353 3041 
L 353 3500 
z
" transform="scale(0.015625)"/>
      </defs>
      <use xlink:href="#DejaVuSans-61"/>
      <use xlink:href="#DejaVuSans-63" x="61.279297"/>
      <use xlink:href="#DejaVuSans-63" x="116.259766"/>
      <use xlink:href="#DejaVuSans-2d" x="171.240234"/>
      <use xlink:href="#DejaVuSans-7a" x="207.324219"/>
     </g>
    </g>
   </g>
  </g>
 </g>
 <defs>
  <clipPath id="p4f134e8fbf">
   <rect x="52.94" y="26.88" width="1232.26" height="363.16"/>
  </clipPath>
 </defs>
</svg>
