<?xml version="1.0" encoding="utf-8" standalone="no"?>
<!DOCTYPE svg PUBLIC "-//W3C//DTD SVG 1.1//EN"
  "http://www.w3.org/Graphics/SVG/1.1/DTD/svg11.dtd">
<svg xmlns:xlink="http://www.w3.org/1999/xlink" width="1296pt" height="432pt" viewBox="0 0 1296 432" xmlns="http://www.w3.org/2000/svg" version="1.1">
 <metadata>
  <rdf:RDF xmlns:dc="http://purl.org/dc/elements/1.1/" xmlns:cc="http://creativecommons.org/ns#" xmlns:rdf="http://www.w3.org/1999/02/22-rdf-syntax-ns#">
   <cc:Work>
    <dc:type rdf:resource="http://purl.org/dc/dcmitype/StillImage"/>
    <dc:date>2025-03-28T12:11:17.369555</dc:date>
    <dc:format>image/svg+xml</dc:format>
    <dc:creator>
     <cc:Agent>
      <dc:title>Matplotlib v3.7.5, https://matplotlib.org/</dc:title>
     </cc:Agent>
    </dc:creator>
   </cc:Work>
  </rdf:RDF>
 </metadata>
 <defs>
  <style type="text/css">*{stroke-linejoin: round; stroke-linecap: butt}</style>
 </defs>
 <g id="figure_1">
  <g id="patch_1">
   <path d="M 0 432 
L 1296 432 
L 1296 0 
L 0 0 
z
" style="fill: #ffffff"/>
  </g>
  <g id="axes_1">
   <g id="patch_2">
    <path d="M 52.94 390.04 
L 1285.2 390.04 
L 1285.2 26.88 
L 52.94 26.88 
z
" style="fill: #ffffff"/>
   </g>
   <g id="matplotlib.axis_1">
    <g id="xtick_1">
     <g id="line2d_1">
      <defs>
       <path id="m885f8705a5" d="M 0 0 
L 0 3.5 
" style="stroke: #000000; stroke-width: 0.8"/>
      </defs>
      <g>
       <use xlink:href="#m885f8705a5" x="173.637655" y="390.04" style="stroke: #000000; stroke-width: 0.8"/>
      </g>
     </g>
     <g id="text_1">
      <!-- 2 -->
      <g transform="translate(170.456405 404.638438) scale(0.1 -0.1)">
       <defs>
        <path id="DejaVuSans-32" d="M 1228 531 
L 3431 531 
L 3431 0 
L 469 0 
L 469 531 
Q 828 903 1448 1529 
Q 2069 2156 2228 2338 
Q 2531 2678 2651 2914 
Q 2772 3150 2772 3378 
Q 2772 3750 2511 3984 
Q 2250 4219 1831 4219 
Q 1534 4219 1204 4116 
Q 875 4013 500 3803 
L 500 4441 
Q 881 4594 1212 4672 
Q 1544 4750 1819 4750 
Q 2544 4750 2975 4387 
Q 3406 4025 3406 3419 
Q 3406 3131 3298 2873 
Q 3191 2616 2906 2266 
Q 2828 2175 2409 1742 
Q 1991 1309 1228 531 
z
" transform="scale(0.015625)"/>
       </defs>
       <use xlink:href="#DejaVuSans-32"/>
      </g>
     </g>
    </g>
    <g id="xtick_2">
     <g id="line2d_2">
      <g>
       <use xlink:href="#m885f8705a5" x="349.224007" y="390.04" style="stroke: #000000; stroke-width: 0.8"/>
      </g>
     </g>
     <g id="text_2">
      <!-- 3 -->
      <g transform="translate(346.042757 404.638438) scale(0.1 -0.1)">
       <defs>
        <path id="DejaVuSans-33" d="M 2597 2516 
Q 3050 2419 3304 2112 
Q 3559 1806 3559 1356 
Q 3559 666 3084 287 
Q 2609 -91 1734 -91 
Q 1441 -91 1130 -33 
Q 819 25 488 141 
L 488 750 
Q 750 597 1062 519 
Q 1375 441 1716 441 
Q 2309 441 2620 675 
Q 2931 909 2931 1356 
Q 2931 1769 2642 2001 
Q 2353 2234 1838 2234 
L 1294 2234 
L 1294 2753 
L 1863 2753 
Q 2328 2753 2575 2939 
Q 2822 3125 2822 3475 
Q 2822 3834 2567 4026 
Q 2313 4219 1838 4219 
Q 1578 4219 1281 4162 
Q 984 4106 628 3988 
L 628 4550 
Q 988 4650 1302 4700 
Q 1616 4750 1894 4750 
Q 2613 4750 3031 4423 
Q 3450 4097 3450 3541 
Q 3450 3153 3228 2886 
Q 3006 2619 2597 2516 
z
" transform="scale(0.015625)"/>
       </defs>
       <use xlink:href="#DejaVuSans-33"/>
      </g>
     </g>
    </g>
    <g id="xtick_3">
     <g id="line2d_3">
      <g>
       <use xlink:href="#m885f8705a5" x="524.81036" y="390.04" style="stroke: #000000; stroke-width: 0.8"/>
      </g>
     </g>
     <g id="text_3">
      <!-- 4 -->
      <g transform="translate(521.62911 404.638438) scale(0.1 -0.1)">
       <defs>
        <path id="DejaVuSans-34" d="M 2419 4116 
L 825 1625 
L 2419 1625 
L 2419 4116 
z
M 2253 4666 
L 3047 4666 
L 3047 1625 
L 3713 1625 
L 3713 1100 
L 3047 1100 
L 3047 0 
L 2419 0 
L 2419 1100 
L 313 1100 
L 313 1709 
L 2253 4666 
z
" transform="scale(0.015625)"/>
       </defs>
       <use xlink:href="#DejaVuSans-34"/>
      </g>
     </g>
    </g>
    <g id="xtick_4">
     <g id="line2d_4">
      <g>
       <use xlink:href="#m885f8705a5" x="700.396712" y="390.04" style="stroke: #000000; stroke-width: 0.8"/>
      </g>
     </g>
     <g id="text_4">
      <!-- 5 -->
      <g transform="translate(697.215462 404.638438) scale(0.1 -0.1)">
       <defs>
        <path id="DejaVuSans-35" d="M 691 4666 
L 3169 4666 
L 3169 4134 
L 1269 4134 
L 1269 2991 
Q 1406 3038 1543 3061 
Q 1681 3084 1819 3084 
Q 2600 3084 3056 2656 
Q 3513 2228 3513 1497 
Q 3513 744 3044 326 
Q 2575 -91 1722 -91 
Q 1428 -91 1123 -41 
Q 819 9 494 109 
L 494 744 
Q 775 591 1075 516 
Q 1375 441 1709 441 
Q 2250 441 2565 725 
Q 2881 1009 2881 1497 
Q 2881 1984 2565 2268 
Q 2250 2553 1709 2553 
Q 1456 2553 1204 2497 
Q 953 2441 691 2322 
L 691 4666 
z
" transform="scale(0.015625)"/>
       </defs>
       <use xlink:href="#DejaVuSans-35"/>
      </g>
     </g>
    </g>
    <g id="xtick_5">
     <g id="line2d_5">
      <g>
       <use xlink:href="#m885f8705a5" x="875.983065" y="390.04" style="stroke: #000000; stroke-width: 0.8"/>
      </g>
     </g>
     <g id="text_5">
      <!-- 6 -->
      <g transform="translate(872.801815 404.638438) scale(0.1 -0.1)">
       <defs>
        <path id="DejaVuSans-36" d="M 2113 2584 
Q 1688 2584 1439 2293 
Q 1191 2003 1191 1497 
Q 1191 994 1439 701 
Q 1688 409 2113 409 
Q 2538 409 2786 701 
Q 3034 994 3034 1497 
Q 3034 2003 2786 2293 
Q 2538 2584 2113 2584 
z
M 3366 4563 
L 3366 3988 
Q 3128 4100 2886 4159 
Q 2644 4219 2406 4219 
Q 1781 4219 1451 3797 
Q 1122 3375 1075 2522 
Q 1259 2794 1537 2939 
Q 1816 3084 2150 3084 
Q 2853 3084 3261 2657 
Q 3669 2231 3669 1497 
Q 3669 778 3244 343 
Q 2819 -91 2113 -91 
Q 1303 -91 875 529 
Q 447 1150 447 2328 
Q 447 3434 972 4092 
Q 1497 4750 2381 4750 
Q 2619 4750 2861 4703 
Q 3103 4656 3366 4563 
z
" transform="scale(0.015625)"/>
       </defs>
       <use xlink:href="#DejaVuSans-36"/>
      </g>
     </g>
    </g>
    <g id="xtick_6">
     <g id="line2d_6">
      <g>
       <use xlink:href="#m885f8705a5" x="1051.569417" y="390.04" style="stroke: #000000; stroke-width: 0.8"/>
      </g>
     </g>
     <g id="text_6">
      <!-- 7 -->
      <g transform="translate(1048.388167 404.638438) scale(0.1 -0.1)">
       <defs>
        <path id="DejaVuSans-37" d="M 525 4666 
L 3525 4666 
L 3525 4397 
L 1831 0 
L 1172 0 
L 2766 4134 
L 525 4134 
L 525 4666 
z
" transform="scale(0.015625)"/>
       </defs>
       <use xlink:href="#DejaVuSans-37"/>
      </g>
     </g>
    </g>
    <g id="xtick_7">
     <g id="line2d_7">
      <g>
       <use xlink:href="#m885f8705a5" x="1227.15577" y="390.04" style="stroke: #000000; stroke-width: 0.8"/>
      </g>
     </g>
     <g id="text_7">
      <!-- 8 -->
      <g transform="translate(1223.97452 404.638438) scale(0.1 -0.1)">
       <defs>
        <path id="DejaVuSans-38" d="M 2034 2216 
Q 1584 2216 1326 1975 
Q 1069 1734 1069 1313 
Q 1069 891 1326 650 
Q 1584 409 2034 409 
Q 2484 409 2743 651 
Q 3003 894 3003 1313 
Q 3003 1734 2745 1975 
Q 2488 2216 2034 2216 
z
M 1403 2484 
Q 997 2584 770 2862 
Q 544 3141 544 3541 
Q 544 4100 942 4425 
Q 1341 4750 2034 4750 
Q 2731 4750 3128 4425 
Q 3525 4100 3525 3541 
Q 3525 3141 3298 2862 
Q 3072 2584 2669 2484 
Q 3125 2378 3379 2068 
Q 3634 1759 3634 1313 
Q 3634 634 3220 271 
Q 2806 -91 2034 -91 
Q 1263 -91 848 271 
Q 434 634 434 1313 
Q 434 1759 690 2068 
Q 947 2378 1403 2484 
z
M 1172 3481 
Q 1172 3119 1398 2916 
Q 1625 2713 2034 2713 
Q 2441 2713 2670 2916 
Q 2900 3119 2900 3481 
Q 2900 3844 2670 4047 
Q 2441 4250 2034 4250 
Q 1625 4250 1398 4047 
Q 1172 3844 1172 3481 
z
" transform="scale(0.015625)"/>
       </defs>
       <use xlink:href="#DejaVuSans-38"/>
      </g>
     </g>
    </g>
    <g id="text_8">
     <!-- time -->
     <g transform="translate(657.773906 418.316562) scale(0.1 -0.1)">
      <defs>
       <path id="DejaVuSans-74" d="M 1172 4494 
L 1172 3500 
L 2356 3500 
L 2356 3053 
L 1172 3053 
L 1172 1153 
Q 1172 725 1289 603 
Q 1406 481 1766 481 
L 2356 481 
L 2356 0 
L 1766 0 
Q 1100 0 847 248 
Q 594 497 594 1153 
L 594 3053 
L 172 3053 
L 172 3500 
L 594 3500 
L 594 4494 
L 1172 4494 
z
" transform="scale(0.015625)"/>
       <path id="DejaVuSans-69" d="M 603 3500 
L 1178 3500 
L 1178 0 
L 603 0 
L 603 3500 
z
M 603 4863 
L 1178 4863 
L 1178 4134 
L 603 4134 
L 603 4863 
z
" transform="scale(0.015625)"/>
       <path id="DejaVuSans-6d" d="M 3328 2828 
Q 3544 3216 3844 3400 
Q 4144 3584 4550 3584 
Q 5097 3584 5394 3201 
Q 5691 2819 5691 2113 
L 5691 0 
L 5113 0 
L 5113 2094 
Q 5113 2597 4934 2840 
Q 4756 3084 4391 3084 
Q 3944 3084 3684 2787 
Q 3425 2491 3425 1978 
L 3425 0 
L 2847 0 
L 2847 2094 
Q 2847 2600 2669 2842 
Q 2491 3084 2119 3084 
Q 1678 3084 1418 2786 
Q 1159 2488 1159 1978 
L 1159 0 
L 581 0 
L 581 3500 
L 1159 3500 
L 1159 2956 
Q 1356 3278 1631 3431 
Q 1906 3584 2284 3584 
Q 2666 3584 2933 3390 
Q 3200 3197 3328 2828 
z
" transform="scale(0.015625)"/>
       <path id="DejaVuSans-65" d="M 3597 1894 
L 3597 1613 
L 953 1613 
Q 991 1019 1311 708 
Q 1631 397 2203 397 
Q 2534 397 2845 478 
Q 3156 559 3463 722 
L 3463 178 
Q 3153 47 2828 -22 
Q 2503 -91 2169 -91 
Q 1331 -91 842 396 
Q 353 884 353 1716 
Q 353 2575 817 3079 
Q 1281 3584 2069 3584 
Q 2775 3584 3186 3129 
Q 3597 2675 3597 1894 
z
M 3022 2063 
Q 3016 2534 2758 2815 
Q 2500 3097 2075 3097 
Q 1594 3097 1305 2825 
Q 1016 2553 972 2059 
L 3022 2063 
z
" transform="scale(0.015625)"/>
      </defs>
      <use xlink:href="#DejaVuSans-74"/>
      <use xlink:href="#DejaVuSans-69" x="39.208984"/>
      <use xlink:href="#DejaVuSans-6d" x="66.992188"/>
      <use xlink:href="#DejaVuSans-65" x="164.404297"/>
     </g>
    </g>
    <g id="text_9">
     <!-- 1e9+1.583e13 -->
     <g transform="translate(1210.435938 417.316562) scale(0.1 -0.1)">
      <defs>
       <path id="DejaVuSans-31" d="M 794 531 
L 1825 531 
L 1825 4091 
L 703 3866 
L 703 4441 
L 1819 4666 
L 2450 4666 
L 2450 531 
L 3481 531 
L 3481 0 
L 794 0 
L 794 531 
z
" transform="scale(0.015625)"/>
       <path id="DejaVuSans-39" d="M 703 97 
L 703 672 
Q 941 559 1184 500 
Q 1428 441 1663 441 
Q 2288 441 2617 861 
Q 2947 1281 2994 2138 
Q 2813 1869 2534 1725 
Q 2256 1581 1919 1581 
Q 1219 1581 811 2004 
Q 403 2428 403 3163 
Q 403 3881 828 4315 
Q 1253 4750 1959 4750 
Q 2769 4750 3195 4129 
Q 3622 3509 3622 2328 
Q 3622 1225 3098 567 
Q 2575 -91 1691 -91 
Q 1453 -91 1209 -44 
Q 966 3 703 97 
z
M 1959 2075 
Q 2384 2075 2632 2365 
Q 2881 2656 2881 3163 
Q 2881 3666 2632 3958 
Q 2384 4250 1959 4250 
Q 1534 4250 1286 3958 
Q 1038 3666 1038 3163 
Q 1038 2656 1286 2365 
Q 1534 2075 1959 2075 
z
" transform="scale(0.015625)"/>
       <path id="DejaVuSans-2b" d="M 2944 4013 
L 2944 2272 
L 4684 2272 
L 4684 1741 
L 2944 1741 
L 2944 0 
L 2419 0 
L 2419 1741 
L 678 1741 
L 678 2272 
L 2419 2272 
L 2419 4013 
L 2944 4013 
z
" transform="scale(0.015625)"/>
       <path id="DejaVuSans-2e" d="M 684 794 
L 1344 794 
L 1344 0 
L 684 0 
L 684 794 
z
" transform="scale(0.015625)"/>
      </defs>
      <use xlink:href="#DejaVuSans-31"/>
      <use xlink:href="#DejaVuSans-65" x="63.623047"/>
      <use xlink:href="#DejaVuSans-39" x="125.146484"/>
      <use xlink:href="#DejaVuSans-2b" x="188.769531"/>
      <use xlink:href="#DejaVuSans-31" x="272.558594"/>
      <use xlink:href="#DejaVuSans-2e" x="336.181641"/>
      <use xlink:href="#DejaVuSans-35" x="367.96875"/>
      <use xlink:href="#DejaVuSans-38" x="431.591797"/>
      <use xlink:href="#DejaVuSans-33" x="495.214844"/>
      <use xlink:href="#DejaVuSans-65" x="558.837891"/>
      <use xlink:href="#DejaVuSans-31" x="620.361328"/>
      <use xlink:href="#DejaVuSans-33" x="683.984375"/>
     </g>
    </g>
   </g>
   <g id="matplotlib.axis_2">
    <g id="ytick_1">
     <g id="line2d_8">
      <defs>
       <path id="m687b3d6a14" d="M 0 0 
L -3.5 0 
" style="stroke: #000000; stroke-width: 0.8"/>
      </defs>
      <g>
       <use xlink:href="#m687b3d6a14" x="52.94" y="377.163483" style="stroke: #000000; stroke-width: 0.8"/>
      </g>
     </g>
     <g id="text_10">
      <!-- −20 -->
      <g transform="translate(24.835312 380.962702) scale(0.1 -0.1)">
       <defs>
        <path id="DejaVuSans-2212" d="M 678 2272 
L 4684 2272 
L 4684 1741 
L 678 1741 
L 678 2272 
z
" transform="scale(0.015625)"/>
        <path id="DejaVuSans-30" d="M 2034 4250 
Q 1547 4250 1301 3770 
Q 1056 3291 1056 2328 
Q 1056 1369 1301 889 
Q 1547 409 2034 409 
Q 2525 409 2770 889 
Q 3016 1369 3016 2328 
Q 3016 3291 2770 3770 
Q 2525 4250 2034 4250 
z
M 2034 4750 
Q 2819 4750 3233 4129 
Q 3647 3509 3647 2328 
Q 3647 1150 3233 529 
Q 2819 -91 2034 -91 
Q 1250 -91 836 529 
Q 422 1150 422 2328 
Q 422 3509 836 4129 
Q 1250 4750 2034 4750 
z
" transform="scale(0.015625)"/>
       </defs>
       <use xlink:href="#DejaVuSans-2212"/>
       <use xlink:href="#DejaVuSans-32" x="83.789062"/>
       <use xlink:href="#DejaVuSans-30" x="147.412109"/>
      </g>
     </g>
    </g>
    <g id="ytick_2">
     <g id="line2d_9">
      <g>
       <use xlink:href="#m687b3d6a14" x="52.94" y="334.945394" style="stroke: #000000; stroke-width: 0.8"/>
      </g>
     </g>
     <g id="text_11">
      <!-- −15 -->
      <g transform="translate(24.835312 338.744613) scale(0.1 -0.1)">
       <use xlink:href="#DejaVuSans-2212"/>
       <use xlink:href="#DejaVuSans-31" x="83.789062"/>
       <use xlink:href="#DejaVuSans-35" x="147.412109"/>
      </g>
     </g>
    </g>
    <g id="ytick_3">
     <g id="line2d_10">
      <g>
       <use xlink:href="#m687b3d6a14" x="52.94" y="292.727305" style="stroke: #000000; stroke-width: 0.8"/>
      </g>
     </g>
     <g id="text_12">
      <!-- −10 -->
      <g transform="translate(24.835312 296.526524) scale(0.1 -0.1)">
       <use xlink:href="#DejaVuSans-2212"/>
       <use xlink:href="#DejaVuSans-31" x="83.789062"/>
       <use xlink:href="#DejaVuSans-30" x="147.412109"/>
      </g>
     </g>
    </g>
    <g id="ytick_4">
     <g id="line2d_11">
      <g>
       <use xlink:href="#m687b3d6a14" x="52.94" y="250.509216" style="stroke: #000000; stroke-width: 0.8"/>
      </g>
     </g>
     <g id="text_13">
      <!-- −5 -->
      <g transform="translate(31.197812 254.308435) scale(0.1 -0.1)">
       <use xlink:href="#DejaVuSans-2212"/>
       <use xlink:href="#DejaVuSans-35" x="83.789062"/>
      </g>
     </g>
    </g>
    <g id="ytick_5">
     <g id="line2d_12">
      <g>
       <use xlink:href="#m687b3d6a14" x="52.94" y="208.291128" style="stroke: #000000; stroke-width: 0.8"/>
      </g>
     </g>
     <g id="text_14">
      <!-- 0 -->
      <g transform="translate(39.5775 212.090346) scale(0.1 -0.1)">
       <use xlink:href="#DejaVuSans-30"/>
      </g>
     </g>
    </g>
    <g id="ytick_6">
     <g id="line2d_13">
      <g>
       <use xlink:href="#m687b3d6a14" x="52.94" y="166.073039" style="stroke: #000000; stroke-width: 0.8"/>
      </g>
     </g>
     <g id="text_15">
      <!-- 5 -->
      <g transform="translate(39.5775 169.872258) scale(0.1 -0.1)">
       <use xlink:href="#DejaVuSans-35"/>
      </g>
     </g>
    </g>
    <g id="ytick_7">
     <g id="line2d_14">
      <g>
       <use xlink:href="#m687b3d6a14" x="52.94" y="123.85495" style="stroke: #000000; stroke-width: 0.8"/>
      </g>
     </g>
     <g id="text_16">
      <!-- 10 -->
      <g transform="translate(33.215 127.654169) scale(0.1 -0.1)">
       <use xlink:href="#DejaVuSans-31"/>
       <use xlink:href="#DejaVuSans-30" x="63.623047"/>
      </g>
     </g>
    </g>
    <g id="ytick_8">
     <g id="line2d_15">
      <g>
       <use xlink:href="#m687b3d6a14" x="52.94" y="81.636861" style="stroke: #000000; stroke-width: 0.8"/>
      </g>
     </g>
     <g id="text_17">
      <!-- 15 -->
      <g transform="translate(33.215 85.43608) scale(0.1 -0.1)">
       <use xlink:href="#DejaVuSans-31"/>
       <use xlink:href="#DejaVuSans-35" x="63.623047"/>
      </g>
     </g>
    </g>
    <g id="ytick_9">
     <g id="line2d_16">
      <g>
       <use xlink:href="#m687b3d6a14" x="52.94" y="39.418772" style="stroke: #000000; stroke-width: 0.8"/>
      </g>
     </g>
     <g id="text_18">
      <!-- 20 -->
      <g transform="translate(33.215 43.217991) scale(0.1 -0.1)">
       <use xlink:href="#DejaVuSans-32"/>
       <use xlink:href="#DejaVuSans-30" x="63.623047"/>
      </g>
     </g>
    </g>
    <g id="text_19">
     <!-- acc -->
     <g transform="translate(18.755625 217.0225) rotate(-90) scale(0.1 -0.1)">
      <defs>
       <path id="DejaVuSans-61" d="M 2194 1759 
Q 1497 1759 1228 1600 
Q 959 1441 959 1056 
Q 959 750 1161 570 
Q 1363 391 1709 391 
Q 2188 391 2477 730 
Q 2766 1069 2766 1631 
L 2766 1759 
L 2194 1759 
z
M 3341 1997 
L 3341 0 
L 2766 0 
L 2766 531 
Q 2569 213 2275 61 
Q 1981 -91 1556 -91 
Q 1019 -91 701 211 
Q 384 513 384 1019 
Q 384 1609 779 1909 
Q 1175 2209 1959 2209 
L 2766 2209 
L 2766 2266 
Q 2766 2663 2505 2880 
Q 2244 3097 1772 3097 
Q 1472 3097 1187 3025 
Q 903 2953 641 2809 
L 641 3341 
Q 956 3463 1253 3523 
Q 1550 3584 1831 3584 
Q 2591 3584 2966 3190 
Q 3341 2797 3341 1997 
z
" transform="scale(0.015625)"/>
       <path id="DejaVuSans-63" d="M 3122 3366 
L 3122 2828 
Q 2878 2963 2633 3030 
Q 2388 3097 2138 3097 
Q 1578 3097 1268 2742 
Q 959 2388 959 1747 
Q 959 1106 1268 751 
Q 1578 397 2138 397 
Q 2388 397 2633 464 
Q 2878 531 3122 666 
L 3122 134 
Q 2881 22 2623 -34 
Q 2366 -91 2075 -91 
Q 1284 -91 818 406 
Q 353 903 353 1747 
Q 353 2603 823 3093 
Q 1294 3584 2113 3584 
Q 2378 3584 2631 3529 
Q 2884 3475 3122 3366 
z
" transform="scale(0.015625)"/>
      </defs>
      <use xlink:href="#DejaVuSans-61"/>
      <use xlink:href="#DejaVuSans-63" x="61.279297"/>
      <use xlink:href="#DejaVuSans-63" x="116.259766"/>
     </g>
    </g>
   </g>
   <g id="line2d_17">
    <path d="M 108.951818 373.532727 
L 122.991001 301.424232 
L 129.999881 231.257768 
L 137.024915 245.780791 
L 144.055217 251.606887 
L 158.121089 352.254811 
L 165.124702 371.337387 
L 172.133582 331.567947 
L 186.194186 261.992537 
L 193.213777 250.593653 
L 200.260233 235.395141 
L 207.25296 240.292439 
L 214.320837 266.129909 
L 228.354576 276.515559 
L 235.379611 350.312778 
L 242.40447 328.950425 
L 249.408082 240.292439 
L 263.473954 315.693946 
L 270.472124 279.80857 
L 277.491715 276.853304 
L 284.522192 263.934569 
L 298.555932 264.863367 
L 305.591677 291.460763 
L 312.637957 304.126189 
L 319.64157 292.051816 
L 333.68602 300.748742 
L 340.705611 300.495434 
L 347.719935 288.252188 
L 354.755504 278.204283 
L 368.805573 312.485371 
L 375.825164 370.324153 
L 382.866177 363.569258 
L 389.875057 331.821256 
L 403.940929 352.254811 
L 410.965963 364.244748 
L 417.974844 347.357512 
L 425.010413 303.704008 
L 439.060306 232.524311 
L 446.058476 206.011351 
L 453.08351 229.315736 
L 460.108545 247.131769 
L 474.147727 252.873429 
L 482.003109 276.853304 
L 488.733334 366.440088 
L 495.292187 259.121707 
L 509.267105 347.357512 
L 516.297407 298.553402 
L 523.332976 258.108472 
L 530.341857 264.525622 
L 544.391925 268.409686 
L 551.411517 187.266519 
L 558.431108 267.903069 
L 565.46141 369.648663 
L 579.522014 373.532727 
L 586.552316 330.216968 
L 593.550485 248.398312 
L 600.580787 250.931397 
L 614.646659 275.249017 
L 621.666426 356.729928 
L 628.680574 370.324153 
L 635.721586 341.615852 
L 649.77148 253.633355 
L 656.769649 253.9711 
L 663.805394 247.385078 
L 677.833866 239.363641 
L 684.858725 226.107161 
L 691.905181 232.186566 
L 698.90335 329.96366 
L 712.953244 210.570904 
L 719.999699 224.165129 
L 727.019291 322.533276 
L 734.038882 317.635978 
L 741.05303 271.280516 
L 755.092212 257.770728 
L 762.122514 238.688152 
L 769.142105 237.083864 
L 776.188561 239.363641 
L 790.21159 373.194983 
L 797.236624 373.194983 
L 804.256215 366.440088 
L 811.286517 328.274936 
L 825.609798 255.237642 
L 832.340023 226.444906 
L 839.397014 278.204283 
L 846.416606 364.244748 
L 860.466499 345.499916 
L 867.470112 275.586761 
L 874.5487 237.083864 
L 888.55575 254.139972 
L 895.559187 256.84193 
L 902.605643 223.827384 
L 909.603813 221.885352 
L 916.778798 260.050505 
L 930.699986 269.507356 
L 937.725021 204.069319 
L 944.744612 225.093927 
L 951.774914 309.530105 
L 965.797942 275.249017 
L 972.822977 260.388249 
L 979.858722 249.664855 
L 986.840738 244.514248 
L 1000.928206 250.002599 
L 1008.360425 300.748742 
L 1014.961945 339.589384 
L 1021.992247 373.532727 
L 1029.027993 373.532727 
L 1044.942613 289.180986 
L 1052.005047 238.688152 
L 1058.858534 244.851993 
L 1065.888836 241.643418 
L 1079.944172 351.241576 
L 1086.95832 346.766459 
L 1093.994065 319.831318 
L 1101.008213 286.22572 
L 1115.047571 248.398312 
L 1122.067162 254.139972 
L 1129.113443 259.121707 
L 1136.143745 266.805399 
L 1150.461582 318.227031 
L 1158.944159 335.70532 
L 1165.96375 231.848821 
L 1173.010031 259.375015 
L 1180.013644 312.147626 
L 1194.079515 283.608198 
L 1201.083128 264.863367 
L 1208.107987 274.320219 
L 1215.127578 285.55023 
L 1229.188182 298.215657 
L 1229.188182 298.215657 
" clip-path="url(#pe007b42654)" style="fill: none; stroke: #1f77b4; stroke-width: 1.5; stroke-linecap: square"/>
   </g>
   <g id="line2d_18">
    <path d="M 108.951818 187.942009 
L 122.991001 131.36977 
L 129.999881 137.11143 
L 137.024915 127.401269 
L 144.055217 195.625701 
L 158.121089 193.092616 
L 165.124702 211.837447 
L 172.133582 236.492811 
L 186.194186 213.441734 
L 193.213777 175.614327 
L 200.260233 166.579656 
L 207.25296 177.556359 
L 214.320837 190.812839 
L 228.354576 172.068007 
L 235.379611 74.628658 
L 242.40447 153.914229 
L 249.408082 202.465031 
L 263.473954 166.157475 
L 270.472124 179.7517 
L 277.491715 176.543125 
L 284.522192 179.498391 
L 298.555932 196.30119 
L 305.591677 237.759354 
L 312.637957 190.812839 
L 319.64157 196.638935 
L 333.68602 195.287956 
L 340.705611 174.347784 
L 347.719935 149.439112 
L 354.755504 136.773685 
L 368.805573 144.204069 
L 375.825164 154.927463 
L 382.866177 193.092616 
L 389.875057 247.385078 
L 403.940929 234.128598 
L 410.965963 200.269691 
L 417.974844 188.870807 
L 425.010413 181.187115 
L 439.060306 199.931946 
L 446.058476 189.208551 
L 453.08351 120.98412 
L 460.108545 215.046022 
L 474.147727 185.662232 
L 482.003109 123.179461 
L 488.733334 65.678424 
L 495.292187 216.650309 
L 509.267105 180.089444 
L 516.297407 199.509765 
L 523.332976 205.420298 
L 530.341857 186.337721 
L 544.391925 176.543125 
L 551.411517 126.72578 
L 558.431108 160.07807 
L 565.46141 223.151895 
L 579.522014 126.219163 
L 586.552316 98.692969 
L 593.550485 138.715717 
L 600.580787 154.927463 
L 614.646659 172.996805 
L 628.680574 190.475094 
L 635.721586 227.711449 
L 649.77148 189.546296 
L 656.769649 137.786919 
L 663.805394 181.187115 
L 677.833866 214.370532 
L 684.858725 202.465031 
L 691.905181 126.388035 
L 698.90335 43.387273 
L 712.953244 227.373704 
L 719.999699 225.093927 
L 727.019291 172.405752 
L 734.038882 168.521688 
L 741.05303 180.089444 
L 755.092212 183.129147 
L 762.122514 196.638935 
L 769.142105 184.986743 
L 776.188561 201.536233 
L 790.21159 222.223097 
L 797.236624 156.869495 
L 804.256215 183.298019 
L 811.286517 170.801465 
L 825.609798 109.078619 
L 832.340023 142.937526 
L 839.397014 189.884041 
L 846.416606 191.488328 
L 860.466499 226.107161 
L 867.470112 222.898586 
L 874.5487 184.733434 
L 888.55575 199.17202 
L 895.559187 212.512937 
L 902.605643 207.36233 
L 909.603813 187.266519 
L 916.778798 95.14665 
L 930.699986 157.20724 
L 937.725021 223.151895 
L 944.744612 209.55767 
L 951.774914 174.601093 
L 965.797942 182.453657 
L 972.822977 184.057945 
L 979.858722 201.536233 
L 986.840738 207.615638 
L 1000.928206 116.086822 
L 1008.360425 197.905478 
L 1014.961945 289.518731 
L 1021.992247 167.59289 
L 1029.027993 167.59289 
L 1044.942613 147.074899 
L 1052.005047 150.705654 
L 1058.858534 165.650858 
L 1065.888836 191.488328 
L 1079.944172 187.266519 
L 1086.95832 203.81601 
L 1093.994065 228.640246 
L 1101.008213 224.165129 
L 1122.067162 185.324487 
L 1129.113443 194.696903 
L 1136.143745 189.208551 
L 1150.461582 89.236117 
L 1158.944159 138.124664 
L 1165.96375 195.287956 
L 1173.010031 183.7202 
L 1180.013644 178.822902 
L 1194.079515 183.129147 
L 1201.083128 191.150584 
L 1208.107987 189.884041 
L 1215.127578 210.824213 
L 1229.188182 208.291128 
L 1229.188182 208.291128 
" clip-path="url(#pe007b42654)" style="fill: none; stroke: #ff7f0e; stroke-width: 1.5; stroke-linecap: square"/>
   </g>
   <g id="line2d_19">
    <path d="M 108.951818 215.805947 
L 122.991001 259.71276 
L 129.999881 334.438777 
L 137.024915 259.71276 
L 144.055217 239.025896 
L 158.121089 241.305673 
L 165.124702 244.851993 
L 172.133582 243.58545 
L 186.194186 204.407063 
L 193.213777 195.372392 
L 200.260233 222.223097 
L 207.25296 196.30119 
L 214.320837 212.766245 
L 228.354576 250.42478 
L 235.379611 276.515559 
L 242.40447 210.23316 
L 249.408082 217.916852 
L 263.473954 227.373704 
L 270.472124 230.244534 
L 277.491715 232.524311 
L 284.522192 233.453109 
L 298.555932 219.014522 
L 305.591677 124.192695 
L 312.637957 217.410235 
L 319.64157 212.512937 
L 333.68602 231.848821 
L 340.705611 240.292439 
L 347.719935 217.410235 
L 354.755504 243.838758 
L 368.805573 258.446217 
L 375.825164 280.737368 
L 382.866177 326.079595 
L 389.875057 328.950425 
L 403.940929 266.805399 
L 410.965963 227.711449 
L 417.974844 185.071179 
L 425.010413 210.23316 
L 439.060306 236.830556 
L 446.058476 245.443046 
L 453.08351 261.992537 
L 460.108545 203.140521 
L 474.147727 184.733434 
L 482.003109 293.993848 
L 488.733334 206.349096 
L 509.267105 223.48964 
L 516.297407 223.151895 
L 523.332976 224.165129 
L 530.341857 255.575387 
L 544.391925 314.680711 
L 551.411517 210.570904 
L 558.431108 223.827384 
L 565.46141 184.395689 
L 579.522014 219.352267 
L 586.552316 269.169612 
L 593.550485 326.670649 
L 600.580787 258.108472 
L 614.646659 233.453109 
L 621.666426 245.780791 
L 628.680574 253.9711 
L 635.721586 246.118535 
L 649.77148 228.640246 
L 656.769649 196.638935 
L 663.805394 185.999977 
L 677.833866 217.74798 
L 684.858725 239.363641 
L 691.905181 274.320219 
L 698.90335 304.295062 
L 712.953244 207.615638 
L 719.999699 218.254597 
L 727.019291 220.956554 
L 734.038882 221.547608 
L 741.05303 243.58545 
L 755.092212 279.133081 
L 762.122514 273.306984 
L 769.142105 275.586761 
L 776.188561 185.662232 
L 797.236624 238.688152 
L 804.256215 292.389561 
L 811.286517 247.722823 
L 825.609798 275.924506 
L 832.340023 239.363641 
L 839.397014 238.434843 
L 846.416606 250.002599 
L 860.466499 241.305673 
L 867.470112 215.383767 
L 874.5487 181.693732 
L 888.55575 179.160646 
L 895.559187 222.898586 
L 902.605643 239.025896 
L 909.603813 237.083864 
L 916.778798 275.586761 
L 930.699986 219.352267 
L 937.725021 206.349096 
L 944.744612 215.383767 
L 951.774914 213.441734 
L 965.797942 219.521139 
L 972.822977 247.722823 
L 979.858722 260.388249 
L 986.840738 266.805399 
L 1000.928206 176.289816 
L 1008.360425 213.441734 
L 1014.961945 208.966617 
L 1021.992247 248.060567 
L 1029.027993 251.606887 
L 1044.942613 251.606887 
L 1052.005047 277.528793 
L 1058.858534 261.317047 
L 1065.888836 239.025896 
L 1079.944172 231.848821 
L 1086.95832 231.848821 
L 1093.994065 248.060567 
L 1101.008213 219.352267 
L 1115.047571 197.567733 
L 1122.067162 180.089444 
L 1129.113443 204.744808 
L 1136.143745 219.352267 
L 1150.461582 305.392732 
L 1158.944159 205.758042 
L 1165.96375 209.219926 
L 1173.010031 212.175192 
L 1180.013644 223.827384 
L 1194.079515 222.560842 
L 1201.083128 215.046022 
L 1208.107987 219.352267 
L 1215.127578 179.920572 
L 1229.188182 178.485157 
L 1229.188182 178.485157 
" clip-path="url(#pe007b42654)" style="fill: none; stroke: #2ca02c; stroke-width: 1.5; stroke-linecap: square"/>
   </g>
   <g id="patch_3">
    <path d="M 52.94 390.04 
L 52.94 26.88 
" style="fill: none; stroke: #000000; stroke-width: 0.8; stroke-linejoin: miter; stroke-linecap: square"/>
   </g>
   <g id="patch_4">
    <path d="M 1285.2 390.04 
L 1285.2 26.88 
" style="fill: none; stroke: #000000; stroke-width: 0.8; stroke-linejoin: miter; stroke-linecap: square"/>
   </g>
   <g id="patch_5">
    <path d="M 52.94 390.04 
L 1285.2 390.04 
" style="fill: none; stroke: #000000; stroke-width: 0.8; stroke-linejoin: miter; stroke-linecap: square"/>
   </g>
   <g id="patch_6">
    <path d="M 52.94 26.88 
L 1285.2 26.88 
" style="fill: none; stroke: #000000; stroke-width: 0.8; stroke-linejoin: miter; stroke-linecap: square"/>
   </g>
   <g id="text_20">
    <!-- User 24, Action 2 -->
    <g transform="translate(617.523437 20.88) scale(0.12 -0.12)">
     <defs>
      <path id="DejaVuSans-55" d="M 556 4666 
L 1191 4666 
L 1191 1831 
Q 1191 1081 1462 751 
Q 1734 422 2344 422 
Q 2950 422 3222 751 
Q 3494 1081 3494 1831 
L 3494 4666 
L 4128 4666 
L 4128 1753 
Q 4128 841 3676 375 
Q 3225 -91 2344 -91 
Q 1459 -91 1007 375 
Q 556 841 556 1753 
L 556 4666 
z
" transform="scale(0.015625)"/>
      <path id="DejaVuSans-73" d="M 2834 3397 
L 2834 2853 
Q 2591 2978 2328 3040 
Q 2066 3103 1784 3103 
Q 1356 3103 1142 2972 
Q 928 2841 928 2578 
Q 928 2378 1081 2264 
Q 1234 2150 1697 2047 
L 1894 2003 
Q 2506 1872 2764 1633 
Q 3022 1394 3022 966 
Q 3022 478 2636 193 
Q 2250 -91 1575 -91 
Q 1294 -91 989 -36 
Q 684 19 347 128 
L 347 722 
Q 666 556 975 473 
Q 1284 391 1588 391 
Q 1994 391 2212 530 
Q 2431 669 2431 922 
Q 2431 1156 2273 1281 
Q 2116 1406 1581 1522 
L 1381 1569 
Q 847 1681 609 1914 
Q 372 2147 372 2553 
Q 372 3047 722 3315 
Q 1072 3584 1716 3584 
Q 2034 3584 2315 3537 
Q 2597 3491 2834 3397 
z
" transform="scale(0.015625)"/>
      <path id="DejaVuSans-72" d="M 2631 2963 
Q 2534 3019 2420 3045 
Q 2306 3072 2169 3072 
Q 1681 3072 1420 2755 
Q 1159 2438 1159 1844 
L 1159 0 
L 581 0 
L 581 3500 
L 1159 3500 
L 1159 2956 
Q 1341 3275 1631 3429 
Q 1922 3584 2338 3584 
Q 2397 3584 2469 3576 
Q 2541 3569 2628 3553 
L 2631 2963 
z
" transform="scale(0.015625)"/>
      <path id="DejaVuSans-20" transform="scale(0.015625)"/>
      <path id="DejaVuSans-2c" d="M 750 794 
L 1409 794 
L 1409 256 
L 897 -744 
L 494 -744 
L 750 256 
L 750 794 
z
" transform="scale(0.015625)"/>
      <path id="DejaVuSans-41" d="M 2188 4044 
L 1331 1722 
L 3047 1722 
L 2188 4044 
z
M 1831 4666 
L 2547 4666 
L 4325 0 
L 3669 0 
L 3244 1197 
L 1141 1197 
L 716 0 
L 50 0 
L 1831 4666 
z
" transform="scale(0.015625)"/>
      <path id="DejaVuSans-6f" d="M 1959 3097 
Q 1497 3097 1228 2736 
Q 959 2375 959 1747 
Q 959 1119 1226 758 
Q 1494 397 1959 397 
Q 2419 397 2687 759 
Q 2956 1122 2956 1747 
Q 2956 2369 2687 2733 
Q 2419 3097 1959 3097 
z
M 1959 3584 
Q 2709 3584 3137 3096 
Q 3566 2609 3566 1747 
Q 3566 888 3137 398 
Q 2709 -91 1959 -91 
Q 1206 -91 779 398 
Q 353 888 353 1747 
Q 353 2609 779 3096 
Q 1206 3584 1959 3584 
z
" transform="scale(0.015625)"/>
      <path id="DejaVuSans-6e" d="M 3513 2113 
L 3513 0 
L 2938 0 
L 2938 2094 
Q 2938 2591 2744 2837 
Q 2550 3084 2163 3084 
Q 1697 3084 1428 2787 
Q 1159 2491 1159 1978 
L 1159 0 
L 581 0 
L 581 3500 
L 1159 3500 
L 1159 2956 
Q 1366 3272 1645 3428 
Q 1925 3584 2291 3584 
Q 2894 3584 3203 3211 
Q 3513 2838 3513 2113 
z
" transform="scale(0.015625)"/>
     </defs>
     <use xlink:href="#DejaVuSans-55"/>
     <use xlink:href="#DejaVuSans-73" x="73.193359"/>
     <use xlink:href="#DejaVuSans-65" x="125.292969"/>
     <use xlink:href="#DejaVuSans-72" x="186.816406"/>
     <use xlink:href="#DejaVuSans-20" x="227.929688"/>
     <use xlink:href="#DejaVuSans-32" x="259.716797"/>
     <use xlink:href="#DejaVuSans-34" x="323.339844"/>
     <use xlink:href="#DejaVuSans-2c" x="386.962891"/>
     <use xlink:href="#DejaVuSans-20" x="418.75"/>
     <use xlink:href="#DejaVuSans-41" x="450.537109"/>
     <use xlink:href="#DejaVuSans-63" x="517.195312"/>
     <use xlink:href="#DejaVuSans-74" x="572.175781"/>
     <use xlink:href="#DejaVuSans-69" x="611.384766"/>
     <use xlink:href="#DejaVuSans-6f" x="639.167969"/>
     <use xlink:href="#DejaVuSans-6e" x="700.349609"/>
     <use xlink:href="#DejaVuSans-20" x="763.728516"/>
     <use xlink:href="#DejaVuSans-32" x="795.515625"/>
    </g>
   </g>
   <g id="legend_1">
    <g id="patch_7">
     <path d="M 1219.548438 78.914375 
L 1278.2 78.914375 
Q 1280.2 78.914375 1280.2 76.914375 
L 1280.2 33.88 
Q 1280.2 31.88 1278.2 31.88 
L 1219.548438 31.88 
Q 1217.548438 31.88 1217.548438 33.88 
L 1217.548438 76.914375 
Q 1217.548438 78.914375 1219.548438 78.914375 
z
" style="fill: #ffffff; opacity: 0.8; stroke: #cccccc; stroke-linejoin: miter"/>
    </g>
    <g id="line2d_20">
     <path d="M 1221.548438 39.978437 
L 1231.548438 39.978437 
L 1241.548438 39.978437 
" style="fill: none; stroke: #1f77b4; stroke-width: 1.5; stroke-linecap: square"/>
    </g>
    <g id="text_21">
     <!-- acc-x -->
     <g transform="translate(1249.548438 43.478437) scale(0.1 -0.1)">
      <defs>
       <path id="DejaVuSans-2d" d="M 313 2009 
L 1997 2009 
L 1997 1497 
L 313 1497 
L 313 2009 
z
" transform="scale(0.015625)"/>
       <path id="DejaVuSans-78" d="M 3513 3500 
L 2247 1797 
L 3578 0 
L 2900 0 
L 1881 1375 
L 863 0 
L 184 0 
L 1544 1831 
L 300 3500 
L 978 3500 
L 1906 2253 
L 2834 3500 
L 3513 3500 
z
" transform="scale(0.015625)"/>
      </defs>
      <use xlink:href="#DejaVuSans-61"/>
      <use xlink:href="#DejaVuSans-63" x="61.279297"/>
      <use xlink:href="#DejaVuSans-63" x="116.259766"/>
      <use xlink:href="#DejaVuSans-2d" x="171.240234"/>
      <use xlink:href="#DejaVuSans-78" x="207.324219"/>
     </g>
    </g>
    <g id="line2d_21">
     <path d="M 1221.548438 54.656563 
L 1231.548438 54.656563 
L 1241.548438 54.656563 
" style="fill: none; stroke: #ff7f0e; stroke-width: 1.5; stroke-linecap: square"/>
    </g>
    <g id="text_22">
     <!-- acc-y -->
     <g transform="translate(1249.548438 58.156563) scale(0.1 -0.1)">
      <defs>
       <path id="DejaVuSans-79" d="M 2059 -325 
Q 1816 -950 1584 -1140 
Q 1353 -1331 966 -1331 
L 506 -1331 
L 506 -850 
L 844 -850 
Q 1081 -850 1212 -737 
Q 1344 -625 1503 -206 
L 1606 56 
L 191 3500 
L 800 3500 
L 1894 763 
L 2988 3500 
L 3597 3500 
L 2059 -325 
z
" transform="scale(0.015625)"/>
      </defs>
      <use xlink:href="#DejaVuSans-61"/>
      <use xlink:href="#DejaVuSans-63" x="61.279297"/>
      <use xlink:href="#DejaVuSans-63" x="116.259766"/>
      <use xlink:href="#DejaVuSans-2d" x="171.240234"/>
      <use xlink:href="#DejaVuSans-79" x="205.574219"/>
     </g>
    </g>
    <g id="line2d_22">
     <path d="M 1221.548438 69.334687 
L 1231.548438 69.334687 
L 1241.548438 69.334687 
" style="fill: none; stroke: #2ca02c; stroke-width: 1.5; stroke-linecap: square"/>
    </g>
    <g id="text_23">
     <!-- acc-z -->
     <g transform="translate(1249.548438 72.834687) scale(0.1 -0.1)">
      <defs>
       <path id="DejaVuSans-7a" d="M 353 3500 
L 3084 3500 
L 3084 2975 
L 922 459 
L 3084 459 
L 3084 0 
L 275 0 
L 275 525 
L 2438 3041 
L 353 3041 
L 353 3500 
z
" transform="scale(0.015625)"/>
      </defs>
      <use xlink:href="#DejaVuSans-61"/>
      <use xlink:href="#DejaVuSans-63" x="61.279297"/>
      <use xlink:href="#DejaVuSans-63" x="116.259766"/>
      <use xlink:href="#DejaVuSans-2d" x="171.240234"/>
      <use xlink:href="#DejaVuSans-7a" x="207.324219"/>
     </g>
    </g>
   </g>
  </g>
 </g>
 <defs>
  <clipPath id="pe007b42654">
   <rect x="52.94" y="26.88" width="1232.26" height="363.16"/>
  </clipPath>
 </defs>
</svg>
