<?xml version="1.0" encoding="utf-8" standalone="no"?>
<!DOCTYPE svg PUBLIC "-//W3C//DTD SVG 1.1//EN"
  "http://www.w3.org/Graphics/SVG/1.1/DTD/svg11.dtd">
<svg xmlns:xlink="http://www.w3.org/1999/xlink" width="1296pt" height="432pt" viewBox="0 0 1296 432" xmlns="http://www.w3.org/2000/svg" version="1.1">
 <metadata>
  <rdf:RDF xmlns:dc="http://purl.org/dc/elements/1.1/" xmlns:cc="http://creativecommons.org/ns#" xmlns:rdf="http://www.w3.org/1999/02/22-rdf-syntax-ns#">
   <cc:Work>
    <dc:type rdf:resource="http://purl.org/dc/dcmitype/StillImage"/>
    <dc:date>2025-03-28T12:11:21.278529</dc:date>
    <dc:format>image/svg+xml</dc:format>
    <dc:creator>
     <cc:Agent>
      <dc:title>Matplotlib v3.7.5, https://matplotlib.org/</dc:title>
     </cc:Agent>
    </dc:creator>
   </cc:Work>
  </rdf:RDF>
 </metadata>
 <defs>
  <style type="text/css">*{stroke-linejoin: round; stroke-linecap: butt}</style>
 </defs>
 <g id="figure_1">
  <g id="patch_1">
   <path d="M 0 432 
L 1296 432 
L 1296 0 
L 0 0 
z
" style="fill: #ffffff"/>
  </g>
  <g id="axes_1">
   <g id="patch_2">
    <path d="M 52.94 390.04 
L 1285.2 390.04 
L 1285.2 26.88 
L 52.94 26.88 
z
" style="fill: #ffffff"/>
   </g>
   <g id="matplotlib.axis_1">
    <g id="xtick_1">
     <g id="line2d_1">
      <defs>
       <path id="m48aeb1cfe3" d="M 0 0 
L 0 3.5 
" style="stroke: #000000; stroke-width: 0.8"/>
      </defs>
      <g>
       <use xlink:href="#m48aeb1cfe3" x="222.544034" y="390.04" style="stroke: #000000; stroke-width: 0.8"/>
      </g>
     </g>
     <g id="text_1">
      <!-- 0 -->
      <g transform="translate(219.362784 404.638438) scale(0.1 -0.1)">
       <defs>
        <path id="DejaVuSans-30" d="M 2034 4250 
Q 1547 4250 1301 3770 
Q 1056 3291 1056 2328 
Q 1056 1369 1301 889 
Q 1547 409 2034 409 
Q 2525 409 2770 889 
Q 3016 1369 3016 2328 
Q 3016 3291 2770 3770 
Q 2525 4250 2034 4250 
z
M 2034 4750 
Q 2819 4750 3233 4129 
Q 3647 3509 3647 2328 
Q 3647 1150 3233 529 
Q 2819 -91 2034 -91 
Q 1250 -91 836 529 
Q 422 1150 422 2328 
Q 422 3509 836 4129 
Q 1250 4750 2034 4750 
z
" transform="scale(0.015625)"/>
       </defs>
       <use xlink:href="#DejaVuSans-30"/>
      </g>
     </g>
    </g>
    <g id="xtick_2">
     <g id="line2d_2">
      <g>
       <use xlink:href="#m48aeb1cfe3" x="398.155573" y="390.04" style="stroke: #000000; stroke-width: 0.8"/>
      </g>
     </g>
     <g id="text_2">
      <!-- 1 -->
      <g transform="translate(394.974323 404.638438) scale(0.1 -0.1)">
       <defs>
        <path id="DejaVuSans-31" d="M 794 531 
L 1825 531 
L 1825 4091 
L 703 3866 
L 703 4441 
L 1819 4666 
L 2450 4666 
L 2450 531 
L 3481 531 
L 3481 0 
L 794 0 
L 794 531 
z
" transform="scale(0.015625)"/>
       </defs>
       <use xlink:href="#DejaVuSans-31"/>
      </g>
     </g>
    </g>
    <g id="xtick_3">
     <g id="line2d_3">
      <g>
       <use xlink:href="#m48aeb1cfe3" x="573.767111" y="390.04" style="stroke: #000000; stroke-width: 0.8"/>
      </g>
     </g>
     <g id="text_3">
      <!-- 2 -->
      <g transform="translate(570.585861 404.638438) scale(0.1 -0.1)">
       <defs>
        <path id="DejaVuSans-32" d="M 1228 531 
L 3431 531 
L 3431 0 
L 469 0 
L 469 531 
Q 828 903 1448 1529 
Q 2069 2156 2228 2338 
Q 2531 2678 2651 2914 
Q 2772 3150 2772 3378 
Q 2772 3750 2511 3984 
Q 2250 4219 1831 4219 
Q 1534 4219 1204 4116 
Q 875 4013 500 3803 
L 500 4441 
Q 881 4594 1212 4672 
Q 1544 4750 1819 4750 
Q 2544 4750 2975 4387 
Q 3406 4025 3406 3419 
Q 3406 3131 3298 2873 
Q 3191 2616 2906 2266 
Q 2828 2175 2409 1742 
Q 1991 1309 1228 531 
z
" transform="scale(0.015625)"/>
       </defs>
       <use xlink:href="#DejaVuSans-32"/>
      </g>
     </g>
    </g>
    <g id="xtick_4">
     <g id="line2d_4">
      <g>
       <use xlink:href="#m48aeb1cfe3" x="749.378649" y="390.04" style="stroke: #000000; stroke-width: 0.8"/>
      </g>
     </g>
     <g id="text_4">
      <!-- 3 -->
      <g transform="translate(746.197399 404.638438) scale(0.1 -0.1)">
       <defs>
        <path id="DejaVuSans-33" d="M 2597 2516 
Q 3050 2419 3304 2112 
Q 3559 1806 3559 1356 
Q 3559 666 3084 287 
Q 2609 -91 1734 -91 
Q 1441 -91 1130 -33 
Q 819 25 488 141 
L 488 750 
Q 750 597 1062 519 
Q 1375 441 1716 441 
Q 2309 441 2620 675 
Q 2931 909 2931 1356 
Q 2931 1769 2642 2001 
Q 2353 2234 1838 2234 
L 1294 2234 
L 1294 2753 
L 1863 2753 
Q 2328 2753 2575 2939 
Q 2822 3125 2822 3475 
Q 2822 3834 2567 4026 
Q 2313 4219 1838 4219 
Q 1578 4219 1281 4162 
Q 984 4106 628 3988 
L 628 4550 
Q 988 4650 1302 4700 
Q 1616 4750 1894 4750 
Q 2613 4750 3031 4423 
Q 3450 4097 3450 3541 
Q 3450 3153 3228 2886 
Q 3006 2619 2597 2516 
z
" transform="scale(0.015625)"/>
       </defs>
       <use xlink:href="#DejaVuSans-33"/>
      </g>
     </g>
    </g>
    <g id="xtick_5">
     <g id="line2d_5">
      <g>
       <use xlink:href="#m48aeb1cfe3" x="924.990187" y="390.04" style="stroke: #000000; stroke-width: 0.8"/>
      </g>
     </g>
     <g id="text_5">
      <!-- 4 -->
      <g transform="translate(921.808937 404.638438) scale(0.1 -0.1)">
       <defs>
        <path id="DejaVuSans-34" d="M 2419 4116 
L 825 1625 
L 2419 1625 
L 2419 4116 
z
M 2253 4666 
L 3047 4666 
L 3047 1625 
L 3713 1625 
L 3713 1100 
L 3047 1100 
L 3047 0 
L 2419 0 
L 2419 1100 
L 313 1100 
L 313 1709 
L 2253 4666 
z
" transform="scale(0.015625)"/>
       </defs>
       <use xlink:href="#DejaVuSans-34"/>
      </g>
     </g>
    </g>
    <g id="xtick_6">
     <g id="line2d_6">
      <g>
       <use xlink:href="#m48aeb1cfe3" x="1100.601726" y="390.04" style="stroke: #000000; stroke-width: 0.8"/>
      </g>
     </g>
     <g id="text_6">
      <!-- 5 -->
      <g transform="translate(1097.420476 404.638438) scale(0.1 -0.1)">
       <defs>
        <path id="DejaVuSans-35" d="M 691 4666 
L 3169 4666 
L 3169 4134 
L 1269 4134 
L 1269 2991 
Q 1406 3038 1543 3061 
Q 1681 3084 1819 3084 
Q 2600 3084 3056 2656 
Q 3513 2228 3513 1497 
Q 3513 744 3044 326 
Q 2575 -91 1722 -91 
Q 1428 -91 1123 -41 
Q 819 9 494 109 
L 494 744 
Q 775 591 1075 516 
Q 1375 441 1709 441 
Q 2250 441 2565 725 
Q 2881 1009 2881 1497 
Q 2881 1984 2565 2268 
Q 2250 2553 1709 2553 
Q 1456 2553 1204 2497 
Q 953 2441 691 2322 
L 691 4666 
z
" transform="scale(0.015625)"/>
       </defs>
       <use xlink:href="#DejaVuSans-35"/>
      </g>
     </g>
    </g>
    <g id="xtick_7">
     <g id="line2d_7">
      <g>
       <use xlink:href="#m48aeb1cfe3" x="1276.213264" y="390.04" style="stroke: #000000; stroke-width: 0.8"/>
      </g>
     </g>
     <g id="text_7">
      <!-- 6 -->
      <g transform="translate(1273.032014 404.638438) scale(0.1 -0.1)">
       <defs>
        <path id="DejaVuSans-36" d="M 2113 2584 
Q 1688 2584 1439 2293 
Q 1191 2003 1191 1497 
Q 1191 994 1439 701 
Q 1688 409 2113 409 
Q 2538 409 2786 701 
Q 3034 994 3034 1497 
Q 3034 2003 2786 2293 
Q 2538 2584 2113 2584 
z
M 3366 4563 
L 3366 3988 
Q 3128 4100 2886 4159 
Q 2644 4219 2406 4219 
Q 1781 4219 1451 3797 
Q 1122 3375 1075 2522 
Q 1259 2794 1537 2939 
Q 1816 3084 2150 3084 
Q 2853 3084 3261 2657 
Q 3669 2231 3669 1497 
Q 3669 778 3244 343 
Q 2819 -91 2113 -91 
Q 1303 -91 875 529 
Q 447 1150 447 2328 
Q 447 3434 972 4092 
Q 1497 4750 2381 4750 
Q 2619 4750 2861 4703 
Q 3103 4656 3366 4563 
z
" transform="scale(0.015625)"/>
       </defs>
       <use xlink:href="#DejaVuSans-36"/>
      </g>
     </g>
    </g>
    <g id="text_8">
     <!-- time -->
     <g transform="translate(657.773906 418.316562) scale(0.1 -0.1)">
      <defs>
       <path id="DejaVuSans-74" d="M 1172 4494 
L 1172 3500 
L 2356 3500 
L 2356 3053 
L 1172 3053 
L 1172 1153 
Q 1172 725 1289 603 
Q 1406 481 1766 481 
L 2356 481 
L 2356 0 
L 1766 0 
Q 1100 0 847 248 
Q 594 497 594 1153 
L 594 3053 
L 172 3053 
L 172 3500 
L 594 3500 
L 594 4494 
L 1172 4494 
z
" transform="scale(0.015625)"/>
       <path id="DejaVuSans-69" d="M 603 3500 
L 1178 3500 
L 1178 0 
L 603 0 
L 603 3500 
z
M 603 4863 
L 1178 4863 
L 1178 4134 
L 603 4134 
L 603 4863 
z
" transform="scale(0.015625)"/>
       <path id="DejaVuSans-6d" d="M 3328 2828 
Q 3544 3216 3844 3400 
Q 4144 3584 4550 3584 
Q 5097 3584 5394 3201 
Q 5691 2819 5691 2113 
L 5691 0 
L 5113 0 
L 5113 2094 
Q 5113 2597 4934 2840 
Q 4756 3084 4391 3084 
Q 3944 3084 3684 2787 
Q 3425 2491 3425 1978 
L 3425 0 
L 2847 0 
L 2847 2094 
Q 2847 2600 2669 2842 
Q 2491 3084 2119 3084 
Q 1678 3084 1418 2786 
Q 1159 2488 1159 1978 
L 1159 0 
L 581 0 
L 581 3500 
L 1159 3500 
L 1159 2956 
Q 1356 3278 1631 3431 
Q 1906 3584 2284 3584 
Q 2666 3584 2933 3390 
Q 3200 3197 3328 2828 
z
" transform="scale(0.015625)"/>
       <path id="DejaVuSans-65" d="M 3597 1894 
L 3597 1613 
L 953 1613 
Q 991 1019 1311 708 
Q 1631 397 2203 397 
Q 2534 397 2845 478 
Q 3156 559 3463 722 
L 3463 178 
Q 3153 47 2828 -22 
Q 2503 -91 2169 -91 
Q 1331 -91 842 396 
Q 353 884 353 1716 
Q 353 2575 817 3079 
Q 1281 3584 2069 3584 
Q 2775 3584 3186 3129 
Q 3597 2675 3597 1894 
z
M 3022 2063 
Q 3016 2534 2758 2815 
Q 2500 3097 2075 3097 
Q 1594 3097 1305 2825 
Q 1016 2553 972 2059 
L 3022 2063 
z
" transform="scale(0.015625)"/>
      </defs>
      <use xlink:href="#DejaVuSans-74"/>
      <use xlink:href="#DejaVuSans-69" x="39.208984"/>
      <use xlink:href="#DejaVuSans-6d" x="66.992188"/>
      <use xlink:href="#DejaVuSans-65" x="164.404297"/>
     </g>
    </g>
    <g id="text_9">
     <!-- 1e9+1.217e13 -->
     <g transform="translate(1210.435938 417.316562) scale(0.1 -0.1)">
      <defs>
       <path id="DejaVuSans-39" d="M 703 97 
L 703 672 
Q 941 559 1184 500 
Q 1428 441 1663 441 
Q 2288 441 2617 861 
Q 2947 1281 2994 2138 
Q 2813 1869 2534 1725 
Q 2256 1581 1919 1581 
Q 1219 1581 811 2004 
Q 403 2428 403 3163 
Q 403 3881 828 4315 
Q 1253 4750 1959 4750 
Q 2769 4750 3195 4129 
Q 3622 3509 3622 2328 
Q 3622 1225 3098 567 
Q 2575 -91 1691 -91 
Q 1453 -91 1209 -44 
Q 966 3 703 97 
z
M 1959 2075 
Q 2384 2075 2632 2365 
Q 2881 2656 2881 3163 
Q 2881 3666 2632 3958 
Q 2384 4250 1959 4250 
Q 1534 4250 1286 3958 
Q 1038 3666 1038 3163 
Q 1038 2656 1286 2365 
Q 1534 2075 1959 2075 
z
" transform="scale(0.015625)"/>
       <path id="DejaVuSans-2b" d="M 2944 4013 
L 2944 2272 
L 4684 2272 
L 4684 1741 
L 2944 1741 
L 2944 0 
L 2419 0 
L 2419 1741 
L 678 1741 
L 678 2272 
L 2419 2272 
L 2419 4013 
L 2944 4013 
z
" transform="scale(0.015625)"/>
       <path id="DejaVuSans-2e" d="M 684 794 
L 1344 794 
L 1344 0 
L 684 0 
L 684 794 
z
" transform="scale(0.015625)"/>
       <path id="DejaVuSans-37" d="M 525 4666 
L 3525 4666 
L 3525 4397 
L 1831 0 
L 1172 0 
L 2766 4134 
L 525 4134 
L 525 4666 
z
" transform="scale(0.015625)"/>
      </defs>
      <use xlink:href="#DejaVuSans-31"/>
      <use xlink:href="#DejaVuSans-65" x="63.623047"/>
      <use xlink:href="#DejaVuSans-39" x="125.146484"/>
      <use xlink:href="#DejaVuSans-2b" x="188.769531"/>
      <use xlink:href="#DejaVuSans-31" x="272.558594"/>
      <use xlink:href="#DejaVuSans-2e" x="336.181641"/>
      <use xlink:href="#DejaVuSans-32" x="367.96875"/>
      <use xlink:href="#DejaVuSans-31" x="431.591797"/>
      <use xlink:href="#DejaVuSans-37" x="495.214844"/>
      <use xlink:href="#DejaVuSans-65" x="558.837891"/>
      <use xlink:href="#DejaVuSans-31" x="620.361328"/>
      <use xlink:href="#DejaVuSans-33" x="683.984375"/>
     </g>
    </g>
   </g>
   <g id="matplotlib.axis_2">
    <g id="ytick_1">
     <g id="line2d_8">
      <defs>
       <path id="m9c628c81bd" d="M 0 0 
L -3.5 0 
" style="stroke: #000000; stroke-width: 0.8"/>
      </defs>
      <g>
       <use xlink:href="#m9c628c81bd" x="52.94" y="363.441349" style="stroke: #000000; stroke-width: 0.8"/>
      </g>
     </g>
     <g id="text_10">
      <!-- −15 -->
      <g transform="translate(24.835312 367.240568) scale(0.1 -0.1)">
       <defs>
        <path id="DejaVuSans-2212" d="M 678 2272 
L 4684 2272 
L 4684 1741 
L 678 1741 
L 678 2272 
z
" transform="scale(0.015625)"/>
       </defs>
       <use xlink:href="#DejaVuSans-2212"/>
       <use xlink:href="#DejaVuSans-31" x="83.789062"/>
       <use xlink:href="#DejaVuSans-35" x="147.412109"/>
      </g>
     </g>
    </g>
    <g id="ytick_2">
     <g id="line2d_9">
      <g>
       <use xlink:href="#m9c628c81bd" x="52.94" y="317.150624" style="stroke: #000000; stroke-width: 0.8"/>
      </g>
     </g>
     <g id="text_11">
      <!-- −10 -->
      <g transform="translate(24.835312 320.949842) scale(0.1 -0.1)">
       <use xlink:href="#DejaVuSans-2212"/>
       <use xlink:href="#DejaVuSans-31" x="83.789062"/>
       <use xlink:href="#DejaVuSans-30" x="147.412109"/>
      </g>
     </g>
    </g>
    <g id="ytick_3">
     <g id="line2d_10">
      <g>
       <use xlink:href="#m9c628c81bd" x="52.94" y="270.859898" style="stroke: #000000; stroke-width: 0.8"/>
      </g>
     </g>
     <g id="text_12">
      <!-- −5 -->
      <g transform="translate(31.197812 274.659117) scale(0.1 -0.1)">
       <use xlink:href="#DejaVuSans-2212"/>
       <use xlink:href="#DejaVuSans-35" x="83.789062"/>
      </g>
     </g>
    </g>
    <g id="ytick_4">
     <g id="line2d_11">
      <g>
       <use xlink:href="#m9c628c81bd" x="52.94" y="224.569172" style="stroke: #000000; stroke-width: 0.8"/>
      </g>
     </g>
     <g id="text_13">
      <!-- 0 -->
      <g transform="translate(39.5775 228.368391) scale(0.1 -0.1)">
       <use xlink:href="#DejaVuSans-30"/>
      </g>
     </g>
    </g>
    <g id="ytick_5">
     <g id="line2d_12">
      <g>
       <use xlink:href="#m9c628c81bd" x="52.94" y="178.278447" style="stroke: #000000; stroke-width: 0.8"/>
      </g>
     </g>
     <g id="text_14">
      <!-- 5 -->
      <g transform="translate(39.5775 182.077666) scale(0.1 -0.1)">
       <use xlink:href="#DejaVuSans-35"/>
      </g>
     </g>
    </g>
    <g id="ytick_6">
     <g id="line2d_13">
      <g>
       <use xlink:href="#m9c628c81bd" x="52.94" y="131.987721" style="stroke: #000000; stroke-width: 0.8"/>
      </g>
     </g>
     <g id="text_15">
      <!-- 10 -->
      <g transform="translate(33.215 135.78694) scale(0.1 -0.1)">
       <use xlink:href="#DejaVuSans-31"/>
       <use xlink:href="#DejaVuSans-30" x="63.623047"/>
      </g>
     </g>
    </g>
    <g id="ytick_7">
     <g id="line2d_14">
      <g>
       <use xlink:href="#m9c628c81bd" x="52.94" y="85.696996" style="stroke: #000000; stroke-width: 0.8"/>
      </g>
     </g>
     <g id="text_16">
      <!-- 15 -->
      <g transform="translate(33.215 89.496215) scale(0.1 -0.1)">
       <use xlink:href="#DejaVuSans-31"/>
       <use xlink:href="#DejaVuSans-35" x="63.623047"/>
      </g>
     </g>
    </g>
    <g id="ytick_8">
     <g id="line2d_15">
      <g>
       <use xlink:href="#m9c628c81bd" x="52.94" y="39.40627" style="stroke: #000000; stroke-width: 0.8"/>
      </g>
     </g>
     <g id="text_17">
      <!-- 20 -->
      <g transform="translate(33.215 43.205489) scale(0.1 -0.1)">
       <use xlink:href="#DejaVuSans-32"/>
       <use xlink:href="#DejaVuSans-30" x="63.623047"/>
      </g>
     </g>
    </g>
    <g id="text_18">
     <!-- acc -->
     <g transform="translate(18.755625 217.0225) rotate(-90) scale(0.1 -0.1)">
      <defs>
       <path id="DejaVuSans-61" d="M 2194 1759 
Q 1497 1759 1228 1600 
Q 959 1441 959 1056 
Q 959 750 1161 570 
Q 1363 391 1709 391 
Q 2188 391 2477 730 
Q 2766 1069 2766 1631 
L 2766 1759 
L 2194 1759 
z
M 3341 1997 
L 3341 0 
L 2766 0 
L 2766 531 
Q 2569 213 2275 61 
Q 1981 -91 1556 -91 
Q 1019 -91 701 211 
Q 384 513 384 1019 
Q 384 1609 779 1909 
Q 1175 2209 1959 2209 
L 2766 2209 
L 2766 2266 
Q 2766 2663 2505 2880 
Q 2244 3097 1772 3097 
Q 1472 3097 1187 3025 
Q 903 2953 641 2809 
L 641 3341 
Q 956 3463 1253 3523 
Q 1550 3584 1831 3584 
Q 2591 3584 2966 3190 
Q 3341 2797 3341 1997 
z
" transform="scale(0.015625)"/>
       <path id="DejaVuSans-63" d="M 3122 3366 
L 3122 2828 
Q 2878 2963 2633 3030 
Q 2388 3097 2138 3097 
Q 1578 3097 1268 2742 
Q 959 2388 959 1747 
Q 959 1106 1268 751 
Q 1578 397 2138 397 
Q 2388 397 2633 464 
Q 2878 531 3122 666 
L 3122 134 
Q 2881 22 2623 -34 
Q 2366 -91 2075 -91 
Q 1284 -91 818 406 
Q 353 903 353 1747 
Q 353 2603 823 3093 
Q 1294 3584 2113 3584 
Q 2378 3584 2631 3529 
Q 2884 3475 3122 3366 
z
" transform="scale(0.015625)"/>
      </defs>
      <use xlink:href="#DejaVuSans-61"/>
      <use xlink:href="#DejaVuSans-63" x="61.279297"/>
      <use xlink:href="#DejaVuSans-63" x="116.259766"/>
     </g>
    </g>
   </g>
   <g id="line2d_16">
    <path d="M 108.951818 237.715739 
L 117.832142 241.604159 
L 126.530182 283.08065 
L 135.383638 373.532727 
L 144.076233 366.403956 
L 152.945845 269.563758 
L 161.654597 265.305011 
L 170.508053 187.629174 
L 179.21136 210.681955 
L 188.075528 216.792331 
L 198.360043 222.069473 
L 207.143781 237.345413 
L 215.916806 227.716942 
L 224.711432 267.80471 
L 233.479014 314.37318 
L 242.262927 276.414785 
L 251.041221 255.491377 
L 259.819691 262.157242 
L 268.710727 240.585764 
L 277.381898 220.680752 
L 286.165812 228.827919 
L 294.944106 215.773935 
L 303.722575 231.975689 
L 312.506489 294.468168 
L 321.284783 371.681098 
L 330.068696 282.710324 
L 338.84699 255.121051 
L 347.636172 243.363207 
L 356.414642 247.99228 
L 365.193111 239.474786 
L 373.971581 221.699148 
L 382.749875 328.445561 
L 393.296928 263.545963 
L 402.075398 318.16902 
L 410.848423 268.545362 
L 419.616181 262.897893 
L 428.416075 111.434639 
L 437.178388 230.957293 
L 445.978282 221.051077 
L 454.74604 223.180451 
L 463.529778 297.338193 
L 472.308247 237.715739 
L 481.097429 239.845112 
L 489.859742 225.957894 
L 498.648924 218.921704 
L 509.206514 270.767317 
L 518.017121 266.045663 
L 526.768722 201.146065 
L 535.525767 245.49258 
L 544.309505 213.644561 
L 553.093418 207.534185 
L 561.871712 252.528771 
L 570.666338 233.734736 
L 579.434095 345.110222 
L 588.217833 255.491377 
L 596.996303 235.493784 
L 605.774597 251.510375 
L 614.547798 226.698546 
L 623.342248 196.9799 
L 632.110005 291.320399 
L 640.893743 227.068872 
L 649.666769 255.67654 
L 658.466663 230.957293 
L 667.229152 268.545362 
L 676.023602 237.715739 
L 684.802072 344.091826 
L 693.58581 231.235037 
L 702.353567 244.103859 
L 711.142749 247.251628 
L 719.915775 222.439799 
L 728.710225 284.099046 
L 737.472538 231.235037 
L 746.267164 271.693131 
L 755.034921 224.198847 
L 763.829371 250.769723 
L 772.597129 234.567969 
L 781.391579 274.655738 
L 790.164605 278.821903 
L 798.953786 259.009472 
L 807.726812 260.76852 
L 816.53215 231.605363 
L 825.28902 223.828521 
L 834.072933 223.550777 
L 842.851403 294.838494 
L 851.635141 253.73233 
L 860.408166 224.939498 
L 869.197348 254.287818 
L 877.975818 262.527567 
L 886.759556 274.8409 
L 895.532581 314.002854 
L 904.321763 282.062254 
L 913.08952 240.215438 
L 921.878702 170.964512 
L 930.646459 324.55714 
L 939.44091 225.587568 
L 948.208667 243.733533 
L 956.997673 256.880099 
L 965.770874 248.64035 
L 974.560056 283.821301 
L 983.33835 332.426563 
L 992.122264 262.157242 
L 1000.895289 256.509773 
L 1009.684471 220.680752 
L 1018.457497 195.406015 
L 1027.246679 263.268219 
L 1036.014436 316.780298 
L 1044.803442 234.567969 
L 1053.581912 254.287818 
L 1062.371094 251.510375 
L 1071.144119 253.917492 
L 1079.933301 304.004058 
L 1088.706327 258.268821 
L 1097.49024 224.569172 
L 1106.263266 197.998296 
L 1115.052448 291.690725 
L 1123.825474 322.427766 
L 1132.614655 321.40937 
L 1141.387681 297.986263 
L 1150.176863 260.027868 
L 1158.949889 229.846315 
L 1167.73907 105.787171 
L 1176.506828 236.882505 
L 1185.29601 255.121051 
L 1194.069035 354.738693 
L 1202.858217 288.357792 
L 1211.625974 265.027267 
L 1220.414981 240.215438 
L 1229.188182 216.329423 
L 1229.188182 216.329423 
" clip-path="url(#p98e1575bb9)" style="fill: none; stroke: #1f77b4; stroke-width: 1.5; stroke-linecap: square"/>
   </g>
   <g id="line2d_17">
    <path d="M 108.951818 115.97113 
L 117.832142 118.933737 
L 126.530182 93.010931 
L 135.383638 58.663212 
L 144.076233 118.100504 
L 152.945845 170.316442 
L 161.654597 190.128873 
L 170.508053 203.645765 
L 179.21136 214.570376 
L 188.075528 183.092682 
L 198.360043 56.441257 
L 207.143781 115.97113 
L 215.916806 116.711782 
L 224.711432 170.594187 
L 233.479014 98.380655 
L 242.262927 152.540804 
L 251.041221 160.039901 
L 259.819691 126.340253 
L 268.710727 123.840554 
L 277.381898 127.728975 
L 286.165812 116.711782 
L 294.944106 113.564013 
L 303.722575 164.668974 
L 312.506489 80.975342 
L 321.284783 60.051934 
L 330.068696 167.076091 
L 338.84699 183.092682 
L 347.636172 201.516391 
L 356.414642 209.663559 
L 365.193111 146.523009 
L 373.971581 132.728373 
L 382.749875 58.663212 
L 393.296928 166.428021 
L 402.075398 93.010931 
L 410.848423 109.305266 
L 419.616181 53.293488 
L 428.416075 90.511231 
L 437.178388 192.998898 
L 445.978282 218.921704 
L 454.74604 151.800152 
L 463.529778 43.387273 
L 472.308247 127.728975 
L 481.097429 193.646968 
L 489.859742 215.403609 
L 498.648924 119.952133 
L 509.206514 119.952133 
L 518.017121 115.785967 
L 526.768722 123.192484 
L 535.525767 132.728373 
L 544.309505 124.21088 
L 553.093418 147.263661 
L 561.871712 184.111078 
L 570.666338 166.798347 
L 579.434095 51.164115 
L 588.217833 194.387619 
L 596.996303 194.017294 
L 605.774597 121.433436 
L 614.547798 129.117696 
L 623.342248 183.463008 
L 632.110005 50.053137 
L 640.893743 147.633987 
L 649.666769 157.44762 
L 658.466663 85.234089 
L 667.229152 179.574587 
L 676.023602 188.740151 
L 684.802072 89.12251 
L 693.58581 192.258246 
L 702.353567 133.376443 
L 711.142749 103.287472 
L 719.915775 168.835139 
L 728.710225 43.757599 
L 737.472538 169.575791 
L 746.267164 100.139702 
L 755.034921 98.380655 
L 763.829371 183.833334 
L 772.597129 202.627369 
L 781.391579 114.952734 
L 790.164605 104.676193 
L 798.953786 181.703961 
L 807.726812 144.115892 
L 816.53215 90.881557 
L 825.28902 191.517594 
L 834.072933 169.575791 
L 842.851403 43.757599 
L 851.635141 122.451832 
L 860.408166 147.633987 
L 869.197348 146.893335 
L 877.975818 192.258246 
L 886.759556 170.316442 
L 895.532581 126.340253 
L 904.321763 161.150878 
L 913.08952 163.557996 
L 921.878702 169.946116 
L 930.646459 48.664415 
L 939.44091 84.123111 
L 948.208667 142.634588 
L 956.997673 160.039901 
L 965.770874 191.517594 
L 974.560056 146.893335 
L 983.33835 91.159301 
L 992.122264 155.133084 
L 1000.895289 131.987721 
L 1009.684471 141.986518 
L 1018.457497 211.792932 
L 1027.246679 100.510028 
L 1036.014436 78.383061 
L 1044.803442 155.133084 
L 1053.581912 152.540804 
L 1062.371094 197.165063 
L 1071.144119 195.220852 
L 1079.933301 86.252485 
L 1088.706327 163.18767 
L 1097.49024 152.911129 
L 1106.263266 108.564614 
L 1115.052448 44.035343 
L 1123.825474 111.804965 
L 1132.614655 130.876744 
L 1141.387681 112.082709 
L 1150.176863 140.227471 
L 1158.949889 95.418048 
L 1167.73907 132.728373 
L 1176.506828 188.740151 
L 1185.29601 113.564013 
L 1194.069035 43.387273 
L 1202.858217 102.917146 
L 1211.625974 166.057695 
L 1220.414981 217.532982 
L 1229.188182 230.216641 
L 1229.188182 230.216641 
" clip-path="url(#p98e1575bb9)" style="fill: none; stroke: #ff7f0e; stroke-width: 1.5; stroke-linecap: square"/>
   </g>
   <g id="line2d_18">
    <path d="M 108.951818 193.296582 
L 117.832142 195.440268 
L 126.530182 244.114541 
L 135.383638 273.873943 
L 144.076233 189.13531 
L 152.945845 282.070386 
L 161.654597 254.328573 
L 170.508053 276.017626 
L 179.21136 248.275813 
L 188.075528 205.402099 
L 198.360043 76.276565 
L 207.143781 290.519029 
L 215.916806 194.809772 
L 224.711432 241.592558 
L 233.479014 250.419499 
L 242.262927 244.745038 
L 251.041221 242.601352 
L 259.819691 238.440079 
L 268.710727 242.601352 
L 277.381898 216.751025 
L 286.165812 182.704252 
L 294.944106 177.408089 
L 303.722575 194.809772 
L 312.506489 224.569172 
L 321.284783 223.182082 
L 330.068696 239.448873 
L 338.84699 244.745038 
L 347.636172 244.36674 
L 356.414642 242.349153 
L 365.193111 191.909491 
L 373.971581 217.885918 
L 382.749875 198.340547 
L 393.296928 232.765618 
L 402.075398 251.176094 
L 410.848423 252.184886 
L 419.616181 269.208275 
L 428.416075 96.200232 
L 437.178388 225.325767 
L 445.978282 234.152709 
L 454.74604 256.850556 
L 463.529778 202.249621 
L 472.308247 198.971045 
L 481.097429 237.683485 
L 489.859742 238.692278 
L 498.648924 203.636713 
L 509.206514 203.636713 
L 518.017121 240.835964 
L 526.768722 210.698266 
L 535.525767 189.513608 
L 544.309505 195.818566 
L 553.093418 141.595926 
L 561.871712 231.630725 
L 570.666338 280.304998 
L 579.434095 251.176094 
L 588.217833 172.111923 
L 596.996303 233.774411 
L 605.774597 218.516413 
L 614.547798 200.862532 
L 623.342248 203.636713 
L 632.110005 210.698266 
L 640.893743 215.363934 
L 649.666769 232.38732 
L 658.466663 103.26178 
L 667.229152 243.736245 
L 676.023602 267.06459 
L 684.802072 280.557197 
L 693.58581 183.460851 
L 702.353567 171.355331 
L 711.142749 218.516413 
L 719.915775 203.636713 
L 728.710225 188.378716 
L 737.472538 231.630725 
L 746.267164 235.161501 
L 755.034921 91.912859 
L 763.829371 230.621932 
L 772.597129 248.275813 
L 781.391579 249.410706 
L 790.164605 218.138116 
L 798.953786 230.621932 
L 807.726812 196.953459 
L 816.53215 172.111923 
L 825.28902 232.38732 
L 834.072933 204.645505 
L 842.851403 206.158695 
L 851.635141 204.645505 
L 860.408166 206.536993 
L 869.197348 176.020996 
L 877.975818 247.26702 
L 886.759556 271.730256 
L 895.532581 281.692092 
L 904.321763 197.583953 
L 913.08952 202.627919 
L 921.878702 166.437462 
L 930.646459 212.841951 
L 939.44091 160.006405 
L 948.208667 185.856733 
L 956.997673 227.343354 
L 965.770874 258.615944 
L 974.560056 278.791809 
L 983.33835 211.833157 
L 992.122264 211.076563 
L 1000.895289 196.196862 
L 1009.684471 176.651495 
L 1018.457497 220.281801 
L 1027.246679 221.416694 
L 1036.014436 142.983019 
L 1044.803442 200.862532 
L 1053.581912 227.721651 
L 1062.371094 253.698077 
L 1071.144119 224.94747 
L 1079.933301 236.926889 
L 1088.706327 188.757012 
L 1097.49024 202.880118 
L 1106.263266 173.120719 
L 1115.052448 269.58657 
L 1123.825474 159.249808 
L 1132.614655 234.531006 
L 1141.387681 245.879931 
L 1150.176863 249.03241 
L 1158.949889 279.170108 
L 1167.73907 99.731011 
L 1176.506828 205.402099 
L 1185.29601 246.510426 
L 1194.069035 190.144102 
L 1202.858217 218.138116 
L 1211.625974 248.023615 
L 1220.414981 248.275813 
L 1229.188182 255.085169 
L 1229.188182 255.085169 
" clip-path="url(#p98e1575bb9)" style="fill: none; stroke: #2ca02c; stroke-width: 1.5; stroke-linecap: square"/>
   </g>
   <g id="patch_3">
    <path d="M 52.94 390.04 
L 52.94 26.88 
" style="fill: none; stroke: #000000; stroke-width: 0.8; stroke-linejoin: miter; stroke-linecap: square"/>
   </g>
   <g id="patch_4">
    <path d="M 1285.2 390.04 
L 1285.2 26.88 
" style="fill: none; stroke: #000000; stroke-width: 0.8; stroke-linejoin: miter; stroke-linecap: square"/>
   </g>
   <g id="patch_5">
    <path d="M 52.94 390.04 
L 1285.2 390.04 
" style="fill: none; stroke: #000000; stroke-width: 0.8; stroke-linejoin: miter; stroke-linecap: square"/>
   </g>
   <g id="patch_6">
    <path d="M 52.94 26.88 
L 1285.2 26.88 
" style="fill: none; stroke: #000000; stroke-width: 0.8; stroke-linejoin: miter; stroke-linecap: square"/>
   </g>
   <g id="text_19">
    <!-- User 27, Action 3 -->
    <g transform="translate(617.523437 20.88) scale(0.12 -0.12)">
     <defs>
      <path id="DejaVuSans-55" d="M 556 4666 
L 1191 4666 
L 1191 1831 
Q 1191 1081 1462 751 
Q 1734 422 2344 422 
Q 2950 422 3222 751 
Q 3494 1081 3494 1831 
L 3494 4666 
L 4128 4666 
L 4128 1753 
Q 4128 841 3676 375 
Q 3225 -91 2344 -91 
Q 1459 -91 1007 375 
Q 556 841 556 1753 
L 556 4666 
z
" transform="scale(0.015625)"/>
      <path id="DejaVuSans-73" d="M 2834 3397 
L 2834 2853 
Q 2591 2978 2328 3040 
Q 2066 3103 1784 3103 
Q 1356 3103 1142 2972 
Q 928 2841 928 2578 
Q 928 2378 1081 2264 
Q 1234 2150 1697 2047 
L 1894 2003 
Q 2506 1872 2764 1633 
Q 3022 1394 3022 966 
Q 3022 478 2636 193 
Q 2250 -91 1575 -91 
Q 1294 -91 989 -36 
Q 684 19 347 128 
L 347 722 
Q 666 556 975 473 
Q 1284 391 1588 391 
Q 1994 391 2212 530 
Q 2431 669 2431 922 
Q 2431 1156 2273 1281 
Q 2116 1406 1581 1522 
L 1381 1569 
Q 847 1681 609 1914 
Q 372 2147 372 2553 
Q 372 3047 722 3315 
Q 1072 3584 1716 3584 
Q 2034 3584 2315 3537 
Q 2597 3491 2834 3397 
z
" transform="scale(0.015625)"/>
      <path id="DejaVuSans-72" d="M 2631 2963 
Q 2534 3019 2420 3045 
Q 2306 3072 2169 3072 
Q 1681 3072 1420 2755 
Q 1159 2438 1159 1844 
L 1159 0 
L 581 0 
L 581 3500 
L 1159 3500 
L 1159 2956 
Q 1341 3275 1631 3429 
Q 1922 3584 2338 3584 
Q 2397 3584 2469 3576 
Q 2541 3569 2628 3553 
L 2631 2963 
z
" transform="scale(0.015625)"/>
      <path id="DejaVuSans-20" transform="scale(0.015625)"/>
      <path id="DejaVuSans-2c" d="M 750 794 
L 1409 794 
L 1409 256 
L 897 -744 
L 494 -744 
L 750 256 
L 750 794 
z
" transform="scale(0.015625)"/>
      <path id="DejaVuSans-41" d="M 2188 4044 
L 1331 1722 
L 3047 1722 
L 2188 4044 
z
M 1831 4666 
L 2547 4666 
L 4325 0 
L 3669 0 
L 3244 1197 
L 1141 1197 
L 716 0 
L 50 0 
L 1831 4666 
z
" transform="scale(0.015625)"/>
      <path id="DejaVuSans-6f" d="M 1959 3097 
Q 1497 3097 1228 2736 
Q 959 2375 959 1747 
Q 959 1119 1226 758 
Q 1494 397 1959 397 
Q 2419 397 2687 759 
Q 2956 1122 2956 1747 
Q 2956 2369 2687 2733 
Q 2419 3097 1959 3097 
z
M 1959 3584 
Q 2709 3584 3137 3096 
Q 3566 2609 3566 1747 
Q 3566 888 3137 398 
Q 2709 -91 1959 -91 
Q 1206 -91 779 398 
Q 353 888 353 1747 
Q 353 2609 779 3096 
Q 1206 3584 1959 3584 
z
" transform="scale(0.015625)"/>
      <path id="DejaVuSans-6e" d="M 3513 2113 
L 3513 0 
L 2938 0 
L 2938 2094 
Q 2938 2591 2744 2837 
Q 2550 3084 2163 3084 
Q 1697 3084 1428 2787 
Q 1159 2491 1159 1978 
L 1159 0 
L 581 0 
L 581 3500 
L 1159 3500 
L 1159 2956 
Q 1366 3272 1645 3428 
Q 1925 3584 2291 3584 
Q 2894 3584 3203 3211 
Q 3513 2838 3513 2113 
z
" transform="scale(0.015625)"/>
     </defs>
     <use xlink:href="#DejaVuSans-55"/>
     <use xlink:href="#DejaVuSans-73" x="73.193359"/>
     <use xlink:href="#DejaVuSans-65" x="125.292969"/>
     <use xlink:href="#DejaVuSans-72" x="186.816406"/>
     <use xlink:href="#DejaVuSans-20" x="227.929688"/>
     <use xlink:href="#DejaVuSans-32" x="259.716797"/>
     <use xlink:href="#DejaVuSans-37" x="323.339844"/>
     <use xlink:href="#DejaVuSans-2c" x="386.962891"/>
     <use xlink:href="#DejaVuSans-20" x="418.75"/>
     <use xlink:href="#DejaVuSans-41" x="450.537109"/>
     <use xlink:href="#DejaVuSans-63" x="517.195312"/>
     <use xlink:href="#DejaVuSans-74" x="572.175781"/>
     <use xlink:href="#DejaVuSans-69" x="611.384766"/>
     <use xlink:href="#DejaVuSans-6f" x="639.167969"/>
     <use xlink:href="#DejaVuSans-6e" x="700.349609"/>
     <use xlink:href="#DejaVuSans-20" x="763.728516"/>
     <use xlink:href="#DejaVuSans-33" x="795.515625"/>
    </g>
   </g>
   <g id="legend_1">
    <g id="patch_7">
     <path d="M 1219.548438 78.914375 
L 1278.2 78.914375 
Q 1280.2 78.914375 1280.2 76.914375 
L 1280.2 33.88 
Q 1280.2 31.88 1278.2 31.88 
L 1219.548438 31.88 
Q 1217.548438 31.88 1217.548438 33.88 
L 1217.548438 76.914375 
Q 1217.548438 78.914375 1219.548438 78.914375 
z
" style="fill: #ffffff; opacity: 0.8; stroke: #cccccc; stroke-linejoin: miter"/>
    </g>
    <g id="line2d_19">
     <path d="M 1221.548438 39.978437 
L 1231.548438 39.978437 
L 1241.548438 39.978437 
" style="fill: none; stroke: #1f77b4; stroke-width: 1.5; stroke-linecap: square"/>
    </g>
    <g id="text_20">
     <!-- acc-x -->
     <g transform="translate(1249.548438 43.478437) scale(0.1 -0.1)">
      <defs>
       <path id="DejaVuSans-2d" d="M 313 2009 
L 1997 2009 
L 1997 1497 
L 313 1497 
L 313 2009 
z
" transform="scale(0.015625)"/>
       <path id="DejaVuSans-78" d="M 3513 3500 
L 2247 1797 
L 3578 0 
L 2900 0 
L 1881 1375 
L 863 0 
L 184 0 
L 1544 1831 
L 300 3500 
L 978 3500 
L 1906 2253 
L 2834 3500 
L 3513 3500 
z
" transform="scale(0.015625)"/>
      </defs>
      <use xlink:href="#DejaVuSans-61"/>
      <use xlink:href="#DejaVuSans-63" x="61.279297"/>
      <use xlink:href="#DejaVuSans-63" x="116.259766"/>
      <use xlink:href="#DejaVuSans-2d" x="171.240234"/>
      <use xlink:href="#DejaVuSans-78" x="207.324219"/>
     </g>
    </g>
    <g id="line2d_20">
     <path d="M 1221.548438 54.656563 
L 1231.548438 54.656563 
L 1241.548438 54.656563 
" style="fill: none; stroke: #ff7f0e; stroke-width: 1.5; stroke-linecap: square"/>
    </g>
    <g id="text_21">
     <!-- acc-y -->
     <g transform="translate(1249.548438 58.156563) scale(0.1 -0.1)">
      <defs>
       <path id="DejaVuSans-79" d="M 2059 -325 
Q 1816 -950 1584 -1140 
Q 1353 -1331 966 -1331 
L 506 -1331 
L 506 -850 
L 844 -850 
Q 1081 -850 1212 -737 
Q 1344 -625 1503 -206 
L 1606 56 
L 191 3500 
L 800 3500 
L 1894 763 
L 2988 3500 
L 3597 3500 
L 2059 -325 
z
" transform="scale(0.015625)"/>
      </defs>
      <use xlink:href="#DejaVuSans-61"/>
      <use xlink:href="#DejaVuSans-63" x="61.279297"/>
      <use xlink:href="#DejaVuSans-63" x="116.259766"/>
      <use xlink:href="#DejaVuSans-2d" x="171.240234"/>
      <use xlink:href="#DejaVuSans-79" x="205.574219"/>
     </g>
    </g>
    <g id="line2d_21">
     <path d="M 1221.548438 69.334687 
L 1231.548438 69.334687 
L 1241.548438 69.334687 
" style="fill: none; stroke: #2ca02c; stroke-width: 1.5; stroke-linecap: square"/>
    </g>
    <g id="text_22">
     <!-- acc-z -->
     <g transform="translate(1249.548438 72.834687) scale(0.1 -0.1)">
      <defs>
       <path id="DejaVuSans-7a" d="M 353 3500 
L 3084 3500 
L 3084 2975 
L 922 459 
L 3084 459 
L 3084 0 
L 275 0 
L 275 525 
L 2438 3041 
L 353 3041 
L 353 3500 
z
" transform="scale(0.015625)"/>
      </defs>
      <use xlink:href="#DejaVuSans-61"/>
      <use xlink:href="#DejaVuSans-63" x="61.279297"/>
      <use xlink:href="#DejaVuSans-63" x="116.259766"/>
      <use xlink:href="#DejaVuSans-2d" x="171.240234"/>
      <use xlink:href="#DejaVuSans-7a" x="207.324219"/>
     </g>
    </g>
   </g>
  </g>
 </g>
 <defs>
  <clipPath id="p98e1575bb9">
   <rect x="52.94" y="26.88" width="1232.26" height="363.16"/>
  </clipPath>
 </defs>
</svg>
