<?xml version="1.0" encoding="utf-8" standalone="no"?>
<!DOCTYPE svg PUBLIC "-//W3C//DTD SVG 1.1//EN"
  "http://www.w3.org/Graphics/SVG/1.1/DTD/svg11.dtd">
<svg xmlns:xlink="http://www.w3.org/1999/xlink" width="1296pt" height="432pt" viewBox="0 0 1296 432" xmlns="http://www.w3.org/2000/svg" version="1.1">
 <metadata>
  <rdf:RDF xmlns:dc="http://purl.org/dc/elements/1.1/" xmlns:cc="http://creativecommons.org/ns#" xmlns:rdf="http://www.w3.org/1999/02/22-rdf-syntax-ns#">
   <cc:Work>
    <dc:type rdf:resource="http://purl.org/dc/dcmitype/StillImage"/>
    <dc:date>2025-03-28T12:11:23.392338</dc:date>
    <dc:format>image/svg+xml</dc:format>
    <dc:creator>
     <cc:Agent>
      <dc:title>Matplotlib v3.7.5, https://matplotlib.org/</dc:title>
     </cc:Agent>
    </dc:creator>
   </cc:Work>
  </rdf:RDF>
 </metadata>
 <defs>
  <style type="text/css">*{stroke-linejoin: round; stroke-linecap: butt}</style>
 </defs>
 <g id="figure_1">
  <g id="patch_1">
   <path d="M 0 432 
L 1296 432 
L 1296 0 
L 0 0 
z
" style="fill: #ffffff"/>
  </g>
  <g id="axes_1">
   <g id="patch_2">
    <path d="M 46.55 390.04 
L 1275.468915 390.04 
L 1275.468915 26.88 
L 46.55 26.88 
z
" style="fill: #ffffff"/>
   </g>
   <g id="matplotlib.axis_1">
    <g id="xtick_1">
     <g id="line2d_1">
      <defs>
       <path id="m2414c5bcaf" d="M 0 0 
L 0 3.5 
" style="stroke: #000000; stroke-width: 0.8"/>
      </defs>
      <g>
       <use xlink:href="#m2414c5bcaf" x="220.905725" y="390.04" style="stroke: #000000; stroke-width: 0.8"/>
      </g>
     </g>
     <g id="text_1">
      <!-- 7.932 -->
      <g transform="translate(206.591662 404.638438) scale(0.1 -0.1)">
       <defs>
        <path id="DejaVuSans-37" d="M 525 4666 
L 3525 4666 
L 3525 4397 
L 1831 0 
L 1172 0 
L 2766 4134 
L 525 4134 
L 525 4666 
z
" transform="scale(0.015625)"/>
        <path id="DejaVuSans-2e" d="M 684 794 
L 1344 794 
L 1344 0 
L 684 0 
L 684 794 
z
" transform="scale(0.015625)"/>
        <path id="DejaVuSans-39" d="M 703 97 
L 703 672 
Q 941 559 1184 500 
Q 1428 441 1663 441 
Q 2288 441 2617 861 
Q 2947 1281 2994 2138 
Q 2813 1869 2534 1725 
Q 2256 1581 1919 1581 
Q 1219 1581 811 2004 
Q 403 2428 403 3163 
Q 403 3881 828 4315 
Q 1253 4750 1959 4750 
Q 2769 4750 3195 4129 
Q 3622 3509 3622 2328 
Q 3622 1225 3098 567 
Q 2575 -91 1691 -91 
Q 1453 -91 1209 -44 
Q 966 3 703 97 
z
M 1959 2075 
Q 2384 2075 2632 2365 
Q 2881 2656 2881 3163 
Q 2881 3666 2632 3958 
Q 2384 4250 1959 4250 
Q 1534 4250 1286 3958 
Q 1038 3666 1038 3163 
Q 1038 2656 1286 2365 
Q 1534 2075 1959 2075 
z
" transform="scale(0.015625)"/>
        <path id="DejaVuSans-33" d="M 2597 2516 
Q 3050 2419 3304 2112 
Q 3559 1806 3559 1356 
Q 3559 666 3084 287 
Q 2609 -91 1734 -91 
Q 1441 -91 1130 -33 
Q 819 25 488 141 
L 488 750 
Q 750 597 1062 519 
Q 1375 441 1716 441 
Q 2309 441 2620 675 
Q 2931 909 2931 1356 
Q 2931 1769 2642 2001 
Q 2353 2234 1838 2234 
L 1294 2234 
L 1294 2753 
L 1863 2753 
Q 2328 2753 2575 2939 
Q 2822 3125 2822 3475 
Q 2822 3834 2567 4026 
Q 2313 4219 1838 4219 
Q 1578 4219 1281 4162 
Q 984 4106 628 3988 
L 628 4550 
Q 988 4650 1302 4700 
Q 1616 4750 1894 4750 
Q 2613 4750 3031 4423 
Q 3450 4097 3450 3541 
Q 3450 3153 3228 2886 
Q 3006 2619 2597 2516 
z
" transform="scale(0.015625)"/>
        <path id="DejaVuSans-32" d="M 1228 531 
L 3431 531 
L 3431 0 
L 469 0 
L 469 531 
Q 828 903 1448 1529 
Q 2069 2156 2228 2338 
Q 2531 2678 2651 2914 
Q 2772 3150 2772 3378 
Q 2772 3750 2511 3984 
Q 2250 4219 1831 4219 
Q 1534 4219 1204 4116 
Q 875 4013 500 3803 
L 500 4441 
Q 881 4594 1212 4672 
Q 1544 4750 1819 4750 
Q 2544 4750 2975 4387 
Q 3406 4025 3406 3419 
Q 3406 3131 3298 2873 
Q 3191 2616 2906 2266 
Q 2828 2175 2409 1742 
Q 1991 1309 1228 531 
z
" transform="scale(0.015625)"/>
       </defs>
       <use xlink:href="#DejaVuSans-37"/>
       <use xlink:href="#DejaVuSans-2e" x="63.623047"/>
       <use xlink:href="#DejaVuSans-39" x="95.410156"/>
       <use xlink:href="#DejaVuSans-33" x="159.033203"/>
       <use xlink:href="#DejaVuSans-32" x="222.65625"/>
      </g>
     </g>
    </g>
    <g id="xtick_2">
     <g id="line2d_2">
      <g>
       <use xlink:href="#m2414c5bcaf" x="395.741689" y="390.04" style="stroke: #000000; stroke-width: 0.8"/>
      </g>
     </g>
     <g id="text_2">
      <!-- 7.933 -->
      <g transform="translate(381.427626 404.638438) scale(0.1 -0.1)">
       <use xlink:href="#DejaVuSans-37"/>
       <use xlink:href="#DejaVuSans-2e" x="63.623047"/>
       <use xlink:href="#DejaVuSans-39" x="95.410156"/>
       <use xlink:href="#DejaVuSans-33" x="159.033203"/>
       <use xlink:href="#DejaVuSans-33" x="222.65625"/>
      </g>
     </g>
    </g>
    <g id="xtick_3">
     <g id="line2d_3">
      <g>
       <use xlink:href="#m2414c5bcaf" x="570.577653" y="390.04" style="stroke: #000000; stroke-width: 0.8"/>
      </g>
     </g>
     <g id="text_3">
      <!-- 7.934 -->
      <g transform="translate(556.263591 404.638438) scale(0.1 -0.1)">
       <defs>
        <path id="DejaVuSans-34" d="M 2419 4116 
L 825 1625 
L 2419 1625 
L 2419 4116 
z
M 2253 4666 
L 3047 4666 
L 3047 1625 
L 3713 1625 
L 3713 1100 
L 3047 1100 
L 3047 0 
L 2419 0 
L 2419 1100 
L 313 1100 
L 313 1709 
L 2253 4666 
z
" transform="scale(0.015625)"/>
       </defs>
       <use xlink:href="#DejaVuSans-37"/>
       <use xlink:href="#DejaVuSans-2e" x="63.623047"/>
       <use xlink:href="#DejaVuSans-39" x="95.410156"/>
       <use xlink:href="#DejaVuSans-33" x="159.033203"/>
       <use xlink:href="#DejaVuSans-34" x="222.65625"/>
      </g>
     </g>
    </g>
    <g id="xtick_4">
     <g id="line2d_4">
      <g>
       <use xlink:href="#m2414c5bcaf" x="745.413617" y="390.04" style="stroke: #000000; stroke-width: 0.8"/>
      </g>
     </g>
     <g id="text_4">
      <!-- 7.935 -->
      <g transform="translate(731.099555 404.638438) scale(0.1 -0.1)">
       <defs>
        <path id="DejaVuSans-35" d="M 691 4666 
L 3169 4666 
L 3169 4134 
L 1269 4134 
L 1269 2991 
Q 1406 3038 1543 3061 
Q 1681 3084 1819 3084 
Q 2600 3084 3056 2656 
Q 3513 2228 3513 1497 
Q 3513 744 3044 326 
Q 2575 -91 1722 -91 
Q 1428 -91 1123 -41 
Q 819 9 494 109 
L 494 744 
Q 775 591 1075 516 
Q 1375 441 1709 441 
Q 2250 441 2565 725 
Q 2881 1009 2881 1497 
Q 2881 1984 2565 2268 
Q 2250 2553 1709 2553 
Q 1456 2553 1204 2497 
Q 953 2441 691 2322 
L 691 4666 
z
" transform="scale(0.015625)"/>
       </defs>
       <use xlink:href="#DejaVuSans-37"/>
       <use xlink:href="#DejaVuSans-2e" x="63.623047"/>
       <use xlink:href="#DejaVuSans-39" x="95.410156"/>
       <use xlink:href="#DejaVuSans-33" x="159.033203"/>
       <use xlink:href="#DejaVuSans-35" x="222.65625"/>
      </g>
     </g>
    </g>
    <g id="xtick_5">
     <g id="line2d_5">
      <g>
       <use xlink:href="#m2414c5bcaf" x="920.249581" y="390.04" style="stroke: #000000; stroke-width: 0.8"/>
      </g>
     </g>
     <g id="text_5">
      <!-- 7.936 -->
      <g transform="translate(905.935519 404.638438) scale(0.1 -0.1)">
       <defs>
        <path id="DejaVuSans-36" d="M 2113 2584 
Q 1688 2584 1439 2293 
Q 1191 2003 1191 1497 
Q 1191 994 1439 701 
Q 1688 409 2113 409 
Q 2538 409 2786 701 
Q 3034 994 3034 1497 
Q 3034 2003 2786 2293 
Q 2538 2584 2113 2584 
z
M 3366 4563 
L 3366 3988 
Q 3128 4100 2886 4159 
Q 2644 4219 2406 4219 
Q 1781 4219 1451 3797 
Q 1122 3375 1075 2522 
Q 1259 2794 1537 2939 
Q 1816 3084 2150 3084 
Q 2853 3084 3261 2657 
Q 3669 2231 3669 1497 
Q 3669 778 3244 343 
Q 2819 -91 2113 -91 
Q 1303 -91 875 529 
Q 447 1150 447 2328 
Q 447 3434 972 4092 
Q 1497 4750 2381 4750 
Q 2619 4750 2861 4703 
Q 3103 4656 3366 4563 
z
" transform="scale(0.015625)"/>
       </defs>
       <use xlink:href="#DejaVuSans-37"/>
       <use xlink:href="#DejaVuSans-2e" x="63.623047"/>
       <use xlink:href="#DejaVuSans-39" x="95.410156"/>
       <use xlink:href="#DejaVuSans-33" x="159.033203"/>
       <use xlink:href="#DejaVuSans-36" x="222.65625"/>
      </g>
     </g>
    </g>
    <g id="xtick_6">
     <g id="line2d_6">
      <g>
       <use xlink:href="#m2414c5bcaf" x="1095.085546" y="390.04" style="stroke: #000000; stroke-width: 0.8"/>
      </g>
     </g>
     <g id="text_6">
      <!-- 7.937 -->
      <g transform="translate(1080.771483 404.638438) scale(0.1 -0.1)">
       <use xlink:href="#DejaVuSans-37"/>
       <use xlink:href="#DejaVuSans-2e" x="63.623047"/>
       <use xlink:href="#DejaVuSans-39" x="95.410156"/>
       <use xlink:href="#DejaVuSans-33" x="159.033203"/>
       <use xlink:href="#DejaVuSans-37" x="222.65625"/>
      </g>
     </g>
    </g>
    <g id="xtick_7">
     <g id="line2d_7">
      <g>
       <use xlink:href="#m2414c5bcaf" x="1269.92151" y="390.04" style="stroke: #000000; stroke-width: 0.8"/>
      </g>
     </g>
     <g id="text_7">
      <!-- 7.938 -->
      <g transform="translate(1255.607447 404.638438) scale(0.1 -0.1)">
       <defs>
        <path id="DejaVuSans-38" d="M 2034 2216 
Q 1584 2216 1326 1975 
Q 1069 1734 1069 1313 
Q 1069 891 1326 650 
Q 1584 409 2034 409 
Q 2484 409 2743 651 
Q 3003 894 3003 1313 
Q 3003 1734 2745 1975 
Q 2488 2216 2034 2216 
z
M 1403 2484 
Q 997 2584 770 2862 
Q 544 3141 544 3541 
Q 544 4100 942 4425 
Q 1341 4750 2034 4750 
Q 2731 4750 3128 4425 
Q 3525 4100 3525 3541 
Q 3525 3141 3298 2862 
Q 3072 2584 2669 2484 
Q 3125 2378 3379 2068 
Q 3634 1759 3634 1313 
Q 3634 634 3220 271 
Q 2806 -91 2034 -91 
Q 1263 -91 848 271 
Q 434 634 434 1313 
Q 434 1759 690 2068 
Q 947 2378 1403 2484 
z
M 1172 3481 
Q 1172 3119 1398 2916 
Q 1625 2713 2034 2713 
Q 2441 2713 2670 2916 
Q 2900 3119 2900 3481 
Q 2900 3844 2670 4047 
Q 2441 4250 2034 4250 
Q 1625 4250 1398 4047 
Q 1172 3844 1172 3481 
z
" transform="scale(0.015625)"/>
       </defs>
       <use xlink:href="#DejaVuSans-37"/>
       <use xlink:href="#DejaVuSans-2e" x="63.623047"/>
       <use xlink:href="#DejaVuSans-39" x="95.410156"/>
       <use xlink:href="#DejaVuSans-33" x="159.033203"/>
       <use xlink:href="#DejaVuSans-38" x="222.65625"/>
      </g>
     </g>
    </g>
    <g id="text_8">
     <!-- time -->
     <g transform="translate(649.713364 418.316562) scale(0.1 -0.1)">
      <defs>
       <path id="DejaVuSans-74" d="M 1172 4494 
L 1172 3500 
L 2356 3500 
L 2356 3053 
L 1172 3053 
L 1172 1153 
Q 1172 725 1289 603 
Q 1406 481 1766 481 
L 2356 481 
L 2356 0 
L 1766 0 
Q 1100 0 847 248 
Q 594 497 594 1153 
L 594 3053 
L 172 3053 
L 172 3500 
L 594 3500 
L 594 4494 
L 1172 4494 
z
" transform="scale(0.015625)"/>
       <path id="DejaVuSans-69" d="M 603 3500 
L 1178 3500 
L 1178 0 
L 603 0 
L 603 3500 
z
M 603 4863 
L 1178 4863 
L 1178 4134 
L 603 4134 
L 603 4863 
z
" transform="scale(0.015625)"/>
       <path id="DejaVuSans-6d" d="M 3328 2828 
Q 3544 3216 3844 3400 
Q 4144 3584 4550 3584 
Q 5097 3584 5394 3201 
Q 5691 2819 5691 2113 
L 5691 0 
L 5113 0 
L 5113 2094 
Q 5113 2597 4934 2840 
Q 4756 3084 4391 3084 
Q 3944 3084 3684 2787 
Q 3425 2491 3425 1978 
L 3425 0 
L 2847 0 
L 2847 2094 
Q 2847 2600 2669 2842 
Q 2491 3084 2119 3084 
Q 1678 3084 1418 2786 
Q 1159 2488 1159 1978 
L 1159 0 
L 581 0 
L 581 3500 
L 1159 3500 
L 1159 2956 
Q 1356 3278 1631 3431 
Q 1906 3584 2284 3584 
Q 2666 3584 2933 3390 
Q 3200 3197 3328 2828 
z
" transform="scale(0.015625)"/>
       <path id="DejaVuSans-65" d="M 3597 1894 
L 3597 1613 
L 953 1613 
Q 991 1019 1311 708 
Q 1631 397 2203 397 
Q 2534 397 2845 478 
Q 3156 559 3463 722 
L 3463 178 
Q 3153 47 2828 -22 
Q 2503 -91 2169 -91 
Q 1331 -91 842 396 
Q 353 884 353 1716 
Q 353 2575 817 3079 
Q 1281 3584 2069 3584 
Q 2775 3584 3186 3129 
Q 3597 2675 3597 1894 
z
M 3022 2063 
Q 3016 2534 2758 2815 
Q 2500 3097 2075 3097 
Q 1594 3097 1305 2825 
Q 1016 2553 972 2059 
L 3022 2063 
z
" transform="scale(0.015625)"/>
      </defs>
      <use xlink:href="#DejaVuSans-74"/>
      <use xlink:href="#DejaVuSans-69" x="39.208984"/>
      <use xlink:href="#DejaVuSans-6d" x="66.992188"/>
      <use xlink:href="#DejaVuSans-65" x="164.404297"/>
     </g>
    </g>
    <g id="text_9">
     <!-- 1e12 -->
     <g transform="translate(1250.22829 417.316562) scale(0.1 -0.1)">
      <defs>
       <path id="DejaVuSans-31" d="M 794 531 
L 1825 531 
L 1825 4091 
L 703 3866 
L 703 4441 
L 1819 4666 
L 2450 4666 
L 2450 531 
L 3481 531 
L 3481 0 
L 794 0 
L 794 531 
z
" transform="scale(0.015625)"/>
      </defs>
      <use xlink:href="#DejaVuSans-31"/>
      <use xlink:href="#DejaVuSans-65" x="63.623047"/>
      <use xlink:href="#DejaVuSans-31" x="125.146484"/>
      <use xlink:href="#DejaVuSans-32" x="188.769531"/>
     </g>
    </g>
   </g>
   <g id="matplotlib.axis_2">
    <g id="ytick_1">
     <g id="line2d_8">
      <defs>
       <path id="m44fb16127d" d="M 0 0 
L -3.5 0 
" style="stroke: #000000; stroke-width: 0.8"/>
      </defs>
      <g>
       <use xlink:href="#m44fb16127d" x="46.55" y="360.849758" style="stroke: #000000; stroke-width: 0.8"/>
      </g>
     </g>
     <g id="text_10">
      <!-- −5 -->
      <g transform="translate(24.807812 364.648977) scale(0.1 -0.1)">
       <defs>
        <path id="DejaVuSans-2212" d="M 678 2272 
L 4684 2272 
L 4684 1741 
L 678 1741 
L 678 2272 
z
" transform="scale(0.015625)"/>
       </defs>
       <use xlink:href="#DejaVuSans-2212"/>
       <use xlink:href="#DejaVuSans-35" x="83.789062"/>
      </g>
     </g>
    </g>
    <g id="ytick_2">
     <g id="line2d_9">
      <g>
       <use xlink:href="#m44fb16127d" x="46.55" y="296.140731" style="stroke: #000000; stroke-width: 0.8"/>
      </g>
     </g>
     <g id="text_11">
      <!-- 0 -->
      <g transform="translate(33.1875 299.93995) scale(0.1 -0.1)">
       <defs>
        <path id="DejaVuSans-30" d="M 2034 4250 
Q 1547 4250 1301 3770 
Q 1056 3291 1056 2328 
Q 1056 1369 1301 889 
Q 1547 409 2034 409 
Q 2525 409 2770 889 
Q 3016 1369 3016 2328 
Q 3016 3291 2770 3770 
Q 2525 4250 2034 4250 
z
M 2034 4750 
Q 2819 4750 3233 4129 
Q 3647 3509 3647 2328 
Q 3647 1150 3233 529 
Q 2819 -91 2034 -91 
Q 1250 -91 836 529 
Q 422 1150 422 2328 
Q 422 3509 836 4129 
Q 1250 4750 2034 4750 
z
" transform="scale(0.015625)"/>
       </defs>
       <use xlink:href="#DejaVuSans-30"/>
      </g>
     </g>
    </g>
    <g id="ytick_3">
     <g id="line2d_10">
      <g>
       <use xlink:href="#m44fb16127d" x="46.55" y="231.431705" style="stroke: #000000; stroke-width: 0.8"/>
      </g>
     </g>
     <g id="text_12">
      <!-- 5 -->
      <g transform="translate(33.1875 235.230923) scale(0.1 -0.1)">
       <use xlink:href="#DejaVuSans-35"/>
      </g>
     </g>
    </g>
    <g id="ytick_4">
     <g id="line2d_11">
      <g>
       <use xlink:href="#m44fb16127d" x="46.55" y="166.722678" style="stroke: #000000; stroke-width: 0.8"/>
      </g>
     </g>
     <g id="text_13">
      <!-- 10 -->
      <g transform="translate(26.825 170.521896) scale(0.1 -0.1)">
       <use xlink:href="#DejaVuSans-31"/>
       <use xlink:href="#DejaVuSans-30" x="63.623047"/>
      </g>
     </g>
    </g>
    <g id="ytick_5">
     <g id="line2d_12">
      <g>
       <use xlink:href="#m44fb16127d" x="46.55" y="102.013651" style="stroke: #000000; stroke-width: 0.8"/>
      </g>
     </g>
     <g id="text_14">
      <!-- 15 -->
      <g transform="translate(26.825 105.81287) scale(0.1 -0.1)">
       <use xlink:href="#DejaVuSans-31"/>
       <use xlink:href="#DejaVuSans-35" x="63.623047"/>
      </g>
     </g>
    </g>
    <g id="ytick_6">
     <g id="line2d_13">
      <g>
       <use xlink:href="#m44fb16127d" x="46.55" y="37.304624" style="stroke: #000000; stroke-width: 0.8"/>
      </g>
     </g>
     <g id="text_15">
      <!-- 20 -->
      <g transform="translate(26.825 41.103843) scale(0.1 -0.1)">
       <use xlink:href="#DejaVuSans-32"/>
       <use xlink:href="#DejaVuSans-30" x="63.623047"/>
      </g>
     </g>
    </g>
    <g id="text_16">
     <!-- acc -->
     <g transform="translate(18.728125 217.0225) rotate(-90) scale(0.1 -0.1)">
      <defs>
       <path id="DejaVuSans-61" d="M 2194 1759 
Q 1497 1759 1228 1600 
Q 959 1441 959 1056 
Q 959 750 1161 570 
Q 1363 391 1709 391 
Q 2188 391 2477 730 
Q 2766 1069 2766 1631 
L 2766 1759 
L 2194 1759 
z
M 3341 1997 
L 3341 0 
L 2766 0 
L 2766 531 
Q 2569 213 2275 61 
Q 1981 -91 1556 -91 
Q 1019 -91 701 211 
Q 384 513 384 1019 
Q 384 1609 779 1909 
Q 1175 2209 1959 2209 
L 2766 2209 
L 2766 2266 
Q 2766 2663 2505 2880 
Q 2244 3097 1772 3097 
Q 1472 3097 1187 3025 
Q 903 2953 641 2809 
L 641 3341 
Q 956 3463 1253 3523 
Q 1550 3584 1831 3584 
Q 2591 3584 2966 3190 
Q 3341 2797 3341 1997 
z
" transform="scale(0.015625)"/>
       <path id="DejaVuSans-63" d="M 3122 3366 
L 3122 2828 
Q 2878 2963 2633 3030 
Q 2388 3097 2138 3097 
Q 1578 3097 1268 2742 
Q 959 2388 959 1747 
Q 959 1106 1268 751 
Q 1578 397 2138 397 
Q 2388 397 2633 464 
Q 2878 531 3122 666 
L 3122 134 
Q 2881 22 2623 -34 
Q 2366 -91 2075 -91 
Q 1284 -91 818 406 
Q 353 903 353 1747 
Q 353 2603 823 3093 
Q 1294 3584 2113 3584 
Q 2378 3584 2631 3529 
Q 2884 3475 3122 3366 
z
" transform="scale(0.015625)"/>
      </defs>
      <use xlink:href="#DejaVuSans-61"/>
      <use xlink:href="#DejaVuSans-63" x="61.279297"/>
      <use xlink:href="#DejaVuSans-63" x="116.259766"/>
     </g>
    </g>
   </g>
   <g id="line2d_14">
    <path d="M 102.409951 288.763902 
L 112.936999 278.92813 
L 121.639284 298.082002 
L 130.405559 289.281574 
L 139.12935 245.538272 
L 147.88496 183.158771 
L 158.364103 167.24035 
L 167.103628 203.477405 
L 175.848748 252.915101 
L 184.583029 327.848154 
L 193.344059 324.871539 
L 202.067674 246.573617 
L 210.818039 325.906884 
L 219.55232 368.614841 
L 228.30793 233.761229 
L 237.03172 122.202867 
L 254.537695 290.187501 
L 263.26673 318.918309 
L 272.001011 317.49471 
L 280.762041 285.787287 
L 289.485656 265.468653 
L 298.236021 261.456693 
L 306.965057 272.327809 
L 315.720667 268.31585 
L 324.449702 225.219638 
L 333.205312 183.158771 
L 341.982252 221.207678 
L 350.684713 207.877619 
L 359.418993 239.585042 
L 368.169358 334.448475 
L 376.903638 305.976503 
L 385.654003 265.856907 
L 394.383039 329.789425 
L 403.138649 367.579497 
L 411.867684 219.78408 
L 420.623294 135.532927 
L 429.362994 225.866728 
L 438.102695 294.717133 
L 446.836975 277.763368 
L 455.58734 337.166254 
L 464.32704 302.611634 
L 473.077231 273.751408 
L 481.801021 237.643771 
L 490.556631 271.810137 
L 499.285666 253.950446 
L 508.041276 222.243023 
L 516.807552 201.536134 
L 525.520677 220.301752 
L 534.254957 206.45402 
L 543.005322 245.538272 
L 551.739602 342.342976 
L 560.500633 288.24623 
L 569.219003 269.868866 
L 577.974613 343.248903 
L 586.703648 373.532727 
L 595.459258 172.158236 
L 604.193539 159.863521 
L 612.927994 222.243023 
L 621.683604 246.055945 
L 630.412639 330.82477 
L 639.168249 324.353867 
L 647.90253 297.56433 
L 656.64765 272.327809 
L 665.38193 257.056479 
L 674.132295 273.363154 
L 682.866576 243.079329 
L 691.616941 218.231063 
L 700.345976 192.994543 
L 709.101586 212.795505 
L 717.835866 224.701966 
L 726.586232 258.480078 
L 735.315267 351.661076 
L 745.81032 292.646444 
L 754.55002 287.728558 
L 763.300211 342.731231 
L 772.024001 338.848689 
L 780.779611 87.907083 
L 789.524556 199.077191 
L 798.269676 318.530055 
L 806.993291 213.313177 
L 815.748902 322.930268 
L 824.483357 289.281574 
L 833.233547 274.26908 
L 841.973247 274.786752 
L 850.712948 280.222311 
L 859.447228 276.728023 
L 868.197593 253.950446 
L 876.931873 235.7025 
L 885.687658 191.053272 
L 896.182712 177.723212 
L 904.927657 201.018462 
L 913.667357 249.03256 
L 922.396392 344.801919 
L 931.141337 302.611634 
L 939.875618 273.751408 
L 948.625983 349.719805 
L 957.349598 350.625732 
L 966.110628 128.156098 
L 974.834244 204.512749 
L 983.595274 241.655731 
L 992.318889 257.574151 
L 1001.074674 321.894924 
L 1009.803709 302.999888 
L 1018.55932 282.163581 
L 1027.2936 275.304425 
L 1036.043965 273.363154 
L 1044.778245 273.751408 
L 1053.52861 249.550232 
L 1062.252226 220.301752 
L 1071.013256 183.676443 
L 1079.736871 215.77212 
L 1088.492656 233.243557 
L 1097.232356 237.643771 
L 1105.977302 314.518095 
L 1114.706337 302.999888 
L 1123.461947 269.351194 
L 1132.190982 317.49471 
L 1140.946592 359.555577 
L 1149.670208 203.477405 
L 1158.431238 144.851027 
L 1167.154853 235.184828 
L 1175.910638 322.930268 
L 1184.650338 247.091289 
L 1193.389864 307.011848 
L 1202.124319 295.105387 
L 1210.874684 287.210886 
L 1219.608964 280.869401 
L 1219.608964 280.869401 
" clip-path="url(#paa01b26bee)" style="fill: none; stroke: #1f77b4; stroke-width: 1.5; stroke-linecap: square"/>
   </g>
   <g id="line2d_15">
    <path d="M 102.409951 182.641098 
L 112.936999 180.182155 
L 121.639284 189.500255 
L 130.405559 208.912963 
L 139.12935 186.135386 
L 147.88496 150.416003 
L 158.364103 147.30997 
L 167.103628 139.933141 
L 175.848748 67.200195 
L 184.583029 43.387273 
L 193.344059 165.687333 
L 202.067674 266.374579 
L 210.818039 241.655731 
L 219.55232 263.915636 
L 228.30793 236.608427 
L 237.03172 78.977237 
L 245.78733 213.830849 
L 254.537695 96.448675 
L 263.26673 158.828176 
L 272.001011 161.804792 
L 280.762041 139.933141 
L 289.485656 186.52364 
L 298.236021 184.064697 
L 306.965057 193.512215 
L 315.720667 202.053806 
L 324.449702 181.088082 
L 333.205312 144.333354 
L 341.982252 127.638426 
L 350.684713 152.357274 
L 359.418993 69.141465 
L 368.169358 43.387273 
L 376.903638 173.581835 
L 385.654003 245.0206 
L 394.383039 238.161443 
L 403.138649 260.033094 
L 411.867684 220.301752 
L 420.623294 96.448675 
L 429.362994 216.807464 
L 438.102695 86.354066 
L 446.836975 140.450813 
L 455.58734 162.322464 
L 464.32704 173.581835 
L 473.077231 190.5356 
L 481.801021 181.088082 
L 490.556631 172.805326 
L 499.285666 192.994543 
L 508.041276 185.100041 
L 516.807552 137.99187 
L 525.520677 132.038639 
L 534.254957 160.251775 
L 543.005322 59.564529 
L 551.739602 46.23447 
L 560.500633 197.394756 
L 569.219003 243.079329 
L 577.974613 232.208213 
L 586.703648 265.856907 
L 595.459258 195.971158 
L 604.193539 106.284447 
L 612.927994 207.489365 
L 621.683604 72.635753 
L 630.412639 182.641098 
L 639.168249 154.427963 
L 647.90253 148.992404 
L 656.64765 184.064697 
L 665.38193 182.641098 
L 674.132295 191.053272 
L 682.866576 184.582369 
L 691.616941 170.346383 
L 700.345976 151.451347 
L 709.101586 138.509542 
L 717.835866 130.615041 
L 726.586232 49.728757 
L 735.315267 57.105586 
L 745.81032 211.371906 
L 754.55002 243.079329 
L 763.300211 239.196788 
L 772.024001 275.304425 
L 780.779611 146.792297 
L 789.524556 152.874946 
L 798.269676 205.936348 
L 806.993291 48.305159 
L 815.748902 205.418676 
L 824.483357 145.368699 
L 833.233547 178.240885 
L 841.973247 192.47687 
L 850.712948 194.935813 
L 859.447228 184.064697 
L 868.197593 185.617714 
L 876.931873 161.287119 
L 885.687658 144.851027 
L 896.182712 144.851027 
L 904.927657 129.062024 
L 913.667357 46.752142 
L 922.396392 73.024007 
L 931.141337 201.536134 
L 939.875618 244.502928 
L 948.625983 240.102714 
L 957.349598 269.351194 
L 966.110628 162.710718 
L 974.834244 132.556312 
L 983.595274 236.608427 
L 992.318889 84.930468 
L 1001.074674 159.863521 
L 1009.803709 192.994543 
L 1018.55932 161.804792 
L 1027.2936 186.135386 
L 1036.043965 188.982583 
L 1044.778245 201.536134 
L 1053.52861 159.863521 
L 1062.252226 166.205006 
L 1071.013256 156.886906 
L 1079.736871 130.097369 
L 1088.492656 146.533461 
L 1097.232356 61.635218 
L 1105.977302 50.764102 
L 1114.706337 190.017927 
L 1123.461947 249.550232 
L 1132.190982 236.220172 
L 1140.946592 257.574151 
L 1149.670208 212.795505 
L 1158.431238 95.41333 
L 1167.154853 251.491503 
L 1175.910638 116.637891 
L 1184.650338 110.684661 
L 1193.389864 213.313177 
L 1202.124319 137.474198 
L 1210.874684 182.123426 
L 1219.608964 196.877084 
L 1219.608964 196.877084 
" clip-path="url(#paa01b26bee)" style="fill: none; stroke: #ff7f0e; stroke-width: 1.5; stroke-linecap: square"/>
   </g>
   <g id="line2d_16">
    <path d="M 102.409951 340.73752 
L 112.936999 325.930682 
L 121.639284 314.473008 
L 130.405559 282.215252 
L 139.12935 299.137353 
L 147.88496 331.747654 
L 158.364103 252.954121 
L 167.103628 291.733934 
L 175.848748 328.398488 
L 184.583029 327.86967 
L 193.344059 321.876427 
L 202.067674 317.46963 
L 210.818039 336.859537 
L 219.55232 343.205328 
L 228.30793 281.333893 
L 237.03172 223.692984 
L 245.78733 302.662791 
L 254.537695 295.0831 
L 263.26673 293.672925 
L 272.001011 334.744273 
L 280.762041 345.673132 
L 289.485656 338.798529 
L 298.236021 321.876427 
L 306.965057 299.666169 
L 315.720667 267.937228 
L 324.449702 320.466252 
L 333.205312 332.276467 
L 341.982252 237.618463 
L 350.684713 299.137353 
L 359.418993 321.876427 
L 368.169358 303.544151 
L 376.903638 325.401865 
L 385.654003 312.005201 
L 394.383039 337.740896 
L 403.138649 352.724013 
L 411.867684 242.025263 
L 420.623294 237.618463 
L 429.362994 271.286395 
L 438.102695 302.133975 
L 446.836975 294.730556 
L 455.58734 328.927302 
L 464.32704 342.323965 
L 473.077231 348.140938 
L 481.801021 328.927302 
L 490.556631 280.276261 
L 499.285666 283.801699 
L 508.041276 326.81204 
L 516.807552 328.927302 
L 525.520677 234.621841 
L 534.254957 296.140731 
L 543.005322 321.347611 
L 551.739602 311.476386 
L 560.500633 322.405243 
L 569.219003 315.001823 
L 577.974613 345.673132 
L 586.703648 361.008787 
L 595.459258 207.828512 
L 604.193539 247.137147 
L 612.927994 288.737312 
L 621.683604 305.483141 
L 630.412639 285.211874 
L 639.168249 335.273091 
L 647.90253 347.612124 
L 656.64765 343.205328 
L 665.38193 322.93406 
L 674.132295 299.666169 
L 682.866576 275.340649 
L 691.616941 332.276467 
L 700.345976 304.601782 
L 709.101586 255.421925 
L 717.835866 302.662791 
L 726.586232 330.33748 
L 735.315267 288.208496 
L 745.81032 331.39511 
L 754.55002 319.408621 
L 763.300211 342.67651 
L 772.024001 358.188438 
L 780.779611 153.36051 
L 789.524556 276.222008 
L 798.269676 310.066211 
L 806.993291 324.873048 
L 815.748902 290.676303 
L 824.483357 333.334099 
L 833.233547 372.466461 
L 841.973247 335.273091 
L 850.712948 322.93406 
L 859.447228 307.598404 
L 868.197593 252.072758 
L 876.931873 313.415375 
L 885.687658 232.154038 
L 896.182712 232.154038 
L 904.927657 311.476386 
L 913.667357 343.73414 
L 922.396392 302.662791 
L 931.141337 330.33748 
L 939.875618 310.94757 
L 948.625983 347.612124 
L 957.349598 360.127424 
L 966.110628 174.689407 
L 974.834244 265.469423 
L 983.595274 307.069588 
L 992.318889 300.547529 
L 1001.074674 286.798322 
L 1009.803709 336.859537 
L 1018.55932 356.073171 
L 1027.2936 350.256199 
L 1036.043965 319.937436 
L 1044.778245 312.534016 
L 1053.52861 233.74048 
L 1062.252226 341.795151 
L 1071.013256 329.279845 
L 1079.736871 218.228558 
L 1088.492656 289.266128 
L 1097.232356 335.801907 
L 1105.977302 303.015335 
L 1114.706337 313.062833 
L 1123.461947 321.876427 
L 1132.190982 342.67651 
L 1140.946592 361.008787 
L 1149.670208 201.48273 
L 1158.431238 272.872842 
L 1167.154853 288.737312 
L 1175.910638 287.150865 
L 1184.650338 322.405243 
L 1193.389864 313.062833 
L 1202.124319 330.33748 
L 1210.874684 359.598609 
L 1219.608964 336.859537 
L 1219.608964 336.859537 
" clip-path="url(#paa01b26bee)" style="fill: none; stroke: #2ca02c; stroke-width: 1.5; stroke-linecap: square"/>
   </g>
   <g id="patch_3">
    <path d="M 46.55 390.04 
L 46.55 26.88 
" style="fill: none; stroke: #000000; stroke-width: 0.8; stroke-linejoin: miter; stroke-linecap: square"/>
   </g>
   <g id="patch_4">
    <path d="M 1275.468915 390.04 
L 1275.468915 26.88 
" style="fill: none; stroke: #000000; stroke-width: 0.8; stroke-linejoin: miter; stroke-linecap: square"/>
   </g>
   <g id="patch_5">
    <path d="M 46.55 390.04 
L 1275.468915 390.04 
" style="fill: none; stroke: #000000; stroke-width: 0.8; stroke-linejoin: miter; stroke-linecap: square"/>
   </g>
   <g id="patch_6">
    <path d="M 46.55 26.88 
L 1275.468915 26.88 
" style="fill: none; stroke: #000000; stroke-width: 0.8; stroke-linejoin: miter; stroke-linecap: square"/>
   </g>
   <g id="text_17">
    <!-- User 29, Action 0 -->
    <g transform="translate(609.462895 20.88) scale(0.12 -0.12)">
     <defs>
      <path id="DejaVuSans-55" d="M 556 4666 
L 1191 4666 
L 1191 1831 
Q 1191 1081 1462 751 
Q 1734 422 2344 422 
Q 2950 422 3222 751 
Q 3494 1081 3494 1831 
L 3494 4666 
L 4128 4666 
L 4128 1753 
Q 4128 841 3676 375 
Q 3225 -91 2344 -91 
Q 1459 -91 1007 375 
Q 556 841 556 1753 
L 556 4666 
z
" transform="scale(0.015625)"/>
      <path id="DejaVuSans-73" d="M 2834 3397 
L 2834 2853 
Q 2591 2978 2328 3040 
Q 2066 3103 1784 3103 
Q 1356 3103 1142 2972 
Q 928 2841 928 2578 
Q 928 2378 1081 2264 
Q 1234 2150 1697 2047 
L 1894 2003 
Q 2506 1872 2764 1633 
Q 3022 1394 3022 966 
Q 3022 478 2636 193 
Q 2250 -91 1575 -91 
Q 1294 -91 989 -36 
Q 684 19 347 128 
L 347 722 
Q 666 556 975 473 
Q 1284 391 1588 391 
Q 1994 391 2212 530 
Q 2431 669 2431 922 
Q 2431 1156 2273 1281 
Q 2116 1406 1581 1522 
L 1381 1569 
Q 847 1681 609 1914 
Q 372 2147 372 2553 
Q 372 3047 722 3315 
Q 1072 3584 1716 3584 
Q 2034 3584 2315 3537 
Q 2597 3491 2834 3397 
z
" transform="scale(0.015625)"/>
      <path id="DejaVuSans-72" d="M 2631 2963 
Q 2534 3019 2420 3045 
Q 2306 3072 2169 3072 
Q 1681 3072 1420 2755 
Q 1159 2438 1159 1844 
L 1159 0 
L 581 0 
L 581 3500 
L 1159 3500 
L 1159 2956 
Q 1341 3275 1631 3429 
Q 1922 3584 2338 3584 
Q 2397 3584 2469 3576 
Q 2541 3569 2628 3553 
L 2631 2963 
z
" transform="scale(0.015625)"/>
      <path id="DejaVuSans-20" transform="scale(0.015625)"/>
      <path id="DejaVuSans-2c" d="M 750 794 
L 1409 794 
L 1409 256 
L 897 -744 
L 494 -744 
L 750 256 
L 750 794 
z
" transform="scale(0.015625)"/>
      <path id="DejaVuSans-41" d="M 2188 4044 
L 1331 1722 
L 3047 1722 
L 2188 4044 
z
M 1831 4666 
L 2547 4666 
L 4325 0 
L 3669 0 
L 3244 1197 
L 1141 1197 
L 716 0 
L 50 0 
L 1831 4666 
z
" transform="scale(0.015625)"/>
      <path id="DejaVuSans-6f" d="M 1959 3097 
Q 1497 3097 1228 2736 
Q 959 2375 959 1747 
Q 959 1119 1226 758 
Q 1494 397 1959 397 
Q 2419 397 2687 759 
Q 2956 1122 2956 1747 
Q 2956 2369 2687 2733 
Q 2419 3097 1959 3097 
z
M 1959 3584 
Q 2709 3584 3137 3096 
Q 3566 2609 3566 1747 
Q 3566 888 3137 398 
Q 2709 -91 1959 -91 
Q 1206 -91 779 398 
Q 353 888 353 1747 
Q 353 2609 779 3096 
Q 1206 3584 1959 3584 
z
" transform="scale(0.015625)"/>
      <path id="DejaVuSans-6e" d="M 3513 2113 
L 3513 0 
L 2938 0 
L 2938 2094 
Q 2938 2591 2744 2837 
Q 2550 3084 2163 3084 
Q 1697 3084 1428 2787 
Q 1159 2491 1159 1978 
L 1159 0 
L 581 0 
L 581 3500 
L 1159 3500 
L 1159 2956 
Q 1366 3272 1645 3428 
Q 1925 3584 2291 3584 
Q 2894 3584 3203 3211 
Q 3513 2838 3513 2113 
z
" transform="scale(0.015625)"/>
     </defs>
     <use xlink:href="#DejaVuSans-55"/>
     <use xlink:href="#DejaVuSans-73" x="73.193359"/>
     <use xlink:href="#DejaVuSans-65" x="125.292969"/>
     <use xlink:href="#DejaVuSans-72" x="186.816406"/>
     <use xlink:href="#DejaVuSans-20" x="227.929688"/>
     <use xlink:href="#DejaVuSans-32" x="259.716797"/>
     <use xlink:href="#DejaVuSans-39" x="323.339844"/>
     <use xlink:href="#DejaVuSans-2c" x="386.962891"/>
     <use xlink:href="#DejaVuSans-20" x="418.75"/>
     <use xlink:href="#DejaVuSans-41" x="450.537109"/>
     <use xlink:href="#DejaVuSans-63" x="517.195312"/>
     <use xlink:href="#DejaVuSans-74" x="572.175781"/>
     <use xlink:href="#DejaVuSans-69" x="611.384766"/>
     <use xlink:href="#DejaVuSans-6f" x="639.167969"/>
     <use xlink:href="#DejaVuSans-6e" x="700.349609"/>
     <use xlink:href="#DejaVuSans-20" x="763.728516"/>
     <use xlink:href="#DejaVuSans-30" x="795.515625"/>
    </g>
   </g>
   <g id="legend_1">
    <g id="patch_7">
     <path d="M 1209.817352 78.914375 
L 1268.468915 78.914375 
Q 1270.468915 78.914375 1270.468915 76.914375 
L 1270.468915 33.88 
Q 1270.468915 31.88 1268.468915 31.88 
L 1209.817352 31.88 
Q 1207.817352 31.88 1207.817352 33.88 
L 1207.817352 76.914375 
Q 1207.817352 78.914375 1209.817352 78.914375 
z
" style="fill: #ffffff; opacity: 0.8; stroke: #cccccc; stroke-linejoin: miter"/>
    </g>
    <g id="line2d_17">
     <path d="M 1211.817352 39.978437 
L 1221.817352 39.978437 
L 1231.817352 39.978437 
" style="fill: none; stroke: #1f77b4; stroke-width: 1.5; stroke-linecap: square"/>
    </g>
    <g id="text_18">
     <!-- acc-x -->
     <g transform="translate(1239.817352 43.478437) scale(0.1 -0.1)">
      <defs>
       <path id="DejaVuSans-2d" d="M 313 2009 
L 1997 2009 
L 1997 1497 
L 313 1497 
L 313 2009 
z
" transform="scale(0.015625)"/>
       <path id="DejaVuSans-78" d="M 3513 3500 
L 2247 1797 
L 3578 0 
L 2900 0 
L 1881 1375 
L 863 0 
L 184 0 
L 1544 1831 
L 300 3500 
L 978 3500 
L 1906 2253 
L 2834 3500 
L 3513 3500 
z
" transform="scale(0.015625)"/>
      </defs>
      <use xlink:href="#DejaVuSans-61"/>
      <use xlink:href="#DejaVuSans-63" x="61.279297"/>
      <use xlink:href="#DejaVuSans-63" x="116.259766"/>
      <use xlink:href="#DejaVuSans-2d" x="171.240234"/>
      <use xlink:href="#DejaVuSans-78" x="207.324219"/>
     </g>
    </g>
    <g id="line2d_18">
     <path d="M 1211.817352 54.656563 
L 1221.817352 54.656563 
L 1231.817352 54.656563 
" style="fill: none; stroke: #ff7f0e; stroke-width: 1.5; stroke-linecap: square"/>
    </g>
    <g id="text_19">
     <!-- acc-y -->
     <g transform="translate(1239.817352 58.156563) scale(0.1 -0.1)">
      <defs>
       <path id="DejaVuSans-79" d="M 2059 -325 
Q 1816 -950 1584 -1140 
Q 1353 -1331 966 -1331 
L 506 -1331 
L 506 -850 
L 844 -850 
Q 1081 -850 1212 -737 
Q 1344 -625 1503 -206 
L 1606 56 
L 191 3500 
L 800 3500 
L 1894 763 
L 2988 3500 
L 3597 3500 
L 2059 -325 
z
" transform="scale(0.015625)"/>
      </defs>
      <use xlink:href="#DejaVuSans-61"/>
      <use xlink:href="#DejaVuSans-63" x="61.279297"/>
      <use xlink:href="#DejaVuSans-63" x="116.259766"/>
      <use xlink:href="#DejaVuSans-2d" x="171.240234"/>
      <use xlink:href="#DejaVuSans-79" x="205.574219"/>
     </g>
    </g>
    <g id="line2d_19">
     <path d="M 1211.817352 69.334687 
L 1221.817352 69.334687 
L 1231.817352 69.334687 
" style="fill: none; stroke: #2ca02c; stroke-width: 1.5; stroke-linecap: square"/>
    </g>
    <g id="text_20">
     <!-- acc-z -->
     <g transform="translate(1239.817352 72.834687) scale(0.1 -0.1)">
      <defs>
       <path id="DejaVuSans-7a" d="M 353 3500 
L 3084 3500 
L 3084 2975 
L 922 459 
L 3084 459 
L 3084 0 
L 275 0 
L 275 525 
L 2438 3041 
L 353 3041 
L 353 3500 
z
" transform="scale(0.015625)"/>
      </defs>
      <use xlink:href="#DejaVuSans-61"/>
      <use xlink:href="#DejaVuSans-63" x="61.279297"/>
      <use xlink:href="#DejaVuSans-63" x="116.259766"/>
      <use xlink:href="#DejaVuSans-2d" x="171.240234"/>
      <use xlink:href="#DejaVuSans-7a" x="207.324219"/>
     </g>
    </g>
   </g>
  </g>
 </g>
 <defs>
  <clipPath id="paa01b26bee">
   <rect x="46.55" y="26.88" width="1228.918915" height="363.16"/>
  </clipPath>
 </defs>
</svg>
