<?xml version="1.0" encoding="utf-8" standalone="no"?>
<!DOCTYPE svg PUBLIC "-//W3C//DTD SVG 1.1//EN"
  "http://www.w3.org/Graphics/SVG/1.1/DTD/svg11.dtd">
<svg xmlns:xlink="http://www.w3.org/1999/xlink" width="1296pt" height="432pt" viewBox="0 0 1296 432" xmlns="http://www.w3.org/2000/svg" version="1.1">
 <metadata>
  <rdf:RDF xmlns:dc="http://purl.org/dc/elements/1.1/" xmlns:cc="http://creativecommons.org/ns#" xmlns:rdf="http://www.w3.org/1999/02/22-rdf-syntax-ns#">
   <cc:Work>
    <dc:type rdf:resource="http://purl.org/dc/dcmitype/StillImage"/>
    <dc:date>2025-03-28T12:11:23.717673</dc:date>
    <dc:format>image/svg+xml</dc:format>
    <dc:creator>
     <cc:Agent>
      <dc:title>Matplotlib v3.7.5, https://matplotlib.org/</dc:title>
     </cc:Agent>
    </dc:creator>
   </cc:Work>
  </rdf:RDF>
 </metadata>
 <defs>
  <style type="text/css">*{stroke-linejoin: round; stroke-linecap: butt}</style>
 </defs>
 <g id="figure_1">
  <g id="patch_1">
   <path d="M 0 432 
L 1296 432 
L 1296 0 
L 0 0 
z
" style="fill: #ffffff"/>
  </g>
  <g id="axes_1">
   <g id="patch_2">
    <path d="M 52.94 390.04 
L 1285.2 390.04 
L 1285.2 26.88 
L 52.94 26.88 
z
" style="fill: #ffffff"/>
   </g>
   <g id="matplotlib.axis_1">
    <g id="xtick_1">
     <g id="line2d_1">
      <defs>
       <path id="mf897e8d8b0" d="M 0 0 
L 0 3.5 
" style="stroke: #000000; stroke-width: 0.8"/>
      </defs>
      <g>
       <use xlink:href="#mf897e8d8b0" x="138.456542" y="390.04" style="stroke: #000000; stroke-width: 0.8"/>
      </g>
     </g>
     <g id="text_1">
      <!-- 8.884 -->
      <g transform="translate(124.142479 404.638438) scale(0.1 -0.1)">
       <defs>
        <path id="DejaVuSans-38" d="M 2034 2216 
Q 1584 2216 1326 1975 
Q 1069 1734 1069 1313 
Q 1069 891 1326 650 
Q 1584 409 2034 409 
Q 2484 409 2743 651 
Q 3003 894 3003 1313 
Q 3003 1734 2745 1975 
Q 2488 2216 2034 2216 
z
M 1403 2484 
Q 997 2584 770 2862 
Q 544 3141 544 3541 
Q 544 4100 942 4425 
Q 1341 4750 2034 4750 
Q 2731 4750 3128 4425 
Q 3525 4100 3525 3541 
Q 3525 3141 3298 2862 
Q 3072 2584 2669 2484 
Q 3125 2378 3379 2068 
Q 3634 1759 3634 1313 
Q 3634 634 3220 271 
Q 2806 -91 2034 -91 
Q 1263 -91 848 271 
Q 434 634 434 1313 
Q 434 1759 690 2068 
Q 947 2378 1403 2484 
z
M 1172 3481 
Q 1172 3119 1398 2916 
Q 1625 2713 2034 2713 
Q 2441 2713 2670 2916 
Q 2900 3119 2900 3481 
Q 2900 3844 2670 4047 
Q 2441 4250 2034 4250 
Q 1625 4250 1398 4047 
Q 1172 3844 1172 3481 
z
" transform="scale(0.015625)"/>
        <path id="DejaVuSans-2e" d="M 684 794 
L 1344 794 
L 1344 0 
L 684 0 
L 684 794 
z
" transform="scale(0.015625)"/>
        <path id="DejaVuSans-34" d="M 2419 4116 
L 825 1625 
L 2419 1625 
L 2419 4116 
z
M 2253 4666 
L 3047 4666 
L 3047 1625 
L 3713 1625 
L 3713 1100 
L 3047 1100 
L 3047 0 
L 2419 0 
L 2419 1100 
L 313 1100 
L 313 1709 
L 2253 4666 
z
" transform="scale(0.015625)"/>
       </defs>
       <use xlink:href="#DejaVuSans-38"/>
       <use xlink:href="#DejaVuSans-2e" x="63.623047"/>
       <use xlink:href="#DejaVuSans-38" x="95.410156"/>
       <use xlink:href="#DejaVuSans-38" x="159.033203"/>
       <use xlink:href="#DejaVuSans-34" x="222.65625"/>
      </g>
     </g>
    </g>
    <g id="xtick_2">
     <g id="line2d_2">
      <g>
       <use xlink:href="#mf897e8d8b0" x="314.315421" y="390.04" style="stroke: #000000; stroke-width: 0.8"/>
      </g>
     </g>
     <g id="text_2">
      <!-- 8.885 -->
      <g transform="translate(300.001359 404.638438) scale(0.1 -0.1)">
       <defs>
        <path id="DejaVuSans-35" d="M 691 4666 
L 3169 4666 
L 3169 4134 
L 1269 4134 
L 1269 2991 
Q 1406 3038 1543 3061 
Q 1681 3084 1819 3084 
Q 2600 3084 3056 2656 
Q 3513 2228 3513 1497 
Q 3513 744 3044 326 
Q 2575 -91 1722 -91 
Q 1428 -91 1123 -41 
Q 819 9 494 109 
L 494 744 
Q 775 591 1075 516 
Q 1375 441 1709 441 
Q 2250 441 2565 725 
Q 2881 1009 2881 1497 
Q 2881 1984 2565 2268 
Q 2250 2553 1709 2553 
Q 1456 2553 1204 2497 
Q 953 2441 691 2322 
L 691 4666 
z
" transform="scale(0.015625)"/>
       </defs>
       <use xlink:href="#DejaVuSans-38"/>
       <use xlink:href="#DejaVuSans-2e" x="63.623047"/>
       <use xlink:href="#DejaVuSans-38" x="95.410156"/>
       <use xlink:href="#DejaVuSans-38" x="159.033203"/>
       <use xlink:href="#DejaVuSans-35" x="222.65625"/>
      </g>
     </g>
    </g>
    <g id="xtick_3">
     <g id="line2d_3">
      <g>
       <use xlink:href="#mf897e8d8b0" x="490.174301" y="390.04" style="stroke: #000000; stroke-width: 0.8"/>
      </g>
     </g>
     <g id="text_3">
      <!-- 8.886 -->
      <g transform="translate(475.860239 404.638438) scale(0.1 -0.1)">
       <defs>
        <path id="DejaVuSans-36" d="M 2113 2584 
Q 1688 2584 1439 2293 
Q 1191 2003 1191 1497 
Q 1191 994 1439 701 
Q 1688 409 2113 409 
Q 2538 409 2786 701 
Q 3034 994 3034 1497 
Q 3034 2003 2786 2293 
Q 2538 2584 2113 2584 
z
M 3366 4563 
L 3366 3988 
Q 3128 4100 2886 4159 
Q 2644 4219 2406 4219 
Q 1781 4219 1451 3797 
Q 1122 3375 1075 2522 
Q 1259 2794 1537 2939 
Q 1816 3084 2150 3084 
Q 2853 3084 3261 2657 
Q 3669 2231 3669 1497 
Q 3669 778 3244 343 
Q 2819 -91 2113 -91 
Q 1303 -91 875 529 
Q 447 1150 447 2328 
Q 447 3434 972 4092 
Q 1497 4750 2381 4750 
Q 2619 4750 2861 4703 
Q 3103 4656 3366 4563 
z
" transform="scale(0.015625)"/>
       </defs>
       <use xlink:href="#DejaVuSans-38"/>
       <use xlink:href="#DejaVuSans-2e" x="63.623047"/>
       <use xlink:href="#DejaVuSans-38" x="95.410156"/>
       <use xlink:href="#DejaVuSans-38" x="159.033203"/>
       <use xlink:href="#DejaVuSans-36" x="222.65625"/>
      </g>
     </g>
    </g>
    <g id="xtick_4">
     <g id="line2d_4">
      <g>
       <use xlink:href="#mf897e8d8b0" x="666.033181" y="390.04" style="stroke: #000000; stroke-width: 0.8"/>
      </g>
     </g>
     <g id="text_4">
      <!-- 8.887 -->
      <g transform="translate(651.719118 404.638438) scale(0.1 -0.1)">
       <defs>
        <path id="DejaVuSans-37" d="M 525 4666 
L 3525 4666 
L 3525 4397 
L 1831 0 
L 1172 0 
L 2766 4134 
L 525 4134 
L 525 4666 
z
" transform="scale(0.015625)"/>
       </defs>
       <use xlink:href="#DejaVuSans-38"/>
       <use xlink:href="#DejaVuSans-2e" x="63.623047"/>
       <use xlink:href="#DejaVuSans-38" x="95.410156"/>
       <use xlink:href="#DejaVuSans-38" x="159.033203"/>
       <use xlink:href="#DejaVuSans-37" x="222.65625"/>
      </g>
     </g>
    </g>
    <g id="xtick_5">
     <g id="line2d_5">
      <g>
       <use xlink:href="#mf897e8d8b0" x="841.892061" y="390.04" style="stroke: #000000; stroke-width: 0.8"/>
      </g>
     </g>
     <g id="text_5">
      <!-- 8.888 -->
      <g transform="translate(827.577998 404.638438) scale(0.1 -0.1)">
       <use xlink:href="#DejaVuSans-38"/>
       <use xlink:href="#DejaVuSans-2e" x="63.623047"/>
       <use xlink:href="#DejaVuSans-38" x="95.410156"/>
       <use xlink:href="#DejaVuSans-38" x="159.033203"/>
       <use xlink:href="#DejaVuSans-38" x="222.65625"/>
      </g>
     </g>
    </g>
    <g id="xtick_6">
     <g id="line2d_6">
      <g>
       <use xlink:href="#mf897e8d8b0" x="1017.75094" y="390.04" style="stroke: #000000; stroke-width: 0.8"/>
      </g>
     </g>
     <g id="text_6">
      <!-- 8.889 -->
      <g transform="translate(1003.436878 404.638438) scale(0.1 -0.1)">
       <defs>
        <path id="DejaVuSans-39" d="M 703 97 
L 703 672 
Q 941 559 1184 500 
Q 1428 441 1663 441 
Q 2288 441 2617 861 
Q 2947 1281 2994 2138 
Q 2813 1869 2534 1725 
Q 2256 1581 1919 1581 
Q 1219 1581 811 2004 
Q 403 2428 403 3163 
Q 403 3881 828 4315 
Q 1253 4750 1959 4750 
Q 2769 4750 3195 4129 
Q 3622 3509 3622 2328 
Q 3622 1225 3098 567 
Q 2575 -91 1691 -91 
Q 1453 -91 1209 -44 
Q 966 3 703 97 
z
M 1959 2075 
Q 2384 2075 2632 2365 
Q 2881 2656 2881 3163 
Q 2881 3666 2632 3958 
Q 2384 4250 1959 4250 
Q 1534 4250 1286 3958 
Q 1038 3666 1038 3163 
Q 1038 2656 1286 2365 
Q 1534 2075 1959 2075 
z
" transform="scale(0.015625)"/>
       </defs>
       <use xlink:href="#DejaVuSans-38"/>
       <use xlink:href="#DejaVuSans-2e" x="63.623047"/>
       <use xlink:href="#DejaVuSans-38" x="95.410156"/>
       <use xlink:href="#DejaVuSans-38" x="159.033203"/>
       <use xlink:href="#DejaVuSans-39" x="222.65625"/>
      </g>
     </g>
    </g>
    <g id="xtick_7">
     <g id="line2d_7">
      <g>
       <use xlink:href="#mf897e8d8b0" x="1193.60982" y="390.04" style="stroke: #000000; stroke-width: 0.8"/>
      </g>
     </g>
     <g id="text_7">
      <!-- 8.890 -->
      <g transform="translate(1179.295758 404.638438) scale(0.1 -0.1)">
       <defs>
        <path id="DejaVuSans-30" d="M 2034 4250 
Q 1547 4250 1301 3770 
Q 1056 3291 1056 2328 
Q 1056 1369 1301 889 
Q 1547 409 2034 409 
Q 2525 409 2770 889 
Q 3016 1369 3016 2328 
Q 3016 3291 2770 3770 
Q 2525 4250 2034 4250 
z
M 2034 4750 
Q 2819 4750 3233 4129 
Q 3647 3509 3647 2328 
Q 3647 1150 3233 529 
Q 2819 -91 2034 -91 
Q 1250 -91 836 529 
Q 422 1150 422 2328 
Q 422 3509 836 4129 
Q 1250 4750 2034 4750 
z
" transform="scale(0.015625)"/>
       </defs>
       <use xlink:href="#DejaVuSans-38"/>
       <use xlink:href="#DejaVuSans-2e" x="63.623047"/>
       <use xlink:href="#DejaVuSans-38" x="95.410156"/>
       <use xlink:href="#DejaVuSans-39" x="159.033203"/>
       <use xlink:href="#DejaVuSans-30" x="222.65625"/>
      </g>
     </g>
    </g>
    <g id="text_8">
     <!-- time -->
     <g transform="translate(657.773906 418.316562) scale(0.1 -0.1)">
      <defs>
       <path id="DejaVuSans-74" d="M 1172 4494 
L 1172 3500 
L 2356 3500 
L 2356 3053 
L 1172 3053 
L 1172 1153 
Q 1172 725 1289 603 
Q 1406 481 1766 481 
L 2356 481 
L 2356 0 
L 1766 0 
Q 1100 0 847 248 
Q 594 497 594 1153 
L 594 3053 
L 172 3053 
L 172 3500 
L 594 3500 
L 594 4494 
L 1172 4494 
z
" transform="scale(0.015625)"/>
       <path id="DejaVuSans-69" d="M 603 3500 
L 1178 3500 
L 1178 0 
L 603 0 
L 603 3500 
z
M 603 4863 
L 1178 4863 
L 1178 4134 
L 603 4134 
L 603 4863 
z
" transform="scale(0.015625)"/>
       <path id="DejaVuSans-6d" d="M 3328 2828 
Q 3544 3216 3844 3400 
Q 4144 3584 4550 3584 
Q 5097 3584 5394 3201 
Q 5691 2819 5691 2113 
L 5691 0 
L 5113 0 
L 5113 2094 
Q 5113 2597 4934 2840 
Q 4756 3084 4391 3084 
Q 3944 3084 3684 2787 
Q 3425 2491 3425 1978 
L 3425 0 
L 2847 0 
L 2847 2094 
Q 2847 2600 2669 2842 
Q 2491 3084 2119 3084 
Q 1678 3084 1418 2786 
Q 1159 2488 1159 1978 
L 1159 0 
L 581 0 
L 581 3500 
L 1159 3500 
L 1159 2956 
Q 1356 3278 1631 3431 
Q 1906 3584 2284 3584 
Q 2666 3584 2933 3390 
Q 3200 3197 3328 2828 
z
" transform="scale(0.015625)"/>
       <path id="DejaVuSans-65" d="M 3597 1894 
L 3597 1613 
L 953 1613 
Q 991 1019 1311 708 
Q 1631 397 2203 397 
Q 2534 397 2845 478 
Q 3156 559 3463 722 
L 3463 178 
Q 3153 47 2828 -22 
Q 2503 -91 2169 -91 
Q 1331 -91 842 396 
Q 353 884 353 1716 
Q 353 2575 817 3079 
Q 1281 3584 2069 3584 
Q 2775 3584 3186 3129 
Q 3597 2675 3597 1894 
z
M 3022 2063 
Q 3016 2534 2758 2815 
Q 2500 3097 2075 3097 
Q 1594 3097 1305 2825 
Q 1016 2553 972 2059 
L 3022 2063 
z
" transform="scale(0.015625)"/>
      </defs>
      <use xlink:href="#DejaVuSans-74"/>
      <use xlink:href="#DejaVuSans-69" x="39.208984"/>
      <use xlink:href="#DejaVuSans-6d" x="66.992188"/>
      <use xlink:href="#DejaVuSans-65" x="164.404297"/>
     </g>
    </g>
    <g id="text_9">
     <!-- 1e12 -->
     <g transform="translate(1259.959375 417.316562) scale(0.1 -0.1)">
      <defs>
       <path id="DejaVuSans-31" d="M 794 531 
L 1825 531 
L 1825 4091 
L 703 3866 
L 703 4441 
L 1819 4666 
L 2450 4666 
L 2450 531 
L 3481 531 
L 3481 0 
L 794 0 
L 794 531 
z
" transform="scale(0.015625)"/>
       <path id="DejaVuSans-32" d="M 1228 531 
L 3431 531 
L 3431 0 
L 469 0 
L 469 531 
Q 828 903 1448 1529 
Q 2069 2156 2228 2338 
Q 2531 2678 2651 2914 
Q 2772 3150 2772 3378 
Q 2772 3750 2511 3984 
Q 2250 4219 1831 4219 
Q 1534 4219 1204 4116 
Q 875 4013 500 3803 
L 500 4441 
Q 881 4594 1212 4672 
Q 1544 4750 1819 4750 
Q 2544 4750 2975 4387 
Q 3406 4025 3406 3419 
Q 3406 3131 3298 2873 
Q 3191 2616 2906 2266 
Q 2828 2175 2409 1742 
Q 1991 1309 1228 531 
z
" transform="scale(0.015625)"/>
      </defs>
      <use xlink:href="#DejaVuSans-31"/>
      <use xlink:href="#DejaVuSans-65" x="63.623047"/>
      <use xlink:href="#DejaVuSans-31" x="125.146484"/>
      <use xlink:href="#DejaVuSans-32" x="188.769531"/>
     </g>
    </g>
   </g>
   <g id="matplotlib.axis_2">
    <g id="ytick_1">
     <g id="line2d_8">
      <defs>
       <path id="m9249160128" d="M 0 0 
L -3.5 0 
" style="stroke: #000000; stroke-width: 0.8"/>
      </defs>
      <g>
       <use xlink:href="#m9249160128" x="52.94" y="353.058591" style="stroke: #000000; stroke-width: 0.8"/>
      </g>
     </g>
     <g id="text_10">
      <!-- −10 -->
      <g transform="translate(24.835312 356.857809) scale(0.1 -0.1)">
       <defs>
        <path id="DejaVuSans-2212" d="M 678 2272 
L 4684 2272 
L 4684 1741 
L 678 1741 
L 678 2272 
z
" transform="scale(0.015625)"/>
       </defs>
       <use xlink:href="#DejaVuSans-2212"/>
       <use xlink:href="#DejaVuSans-31" x="83.789062"/>
       <use xlink:href="#DejaVuSans-30" x="147.412109"/>
      </g>
     </g>
    </g>
    <g id="ytick_2">
     <g id="line2d_9">
      <g>
       <use xlink:href="#m9249160128" x="52.94" y="299.740526" style="stroke: #000000; stroke-width: 0.8"/>
      </g>
     </g>
     <g id="text_11">
      <!-- −5 -->
      <g transform="translate(31.197812 303.539745) scale(0.1 -0.1)">
       <use xlink:href="#DejaVuSans-2212"/>
       <use xlink:href="#DejaVuSans-35" x="83.789062"/>
      </g>
     </g>
    </g>
    <g id="ytick_3">
     <g id="line2d_10">
      <g>
       <use xlink:href="#m9249160128" x="52.94" y="246.422462" style="stroke: #000000; stroke-width: 0.8"/>
      </g>
     </g>
     <g id="text_12">
      <!-- 0 -->
      <g transform="translate(39.5775 250.221681) scale(0.1 -0.1)">
       <use xlink:href="#DejaVuSans-30"/>
      </g>
     </g>
    </g>
    <g id="ytick_4">
     <g id="line2d_11">
      <g>
       <use xlink:href="#m9249160128" x="52.94" y="193.104397" style="stroke: #000000; stroke-width: 0.8"/>
      </g>
     </g>
     <g id="text_13">
      <!-- 5 -->
      <g transform="translate(39.5775 196.903616) scale(0.1 -0.1)">
       <use xlink:href="#DejaVuSans-35"/>
      </g>
     </g>
    </g>
    <g id="ytick_5">
     <g id="line2d_12">
      <g>
       <use xlink:href="#m9249160128" x="52.94" y="139.786333" style="stroke: #000000; stroke-width: 0.8"/>
      </g>
     </g>
     <g id="text_14">
      <!-- 10 -->
      <g transform="translate(33.215 143.585552) scale(0.1 -0.1)">
       <use xlink:href="#DejaVuSans-31"/>
       <use xlink:href="#DejaVuSans-30" x="63.623047"/>
      </g>
     </g>
    </g>
    <g id="ytick_6">
     <g id="line2d_13">
      <g>
       <use xlink:href="#m9249160128" x="52.94" y="86.468269" style="stroke: #000000; stroke-width: 0.8"/>
      </g>
     </g>
     <g id="text_15">
      <!-- 15 -->
      <g transform="translate(33.215 90.267487) scale(0.1 -0.1)">
       <use xlink:href="#DejaVuSans-31"/>
       <use xlink:href="#DejaVuSans-35" x="63.623047"/>
      </g>
     </g>
    </g>
    <g id="ytick_7">
     <g id="line2d_14">
      <g>
       <use xlink:href="#m9249160128" x="52.94" y="33.150204" style="stroke: #000000; stroke-width: 0.8"/>
      </g>
     </g>
     <g id="text_16">
      <!-- 20 -->
      <g transform="translate(33.215 36.949423) scale(0.1 -0.1)">
       <use xlink:href="#DejaVuSans-32"/>
       <use xlink:href="#DejaVuSans-30" x="63.623047"/>
      </g>
     </g>
    </g>
    <g id="text_17">
     <!-- acc -->
     <g transform="translate(18.755625 217.0225) rotate(-90) scale(0.1 -0.1)">
      <defs>
       <path id="DejaVuSans-61" d="M 2194 1759 
Q 1497 1759 1228 1600 
Q 959 1441 959 1056 
Q 959 750 1161 570 
Q 1363 391 1709 391 
Q 2188 391 2477 730 
Q 2766 1069 2766 1631 
L 2766 1759 
L 2194 1759 
z
M 3341 1997 
L 3341 0 
L 2766 0 
L 2766 531 
Q 2569 213 2275 61 
Q 1981 -91 1556 -91 
Q 1019 -91 701 211 
Q 384 513 384 1019 
Q 384 1609 779 1909 
Q 1175 2209 1959 2209 
L 2766 2209 
L 2766 2266 
Q 2766 2663 2505 2880 
Q 2244 3097 1772 3097 
Q 1472 3097 1187 3025 
Q 903 2953 641 2809 
L 641 3341 
Q 956 3463 1253 3523 
Q 1550 3584 1831 3584 
Q 2591 3584 2966 3190 
Q 3341 2797 3341 1997 
z
" transform="scale(0.015625)"/>
       <path id="DejaVuSans-63" d="M 3122 3366 
L 3122 2828 
Q 2878 2963 2633 3030 
Q 2388 3097 2138 3097 
Q 1578 3097 1268 2742 
Q 959 2388 959 1747 
Q 959 1106 1268 751 
Q 1578 397 2138 397 
Q 2388 397 2633 464 
Q 2878 531 3122 666 
L 3122 134 
Q 2881 22 2623 -34 
Q 2366 -91 2075 -91 
Q 1284 -91 818 406 
Q 353 903 353 1747 
Q 353 2603 823 3093 
Q 1294 3584 2113 3584 
Q 2378 3584 2631 3529 
Q 2884 3475 3122 3366 
z
" transform="scale(0.015625)"/>
      </defs>
      <use xlink:href="#DejaVuSans-61"/>
      <use xlink:href="#DejaVuSans-63" x="61.279297"/>
      <use xlink:href="#DejaVuSans-63" x="116.259766"/>
     </g>
    </g>
   </g>
   <g id="line2d_15">
    <path d="M 108.951818 320.747844 
L 119.626276 248.022004 
L 128.519108 282.252201 
L 137.218671 272.121769 
L 146.100776 248.875093 
L 154.821793 258.578981 
L 163.703722 341.541889 
L 172.419464 283.211926 
L 181.290665 261.564792 
L 190.006407 332.264545 
L 198.899239 301.126796 
L 207.582623 279.586298 
L 216.470003 292.169361 
L 225.180293 288.543733 
L 234.073125 284.49156 
L 242.783415 287.690644 
L 251.488254 327.359284 
L 260.236178 314.669584 
L 269.069921 245.995917 
L 277.898213 303.686063 
L 286.791045 348.046693 
L 295.501335 285.238013 
L 304.388715 254.526808 
L 313.099006 280.652659 
L 321.986386 288.863641 
L 330.707404 254.526808 
L 339.423145 272.121769 
L 348.310526 294.621992 
L 357.020816 277.986756 
L 365.924375 247.275551 
L 374.645393 301.873249 
L 383.538049 297.074623 
L 392.248339 319.46821 
L 401.135719 284.49156 
L 409.824555 263.164334 
L 418.712111 293.342358 
L 427.427677 293.02245 
L 436.30433 299.847162 
L 445.003893 250.901179 
L 453.896725 276.173942 
L 462.58556 285.664557 
L 471.467489 360.416483 
L 480.183231 330.238459 
L 488.990068 275.427489 
L 497.695082 278.200028 
L 506.582462 280.226115 
L 515.287301 287.690644 
L 524.169405 274.5744 
L 532.868968 253.35381 
L 541.756349 338.769349 
L 550.455911 286.837555 
L 559.343292 255.913077 
L 568.053582 304.32588 
L 576.935686 297.074623 
L 585.640525 297.821076 
L 594.52263 305.285605 
L 603.227468 296.221534 
L 612.109573 297.074623 
L 620.803684 277.986756 
L 629.69124 293.768903 
L 638.40153 302.726338 
L 647.283459 290.143275 
L 655.983022 250.901179 
L 664.870402 359.989939 
L 673.559238 365.215109 
L 682.441342 261.991337 
L 691.146181 281.612384 
L 700.028285 296.648078 
L 708.743851 279.053117 
L 717.631407 288.863641 
L 726.341698 296.221534 
L 735.234354 363.615567 
L 743.933916 238.318116 
L 752.821297 279.586298 
L 761.531587 330.558367 
L 770.413691 295.794989 
L 779.11853 339.515802 
L 788.000635 275.747397 
L 796.700197 268.069596 
L 805.582302 317.442124 
L 814.281865 298.674165 
L 823.163793 306.138694 
L 831.868808 261.991337 
L 840.756188 280.652659 
L 849.461027 373.532727 
L 858.343131 328.958825 
L 867.04797 250.04809 
L 875.930074 254.526808 
L 884.651092 299.847162 
L 893.511742 286.091102 
L 902.21658 264.443968 
L 911.098685 269.669138 
L 919.798248 324.373472 
L 928.680176 250.474635 
L 937.390467 297.821076 
L 946.272571 306.458602 
L 954.97741 306.138694 
L 963.864966 307.311691 
L 972.559077 288.543733 
L 981.441182 284.811468 
L 990.156748 306.138694 
L 999.028125 310.190867 
L 1007.732963 304.112607 
L 1016.615068 294.621992 
L 1025.330634 251.754268 
L 1034.212738 311.363864 
L 1042.923029 342.394978 
L 1051.799682 292.169361 
L 1060.515423 250.474635 
L 1069.386625 281.18584 
L 1078.102367 277.453575 
L 1086.979019 271.695224 
L 1095.68931 268.922685 
L 1104.3996 259.96525 
L 1113.281529 282.038929 
L 1121.997271 273.401402 
L 1130.873923 252.927266 
L 1139.584214 334.290632 
L 1148.460867 316.269126 
L 1157.160429 296.648078 
L 1166.042534 280.652659 
L 1176.427177 265.19042 
L 1185.21801 275.427489 
L 1194.008844 281.612384 
L 1202.804953 276.173942 
L 1211.595787 286.091102 
L 1220.386621 291.316272 
L 1229.188182 323.307111 
L 1229.188182 323.307111 
" clip-path="url(#pf026dc414d)" style="fill: none; stroke: #1f77b4; stroke-width: 1.5; stroke-linecap: square"/>
   </g>
   <g id="line2d_16">
    <path d="M 108.951818 200.249018 
L 119.626276 116.859565 
L 128.519108 159.407381 
L 137.218671 209.206453 
L 146.100776 205.15428 
L 154.821793 222.749241 
L 163.703722 107.155678 
L 172.419464 43.387273 
L 181.290665 154.502119 
L 190.006407 166.445365 
L 198.899239 162.286556 
L 207.582623 165.059096 
L 216.470003 159.833925 
L 225.180293 157.807839 
L 234.073125 134.134618 
L 242.783415 99.691149 
L 251.488254 90.413805 
L 260.236178 137.760247 
L 269.069921 137.760247 
L 277.898213 126.776725 
L 286.791045 172.523625 
L 295.501335 167.511727 
L 304.388715 134.454527 
L 313.099006 148.850404 
L 321.986386 201.84856 
L 330.707404 186.386321 
L 339.423145 153.755666 
L 348.310526 108.328675 
L 357.020816 112.380848 
L 365.924375 208.779908 
L 374.645393 108.328675 
L 383.538049 185.959777 
L 392.248339 172.523625 
L 401.135719 136.160705 
L 409.824555 152.049488 
L 418.712111 126.350181 
L 427.427677 116.859565 
L 436.30433 92.439892 
L 445.003893 98.518151 
L 453.896725 141.385875 
L 462.58556 123.790914 
L 471.467489 165.059096 
L 480.183231 187.559319 
L 488.990068 138.186791 
L 497.695082 150.87649 
L 506.582462 163.033009 
L 515.287301 190.54513 
L 524.169405 199.822474 
L 532.868968 141.81242 
L 541.756349 159.833925 
L 550.455911 48.719079 
L 559.343292 192.144672 
L 568.053582 146.397773 
L 576.935686 157.381294 
L 585.640525 159.833925 
L 594.52263 157.807839 
L 603.227468 161.860012 
L 612.109573 131.681987 
L 620.803684 107.582222 
L 629.69124 110.781306 
L 638.40153 94.039434 
L 647.283459 155.355208 
L 655.983022 115.260023 
L 664.870402 151.303035 
L 673.559238 196.62339 
L 682.441342 130.402354 
L 691.146181 143.838506 
L 700.028285 143.411961 
L 708.743851 201.102107 
L 717.631407 263.590879 
L 726.341698 215.817893 
L 735.234354 44.666906 
L 743.933916 132.001896 
L 752.821297 188.732316 
L 761.531587 142.772145 
L 770.413691 179.454973 
L 779.11853 182.654057 
L 788.000635 150.449946 
L 796.700197 134.454527 
L 805.582302 110.034853 
L 814.281865 104.703047 
L 823.163793 73.565297 
L 831.868808 144.798231 
L 840.756188 147.250862 
L 849.461027 148.42386 
L 858.343131 188.732316 
L 867.04797 151.622943 
L 875.930074 151.303035 
L 884.651092 160.26047 
L 893.511742 181.054515 
L 902.21658 174.123167 
L 911.098685 172.950169 
L 919.798248 67.487038 
L 928.680176 159.833925 
L 937.390467 138.5067 
L 946.272571 156.101661 
L 954.97741 177.748795 
L 963.864966 176.575798 
L 972.559077 147.464134 
L 981.441182 153.329121 
L 990.156748 130.402354 
L 999.028125 116.113113 
L 1007.732963 111.207851 
L 1016.615068 139.786333 
L 1025.330634 132.001896 
L 1034.212738 101.717235 
L 1042.923029 193.744214 
L 1051.799682 177.002342 
L 1060.515423 123.151097 
L 1069.386625 173.696622 
L 1078.102367 181.907604 
L 1086.979019 185.959777 
L 1095.68931 174.549711 
L 1104.3996 145.864592 
L 1113.281529 140.639422 
L 1121.997271 77.61747 
L 1130.873923 116.859565 
L 1139.584214 165.48564 
L 1148.460867 156.95475 
L 1157.160429 157.807839 
L 1166.042534 154.502119 
L 1176.427177 167.085182 
L 1185.21801 165.48564 
L 1194.008844 156.528205 
L 1202.804953 163.459554 
L 1211.595787 147.997315 
L 1220.386621 107.155678 
L 1229.188182 122.191372 
L 1229.188182 122.191372 
" clip-path="url(#pf026dc414d)" style="fill: none; stroke: #ff7f0e; stroke-width: 1.5; stroke-linecap: square"/>
   </g>
   <g id="line2d_17">
    <path d="M 108.951818 297.111961 
L 119.626276 209.24048 
L 128.519108 252.522631 
L 137.218671 254.991746 
L 146.100776 269.661201 
L 154.821793 174.963342 
L 163.703722 339.522659 
L 172.419464 245.551009 
L 181.290665 212.871533 
L 190.006407 285.637832 
L 198.899239 268.934989 
L 207.582623 254.556021 
L 216.470003 254.556021 
L 225.180293 259.058526 
L 234.073125 276.632823 
L 242.783415 264.86821 
L 251.488254 190.504246 
L 260.236178 198.637806 
L 269.069921 267.192084 
L 277.898213 212.871533 
L 286.791045 253.829809 
L 295.501335 286.509286 
L 304.388715 215.776376 
L 313.099006 250.053515 
L 321.986386 263.996758 
L 330.707404 233.786397 
L 339.423145 223.909935 
L 348.310526 297.547687 
L 357.020816 179.465847 
L 365.924375 274.163706 
L 374.645393 263.996758 
L 383.538049 244.389072 
L 392.248339 252.086904 
L 401.135719 258.332315 
L 409.824555 258.332315 
L 418.712111 262.399094 
L 427.427677 261.963368 
L 436.30433 232.914946 
L 445.003893 198.202079 
L 453.896725 249.617788 
L 462.58556 234.512609 
L 471.467489 250.053515 
L 480.183231 257.025136 
L 488.990068 238.72463 
L 497.695082 232.479219 
L 506.582462 240.322293 
L 515.287301 255.8632 
L 524.169405 245.260525 
L 532.868968 246.858188 
L 541.756349 233.350671 
L 550.455911 254.991746 
L 559.343292 240.322293 
L 568.053582 280.263874 
L 576.935686 263.561031 
L 585.640525 224.781387 
L 594.52263 240.758019 
L 612.109573 279.537663 
L 620.803684 275.035159 
L 629.69124 236.255514 
L 638.40153 178.158666 
L 647.283459 244.824799 
L 655.983022 216.938313 
L 664.870402 246.422462 
L 673.559238 255.8632 
L 682.441342 249.327304 
L 691.146181 229.283893 
L 700.028285 232.188735 
L 708.743851 264.432484 
L 717.631407 275.470885 
L 726.341698 239.45084 
L 735.234354 306.116972 
L 743.933916 176.561004 
L 752.821297 284.475895 
L 761.531587 288.542676 
L 770.413691 248.455851 
L 779.11853 225.943324 
L 788.000635 268.499265 
L 796.700197 279.101938 
L 805.582302 237.417451 
L 814.281865 224.781387 
L 823.163793 206.045154 
L 831.868808 232.188735 
L 840.756188 260.656188 
L 849.461027 200.671195 
L 858.343131 251.79642 
L 867.04797 231.317281 
L 875.930074 225.65284 
L 884.651092 259.929978 
L 893.511742 247.584399 
L 902.21658 260.656188 
L 911.098685 203.866521 
L 919.798248 266.030147 
L 928.680176 230.44583 
L 937.390467 269.661201 
L 946.272571 270.096926 
L 954.97741 257.896589 
L 963.864966 250.053515 
L 972.559077 259.058526 
L 981.441182 265.158695 
L 990.156748 274.599434 
L 999.028125 242.355683 
L 1007.732963 203.140312 
L 1016.615068 243.517619 
L 1025.330634 258.622799 
L 1034.212738 195.732963 
L 1042.923029 255.8632 
L 1051.799682 238.72463 
L 1060.515423 236.255514 
L 1069.386625 231.753007 
L 1078.102367 255.8632 
L 1086.979019 248.455851 
L 1095.68931 256.58941 
L 1104.3996 243.081893 
L 1113.281529 297.547687 
L 1121.997271 301.904952 
L 1130.873923 176.996733 
L 1139.584214 279.101938 
L 1148.460867 253.394083 
L 1157.160429 260.656188 
L 1166.042534 261.527642 
L 1176.427177 269.661201 
L 1194.008844 262.399094 
L 1202.804953 264.86821 
L 1211.595787 262.399094 
L 1220.386621 247.293915 
L 1229.188182 235.38406 
L 1229.188182 235.38406 
" clip-path="url(#pf026dc414d)" style="fill: none; stroke: #2ca02c; stroke-width: 1.5; stroke-linecap: square"/>
   </g>
   <g id="patch_3">
    <path d="M 52.94 390.04 
L 52.94 26.88 
" style="fill: none; stroke: #000000; stroke-width: 0.8; stroke-linejoin: miter; stroke-linecap: square"/>
   </g>
   <g id="patch_4">
    <path d="M 1285.2 390.04 
L 1285.2 26.88 
" style="fill: none; stroke: #000000; stroke-width: 0.8; stroke-linejoin: miter; stroke-linecap: square"/>
   </g>
   <g id="patch_5">
    <path d="M 52.94 390.04 
L 1285.2 390.04 
" style="fill: none; stroke: #000000; stroke-width: 0.8; stroke-linejoin: miter; stroke-linecap: square"/>
   </g>
   <g id="patch_6">
    <path d="M 52.94 26.88 
L 1285.2 26.88 
" style="fill: none; stroke: #000000; stroke-width: 0.8; stroke-linejoin: miter; stroke-linecap: square"/>
   </g>
   <g id="text_18">
    <!-- User 29, Action 2 -->
    <g transform="translate(617.523437 20.88) scale(0.12 -0.12)">
     <defs>
      <path id="DejaVuSans-55" d="M 556 4666 
L 1191 4666 
L 1191 1831 
Q 1191 1081 1462 751 
Q 1734 422 2344 422 
Q 2950 422 3222 751 
Q 3494 1081 3494 1831 
L 3494 4666 
L 4128 4666 
L 4128 1753 
Q 4128 841 3676 375 
Q 3225 -91 2344 -91 
Q 1459 -91 1007 375 
Q 556 841 556 1753 
L 556 4666 
z
" transform="scale(0.015625)"/>
      <path id="DejaVuSans-73" d="M 2834 3397 
L 2834 2853 
Q 2591 2978 2328 3040 
Q 2066 3103 1784 3103 
Q 1356 3103 1142 2972 
Q 928 2841 928 2578 
Q 928 2378 1081 2264 
Q 1234 2150 1697 2047 
L 1894 2003 
Q 2506 1872 2764 1633 
Q 3022 1394 3022 966 
Q 3022 478 2636 193 
Q 2250 -91 1575 -91 
Q 1294 -91 989 -36 
Q 684 19 347 128 
L 347 722 
Q 666 556 975 473 
Q 1284 391 1588 391 
Q 1994 391 2212 530 
Q 2431 669 2431 922 
Q 2431 1156 2273 1281 
Q 2116 1406 1581 1522 
L 1381 1569 
Q 847 1681 609 1914 
Q 372 2147 372 2553 
Q 372 3047 722 3315 
Q 1072 3584 1716 3584 
Q 2034 3584 2315 3537 
Q 2597 3491 2834 3397 
z
" transform="scale(0.015625)"/>
      <path id="DejaVuSans-72" d="M 2631 2963 
Q 2534 3019 2420 3045 
Q 2306 3072 2169 3072 
Q 1681 3072 1420 2755 
Q 1159 2438 1159 1844 
L 1159 0 
L 581 0 
L 581 3500 
L 1159 3500 
L 1159 2956 
Q 1341 3275 1631 3429 
Q 1922 3584 2338 3584 
Q 2397 3584 2469 3576 
Q 2541 3569 2628 3553 
L 2631 2963 
z
" transform="scale(0.015625)"/>
      <path id="DejaVuSans-20" transform="scale(0.015625)"/>
      <path id="DejaVuSans-2c" d="M 750 794 
L 1409 794 
L 1409 256 
L 897 -744 
L 494 -744 
L 750 256 
L 750 794 
z
" transform="scale(0.015625)"/>
      <path id="DejaVuSans-41" d="M 2188 4044 
L 1331 1722 
L 3047 1722 
L 2188 4044 
z
M 1831 4666 
L 2547 4666 
L 4325 0 
L 3669 0 
L 3244 1197 
L 1141 1197 
L 716 0 
L 50 0 
L 1831 4666 
z
" transform="scale(0.015625)"/>
      <path id="DejaVuSans-6f" d="M 1959 3097 
Q 1497 3097 1228 2736 
Q 959 2375 959 1747 
Q 959 1119 1226 758 
Q 1494 397 1959 397 
Q 2419 397 2687 759 
Q 2956 1122 2956 1747 
Q 2956 2369 2687 2733 
Q 2419 3097 1959 3097 
z
M 1959 3584 
Q 2709 3584 3137 3096 
Q 3566 2609 3566 1747 
Q 3566 888 3137 398 
Q 2709 -91 1959 -91 
Q 1206 -91 779 398 
Q 353 888 353 1747 
Q 353 2609 779 3096 
Q 1206 3584 1959 3584 
z
" transform="scale(0.015625)"/>
      <path id="DejaVuSans-6e" d="M 3513 2113 
L 3513 0 
L 2938 0 
L 2938 2094 
Q 2938 2591 2744 2837 
Q 2550 3084 2163 3084 
Q 1697 3084 1428 2787 
Q 1159 2491 1159 1978 
L 1159 0 
L 581 0 
L 581 3500 
L 1159 3500 
L 1159 2956 
Q 1366 3272 1645 3428 
Q 1925 3584 2291 3584 
Q 2894 3584 3203 3211 
Q 3513 2838 3513 2113 
z
" transform="scale(0.015625)"/>
     </defs>
     <use xlink:href="#DejaVuSans-55"/>
     <use xlink:href="#DejaVuSans-73" x="73.193359"/>
     <use xlink:href="#DejaVuSans-65" x="125.292969"/>
     <use xlink:href="#DejaVuSans-72" x="186.816406"/>
     <use xlink:href="#DejaVuSans-20" x="227.929688"/>
     <use xlink:href="#DejaVuSans-32" x="259.716797"/>
     <use xlink:href="#DejaVuSans-39" x="323.339844"/>
     <use xlink:href="#DejaVuSans-2c" x="386.962891"/>
     <use xlink:href="#DejaVuSans-20" x="418.75"/>
     <use xlink:href="#DejaVuSans-41" x="450.537109"/>
     <use xlink:href="#DejaVuSans-63" x="517.195312"/>
     <use xlink:href="#DejaVuSans-74" x="572.175781"/>
     <use xlink:href="#DejaVuSans-69" x="611.384766"/>
     <use xlink:href="#DejaVuSans-6f" x="639.167969"/>
     <use xlink:href="#DejaVuSans-6e" x="700.349609"/>
     <use xlink:href="#DejaVuSans-20" x="763.728516"/>
     <use xlink:href="#DejaVuSans-32" x="795.515625"/>
    </g>
   </g>
   <g id="legend_1">
    <g id="patch_7">
     <path d="M 1219.548438 78.914375 
L 1278.2 78.914375 
Q 1280.2 78.914375 1280.2 76.914375 
L 1280.2 33.88 
Q 1280.2 31.88 1278.2 31.88 
L 1219.548438 31.88 
Q 1217.548438 31.88 1217.548438 33.88 
L 1217.548438 76.914375 
Q 1217.548438 78.914375 1219.548438 78.914375 
z
" style="fill: #ffffff; opacity: 0.8; stroke: #cccccc; stroke-linejoin: miter"/>
    </g>
    <g id="line2d_18">
     <path d="M 1221.548438 39.978437 
L 1231.548438 39.978437 
L 1241.548438 39.978437 
" style="fill: none; stroke: #1f77b4; stroke-width: 1.5; stroke-linecap: square"/>
    </g>
    <g id="text_19">
     <!-- acc-x -->
     <g transform="translate(1249.548438 43.478437) scale(0.1 -0.1)">
      <defs>
       <path id="DejaVuSans-2d" d="M 313 2009 
L 1997 2009 
L 1997 1497 
L 313 1497 
L 313 2009 
z
" transform="scale(0.015625)"/>
       <path id="DejaVuSans-78" d="M 3513 3500 
L 2247 1797 
L 3578 0 
L 2900 0 
L 1881 1375 
L 863 0 
L 184 0 
L 1544 1831 
L 300 3500 
L 978 3500 
L 1906 2253 
L 2834 3500 
L 3513 3500 
z
" transform="scale(0.015625)"/>
      </defs>
      <use xlink:href="#DejaVuSans-61"/>
      <use xlink:href="#DejaVuSans-63" x="61.279297"/>
      <use xlink:href="#DejaVuSans-63" x="116.259766"/>
      <use xlink:href="#DejaVuSans-2d" x="171.240234"/>
      <use xlink:href="#DejaVuSans-78" x="207.324219"/>
     </g>
    </g>
    <g id="line2d_19">
     <path d="M 1221.548438 54.656563 
L 1231.548438 54.656563 
L 1241.548438 54.656563 
" style="fill: none; stroke: #ff7f0e; stroke-width: 1.5; stroke-linecap: square"/>
    </g>
    <g id="text_20">
     <!-- acc-y -->
     <g transform="translate(1249.548438 58.156563) scale(0.1 -0.1)">
      <defs>
       <path id="DejaVuSans-79" d="M 2059 -325 
Q 1816 -950 1584 -1140 
Q 1353 -1331 966 -1331 
L 506 -1331 
L 506 -850 
L 844 -850 
Q 1081 -850 1212 -737 
Q 1344 -625 1503 -206 
L 1606 56 
L 191 3500 
L 800 3500 
L 1894 763 
L 2988 3500 
L 3597 3500 
L 2059 -325 
z
" transform="scale(0.015625)"/>
      </defs>
      <use xlink:href="#DejaVuSans-61"/>
      <use xlink:href="#DejaVuSans-63" x="61.279297"/>
      <use xlink:href="#DejaVuSans-63" x="116.259766"/>
      <use xlink:href="#DejaVuSans-2d" x="171.240234"/>
      <use xlink:href="#DejaVuSans-79" x="205.574219"/>
     </g>
    </g>
    <g id="line2d_20">
     <path d="M 1221.548438 69.334687 
L 1231.548438 69.334687 
L 1241.548438 69.334687 
" style="fill: none; stroke: #2ca02c; stroke-width: 1.5; stroke-linecap: square"/>
    </g>
    <g id="text_21">
     <!-- acc-z -->
     <g transform="translate(1249.548438 72.834687) scale(0.1 -0.1)">
      <defs>
       <path id="DejaVuSans-7a" d="M 353 3500 
L 3084 3500 
L 3084 2975 
L 922 459 
L 3084 459 
L 3084 0 
L 275 0 
L 275 525 
L 2438 3041 
L 353 3041 
L 353 3500 
z
" transform="scale(0.015625)"/>
      </defs>
      <use xlink:href="#DejaVuSans-61"/>
      <use xlink:href="#DejaVuSans-63" x="61.279297"/>
      <use xlink:href="#DejaVuSans-63" x="116.259766"/>
      <use xlink:href="#DejaVuSans-2d" x="171.240234"/>
      <use xlink:href="#DejaVuSans-7a" x="207.324219"/>
     </g>
    </g>
   </g>
  </g>
 </g>
 <defs>
  <clipPath id="pf026dc414d">
   <rect x="52.94" y="26.88" width="1232.26" height="363.16"/>
  </clipPath>
 </defs>
</svg>
