<?xml version="1.0" encoding="utf-8" standalone="no"?>
<!DOCTYPE svg PUBLIC "-//W3C//DTD SVG 1.1//EN"
  "http://www.w3.org/Graphics/SVG/1.1/DTD/svg11.dtd">
<svg xmlns:xlink="http://www.w3.org/1999/xlink" width="1296pt" height="432pt" viewBox="0 0 1296 432" xmlns="http://www.w3.org/2000/svg" version="1.1">
 <metadata>
  <rdf:RDF xmlns:dc="http://purl.org/dc/elements/1.1/" xmlns:cc="http://creativecommons.org/ns#" xmlns:rdf="http://www.w3.org/1999/02/22-rdf-syntax-ns#">
   <cc:Work>
    <dc:type rdf:resource="http://purl.org/dc/dcmitype/StillImage"/>
    <dc:date>2025-03-28T12:11:30.425651</dc:date>
    <dc:format>image/svg+xml</dc:format>
    <dc:creator>
     <cc:Agent>
      <dc:title>Matplotlib v3.7.5, https://matplotlib.org/</dc:title>
     </cc:Agent>
    </dc:creator>
   </cc:Work>
  </rdf:RDF>
 </metadata>
 <defs>
  <style type="text/css">*{stroke-linejoin: round; stroke-linecap: butt}</style>
 </defs>
 <g id="figure_1">
  <g id="patch_1">
   <path d="M 0 432 
L 1296 432 
L 1296 0 
L 0 0 
z
" style="fill: #ffffff"/>
  </g>
  <g id="axes_1">
   <g id="patch_2">
    <path d="M 52.94 390.04 
L 1285.2 390.04 
L 1285.2 26.88 
L 52.94 26.88 
z
" style="fill: #ffffff"/>
   </g>
   <g id="matplotlib.axis_1">
    <g id="xtick_1">
     <g id="line2d_1">
      <defs>
       <path id="m50742f9d65" d="M 0 0 
L 0 3.5 
" style="stroke: #000000; stroke-width: 0.8"/>
      </defs>
      <g>
       <use xlink:href="#m50742f9d65" x="224.929705" y="390.04" style="stroke: #000000; stroke-width: 0.8"/>
      </g>
     </g>
     <g id="text_1">
      <!-- 6.78 -->
      <g transform="translate(213.796893 404.638438) scale(0.1 -0.1)">
       <defs>
        <path id="DejaVuSans-36" d="M 2113 2584 
Q 1688 2584 1439 2293 
Q 1191 2003 1191 1497 
Q 1191 994 1439 701 
Q 1688 409 2113 409 
Q 2538 409 2786 701 
Q 3034 994 3034 1497 
Q 3034 2003 2786 2293 
Q 2538 2584 2113 2584 
z
M 3366 4563 
L 3366 3988 
Q 3128 4100 2886 4159 
Q 2644 4219 2406 4219 
Q 1781 4219 1451 3797 
Q 1122 3375 1075 2522 
Q 1259 2794 1537 2939 
Q 1816 3084 2150 3084 
Q 2853 3084 3261 2657 
Q 3669 2231 3669 1497 
Q 3669 778 3244 343 
Q 2819 -91 2113 -91 
Q 1303 -91 875 529 
Q 447 1150 447 2328 
Q 447 3434 972 4092 
Q 1497 4750 2381 4750 
Q 2619 4750 2861 4703 
Q 3103 4656 3366 4563 
z
" transform="scale(0.015625)"/>
        <path id="DejaVuSans-2e" d="M 684 794 
L 1344 794 
L 1344 0 
L 684 0 
L 684 794 
z
" transform="scale(0.015625)"/>
        <path id="DejaVuSans-37" d="M 525 4666 
L 3525 4666 
L 3525 4397 
L 1831 0 
L 1172 0 
L 2766 4134 
L 525 4134 
L 525 4666 
z
" transform="scale(0.015625)"/>
        <path id="DejaVuSans-38" d="M 2034 2216 
Q 1584 2216 1326 1975 
Q 1069 1734 1069 1313 
Q 1069 891 1326 650 
Q 1584 409 2034 409 
Q 2484 409 2743 651 
Q 3003 894 3003 1313 
Q 3003 1734 2745 1975 
Q 2488 2216 2034 2216 
z
M 1403 2484 
Q 997 2584 770 2862 
Q 544 3141 544 3541 
Q 544 4100 942 4425 
Q 1341 4750 2034 4750 
Q 2731 4750 3128 4425 
Q 3525 4100 3525 3541 
Q 3525 3141 3298 2862 
Q 3072 2584 2669 2484 
Q 3125 2378 3379 2068 
Q 3634 1759 3634 1313 
Q 3634 634 3220 271 
Q 2806 -91 2034 -91 
Q 1263 -91 848 271 
Q 434 634 434 1313 
Q 434 1759 690 2068 
Q 947 2378 1403 2484 
z
M 1172 3481 
Q 1172 3119 1398 2916 
Q 1625 2713 2034 2713 
Q 2441 2713 2670 2916 
Q 2900 3119 2900 3481 
Q 2900 3844 2670 4047 
Q 2441 4250 2034 4250 
Q 1625 4250 1398 4047 
Q 1172 3844 1172 3481 
z
" transform="scale(0.015625)"/>
       </defs>
       <use xlink:href="#DejaVuSans-36"/>
       <use xlink:href="#DejaVuSans-2e" x="63.623047"/>
       <use xlink:href="#DejaVuSans-37" x="95.410156"/>
       <use xlink:href="#DejaVuSans-38" x="159.033203"/>
      </g>
     </g>
    </g>
    <g id="xtick_2">
     <g id="line2d_2">
      <g>
       <use xlink:href="#m50742f9d65" x="398.607796" y="390.04" style="stroke: #000000; stroke-width: 0.8"/>
      </g>
     </g>
     <g id="text_2">
      <!-- 6.79 -->
      <g transform="translate(387.474983 404.638438) scale(0.1 -0.1)">
       <defs>
        <path id="DejaVuSans-39" d="M 703 97 
L 703 672 
Q 941 559 1184 500 
Q 1428 441 1663 441 
Q 2288 441 2617 861 
Q 2947 1281 2994 2138 
Q 2813 1869 2534 1725 
Q 2256 1581 1919 1581 
Q 1219 1581 811 2004 
Q 403 2428 403 3163 
Q 403 3881 828 4315 
Q 1253 4750 1959 4750 
Q 2769 4750 3195 4129 
Q 3622 3509 3622 2328 
Q 3622 1225 3098 567 
Q 2575 -91 1691 -91 
Q 1453 -91 1209 -44 
Q 966 3 703 97 
z
M 1959 2075 
Q 2384 2075 2632 2365 
Q 2881 2656 2881 3163 
Q 2881 3666 2632 3958 
Q 2384 4250 1959 4250 
Q 1534 4250 1286 3958 
Q 1038 3666 1038 3163 
Q 1038 2656 1286 2365 
Q 1534 2075 1959 2075 
z
" transform="scale(0.015625)"/>
       </defs>
       <use xlink:href="#DejaVuSans-36"/>
       <use xlink:href="#DejaVuSans-2e" x="63.623047"/>
       <use xlink:href="#DejaVuSans-37" x="95.410156"/>
       <use xlink:href="#DejaVuSans-39" x="159.033203"/>
      </g>
     </g>
    </g>
    <g id="xtick_3">
     <g id="line2d_3">
      <g>
       <use xlink:href="#m50742f9d65" x="572.285887" y="390.04" style="stroke: #000000; stroke-width: 0.8"/>
      </g>
     </g>
     <g id="text_3">
      <!-- 6.80 -->
      <g transform="translate(561.153074 404.638438) scale(0.1 -0.1)">
       <defs>
        <path id="DejaVuSans-30" d="M 2034 4250 
Q 1547 4250 1301 3770 
Q 1056 3291 1056 2328 
Q 1056 1369 1301 889 
Q 1547 409 2034 409 
Q 2525 409 2770 889 
Q 3016 1369 3016 2328 
Q 3016 3291 2770 3770 
Q 2525 4250 2034 4250 
z
M 2034 4750 
Q 2819 4750 3233 4129 
Q 3647 3509 3647 2328 
Q 3647 1150 3233 529 
Q 2819 -91 2034 -91 
Q 1250 -91 836 529 
Q 422 1150 422 2328 
Q 422 3509 836 4129 
Q 1250 4750 2034 4750 
z
" transform="scale(0.015625)"/>
       </defs>
       <use xlink:href="#DejaVuSans-36"/>
       <use xlink:href="#DejaVuSans-2e" x="63.623047"/>
       <use xlink:href="#DejaVuSans-38" x="95.410156"/>
       <use xlink:href="#DejaVuSans-30" x="159.033203"/>
      </g>
     </g>
    </g>
    <g id="xtick_4">
     <g id="line2d_4">
      <g>
       <use xlink:href="#m50742f9d65" x="745.963977" y="390.04" style="stroke: #000000; stroke-width: 0.8"/>
      </g>
     </g>
     <g id="text_4">
      <!-- 6.81 -->
      <g transform="translate(734.831165 404.638438) scale(0.1 -0.1)">
       <defs>
        <path id="DejaVuSans-31" d="M 794 531 
L 1825 531 
L 1825 4091 
L 703 3866 
L 703 4441 
L 1819 4666 
L 2450 4666 
L 2450 531 
L 3481 531 
L 3481 0 
L 794 0 
L 794 531 
z
" transform="scale(0.015625)"/>
       </defs>
       <use xlink:href="#DejaVuSans-36"/>
       <use xlink:href="#DejaVuSans-2e" x="63.623047"/>
       <use xlink:href="#DejaVuSans-38" x="95.410156"/>
       <use xlink:href="#DejaVuSans-31" x="159.033203"/>
      </g>
     </g>
    </g>
    <g id="xtick_5">
     <g id="line2d_5">
      <g>
       <use xlink:href="#m50742f9d65" x="919.642068" y="390.04" style="stroke: #000000; stroke-width: 0.8"/>
      </g>
     </g>
     <g id="text_5">
      <!-- 6.82 -->
      <g transform="translate(908.509256 404.638438) scale(0.1 -0.1)">
       <defs>
        <path id="DejaVuSans-32" d="M 1228 531 
L 3431 531 
L 3431 0 
L 469 0 
L 469 531 
Q 828 903 1448 1529 
Q 2069 2156 2228 2338 
Q 2531 2678 2651 2914 
Q 2772 3150 2772 3378 
Q 2772 3750 2511 3984 
Q 2250 4219 1831 4219 
Q 1534 4219 1204 4116 
Q 875 4013 500 3803 
L 500 4441 
Q 881 4594 1212 4672 
Q 1544 4750 1819 4750 
Q 2544 4750 2975 4387 
Q 3406 4025 3406 3419 
Q 3406 3131 3298 2873 
Q 3191 2616 2906 2266 
Q 2828 2175 2409 1742 
Q 1991 1309 1228 531 
z
" transform="scale(0.015625)"/>
       </defs>
       <use xlink:href="#DejaVuSans-36"/>
       <use xlink:href="#DejaVuSans-2e" x="63.623047"/>
       <use xlink:href="#DejaVuSans-38" x="95.410156"/>
       <use xlink:href="#DejaVuSans-32" x="159.033203"/>
      </g>
     </g>
    </g>
    <g id="xtick_6">
     <g id="line2d_6">
      <g>
       <use xlink:href="#m50742f9d65" x="1093.320159" y="390.04" style="stroke: #000000; stroke-width: 0.8"/>
      </g>
     </g>
     <g id="text_6">
      <!-- 6.83 -->
      <g transform="translate(1082.187346 404.638438) scale(0.1 -0.1)">
       <defs>
        <path id="DejaVuSans-33" d="M 2597 2516 
Q 3050 2419 3304 2112 
Q 3559 1806 3559 1356 
Q 3559 666 3084 287 
Q 2609 -91 1734 -91 
Q 1441 -91 1130 -33 
Q 819 25 488 141 
L 488 750 
Q 750 597 1062 519 
Q 1375 441 1716 441 
Q 2309 441 2620 675 
Q 2931 909 2931 1356 
Q 2931 1769 2642 2001 
Q 2353 2234 1838 2234 
L 1294 2234 
L 1294 2753 
L 1863 2753 
Q 2328 2753 2575 2939 
Q 2822 3125 2822 3475 
Q 2822 3834 2567 4026 
Q 2313 4219 1838 4219 
Q 1578 4219 1281 4162 
Q 984 4106 628 3988 
L 628 4550 
Q 988 4650 1302 4700 
Q 1616 4750 1894 4750 
Q 2613 4750 3031 4423 
Q 3450 4097 3450 3541 
Q 3450 3153 3228 2886 
Q 3006 2619 2597 2516 
z
" transform="scale(0.015625)"/>
       </defs>
       <use xlink:href="#DejaVuSans-36"/>
       <use xlink:href="#DejaVuSans-2e" x="63.623047"/>
       <use xlink:href="#DejaVuSans-38" x="95.410156"/>
       <use xlink:href="#DejaVuSans-33" x="159.033203"/>
      </g>
     </g>
    </g>
    <g id="xtick_7">
     <g id="line2d_7">
      <g>
       <use xlink:href="#m50742f9d65" x="1266.99825" y="390.04" style="stroke: #000000; stroke-width: 0.8"/>
      </g>
     </g>
     <g id="text_7">
      <!-- 6.84 -->
      <g transform="translate(1255.865437 404.638438) scale(0.1 -0.1)">
       <defs>
        <path id="DejaVuSans-34" d="M 2419 4116 
L 825 1625 
L 2419 1625 
L 2419 4116 
z
M 2253 4666 
L 3047 4666 
L 3047 1625 
L 3713 1625 
L 3713 1100 
L 3047 1100 
L 3047 0 
L 2419 0 
L 2419 1100 
L 313 1100 
L 313 1709 
L 2253 4666 
z
" transform="scale(0.015625)"/>
       </defs>
       <use xlink:href="#DejaVuSans-36"/>
       <use xlink:href="#DejaVuSans-2e" x="63.623047"/>
       <use xlink:href="#DejaVuSans-38" x="95.410156"/>
       <use xlink:href="#DejaVuSans-34" x="159.033203"/>
      </g>
     </g>
    </g>
    <g id="text_8">
     <!-- time -->
     <g transform="translate(657.773906 418.316562) scale(0.1 -0.1)">
      <defs>
       <path id="DejaVuSans-74" d="M 1172 4494 
L 1172 3500 
L 2356 3500 
L 2356 3053 
L 1172 3053 
L 1172 1153 
Q 1172 725 1289 603 
Q 1406 481 1766 481 
L 2356 481 
L 2356 0 
L 1766 0 
Q 1100 0 847 248 
Q 594 497 594 1153 
L 594 3053 
L 172 3053 
L 172 3500 
L 594 3500 
L 594 4494 
L 1172 4494 
z
" transform="scale(0.015625)"/>
       <path id="DejaVuSans-69" d="M 603 3500 
L 1178 3500 
L 1178 0 
L 603 0 
L 603 3500 
z
M 603 4863 
L 1178 4863 
L 1178 4134 
L 603 4134 
L 603 4863 
z
" transform="scale(0.015625)"/>
       <path id="DejaVuSans-6d" d="M 3328 2828 
Q 3544 3216 3844 3400 
Q 4144 3584 4550 3584 
Q 5097 3584 5394 3201 
Q 5691 2819 5691 2113 
L 5691 0 
L 5113 0 
L 5113 2094 
Q 5113 2597 4934 2840 
Q 4756 3084 4391 3084 
Q 3944 3084 3684 2787 
Q 3425 2491 3425 1978 
L 3425 0 
L 2847 0 
L 2847 2094 
Q 2847 2600 2669 2842 
Q 2491 3084 2119 3084 
Q 1678 3084 1418 2786 
Q 1159 2488 1159 1978 
L 1159 0 
L 581 0 
L 581 3500 
L 1159 3500 
L 1159 2956 
Q 1356 3278 1631 3431 
Q 1906 3584 2284 3584 
Q 2666 3584 2933 3390 
Q 3200 3197 3328 2828 
z
" transform="scale(0.015625)"/>
       <path id="DejaVuSans-65" d="M 3597 1894 
L 3597 1613 
L 953 1613 
Q 991 1019 1311 708 
Q 1631 397 2203 397 
Q 2534 397 2845 478 
Q 3156 559 3463 722 
L 3463 178 
Q 3153 47 2828 -22 
Q 2503 -91 2169 -91 
Q 1331 -91 842 396 
Q 353 884 353 1716 
Q 353 2575 817 3079 
Q 1281 3584 2069 3584 
Q 2775 3584 3186 3129 
Q 3597 2675 3597 1894 
z
M 3022 2063 
Q 3016 2534 2758 2815 
Q 2500 3097 2075 3097 
Q 1594 3097 1305 2825 
Q 1016 2553 972 2059 
L 3022 2063 
z
" transform="scale(0.015625)"/>
      </defs>
      <use xlink:href="#DejaVuSans-74"/>
      <use xlink:href="#DejaVuSans-69" x="39.208984"/>
      <use xlink:href="#DejaVuSans-6d" x="66.992188"/>
      <use xlink:href="#DejaVuSans-65" x="164.404297"/>
     </g>
    </g>
    <g id="text_9">
     <!-- 1e11 -->
     <g transform="translate(1259.959375 417.316562) scale(0.1 -0.1)">
      <use xlink:href="#DejaVuSans-31"/>
      <use xlink:href="#DejaVuSans-65" x="63.623047"/>
      <use xlink:href="#DejaVuSans-31" x="125.146484"/>
      <use xlink:href="#DejaVuSans-31" x="188.769531"/>
     </g>
    </g>
   </g>
   <g id="matplotlib.axis_2">
    <g id="ytick_1">
     <g id="line2d_8">
      <defs>
       <path id="m732c7e8cdc" d="M 0 0 
L -3.5 0 
" style="stroke: #000000; stroke-width: 0.8"/>
      </defs>
      <g>
       <use xlink:href="#m732c7e8cdc" x="52.94" y="346.473305" style="stroke: #000000; stroke-width: 0.8"/>
      </g>
     </g>
     <g id="text_10">
      <!-- −10 -->
      <g transform="translate(24.835312 350.272523) scale(0.1 -0.1)">
       <defs>
        <path id="DejaVuSans-2212" d="M 678 2272 
L 4684 2272 
L 4684 1741 
L 678 1741 
L 678 2272 
z
" transform="scale(0.015625)"/>
       </defs>
       <use xlink:href="#DejaVuSans-2212"/>
       <use xlink:href="#DejaVuSans-31" x="83.789062"/>
       <use xlink:href="#DejaVuSans-30" x="147.412109"/>
      </g>
     </g>
    </g>
    <g id="ytick_2">
     <g id="line2d_9">
      <g>
       <use xlink:href="#m732c7e8cdc" x="52.94" y="295.224398" style="stroke: #000000; stroke-width: 0.8"/>
      </g>
     </g>
     <g id="text_11">
      <!-- −5 -->
      <g transform="translate(31.197812 299.023617) scale(0.1 -0.1)">
       <defs>
        <path id="DejaVuSans-35" d="M 691 4666 
L 3169 4666 
L 3169 4134 
L 1269 4134 
L 1269 2991 
Q 1406 3038 1543 3061 
Q 1681 3084 1819 3084 
Q 2600 3084 3056 2656 
Q 3513 2228 3513 1497 
Q 3513 744 3044 326 
Q 2575 -91 1722 -91 
Q 1428 -91 1123 -41 
Q 819 9 494 109 
L 494 744 
Q 775 591 1075 516 
Q 1375 441 1709 441 
Q 2250 441 2565 725 
Q 2881 1009 2881 1497 
Q 2881 1984 2565 2268 
Q 2250 2553 1709 2553 
Q 1456 2553 1204 2497 
Q 953 2441 691 2322 
L 691 4666 
z
" transform="scale(0.015625)"/>
       </defs>
       <use xlink:href="#DejaVuSans-2212"/>
       <use xlink:href="#DejaVuSans-35" x="83.789062"/>
      </g>
     </g>
    </g>
    <g id="ytick_3">
     <g id="line2d_10">
      <g>
       <use xlink:href="#m732c7e8cdc" x="52.94" y="243.975492" style="stroke: #000000; stroke-width: 0.8"/>
      </g>
     </g>
     <g id="text_12">
      <!-- 0 -->
      <g transform="translate(39.5775 247.774711) scale(0.1 -0.1)">
       <use xlink:href="#DejaVuSans-30"/>
      </g>
     </g>
    </g>
    <g id="ytick_4">
     <g id="line2d_11">
      <g>
       <use xlink:href="#m732c7e8cdc" x="52.94" y="192.726586" style="stroke: #000000; stroke-width: 0.8"/>
      </g>
     </g>
     <g id="text_13">
      <!-- 5 -->
      <g transform="translate(39.5775 196.525805) scale(0.1 -0.1)">
       <use xlink:href="#DejaVuSans-35"/>
      </g>
     </g>
    </g>
    <g id="ytick_5">
     <g id="line2d_12">
      <g>
       <use xlink:href="#m732c7e8cdc" x="52.94" y="141.477679" style="stroke: #000000; stroke-width: 0.8"/>
      </g>
     </g>
     <g id="text_14">
      <!-- 10 -->
      <g transform="translate(33.215 145.276898) scale(0.1 -0.1)">
       <use xlink:href="#DejaVuSans-31"/>
       <use xlink:href="#DejaVuSans-30" x="63.623047"/>
      </g>
     </g>
    </g>
    <g id="ytick_6">
     <g id="line2d_13">
      <g>
       <use xlink:href="#m732c7e8cdc" x="52.94" y="90.228773" style="stroke: #000000; stroke-width: 0.8"/>
      </g>
     </g>
     <g id="text_15">
      <!-- 15 -->
      <g transform="translate(33.215 94.027992) scale(0.1 -0.1)">
       <use xlink:href="#DejaVuSans-31"/>
       <use xlink:href="#DejaVuSans-35" x="63.623047"/>
      </g>
     </g>
    </g>
    <g id="ytick_7">
     <g id="line2d_14">
      <g>
       <use xlink:href="#m732c7e8cdc" x="52.94" y="38.979867" style="stroke: #000000; stroke-width: 0.8"/>
      </g>
     </g>
     <g id="text_16">
      <!-- 20 -->
      <g transform="translate(33.215 42.779086) scale(0.1 -0.1)">
       <use xlink:href="#DejaVuSans-32"/>
       <use xlink:href="#DejaVuSans-30" x="63.623047"/>
      </g>
     </g>
    </g>
    <g id="text_17">
     <!-- acc -->
     <g transform="translate(18.755625 217.0225) rotate(-90) scale(0.1 -0.1)">
      <defs>
       <path id="DejaVuSans-61" d="M 2194 1759 
Q 1497 1759 1228 1600 
Q 959 1441 959 1056 
Q 959 750 1161 570 
Q 1363 391 1709 391 
Q 2188 391 2477 730 
Q 2766 1069 2766 1631 
L 2766 1759 
L 2194 1759 
z
M 3341 1997 
L 3341 0 
L 2766 0 
L 2766 531 
Q 2569 213 2275 61 
Q 1981 -91 1556 -91 
Q 1019 -91 701 211 
Q 384 513 384 1019 
Q 384 1609 779 1909 
Q 1175 2209 1959 2209 
L 2766 2209 
L 2766 2266 
Q 2766 2663 2505 2880 
Q 2244 3097 1772 3097 
Q 1472 3097 1187 3025 
Q 903 2953 641 2809 
L 641 3341 
Q 956 3463 1253 3523 
Q 1550 3584 1831 3584 
Q 2591 3584 2966 3190 
Q 3341 2797 3341 1997 
z
" transform="scale(0.015625)"/>
       <path id="DejaVuSans-63" d="M 3122 3366 
L 3122 2828 
Q 2878 2963 2633 3030 
Q 2388 3097 2138 3097 
Q 1578 3097 1268 2742 
Q 959 2388 959 1747 
Q 959 1106 1268 751 
Q 1578 397 2138 397 
Q 2388 397 2633 464 
Q 2878 531 3122 666 
L 3122 134 
Q 2881 22 2623 -34 
Q 2366 -91 2075 -91 
Q 1284 -91 818 406 
Q 353 903 353 1747 
Q 353 2603 823 3093 
Q 1294 3584 2113 3584 
Q 2378 3584 2631 3529 
Q 2884 3475 3122 3366 
z
" transform="scale(0.015625)"/>
      </defs>
      <use xlink:href="#DejaVuSans-61"/>
      <use xlink:href="#DejaVuSans-63" x="61.279297"/>
      <use xlink:href="#DejaVuSans-63" x="116.259766"/>
     </g>
    </g>
   </g>
   <g id="line2d_15">
    <path d="M 108.951818 208.613747 
L 128.043209 312.649027 
L 136.746218 253.097797 
L 145.454611 104.88596 
L 154.131047 274.51984 
L 162.812868 354.263138 
L 171.499898 276.467299 
L 180.176335 130.510413 
L 188.863366 72.804145 
L 197.55057 151.317469 
L 206.23239 155.212386 
L 214.914037 188.31918 
L 223.590647 164.642185 
L 232.282888 288.357045 
L 240.964709 244.385483 
L 249.651913 223.578427 
L 258.33356 313.879 
L 267.01538 265.910024 
L 277.435718 127.025488 
L 287.871861 274.929832 
L 296.553681 338.580973 
L 305.219523 266.730006 
L 313.911938 102.938502 
L 322.593585 61.32439 
L 331.280789 153.674919 
L 339.946631 159.927286 
L 348.644256 169.049591 
L 357.331461 159.927286 
L 366.013108 318.286406 
L 374.700312 222.758445 
L 383.376748 239.260593 
L 392.063779 299.426809 
L 400.735005 280.567211 
L 409.43263 133.995339 
L 418.119835 211.073694 
L 426.801655 350.778213 
L 435.478091 287.537062 
L 444.165122 186.576717 
L 452.852153 92.073734 
L 461.539357 108.16589 
L 470.221178 168.127111 
L 478.918803 159.927286 
L 487.590029 150.189994 
L 496.271676 213.021153 
L 504.95888 318.286406 
L 513.645911 176.839425 
L 522.322347 306.806651 
L 531.009552 293.379438 
L 539.691198 230.343283 
L 548.378403 75.879079 
L 557.060223 339.298458 
L 565.74187 309.574092 
L 574.42369 240.080575 
L 583.110721 103.348493 
L 591.797925 72.394154 
L 600.474362 166.179652 
L 612.034202 137.172771 
L 621.314864 159.517294 
L 630.002069 258.940173 
L 638.683715 256.070234 
L 647.365536 203.898847 
L 656.052567 313.879 
L 664.734387 296.146879 
L 673.426802 180.016857 
L 682.103238 115.545733 
L 690.785059 340.630929 
L 699.472089 299.631804 
L 708.15391 211.688681 
L 716.841114 106.833419 
L 725.522761 90.84376 
L 734.209965 165.769661 
L 742.891612 123.745558 
L 751.578816 154.494902 
L 760.260463 193.751564 
L 768.942283 340.11844 
L 777.624104 178.786883 
L 786.311135 281.284696 
L 794.992955 302.911734 
L 803.68537 225.115895 
L 812.361806 90.433769 
L 821.043627 337.760991 
L 829.730657 312.239035 
L 838.412478 250.227859 
L 847.099508 110.52334 
L 855.781329 78.64652 
L 864.463149 156.852351 
L 873.15018 137.172771 
L 881.82679 159.927286 
L 890.519031 161.874744 
L 899.195641 342.988379 
L 907.882672 211.688681 
L 916.569703 245.922951 
L 925.251523 312.649027 
L 933.938554 256.992714 
L 942.620374 140.657697 
L 951.302195 210.151214 
L 959.989225 333.456083 
L 968.671046 276.262303 
L 977.358076 158.389819 
L 986.039897 99.863567 
L 994.721717 116.775707 
L 1003.408748 165.35967 
L 1012.085358 165.35967 
L 1020.777599 143.425138 
L 1029.45942 238.543108 
L 1038.14124 253.097797 
L 1046.828271 205.128821 
L 1055.510091 316.133952 
L 1064.202506 278.927246 
L 1072.873732 190.266638 
L 1081.544958 127.640475 
L 1090.258388 339.298458 
L 1098.929614 286.819578 
L 1107.616645 176.839425 
L 1116.298465 97.096127 
L 1124.980285 139.940212 
L 1133.667316 166.179652 
L 1142.349136 128.562955 
L 1151.036167 155.212386 
L 1159.717988 167.102133 
L 1168.399808 344.525846 
L 1177.092223 174.481975 
L 1185.768659 287.127071 
L 1194.45569 293.379438 
L 1203.1323 241.618042 
L 1211.819331 123.028073 
L 1220.506361 317.363926 
L 1229.188182 304.859193 
L 1229.188182 304.859193 
" clip-path="url(#pc8bf600a9a)" style="fill: none; stroke: #1f77b4; stroke-width: 1.5; stroke-linecap: square"/>
   </g>
   <g id="line2d_16">
    <path d="M 108.951818 118.723165 
L 128.043209 289.484521 
L 136.746218 304.859193 
L 145.454611 122.618082 
L 154.131047 102.938502 
L 162.812868 150.189994 
L 171.499898 43.797264 
L 180.176335 47.28219 
L 188.863366 99.863567 
L 197.55057 230.548279 
L 206.23239 289.07453 
L 214.914037 205.846306 
L 223.590647 47.28219 
L 232.282888 43.387273 
L 240.964709 86.128861 
L 249.651913 154.08491 
L 258.33356 271.444906 
L 267.01538 348.010772 
L 277.435718 128.562955 
L 287.871861 85.411376 
L 296.553681 115.545733 
L 305.219523 43.797264 
L 313.911938 43.387273 
L 322.593585 114.418257 
L 331.280789 227.063353 
L 339.946631 296.55687 
L 348.644256 209.741223 
L 357.331461 50.357124 
L 366.013108 43.387273 
L 374.700312 120.260632 
L 383.376748 162.694727 
L 392.063779 280.567211 
L 400.735005 349.240746 
L 409.43263 146.500072 
L 418.119835 58.96694 
L 426.801655 159.927286 
L 435.478091 53.534556 
L 444.165122 43.387273 
L 452.852153 63.784337 
L 461.539357 212.611161 
L 470.221178 282.822163 
L 478.918803 238.850601 
L 487.590029 101.811026 
L 496.271676 43.387273 
L 504.95888 72.394154 
L 513.645911 144.552614 
L 522.322347 219.273519 
L 531.009552 341.040921 
L 539.691198 204.71883 
L 548.378403 72.394154 
L 557.060223 158.389819 
L 565.74187 106.628423 
L 574.42369 43.387273 
L 583.110721 46.052216 
L 591.797925 134.40533 
L 600.474362 262.83509 
L 612.034202 275.852312 
L 621.314864 80.593979 
L 630.002069 43.387273 
L 638.683715 92.791218 
L 647.365536 150.907478 
L 656.052567 244.795475 
L 664.734387 371.585269 
L 673.426802 163.822203 
L 682.103238 62.861857 
L 690.785059 154.494902 
L 699.472089 101.811026 
L 708.15391 43.387273 
L 716.841114 53.534556 
L 725.522761 169.459582 
L 734.209965 269.907439 
L 742.891612 258.940173 
L 751.578816 96.686135 
L 760.260463 43.387273 
L 768.942283 66.551778 
L 777.624104 152.854937 
L 786.311135 209.023738 
L 794.992955 342.988379 
L 803.68537 211.688681 
L 812.361806 92.381227 
L 821.043627 117.185698 
L 829.730657 146.295077 
L 838.412478 43.387273 
L 847.099508 46.872198 
L 855.781329 118.313174 
L 864.463149 229.830794 
L 873.15018 288.767036 
L 881.82679 173.76449 
L 890.519031 43.387273 
L 899.195641 43.387273 
L 907.882672 127.435479 
L 916.569703 171.407041 
L 925.251523 284.052137 
L 933.938554 326.793725 
L 942.620374 157.159845 
L 951.302195 46.052216 
L 959.989225 168.127111 
L 968.671046 54.354539 
L 977.358076 46.872198 
L 986.039897 70.446695 
L 994.721717 214.55862 
L 1003.408748 289.484521 
L 1012.085358 236.185658 
L 1020.777599 67.269263 
L 1029.45942 43.387273 
L 1038.14124 97.096127 
L 1046.828271 159.107303 
L 1055.510091 250.63785 
L 1064.202506 347.293287 
L 1072.873732 161.464753 
L 1081.544958 76.289071 
L 1090.258388 157.569836 
L 1098.929614 88.896302 
L 1107.616645 43.797264 
L 1116.298465 86.948843 
L 1124.980285 170.587058 
L 1133.667316 269.907439 
L 1142.349136 260.47764 
L 1151.036167 117.903183 
L 1159.717988 43.387273 
L 1168.399808 57.429473 
L 1177.092223 161.874744 
L 1185.768659 203.898847 
L 1194.45569 342.168397 
L 1203.1323 217.326061 
L 1211.819331 108.883375 
L 1220.506361 110.113349 
L 1229.188182 143.835129 
L 1229.188182 143.835129 
" clip-path="url(#pc8bf600a9a)" style="fill: none; stroke: #ff7f0e; stroke-width: 1.5; stroke-linecap: square"/>
   </g>
   <g id="line2d_17">
    <path d="M 108.951818 242.028034 
L 128.043209 262.425098 
L 136.746218 209.331231 
L 145.454611 360.515505 
L 154.131047 144.347618 
L 162.812868 302.091752 
L 171.499898 260.887631 
L 180.176335 357.850562 
L 188.863366 175.711949 
L 197.55057 250.63785 
L 206.23239 240.490566 
L 214.914037 209.741223 
L 223.590647 266.320015 
L 232.282888 272.162391 
L 240.964709 248.2804 
L 249.651913 260.067649 
L 258.33356 276.262303 
L 267.01538 206.666288 
L 277.435718 333.046091 
L 287.871861 161.157259 
L 296.553681 302.501743 
L 305.219523 261.707614 
L 313.911938 358.978038 
L 322.593585 133.687846 
L 331.280789 270.624923 
L 339.946631 227.883335 
L 348.644256 205.436315 
L 357.331461 266.320015 
L 366.013108 239.260593 
L 374.700312 251.765326 
L 383.376748 262.425098 
L 392.063779 274.51984 
L 400.735005 203.078865 
L 409.43263 329.151174 
L 418.119835 137.172771 
L 426.801655 319.823873 
L 435.478091 250.227859 
L 444.165122 299.631804 
L 452.852153 287.947054 
L 461.539357 136.76278 
L 470.221178 256.070234 
L 478.918803 196.109014 
L 487.590029 251.765326 
L 496.271676 292.251962 
L 504.95888 214.148629 
L 513.645911 245.102968 
L 522.322347 271.444906 
L 531.009552 243.15551 
L 539.691198 263.655072 
L 548.378403 246.742933 
L 557.060223 284.052137 
L 565.74187 284.769622 
L 574.42369 267.95998 
L 583.110721 365.332902 
L 591.797925 124.155549 
L 600.474362 283.642146 
L 612.034202 207.07628 
L 621.314864 252.175317 
L 630.002069 274.51984 
L 638.683715 250.227859 
L 647.365536 245.102968 
L 656.052567 278.209762 
L 664.734387 236.59565 
L 673.426802 293.071944 
L 682.103238 177.659407 
L 690.785059 297.684346 
L 699.472089 251.355335 
L 708.15391 282.51467 
L 716.841114 352.725671 
L 725.522761 110.933331 
L 734.209965 259.657657 
L 742.891612 185.859232 
L 751.578816 250.63785 
L 760.260463 284.052137 
L 768.942283 210.561205 
L 777.624104 240.79806 
L 786.311135 283.232154 
L 794.992955 253.302793 
L 803.68537 261.297622 
L 812.361806 206.256297 
L 821.043627 275.339823 
L 829.730657 277.79977 
L 838.412478 253.712784 
L 847.099508 373.532727 
L 855.781329 136.76278 
L 864.463149 271.034915 
L 873.15018 217.736052 
L 881.82679 217.736052 
L 890.519031 277.79977 
L 899.195641 226.653362 
L 907.882672 263.245081 
L 916.569703 262.83509 
L 925.251523 263.655072 
L 933.938554 213.63614 
L 942.620374 330.791139 
L 951.302195 139.12023 
L 959.989225 289.07453 
L 968.671046 256.992714 
L 977.358076 344.935838 
L 986.039897 267.95998 
L 994.721717 189.856647 
L 1003.408748 240.79806 
L 1012.085358 211.688681 
L 1020.777599 253.302793 
L 1029.45942 301.374267 
L 1038.14124 209.023738 
L 1046.828271 259.350164 
L 1055.510091 271.034915 
L 1064.202506 234.443196 
L 1072.873732 300.554285 
L 1081.544958 185.859232 
L 1090.258388 269.907439 
L 1098.929614 277.389779 
L 1107.616645 303.321726 
L 1116.298465 320.233865 
L 1124.980285 104.680965 
L 1133.667316 253.712784 
L 1142.349136 201.951389 
L 1151.036167 242.438025 
L 1159.717988 295.736887 
L 1168.399808 182.6818 
L 1177.092223 238.133117 
L 1185.768659 277.389779 
L 1194.45569 247.050426 
L 1203.1323 275.852312 
L 1211.819331 262.83509 
L 1220.506361 211.483685 
L 1229.188182 275.339823 
L 1229.188182 275.339823 
" clip-path="url(#pc8bf600a9a)" style="fill: none; stroke: #2ca02c; stroke-width: 1.5; stroke-linecap: square"/>
   </g>
   <g id="patch_3">
    <path d="M 52.94 390.04 
L 52.94 26.88 
" style="fill: none; stroke: #000000; stroke-width: 0.8; stroke-linejoin: miter; stroke-linecap: square"/>
   </g>
   <g id="patch_4">
    <path d="M 1285.2 390.04 
L 1285.2 26.88 
" style="fill: none; stroke: #000000; stroke-width: 0.8; stroke-linejoin: miter; stroke-linecap: square"/>
   </g>
   <g id="patch_5">
    <path d="M 52.94 390.04 
L 1285.2 390.04 
" style="fill: none; stroke: #000000; stroke-width: 0.8; stroke-linejoin: miter; stroke-linecap: square"/>
   </g>
   <g id="patch_6">
    <path d="M 52.94 26.88 
L 1285.2 26.88 
" style="fill: none; stroke: #000000; stroke-width: 0.8; stroke-linejoin: miter; stroke-linecap: square"/>
   </g>
   <g id="text_18">
    <!-- User 34, Action 1 -->
    <g transform="translate(617.523437 20.88) scale(0.12 -0.12)">
     <defs>
      <path id="DejaVuSans-55" d="M 556 4666 
L 1191 4666 
L 1191 1831 
Q 1191 1081 1462 751 
Q 1734 422 2344 422 
Q 2950 422 3222 751 
Q 3494 1081 3494 1831 
L 3494 4666 
L 4128 4666 
L 4128 1753 
Q 4128 841 3676 375 
Q 3225 -91 2344 -91 
Q 1459 -91 1007 375 
Q 556 841 556 1753 
L 556 4666 
z
" transform="scale(0.015625)"/>
      <path id="DejaVuSans-73" d="M 2834 3397 
L 2834 2853 
Q 2591 2978 2328 3040 
Q 2066 3103 1784 3103 
Q 1356 3103 1142 2972 
Q 928 2841 928 2578 
Q 928 2378 1081 2264 
Q 1234 2150 1697 2047 
L 1894 2003 
Q 2506 1872 2764 1633 
Q 3022 1394 3022 966 
Q 3022 478 2636 193 
Q 2250 -91 1575 -91 
Q 1294 -91 989 -36 
Q 684 19 347 128 
L 347 722 
Q 666 556 975 473 
Q 1284 391 1588 391 
Q 1994 391 2212 530 
Q 2431 669 2431 922 
Q 2431 1156 2273 1281 
Q 2116 1406 1581 1522 
L 1381 1569 
Q 847 1681 609 1914 
Q 372 2147 372 2553 
Q 372 3047 722 3315 
Q 1072 3584 1716 3584 
Q 2034 3584 2315 3537 
Q 2597 3491 2834 3397 
z
" transform="scale(0.015625)"/>
      <path id="DejaVuSans-72" d="M 2631 2963 
Q 2534 3019 2420 3045 
Q 2306 3072 2169 3072 
Q 1681 3072 1420 2755 
Q 1159 2438 1159 1844 
L 1159 0 
L 581 0 
L 581 3500 
L 1159 3500 
L 1159 2956 
Q 1341 3275 1631 3429 
Q 1922 3584 2338 3584 
Q 2397 3584 2469 3576 
Q 2541 3569 2628 3553 
L 2631 2963 
z
" transform="scale(0.015625)"/>
      <path id="DejaVuSans-20" transform="scale(0.015625)"/>
      <path id="DejaVuSans-2c" d="M 750 794 
L 1409 794 
L 1409 256 
L 897 -744 
L 494 -744 
L 750 256 
L 750 794 
z
" transform="scale(0.015625)"/>
      <path id="DejaVuSans-41" d="M 2188 4044 
L 1331 1722 
L 3047 1722 
L 2188 4044 
z
M 1831 4666 
L 2547 4666 
L 4325 0 
L 3669 0 
L 3244 1197 
L 1141 1197 
L 716 0 
L 50 0 
L 1831 4666 
z
" transform="scale(0.015625)"/>
      <path id="DejaVuSans-6f" d="M 1959 3097 
Q 1497 3097 1228 2736 
Q 959 2375 959 1747 
Q 959 1119 1226 758 
Q 1494 397 1959 397 
Q 2419 397 2687 759 
Q 2956 1122 2956 1747 
Q 2956 2369 2687 2733 
Q 2419 3097 1959 3097 
z
M 1959 3584 
Q 2709 3584 3137 3096 
Q 3566 2609 3566 1747 
Q 3566 888 3137 398 
Q 2709 -91 1959 -91 
Q 1206 -91 779 398 
Q 353 888 353 1747 
Q 353 2609 779 3096 
Q 1206 3584 1959 3584 
z
" transform="scale(0.015625)"/>
      <path id="DejaVuSans-6e" d="M 3513 2113 
L 3513 0 
L 2938 0 
L 2938 2094 
Q 2938 2591 2744 2837 
Q 2550 3084 2163 3084 
Q 1697 3084 1428 2787 
Q 1159 2491 1159 1978 
L 1159 0 
L 581 0 
L 581 3500 
L 1159 3500 
L 1159 2956 
Q 1366 3272 1645 3428 
Q 1925 3584 2291 3584 
Q 2894 3584 3203 3211 
Q 3513 2838 3513 2113 
z
" transform="scale(0.015625)"/>
     </defs>
     <use xlink:href="#DejaVuSans-55"/>
     <use xlink:href="#DejaVuSans-73" x="73.193359"/>
     <use xlink:href="#DejaVuSans-65" x="125.292969"/>
     <use xlink:href="#DejaVuSans-72" x="186.816406"/>
     <use xlink:href="#DejaVuSans-20" x="227.929688"/>
     <use xlink:href="#DejaVuSans-33" x="259.716797"/>
     <use xlink:href="#DejaVuSans-34" x="323.339844"/>
     <use xlink:href="#DejaVuSans-2c" x="386.962891"/>
     <use xlink:href="#DejaVuSans-20" x="418.75"/>
     <use xlink:href="#DejaVuSans-41" x="450.537109"/>
     <use xlink:href="#DejaVuSans-63" x="517.195312"/>
     <use xlink:href="#DejaVuSans-74" x="572.175781"/>
     <use xlink:href="#DejaVuSans-69" x="611.384766"/>
     <use xlink:href="#DejaVuSans-6f" x="639.167969"/>
     <use xlink:href="#DejaVuSans-6e" x="700.349609"/>
     <use xlink:href="#DejaVuSans-20" x="763.728516"/>
     <use xlink:href="#DejaVuSans-31" x="795.515625"/>
    </g>
   </g>
   <g id="legend_1">
    <g id="patch_7">
     <path d="M 1219.548438 78.914375 
L 1278.2 78.914375 
Q 1280.2 78.914375 1280.2 76.914375 
L 1280.2 33.88 
Q 1280.2 31.88 1278.2 31.88 
L 1219.548438 31.88 
Q 1217.548438 31.88 1217.548438 33.88 
L 1217.548438 76.914375 
Q 1217.548438 78.914375 1219.548438 78.914375 
z
" style="fill: #ffffff; opacity: 0.8; stroke: #cccccc; stroke-linejoin: miter"/>
    </g>
    <g id="line2d_18">
     <path d="M 1221.548438 39.978437 
L 1231.548438 39.978437 
L 1241.548438 39.978437 
" style="fill: none; stroke: #1f77b4; stroke-width: 1.5; stroke-linecap: square"/>
    </g>
    <g id="text_19">
     <!-- acc-x -->
     <g transform="translate(1249.548438 43.478437) scale(0.1 -0.1)">
      <defs>
       <path id="DejaVuSans-2d" d="M 313 2009 
L 1997 2009 
L 1997 1497 
L 313 1497 
L 313 2009 
z
" transform="scale(0.015625)"/>
       <path id="DejaVuSans-78" d="M 3513 3500 
L 2247 1797 
L 3578 0 
L 2900 0 
L 1881 1375 
L 863 0 
L 184 0 
L 1544 1831 
L 300 3500 
L 978 3500 
L 1906 2253 
L 2834 3500 
L 3513 3500 
z
" transform="scale(0.015625)"/>
      </defs>
      <use xlink:href="#DejaVuSans-61"/>
      <use xlink:href="#DejaVuSans-63" x="61.279297"/>
      <use xlink:href="#DejaVuSans-63" x="116.259766"/>
      <use xlink:href="#DejaVuSans-2d" x="171.240234"/>
      <use xlink:href="#DejaVuSans-78" x="207.324219"/>
     </g>
    </g>
    <g id="line2d_19">
     <path d="M 1221.548438 54.656563 
L 1231.548438 54.656563 
L 1241.548438 54.656563 
" style="fill: none; stroke: #ff7f0e; stroke-width: 1.5; stroke-linecap: square"/>
    </g>
    <g id="text_20">
     <!-- acc-y -->
     <g transform="translate(1249.548438 58.156563) scale(0.1 -0.1)">
      <defs>
       <path id="DejaVuSans-79" d="M 2059 -325 
Q 1816 -950 1584 -1140 
Q 1353 -1331 966 -1331 
L 506 -1331 
L 506 -850 
L 844 -850 
Q 1081 -850 1212 -737 
Q 1344 -625 1503 -206 
L 1606 56 
L 191 3500 
L 800 3500 
L 1894 763 
L 2988 3500 
L 3597 3500 
L 2059 -325 
z
" transform="scale(0.015625)"/>
      </defs>
      <use xlink:href="#DejaVuSans-61"/>
      <use xlink:href="#DejaVuSans-63" x="61.279297"/>
      <use xlink:href="#DejaVuSans-63" x="116.259766"/>
      <use xlink:href="#DejaVuSans-2d" x="171.240234"/>
      <use xlink:href="#DejaVuSans-79" x="205.574219"/>
     </g>
    </g>
    <g id="line2d_20">
     <path d="M 1221.548438 69.334687 
L 1231.548438 69.334687 
L 1241.548438 69.334687 
" style="fill: none; stroke: #2ca02c; stroke-width: 1.5; stroke-linecap: square"/>
    </g>
    <g id="text_21">
     <!-- acc-z -->
     <g transform="translate(1249.548438 72.834687) scale(0.1 -0.1)">
      <defs>
       <path id="DejaVuSans-7a" d="M 353 3500 
L 3084 3500 
L 3084 2975 
L 922 459 
L 3084 459 
L 3084 0 
L 275 0 
L 275 525 
L 2438 3041 
L 353 3041 
L 353 3500 
z
" transform="scale(0.015625)"/>
      </defs>
      <use xlink:href="#DejaVuSans-61"/>
      <use xlink:href="#DejaVuSans-63" x="61.279297"/>
      <use xlink:href="#DejaVuSans-63" x="116.259766"/>
      <use xlink:href="#DejaVuSans-2d" x="171.240234"/>
      <use xlink:href="#DejaVuSans-7a" x="207.324219"/>
     </g>
    </g>
   </g>
  </g>
 </g>
 <defs>
  <clipPath id="pc8bf600a9a">
   <rect x="52.94" y="26.88" width="1232.26" height="363.16"/>
  </clipPath>
 </defs>
</svg>
