<?xml version="1.0" encoding="utf-8" standalone="no"?>
<!DOCTYPE svg PUBLIC "-//W3C//DTD SVG 1.1//EN"
  "http://www.w3.org/Graphics/SVG/1.1/DTD/svg11.dtd">
<svg xmlns:xlink="http://www.w3.org/1999/xlink" width="1296pt" height="432pt" viewBox="0 0 1296 432" xmlns="http://www.w3.org/2000/svg" version="1.1">
 <metadata>
  <rdf:RDF xmlns:dc="http://purl.org/dc/elements/1.1/" xmlns:cc="http://creativecommons.org/ns#" xmlns:rdf="http://www.w3.org/1999/02/22-rdf-syntax-ns#">
   <cc:Work>
    <dc:type rdf:resource="http://purl.org/dc/dcmitype/StillImage"/>
    <dc:date>2025-03-28T12:11:31.991716</dc:date>
    <dc:format>image/svg+xml</dc:format>
    <dc:creator>
     <cc:Agent>
      <dc:title>Matplotlib v3.7.5, https://matplotlib.org/</dc:title>
     </cc:Agent>
    </dc:creator>
   </cc:Work>
  </rdf:RDF>
 </metadata>
 <defs>
  <style type="text/css">*{stroke-linejoin: round; stroke-linecap: butt}</style>
 </defs>
 <g id="figure_1">
  <g id="patch_1">
   <path d="M 0 432 
L 1296 432 
L 1296 0 
L 0 0 
z
" style="fill: #ffffff"/>
  </g>
  <g id="axes_1">
   <g id="patch_2">
    <path d="M 44.57 390.04 
L 1285.2 390.04 
L 1285.2 26.88 
L 44.57 26.88 
z
" style="fill: #ffffff"/>
   </g>
   <g id="matplotlib.axis_1">
    <g id="xtick_1">
     <g id="line2d_1">
      <defs>
       <path id="mf4a39e4842" d="M 0 0 
L 0 3.5 
" style="stroke: #000000; stroke-width: 0.8"/>
      </defs>
      <g>
       <use xlink:href="#mf4a39e4842" x="68.588387" y="390.04" style="stroke: #000000; stroke-width: 0.8"/>
      </g>
     </g>
     <g id="text_1">
      <!-- 0 -->
      <g transform="translate(65.407137 404.638438) scale(0.1 -0.1)">
       <defs>
        <path id="DejaVuSans-30" d="M 2034 4250 
Q 1547 4250 1301 3770 
Q 1056 3291 1056 2328 
Q 1056 1369 1301 889 
Q 1547 409 2034 409 
Q 2525 409 2770 889 
Q 3016 1369 3016 2328 
Q 3016 3291 2770 3770 
Q 2525 4250 2034 4250 
z
M 2034 4750 
Q 2819 4750 3233 4129 
Q 3647 3509 3647 2328 
Q 3647 1150 3233 529 
Q 2819 -91 2034 -91 
Q 1250 -91 836 529 
Q 422 1150 422 2328 
Q 422 3509 836 4129 
Q 1250 4750 2034 4750 
z
" transform="scale(0.015625)"/>
       </defs>
       <use xlink:href="#DejaVuSans-30"/>
      </g>
     </g>
    </g>
    <g id="xtick_2">
     <g id="line2d_2">
      <g>
       <use xlink:href="#mf4a39e4842" x="246.203383" y="390.04" style="stroke: #000000; stroke-width: 0.8"/>
      </g>
     </g>
     <g id="text_2">
      <!-- 1 -->
      <g transform="translate(243.022133 404.638438) scale(0.1 -0.1)">
       <defs>
        <path id="DejaVuSans-31" d="M 794 531 
L 1825 531 
L 1825 4091 
L 703 3866 
L 703 4441 
L 1819 4666 
L 2450 4666 
L 2450 531 
L 3481 531 
L 3481 0 
L 794 0 
L 794 531 
z
" transform="scale(0.015625)"/>
       </defs>
       <use xlink:href="#DejaVuSans-31"/>
      </g>
     </g>
    </g>
    <g id="xtick_3">
     <g id="line2d_3">
      <g>
       <use xlink:href="#mf4a39e4842" x="423.818379" y="390.04" style="stroke: #000000; stroke-width: 0.8"/>
      </g>
     </g>
     <g id="text_3">
      <!-- 2 -->
      <g transform="translate(420.637129 404.638438) scale(0.1 -0.1)">
       <defs>
        <path id="DejaVuSans-32" d="M 1228 531 
L 3431 531 
L 3431 0 
L 469 0 
L 469 531 
Q 828 903 1448 1529 
Q 2069 2156 2228 2338 
Q 2531 2678 2651 2914 
Q 2772 3150 2772 3378 
Q 2772 3750 2511 3984 
Q 2250 4219 1831 4219 
Q 1534 4219 1204 4116 
Q 875 4013 500 3803 
L 500 4441 
Q 881 4594 1212 4672 
Q 1544 4750 1819 4750 
Q 2544 4750 2975 4387 
Q 3406 4025 3406 3419 
Q 3406 3131 3298 2873 
Q 3191 2616 2906 2266 
Q 2828 2175 2409 1742 
Q 1991 1309 1228 531 
z
" transform="scale(0.015625)"/>
       </defs>
       <use xlink:href="#DejaVuSans-32"/>
      </g>
     </g>
    </g>
    <g id="xtick_4">
     <g id="line2d_4">
      <g>
       <use xlink:href="#mf4a39e4842" x="601.433375" y="390.04" style="stroke: #000000; stroke-width: 0.8"/>
      </g>
     </g>
     <g id="text_4">
      <!-- 3 -->
      <g transform="translate(598.252125 404.638438) scale(0.1 -0.1)">
       <defs>
        <path id="DejaVuSans-33" d="M 2597 2516 
Q 3050 2419 3304 2112 
Q 3559 1806 3559 1356 
Q 3559 666 3084 287 
Q 2609 -91 1734 -91 
Q 1441 -91 1130 -33 
Q 819 25 488 141 
L 488 750 
Q 750 597 1062 519 
Q 1375 441 1716 441 
Q 2309 441 2620 675 
Q 2931 909 2931 1356 
Q 2931 1769 2642 2001 
Q 2353 2234 1838 2234 
L 1294 2234 
L 1294 2753 
L 1863 2753 
Q 2328 2753 2575 2939 
Q 2822 3125 2822 3475 
Q 2822 3834 2567 4026 
Q 2313 4219 1838 4219 
Q 1578 4219 1281 4162 
Q 984 4106 628 3988 
L 628 4550 
Q 988 4650 1302 4700 
Q 1616 4750 1894 4750 
Q 2613 4750 3031 4423 
Q 3450 4097 3450 3541 
Q 3450 3153 3228 2886 
Q 3006 2619 2597 2516 
z
" transform="scale(0.015625)"/>
       </defs>
       <use xlink:href="#DejaVuSans-33"/>
      </g>
     </g>
    </g>
    <g id="xtick_5">
     <g id="line2d_5">
      <g>
       <use xlink:href="#mf4a39e4842" x="779.048371" y="390.04" style="stroke: #000000; stroke-width: 0.8"/>
      </g>
     </g>
     <g id="text_5">
      <!-- 4 -->
      <g transform="translate(775.867121 404.638438) scale(0.1 -0.1)">
       <defs>
        <path id="DejaVuSans-34" d="M 2419 4116 
L 825 1625 
L 2419 1625 
L 2419 4116 
z
M 2253 4666 
L 3047 4666 
L 3047 1625 
L 3713 1625 
L 3713 1100 
L 3047 1100 
L 3047 0 
L 2419 0 
L 2419 1100 
L 313 1100 
L 313 1709 
L 2253 4666 
z
" transform="scale(0.015625)"/>
       </defs>
       <use xlink:href="#DejaVuSans-34"/>
      </g>
     </g>
    </g>
    <g id="xtick_6">
     <g id="line2d_6">
      <g>
       <use xlink:href="#mf4a39e4842" x="956.663366" y="390.04" style="stroke: #000000; stroke-width: 0.8"/>
      </g>
     </g>
     <g id="text_6">
      <!-- 5 -->
      <g transform="translate(953.482116 404.638438) scale(0.1 -0.1)">
       <defs>
        <path id="DejaVuSans-35" d="M 691 4666 
L 3169 4666 
L 3169 4134 
L 1269 4134 
L 1269 2991 
Q 1406 3038 1543 3061 
Q 1681 3084 1819 3084 
Q 2600 3084 3056 2656 
Q 3513 2228 3513 1497 
Q 3513 744 3044 326 
Q 2575 -91 1722 -91 
Q 1428 -91 1123 -41 
Q 819 9 494 109 
L 494 744 
Q 775 591 1075 516 
Q 1375 441 1709 441 
Q 2250 441 2565 725 
Q 2881 1009 2881 1497 
Q 2881 1984 2565 2268 
Q 2250 2553 1709 2553 
Q 1456 2553 1204 2497 
Q 953 2441 691 2322 
L 691 4666 
z
" transform="scale(0.015625)"/>
       </defs>
       <use xlink:href="#DejaVuSans-35"/>
      </g>
     </g>
    </g>
    <g id="xtick_7">
     <g id="line2d_7">
      <g>
       <use xlink:href="#mf4a39e4842" x="1134.278362" y="390.04" style="stroke: #000000; stroke-width: 0.8"/>
      </g>
     </g>
     <g id="text_7">
      <!-- 6 -->
      <g transform="translate(1131.097112 404.638438) scale(0.1 -0.1)">
       <defs>
        <path id="DejaVuSans-36" d="M 2113 2584 
Q 1688 2584 1439 2293 
Q 1191 2003 1191 1497 
Q 1191 994 1439 701 
Q 1688 409 2113 409 
Q 2538 409 2786 701 
Q 3034 994 3034 1497 
Q 3034 2003 2786 2293 
Q 2538 2584 2113 2584 
z
M 3366 4563 
L 3366 3988 
Q 3128 4100 2886 4159 
Q 2644 4219 2406 4219 
Q 1781 4219 1451 3797 
Q 1122 3375 1075 2522 
Q 1259 2794 1537 2939 
Q 1816 3084 2150 3084 
Q 2853 3084 3261 2657 
Q 3669 2231 3669 1497 
Q 3669 778 3244 343 
Q 2819 -91 2113 -91 
Q 1303 -91 875 529 
Q 447 1150 447 2328 
Q 447 3434 972 4092 
Q 1497 4750 2381 4750 
Q 2619 4750 2861 4703 
Q 3103 4656 3366 4563 
z
" transform="scale(0.015625)"/>
       </defs>
       <use xlink:href="#DejaVuSans-36"/>
      </g>
     </g>
    </g>
    <g id="text_8">
     <!-- time -->
     <g transform="translate(653.588906 418.316562) scale(0.1 -0.1)">
      <defs>
       <path id="DejaVuSans-74" d="M 1172 4494 
L 1172 3500 
L 2356 3500 
L 2356 3053 
L 1172 3053 
L 1172 1153 
Q 1172 725 1289 603 
Q 1406 481 1766 481 
L 2356 481 
L 2356 0 
L 1766 0 
Q 1100 0 847 248 
Q 594 497 594 1153 
L 594 3053 
L 172 3053 
L 172 3500 
L 594 3500 
L 594 4494 
L 1172 4494 
z
" transform="scale(0.015625)"/>
       <path id="DejaVuSans-69" d="M 603 3500 
L 1178 3500 
L 1178 0 
L 603 0 
L 603 3500 
z
M 603 4863 
L 1178 4863 
L 1178 4134 
L 603 4134 
L 603 4863 
z
" transform="scale(0.015625)"/>
       <path id="DejaVuSans-6d" d="M 3328 2828 
Q 3544 3216 3844 3400 
Q 4144 3584 4550 3584 
Q 5097 3584 5394 3201 
Q 5691 2819 5691 2113 
L 5691 0 
L 5113 0 
L 5113 2094 
Q 5113 2597 4934 2840 
Q 4756 3084 4391 3084 
Q 3944 3084 3684 2787 
Q 3425 2491 3425 1978 
L 3425 0 
L 2847 0 
L 2847 2094 
Q 2847 2600 2669 2842 
Q 2491 3084 2119 3084 
Q 1678 3084 1418 2786 
Q 1159 2488 1159 1978 
L 1159 0 
L 581 0 
L 581 3500 
L 1159 3500 
L 1159 2956 
Q 1356 3278 1631 3431 
Q 1906 3584 2284 3584 
Q 2666 3584 2933 3390 
Q 3200 3197 3328 2828 
z
" transform="scale(0.015625)"/>
       <path id="DejaVuSans-65" d="M 3597 1894 
L 3597 1613 
L 953 1613 
Q 991 1019 1311 708 
Q 1631 397 2203 397 
Q 2534 397 2845 478 
Q 3156 559 3463 722 
L 3463 178 
Q 3153 47 2828 -22 
Q 2503 -91 2169 -91 
Q 1331 -91 842 396 
Q 353 884 353 1716 
Q 353 2575 817 3079 
Q 1281 3584 2069 3584 
Q 2775 3584 3186 3129 
Q 3597 2675 3597 1894 
z
M 3022 2063 
Q 3016 2534 2758 2815 
Q 2500 3097 2075 3097 
Q 1594 3097 1305 2825 
Q 1016 2553 972 2059 
L 3022 2063 
z
" transform="scale(0.015625)"/>
      </defs>
      <use xlink:href="#DejaVuSans-74"/>
      <use xlink:href="#DejaVuSans-69" x="39.208984"/>
      <use xlink:href="#DejaVuSans-6d" x="66.992188"/>
      <use xlink:href="#DejaVuSans-65" x="164.404297"/>
     </g>
    </g>
    <g id="text_9">
     <!-- 1e9+3.402e13 -->
     <g transform="translate(1210.435938 417.316562) scale(0.1 -0.1)">
      <defs>
       <path id="DejaVuSans-39" d="M 703 97 
L 703 672 
Q 941 559 1184 500 
Q 1428 441 1663 441 
Q 2288 441 2617 861 
Q 2947 1281 2994 2138 
Q 2813 1869 2534 1725 
Q 2256 1581 1919 1581 
Q 1219 1581 811 2004 
Q 403 2428 403 3163 
Q 403 3881 828 4315 
Q 1253 4750 1959 4750 
Q 2769 4750 3195 4129 
Q 3622 3509 3622 2328 
Q 3622 1225 3098 567 
Q 2575 -91 1691 -91 
Q 1453 -91 1209 -44 
Q 966 3 703 97 
z
M 1959 2075 
Q 2384 2075 2632 2365 
Q 2881 2656 2881 3163 
Q 2881 3666 2632 3958 
Q 2384 4250 1959 4250 
Q 1534 4250 1286 3958 
Q 1038 3666 1038 3163 
Q 1038 2656 1286 2365 
Q 1534 2075 1959 2075 
z
" transform="scale(0.015625)"/>
       <path id="DejaVuSans-2b" d="M 2944 4013 
L 2944 2272 
L 4684 2272 
L 4684 1741 
L 2944 1741 
L 2944 0 
L 2419 0 
L 2419 1741 
L 678 1741 
L 678 2272 
L 2419 2272 
L 2419 4013 
L 2944 4013 
z
" transform="scale(0.015625)"/>
       <path id="DejaVuSans-2e" d="M 684 794 
L 1344 794 
L 1344 0 
L 684 0 
L 684 794 
z
" transform="scale(0.015625)"/>
      </defs>
      <use xlink:href="#DejaVuSans-31"/>
      <use xlink:href="#DejaVuSans-65" x="63.623047"/>
      <use xlink:href="#DejaVuSans-39" x="125.146484"/>
      <use xlink:href="#DejaVuSans-2b" x="188.769531"/>
      <use xlink:href="#DejaVuSans-33" x="272.558594"/>
      <use xlink:href="#DejaVuSans-2e" x="336.181641"/>
      <use xlink:href="#DejaVuSans-34" x="367.96875"/>
      <use xlink:href="#DejaVuSans-30" x="431.591797"/>
      <use xlink:href="#DejaVuSans-32" x="495.214844"/>
      <use xlink:href="#DejaVuSans-65" x="558.837891"/>
      <use xlink:href="#DejaVuSans-31" x="620.361328"/>
      <use xlink:href="#DejaVuSans-33" x="683.984375"/>
     </g>
    </g>
   </g>
   <g id="matplotlib.axis_2">
    <g id="ytick_1">
     <g id="line2d_8">
      <defs>
       <path id="m86db02909c" d="M 0 0 
L -3.5 0 
" style="stroke: #000000; stroke-width: 0.8"/>
      </defs>
      <g>
       <use xlink:href="#m86db02909c" x="44.57" y="321.064256" style="stroke: #000000; stroke-width: 0.8"/>
      </g>
     </g>
     <g id="text_10">
      <!-- 0 -->
      <g transform="translate(31.2075 324.863474) scale(0.1 -0.1)">
       <use xlink:href="#DejaVuSans-30"/>
      </g>
     </g>
    </g>
    <g id="ytick_2">
     <g id="line2d_9">
      <g>
       <use xlink:href="#m86db02909c" x="44.57" y="245.894526" style="stroke: #000000; stroke-width: 0.8"/>
      </g>
     </g>
     <g id="text_11">
      <!-- 5 -->
      <g transform="translate(31.2075 249.693744) scale(0.1 -0.1)">
       <use xlink:href="#DejaVuSans-35"/>
      </g>
     </g>
    </g>
    <g id="ytick_3">
     <g id="line2d_10">
      <g>
       <use xlink:href="#m86db02909c" x="44.57" y="170.724795" style="stroke: #000000; stroke-width: 0.8"/>
      </g>
     </g>
     <g id="text_12">
      <!-- 10 -->
      <g transform="translate(24.845 174.524014) scale(0.1 -0.1)">
       <use xlink:href="#DejaVuSans-31"/>
       <use xlink:href="#DejaVuSans-30" x="63.623047"/>
      </g>
     </g>
    </g>
    <g id="ytick_4">
     <g id="line2d_11">
      <g>
       <use xlink:href="#m86db02909c" x="44.57" y="95.555065" style="stroke: #000000; stroke-width: 0.8"/>
      </g>
     </g>
     <g id="text_13">
      <!-- 15 -->
      <g transform="translate(24.845 99.354284) scale(0.1 -0.1)">
       <use xlink:href="#DejaVuSans-31"/>
       <use xlink:href="#DejaVuSans-35" x="63.623047"/>
      </g>
     </g>
    </g>
    <g id="text_14">
     <!-- acc -->
     <g transform="translate(18.765312 217.0225) rotate(-90) scale(0.1 -0.1)">
      <defs>
       <path id="DejaVuSans-61" d="M 2194 1759 
Q 1497 1759 1228 1600 
Q 959 1441 959 1056 
Q 959 750 1161 570 
Q 1363 391 1709 391 
Q 2188 391 2477 730 
Q 2766 1069 2766 1631 
L 2766 1759 
L 2194 1759 
z
M 3341 1997 
L 3341 0 
L 2766 0 
L 2766 531 
Q 2569 213 2275 61 
Q 1981 -91 1556 -91 
Q 1019 -91 701 211 
Q 384 513 384 1019 
Q 384 1609 779 1909 
Q 1175 2209 1959 2209 
L 2766 2209 
L 2766 2266 
Q 2766 2663 2505 2880 
Q 2244 3097 1772 3097 
Q 1472 3097 1187 3025 
Q 903 2953 641 2809 
L 641 3341 
Q 956 3463 1253 3523 
Q 1550 3584 1831 3584 
Q 2591 3584 2966 3190 
Q 3341 2797 3341 1997 
z
" transform="scale(0.015625)"/>
       <path id="DejaVuSans-63" d="M 3122 3366 
L 3122 2828 
Q 2878 2963 2633 3030 
Q 2388 3097 2138 3097 
Q 1578 3097 1268 2742 
Q 959 2388 959 1747 
Q 959 1106 1268 751 
Q 1578 397 2138 397 
Q 2388 397 2633 464 
Q 2878 531 3122 666 
L 3122 134 
Q 2881 22 2623 -34 
Q 2366 -91 2075 -91 
Q 1284 -91 818 406 
Q 353 903 353 1747 
Q 353 2603 823 3093 
Q 1294 3584 2113 3584 
Q 2378 3584 2631 3529 
Q 2884 3475 3122 3366 
z
" transform="scale(0.015625)"/>
      </defs>
      <use xlink:href="#DejaVuSans-61"/>
      <use xlink:href="#DejaVuSans-63" x="61.279297"/>
      <use xlink:href="#DejaVuSans-63" x="116.259766"/>
     </g>
    </g>
   </g>
   <g id="line2d_12">
    <path d="M 100.962273 322.266971 
L 109.851548 284.832446 
L 118.860358 332.490055 
L 127.59795 335.947862 
L 136.492732 295.055529 
L 145.355187 264.0856 
L 154.255297 299.716052 
L 163.123081 297.911979 
L 172.007205 346.471624 
L 180.880318 359.100139 
L 189.775099 301.069107 
L 198.648211 350.981808 
L 207.537664 314.148641 
L 216.405448 295.055529 
L 225.305736 284.832446 
L 234.162685 322.266971 
L 243.057466 308.435741 
L 251.92525 281.374638 
L 260.825538 255.365912 
L 269.687816 330.836321 
L 278.582597 360.152515 
L 287.461215 357.296066 
L 296.355997 302.572502 
L 305.207618 296.258245 
L 314.113234 352.785882 
L 322.975511 324.522063 
L 331.870293 278.518188 
L 340.738077 271.452234 
L 349.622201 271.452234 
L 358.500642 318.207806 
L 367.390095 349.328074 
L 376.268713 368.421186 
L 385.15266 291.748061 
L 394.015116 331.888697 
L 402.915225 304.827594 
L 411.783009 284.832446 
L 420.677791 284.832446 
L 429.57275 318.207806 
L 438.462203 311.893549 
L 447.318974 279.570565 
L 456.186758 255.365912 
L 465.08154 321.064256 
L 473.943995 371.578314 
L 482.838776 373.532727 
L 491.722723 293.401795 
L 500.606848 295.055529 
L 509.47996 343.013817 
L 518.363907 326.777155 
L 527.231691 294.003153 
L 536.131978 262.281527 
L 544.994256 294.003153 
L 553.894544 319.86154 
L 562.756821 329.633605 
L 571.657109 372.931369 
L 580.519387 282.577354 
L 589.414346 327.979871 
L 598.292787 325.123421 
L 607.176911 303.324199 
L 616.088033 307.082686 
L 624.950311 300.31741 
L 633.801754 304.827594 
L 642.696535 273.707326 
L 651.564319 279.119546 
L 660.453772 325.123421 
L 669.326885 354.439616 
L 678.216338 368.721865 
L 687.094956 296.258245 
L 695.978903 306.782007 
L 704.911694 342.412459 
L 713.746974 314.749998 
L 722.603924 289.943987 
L 731.509539 264.536619 
L 740.366489 314.148641 
L 749.26127 290.545345 
L 758.129054 319.86154 
L 767.023835 360.152515 
L 775.907782 286.48618 
L 784.786401 348.125359 
L 793.654185 334.745147 
L 802.548966 289.943987 
L 811.411421 307.684044 
L 820.311531 311.292191 
L 829.179315 324.522063 
L 838.068768 258.823719 
L 846.94188 260.627793 
L 855.836839 303.925557 
L 864.709952 341.811101 
L 873.593899 365.865415 
L 882.499692 296.859603 
L 891.356464 289.34263 
L 900.224248 338.202954 
L 909.119029 330.234963 
L 917.986813 306.180649 
L 926.876266 281.374638 
L 935.749378 305.428952 
L 944.638831 310.690833 
L 953.506615 321.064256 
L 962.396068 345.870267 
L 971.263852 292.800437 
L 980.163962 323.920705 
L 989.026417 323.920705 
L 997.926527 296.859603 
L 1006.848484 313.547283 
L 1015.667601 308.435741 
L 1024.562382 319.86154 
L 1033.430166 283.028372 
L 1042.330276 258.823719 
L 1051.192731 335.947862 
L 1060.082184 367.06813 
L 1068.960625 367.819828 
L 1077.850078 304.827594 
L 1086.72319 288.290253 
L 1095.612643 344.066193 
L 1104.485933 334.444468 
L 1113.375209 295.055529 
L 1122.248499 256.568627 
L 1131.137774 314.749998 
L 1140.005558 305.428952 
L 1148.889682 309.638457 
L 1157.762795 363.008965 
L 1166.652248 313.096264 
L 1175.52536 340.157367 
L 1184.430976 331.888697 
L 1193.287925 287.087538 
L 1202.182707 289.34263 
L 1211.045162 311.292191 
L 1219.939943 311.893549 
L 1228.807727 281.975996 
L 1228.807727 281.975996 
" clip-path="url(#p65fba14714)" style="fill: none; stroke: #1f77b4; stroke-width: 1.5; stroke-linecap: square"/>
   </g>
   <g id="line2d_13">
    <path d="M 100.962273 129.231104 
L 109.851548 220.938175 
L 118.860358 227.252433 
L 127.59795 249.653012 
L 136.492732 236.874158 
L 145.355187 200.04099 
L 154.255297 135.545362 
L 163.123081 140.205885 
L 172.007205 43.387273 
L 180.880318 228.304809 
L 189.775099 211.16611 
L 198.648211 158.697639 
L 207.537664 216.87901 
L 216.405448 210.564752 
L 225.305736 172.979887 
L 234.162685 188.615191 
L 243.057466 162.155446 
L 251.92525 165.613254 
L 260.825538 160.351373 
L 269.687816 131.035178 
L 278.582597 126.976013 
L 287.461215 107.882901 
L 296.355997 177.79075 
L 305.207618 225.448359 
L 314.113234 237.475516 
L 322.975511 242.587057 
L 331.870293 226.049717 
L 340.738077 203.498798 
L 349.622201 108.484259 
L 358.500642 167.266988 
L 367.390095 59.022577 
L 376.268713 193.726733 
L 385.15266 243.940113 
L 394.015116 154.638473 
L 402.915225 198.988614 
L 411.783009 229.507524 
L 420.677791 175.836337 
L 429.57275 199.589972 
L 438.462203 147.572519 
L 447.318974 180.6472 
L 456.186758 153.586097 
L 465.08154 132.087554 
L 473.943995 147.572519 
L 482.838776 103.372717 
L 491.722723 143.663693 
L 500.606848 214.623918 
L 509.47996 247.39792 
L 518.363907 253.712178 
L 527.231691 220.938175 
L 536.131978 197.18454 
L 544.994256 129.231104 
L 553.894544 133.29027 
L 562.756821 77.363991 
L 571.657109 211.767468 
L 580.519387 229.507524 
L 589.414346 146.670482 
L 598.292787 234.017708 
L 607.176911 234.017708 
L 616.088033 185.157384 
L 624.950311 170.724795 
L 633.801754 173.581245 
L 642.696535 155.841189 
L 651.564319 166.064272 
L 660.453772 125.322279 
L 669.326885 144.41539 
L 678.216338 101.568644 
L 687.094956 158.096281 
L 695.978903 211.767468 
L 704.911694 246.044865 
L 713.746974 247.999278 
L 722.603924 233.41635 
L 731.509539 206.956605 
L 740.366489 107.431883 
L 749.26127 175.234979 
L 758.129054 95.855744 
L 767.023835 161.554088 
L 775.907782 235.821782 
L 784.786401 171.927511 
L 793.654185 180.045842 
L 802.548966 227.703451 
L 811.411421 175.836337 
L 820.311531 184.556026 
L 829.179315 181.248558 
L 838.068768 152.383381 
L 846.94188 159.298997 
L 855.836839 149.526932 
L 864.709952 144.716069 
L 873.593899 115.550214 
L 882.499692 147.572519 
L 891.356464 209.813055 
L 900.224248 236.42314 
L 909.119029 250.855728 
L 917.986813 214.623918 
L 926.876266 202.89744 
L 935.749378 143.663693 
L 944.638831 130.43382 
L 953.506615 60.82665 
L 962.396068 244.54147 
L 971.263852 228.304809 
L 980.163962 127.57737 
L 989.026417 226.049717 
L 997.926527 216.87901 
L 1006.848484 183.50365 
L 1015.667601 184.105007 
L 1024.562382 164.410538 
L 1033.430166 162.155446 
L 1042.330276 158.697639 
L 1051.192731 115.550214 
L 1060.082184 143.062335 
L 1068.960625 136.14672 
L 1077.850078 138.401812 
L 1086.72319 216.277652 
L 1095.612643 242.587057 
L 1104.485933 236.42314 
L 1113.375209 232.965332 
L 1122.248499 197.785898 
L 1131.137774 125.322279 
L 1140.005558 160.952731 
L 1148.889682 87.887753 
L 1157.762795 192.072999 
L 1166.652248 220.938175 
L 1175.52536 162.155446 
L 1184.430976 214.623918 
L 1193.287925 202.89744 
L 1202.182707 174.182603 
L 1211.045162 174.9343 
L 1219.939943 164.410538 
L 1228.807727 171.927511 
L 1228.807727 171.927511 
" clip-path="url(#p65fba14714)" style="fill: none; stroke: #ff7f0e; stroke-width: 1.5; stroke-linecap: square"/>
   </g>
   <g id="line2d_14">
    <path d="M 100.962273 262.910264 
L 109.851548 284.206094 
L 118.860358 290.553888 
L 127.59795 280.11074 
L 136.492732 260.657823 
L 145.355187 248.986069 
L 154.255297 201.275223 
L 163.123081 192.674988 
L 172.007205 271.510502 
L 180.880318 321.064256 
L 189.775099 314.102158 
L 198.648211 293.420634 
L 207.537664 295.058775 
L 216.405448 294.649238 
L 225.305736 269.872362 
L 234.162685 276.22016 
L 243.057466 266.391311 
L 251.92525 282.977488 
L 260.825538 288.710978 
L 269.687816 296.901683 
L 278.582597 279.49644 
L 287.461215 265.777012 
L 296.355997 272.124807 
L 305.207618 296.287379 
L 314.113234 286.458534 
L 322.975511 275.605855 
L 331.870293 251.443284 
L 340.738077 242.228738 
L 349.622201 207.623024 
L 358.500642 186.941492 
L 367.390095 258.814909 
L 376.268713 311.235412 
L 385.15266 331.507401 
L 394.015116 281.339344 
L 402.915225 280.725044 
L 411.783009 298.539823 
L 420.677791 264.138872 
L 429.57275 280.725044 
L 438.462203 270.281898 
L 447.318974 287.687143 
L 456.186758 281.339344 
L 465.08154 292.192028 
L 473.943995 279.086905 
L 482.838776 269.872362 
L 491.722723 265.777012 
L 500.606848 291.16819 
L 509.47996 296.287379 
L 518.363907 287.687143 
L 527.231691 255.333859 
L 536.131978 221.342444 
L 544.994256 208.237317 
L 553.894544 177.112644 
L 562.756821 277.243995 
L 571.657109 321.064256 
L 580.519387 315.330764 
L 589.414346 283.591789 
L 598.292787 302.020872 
L 607.176911 302.020872 
L 616.088033 275.605855 
L 624.950311 271.510502 
L 633.801754 268.029454 
L 642.696535 289.325283 
L 651.564319 289.939582 
L 660.453772 292.80633 
L 669.326885 275.605855 
L 678.216338 265.777012 
L 687.094956 267.005617 
L 695.978903 297.92552 
L 704.911694 287.072839 
L 713.746974 280.725044 
L 722.603924 255.333859 
L 731.509539 235.880945 
L 740.366489 194.927434 
L 749.26127 179.36509 
L 758.129054 252.467117 
L 767.023835 309.597271 
L 775.907782 329.050191 
L 784.786401 293.420634 
L 793.654185 281.95365 
L 802.548966 304.887617 
L 811.411421 269.872362 
L 820.311531 273.762947 
L 829.179315 276.22016 
L 838.068768 263.524568 
L 846.94188 266.391311 
L 855.836839 288.301443 
L 864.709952 272.73911 
L 873.593899 270.896203 
L 882.499692 266.391311 
L 891.356464 285.844233 
L 900.224248 292.80633 
L 909.119029 288.710978 
L 917.986813 251.852814 
L 926.876266 245.709788 
L 935.749378 195.541736 
L 944.638831 180.593709 
L 953.506615 260.657823 
L 962.396068 318.19751 
L 971.263852 321.678558 
L 980.163962 268.029454 
L 989.026417 287.687143 
L 997.926527 294.649238 
L 1006.848484 279.086905 
L 1015.667601 287.072839 
L 1024.562382 261.067355 
L 1033.430166 280.725044 
L 1042.330276 294.034936 
L 1051.192731 303.86378 
L 1060.082184 282.977488 
L 1068.960625 275.605855 
L 1077.850078 269.872362 
L 1086.72319 294.034936 
L 1095.612643 289.939582 
L 1104.485933 280.11074 
L 1113.375209 254.924335 
L 1122.248499 231.171295 
L 1131.137774 196.565563 
L 1140.005558 179.36509 
L 1148.889682 279.086905 
L 1157.762795 302.635174 
L 1166.652248 325.569142 
L 1175.52536 295.058775 
L 1184.430976 294.649238 
L 1193.287925 290.553888 
L 1202.182707 274.991551 
L 1211.045162 272.124807 
L 1219.939943 273.762947 
L 1228.807727 278.4726 
L 1228.807727 278.4726 
" clip-path="url(#p65fba14714)" style="fill: none; stroke: #2ca02c; stroke-width: 1.5; stroke-linecap: square"/>
   </g>
   <g id="patch_3">
    <path d="M 44.57 390.04 
L 44.57 26.88 
" style="fill: none; stroke: #000000; stroke-width: 0.8; stroke-linejoin: miter; stroke-linecap: square"/>
   </g>
   <g id="patch_4">
    <path d="M 1285.2 390.04 
L 1285.2 26.88 
" style="fill: none; stroke: #000000; stroke-width: 0.8; stroke-linejoin: miter; stroke-linecap: square"/>
   </g>
   <g id="patch_5">
    <path d="M 44.57 390.04 
L 1285.2 390.04 
" style="fill: none; stroke: #000000; stroke-width: 0.8; stroke-linejoin: miter; stroke-linecap: square"/>
   </g>
   <g id="patch_6">
    <path d="M 44.57 26.88 
L 1285.2 26.88 
" style="fill: none; stroke: #000000; stroke-width: 0.8; stroke-linejoin: miter; stroke-linecap: square"/>
   </g>
   <g id="text_15">
    <!-- User 35, Action 0 -->
    <g transform="translate(613.338437 20.88) scale(0.12 -0.12)">
     <defs>
      <path id="DejaVuSans-55" d="M 556 4666 
L 1191 4666 
L 1191 1831 
Q 1191 1081 1462 751 
Q 1734 422 2344 422 
Q 2950 422 3222 751 
Q 3494 1081 3494 1831 
L 3494 4666 
L 4128 4666 
L 4128 1753 
Q 4128 841 3676 375 
Q 3225 -91 2344 -91 
Q 1459 -91 1007 375 
Q 556 841 556 1753 
L 556 4666 
z
" transform="scale(0.015625)"/>
      <path id="DejaVuSans-73" d="M 2834 3397 
L 2834 2853 
Q 2591 2978 2328 3040 
Q 2066 3103 1784 3103 
Q 1356 3103 1142 2972 
Q 928 2841 928 2578 
Q 928 2378 1081 2264 
Q 1234 2150 1697 2047 
L 1894 2003 
Q 2506 1872 2764 1633 
Q 3022 1394 3022 966 
Q 3022 478 2636 193 
Q 2250 -91 1575 -91 
Q 1294 -91 989 -36 
Q 684 19 347 128 
L 347 722 
Q 666 556 975 473 
Q 1284 391 1588 391 
Q 1994 391 2212 530 
Q 2431 669 2431 922 
Q 2431 1156 2273 1281 
Q 2116 1406 1581 1522 
L 1381 1569 
Q 847 1681 609 1914 
Q 372 2147 372 2553 
Q 372 3047 722 3315 
Q 1072 3584 1716 3584 
Q 2034 3584 2315 3537 
Q 2597 3491 2834 3397 
z
" transform="scale(0.015625)"/>
      <path id="DejaVuSans-72" d="M 2631 2963 
Q 2534 3019 2420 3045 
Q 2306 3072 2169 3072 
Q 1681 3072 1420 2755 
Q 1159 2438 1159 1844 
L 1159 0 
L 581 0 
L 581 3500 
L 1159 3500 
L 1159 2956 
Q 1341 3275 1631 3429 
Q 1922 3584 2338 3584 
Q 2397 3584 2469 3576 
Q 2541 3569 2628 3553 
L 2631 2963 
z
" transform="scale(0.015625)"/>
      <path id="DejaVuSans-20" transform="scale(0.015625)"/>
      <path id="DejaVuSans-2c" d="M 750 794 
L 1409 794 
L 1409 256 
L 897 -744 
L 494 -744 
L 750 256 
L 750 794 
z
" transform="scale(0.015625)"/>
      <path id="DejaVuSans-41" d="M 2188 4044 
L 1331 1722 
L 3047 1722 
L 2188 4044 
z
M 1831 4666 
L 2547 4666 
L 4325 0 
L 3669 0 
L 3244 1197 
L 1141 1197 
L 716 0 
L 50 0 
L 1831 4666 
z
" transform="scale(0.015625)"/>
      <path id="DejaVuSans-6f" d="M 1959 3097 
Q 1497 3097 1228 2736 
Q 959 2375 959 1747 
Q 959 1119 1226 758 
Q 1494 397 1959 397 
Q 2419 397 2687 759 
Q 2956 1122 2956 1747 
Q 2956 2369 2687 2733 
Q 2419 3097 1959 3097 
z
M 1959 3584 
Q 2709 3584 3137 3096 
Q 3566 2609 3566 1747 
Q 3566 888 3137 398 
Q 2709 -91 1959 -91 
Q 1206 -91 779 398 
Q 353 888 353 1747 
Q 353 2609 779 3096 
Q 1206 3584 1959 3584 
z
" transform="scale(0.015625)"/>
      <path id="DejaVuSans-6e" d="M 3513 2113 
L 3513 0 
L 2938 0 
L 2938 2094 
Q 2938 2591 2744 2837 
Q 2550 3084 2163 3084 
Q 1697 3084 1428 2787 
Q 1159 2491 1159 1978 
L 1159 0 
L 581 0 
L 581 3500 
L 1159 3500 
L 1159 2956 
Q 1366 3272 1645 3428 
Q 1925 3584 2291 3584 
Q 2894 3584 3203 3211 
Q 3513 2838 3513 2113 
z
" transform="scale(0.015625)"/>
     </defs>
     <use xlink:href="#DejaVuSans-55"/>
     <use xlink:href="#DejaVuSans-73" x="73.193359"/>
     <use xlink:href="#DejaVuSans-65" x="125.292969"/>
     <use xlink:href="#DejaVuSans-72" x="186.816406"/>
     <use xlink:href="#DejaVuSans-20" x="227.929688"/>
     <use xlink:href="#DejaVuSans-33" x="259.716797"/>
     <use xlink:href="#DejaVuSans-35" x="323.339844"/>
     <use xlink:href="#DejaVuSans-2c" x="386.962891"/>
     <use xlink:href="#DejaVuSans-20" x="418.75"/>
     <use xlink:href="#DejaVuSans-41" x="450.537109"/>
     <use xlink:href="#DejaVuSans-63" x="517.195312"/>
     <use xlink:href="#DejaVuSans-74" x="572.175781"/>
     <use xlink:href="#DejaVuSans-69" x="611.384766"/>
     <use xlink:href="#DejaVuSans-6f" x="639.167969"/>
     <use xlink:href="#DejaVuSans-6e" x="700.349609"/>
     <use xlink:href="#DejaVuSans-20" x="763.728516"/>
     <use xlink:href="#DejaVuSans-30" x="795.515625"/>
    </g>
   </g>
   <g id="legend_1">
    <g id="patch_7">
     <path d="M 1219.548438 78.914375 
L 1278.2 78.914375 
Q 1280.2 78.914375 1280.2 76.914375 
L 1280.2 33.88 
Q 1280.2 31.88 1278.2 31.88 
L 1219.548438 31.88 
Q 1217.548438 31.88 1217.548438 33.88 
L 1217.548438 76.914375 
Q 1217.548438 78.914375 1219.548438 78.914375 
z
" style="fill: #ffffff; opacity: 0.8; stroke: #cccccc; stroke-linejoin: miter"/>
    </g>
    <g id="line2d_15">
     <path d="M 1221.548438 39.978437 
L 1231.548438 39.978437 
L 1241.548438 39.978437 
" style="fill: none; stroke: #1f77b4; stroke-width: 1.5; stroke-linecap: square"/>
    </g>
    <g id="text_16">
     <!-- acc-x -->
     <g transform="translate(1249.548438 43.478437) scale(0.1 -0.1)">
      <defs>
       <path id="DejaVuSans-2d" d="M 313 2009 
L 1997 2009 
L 1997 1497 
L 313 1497 
L 313 2009 
z
" transform="scale(0.015625)"/>
       <path id="DejaVuSans-78" d="M 3513 3500 
L 2247 1797 
L 3578 0 
L 2900 0 
L 1881 1375 
L 863 0 
L 184 0 
L 1544 1831 
L 300 3500 
L 978 3500 
L 1906 2253 
L 2834 3500 
L 3513 3500 
z
" transform="scale(0.015625)"/>
      </defs>
      <use xlink:href="#DejaVuSans-61"/>
      <use xlink:href="#DejaVuSans-63" x="61.279297"/>
      <use xlink:href="#DejaVuSans-63" x="116.259766"/>
      <use xlink:href="#DejaVuSans-2d" x="171.240234"/>
      <use xlink:href="#DejaVuSans-78" x="207.324219"/>
     </g>
    </g>
    <g id="line2d_16">
     <path d="M 1221.548438 54.656563 
L 1231.548438 54.656563 
L 1241.548438 54.656563 
" style="fill: none; stroke: #ff7f0e; stroke-width: 1.5; stroke-linecap: square"/>
    </g>
    <g id="text_17">
     <!-- acc-y -->
     <g transform="translate(1249.548438 58.156563) scale(0.1 -0.1)">
      <defs>
       <path id="DejaVuSans-79" d="M 2059 -325 
Q 1816 -950 1584 -1140 
Q 1353 -1331 966 -1331 
L 506 -1331 
L 506 -850 
L 844 -850 
Q 1081 -850 1212 -737 
Q 1344 -625 1503 -206 
L 1606 56 
L 191 3500 
L 800 3500 
L 1894 763 
L 2988 3500 
L 3597 3500 
L 2059 -325 
z
" transform="scale(0.015625)"/>
      </defs>
      <use xlink:href="#DejaVuSans-61"/>
      <use xlink:href="#DejaVuSans-63" x="61.279297"/>
      <use xlink:href="#DejaVuSans-63" x="116.259766"/>
      <use xlink:href="#DejaVuSans-2d" x="171.240234"/>
      <use xlink:href="#DejaVuSans-79" x="205.574219"/>
     </g>
    </g>
    <g id="line2d_17">
     <path d="M 1221.548438 69.334687 
L 1231.548438 69.334687 
L 1241.548438 69.334687 
" style="fill: none; stroke: #2ca02c; stroke-width: 1.5; stroke-linecap: square"/>
    </g>
    <g id="text_18">
     <!-- acc-z -->
     <g transform="translate(1249.548438 72.834687) scale(0.1 -0.1)">
      <defs>
       <path id="DejaVuSans-7a" d="M 353 3500 
L 3084 3500 
L 3084 2975 
L 922 459 
L 3084 459 
L 3084 0 
L 275 0 
L 275 525 
L 2438 3041 
L 353 3041 
L 353 3500 
z
" transform="scale(0.015625)"/>
      </defs>
      <use xlink:href="#DejaVuSans-61"/>
      <use xlink:href="#DejaVuSans-63" x="61.279297"/>
      <use xlink:href="#DejaVuSans-63" x="116.259766"/>
      <use xlink:href="#DejaVuSans-2d" x="171.240234"/>
      <use xlink:href="#DejaVuSans-7a" x="207.324219"/>
     </g>
    </g>
   </g>
  </g>
 </g>
 <defs>
  <clipPath id="p65fba14714">
   <rect x="44.57" y="26.88" width="1240.63" height="363.16"/>
  </clipPath>
 </defs>
</svg>
