<?xml version="1.0" encoding="utf-8" standalone="no"?>
<!DOCTYPE svg PUBLIC "-//W3C//DTD SVG 1.1//EN"
  "http://www.w3.org/Graphics/SVG/1.1/DTD/svg11.dtd">
<svg xmlns:xlink="http://www.w3.org/1999/xlink" width="1296pt" height="432pt" viewBox="0 0 1296 432" xmlns="http://www.w3.org/2000/svg" version="1.1">
 <metadata>
  <rdf:RDF xmlns:dc="http://purl.org/dc/elements/1.1/" xmlns:cc="http://creativecommons.org/ns#" xmlns:rdf="http://www.w3.org/1999/02/22-rdf-syntax-ns#">
   <cc:Work>
    <dc:type rdf:resource="http://purl.org/dc/dcmitype/StillImage"/>
    <dc:date>2025-03-28T12:10:48.509195</dc:date>
    <dc:format>image/svg+xml</dc:format>
    <dc:creator>
     <cc:Agent>
      <dc:title>Matplotlib v3.7.5, https://matplotlib.org/</dc:title>
     </cc:Agent>
    </dc:creator>
   </cc:Work>
  </rdf:RDF>
 </metadata>
 <defs>
  <style type="text/css">*{stroke-linejoin: round; stroke-linecap: butt}</style>
 </defs>
 <g id="figure_1">
  <g id="patch_1">
   <path d="M 0 432 
L 1296 432 
L 1296 0 
L 0 0 
z
" style="fill: #ffffff"/>
  </g>
  <g id="axes_1">
   <g id="patch_2">
    <path d="M 52.94 390.04 
L 1285.2 390.04 
L 1285.2 26.88 
L 52.94 26.88 
z
" style="fill: #ffffff"/>
   </g>
   <g id="matplotlib.axis_1">
    <g id="xtick_1">
     <g id="line2d_1">
      <defs>
       <path id="m5460ab080e" d="M 0 0 
L 0 3.5 
" style="stroke: #000000; stroke-width: 0.8"/>
      </defs>
      <g>
       <use xlink:href="#m5460ab080e" x="68.283715" y="390.04" style="stroke: #000000; stroke-width: 0.8"/>
      </g>
     </g>
     <g id="text_1">
      <!-- 3.350 -->
      <g transform="translate(53.969652 404.638438) scale(0.1 -0.1)">
       <defs>
        <path id="DejaVuSans-33" d="M 2597 2516 
Q 3050 2419 3304 2112 
Q 3559 1806 3559 1356 
Q 3559 666 3084 287 
Q 2609 -91 1734 -91 
Q 1441 -91 1130 -33 
Q 819 25 488 141 
L 488 750 
Q 750 597 1062 519 
Q 1375 441 1716 441 
Q 2309 441 2620 675 
Q 2931 909 2931 1356 
Q 2931 1769 2642 2001 
Q 2353 2234 1838 2234 
L 1294 2234 
L 1294 2753 
L 1863 2753 
Q 2328 2753 2575 2939 
Q 2822 3125 2822 3475 
Q 2822 3834 2567 4026 
Q 2313 4219 1838 4219 
Q 1578 4219 1281 4162 
Q 984 4106 628 3988 
L 628 4550 
Q 988 4650 1302 4700 
Q 1616 4750 1894 4750 
Q 2613 4750 3031 4423 
Q 3450 4097 3450 3541 
Q 3450 3153 3228 2886 
Q 3006 2619 2597 2516 
z
" transform="scale(0.015625)"/>
        <path id="DejaVuSans-2e" d="M 684 794 
L 1344 794 
L 1344 0 
L 684 0 
L 684 794 
z
" transform="scale(0.015625)"/>
        <path id="DejaVuSans-35" d="M 691 4666 
L 3169 4666 
L 3169 4134 
L 1269 4134 
L 1269 2991 
Q 1406 3038 1543 3061 
Q 1681 3084 1819 3084 
Q 2600 3084 3056 2656 
Q 3513 2228 3513 1497 
Q 3513 744 3044 326 
Q 2575 -91 1722 -91 
Q 1428 -91 1123 -41 
Q 819 9 494 109 
L 494 744 
Q 775 591 1075 516 
Q 1375 441 1709 441 
Q 2250 441 2565 725 
Q 2881 1009 2881 1497 
Q 2881 1984 2565 2268 
Q 2250 2553 1709 2553 
Q 1456 2553 1204 2497 
Q 953 2441 691 2322 
L 691 4666 
z
" transform="scale(0.015625)"/>
        <path id="DejaVuSans-30" d="M 2034 4250 
Q 1547 4250 1301 3770 
Q 1056 3291 1056 2328 
Q 1056 1369 1301 889 
Q 1547 409 2034 409 
Q 2525 409 2770 889 
Q 3016 1369 3016 2328 
Q 3016 3291 2770 3770 
Q 2525 4250 2034 4250 
z
M 2034 4750 
Q 2819 4750 3233 4129 
Q 3647 3509 3647 2328 
Q 3647 1150 3233 529 
Q 2819 -91 2034 -91 
Q 1250 -91 836 529 
Q 422 1150 422 2328 
Q 422 3509 836 4129 
Q 1250 4750 2034 4750 
z
" transform="scale(0.015625)"/>
       </defs>
       <use xlink:href="#DejaVuSans-33"/>
       <use xlink:href="#DejaVuSans-2e" x="63.623047"/>
       <use xlink:href="#DejaVuSans-33" x="95.410156"/>
       <use xlink:href="#DejaVuSans-35" x="159.033203"/>
       <use xlink:href="#DejaVuSans-30" x="222.65625"/>
      </g>
     </g>
    </g>
    <g id="xtick_2">
     <g id="line2d_2">
      <g>
       <use xlink:href="#m5460ab080e" x="243.31999" y="390.04" style="stroke: #000000; stroke-width: 0.8"/>
      </g>
     </g>
     <g id="text_2">
      <!-- 3.351 -->
      <g transform="translate(229.005928 404.638438) scale(0.1 -0.1)">
       <defs>
        <path id="DejaVuSans-31" d="M 794 531 
L 1825 531 
L 1825 4091 
L 703 3866 
L 703 4441 
L 1819 4666 
L 2450 4666 
L 2450 531 
L 3481 531 
L 3481 0 
L 794 0 
L 794 531 
z
" transform="scale(0.015625)"/>
       </defs>
       <use xlink:href="#DejaVuSans-33"/>
       <use xlink:href="#DejaVuSans-2e" x="63.623047"/>
       <use xlink:href="#DejaVuSans-33" x="95.410156"/>
       <use xlink:href="#DejaVuSans-35" x="159.033203"/>
       <use xlink:href="#DejaVuSans-31" x="222.65625"/>
      </g>
     </g>
    </g>
    <g id="xtick_3">
     <g id="line2d_3">
      <g>
       <use xlink:href="#m5460ab080e" x="418.356266" y="390.04" style="stroke: #000000; stroke-width: 0.8"/>
      </g>
     </g>
     <g id="text_3">
      <!-- 3.352 -->
      <g transform="translate(404.042203 404.638438) scale(0.1 -0.1)">
       <defs>
        <path id="DejaVuSans-32" d="M 1228 531 
L 3431 531 
L 3431 0 
L 469 0 
L 469 531 
Q 828 903 1448 1529 
Q 2069 2156 2228 2338 
Q 2531 2678 2651 2914 
Q 2772 3150 2772 3378 
Q 2772 3750 2511 3984 
Q 2250 4219 1831 4219 
Q 1534 4219 1204 4116 
Q 875 4013 500 3803 
L 500 4441 
Q 881 4594 1212 4672 
Q 1544 4750 1819 4750 
Q 2544 4750 2975 4387 
Q 3406 4025 3406 3419 
Q 3406 3131 3298 2873 
Q 3191 2616 2906 2266 
Q 2828 2175 2409 1742 
Q 1991 1309 1228 531 
z
" transform="scale(0.015625)"/>
       </defs>
       <use xlink:href="#DejaVuSans-33"/>
       <use xlink:href="#DejaVuSans-2e" x="63.623047"/>
       <use xlink:href="#DejaVuSans-33" x="95.410156"/>
       <use xlink:href="#DejaVuSans-35" x="159.033203"/>
       <use xlink:href="#DejaVuSans-32" x="222.65625"/>
      </g>
     </g>
    </g>
    <g id="xtick_4">
     <g id="line2d_4">
      <g>
       <use xlink:href="#m5460ab080e" x="593.392541" y="390.04" style="stroke: #000000; stroke-width: 0.8"/>
      </g>
     </g>
     <g id="text_4">
      <!-- 3.353 -->
      <g transform="translate(579.078479 404.638438) scale(0.1 -0.1)">
       <use xlink:href="#DejaVuSans-33"/>
       <use xlink:href="#DejaVuSans-2e" x="63.623047"/>
       <use xlink:href="#DejaVuSans-33" x="95.410156"/>
       <use xlink:href="#DejaVuSans-35" x="159.033203"/>
       <use xlink:href="#DejaVuSans-33" x="222.65625"/>
      </g>
     </g>
    </g>
    <g id="xtick_5">
     <g id="line2d_5">
      <g>
       <use xlink:href="#m5460ab080e" x="768.428817" y="390.04" style="stroke: #000000; stroke-width: 0.8"/>
      </g>
     </g>
     <g id="text_5">
      <!-- 3.354 -->
      <g transform="translate(754.114754 404.638438) scale(0.1 -0.1)">
       <defs>
        <path id="DejaVuSans-34" d="M 2419 4116 
L 825 1625 
L 2419 1625 
L 2419 4116 
z
M 2253 4666 
L 3047 4666 
L 3047 1625 
L 3713 1625 
L 3713 1100 
L 3047 1100 
L 3047 0 
L 2419 0 
L 2419 1100 
L 313 1100 
L 313 1709 
L 2253 4666 
z
" transform="scale(0.015625)"/>
       </defs>
       <use xlink:href="#DejaVuSans-33"/>
       <use xlink:href="#DejaVuSans-2e" x="63.623047"/>
       <use xlink:href="#DejaVuSans-33" x="95.410156"/>
       <use xlink:href="#DejaVuSans-35" x="159.033203"/>
       <use xlink:href="#DejaVuSans-34" x="222.65625"/>
      </g>
     </g>
    </g>
    <g id="xtick_6">
     <g id="line2d_6">
      <g>
       <use xlink:href="#m5460ab080e" x="943.465092" y="390.04" style="stroke: #000000; stroke-width: 0.8"/>
      </g>
     </g>
     <g id="text_6">
      <!-- 3.355 -->
      <g transform="translate(929.15103 404.638438) scale(0.1 -0.1)">
       <use xlink:href="#DejaVuSans-33"/>
       <use xlink:href="#DejaVuSans-2e" x="63.623047"/>
       <use xlink:href="#DejaVuSans-33" x="95.410156"/>
       <use xlink:href="#DejaVuSans-35" x="159.033203"/>
       <use xlink:href="#DejaVuSans-35" x="222.65625"/>
      </g>
     </g>
    </g>
    <g id="xtick_7">
     <g id="line2d_7">
      <g>
       <use xlink:href="#m5460ab080e" x="1118.501368" y="390.04" style="stroke: #000000; stroke-width: 0.8"/>
      </g>
     </g>
     <g id="text_7">
      <!-- 3.356 -->
      <g transform="translate(1104.187305 404.638438) scale(0.1 -0.1)">
       <defs>
        <path id="DejaVuSans-36" d="M 2113 2584 
Q 1688 2584 1439 2293 
Q 1191 2003 1191 1497 
Q 1191 994 1439 701 
Q 1688 409 2113 409 
Q 2538 409 2786 701 
Q 3034 994 3034 1497 
Q 3034 2003 2786 2293 
Q 2538 2584 2113 2584 
z
M 3366 4563 
L 3366 3988 
Q 3128 4100 2886 4159 
Q 2644 4219 2406 4219 
Q 1781 4219 1451 3797 
Q 1122 3375 1075 2522 
Q 1259 2794 1537 2939 
Q 1816 3084 2150 3084 
Q 2853 3084 3261 2657 
Q 3669 2231 3669 1497 
Q 3669 778 3244 343 
Q 2819 -91 2113 -91 
Q 1303 -91 875 529 
Q 447 1150 447 2328 
Q 447 3434 972 4092 
Q 1497 4750 2381 4750 
Q 2619 4750 2861 4703 
Q 3103 4656 3366 4563 
z
" transform="scale(0.015625)"/>
       </defs>
       <use xlink:href="#DejaVuSans-33"/>
       <use xlink:href="#DejaVuSans-2e" x="63.623047"/>
       <use xlink:href="#DejaVuSans-33" x="95.410156"/>
       <use xlink:href="#DejaVuSans-35" x="159.033203"/>
       <use xlink:href="#DejaVuSans-36" x="222.65625"/>
      </g>
     </g>
    </g>
    <g id="text_8">
     <!-- time -->
     <g transform="translate(657.773906 418.316562) scale(0.1 -0.1)">
      <defs>
       <path id="DejaVuSans-74" d="M 1172 4494 
L 1172 3500 
L 2356 3500 
L 2356 3053 
L 1172 3053 
L 1172 1153 
Q 1172 725 1289 603 
Q 1406 481 1766 481 
L 2356 481 
L 2356 0 
L 1766 0 
Q 1100 0 847 248 
Q 594 497 594 1153 
L 594 3053 
L 172 3053 
L 172 3500 
L 594 3500 
L 594 4494 
L 1172 4494 
z
" transform="scale(0.015625)"/>
       <path id="DejaVuSans-69" d="M 603 3500 
L 1178 3500 
L 1178 0 
L 603 0 
L 603 3500 
z
M 603 4863 
L 1178 4863 
L 1178 4134 
L 603 4134 
L 603 4863 
z
" transform="scale(0.015625)"/>
       <path id="DejaVuSans-6d" d="M 3328 2828 
Q 3544 3216 3844 3400 
Q 4144 3584 4550 3584 
Q 5097 3584 5394 3201 
Q 5691 2819 5691 2113 
L 5691 0 
L 5113 0 
L 5113 2094 
Q 5113 2597 4934 2840 
Q 4756 3084 4391 3084 
Q 3944 3084 3684 2787 
Q 3425 2491 3425 1978 
L 3425 0 
L 2847 0 
L 2847 2094 
Q 2847 2600 2669 2842 
Q 2491 3084 2119 3084 
Q 1678 3084 1418 2786 
Q 1159 2488 1159 1978 
L 1159 0 
L 581 0 
L 581 3500 
L 1159 3500 
L 1159 2956 
Q 1356 3278 1631 3431 
Q 1906 3584 2284 3584 
Q 2666 3584 2933 3390 
Q 3200 3197 3328 2828 
z
" transform="scale(0.015625)"/>
       <path id="DejaVuSans-65" d="M 3597 1894 
L 3597 1613 
L 953 1613 
Q 991 1019 1311 708 
Q 1631 397 2203 397 
Q 2534 397 2845 478 
Q 3156 559 3463 722 
L 3463 178 
Q 3153 47 2828 -22 
Q 2503 -91 2169 -91 
Q 1331 -91 842 396 
Q 353 884 353 1716 
Q 353 2575 817 3079 
Q 1281 3584 2069 3584 
Q 2775 3584 3186 3129 
Q 3597 2675 3597 1894 
z
M 3022 2063 
Q 3016 2534 2758 2815 
Q 2500 3097 2075 3097 
Q 1594 3097 1305 2825 
Q 1016 2553 972 2059 
L 3022 2063 
z
" transform="scale(0.015625)"/>
      </defs>
      <use xlink:href="#DejaVuSans-74"/>
      <use xlink:href="#DejaVuSans-69" x="39.208984"/>
      <use xlink:href="#DejaVuSans-6d" x="66.992188"/>
      <use xlink:href="#DejaVuSans-65" x="164.404297"/>
     </g>
    </g>
    <g id="text_9">
     <!-- 1e12 -->
     <g transform="translate(1259.959375 417.316562) scale(0.1 -0.1)">
      <use xlink:href="#DejaVuSans-31"/>
      <use xlink:href="#DejaVuSans-65" x="63.623047"/>
      <use xlink:href="#DejaVuSans-31" x="125.146484"/>
      <use xlink:href="#DejaVuSans-32" x="188.769531"/>
     </g>
    </g>
   </g>
   <g id="matplotlib.axis_2">
    <g id="ytick_1">
     <g id="line2d_8">
      <defs>
       <path id="m6fd1b002d4" d="M 0 0 
L -3.5 0 
" style="stroke: #000000; stroke-width: 0.8"/>
      </defs>
      <g>
       <use xlink:href="#m6fd1b002d4" x="52.94" y="366.924154" style="stroke: #000000; stroke-width: 0.8"/>
      </g>
     </g>
     <g id="text_10">
      <!-- −15 -->
      <g transform="translate(24.835312 370.723372) scale(0.1 -0.1)">
       <defs>
        <path id="DejaVuSans-2212" d="M 678 2272 
L 4684 2272 
L 4684 1741 
L 678 1741 
L 678 2272 
z
" transform="scale(0.015625)"/>
       </defs>
       <use xlink:href="#DejaVuSans-2212"/>
       <use xlink:href="#DejaVuSans-31" x="83.789062"/>
       <use xlink:href="#DejaVuSans-35" x="147.412109"/>
      </g>
     </g>
    </g>
    <g id="ytick_2">
     <g id="line2d_9">
      <g>
       <use xlink:href="#m6fd1b002d4" x="52.94" y="319.720057" style="stroke: #000000; stroke-width: 0.8"/>
      </g>
     </g>
     <g id="text_11">
      <!-- −10 -->
      <g transform="translate(24.835312 323.519275) scale(0.1 -0.1)">
       <use xlink:href="#DejaVuSans-2212"/>
       <use xlink:href="#DejaVuSans-31" x="83.789062"/>
       <use xlink:href="#DejaVuSans-30" x="147.412109"/>
      </g>
     </g>
    </g>
    <g id="ytick_3">
     <g id="line2d_10">
      <g>
       <use xlink:href="#m6fd1b002d4" x="52.94" y="272.51596" style="stroke: #000000; stroke-width: 0.8"/>
      </g>
     </g>
     <g id="text_12">
      <!-- −5 -->
      <g transform="translate(31.197812 276.315178) scale(0.1 -0.1)">
       <use xlink:href="#DejaVuSans-2212"/>
       <use xlink:href="#DejaVuSans-35" x="83.789062"/>
      </g>
     </g>
    </g>
    <g id="ytick_4">
     <g id="line2d_11">
      <g>
       <use xlink:href="#m6fd1b002d4" x="52.94" y="225.311863" style="stroke: #000000; stroke-width: 0.8"/>
      </g>
     </g>
     <g id="text_13">
      <!-- 0 -->
      <g transform="translate(39.5775 229.111081) scale(0.1 -0.1)">
       <use xlink:href="#DejaVuSans-30"/>
      </g>
     </g>
    </g>
    <g id="ytick_5">
     <g id="line2d_12">
      <g>
       <use xlink:href="#m6fd1b002d4" x="52.94" y="178.107766" style="stroke: #000000; stroke-width: 0.8"/>
      </g>
     </g>
     <g id="text_14">
      <!-- 5 -->
      <g transform="translate(39.5775 181.906984) scale(0.1 -0.1)">
       <use xlink:href="#DejaVuSans-35"/>
      </g>
     </g>
    </g>
    <g id="ytick_6">
     <g id="line2d_13">
      <g>
       <use xlink:href="#m6fd1b002d4" x="52.94" y="130.903669" style="stroke: #000000; stroke-width: 0.8"/>
      </g>
     </g>
     <g id="text_15">
      <!-- 10 -->
      <g transform="translate(33.215 134.702887) scale(0.1 -0.1)">
       <use xlink:href="#DejaVuSans-31"/>
       <use xlink:href="#DejaVuSans-30" x="63.623047"/>
      </g>
     </g>
    </g>
    <g id="ytick_7">
     <g id="line2d_14">
      <g>
       <use xlink:href="#m6fd1b002d4" x="52.94" y="83.699572" style="stroke: #000000; stroke-width: 0.8"/>
      </g>
     </g>
     <g id="text_16">
      <!-- 15 -->
      <g transform="translate(33.215 87.49879) scale(0.1 -0.1)">
       <use xlink:href="#DejaVuSans-31"/>
       <use xlink:href="#DejaVuSans-35" x="63.623047"/>
      </g>
     </g>
    </g>
    <g id="ytick_8">
     <g id="line2d_15">
      <g>
       <use xlink:href="#m6fd1b002d4" x="52.94" y="36.495475" style="stroke: #000000; stroke-width: 0.8"/>
      </g>
     </g>
     <g id="text_17">
      <!-- 20 -->
      <g transform="translate(33.215 40.294693) scale(0.1 -0.1)">
       <use xlink:href="#DejaVuSans-32"/>
       <use xlink:href="#DejaVuSans-30" x="63.623047"/>
      </g>
     </g>
    </g>
    <g id="text_18">
     <!-- acc -->
     <g transform="translate(18.755625 217.0225) rotate(-90) scale(0.1 -0.1)">
      <defs>
       <path id="DejaVuSans-61" d="M 2194 1759 
Q 1497 1759 1228 1600 
Q 959 1441 959 1056 
Q 959 750 1161 570 
Q 1363 391 1709 391 
Q 2188 391 2477 730 
Q 2766 1069 2766 1631 
L 2766 1759 
L 2194 1759 
z
M 3341 1997 
L 3341 0 
L 2766 0 
L 2766 531 
Q 2569 213 2275 61 
Q 1981 -91 1556 -91 
Q 1019 -91 701 211 
Q 384 513 384 1019 
Q 384 1609 779 1909 
Q 1175 2209 1959 2209 
L 2766 2209 
L 2766 2266 
Q 2766 2663 2505 2880 
Q 2244 3097 1772 3097 
Q 1472 3097 1187 3025 
Q 903 2953 641 2809 
L 641 3341 
Q 956 3463 1253 3523 
Q 1550 3584 1831 3584 
Q 2591 3584 2966 3190 
Q 3341 2797 3341 1997 
z
" transform="scale(0.015625)"/>
       <path id="DejaVuSans-63" d="M 3122 3366 
L 3122 2828 
Q 2878 2963 2633 3030 
Q 2388 3097 2138 3097 
Q 1578 3097 1268 2742 
Q 959 2388 959 1747 
Q 959 1106 1268 751 
Q 1578 397 2138 397 
Q 2388 397 2633 464 
Q 2878 531 3122 666 
L 3122 134 
Q 2881 22 2623 -34 
Q 2366 -91 2075 -91 
Q 1284 -91 818 406 
Q 353 903 353 1747 
Q 353 2603 823 3093 
Q 1294 3584 2113 3584 
Q 2378 3584 2631 3529 
Q 2884 3475 3122 3366 
z
" transform="scale(0.015625)"/>
      </defs>
      <use xlink:href="#DejaVuSans-61"/>
      <use xlink:href="#DejaVuSans-63" x="61.279297"/>
      <use xlink:href="#DejaVuSans-63" x="116.259766"/>
     </g>
    </g>
   </g>
   <g id="line2d_16">
    <path d="M 108.951818 255.050444 
L 119.587197 217.759207 
L 128.427579 262.225467 
L 138.705009 224.93423 
L 147.459974 257.033016 
L 156.209687 256.466567 
L 164.964652 242.68297 
L 173.714365 235.130315 
L 182.464078 239.095459 
L 191.219043 243.72146 
L 199.968756 261.092568 
L 208.729147 276.575512 
L 217.47886 277.802819 
L 226.223147 249.197136 
L 234.978112 243.72146 
L 243.733251 245.515216 
L 252.482789 243.72146 
L 261.232503 260.431711 
L 269.982216 259.015588 
L 278.73718 239.756316 
L 287.497571 218.797697 
L 296.241858 239.756316 
L 304.991571 259.298812 
L 313.741285 251.274116 
L 322.496249 248.44187 
L 331.245963 245.892849 
L 340.000927 244.099093 
L 348.75064 263.641589 
L 357.494928 271.571878 
L 366.255318 261.847834 
L 375.005031 250.235626 
L 383.759996 258.260322 
L 392.509709 267.606734 
L 410.019813 259.015588 
L 418.919007 259.676445 
L 427.519065 259.676445 
L 436.268778 257.88269 
L 445.018491 258.260322 
L 453.773456 268.361999 
L 462.523169 255.23926 
L 471.278134 231.070762 
L 480.027847 247.025747 
L 488.788237 276.575512 
L 497.537951 341.056309 
L 506.282238 242.305338 
L 515.037202 254.672811 
L 523.786916 365.980072 
L 532.536629 310.279237 
L 541.291594 286.016331 
L 550.041307 188.020626 
L 558.796271 215.115778 
L 567.551411 245.231992 
L 576.295698 224.93423 
L 585.050662 260.054078 
L 595.547063 276.575512 
L 604.296776 303.104215 
L 613.057167 297.345315 
L 621.812131 264.774488 
L 630.556593 283.939351 
L 639.311558 284.977841 
L 648.061271 251.274116 
L 656.816235 224.556597 
L 665.565949 203.597978 
L 674.310236 277.802819 
L 683.070627 302.348949 
L 691.82034 283.939351 
L 700.575304 189.531157 
L 709.325018 291.114374 
L 718.074731 373.532727 
L 726.829695 271.94951 
L 735.58466 270.533388 
L 744.334373 206.902265 
L 753.084087 238.340193 
L 761.8338 245.892849 
L 770.572661 285.733107 
L 779.338478 274.781756 
L 788.093442 274.215307 
L 796.843155 317.548668 
L 805.592869 260.054078 
L 814.347833 329.821733 
L 823.097546 257.505057 
L 831.852511 217.759207 
L 840.602224 202.937121 
L 849.346511 245.892849 
L 858.112153 294.701885 
L 866.856615 306.691726 
L 875.61158 257.033016 
L 884.366544 341.433941 
L 893.111006 244.099093 
L 901.865971 268.361999 
L 910.615684 272.421551 
L 919.370649 279.218941 
L 928.120362 219.930596 
L 936.870075 190.192014 
L 945.62504 284.600208 
L 954.374753 301.971316 
L 963.129717 322.646711 
L 971.879431 260.054078 
L 980.629144 342.850064 
L 989.373431 210.489776 
L 998.133822 248.819503 
L 1006.888786 300.177561 
L 1015.6385 266.568243 
L 1024.388213 282.42882 
L 1033.185886 308.485482 
L 1041.892891 171.404784 
L 1050.647855 277.425186 
L 1059.397569 252.029382 
L 1068.147282 219.552963 
L 1076.902246 250.235626 
L 1085.65196 288.18772 
L 1094.406924 285.733107 
L 1103.156637 279.218941 
L 1111.911602 255.050444 
L 1120.650638 208.318388 
L 1129.411028 220.969086 
L 1138.165993 248.064237 
L 1146.915706 220.969086 
L 1155.66542 274.215307 
L 1164.404281 255.050444 
L 1173.170097 245.231992 
L 1181.925062 259.676445 
L 1190.674775 253.445504 
L 1199.42974 260.431711 
L 1211.678253 265.435345 
L 1220.417289 268.361999 
L 1229.188182 256.844199 
L 1229.188182 256.844199 
" clip-path="url(#p0c8a10eae0)" style="fill: none; stroke: #1f77b4; stroke-width: 1.5; stroke-linecap: square"/>
   </g>
   <g id="line2d_17">
    <path d="M 108.951818 99.46574 
L 119.587197 160.64225 
L 128.427579 127.977015 
L 138.705009 134.113547 
L 147.459974 133.735914 
L 156.209687 136.756977 
L 164.964652 134.868813 
L 173.714365 130.903669 
L 182.464078 132.319792 
L 191.219043 135.340854 
L 199.968756 142.138244 
L 208.729147 143.554367 
L 217.47886 140.722121 
L 226.223147 137.512242 
L 234.978112 139.966855 
L 243.733251 131.942159 
L 252.482789 136.284936 
L 261.232503 127.316157 
L 269.982216 109.189784 
L 278.73718 121.93489 
L 287.497571 119.763502 
L 296.241858 114.382235 
L 304.991571 134.113547 
L 313.741285 150.068532 
L 322.496249 155.072166 
L 331.245963 148.652409 
L 340.000927 134.113547 
L 348.75064 133.075057 
L 357.494928 133.075057 
L 366.255318 140.344488 
L 375.005031 138.1731 
L 383.759996 140.344488 
L 392.509709 141.760611 
L 401.259423 141.382978 
L 410.019813 146.103388 
L 418.919007 145.348122 
L 427.519065 147.141878 
L 445.018491 151.484655 
L 453.773456 148.652409 
L 462.523169 147.897144 
L 471.278134 172.160049 
L 480.027847 234.658274 
L 488.788237 144.687265 
L 497.537951 87.475899 
L 506.282238 131.281301 
L 515.037202 165.268251 
L 523.786916 115.798358 
L 532.536629 158.659678 
L 541.291594 149.030042 
L 550.041307 134.49118 
L 558.796271 88.231165 
L 567.551411 171.404784 
L 576.295698 138.928365 
L 585.050662 159.131719 
L 595.547063 176.030785 
L 604.296776 183.394624 
L 613.057167 71.898547 
L 621.812131 104.847007 
L 630.556593 102.014761 
L 639.311558 126.938524 
L 648.061271 161.68074 
L 656.816235 170.271886 
L 665.565949 107.396028 
L 674.310236 126.560892 
L 683.070627 175.464336 
L 691.82034 219.552963 
L 700.575304 153.278411 
L 709.325018 71.23769 
L 718.074731 119.008236 
L 726.829695 112.116438 
L 735.58466 122.595748 
L 744.334373 181.884093 
L 753.084087 108.151294 
L 761.8338 126.183259 
L 770.572661 203.597978 
L 779.338478 240.511582 
L 788.093442 128.354647 
L 796.843155 48.485315 
L 805.592869 191.324913 
L 814.347833 76.618957 
L 823.097546 156.299473 
L 831.852511 179.051848 
L 840.602224 100.598638 
L 849.346511 136.756977 
L 858.112153 167.062007 
L 866.856615 224.556597 
L 875.61158 183.394624 
L 884.366544 43.387273 
L 893.111006 163.852128 
L 901.865971 89.647288 
L 910.615684 137.701059 
L 919.370649 178.013357 
L 928.120362 152.23992 
L 936.870075 116.17599 
L 945.62504 140.722121 
L 954.374753 163.474496 
L 963.129717 185.849238 
L 971.879431 91.157819 
L 980.629144 72.27618 
L 989.373431 137.701059 
L 998.133822 122.218115 
L 1006.888786 161.303107 
L 1015.6385 155.92184 
L 1024.388213 159.509351 
L 1033.185886 94.839738 
L 1041.892891 51.317561 
L 1050.647855 121.557257 
L 1059.397569 130.148403 
L 1068.147282 163.474496 
L 1076.902246 176.030785 
L 1085.65196 179.807113 
L 1094.406924 150.068532 
L 1103.156637 124.01187 
L 1111.911602 64.723525 
L 1120.650638 160.925474 
L 1129.411028 154.88335 
L 1138.165993 102.770027 
L 1146.915706 143.554367 
L 1155.66542 135.52967 
L 1164.404281 138.928365 
L 1173.170097 138.1731 
L 1181.925062 136.756977 
L 1190.674775 135.907303 
L 1199.42974 141.099754 
L 1211.678253 142.138244 
L 1220.417289 141.099754 
L 1229.188182 135.52967 
L 1229.188182 135.52967 
" clip-path="url(#p0c8a10eae0)" style="fill: none; stroke: #ff7f0e; stroke-width: 1.5; stroke-linecap: square"/>
   </g>
   <g id="line2d_18">
    <path d="M 108.951818 281.012697 
L 119.587197 217.759207 
L 128.427579 232.486885 
L 138.705009 236.45203 
L 147.459974 219.552963 
L 156.209687 215.49341 
L 164.964652 217.381574 
L 173.714365 212.283532 
L 182.464078 209.734511 
L 191.219043 204.353244 
L 199.968756 200.388099 
L 208.729147 203.975611 
L 217.47886 208.318388 
L 226.223147 216.909533 
L 234.978112 218.514473 
L 243.733251 215.49341 
L 252.482789 208.979245 
L 261.232503 207.185489 
L 269.982216 216.909533 
L 278.73718 258.260322 
L 287.497571 249.48036 
L 296.241858 216.343084 
L 304.991571 222.762841 
L 313.741285 238.717826 
L 322.496249 237.679336 
L 331.245963 242.305338 
L 340.000927 249.48036 
L 348.75064 253.823137 
L 357.494928 256.844199 
L 366.255318 252.407014 
L 375.005031 251.274116 
L 383.759996 253.823137 
L 392.509709 250.235626 
L 401.259423 256.844199 
L 410.019813 256.844199 
L 418.919007 253.823137 
L 427.519065 249.48036 
L 436.268778 249.857993 
L 445.018491 250.990891 
L 453.773456 244.854359 
L 462.523169 244.476726 
L 471.278134 252.784647 
L 480.027847 216.909533 
L 488.788237 242.305338 
L 497.537951 259.015588 
L 506.282238 253.256688 
L 515.037202 219.17533 
L 523.786916 241.266847 
L 532.536629 271.94951 
L 541.291594 254.20077 
L 550.041307 226.067128 
L 558.796271 250.990891 
L 567.551411 238.717826 
L 576.295698 234.280641 
L 585.050662 234.280641 
L 595.547063 279.596574 
L 604.296776 286.771597 
L 613.057167 202.181855 
L 621.812131 252.784647 
L 630.556593 250.613259 
L 639.311558 296.118008 
L 648.061271 207.563122 
L 656.816235 215.115778 
L 665.565949 227.860884 
L 674.310236 257.033016 
L 683.070627 248.44187 
L 691.82034 261.470201 
L 700.575304 330.482591 
L 709.325018 141.760611 
L 718.074731 294.701885 
L 726.829695 281.767963 
L 735.58466 232.109253 
L 744.334373 211.905899 
L 753.084087 228.899374 
L 761.8338 246.648114 
L 770.572661 215.49341 
L 779.338478 278.841309 
L 788.093442 271.94951 
L 796.843155 225.689495 
L 805.592869 207.940755 
L 814.347833 298.383805 
L 823.097546 237.868152 
L 831.852511 208.979245 
L 849.346511 253.256688 
L 858.112153 235.88558 
L 866.856615 253.445504 
L 875.61158 286.016331 
L 884.366544 189.153524 
L 893.111006 227.483251 
L 901.865971 252.407014 
L 910.615684 294.324252 
L 919.370649 224.273373 
L 928.120362 191.98577 
L 936.870075 241.64448 
L 945.62504 248.819503 
L 954.374753 237.679336 
L 963.129717 291.775231 
L 971.879431 227.860884 
L 980.629144 278.841309 
L 989.373431 208.69602 
L 998.133822 229.277007 
L 1006.888786 261.847834 
L 1015.6385 256.088934 
L 1024.388213 251.651749 
L 1033.185886 254.20077 
L 1041.892891 288.18772 
L 1050.647855 259.298812 
L 1059.397569 268.361999 
L 1068.147282 250.235626 
L 1076.902246 255.23926 
L 1085.65196 263.263957 
L 1094.406924 267.229101 
L 1103.156637 295.740375 
L 1111.911602 304.142705 
L 1120.650638 268.361999 
L 1129.411028 238.340193 
L 1138.165993 274.781756 
L 1146.915706 232.864518 
L 1155.66542 224.273373 
L 1164.404281 236.45203 
L 1173.170097 226.727986 
L 1181.925062 220.308228 
L 1190.674775 218.514473 
L 1199.42974 211.150634 
L 1211.678253 211.528266 
L 1220.417289 214.738145 
L 1229.188182 216.343084 
L 1229.188182 216.343084 
" clip-path="url(#p0c8a10eae0)" style="fill: none; stroke: #2ca02c; stroke-width: 1.5; stroke-linecap: square"/>
   </g>
   <g id="patch_3">
    <path d="M 52.94 390.04 
L 52.94 26.88 
" style="fill: none; stroke: #000000; stroke-width: 0.8; stroke-linejoin: miter; stroke-linecap: square"/>
   </g>
   <g id="patch_4">
    <path d="M 1285.2 390.04 
L 1285.2 26.88 
" style="fill: none; stroke: #000000; stroke-width: 0.8; stroke-linejoin: miter; stroke-linecap: square"/>
   </g>
   <g id="patch_5">
    <path d="M 52.94 390.04 
L 1285.2 390.04 
" style="fill: none; stroke: #000000; stroke-width: 0.8; stroke-linejoin: miter; stroke-linecap: square"/>
   </g>
   <g id="patch_6">
    <path d="M 52.94 26.88 
L 1285.2 26.88 
" style="fill: none; stroke: #000000; stroke-width: 0.8; stroke-linejoin: miter; stroke-linecap: square"/>
   </g>
   <g id="text_19">
    <!-- User 4, Action 3 -->
    <g transform="translate(621.340937 20.88) scale(0.12 -0.12)">
     <defs>
      <path id="DejaVuSans-55" d="M 556 4666 
L 1191 4666 
L 1191 1831 
Q 1191 1081 1462 751 
Q 1734 422 2344 422 
Q 2950 422 3222 751 
Q 3494 1081 3494 1831 
L 3494 4666 
L 4128 4666 
L 4128 1753 
Q 4128 841 3676 375 
Q 3225 -91 2344 -91 
Q 1459 -91 1007 375 
Q 556 841 556 1753 
L 556 4666 
z
" transform="scale(0.015625)"/>
      <path id="DejaVuSans-73" d="M 2834 3397 
L 2834 2853 
Q 2591 2978 2328 3040 
Q 2066 3103 1784 3103 
Q 1356 3103 1142 2972 
Q 928 2841 928 2578 
Q 928 2378 1081 2264 
Q 1234 2150 1697 2047 
L 1894 2003 
Q 2506 1872 2764 1633 
Q 3022 1394 3022 966 
Q 3022 478 2636 193 
Q 2250 -91 1575 -91 
Q 1294 -91 989 -36 
Q 684 19 347 128 
L 347 722 
Q 666 556 975 473 
Q 1284 391 1588 391 
Q 1994 391 2212 530 
Q 2431 669 2431 922 
Q 2431 1156 2273 1281 
Q 2116 1406 1581 1522 
L 1381 1569 
Q 847 1681 609 1914 
Q 372 2147 372 2553 
Q 372 3047 722 3315 
Q 1072 3584 1716 3584 
Q 2034 3584 2315 3537 
Q 2597 3491 2834 3397 
z
" transform="scale(0.015625)"/>
      <path id="DejaVuSans-72" d="M 2631 2963 
Q 2534 3019 2420 3045 
Q 2306 3072 2169 3072 
Q 1681 3072 1420 2755 
Q 1159 2438 1159 1844 
L 1159 0 
L 581 0 
L 581 3500 
L 1159 3500 
L 1159 2956 
Q 1341 3275 1631 3429 
Q 1922 3584 2338 3584 
Q 2397 3584 2469 3576 
Q 2541 3569 2628 3553 
L 2631 2963 
z
" transform="scale(0.015625)"/>
      <path id="DejaVuSans-20" transform="scale(0.015625)"/>
      <path id="DejaVuSans-2c" d="M 750 794 
L 1409 794 
L 1409 256 
L 897 -744 
L 494 -744 
L 750 256 
L 750 794 
z
" transform="scale(0.015625)"/>
      <path id="DejaVuSans-41" d="M 2188 4044 
L 1331 1722 
L 3047 1722 
L 2188 4044 
z
M 1831 4666 
L 2547 4666 
L 4325 0 
L 3669 0 
L 3244 1197 
L 1141 1197 
L 716 0 
L 50 0 
L 1831 4666 
z
" transform="scale(0.015625)"/>
      <path id="DejaVuSans-6f" d="M 1959 3097 
Q 1497 3097 1228 2736 
Q 959 2375 959 1747 
Q 959 1119 1226 758 
Q 1494 397 1959 397 
Q 2419 397 2687 759 
Q 2956 1122 2956 1747 
Q 2956 2369 2687 2733 
Q 2419 3097 1959 3097 
z
M 1959 3584 
Q 2709 3584 3137 3096 
Q 3566 2609 3566 1747 
Q 3566 888 3137 398 
Q 2709 -91 1959 -91 
Q 1206 -91 779 398 
Q 353 888 353 1747 
Q 353 2609 779 3096 
Q 1206 3584 1959 3584 
z
" transform="scale(0.015625)"/>
      <path id="DejaVuSans-6e" d="M 3513 2113 
L 3513 0 
L 2938 0 
L 2938 2094 
Q 2938 2591 2744 2837 
Q 2550 3084 2163 3084 
Q 1697 3084 1428 2787 
Q 1159 2491 1159 1978 
L 1159 0 
L 581 0 
L 581 3500 
L 1159 3500 
L 1159 2956 
Q 1366 3272 1645 3428 
Q 1925 3584 2291 3584 
Q 2894 3584 3203 3211 
Q 3513 2838 3513 2113 
z
" transform="scale(0.015625)"/>
     </defs>
     <use xlink:href="#DejaVuSans-55"/>
     <use xlink:href="#DejaVuSans-73" x="73.193359"/>
     <use xlink:href="#DejaVuSans-65" x="125.292969"/>
     <use xlink:href="#DejaVuSans-72" x="186.816406"/>
     <use xlink:href="#DejaVuSans-20" x="227.929688"/>
     <use xlink:href="#DejaVuSans-34" x="259.716797"/>
     <use xlink:href="#DejaVuSans-2c" x="323.339844"/>
     <use xlink:href="#DejaVuSans-20" x="355.126953"/>
     <use xlink:href="#DejaVuSans-41" x="386.914062"/>
     <use xlink:href="#DejaVuSans-63" x="453.572266"/>
     <use xlink:href="#DejaVuSans-74" x="508.552734"/>
     <use xlink:href="#DejaVuSans-69" x="547.761719"/>
     <use xlink:href="#DejaVuSans-6f" x="575.544922"/>
     <use xlink:href="#DejaVuSans-6e" x="636.726562"/>
     <use xlink:href="#DejaVuSans-20" x="700.105469"/>
     <use xlink:href="#DejaVuSans-33" x="731.892578"/>
    </g>
   </g>
   <g id="legend_1">
    <g id="patch_7">
     <path d="M 1219.548438 78.914375 
L 1278.2 78.914375 
Q 1280.2 78.914375 1280.2 76.914375 
L 1280.2 33.88 
Q 1280.2 31.88 1278.2 31.88 
L 1219.548438 31.88 
Q 1217.548438 31.88 1217.548438 33.88 
L 1217.548438 76.914375 
Q 1217.548438 78.914375 1219.548438 78.914375 
z
" style="fill: #ffffff; opacity: 0.8; stroke: #cccccc; stroke-linejoin: miter"/>
    </g>
    <g id="line2d_19">
     <path d="M 1221.548438 39.978437 
L 1231.548438 39.978437 
L 1241.548438 39.978437 
" style="fill: none; stroke: #1f77b4; stroke-width: 1.5; stroke-linecap: square"/>
    </g>
    <g id="text_20">
     <!-- acc-x -->
     <g transform="translate(1249.548438 43.478437) scale(0.1 -0.1)">
      <defs>
       <path id="DejaVuSans-2d" d="M 313 2009 
L 1997 2009 
L 1997 1497 
L 313 1497 
L 313 2009 
z
" transform="scale(0.015625)"/>
       <path id="DejaVuSans-78" d="M 3513 3500 
L 2247 1797 
L 3578 0 
L 2900 0 
L 1881 1375 
L 863 0 
L 184 0 
L 1544 1831 
L 300 3500 
L 978 3500 
L 1906 2253 
L 2834 3500 
L 3513 3500 
z
" transform="scale(0.015625)"/>
      </defs>
      <use xlink:href="#DejaVuSans-61"/>
      <use xlink:href="#DejaVuSans-63" x="61.279297"/>
      <use xlink:href="#DejaVuSans-63" x="116.259766"/>
      <use xlink:href="#DejaVuSans-2d" x="171.240234"/>
      <use xlink:href="#DejaVuSans-78" x="207.324219"/>
     </g>
    </g>
    <g id="line2d_20">
     <path d="M 1221.548438 54.656563 
L 1231.548438 54.656563 
L 1241.548438 54.656563 
" style="fill: none; stroke: #ff7f0e; stroke-width: 1.5; stroke-linecap: square"/>
    </g>
    <g id="text_21">
     <!-- acc-y -->
     <g transform="translate(1249.548438 58.156563) scale(0.1 -0.1)">
      <defs>
       <path id="DejaVuSans-79" d="M 2059 -325 
Q 1816 -950 1584 -1140 
Q 1353 -1331 966 -1331 
L 506 -1331 
L 506 -850 
L 844 -850 
Q 1081 -850 1212 -737 
Q 1344 -625 1503 -206 
L 1606 56 
L 191 3500 
L 800 3500 
L 1894 763 
L 2988 3500 
L 3597 3500 
L 2059 -325 
z
" transform="scale(0.015625)"/>
      </defs>
      <use xlink:href="#DejaVuSans-61"/>
      <use xlink:href="#DejaVuSans-63" x="61.279297"/>
      <use xlink:href="#DejaVuSans-63" x="116.259766"/>
      <use xlink:href="#DejaVuSans-2d" x="171.240234"/>
      <use xlink:href="#DejaVuSans-79" x="205.574219"/>
     </g>
    </g>
    <g id="line2d_21">
     <path d="M 1221.548438 69.334687 
L 1231.548438 69.334687 
L 1241.548438 69.334687 
" style="fill: none; stroke: #2ca02c; stroke-width: 1.5; stroke-linecap: square"/>
    </g>
    <g id="text_22">
     <!-- acc-z -->
     <g transform="translate(1249.548438 72.834687) scale(0.1 -0.1)">
      <defs>
       <path id="DejaVuSans-7a" d="M 353 3500 
L 3084 3500 
L 3084 2975 
L 922 459 
L 3084 459 
L 3084 0 
L 275 0 
L 275 525 
L 2438 3041 
L 353 3041 
L 353 3500 
z
" transform="scale(0.015625)"/>
      </defs>
      <use xlink:href="#DejaVuSans-61"/>
      <use xlink:href="#DejaVuSans-63" x="61.279297"/>
      <use xlink:href="#DejaVuSans-63" x="116.259766"/>
      <use xlink:href="#DejaVuSans-2d" x="171.240234"/>
      <use xlink:href="#DejaVuSans-7a" x="207.324219"/>
     </g>
    </g>
   </g>
  </g>
 </g>
 <defs>
  <clipPath id="p0c8a10eae0">
   <rect x="52.94" y="26.88" width="1232.26" height="363.16"/>
  </clipPath>
 </defs>
</svg>
