<?xml version="1.0" encoding="utf-8" standalone="no"?>
<!DOCTYPE svg PUBLIC "-//W3C//DTD SVG 1.1//EN"
  "http://www.w3.org/Graphics/SVG/1.1/DTD/svg11.dtd">
<svg xmlns:xlink="http://www.w3.org/1999/xlink" width="1296pt" height="432pt" viewBox="0 0 1296 432" xmlns="http://www.w3.org/2000/svg" version="1.1">
 <metadata>
  <rdf:RDF xmlns:dc="http://purl.org/dc/elements/1.1/" xmlns:cc="http://creativecommons.org/ns#" xmlns:rdf="http://www.w3.org/1999/02/22-rdf-syntax-ns#">
   <cc:Work>
    <dc:type rdf:resource="http://purl.org/dc/dcmitype/StillImage"/>
    <dc:date>2025-03-28T12:10:49.608677</dc:date>
    <dc:format>image/svg+xml</dc:format>
    <dc:creator>
     <cc:Agent>
      <dc:title>Matplotlib v3.7.5, https://matplotlib.org/</dc:title>
     </cc:Agent>
    </dc:creator>
   </cc:Work>
  </rdf:RDF>
 </metadata>
 <defs>
  <style type="text/css">*{stroke-linejoin: round; stroke-linecap: butt}</style>
 </defs>
 <g id="figure_1">
  <g id="patch_1">
   <path d="M 0 432 
L 1296 432 
L 1296 0 
L 0 0 
z
" style="fill: #ffffff"/>
  </g>
  <g id="axes_1">
   <g id="patch_2">
    <path d="M 52.94 390.04 
L 1279.850024 390.04 
L 1279.850024 26.88 
L 52.94 26.88 
z
" style="fill: #ffffff"/>
   </g>
   <g id="matplotlib.axis_1">
    <g id="xtick_1">
     <g id="line2d_1">
      <defs>
       <path id="m527841b85e" d="M 0 0 
L 0 3.5 
" style="stroke: #000000; stroke-width: 0.8"/>
      </defs>
      <g>
       <use xlink:href="#m527841b85e" x="221.768967" y="390.04" style="stroke: #000000; stroke-width: 0.8"/>
      </g>
     </g>
     <g id="text_1">
      <!-- 2.071 -->
      <g transform="translate(207.454905 404.638438) scale(0.1 -0.1)">
       <defs>
        <path id="DejaVuSans-32" d="M 1228 531 
L 3431 531 
L 3431 0 
L 469 0 
L 469 531 
Q 828 903 1448 1529 
Q 2069 2156 2228 2338 
Q 2531 2678 2651 2914 
Q 2772 3150 2772 3378 
Q 2772 3750 2511 3984 
Q 2250 4219 1831 4219 
Q 1534 4219 1204 4116 
Q 875 4013 500 3803 
L 500 4441 
Q 881 4594 1212 4672 
Q 1544 4750 1819 4750 
Q 2544 4750 2975 4387 
Q 3406 4025 3406 3419 
Q 3406 3131 3298 2873 
Q 3191 2616 2906 2266 
Q 2828 2175 2409 1742 
Q 1991 1309 1228 531 
z
" transform="scale(0.015625)"/>
        <path id="DejaVuSans-2e" d="M 684 794 
L 1344 794 
L 1344 0 
L 684 0 
L 684 794 
z
" transform="scale(0.015625)"/>
        <path id="DejaVuSans-30" d="M 2034 4250 
Q 1547 4250 1301 3770 
Q 1056 3291 1056 2328 
Q 1056 1369 1301 889 
Q 1547 409 2034 409 
Q 2525 409 2770 889 
Q 3016 1369 3016 2328 
Q 3016 3291 2770 3770 
Q 2525 4250 2034 4250 
z
M 2034 4750 
Q 2819 4750 3233 4129 
Q 3647 3509 3647 2328 
Q 3647 1150 3233 529 
Q 2819 -91 2034 -91 
Q 1250 -91 836 529 
Q 422 1150 422 2328 
Q 422 3509 836 4129 
Q 1250 4750 2034 4750 
z
" transform="scale(0.015625)"/>
        <path id="DejaVuSans-37" d="M 525 4666 
L 3525 4666 
L 3525 4397 
L 1831 0 
L 1172 0 
L 2766 4134 
L 525 4134 
L 525 4666 
z
" transform="scale(0.015625)"/>
        <path id="DejaVuSans-31" d="M 794 531 
L 1825 531 
L 1825 4091 
L 703 3866 
L 703 4441 
L 1819 4666 
L 2450 4666 
L 2450 531 
L 3481 531 
L 3481 0 
L 794 0 
L 794 531 
z
" transform="scale(0.015625)"/>
       </defs>
       <use xlink:href="#DejaVuSans-32"/>
       <use xlink:href="#DejaVuSans-2e" x="63.623047"/>
       <use xlink:href="#DejaVuSans-30" x="95.410156"/>
       <use xlink:href="#DejaVuSans-37" x="159.033203"/>
       <use xlink:href="#DejaVuSans-31" x="222.65625"/>
      </g>
     </g>
    </g>
    <g id="xtick_2">
     <g id="line2d_2">
      <g>
       <use xlink:href="#m527841b85e" x="396.31913" y="390.04" style="stroke: #000000; stroke-width: 0.8"/>
      </g>
     </g>
     <g id="text_2">
      <!-- 2.072 -->
      <g transform="translate(382.005068 404.638438) scale(0.1 -0.1)">
       <use xlink:href="#DejaVuSans-32"/>
       <use xlink:href="#DejaVuSans-2e" x="63.623047"/>
       <use xlink:href="#DejaVuSans-30" x="95.410156"/>
       <use xlink:href="#DejaVuSans-37" x="159.033203"/>
       <use xlink:href="#DejaVuSans-32" x="222.65625"/>
      </g>
     </g>
    </g>
    <g id="xtick_3">
     <g id="line2d_3">
      <g>
       <use xlink:href="#m527841b85e" x="570.869293" y="390.04" style="stroke: #000000; stroke-width: 0.8"/>
      </g>
     </g>
     <g id="text_3">
      <!-- 2.073 -->
      <g transform="translate(556.555231 404.638438) scale(0.1 -0.1)">
       <defs>
        <path id="DejaVuSans-33" d="M 2597 2516 
Q 3050 2419 3304 2112 
Q 3559 1806 3559 1356 
Q 3559 666 3084 287 
Q 2609 -91 1734 -91 
Q 1441 -91 1130 -33 
Q 819 25 488 141 
L 488 750 
Q 750 597 1062 519 
Q 1375 441 1716 441 
Q 2309 441 2620 675 
Q 2931 909 2931 1356 
Q 2931 1769 2642 2001 
Q 2353 2234 1838 2234 
L 1294 2234 
L 1294 2753 
L 1863 2753 
Q 2328 2753 2575 2939 
Q 2822 3125 2822 3475 
Q 2822 3834 2567 4026 
Q 2313 4219 1838 4219 
Q 1578 4219 1281 4162 
Q 984 4106 628 3988 
L 628 4550 
Q 988 4650 1302 4700 
Q 1616 4750 1894 4750 
Q 2613 4750 3031 4423 
Q 3450 4097 3450 3541 
Q 3450 3153 3228 2886 
Q 3006 2619 2597 2516 
z
" transform="scale(0.015625)"/>
       </defs>
       <use xlink:href="#DejaVuSans-32"/>
       <use xlink:href="#DejaVuSans-2e" x="63.623047"/>
       <use xlink:href="#DejaVuSans-30" x="95.410156"/>
       <use xlink:href="#DejaVuSans-37" x="159.033203"/>
       <use xlink:href="#DejaVuSans-33" x="222.65625"/>
      </g>
     </g>
    </g>
    <g id="xtick_4">
     <g id="line2d_4">
      <g>
       <use xlink:href="#m527841b85e" x="745.419457" y="390.04" style="stroke: #000000; stroke-width: 0.8"/>
      </g>
     </g>
     <g id="text_4">
      <!-- 2.074 -->
      <g transform="translate(731.105394 404.638438) scale(0.1 -0.1)">
       <defs>
        <path id="DejaVuSans-34" d="M 2419 4116 
L 825 1625 
L 2419 1625 
L 2419 4116 
z
M 2253 4666 
L 3047 4666 
L 3047 1625 
L 3713 1625 
L 3713 1100 
L 3047 1100 
L 3047 0 
L 2419 0 
L 2419 1100 
L 313 1100 
L 313 1709 
L 2253 4666 
z
" transform="scale(0.015625)"/>
       </defs>
       <use xlink:href="#DejaVuSans-32"/>
       <use xlink:href="#DejaVuSans-2e" x="63.623047"/>
       <use xlink:href="#DejaVuSans-30" x="95.410156"/>
       <use xlink:href="#DejaVuSans-37" x="159.033203"/>
       <use xlink:href="#DejaVuSans-34" x="222.65625"/>
      </g>
     </g>
    </g>
    <g id="xtick_5">
     <g id="line2d_5">
      <g>
       <use xlink:href="#m527841b85e" x="919.96962" y="390.04" style="stroke: #000000; stroke-width: 0.8"/>
      </g>
     </g>
     <g id="text_5">
      <!-- 2.075 -->
      <g transform="translate(905.655557 404.638438) scale(0.1 -0.1)">
       <defs>
        <path id="DejaVuSans-35" d="M 691 4666 
L 3169 4666 
L 3169 4134 
L 1269 4134 
L 1269 2991 
Q 1406 3038 1543 3061 
Q 1681 3084 1819 3084 
Q 2600 3084 3056 2656 
Q 3513 2228 3513 1497 
Q 3513 744 3044 326 
Q 2575 -91 1722 -91 
Q 1428 -91 1123 -41 
Q 819 9 494 109 
L 494 744 
Q 775 591 1075 516 
Q 1375 441 1709 441 
Q 2250 441 2565 725 
Q 2881 1009 2881 1497 
Q 2881 1984 2565 2268 
Q 2250 2553 1709 2553 
Q 1456 2553 1204 2497 
Q 953 2441 691 2322 
L 691 4666 
z
" transform="scale(0.015625)"/>
       </defs>
       <use xlink:href="#DejaVuSans-32"/>
       <use xlink:href="#DejaVuSans-2e" x="63.623047"/>
       <use xlink:href="#DejaVuSans-30" x="95.410156"/>
       <use xlink:href="#DejaVuSans-37" x="159.033203"/>
       <use xlink:href="#DejaVuSans-35" x="222.65625"/>
      </g>
     </g>
    </g>
    <g id="xtick_6">
     <g id="line2d_6">
      <g>
       <use xlink:href="#m527841b85e" x="1094.519783" y="390.04" style="stroke: #000000; stroke-width: 0.8"/>
      </g>
     </g>
     <g id="text_6">
      <!-- 2.076 -->
      <g transform="translate(1080.20572 404.638438) scale(0.1 -0.1)">
       <defs>
        <path id="DejaVuSans-36" d="M 2113 2584 
Q 1688 2584 1439 2293 
Q 1191 2003 1191 1497 
Q 1191 994 1439 701 
Q 1688 409 2113 409 
Q 2538 409 2786 701 
Q 3034 994 3034 1497 
Q 3034 2003 2786 2293 
Q 2538 2584 2113 2584 
z
M 3366 4563 
L 3366 3988 
Q 3128 4100 2886 4159 
Q 2644 4219 2406 4219 
Q 1781 4219 1451 3797 
Q 1122 3375 1075 2522 
Q 1259 2794 1537 2939 
Q 1816 3084 2150 3084 
Q 2853 3084 3261 2657 
Q 3669 2231 3669 1497 
Q 3669 778 3244 343 
Q 2819 -91 2113 -91 
Q 1303 -91 875 529 
Q 447 1150 447 2328 
Q 447 3434 972 4092 
Q 1497 4750 2381 4750 
Q 2619 4750 2861 4703 
Q 3103 4656 3366 4563 
z
" transform="scale(0.015625)"/>
       </defs>
       <use xlink:href="#DejaVuSans-32"/>
       <use xlink:href="#DejaVuSans-2e" x="63.623047"/>
       <use xlink:href="#DejaVuSans-30" x="95.410156"/>
       <use xlink:href="#DejaVuSans-37" x="159.033203"/>
       <use xlink:href="#DejaVuSans-36" x="222.65625"/>
      </g>
     </g>
    </g>
    <g id="xtick_7">
     <g id="line2d_7">
      <g>
       <use xlink:href="#m527841b85e" x="1269.069946" y="390.04" style="stroke: #000000; stroke-width: 0.8"/>
      </g>
     </g>
     <g id="text_7">
      <!-- 2.077 -->
      <g transform="translate(1254.755883 404.638438) scale(0.1 -0.1)">
       <use xlink:href="#DejaVuSans-32"/>
       <use xlink:href="#DejaVuSans-2e" x="63.623047"/>
       <use xlink:href="#DejaVuSans-30" x="95.410156"/>
       <use xlink:href="#DejaVuSans-37" x="159.033203"/>
       <use xlink:href="#DejaVuSans-37" x="222.65625"/>
      </g>
     </g>
    </g>
    <g id="text_8">
     <!-- time -->
     <g transform="translate(655.098918 418.316562) scale(0.1 -0.1)">
      <defs>
       <path id="DejaVuSans-74" d="M 1172 4494 
L 1172 3500 
L 2356 3500 
L 2356 3053 
L 1172 3053 
L 1172 1153 
Q 1172 725 1289 603 
Q 1406 481 1766 481 
L 2356 481 
L 2356 0 
L 1766 0 
Q 1100 0 847 248 
Q 594 497 594 1153 
L 594 3053 
L 172 3053 
L 172 3500 
L 594 3500 
L 594 4494 
L 1172 4494 
z
" transform="scale(0.015625)"/>
       <path id="DejaVuSans-69" d="M 603 3500 
L 1178 3500 
L 1178 0 
L 603 0 
L 603 3500 
z
M 603 4863 
L 1178 4863 
L 1178 4134 
L 603 4134 
L 603 4863 
z
" transform="scale(0.015625)"/>
       <path id="DejaVuSans-6d" d="M 3328 2828 
Q 3544 3216 3844 3400 
Q 4144 3584 4550 3584 
Q 5097 3584 5394 3201 
Q 5691 2819 5691 2113 
L 5691 0 
L 5113 0 
L 5113 2094 
Q 5113 2597 4934 2840 
Q 4756 3084 4391 3084 
Q 3944 3084 3684 2787 
Q 3425 2491 3425 1978 
L 3425 0 
L 2847 0 
L 2847 2094 
Q 2847 2600 2669 2842 
Q 2491 3084 2119 3084 
Q 1678 3084 1418 2786 
Q 1159 2488 1159 1978 
L 1159 0 
L 581 0 
L 581 3500 
L 1159 3500 
L 1159 2956 
Q 1356 3278 1631 3431 
Q 1906 3584 2284 3584 
Q 2666 3584 2933 3390 
Q 3200 3197 3328 2828 
z
" transform="scale(0.015625)"/>
       <path id="DejaVuSans-65" d="M 3597 1894 
L 3597 1613 
L 953 1613 
Q 991 1019 1311 708 
Q 1631 397 2203 397 
Q 2534 397 2845 478 
Q 3156 559 3463 722 
L 3463 178 
Q 3153 47 2828 -22 
Q 2503 -91 2169 -91 
Q 1331 -91 842 396 
Q 353 884 353 1716 
Q 353 2575 817 3079 
Q 1281 3584 2069 3584 
Q 2775 3584 3186 3129 
Q 3597 2675 3597 1894 
z
M 3022 2063 
Q 3016 2534 2758 2815 
Q 2500 3097 2075 3097 
Q 1594 3097 1305 2825 
Q 1016 2553 972 2059 
L 3022 2063 
z
" transform="scale(0.015625)"/>
      </defs>
      <use xlink:href="#DejaVuSans-74"/>
      <use xlink:href="#DejaVuSans-69" x="39.208984"/>
      <use xlink:href="#DejaVuSans-6d" x="66.992188"/>
      <use xlink:href="#DejaVuSans-65" x="164.404297"/>
     </g>
    </g>
    <g id="text_9">
     <!-- 1e12 -->
     <g transform="translate(1254.609399 417.316562) scale(0.1 -0.1)">
      <use xlink:href="#DejaVuSans-31"/>
      <use xlink:href="#DejaVuSans-65" x="63.623047"/>
      <use xlink:href="#DejaVuSans-31" x="125.146484"/>
      <use xlink:href="#DejaVuSans-32" x="188.769531"/>
     </g>
    </g>
   </g>
   <g id="matplotlib.axis_2">
    <g id="ytick_1">
     <g id="line2d_8">
      <defs>
       <path id="m245c7daa9d" d="M 0 0 
L -3.5 0 
" style="stroke: #000000; stroke-width: 0.8"/>
      </defs>
      <g>
       <use xlink:href="#m245c7daa9d" x="52.94" y="369.803349" style="stroke: #000000; stroke-width: 0.8"/>
      </g>
     </g>
     <g id="text_10">
      <!-- −10 -->
      <g transform="translate(24.835312 373.602568) scale(0.1 -0.1)">
       <defs>
        <path id="DejaVuSans-2212" d="M 678 2272 
L 4684 2272 
L 4684 1741 
L 678 1741 
L 678 2272 
z
" transform="scale(0.015625)"/>
       </defs>
       <use xlink:href="#DejaVuSans-2212"/>
       <use xlink:href="#DejaVuSans-31" x="83.789062"/>
       <use xlink:href="#DejaVuSans-30" x="147.412109"/>
      </g>
     </g>
    </g>
    <g id="ytick_2">
     <g id="line2d_9">
      <g>
       <use xlink:href="#m245c7daa9d" x="52.94" y="314.609559" style="stroke: #000000; stroke-width: 0.8"/>
      </g>
     </g>
     <g id="text_11">
      <!-- −5 -->
      <g transform="translate(31.197812 318.408777) scale(0.1 -0.1)">
       <use xlink:href="#DejaVuSans-2212"/>
       <use xlink:href="#DejaVuSans-35" x="83.789062"/>
      </g>
     </g>
    </g>
    <g id="ytick_3">
     <g id="line2d_10">
      <g>
       <use xlink:href="#m245c7daa9d" x="52.94" y="259.415768" style="stroke: #000000; stroke-width: 0.8"/>
      </g>
     </g>
     <g id="text_12">
      <!-- 0 -->
      <g transform="translate(39.5775 263.214987) scale(0.1 -0.1)">
       <use xlink:href="#DejaVuSans-30"/>
      </g>
     </g>
    </g>
    <g id="ytick_4">
     <g id="line2d_11">
      <g>
       <use xlink:href="#m245c7daa9d" x="52.94" y="204.221978" style="stroke: #000000; stroke-width: 0.8"/>
      </g>
     </g>
     <g id="text_13">
      <!-- 5 -->
      <g transform="translate(39.5775 208.021197) scale(0.1 -0.1)">
       <use xlink:href="#DejaVuSans-35"/>
      </g>
     </g>
    </g>
    <g id="ytick_5">
     <g id="line2d_12">
      <g>
       <use xlink:href="#m245c7daa9d" x="52.94" y="149.028188" style="stroke: #000000; stroke-width: 0.8"/>
      </g>
     </g>
     <g id="text_14">
      <!-- 10 -->
      <g transform="translate(33.215 152.827406) scale(0.1 -0.1)">
       <use xlink:href="#DejaVuSans-31"/>
       <use xlink:href="#DejaVuSans-30" x="63.623047"/>
      </g>
     </g>
    </g>
    <g id="ytick_6">
     <g id="line2d_13">
      <g>
       <use xlink:href="#m245c7daa9d" x="52.94" y="93.834397" style="stroke: #000000; stroke-width: 0.8"/>
      </g>
     </g>
     <g id="text_15">
      <!-- 15 -->
      <g transform="translate(33.215 97.633616) scale(0.1 -0.1)">
       <use xlink:href="#DejaVuSans-31"/>
       <use xlink:href="#DejaVuSans-35" x="63.623047"/>
      </g>
     </g>
    </g>
    <g id="ytick_7">
     <g id="line2d_14">
      <g>
       <use xlink:href="#m245c7daa9d" x="52.94" y="38.640607" style="stroke: #000000; stroke-width: 0.8"/>
      </g>
     </g>
     <g id="text_16">
      <!-- 20 -->
      <g transform="translate(33.215 42.439826) scale(0.1 -0.1)">
       <use xlink:href="#DejaVuSans-32"/>
       <use xlink:href="#DejaVuSans-30" x="63.623047"/>
      </g>
     </g>
    </g>
    <g id="text_17">
     <!-- acc -->
     <g transform="translate(18.755625 217.0225) rotate(-90) scale(0.1 -0.1)">
      <defs>
       <path id="DejaVuSans-61" d="M 2194 1759 
Q 1497 1759 1228 1600 
Q 959 1441 959 1056 
Q 959 750 1161 570 
Q 1363 391 1709 391 
Q 2188 391 2477 730 
Q 2766 1069 2766 1631 
L 2766 1759 
L 2194 1759 
z
M 3341 1997 
L 3341 0 
L 2766 0 
L 2766 531 
Q 2569 213 2275 61 
Q 1981 -91 1556 -91 
Q 1019 -91 701 211 
Q 384 513 384 1019 
Q 384 1609 779 1909 
Q 1175 2209 1959 2209 
L 2766 2209 
L 2766 2266 
Q 2766 2663 2505 2880 
Q 2244 3097 1772 3097 
Q 1472 3097 1187 3025 
Q 903 2953 641 2809 
L 641 3341 
Q 956 3463 1253 3523 
Q 1550 3584 1831 3584 
Q 2591 3584 2966 3190 
Q 3341 2797 3341 1997 
z
" transform="scale(0.015625)"/>
       <path id="DejaVuSans-63" d="M 3122 3366 
L 3122 2828 
Q 2878 2963 2633 3030 
Q 2388 3097 2138 3097 
Q 1578 3097 1268 2742 
Q 959 2388 959 1747 
Q 959 1106 1268 751 
Q 1578 397 2138 397 
Q 2388 397 2633 464 
Q 2878 531 3122 666 
L 3122 134 
Q 2881 22 2623 -34 
Q 2366 -91 2075 -91 
Q 1284 -91 818 406 
Q 353 903 353 1747 
Q 353 2603 823 3093 
Q 1294 3584 2113 3584 
Q 2378 3584 2631 3529 
Q 2884 3475 3122 3366 
z
" transform="scale(0.015625)"/>
      </defs>
      <use xlink:href="#DejaVuSans-61"/>
      <use xlink:href="#DejaVuSans-63" x="61.279297"/>
      <use xlink:href="#DejaVuSans-63" x="116.259766"/>
     </g>
    </g>
   </g>
   <g id="line2d_15">
    <path d="M 108.708637 179.384772 
L 119.186535 198.923374 
L 129.755023 154.216404 
L 138.379198 267.805224 
L 147.120495 289.44119 
L 155.82985 301.694212 
L 164.571323 240.760267 
L 173.285914 102.555016 
L 182.027386 167.242138 
L 190.741978 157.969582 
L 199.478039 199.475312 
L 208.198216 255.662591 
L 216.934102 194.728646 
L 225.664927 255.993753 
L 234.390166 159.183845 
L 243.104932 214.598411 
L 251.846404 172.319967 
L 260.560996 243.740732 
L 269.297057 302.577312 
L 278.017059 301.694212 
L 286.75312 231.929261 
L 295.473297 129.158423 
L 304.209184 154.437179 
L 312.929361 146.047723 
L 321.665247 200.579188 
L 330.380013 239.987554 
L 339.121486 196.82601 
L 347.841488 262.727396 
L 356.572138 128.275322 
L 365.292141 206.208954 
L 374.028202 180.819811 
L 382.753615 228.948796 
L 391.484265 303.350025 
L 400.199031 324.544441 
L 408.940329 178.280896 
L 417.655095 188.767717 
L 426.396567 156.976093 
L 435.111159 165.917487 
L 443.84722 153.222916 
L 452.567222 264.052047 
L 461.308694 182.917175 
L 471.770533 244.182282 
L 480.49071 154.216404 
L 489.232008 198.040273 
L 497.957421 167.683689 
L 506.693482 246.390034 
L 515.408074 302.577312 
L 524.138898 290.655454 
L 532.864137 259.857319 
L 541.600198 60.607735 
L 550.309553 184.131438 
L 559.051026 116.132688 
L 567.771028 241.643368 
L 576.507089 231.929261 
L 585.227092 193.845545 
L 593.957916 261.954683 
L 602.677919 135.560903 
L 611.41398 244.954995 
L 620.133982 237.44864 
L 628.885928 237.44864 
L 637.616752 281.824447 
L 646.336755 297.499484 
L 655.04611 277.188169 
L 663.787407 113.593774 
L 674.24942 152.339815 
L 682.974834 140.969894 
L 691.705484 232.812361 
L 700.425486 242.416081 
L 709.161548 205.767404 
L 717.88155 235.682438 
L 726.623022 160.950046 
L 735.348436 207.864768 
L 744.068438 158.411132 
L 752.793852 251.467862 
L 761.524502 275.090805 
L 770.244504 306.77204 
L 778.985977 241.201817 
L 787.695332 198.481824 
L 796.447277 151.567102 
L 805.156632 186.670353 
L 813.898104 129.710361 
L 822.607459 255.993753 
L 831.34352 203.22849 
L 840.063522 262.396233 
L 848.80482 120.658579 
L 857.519586 244.73422 
L 866.255647 178.280896 
L 874.970413 244.73422 
L 883.717122 301.694212 
L 901.173185 267.032511 
L 909.887951 169.781053 
L 918.623838 143.508808 
L 927.4079 163.488961 
L 936.074665 133.463539 
L 944.810726 286.019175 
L 953.520081 195.942909 
L 962.415856 247.052359 
L 971.002851 198.481824 
L 979.712206 213.71531 
L 988.432208 185.89764 
L 997.17368 190.092368 
L 1005.883035 263.610496 
L 1014.624333 293.194368 
L 1023.344336 239.546004 
L 1032.085808 223.981355 
L 1040.795163 122.424781 
L 1049.53646 151.567102 
L 1058.251226 153.664466 
L 1066.987287 263.610496 
L 1075.712701 203.67004 
L 1084.443351 252.240576 
L 1093.158117 165.917487 
L 1101.899415 215.812674 
L 1110.614181 187.111903 
L 1119.355478 179.163997 
L 1128.070244 266.590961 
L 1136.811542 322.005527 
L 1154.262369 198.040273 
L 1162.993019 165.917487 
L 1171.718433 177.066633 
L 1180.443846 89.860444 
L 1189.179907 261.071582 
L 1197.894499 231.156548 
L 1206.63056 207.864768 
L 1215.345326 249.591274 
L 1224.081387 181.261361 
L 1224.081387 181.261361 
" clip-path="url(#p8a06cb6a27)" style="fill: none; stroke: #1f77b4; stroke-width: 1.5; stroke-linecap: square"/>
   </g>
   <g id="line2d_16">
    <path d="M 108.708637 109.619821 
L 119.186535 44.601536 
L 129.755023 104.65238 
L 138.379198 251.467862 
L 147.120495 344.855756 
L 155.82985 253.565227 
L 164.571323 121.10013 
L 173.285914 165.144774 
L 182.027386 134.125864 
L 190.741978 60.607735 
L 199.478039 208.306318 
L 208.198216 168.897952 
L 216.934102 268.246775 
L 225.664927 254.77949 
L 234.390166 78.380136 
L 243.104932 46.6989 
L 251.846404 100.016102 
L 260.560996 218.793139 
L 269.297057 335.914362 
L 278.017059 269.461038 
L 286.75312 123.639044 
L 295.473297 149.028188 
L 304.209184 156.313768 
L 312.929361 55.198744 
L 321.665247 211.176396 
L 330.380013 152.781365 
L 339.121486 275.090805 
L 347.841488 224.64368 
L 356.572138 67.010215 
L 365.292141 43.828823 
L 374.028202 93.613622 
L 382.753615 237.007089 
L 391.484265 338.011726 
L 400.199031 280.610184 
L 408.940329 146.047723 
L 417.655095 70.87378 
L 426.396567 183.800275 
L 435.111159 96.594087 
L 443.84722 171.878417 
L 452.567222 171.878417 
L 461.308694 263.168946 
L 471.770533 243.740732 
L 480.49071 53.432543 
L 489.232008 49.237815 
L 497.957421 124.963695 
L 506.693482 242.084918 
L 515.408074 342.206454 
L 524.138898 250.143212 
L 532.864137 140.969894 
L 541.600198 149.028188 
L 550.309553 165.586325 
L 559.051026 58.510371 
L 567.771028 202.235001 
L 576.507089 177.066633 
L 585.227092 279.727083 
L 593.957916 247.49391 
L 602.677919 88.204631 
L 611.41398 48.796264 
L 620.133982 242.416081 
L 628.885928 242.416081 
L 637.616752 314.499171 
L 646.336755 264.052047 
L 655.04611 183.800275 
L 663.787407 135.560903 
L 674.24942 133.905089 
L 682.974834 58.951922 
L 691.705484 200.137637 
L 700.425486 168.897952 
L 709.161548 282.707548 
L 717.88155 242.857631 
L 726.623022 45.484637 
L 735.348436 56.413007 
L 744.068438 104.983543 
L 752.793852 240.760267 
L 761.524502 324.544441 
L 770.244504 254.33794 
L 778.985977 162.60586 
L 787.695332 58.510371 
L 796.447277 160.066946 
L 805.156632 100.788815 
L 813.898104 156.313768 
L 822.607459 174.417331 
L 831.34352 259.857319 
L 840.063522 253.123676 
L 848.80482 101.671915 
L 857.519586 64.140138 
L 866.255647 105.425093 
L 874.970413 219.234689 
L 883.717122 322.447077 
L 892.426477 247.052359 
L 901.173185 160.508496 
L 909.887951 105.866643 
L 918.623838 165.586325 
L 927.4079 81.802151 
L 936.074665 191.748181 
L 944.810726 159.625395 
L 953.520081 264.935147 
L 962.415856 249.149723 
L 971.002851 136.775166 
L 979.712206 45.484637 
L 988.432208 93.613622 
L 997.17368 174.748494 
L 1005.883035 278.843983 
L 1014.624333 310.525218 
L 1023.344336 233.253912 
L 1032.085808 103.327729 
L 1040.795163 214.598411 
L 1049.53646 52.990992 
L 1058.251226 153.664466 
L 1066.987287 178.280896 
L 1075.712701 262.396233 
L 1084.443351 246.831584 
L 1093.158117 158.852682 
L 1101.899415 43.387273 
L 1110.614181 59.393472 
L 1119.355478 134.125864 
L 1128.070244 261.513132 
L 1136.811542 335.472811 
L 1145.531719 238.662903 
L 1154.262369 86.769592 
L 1162.993019 231.48771 
L 1171.718433 89.860444 
L 1180.443846 89.418894 
L 1189.179907 234.909725 
L 1197.894499 189.650817 
L 1206.63056 261.954683 
L 1215.345326 219.234689 
L 1224.081387 44.601536 
L 1224.081387 44.601536 
" clip-path="url(#p8a06cb6a27)" style="fill: none; stroke: #ff7f0e; stroke-width: 1.5; stroke-linecap: square"/>
   </g>
   <g id="line2d_17">
    <path d="M 108.708637 303.318472 
L 119.186535 181.533574 
L 129.755023 159.131168 
L 138.379198 254.30381 
L 147.120495 293.244907 
L 155.82985 327.525101 
L 164.571323 134.623834 
L 173.285914 355.791224 
L 182.027386 166.348054 
L 190.741978 236.562305 
L 199.478039 210.852165 
L 208.198216 229.345423 
L 216.934102 267.083706 
L 225.664927 280.164306 
L 234.390166 283.020989 
L 243.104932 151.613586 
L 251.846404 148.60654 
L 260.560996 255.957679 
L 269.297057 282.720284 
L 278.017059 341.507811 
L 286.75312 130.865048 
L 295.473297 346.469417 
L 304.209184 191.757491 
L 312.929361 217.918692 
L 321.665247 211.152861 
L 330.380013 216.264825 
L 339.121486 270.8425 
L 347.841488 285.576968 
L 356.572138 333.388815 
L 365.292141 176.120916 
L 374.028202 154.921317 
L 382.753615 241.223209 
L 391.484265 293.244907 
L 400.199031 363.008099 
L 408.940329 134.172779 
L 417.655095 307.678676 
L 426.396567 170.557905 
L 435.111159 286.479078 
L 443.84722 168.001914 
L 452.567222 218.369747 
L 461.308694 259.415768 
L 471.770533 295.800886 
L 480.49071 276.255162 
L 489.232008 200.177189 
L 497.957421 163.040312 
L 506.693482 246.335168 
L 515.408074 308.881485 
L 524.138898 337.147612 
L 532.864137 128.309057 
L 541.600198 373.532727 
L 550.309553 125.001326 
L 559.051026 251.747831 
L 567.771028 197.621209 
L 576.507089 231.901402 
L 585.227092 270.391444 
L 593.957916 277.608327 
L 602.677919 270.8425 
L 611.41398 173.564937 
L 620.133982 212.957087 
L 628.885928 212.957087 
L 637.616752 272.496369 
L 646.336755 350.378568 
L 655.04611 156.274492 
L 663.787407 354.588408 
L 674.24942 152.064641 
L 682.974834 213.257791 
L 691.705484 216.715878 
L 700.425486 221.376782 
L 709.161548 271.744609 
L 717.88155 281.818175 
L 726.623022 282.269232 
L 735.348436 186.194476 
L 744.068438 163.040312 
L 752.793852 240.020396 
L 761.524502 278.059382 
L 770.244504 331.734948 
L 778.985977 187.547647 
L 787.695332 307.979372 
L 796.447277 146.95268 
L 805.156632 276.706217 
L 813.898104 162.138203 
L 822.607459 221.827837 
L 831.34352 259.415768 
L 840.063522 256.408734 
L 848.80482 286.028024 
L 857.519586 171.911064 
L 866.255647 129.962939 
L 874.970413 243.779189 
L 883.717122 278.510437 
L 892.426477 339.703592 
L 901.173185 184.991667 
L 909.887951 345.2666 
L 918.623838 146.050571 
L 927.4079 223.030651 
L 936.074665 185.893776 
L 944.810726 219.722913 
L 953.520081 264.978782 
L 962.415856 254.30381 
L 971.002851 291.591037 
L 979.712206 182.435686 
L 988.432208 166.799109 
L 997.17368 203.184224 
L 1005.883035 256.408734 
L 1014.624333 310.535352 
L 1023.344336 261.520692 
L 1032.085808 204.387037 
L 1040.795163 291.139981 
L 1049.53646 172.662824 
L 1058.251226 209.950051 
L 1066.987287 205.740205 
L 1075.712701 255.957679 
L 1084.443351 240.3211 
L 1093.158117 289.035058 
L 1101.899415 240.3211 
L 1110.614181 175.66986 
L 1119.355478 187.547647 
L 1128.070244 289.786817 
L 1136.811542 321.210328 
L 1145.531719 254.30381 
L 1154.262369 163.792074 
L 1162.993019 302.566712 
L 1171.718433 179.127945 
L 1180.443846 157.928352 
L 1189.179907 226.488743 
L 1197.894499 228.894369 
L 1206.63056 259.415768 
L 1215.345326 289.035058 
L 1224.081387 286.479078 
L 1224.081387 286.479078 
" clip-path="url(#p8a06cb6a27)" style="fill: none; stroke: #2ca02c; stroke-width: 1.5; stroke-linecap: square"/>
   </g>
   <g id="patch_3">
    <path d="M 52.94 390.04 
L 52.94 26.88 
" style="fill: none; stroke: #000000; stroke-width: 0.8; stroke-linejoin: miter; stroke-linecap: square"/>
   </g>
   <g id="patch_4">
    <path d="M 1279.850024 390.04 
L 1279.850024 26.88 
" style="fill: none; stroke: #000000; stroke-width: 0.8; stroke-linejoin: miter; stroke-linecap: square"/>
   </g>
   <g id="patch_5">
    <path d="M 52.94 390.04 
L 1279.850024 390.04 
" style="fill: none; stroke: #000000; stroke-width: 0.8; stroke-linejoin: miter; stroke-linecap: square"/>
   </g>
   <g id="patch_6">
    <path d="M 52.94 26.88 
L 1279.850024 26.88 
" style="fill: none; stroke: #000000; stroke-width: 0.8; stroke-linejoin: miter; stroke-linecap: square"/>
   </g>
   <g id="text_18">
    <!-- User 5, Action 1 -->
    <g transform="translate(618.66595 20.88) scale(0.12 -0.12)">
     <defs>
      <path id="DejaVuSans-55" d="M 556 4666 
L 1191 4666 
L 1191 1831 
Q 1191 1081 1462 751 
Q 1734 422 2344 422 
Q 2950 422 3222 751 
Q 3494 1081 3494 1831 
L 3494 4666 
L 4128 4666 
L 4128 1753 
Q 4128 841 3676 375 
Q 3225 -91 2344 -91 
Q 1459 -91 1007 375 
Q 556 841 556 1753 
L 556 4666 
z
" transform="scale(0.015625)"/>
      <path id="DejaVuSans-73" d="M 2834 3397 
L 2834 2853 
Q 2591 2978 2328 3040 
Q 2066 3103 1784 3103 
Q 1356 3103 1142 2972 
Q 928 2841 928 2578 
Q 928 2378 1081 2264 
Q 1234 2150 1697 2047 
L 1894 2003 
Q 2506 1872 2764 1633 
Q 3022 1394 3022 966 
Q 3022 478 2636 193 
Q 2250 -91 1575 -91 
Q 1294 -91 989 -36 
Q 684 19 347 128 
L 347 722 
Q 666 556 975 473 
Q 1284 391 1588 391 
Q 1994 391 2212 530 
Q 2431 669 2431 922 
Q 2431 1156 2273 1281 
Q 2116 1406 1581 1522 
L 1381 1569 
Q 847 1681 609 1914 
Q 372 2147 372 2553 
Q 372 3047 722 3315 
Q 1072 3584 1716 3584 
Q 2034 3584 2315 3537 
Q 2597 3491 2834 3397 
z
" transform="scale(0.015625)"/>
      <path id="DejaVuSans-72" d="M 2631 2963 
Q 2534 3019 2420 3045 
Q 2306 3072 2169 3072 
Q 1681 3072 1420 2755 
Q 1159 2438 1159 1844 
L 1159 0 
L 581 0 
L 581 3500 
L 1159 3500 
L 1159 2956 
Q 1341 3275 1631 3429 
Q 1922 3584 2338 3584 
Q 2397 3584 2469 3576 
Q 2541 3569 2628 3553 
L 2631 2963 
z
" transform="scale(0.015625)"/>
      <path id="DejaVuSans-20" transform="scale(0.015625)"/>
      <path id="DejaVuSans-2c" d="M 750 794 
L 1409 794 
L 1409 256 
L 897 -744 
L 494 -744 
L 750 256 
L 750 794 
z
" transform="scale(0.015625)"/>
      <path id="DejaVuSans-41" d="M 2188 4044 
L 1331 1722 
L 3047 1722 
L 2188 4044 
z
M 1831 4666 
L 2547 4666 
L 4325 0 
L 3669 0 
L 3244 1197 
L 1141 1197 
L 716 0 
L 50 0 
L 1831 4666 
z
" transform="scale(0.015625)"/>
      <path id="DejaVuSans-6f" d="M 1959 3097 
Q 1497 3097 1228 2736 
Q 959 2375 959 1747 
Q 959 1119 1226 758 
Q 1494 397 1959 397 
Q 2419 397 2687 759 
Q 2956 1122 2956 1747 
Q 2956 2369 2687 2733 
Q 2419 3097 1959 3097 
z
M 1959 3584 
Q 2709 3584 3137 3096 
Q 3566 2609 3566 1747 
Q 3566 888 3137 398 
Q 2709 -91 1959 -91 
Q 1206 -91 779 398 
Q 353 888 353 1747 
Q 353 2609 779 3096 
Q 1206 3584 1959 3584 
z
" transform="scale(0.015625)"/>
      <path id="DejaVuSans-6e" d="M 3513 2113 
L 3513 0 
L 2938 0 
L 2938 2094 
Q 2938 2591 2744 2837 
Q 2550 3084 2163 3084 
Q 1697 3084 1428 2787 
Q 1159 2491 1159 1978 
L 1159 0 
L 581 0 
L 581 3500 
L 1159 3500 
L 1159 2956 
Q 1366 3272 1645 3428 
Q 1925 3584 2291 3584 
Q 2894 3584 3203 3211 
Q 3513 2838 3513 2113 
z
" transform="scale(0.015625)"/>
     </defs>
     <use xlink:href="#DejaVuSans-55"/>
     <use xlink:href="#DejaVuSans-73" x="73.193359"/>
     <use xlink:href="#DejaVuSans-65" x="125.292969"/>
     <use xlink:href="#DejaVuSans-72" x="186.816406"/>
     <use xlink:href="#DejaVuSans-20" x="227.929688"/>
     <use xlink:href="#DejaVuSans-35" x="259.716797"/>
     <use xlink:href="#DejaVuSans-2c" x="323.339844"/>
     <use xlink:href="#DejaVuSans-20" x="355.126953"/>
     <use xlink:href="#DejaVuSans-41" x="386.914062"/>
     <use xlink:href="#DejaVuSans-63" x="453.572266"/>
     <use xlink:href="#DejaVuSans-74" x="508.552734"/>
     <use xlink:href="#DejaVuSans-69" x="547.761719"/>
     <use xlink:href="#DejaVuSans-6f" x="575.544922"/>
     <use xlink:href="#DejaVuSans-6e" x="636.726562"/>
     <use xlink:href="#DejaVuSans-20" x="700.105469"/>
     <use xlink:href="#DejaVuSans-31" x="731.892578"/>
    </g>
   </g>
   <g id="legend_1">
    <g id="patch_7">
     <path d="M 59.94 385.04 
L 118.591562 385.04 
Q 120.591562 385.04 120.591562 383.04 
L 120.591562 340.005625 
Q 120.591562 338.005625 118.591562 338.005625 
L 59.94 338.005625 
Q 57.94 338.005625 57.94 340.005625 
L 57.94 383.04 
Q 57.94 385.04 59.94 385.04 
z
" style="fill: #ffffff; opacity: 0.8; stroke: #cccccc; stroke-linejoin: miter"/>
    </g>
    <g id="line2d_18">
     <path d="M 61.94 346.104062 
L 71.94 346.104062 
L 81.94 346.104062 
" style="fill: none; stroke: #1f77b4; stroke-width: 1.5; stroke-linecap: square"/>
    </g>
    <g id="text_19">
     <!-- acc-x -->
     <g transform="translate(89.94 349.604062) scale(0.1 -0.1)">
      <defs>
       <path id="DejaVuSans-2d" d="M 313 2009 
L 1997 2009 
L 1997 1497 
L 313 1497 
L 313 2009 
z
" transform="scale(0.015625)"/>
       <path id="DejaVuSans-78" d="M 3513 3500 
L 2247 1797 
L 3578 0 
L 2900 0 
L 1881 1375 
L 863 0 
L 184 0 
L 1544 1831 
L 300 3500 
L 978 3500 
L 1906 2253 
L 2834 3500 
L 3513 3500 
z
" transform="scale(0.015625)"/>
      </defs>
      <use xlink:href="#DejaVuSans-61"/>
      <use xlink:href="#DejaVuSans-63" x="61.279297"/>
      <use xlink:href="#DejaVuSans-63" x="116.259766"/>
      <use xlink:href="#DejaVuSans-2d" x="171.240234"/>
      <use xlink:href="#DejaVuSans-78" x="207.324219"/>
     </g>
    </g>
    <g id="line2d_19">
     <path d="M 61.94 360.782187 
L 71.94 360.782187 
L 81.94 360.782187 
" style="fill: none; stroke: #ff7f0e; stroke-width: 1.5; stroke-linecap: square"/>
    </g>
    <g id="text_20">
     <!-- acc-y -->
     <g transform="translate(89.94 364.282187) scale(0.1 -0.1)">
      <defs>
       <path id="DejaVuSans-79" d="M 2059 -325 
Q 1816 -950 1584 -1140 
Q 1353 -1331 966 -1331 
L 506 -1331 
L 506 -850 
L 844 -850 
Q 1081 -850 1212 -737 
Q 1344 -625 1503 -206 
L 1606 56 
L 191 3500 
L 800 3500 
L 1894 763 
L 2988 3500 
L 3597 3500 
L 2059 -325 
z
" transform="scale(0.015625)"/>
      </defs>
      <use xlink:href="#DejaVuSans-61"/>
      <use xlink:href="#DejaVuSans-63" x="61.279297"/>
      <use xlink:href="#DejaVuSans-63" x="116.259766"/>
      <use xlink:href="#DejaVuSans-2d" x="171.240234"/>
      <use xlink:href="#DejaVuSans-79" x="205.574219"/>
     </g>
    </g>
    <g id="line2d_20">
     <path d="M 61.94 375.460312 
L 71.94 375.460312 
L 81.94 375.460312 
" style="fill: none; stroke: #2ca02c; stroke-width: 1.5; stroke-linecap: square"/>
    </g>
    <g id="text_21">
     <!-- acc-z -->
     <g transform="translate(89.94 378.960312) scale(0.1 -0.1)">
      <defs>
       <path id="DejaVuSans-7a" d="M 353 3500 
L 3084 3500 
L 3084 2975 
L 922 459 
L 3084 459 
L 3084 0 
L 275 0 
L 275 525 
L 2438 3041 
L 353 3041 
L 353 3500 
z
" transform="scale(0.015625)"/>
      </defs>
      <use xlink:href="#DejaVuSans-61"/>
      <use xlink:href="#DejaVuSans-63" x="61.279297"/>
      <use xlink:href="#DejaVuSans-63" x="116.259766"/>
      <use xlink:href="#DejaVuSans-2d" x="171.240234"/>
      <use xlink:href="#DejaVuSans-7a" x="207.324219"/>
     </g>
    </g>
   </g>
  </g>
 </g>
 <defs>
  <clipPath id="p8a06cb6a27">
   <rect x="52.94" y="26.88" width="1226.910024" height="363.16"/>
  </clipPath>
 </defs>
</svg>
