<?xml version="1.0" encoding="utf-8" standalone="no"?>
<!DOCTYPE svg PUBLIC "-//W3C//DTD SVG 1.1//EN"
  "http://www.w3.org/Graphics/SVG/1.1/DTD/svg11.dtd">
<svg xmlns:xlink="http://www.w3.org/1999/xlink" width="1296pt" height="432pt" viewBox="0 0 1296 432" xmlns="http://www.w3.org/2000/svg" version="1.1">
 <metadata>
  <rdf:RDF xmlns:dc="http://purl.org/dc/elements/1.1/" xmlns:cc="http://creativecommons.org/ns#" xmlns:rdf="http://www.w3.org/1999/02/22-rdf-syntax-ns#">
   <cc:Work>
    <dc:type rdf:resource="http://purl.org/dc/dcmitype/StillImage"/>
    <dc:date>2025-03-28T12:10:50.677072</dc:date>
    <dc:format>image/svg+xml</dc:format>
    <dc:creator>
     <cc:Agent>
      <dc:title>Matplotlib v3.7.5, https://matplotlib.org/</dc:title>
     </cc:Agent>
    </dc:creator>
   </cc:Work>
  </rdf:RDF>
 </metadata>
 <defs>
  <style type="text/css">*{stroke-linejoin: round; stroke-linecap: butt}</style>
 </defs>
 <g id="figure_1">
  <g id="patch_1">
   <path d="M 0 432 
L 1296 432 
L 1296 0 
L 0 0 
z
" style="fill: #ffffff"/>
  </g>
  <g id="axes_1">
   <g id="patch_2">
    <path d="M 52.94 390.04 
L 1285.2 390.04 
L 1285.2 26.88 
L 52.94 26.88 
z
" style="fill: #ffffff"/>
   </g>
   <g id="matplotlib.axis_1">
    <g id="xtick_1">
     <g id="line2d_1">
      <defs>
       <path id="m3868af65b6" d="M 0 0 
L 0 3.5 
" style="stroke: #000000; stroke-width: 0.8"/>
      </defs>
      <g>
       <use xlink:href="#m3868af65b6" x="105.031353" y="390.04" style="stroke: #000000; stroke-width: 0.8"/>
      </g>
     </g>
     <g id="text_1">
      <!-- 3.323 -->
      <g transform="translate(90.717291 404.638438) scale(0.1 -0.1)">
       <defs>
        <path id="DejaVuSans-33" d="M 2597 2516 
Q 3050 2419 3304 2112 
Q 3559 1806 3559 1356 
Q 3559 666 3084 287 
Q 2609 -91 1734 -91 
Q 1441 -91 1130 -33 
Q 819 25 488 141 
L 488 750 
Q 750 597 1062 519 
Q 1375 441 1716 441 
Q 2309 441 2620 675 
Q 2931 909 2931 1356 
Q 2931 1769 2642 2001 
Q 2353 2234 1838 2234 
L 1294 2234 
L 1294 2753 
L 1863 2753 
Q 2328 2753 2575 2939 
Q 2822 3125 2822 3475 
Q 2822 3834 2567 4026 
Q 2313 4219 1838 4219 
Q 1578 4219 1281 4162 
Q 984 4106 628 3988 
L 628 4550 
Q 988 4650 1302 4700 
Q 1616 4750 1894 4750 
Q 2613 4750 3031 4423 
Q 3450 4097 3450 3541 
Q 3450 3153 3228 2886 
Q 3006 2619 2597 2516 
z
" transform="scale(0.015625)"/>
        <path id="DejaVuSans-2e" d="M 684 794 
L 1344 794 
L 1344 0 
L 684 0 
L 684 794 
z
" transform="scale(0.015625)"/>
        <path id="DejaVuSans-32" d="M 1228 531 
L 3431 531 
L 3431 0 
L 469 0 
L 469 531 
Q 828 903 1448 1529 
Q 2069 2156 2228 2338 
Q 2531 2678 2651 2914 
Q 2772 3150 2772 3378 
Q 2772 3750 2511 3984 
Q 2250 4219 1831 4219 
Q 1534 4219 1204 4116 
Q 875 4013 500 3803 
L 500 4441 
Q 881 4594 1212 4672 
Q 1544 4750 1819 4750 
Q 2544 4750 2975 4387 
Q 3406 4025 3406 3419 
Q 3406 3131 3298 2873 
Q 3191 2616 2906 2266 
Q 2828 2175 2409 1742 
Q 1991 1309 1228 531 
z
" transform="scale(0.015625)"/>
       </defs>
       <use xlink:href="#DejaVuSans-33"/>
       <use xlink:href="#DejaVuSans-2e" x="63.623047"/>
       <use xlink:href="#DejaVuSans-33" x="95.410156"/>
       <use xlink:href="#DejaVuSans-32" x="159.033203"/>
       <use xlink:href="#DejaVuSans-33" x="222.65625"/>
      </g>
     </g>
    </g>
    <g id="xtick_2">
     <g id="line2d_2">
      <g>
       <use xlink:href="#m3868af65b6" x="281.168703" y="390.04" style="stroke: #000000; stroke-width: 0.8"/>
      </g>
     </g>
     <g id="text_2">
      <!-- 3.324 -->
      <g transform="translate(266.85464 404.638438) scale(0.1 -0.1)">
       <defs>
        <path id="DejaVuSans-34" d="M 2419 4116 
L 825 1625 
L 2419 1625 
L 2419 4116 
z
M 2253 4666 
L 3047 4666 
L 3047 1625 
L 3713 1625 
L 3713 1100 
L 3047 1100 
L 3047 0 
L 2419 0 
L 2419 1100 
L 313 1100 
L 313 1709 
L 2253 4666 
z
" transform="scale(0.015625)"/>
       </defs>
       <use xlink:href="#DejaVuSans-33"/>
       <use xlink:href="#DejaVuSans-2e" x="63.623047"/>
       <use xlink:href="#DejaVuSans-33" x="95.410156"/>
       <use xlink:href="#DejaVuSans-32" x="159.033203"/>
       <use xlink:href="#DejaVuSans-34" x="222.65625"/>
      </g>
     </g>
    </g>
    <g id="xtick_3">
     <g id="line2d_3">
      <g>
       <use xlink:href="#m3868af65b6" x="457.306053" y="390.04" style="stroke: #000000; stroke-width: 0.8"/>
      </g>
     </g>
     <g id="text_3">
      <!-- 3.325 -->
      <g transform="translate(442.99199 404.638438) scale(0.1 -0.1)">
       <defs>
        <path id="DejaVuSans-35" d="M 691 4666 
L 3169 4666 
L 3169 4134 
L 1269 4134 
L 1269 2991 
Q 1406 3038 1543 3061 
Q 1681 3084 1819 3084 
Q 2600 3084 3056 2656 
Q 3513 2228 3513 1497 
Q 3513 744 3044 326 
Q 2575 -91 1722 -91 
Q 1428 -91 1123 -41 
Q 819 9 494 109 
L 494 744 
Q 775 591 1075 516 
Q 1375 441 1709 441 
Q 2250 441 2565 725 
Q 2881 1009 2881 1497 
Q 2881 1984 2565 2268 
Q 2250 2553 1709 2553 
Q 1456 2553 1204 2497 
Q 953 2441 691 2322 
L 691 4666 
z
" transform="scale(0.015625)"/>
       </defs>
       <use xlink:href="#DejaVuSans-33"/>
       <use xlink:href="#DejaVuSans-2e" x="63.623047"/>
       <use xlink:href="#DejaVuSans-33" x="95.410156"/>
       <use xlink:href="#DejaVuSans-32" x="159.033203"/>
       <use xlink:href="#DejaVuSans-35" x="222.65625"/>
      </g>
     </g>
    </g>
    <g id="xtick_4">
     <g id="line2d_4">
      <g>
       <use xlink:href="#m3868af65b6" x="633.443403" y="390.04" style="stroke: #000000; stroke-width: 0.8"/>
      </g>
     </g>
     <g id="text_4">
      <!-- 3.326 -->
      <g transform="translate(619.12934 404.638438) scale(0.1 -0.1)">
       <defs>
        <path id="DejaVuSans-36" d="M 2113 2584 
Q 1688 2584 1439 2293 
Q 1191 2003 1191 1497 
Q 1191 994 1439 701 
Q 1688 409 2113 409 
Q 2538 409 2786 701 
Q 3034 994 3034 1497 
Q 3034 2003 2786 2293 
Q 2538 2584 2113 2584 
z
M 3366 4563 
L 3366 3988 
Q 3128 4100 2886 4159 
Q 2644 4219 2406 4219 
Q 1781 4219 1451 3797 
Q 1122 3375 1075 2522 
Q 1259 2794 1537 2939 
Q 1816 3084 2150 3084 
Q 2853 3084 3261 2657 
Q 3669 2231 3669 1497 
Q 3669 778 3244 343 
Q 2819 -91 2113 -91 
Q 1303 -91 875 529 
Q 447 1150 447 2328 
Q 447 3434 972 4092 
Q 1497 4750 2381 4750 
Q 2619 4750 2861 4703 
Q 3103 4656 3366 4563 
z
" transform="scale(0.015625)"/>
       </defs>
       <use xlink:href="#DejaVuSans-33"/>
       <use xlink:href="#DejaVuSans-2e" x="63.623047"/>
       <use xlink:href="#DejaVuSans-33" x="95.410156"/>
       <use xlink:href="#DejaVuSans-32" x="159.033203"/>
       <use xlink:href="#DejaVuSans-36" x="222.65625"/>
      </g>
     </g>
    </g>
    <g id="xtick_5">
     <g id="line2d_5">
      <g>
       <use xlink:href="#m3868af65b6" x="809.580753" y="390.04" style="stroke: #000000; stroke-width: 0.8"/>
      </g>
     </g>
     <g id="text_5">
      <!-- 3.327 -->
      <g transform="translate(795.26669 404.638438) scale(0.1 -0.1)">
       <defs>
        <path id="DejaVuSans-37" d="M 525 4666 
L 3525 4666 
L 3525 4397 
L 1831 0 
L 1172 0 
L 2766 4134 
L 525 4134 
L 525 4666 
z
" transform="scale(0.015625)"/>
       </defs>
       <use xlink:href="#DejaVuSans-33"/>
       <use xlink:href="#DejaVuSans-2e" x="63.623047"/>
       <use xlink:href="#DejaVuSans-33" x="95.410156"/>
       <use xlink:href="#DejaVuSans-32" x="159.033203"/>
       <use xlink:href="#DejaVuSans-37" x="222.65625"/>
      </g>
     </g>
    </g>
    <g id="xtick_6">
     <g id="line2d_6">
      <g>
       <use xlink:href="#m3868af65b6" x="985.718103" y="390.04" style="stroke: #000000; stroke-width: 0.8"/>
      </g>
     </g>
     <g id="text_6">
      <!-- 3.328 -->
      <g transform="translate(971.40404 404.638438) scale(0.1 -0.1)">
       <defs>
        <path id="DejaVuSans-38" d="M 2034 2216 
Q 1584 2216 1326 1975 
Q 1069 1734 1069 1313 
Q 1069 891 1326 650 
Q 1584 409 2034 409 
Q 2484 409 2743 651 
Q 3003 894 3003 1313 
Q 3003 1734 2745 1975 
Q 2488 2216 2034 2216 
z
M 1403 2484 
Q 997 2584 770 2862 
Q 544 3141 544 3541 
Q 544 4100 942 4425 
Q 1341 4750 2034 4750 
Q 2731 4750 3128 4425 
Q 3525 4100 3525 3541 
Q 3525 3141 3298 2862 
Q 3072 2584 2669 2484 
Q 3125 2378 3379 2068 
Q 3634 1759 3634 1313 
Q 3634 634 3220 271 
Q 2806 -91 2034 -91 
Q 1263 -91 848 271 
Q 434 634 434 1313 
Q 434 1759 690 2068 
Q 947 2378 1403 2484 
z
M 1172 3481 
Q 1172 3119 1398 2916 
Q 1625 2713 2034 2713 
Q 2441 2713 2670 2916 
Q 2900 3119 2900 3481 
Q 2900 3844 2670 4047 
Q 2441 4250 2034 4250 
Q 1625 4250 1398 4047 
Q 1172 3844 1172 3481 
z
" transform="scale(0.015625)"/>
       </defs>
       <use xlink:href="#DejaVuSans-33"/>
       <use xlink:href="#DejaVuSans-2e" x="63.623047"/>
       <use xlink:href="#DejaVuSans-33" x="95.410156"/>
       <use xlink:href="#DejaVuSans-32" x="159.033203"/>
       <use xlink:href="#DejaVuSans-38" x="222.65625"/>
      </g>
     </g>
    </g>
    <g id="xtick_7">
     <g id="line2d_7">
      <g>
       <use xlink:href="#m3868af65b6" x="1161.855453" y="390.04" style="stroke: #000000; stroke-width: 0.8"/>
      </g>
     </g>
     <g id="text_7">
      <!-- 3.329 -->
      <g transform="translate(1147.54139 404.638438) scale(0.1 -0.1)">
       <defs>
        <path id="DejaVuSans-39" d="M 703 97 
L 703 672 
Q 941 559 1184 500 
Q 1428 441 1663 441 
Q 2288 441 2617 861 
Q 2947 1281 2994 2138 
Q 2813 1869 2534 1725 
Q 2256 1581 1919 1581 
Q 1219 1581 811 2004 
Q 403 2428 403 3163 
Q 403 3881 828 4315 
Q 1253 4750 1959 4750 
Q 2769 4750 3195 4129 
Q 3622 3509 3622 2328 
Q 3622 1225 3098 567 
Q 2575 -91 1691 -91 
Q 1453 -91 1209 -44 
Q 966 3 703 97 
z
M 1959 2075 
Q 2384 2075 2632 2365 
Q 2881 2656 2881 3163 
Q 2881 3666 2632 3958 
Q 2384 4250 1959 4250 
Q 1534 4250 1286 3958 
Q 1038 3666 1038 3163 
Q 1038 2656 1286 2365 
Q 1534 2075 1959 2075 
z
" transform="scale(0.015625)"/>
       </defs>
       <use xlink:href="#DejaVuSans-33"/>
       <use xlink:href="#DejaVuSans-2e" x="63.623047"/>
       <use xlink:href="#DejaVuSans-33" x="95.410156"/>
       <use xlink:href="#DejaVuSans-32" x="159.033203"/>
       <use xlink:href="#DejaVuSans-39" x="222.65625"/>
      </g>
     </g>
    </g>
    <g id="text_8">
     <!-- time -->
     <g transform="translate(657.773906 418.316562) scale(0.1 -0.1)">
      <defs>
       <path id="DejaVuSans-74" d="M 1172 4494 
L 1172 3500 
L 2356 3500 
L 2356 3053 
L 1172 3053 
L 1172 1153 
Q 1172 725 1289 603 
Q 1406 481 1766 481 
L 2356 481 
L 2356 0 
L 1766 0 
Q 1100 0 847 248 
Q 594 497 594 1153 
L 594 3053 
L 172 3053 
L 172 3500 
L 594 3500 
L 594 4494 
L 1172 4494 
z
" transform="scale(0.015625)"/>
       <path id="DejaVuSans-69" d="M 603 3500 
L 1178 3500 
L 1178 0 
L 603 0 
L 603 3500 
z
M 603 4863 
L 1178 4863 
L 1178 4134 
L 603 4134 
L 603 4863 
z
" transform="scale(0.015625)"/>
       <path id="DejaVuSans-6d" d="M 3328 2828 
Q 3544 3216 3844 3400 
Q 4144 3584 4550 3584 
Q 5097 3584 5394 3201 
Q 5691 2819 5691 2113 
L 5691 0 
L 5113 0 
L 5113 2094 
Q 5113 2597 4934 2840 
Q 4756 3084 4391 3084 
Q 3944 3084 3684 2787 
Q 3425 2491 3425 1978 
L 3425 0 
L 2847 0 
L 2847 2094 
Q 2847 2600 2669 2842 
Q 2491 3084 2119 3084 
Q 1678 3084 1418 2786 
Q 1159 2488 1159 1978 
L 1159 0 
L 581 0 
L 581 3500 
L 1159 3500 
L 1159 2956 
Q 1356 3278 1631 3431 
Q 1906 3584 2284 3584 
Q 2666 3584 2933 3390 
Q 3200 3197 3328 2828 
z
" transform="scale(0.015625)"/>
       <path id="DejaVuSans-65" d="M 3597 1894 
L 3597 1613 
L 953 1613 
Q 991 1019 1311 708 
Q 1631 397 2203 397 
Q 2534 397 2845 478 
Q 3156 559 3463 722 
L 3463 178 
Q 3153 47 2828 -22 
Q 2503 -91 2169 -91 
Q 1331 -91 842 396 
Q 353 884 353 1716 
Q 353 2575 817 3079 
Q 1281 3584 2069 3584 
Q 2775 3584 3186 3129 
Q 3597 2675 3597 1894 
z
M 3022 2063 
Q 3016 2534 2758 2815 
Q 2500 3097 2075 3097 
Q 1594 3097 1305 2825 
Q 1016 2553 972 2059 
L 3022 2063 
z
" transform="scale(0.015625)"/>
      </defs>
      <use xlink:href="#DejaVuSans-74"/>
      <use xlink:href="#DejaVuSans-69" x="39.208984"/>
      <use xlink:href="#DejaVuSans-6d" x="66.992188"/>
      <use xlink:href="#DejaVuSans-65" x="164.404297"/>
     </g>
    </g>
    <g id="text_9">
     <!-- 1e12 -->
     <g transform="translate(1259.959375 417.316562) scale(0.1 -0.1)">
      <defs>
       <path id="DejaVuSans-31" d="M 794 531 
L 1825 531 
L 1825 4091 
L 703 3866 
L 703 4441 
L 1819 4666 
L 2450 4666 
L 2450 531 
L 3481 531 
L 3481 0 
L 794 0 
L 794 531 
z
" transform="scale(0.015625)"/>
      </defs>
      <use xlink:href="#DejaVuSans-31"/>
      <use xlink:href="#DejaVuSans-65" x="63.623047"/>
      <use xlink:href="#DejaVuSans-31" x="125.146484"/>
      <use xlink:href="#DejaVuSans-32" x="188.769531"/>
     </g>
    </g>
   </g>
   <g id="matplotlib.axis_2">
    <g id="ytick_1">
     <g id="line2d_8">
      <defs>
       <path id="m155f55948e" d="M 0 0 
L -3.5 0 
" style="stroke: #000000; stroke-width: 0.8"/>
      </defs>
      <g>
       <use xlink:href="#m155f55948e" x="52.94" y="386.842157" style="stroke: #000000; stroke-width: 0.8"/>
      </g>
     </g>
     <g id="text_10">
      <!-- −10 -->
      <g transform="translate(24.835312 390.641376) scale(0.1 -0.1)">
       <defs>
        <path id="DejaVuSans-2212" d="M 678 2272 
L 4684 2272 
L 4684 1741 
L 678 1741 
L 678 2272 
z
" transform="scale(0.015625)"/>
        <path id="DejaVuSans-30" d="M 2034 4250 
Q 1547 4250 1301 3770 
Q 1056 3291 1056 2328 
Q 1056 1369 1301 889 
Q 1547 409 2034 409 
Q 2525 409 2770 889 
Q 3016 1369 3016 2328 
Q 3016 3291 2770 3770 
Q 2525 4250 2034 4250 
z
M 2034 4750 
Q 2819 4750 3233 4129 
Q 3647 3509 3647 2328 
Q 3647 1150 3233 529 
Q 2819 -91 2034 -91 
Q 1250 -91 836 529 
Q 422 1150 422 2328 
Q 422 3509 836 4129 
Q 1250 4750 2034 4750 
z
" transform="scale(0.015625)"/>
       </defs>
       <use xlink:href="#DejaVuSans-2212"/>
       <use xlink:href="#DejaVuSans-31" x="83.789062"/>
       <use xlink:href="#DejaVuSans-30" x="147.412109"/>
      </g>
     </g>
    </g>
    <g id="ytick_2">
     <g id="line2d_9">
      <g>
       <use xlink:href="#m155f55948e" x="52.94" y="327.400329" style="stroke: #000000; stroke-width: 0.8"/>
      </g>
     </g>
     <g id="text_11">
      <!-- −5 -->
      <g transform="translate(31.197812 331.199547) scale(0.1 -0.1)">
       <use xlink:href="#DejaVuSans-2212"/>
       <use xlink:href="#DejaVuSans-35" x="83.789062"/>
      </g>
     </g>
    </g>
    <g id="ytick_3">
     <g id="line2d_10">
      <g>
       <use xlink:href="#m155f55948e" x="52.94" y="267.9585" style="stroke: #000000; stroke-width: 0.8"/>
      </g>
     </g>
     <g id="text_12">
      <!-- 0 -->
      <g transform="translate(39.5775 271.757719) scale(0.1 -0.1)">
       <use xlink:href="#DejaVuSans-30"/>
      </g>
     </g>
    </g>
    <g id="ytick_4">
     <g id="line2d_11">
      <g>
       <use xlink:href="#m155f55948e" x="52.94" y="208.516672" style="stroke: #000000; stroke-width: 0.8"/>
      </g>
     </g>
     <g id="text_13">
      <!-- 5 -->
      <g transform="translate(39.5775 212.315891) scale(0.1 -0.1)">
       <use xlink:href="#DejaVuSans-35"/>
      </g>
     </g>
    </g>
    <g id="ytick_5">
     <g id="line2d_12">
      <g>
       <use xlink:href="#m155f55948e" x="52.94" y="149.074844" style="stroke: #000000; stroke-width: 0.8"/>
      </g>
     </g>
     <g id="text_14">
      <!-- 10 -->
      <g transform="translate(33.215 152.874062) scale(0.1 -0.1)">
       <use xlink:href="#DejaVuSans-31"/>
       <use xlink:href="#DejaVuSans-30" x="63.623047"/>
      </g>
     </g>
    </g>
    <g id="ytick_6">
     <g id="line2d_13">
      <g>
       <use xlink:href="#m155f55948e" x="52.94" y="89.633015" style="stroke: #000000; stroke-width: 0.8"/>
      </g>
     </g>
     <g id="text_15">
      <!-- 15 -->
      <g transform="translate(33.215 93.432234) scale(0.1 -0.1)">
       <use xlink:href="#DejaVuSans-31"/>
       <use xlink:href="#DejaVuSans-35" x="63.623047"/>
      </g>
     </g>
    </g>
    <g id="ytick_7">
     <g id="line2d_14">
      <g>
       <use xlink:href="#m155f55948e" x="52.94" y="30.191187" style="stroke: #000000; stroke-width: 0.8"/>
      </g>
     </g>
     <g id="text_16">
      <!-- 20 -->
      <g transform="translate(33.215 33.990406) scale(0.1 -0.1)">
       <use xlink:href="#DejaVuSans-32"/>
       <use xlink:href="#DejaVuSans-30" x="63.623047"/>
      </g>
     </g>
    </g>
    <g id="text_17">
     <!-- acc -->
     <g transform="translate(18.755625 217.0225) rotate(-90) scale(0.1 -0.1)">
      <defs>
       <path id="DejaVuSans-61" d="M 2194 1759 
Q 1497 1759 1228 1600 
Q 959 1441 959 1056 
Q 959 750 1161 570 
Q 1363 391 1709 391 
Q 2188 391 2477 730 
Q 2766 1069 2766 1631 
L 2766 1759 
L 2194 1759 
z
M 3341 1997 
L 3341 0 
L 2766 0 
L 2766 531 
Q 2569 213 2275 61 
Q 1981 -91 1556 -91 
Q 1019 -91 701 211 
Q 384 513 384 1019 
Q 384 1609 779 1909 
Q 1175 2209 1959 2209 
L 2766 2209 
L 2766 2266 
Q 2766 2663 2505 2880 
Q 2244 3097 1772 3097 
Q 1472 3097 1187 3025 
Q 903 2953 641 2809 
L 641 3341 
Q 956 3463 1253 3523 
Q 1550 3584 1831 3584 
Q 2591 3584 2966 3190 
Q 3341 2797 3341 1997 
z
" transform="scale(0.015625)"/>
       <path id="DejaVuSans-63" d="M 3122 3366 
L 3122 2828 
Q 2878 2963 2633 3030 
Q 2388 3097 2138 3097 
Q 1578 3097 1268 2742 
Q 959 2388 959 1747 
Q 959 1106 1268 751 
Q 1578 397 2138 397 
Q 2388 397 2633 464 
Q 2878 531 3122 666 
L 3122 134 
Q 2881 22 2623 -34 
Q 2366 -91 2075 -91 
Q 1284 -91 818 406 
Q 353 903 353 1747 
Q 353 2603 823 3093 
Q 1294 3584 2113 3584 
Q 2378 3584 2631 3529 
Q 2884 3475 3122 3366 
z
" transform="scale(0.015625)"/>
      </defs>
      <use xlink:href="#DejaVuSans-61"/>
      <use xlink:href="#DejaVuSans-63" x="61.279297"/>
      <use xlink:href="#DejaVuSans-63" x="116.259766"/>
     </g>
    </g>
   </g>
   <g id="line2d_15">
    <path d="M 108.951818 237.880935 
L 117.767316 292.091882 
L 126.56661 298.868251 
L 135.382108 247.034977 
L 144.181402 258.923342 
L 152.99144 290.308628 
L 161.796194 280.797935 
L 170.606408 267.9585 
L 179.410985 220.523921 
L 188.2212 215.174157 
L 197.020493 264.273107 
L 205.835991 334.057813 
L 214.635285 311.232151 
L 223.450783 281.27347 
L 232.352236 259.398877 
L 241.060115 301.602575 
L 249.864869 334.057813 
L 258.680367 263.440921 
L 267.47966 227.775824 
L 276.295159 328.945816 
L 285.089168 227.419173 
L 293.904666 269.26622 
L 302.70396 299.81932 
L 311.519458 253.930229 
L 320.318752 261.657666 
L 329.12879 273.902683 
L 337.933544 298.868251 
L 346.743758 284.839979 
L 355.548335 227.419173 
L 364.358549 196.390539 
L 373.157843 255.5946 
L 381.973341 300.651506 
L 390.772635 340.358647 
L 399.582673 267.9585 
L 408.387427 259.755528 
L 417.197465 286.623234 
L 426.002218 326.211492 
L 434.806972 281.511237 
L 443.622471 203.404675 
L 452.427224 302.553644 
L 461.226518 271.52501 
L 470.042016 273.427148 
L 478.84131 268.909569 
L 487.656808 255.119065 
L 496.456102 269.741755 
L 505.26614 263.440921 
L 514.070893 288.525373 
L 522.881108 311.232151 
L 531.685685 252.384741 
L 540.495899 227.775824 
L 549.295193 186.523195 
L 558.115975 300.294855 
L 566.904701 339.050927 
L 575.725483 346.778365 
L 584.524777 270.21729 
L 593.334815 262.014317 
L 602.139568 307.665642 
L 610.949783 314.44201 
L 619.75436 242.874049 
L 628.569858 304.931317 
L 637.363868 333.582279 
L 646.173906 272.000544 
L 654.97866 248.818231 
L 663.804902 269.26622 
L 672.593452 275.685938 
L 681.398205 266.175245 
L 690.208243 276.161472 
L 699.018457 293.399603 
L 707.823035 242.398514 
L 716.633249 197.817143 
L 725.432543 251.552556 
L 734.248041 265.224176 
L 743.047335 335.841068 
L 751.862833 341.309716 
L 760.667587 266.175245 
L 769.46688 262.489852 
L 778.276918 306.120154 
L 787.081672 337.148788 
L 795.89171 254.643531 
L 804.707208 281.511237 
L 813.501218 345.827295 
L 822.316716 242.398514 
L 831.11601 320.267309 
L 839.931508 280.3224 
L 848.730801 258.923342 
L 857.5463 247.867162 
L 866.351054 289.833093 
L 875.155807 307.665642 
L 883.960385 250.125952 
L 892.770599 215.649691 
L 901.569893 245.132838 
L 910.385391 308.497827 
L 919.184685 361.757705 
L 928.000183 308.497827 
L 936.815681 241.566328 
L 945.631179 273.427148 
L 954.425013 313.966475 
L 963.229766 348.086085 
L 973.781451 247.391628 
L 982.591489 347.135016 
L 991.406987 280.797935 
L 1000.20628 275.685938 
L 1009.016494 274.259334 
L 1017.815788 263.916456 
L 1026.631286 269.741755 
L 1035.425296 273.427148 
L 1044.246078 296.609461 
L 1053.045372 277.944727 
L 1061.86633 219.691736 
L 1070.660163 206.971184 
L 1079.470378 253.930229 
L 1088.269671 323.001633 
L 1097.090454 347.61055 
L 1105.884463 276.161472 
L 1114.705245 270.692824 
L 1123.483226 289.833093 
L 1132.314753 319.435124 
L 1141.124791 307.190107 
L 1149.9188 237.524284 
L 1158.745043 332.512326 
L 1167.528308 286.1477 
L 1176.354551 271.168359 
L 1185.1431 303.38583 
L 1193.963882 275.685938 
L 1202.763176 273.902683 
L 1211.57339 257.377855 
L 1220.377968 275.685938 
L 1229.188182 290.308628 
L 1229.188182 290.308628 
" clip-path="url(#p9a71b1e466)" style="fill: none; stroke: #1f77b4; stroke-width: 1.5; stroke-linecap: square"/>
   </g>
   <g id="line2d_16">
    <path d="M 108.951818 156.44563 
L 117.767316 211.013229 
L 126.56661 118.521744 
L 135.382108 184.026639 
L 144.181402 183.788871 
L 152.99144 152.641353 
L 161.796194 137.780896 
L 170.606408 125.773647 
L 179.410985 94.388361 
L 188.2212 73.940372 
L 197.020493 80.241206 
L 205.835991 61.219821 
L 214.635285 175.467015 
L 223.450783 183.788871 
L 232.352236 215.174157 
L 241.060115 242.874049 
L 249.864869 237.524284 
L 258.680367 109.486586 
L 267.47966 184.026639 
L 276.295159 128.507971 
L 285.089168 125.416996 
L 293.904666 208.635555 
L 302.70396 123.514857 
L 311.519458 186.879846 
L 320.318752 169.166181 
L 329.12879 175.467015 
L 337.933544 138.137547 
L 346.743758 135.046572 
L 355.548335 121.256068 
L 364.358549 46.121597 
L 373.157843 90.346317 
L 381.973341 59.436566 
L 390.772635 141.347406 
L 399.582673 179.984594 
L 408.387427 206.971184 
L 417.197465 236.09768 
L 426.002218 237.880935 
L 434.806972 170.473902 
L 443.622471 75.248093 
L 452.427224 203.404675 
L 461.226518 73.940372 
L 470.042016 208.397788 
L 478.84131 144.557265 
L 487.656808 165.480788 
L 496.456102 163.697533 
L 505.26614 174.515946 
L 514.070893 154.900143 
L 522.881108 152.641353 
L 531.685685 128.983506 
L 540.495899 72.989303 
L 549.295193 67.99619 
L 558.115975 54.324569 
L 566.904701 98.073755 
L 575.725483 194.607284 
L 584.524777 197.341608 
L 593.334815 230.272381 
L 602.139568 261.657666 
L 610.949783 232.055636 
L 619.75436 43.387273 
L 628.569858 236.09768 
L 637.363868 64.42968 
L 646.173906 216.957411 
L 654.97866 154.067957 
L 663.804902 141.347406 
L 672.593452 189.138636 
L 681.398205 178.795758 
L 690.208243 139.088616 
L 699.018457 140.396337 
L 707.823035 127.675785 
L 716.633249 62.17089 
L 725.432543 79.05237 
L 734.248041 68.471724 
L 743.047335 82.024461 
L 751.862833 181.054547 
L 760.667587 193.299564 
L 769.46688 213.747553 
L 778.276918 252.860276 
L 787.081672 247.391628 
L 795.89171 48.380386 
L 804.707208 220.16727 
L 813.501218 69.898328 
L 822.316716 214.698622 
L 831.11601 160.01214 
L 839.931508 142.77401 
L 848.730801 185.572126 
L 857.5463 177.725805 
L 866.351054 145.864985 
L 875.155807 142.298475 
L 883.960385 120.899417 
L 892.770599 61.219821 
L 901.569893 77.982417 
L 910.385391 58.961032 
L 919.184685 97.59822 
L 928.000183 184.621057 
L 936.815681 185.572126 
L 945.631179 233.838891 
L 954.425013 258.447808 
L 963.229766 239.307539 
L 973.781451 69.422794 
L 982.591489 142.77401 
L 991.406987 150.025913 
L 1000.20628 215.649691 
L 1009.016494 97.122686 
L 1017.815788 187.355381 
L 1026.631286 181.767849 
L 1035.425296 160.01214 
L 1053.045372 131.836713 
L 1061.86633 109.486586 
L 1070.660163 60.268752 
L 1079.470378 99.85701 
L 1088.269671 47.548201 
L 1097.090454 132.312248 
L 1105.884463 186.523195 
L 1114.705245 202.334722 
L 1123.483226 238.832004 
L 1132.314753 256.664553 
L 1141.124791 155.851212 
L 1149.9188 94.388361 
L 1158.745043 179.50906 
L 1167.528308 92.605107 
L 1176.354551 207.922254 
L 1185.1431 135.046572 
L 1193.963882 177.725805 
L 1202.763176 176.774736 
L 1211.57339 160.487675 
L 1220.377968 133.02555 
L 1229.188182 147.64824 
L 1229.188182 147.64824 
" clip-path="url(#p9a71b1e466)" style="fill: none; stroke: #ff7f0e; stroke-width: 1.5; stroke-linecap: square"/>
   </g>
   <g id="line2d_17">
    <path d="M 108.951818 280.2647 
L 117.767316 302.124395 
L 126.56661 287.551265 
L 135.382108 280.750471 
L 144.181402 289.332425 
L 152.99144 280.2647 
L 161.796194 258.405004 
L 170.606408 231.525673 
L 179.410985 309.896732 
L 188.2212 150.078067 
L 197.020493 300.343236 
L 205.835991 340.338383 
L 214.635285 241.564942 
L 223.450783 299.371695 
L 232.352236 303.419783 
L 241.060115 310.382502 
L 249.864869 300.343236 
L 258.680367 151.85923 
L 267.47966 261.967324 
L 276.295159 315.240214 
L 285.089168 246.098805 
L 293.904666 308.92519 
L 302.70396 298.885922 
L 311.519458 274.273523 
L 320.318752 288.522806 
L 329.12879 280.750471 
L 337.933544 286.579723 
L 346.743758 216.952542 
L 355.548335 300.667083 
L 364.358549 216.46677 
L 373.157843 254.356912 
L 381.973341 311.192123 
L 390.772635 281.236241 
L 399.582673 309.896732 
L 408.387427 293.380517 
L 417.197465 314.430594 
L 426.002218 323.012547 
L 434.806972 187.320512 
L 443.622471 201.893643 
L 452.427224 340.338383 
L 461.226518 210.637517 
L 470.042016 316.69753 
L 478.84131 312.649435 
L 487.656808 278.807386 
L 496.456102 272.492363 
L 505.26614 281.560089 
L 514.070893 283.503173 
L 522.881108 235.573765 
L 531.685685 278.807386 
L 540.495899 282.531631 
L 549.295193 143.601119 
L 558.115975 322.202932 
L 566.904701 322.202932 
L 575.725483 263.424637 
L 584.524777 304.391328 
L 593.334815 309.896732 
L 602.139568 323.498317 
L 610.949783 283.827019 
L 619.75436 153.15461 
L 628.569858 288.037036 
L 637.363868 211.932909 
L 646.173906 373.532727 
L 654.97866 278.807386 
L 663.804902 299.857464 
L 672.593452 283.503173 
L 681.398205 285.284333 
L 690.208243 272.978134 
L 699.018457 215.657157 
L 707.823035 306.658257 
L 716.633249 291.113585 
L 725.432543 163.679653 
L 734.248041 286.579723 
L 743.047335 330.784887 
L 751.862833 271.196974 
L 760.667587 311.677891 
L 769.46688 298.40015 
L 778.276918 322.526781 
L 787.081672 298.885922 
L 795.89171 102.634429 
L 804.707208 269.25389 
L 813.501218 256.94769 
L 822.316716 349.082263 
L 831.11601 298.40015 
L 839.931508 285.284333 
L 848.730801 281.236241 
L 857.5463 284.798563 
L 866.351054 276.216607 
L 875.155807 195.092845 
L 883.960385 300.667083 
L 892.770599 300.343236 
L 901.569893 121.255652 
L 910.385391 298.885922 
L 919.184685 329.813346 
L 928.000183 263.910408 
L 936.815681 304.391328 
L 945.631179 314.916366 
L 954.425013 339.528763 
L 963.229766 261.967324 
L 973.781451 215.171387 
L 982.591489 295.809372 
L 991.406987 292.5709 
L 1000.20628 334.509131 
L 1009.016494 294.83783 
L 1017.815788 283.503173 
L 1026.631286 281.236241 
L 1035.425296 268.930042 
L 1044.246078 248.365735 
L 1053.045372 255.16653 
L 1061.86633 305.362869 
L 1070.660163 189.101668 
L 1079.470378 234.764148 
L 1088.269671 317.992914 
L 1097.090454 285.770104 
L 1105.884463 296.618991 
L 1114.705245 290.789738 
L 1123.483226 311.192123 
L 1132.314753 329.489495 
L 1141.124791 172.261615 
L 1149.9188 222.94372 
L 1158.745043 310.70635 
L 1167.528308 230.230284 
L 1176.354551 323.984091 
L 1185.1431 303.419783 
L 1193.963882 288.037036 
L 1202.763176 280.2647 
L 1211.57339 269.739661 
L 1220.377968 272.978134 
L 1229.188182 224.724877 
L 1229.188182 224.724877 
" clip-path="url(#p9a71b1e466)" style="fill: none; stroke: #2ca02c; stroke-width: 1.5; stroke-linecap: square"/>
   </g>
   <g id="patch_3">
    <path d="M 52.94 390.04 
L 52.94 26.88 
" style="fill: none; stroke: #000000; stroke-width: 0.8; stroke-linejoin: miter; stroke-linecap: square"/>
   </g>
   <g id="patch_4">
    <path d="M 1285.2 390.04 
L 1285.2 26.88 
" style="fill: none; stroke: #000000; stroke-width: 0.8; stroke-linejoin: miter; stroke-linecap: square"/>
   </g>
   <g id="patch_5">
    <path d="M 52.94 390.04 
L 1285.2 390.04 
" style="fill: none; stroke: #000000; stroke-width: 0.8; stroke-linejoin: miter; stroke-linecap: square"/>
   </g>
   <g id="patch_6">
    <path d="M 52.94 26.88 
L 1285.2 26.88 
" style="fill: none; stroke: #000000; stroke-width: 0.8; stroke-linejoin: miter; stroke-linecap: square"/>
   </g>
   <g id="text_18">
    <!-- User 6, Action 0 -->
    <g transform="translate(621.340937 20.88) scale(0.12 -0.12)">
     <defs>
      <path id="DejaVuSans-55" d="M 556 4666 
L 1191 4666 
L 1191 1831 
Q 1191 1081 1462 751 
Q 1734 422 2344 422 
Q 2950 422 3222 751 
Q 3494 1081 3494 1831 
L 3494 4666 
L 4128 4666 
L 4128 1753 
Q 4128 841 3676 375 
Q 3225 -91 2344 -91 
Q 1459 -91 1007 375 
Q 556 841 556 1753 
L 556 4666 
z
" transform="scale(0.015625)"/>
      <path id="DejaVuSans-73" d="M 2834 3397 
L 2834 2853 
Q 2591 2978 2328 3040 
Q 2066 3103 1784 3103 
Q 1356 3103 1142 2972 
Q 928 2841 928 2578 
Q 928 2378 1081 2264 
Q 1234 2150 1697 2047 
L 1894 2003 
Q 2506 1872 2764 1633 
Q 3022 1394 3022 966 
Q 3022 478 2636 193 
Q 2250 -91 1575 -91 
Q 1294 -91 989 -36 
Q 684 19 347 128 
L 347 722 
Q 666 556 975 473 
Q 1284 391 1588 391 
Q 1994 391 2212 530 
Q 2431 669 2431 922 
Q 2431 1156 2273 1281 
Q 2116 1406 1581 1522 
L 1381 1569 
Q 847 1681 609 1914 
Q 372 2147 372 2553 
Q 372 3047 722 3315 
Q 1072 3584 1716 3584 
Q 2034 3584 2315 3537 
Q 2597 3491 2834 3397 
z
" transform="scale(0.015625)"/>
      <path id="DejaVuSans-72" d="M 2631 2963 
Q 2534 3019 2420 3045 
Q 2306 3072 2169 3072 
Q 1681 3072 1420 2755 
Q 1159 2438 1159 1844 
L 1159 0 
L 581 0 
L 581 3500 
L 1159 3500 
L 1159 2956 
Q 1341 3275 1631 3429 
Q 1922 3584 2338 3584 
Q 2397 3584 2469 3576 
Q 2541 3569 2628 3553 
L 2631 2963 
z
" transform="scale(0.015625)"/>
      <path id="DejaVuSans-20" transform="scale(0.015625)"/>
      <path id="DejaVuSans-2c" d="M 750 794 
L 1409 794 
L 1409 256 
L 897 -744 
L 494 -744 
L 750 256 
L 750 794 
z
" transform="scale(0.015625)"/>
      <path id="DejaVuSans-41" d="M 2188 4044 
L 1331 1722 
L 3047 1722 
L 2188 4044 
z
M 1831 4666 
L 2547 4666 
L 4325 0 
L 3669 0 
L 3244 1197 
L 1141 1197 
L 716 0 
L 50 0 
L 1831 4666 
z
" transform="scale(0.015625)"/>
      <path id="DejaVuSans-6f" d="M 1959 3097 
Q 1497 3097 1228 2736 
Q 959 2375 959 1747 
Q 959 1119 1226 758 
Q 1494 397 1959 397 
Q 2419 397 2687 759 
Q 2956 1122 2956 1747 
Q 2956 2369 2687 2733 
Q 2419 3097 1959 3097 
z
M 1959 3584 
Q 2709 3584 3137 3096 
Q 3566 2609 3566 1747 
Q 3566 888 3137 398 
Q 2709 -91 1959 -91 
Q 1206 -91 779 398 
Q 353 888 353 1747 
Q 353 2609 779 3096 
Q 1206 3584 1959 3584 
z
" transform="scale(0.015625)"/>
      <path id="DejaVuSans-6e" d="M 3513 2113 
L 3513 0 
L 2938 0 
L 2938 2094 
Q 2938 2591 2744 2837 
Q 2550 3084 2163 3084 
Q 1697 3084 1428 2787 
Q 1159 2491 1159 1978 
L 1159 0 
L 581 0 
L 581 3500 
L 1159 3500 
L 1159 2956 
Q 1366 3272 1645 3428 
Q 1925 3584 2291 3584 
Q 2894 3584 3203 3211 
Q 3513 2838 3513 2113 
z
" transform="scale(0.015625)"/>
     </defs>
     <use xlink:href="#DejaVuSans-55"/>
     <use xlink:href="#DejaVuSans-73" x="73.193359"/>
     <use xlink:href="#DejaVuSans-65" x="125.292969"/>
     <use xlink:href="#DejaVuSans-72" x="186.816406"/>
     <use xlink:href="#DejaVuSans-20" x="227.929688"/>
     <use xlink:href="#DejaVuSans-36" x="259.716797"/>
     <use xlink:href="#DejaVuSans-2c" x="323.339844"/>
     <use xlink:href="#DejaVuSans-20" x="355.126953"/>
     <use xlink:href="#DejaVuSans-41" x="386.914062"/>
     <use xlink:href="#DejaVuSans-63" x="453.572266"/>
     <use xlink:href="#DejaVuSans-74" x="508.552734"/>
     <use xlink:href="#DejaVuSans-69" x="547.761719"/>
     <use xlink:href="#DejaVuSans-6f" x="575.544922"/>
     <use xlink:href="#DejaVuSans-6e" x="636.726562"/>
     <use xlink:href="#DejaVuSans-20" x="700.105469"/>
     <use xlink:href="#DejaVuSans-30" x="731.892578"/>
    </g>
   </g>
   <g id="legend_1">
    <g id="patch_7">
     <path d="M 1219.548437 78.914375 
L 1278.2 78.914375 
Q 1280.2 78.914375 1280.2 76.914375 
L 1280.2 33.88 
Q 1280.2 31.88 1278.2 31.88 
L 1219.548437 31.88 
Q 1217.548437 31.88 1217.548437 33.88 
L 1217.548437 76.914375 
Q 1217.548437 78.914375 1219.548437 78.914375 
z
" style="fill: #ffffff; opacity: 0.8; stroke: #cccccc; stroke-linejoin: miter"/>
    </g>
    <g id="line2d_18">
     <path d="M 1221.548437 39.978437 
L 1231.548437 39.978437 
L 1241.548437 39.978437 
" style="fill: none; stroke: #1f77b4; stroke-width: 1.5; stroke-linecap: square"/>
    </g>
    <g id="text_19">
     <!-- acc-x -->
     <g transform="translate(1249.548437 43.478437) scale(0.1 -0.1)">
      <defs>
       <path id="DejaVuSans-2d" d="M 313 2009 
L 1997 2009 
L 1997 1497 
L 313 1497 
L 313 2009 
z
" transform="scale(0.015625)"/>
       <path id="DejaVuSans-78" d="M 3513 3500 
L 2247 1797 
L 3578 0 
L 2900 0 
L 1881 1375 
L 863 0 
L 184 0 
L 1544 1831 
L 300 3500 
L 978 3500 
L 1906 2253 
L 2834 3500 
L 3513 3500 
z
" transform="scale(0.015625)"/>
      </defs>
      <use xlink:href="#DejaVuSans-61"/>
      <use xlink:href="#DejaVuSans-63" x="61.279297"/>
      <use xlink:href="#DejaVuSans-63" x="116.259766"/>
      <use xlink:href="#DejaVuSans-2d" x="171.240234"/>
      <use xlink:href="#DejaVuSans-78" x="207.324219"/>
     </g>
    </g>
    <g id="line2d_19">
     <path d="M 1221.548437 54.656563 
L 1231.548437 54.656563 
L 1241.548437 54.656563 
" style="fill: none; stroke: #ff7f0e; stroke-width: 1.5; stroke-linecap: square"/>
    </g>
    <g id="text_20">
     <!-- acc-y -->
     <g transform="translate(1249.548437 58.156563) scale(0.1 -0.1)">
      <defs>
       <path id="DejaVuSans-79" d="M 2059 -325 
Q 1816 -950 1584 -1140 
Q 1353 -1331 966 -1331 
L 506 -1331 
L 506 -850 
L 844 -850 
Q 1081 -850 1212 -737 
Q 1344 -625 1503 -206 
L 1606 56 
L 191 3500 
L 800 3500 
L 1894 763 
L 2988 3500 
L 3597 3500 
L 2059 -325 
z
" transform="scale(0.015625)"/>
      </defs>
      <use xlink:href="#DejaVuSans-61"/>
      <use xlink:href="#DejaVuSans-63" x="61.279297"/>
      <use xlink:href="#DejaVuSans-63" x="116.259766"/>
      <use xlink:href="#DejaVuSans-2d" x="171.240234"/>
      <use xlink:href="#DejaVuSans-79" x="205.574219"/>
     </g>
    </g>
    <g id="line2d_20">
     <path d="M 1221.548437 69.334687 
L 1231.548437 69.334687 
L 1241.548437 69.334687 
" style="fill: none; stroke: #2ca02c; stroke-width: 1.5; stroke-linecap: square"/>
    </g>
    <g id="text_21">
     <!-- acc-z -->
     <g transform="translate(1249.548437 72.834687) scale(0.1 -0.1)">
      <defs>
       <path id="DejaVuSans-7a" d="M 353 3500 
L 3084 3500 
L 3084 2975 
L 922 459 
L 3084 459 
L 3084 0 
L 275 0 
L 275 525 
L 2438 3041 
L 353 3041 
L 353 3500 
z
" transform="scale(0.015625)"/>
      </defs>
      <use xlink:href="#DejaVuSans-61"/>
      <use xlink:href="#DejaVuSans-63" x="61.279297"/>
      <use xlink:href="#DejaVuSans-63" x="116.259766"/>
      <use xlink:href="#DejaVuSans-2d" x="171.240234"/>
      <use xlink:href="#DejaVuSans-7a" x="207.324219"/>
     </g>
    </g>
   </g>
  </g>
 </g>
 <defs>
  <clipPath id="p9a71b1e466">
   <rect x="52.94" y="26.88" width="1232.26" height="363.16"/>
  </clipPath>
 </defs>
</svg>
