<?xml version="1.0" encoding="utf-8" standalone="no"?>
<!DOCTYPE svg PUBLIC "-//W3C//DTD SVG 1.1//EN"
  "http://www.w3.org/Graphics/SVG/1.1/DTD/svg11.dtd">
<svg xmlns:xlink="http://www.w3.org/1999/xlink" width="1296pt" height="432pt" viewBox="0 0 1296 432" xmlns="http://www.w3.org/2000/svg" version="1.1">
 <metadata>
  <rdf:RDF xmlns:dc="http://purl.org/dc/elements/1.1/" xmlns:cc="http://creativecommons.org/ns#" xmlns:rdf="http://www.w3.org/1999/02/22-rdf-syntax-ns#">
   <cc:Work>
    <dc:type rdf:resource="http://purl.org/dc/dcmitype/StillImage"/>
    <dc:date>2025-03-28T12:10:52.672769</dc:date>
    <dc:format>image/svg+xml</dc:format>
    <dc:creator>
     <cc:Agent>
      <dc:title>Matplotlib v3.7.5, https://matplotlib.org/</dc:title>
     </cc:Agent>
    </dc:creator>
   </cc:Work>
  </rdf:RDF>
 </metadata>
 <defs>
  <style type="text/css">*{stroke-linejoin: round; stroke-linecap: butt}</style>
 </defs>
 <g id="figure_1">
  <g id="patch_1">
   <path d="M 0 432 
L 1296 432 
L 1296 0 
L 0 0 
z
" style="fill: #ffffff"/>
  </g>
  <g id="axes_1">
   <g id="patch_2">
    <path d="M 46.55 390.04 
L 1285.2 390.04 
L 1285.2 26.88 
L 46.55 26.88 
z
" style="fill: #ffffff"/>
   </g>
   <g id="matplotlib.axis_1">
    <g id="xtick_1">
     <g id="line2d_1">
      <defs>
       <path id="m3a53daf01d" d="M 0 0 
L 0 3.5 
" style="stroke: #000000; stroke-width: 0.8"/>
      </defs>
      <g>
       <use xlink:href="#m3a53daf01d" x="164.767228" y="390.04" style="stroke: #000000; stroke-width: 0.8"/>
      </g>
     </g>
     <g id="text_1">
      <!-- 35 -->
      <g transform="translate(158.404728 404.638438) scale(0.1 -0.1)">
       <defs>
        <path id="DejaVuSans-33" d="M 2597 2516 
Q 3050 2419 3304 2112 
Q 3559 1806 3559 1356 
Q 3559 666 3084 287 
Q 2609 -91 1734 -91 
Q 1441 -91 1130 -33 
Q 819 25 488 141 
L 488 750 
Q 750 597 1062 519 
Q 1375 441 1716 441 
Q 2309 441 2620 675 
Q 2931 909 2931 1356 
Q 2931 1769 2642 2001 
Q 2353 2234 1838 2234 
L 1294 2234 
L 1294 2753 
L 1863 2753 
Q 2328 2753 2575 2939 
Q 2822 3125 2822 3475 
Q 2822 3834 2567 4026 
Q 2313 4219 1838 4219 
Q 1578 4219 1281 4162 
Q 984 4106 628 3988 
L 628 4550 
Q 988 4650 1302 4700 
Q 1616 4750 1894 4750 
Q 2613 4750 3031 4423 
Q 3450 4097 3450 3541 
Q 3450 3153 3228 2886 
Q 3006 2619 2597 2516 
z
" transform="scale(0.015625)"/>
        <path id="DejaVuSans-35" d="M 691 4666 
L 3169 4666 
L 3169 4134 
L 1269 4134 
L 1269 2991 
Q 1406 3038 1543 3061 
Q 1681 3084 1819 3084 
Q 2600 3084 3056 2656 
Q 3513 2228 3513 1497 
Q 3513 744 3044 326 
Q 2575 -91 1722 -91 
Q 1428 -91 1123 -41 
Q 819 9 494 109 
L 494 744 
Q 775 591 1075 516 
Q 1375 441 1709 441 
Q 2250 441 2565 725 
Q 2881 1009 2881 1497 
Q 2881 1984 2565 2268 
Q 2250 2553 1709 2553 
Q 1456 2553 1204 2497 
Q 953 2441 691 2322 
L 691 4666 
z
" transform="scale(0.015625)"/>
       </defs>
       <use xlink:href="#DejaVuSans-33"/>
       <use xlink:href="#DejaVuSans-35" x="63.623047"/>
      </g>
     </g>
    </g>
    <g id="xtick_2">
     <g id="line2d_2">
      <g>
       <use xlink:href="#m3a53daf01d" x="342.377034" y="390.04" style="stroke: #000000; stroke-width: 0.8"/>
      </g>
     </g>
     <g id="text_2">
      <!-- 36 -->
      <g transform="translate(336.014534 404.638438) scale(0.1 -0.1)">
       <defs>
        <path id="DejaVuSans-36" d="M 2113 2584 
Q 1688 2584 1439 2293 
Q 1191 2003 1191 1497 
Q 1191 994 1439 701 
Q 1688 409 2113 409 
Q 2538 409 2786 701 
Q 3034 994 3034 1497 
Q 3034 2003 2786 2293 
Q 2538 2584 2113 2584 
z
M 3366 4563 
L 3366 3988 
Q 3128 4100 2886 4159 
Q 2644 4219 2406 4219 
Q 1781 4219 1451 3797 
Q 1122 3375 1075 2522 
Q 1259 2794 1537 2939 
Q 1816 3084 2150 3084 
Q 2853 3084 3261 2657 
Q 3669 2231 3669 1497 
Q 3669 778 3244 343 
Q 2819 -91 2113 -91 
Q 1303 -91 875 529 
Q 447 1150 447 2328 
Q 447 3434 972 4092 
Q 1497 4750 2381 4750 
Q 2619 4750 2861 4703 
Q 3103 4656 3366 4563 
z
" transform="scale(0.015625)"/>
       </defs>
       <use xlink:href="#DejaVuSans-33"/>
       <use xlink:href="#DejaVuSans-36" x="63.623047"/>
      </g>
     </g>
    </g>
    <g id="xtick_3">
     <g id="line2d_3">
      <g>
       <use xlink:href="#m3a53daf01d" x="519.986839" y="390.04" style="stroke: #000000; stroke-width: 0.8"/>
      </g>
     </g>
     <g id="text_3">
      <!-- 37 -->
      <g transform="translate(513.624339 404.638438) scale(0.1 -0.1)">
       <defs>
        <path id="DejaVuSans-37" d="M 525 4666 
L 3525 4666 
L 3525 4397 
L 1831 0 
L 1172 0 
L 2766 4134 
L 525 4134 
L 525 4666 
z
" transform="scale(0.015625)"/>
       </defs>
       <use xlink:href="#DejaVuSans-33"/>
       <use xlink:href="#DejaVuSans-37" x="63.623047"/>
      </g>
     </g>
    </g>
    <g id="xtick_4">
     <g id="line2d_4">
      <g>
       <use xlink:href="#m3a53daf01d" x="697.596644" y="390.04" style="stroke: #000000; stroke-width: 0.8"/>
      </g>
     </g>
     <g id="text_4">
      <!-- 38 -->
      <g transform="translate(691.234144 404.638438) scale(0.1 -0.1)">
       <defs>
        <path id="DejaVuSans-38" d="M 2034 2216 
Q 1584 2216 1326 1975 
Q 1069 1734 1069 1313 
Q 1069 891 1326 650 
Q 1584 409 2034 409 
Q 2484 409 2743 651 
Q 3003 894 3003 1313 
Q 3003 1734 2745 1975 
Q 2488 2216 2034 2216 
z
M 1403 2484 
Q 997 2584 770 2862 
Q 544 3141 544 3541 
Q 544 4100 942 4425 
Q 1341 4750 2034 4750 
Q 2731 4750 3128 4425 
Q 3525 4100 3525 3541 
Q 3525 3141 3298 2862 
Q 3072 2584 2669 2484 
Q 3125 2378 3379 2068 
Q 3634 1759 3634 1313 
Q 3634 634 3220 271 
Q 2806 -91 2034 -91 
Q 1263 -91 848 271 
Q 434 634 434 1313 
Q 434 1759 690 2068 
Q 947 2378 1403 2484 
z
M 1172 3481 
Q 1172 3119 1398 2916 
Q 1625 2713 2034 2713 
Q 2441 2713 2670 2916 
Q 2900 3119 2900 3481 
Q 2900 3844 2670 4047 
Q 2441 4250 2034 4250 
Q 1625 4250 1398 4047 
Q 1172 3844 1172 3481 
z
" transform="scale(0.015625)"/>
       </defs>
       <use xlink:href="#DejaVuSans-33"/>
       <use xlink:href="#DejaVuSans-38" x="63.623047"/>
      </g>
     </g>
    </g>
    <g id="xtick_5">
     <g id="line2d_5">
      <g>
       <use xlink:href="#m3a53daf01d" x="875.206449" y="390.04" style="stroke: #000000; stroke-width: 0.8"/>
      </g>
     </g>
     <g id="text_5">
      <!-- 39 -->
      <g transform="translate(868.843949 404.638438) scale(0.1 -0.1)">
       <defs>
        <path id="DejaVuSans-39" d="M 703 97 
L 703 672 
Q 941 559 1184 500 
Q 1428 441 1663 441 
Q 2288 441 2617 861 
Q 2947 1281 2994 2138 
Q 2813 1869 2534 1725 
Q 2256 1581 1919 1581 
Q 1219 1581 811 2004 
Q 403 2428 403 3163 
Q 403 3881 828 4315 
Q 1253 4750 1959 4750 
Q 2769 4750 3195 4129 
Q 3622 3509 3622 2328 
Q 3622 1225 3098 567 
Q 2575 -91 1691 -91 
Q 1453 -91 1209 -44 
Q 966 3 703 97 
z
M 1959 2075 
Q 2384 2075 2632 2365 
Q 2881 2656 2881 3163 
Q 2881 3666 2632 3958 
Q 2384 4250 1959 4250 
Q 1534 4250 1286 3958 
Q 1038 3666 1038 3163 
Q 1038 2656 1286 2365 
Q 1534 2075 1959 2075 
z
" transform="scale(0.015625)"/>
       </defs>
       <use xlink:href="#DejaVuSans-33"/>
       <use xlink:href="#DejaVuSans-39" x="63.623047"/>
      </g>
     </g>
    </g>
    <g id="xtick_6">
     <g id="line2d_6">
      <g>
       <use xlink:href="#m3a53daf01d" x="1052.816254" y="390.04" style="stroke: #000000; stroke-width: 0.8"/>
      </g>
     </g>
     <g id="text_6">
      <!-- 40 -->
      <g transform="translate(1046.453754 404.638438) scale(0.1 -0.1)">
       <defs>
        <path id="DejaVuSans-34" d="M 2419 4116 
L 825 1625 
L 2419 1625 
L 2419 4116 
z
M 2253 4666 
L 3047 4666 
L 3047 1625 
L 3713 1625 
L 3713 1100 
L 3047 1100 
L 3047 0 
L 2419 0 
L 2419 1100 
L 313 1100 
L 313 1709 
L 2253 4666 
z
" transform="scale(0.015625)"/>
        <path id="DejaVuSans-30" d="M 2034 4250 
Q 1547 4250 1301 3770 
Q 1056 3291 1056 2328 
Q 1056 1369 1301 889 
Q 1547 409 2034 409 
Q 2525 409 2770 889 
Q 3016 1369 3016 2328 
Q 3016 3291 2770 3770 
Q 2525 4250 2034 4250 
z
M 2034 4750 
Q 2819 4750 3233 4129 
Q 3647 3509 3647 2328 
Q 3647 1150 3233 529 
Q 2819 -91 2034 -91 
Q 1250 -91 836 529 
Q 422 1150 422 2328 
Q 422 3509 836 4129 
Q 1250 4750 2034 4750 
z
" transform="scale(0.015625)"/>
       </defs>
       <use xlink:href="#DejaVuSans-34"/>
       <use xlink:href="#DejaVuSans-30" x="63.623047"/>
      </g>
     </g>
    </g>
    <g id="xtick_7">
     <g id="line2d_7">
      <g>
       <use xlink:href="#m3a53daf01d" x="1230.42606" y="390.04" style="stroke: #000000; stroke-width: 0.8"/>
      </g>
     </g>
     <g id="text_7">
      <!-- 41 -->
      <g transform="translate(1224.06356 404.638438) scale(0.1 -0.1)">
       <defs>
        <path id="DejaVuSans-31" d="M 794 531 
L 1825 531 
L 1825 4091 
L 703 3866 
L 703 4441 
L 1819 4666 
L 2450 4666 
L 2450 531 
L 3481 531 
L 3481 0 
L 794 0 
L 794 531 
z
" transform="scale(0.015625)"/>
       </defs>
       <use xlink:href="#DejaVuSans-34"/>
       <use xlink:href="#DejaVuSans-31" x="63.623047"/>
      </g>
     </g>
    </g>
    <g id="text_8">
     <!-- time -->
     <g transform="translate(654.578906 418.316562) scale(0.1 -0.1)">
      <defs>
       <path id="DejaVuSans-74" d="M 1172 4494 
L 1172 3500 
L 2356 3500 
L 2356 3053 
L 1172 3053 
L 1172 1153 
Q 1172 725 1289 603 
Q 1406 481 1766 481 
L 2356 481 
L 2356 0 
L 1766 0 
Q 1100 0 847 248 
Q 594 497 594 1153 
L 594 3053 
L 172 3053 
L 172 3500 
L 594 3500 
L 594 4494 
L 1172 4494 
z
" transform="scale(0.015625)"/>
       <path id="DejaVuSans-69" d="M 603 3500 
L 1178 3500 
L 1178 0 
L 603 0 
L 603 3500 
z
M 603 4863 
L 1178 4863 
L 1178 4134 
L 603 4134 
L 603 4863 
z
" transform="scale(0.015625)"/>
       <path id="DejaVuSans-6d" d="M 3328 2828 
Q 3544 3216 3844 3400 
Q 4144 3584 4550 3584 
Q 5097 3584 5394 3201 
Q 5691 2819 5691 2113 
L 5691 0 
L 5113 0 
L 5113 2094 
Q 5113 2597 4934 2840 
Q 4756 3084 4391 3084 
Q 3944 3084 3684 2787 
Q 3425 2491 3425 1978 
L 3425 0 
L 2847 0 
L 2847 2094 
Q 2847 2600 2669 2842 
Q 2491 3084 2119 3084 
Q 1678 3084 1418 2786 
Q 1159 2488 1159 1978 
L 1159 0 
L 581 0 
L 581 3500 
L 1159 3500 
L 1159 2956 
Q 1356 3278 1631 3431 
Q 1906 3584 2284 3584 
Q 2666 3584 2933 3390 
Q 3200 3197 3328 2828 
z
" transform="scale(0.015625)"/>
       <path id="DejaVuSans-65" d="M 3597 1894 
L 3597 1613 
L 953 1613 
Q 991 1019 1311 708 
Q 1631 397 2203 397 
Q 2534 397 2845 478 
Q 3156 559 3463 722 
L 3463 178 
Q 3153 47 2828 -22 
Q 2503 -91 2169 -91 
Q 1331 -91 842 396 
Q 353 884 353 1716 
Q 353 2575 817 3079 
Q 1281 3584 2069 3584 
Q 2775 3584 3186 3129 
Q 3597 2675 3597 1894 
z
M 3022 2063 
Q 3016 2534 2758 2815 
Q 2500 3097 2075 3097 
Q 1594 3097 1305 2825 
Q 1016 2553 972 2059 
L 3022 2063 
z
" transform="scale(0.015625)"/>
      </defs>
      <use xlink:href="#DejaVuSans-74"/>
      <use xlink:href="#DejaVuSans-69" x="39.208984"/>
      <use xlink:href="#DejaVuSans-6d" x="66.992188"/>
      <use xlink:href="#DejaVuSans-65" x="164.404297"/>
     </g>
    </g>
    <g id="text_9">
     <!-- 1e9+2.087e14 -->
     <g transform="translate(1210.435938 417.316562) scale(0.1 -0.1)">
      <defs>
       <path id="DejaVuSans-2b" d="M 2944 4013 
L 2944 2272 
L 4684 2272 
L 4684 1741 
L 2944 1741 
L 2944 0 
L 2419 0 
L 2419 1741 
L 678 1741 
L 678 2272 
L 2419 2272 
L 2419 4013 
L 2944 4013 
z
" transform="scale(0.015625)"/>
       <path id="DejaVuSans-32" d="M 1228 531 
L 3431 531 
L 3431 0 
L 469 0 
L 469 531 
Q 828 903 1448 1529 
Q 2069 2156 2228 2338 
Q 2531 2678 2651 2914 
Q 2772 3150 2772 3378 
Q 2772 3750 2511 3984 
Q 2250 4219 1831 4219 
Q 1534 4219 1204 4116 
Q 875 4013 500 3803 
L 500 4441 
Q 881 4594 1212 4672 
Q 1544 4750 1819 4750 
Q 2544 4750 2975 4387 
Q 3406 4025 3406 3419 
Q 3406 3131 3298 2873 
Q 3191 2616 2906 2266 
Q 2828 2175 2409 1742 
Q 1991 1309 1228 531 
z
" transform="scale(0.015625)"/>
       <path id="DejaVuSans-2e" d="M 684 794 
L 1344 794 
L 1344 0 
L 684 0 
L 684 794 
z
" transform="scale(0.015625)"/>
      </defs>
      <use xlink:href="#DejaVuSans-31"/>
      <use xlink:href="#DejaVuSans-65" x="63.623047"/>
      <use xlink:href="#DejaVuSans-39" x="125.146484"/>
      <use xlink:href="#DejaVuSans-2b" x="188.769531"/>
      <use xlink:href="#DejaVuSans-32" x="272.558594"/>
      <use xlink:href="#DejaVuSans-2e" x="336.181641"/>
      <use xlink:href="#DejaVuSans-30" x="367.96875"/>
      <use xlink:href="#DejaVuSans-38" x="431.591797"/>
      <use xlink:href="#DejaVuSans-37" x="495.214844"/>
      <use xlink:href="#DejaVuSans-65" x="558.837891"/>
      <use xlink:href="#DejaVuSans-31" x="620.361328"/>
      <use xlink:href="#DejaVuSans-34" x="683.984375"/>
     </g>
    </g>
   </g>
   <g id="matplotlib.axis_2">
    <g id="ytick_1">
     <g id="line2d_8">
      <defs>
       <path id="mfc466681b7" d="M 0 0 
L -3.5 0 
" style="stroke: #000000; stroke-width: 0.8"/>
      </defs>
      <g>
       <use xlink:href="#mfc466681b7" x="46.55" y="353.422344" style="stroke: #000000; stroke-width: 0.8"/>
      </g>
     </g>
     <g id="text_10">
      <!-- −5 -->
      <g transform="translate(24.807812 357.221563) scale(0.1 -0.1)">
       <defs>
        <path id="DejaVuSans-2212" d="M 678 2272 
L 4684 2272 
L 4684 1741 
L 678 1741 
L 678 2272 
z
" transform="scale(0.015625)"/>
       </defs>
       <use xlink:href="#DejaVuSans-2212"/>
       <use xlink:href="#DejaVuSans-35" x="83.789062"/>
      </g>
     </g>
    </g>
    <g id="ytick_2">
     <g id="line2d_9">
      <g>
       <use xlink:href="#mfc466681b7" x="46.55" y="283.594625" style="stroke: #000000; stroke-width: 0.8"/>
      </g>
     </g>
     <g id="text_11">
      <!-- 0 -->
      <g transform="translate(33.1875 287.393844) scale(0.1 -0.1)">
       <use xlink:href="#DejaVuSans-30"/>
      </g>
     </g>
    </g>
    <g id="ytick_3">
     <g id="line2d_10">
      <g>
       <use xlink:href="#mfc466681b7" x="46.55" y="213.766907" style="stroke: #000000; stroke-width: 0.8"/>
      </g>
     </g>
     <g id="text_12">
      <!-- 5 -->
      <g transform="translate(33.1875 217.566125) scale(0.1 -0.1)">
       <use xlink:href="#DejaVuSans-35"/>
      </g>
     </g>
    </g>
    <g id="ytick_4">
     <g id="line2d_11">
      <g>
       <use xlink:href="#mfc466681b7" x="46.55" y="143.939188" style="stroke: #000000; stroke-width: 0.8"/>
      </g>
     </g>
     <g id="text_13">
      <!-- 10 -->
      <g transform="translate(26.825 147.738407) scale(0.1 -0.1)">
       <use xlink:href="#DejaVuSans-31"/>
       <use xlink:href="#DejaVuSans-30" x="63.623047"/>
      </g>
     </g>
    </g>
    <g id="ytick_5">
     <g id="line2d_12">
      <g>
       <use xlink:href="#mfc466681b7" x="46.55" y="74.111469" style="stroke: #000000; stroke-width: 0.8"/>
      </g>
     </g>
     <g id="text_14">
      <!-- 15 -->
      <g transform="translate(26.825 77.910688) scale(0.1 -0.1)">
       <use xlink:href="#DejaVuSans-31"/>
       <use xlink:href="#DejaVuSans-35" x="63.623047"/>
      </g>
     </g>
    </g>
    <g id="text_15">
     <!-- acc -->
     <g transform="translate(18.728125 217.0225) rotate(-90) scale(0.1 -0.1)">
      <defs>
       <path id="DejaVuSans-61" d="M 2194 1759 
Q 1497 1759 1228 1600 
Q 959 1441 959 1056 
Q 959 750 1161 570 
Q 1363 391 1709 391 
Q 2188 391 2477 730 
Q 2766 1069 2766 1631 
L 2766 1759 
L 2194 1759 
z
M 3341 1997 
L 3341 0 
L 2766 0 
L 2766 531 
Q 2569 213 2275 61 
Q 1981 -91 1556 -91 
Q 1019 -91 701 211 
Q 384 513 384 1019 
Q 384 1609 779 1909 
Q 1175 2209 1959 2209 
L 2766 2209 
L 2766 2266 
Q 2766 2663 2505 2880 
Q 2244 3097 1772 3097 
Q 1472 3097 1187 3025 
Q 903 2953 641 2809 
L 641 3341 
Q 956 3463 1253 3523 
Q 1550 3584 1831 3584 
Q 2591 3584 2966 3190 
Q 3341 2797 3341 1997 
z
" transform="scale(0.015625)"/>
       <path id="DejaVuSans-63" d="M 3122 3366 
L 3122 2828 
Q 2878 2963 2633 3030 
Q 2388 3097 2138 3097 
Q 1578 3097 1268 2742 
Q 959 2388 959 1747 
Q 959 1106 1268 751 
Q 1578 397 2138 397 
Q 2388 397 2633 464 
Q 2878 531 3122 666 
L 3122 134 
Q 2881 22 2623 -34 
Q 2366 -91 2075 -91 
Q 1284 -91 818 406 
Q 353 903 353 1747 
Q 353 2603 823 3093 
Q 1294 3584 2113 3584 
Q 2378 3584 2631 3529 
Q 2884 3475 3122 3366 
z
" transform="scale(0.015625)"/>
      </defs>
      <use xlink:href="#DejaVuSans-61"/>
      <use xlink:href="#DejaVuSans-63" x="61.279297"/>
      <use xlink:href="#DejaVuSans-63" x="116.259766"/>
     </g>
    </g>
   </g>
   <g id="line2d_13">
    <path d="M 102.852273 197.42722 
L 109.96892 205.38758 
L 117.074911 197.985842 
L 131.27588 124.806393 
L 138.387199 134.861584 
L 145.493012 122.43225 
L 152.631506 140.168491 
L 166.821641 136.956416 
L 173.927632 191.561692 
L 181.017282 230.106593 
L 188.161104 273.9584 
L 202.324065 259.992856 
L 209.430056 256.780781 
L 216.541375 230.665215 
L 223.679868 81.932174 
L 237.848157 211.951386 
L 245.366025 162.653016 
L 252.46651 166.982335 
L 259.285306 192.120314 
L 273.394096 189.46686 
L 280.483746 179.69098 
L 287.584231 180.947879 
L 294.717219 162.23405 
L 308.885685 124.247771 
L 316.018673 163.211638 
L 323.102818 141.844356 
L 330.230477 127.459846 
L 344.409778 233.318668 
L 351.542765 241.977305 
L 358.632416 235.972121 
L 365.749241 263.204932 
L 379.93387 261.1101 
L 387.045189 177.596148 
L 394.172848 48.275213 
L 401.278839 191.00307 
L 415.457963 181.506501 
L 422.60729 194.773767 
L 430.24984 202.734127 
L 436.770429 195.332389 
L 450.982233 182.344433 
L 458.093552 151.899548 
L 465.194036 134.302963 
L 472.337858 149.804716 
L 486.517159 148.687473 
L 493.612138 133.883996 
L 500.718129 138.632281 
L 507.86195 218.934158 
L 522.214776 253.14974 
L 529.130902 271.165291 
L 536.350741 272.42219 
L 543.359046 264.322175 
L 557.560016 138.632281 
L 564.64416 80.81493 
L 571.760985 182.903055 
L 578.904807 191.561692 
L 593.084108 190.584104 
L 600.325615 209.158277 
L 607.258081 212.510008 
L 614.401902 194.215145 
L 628.592038 170.19441 
L 635.703357 148.687473 
L 642.803842 135.420206 
L 649.925995 115.030512 
L 664.549676 149.246094 
L 671.194946 123.689149 
L 678.3171 185.696164 
L 685.455593 227.45314 
L 699.634894 251.473875 
L 706.751541 244.630758 
L 713.852026 248.2618 
L 720.968851 234.854878 
L 735.153481 64.89421 
L 742.259471 172.289242 
L 749.37079 194.773767 
L 756.492943 180.947879 
L 770.699419 207.761723 
L 777.778235 201.756539 
L 784.894883 203.851371 
L 792.017036 199.522052 
L 806.201843 149.246094 
L 813.307656 132.208131 
L 820.413647 128.996056 
L 827.557468 117.125344 
L 841.752932 140.168491 
L 848.853594 129.554678 
L 855.937739 186.254785 
L 870.144215 246.166968 
L 877.233865 251.473875 
L 884.350512 275.634265 
L 891.472666 266.417007 
L 898.57315 199.522052 
L 912.763286 109.164984 
L 919.890945 199.522052 
L 926.980596 165.865092 
L 934.102749 146.592641 
L 948.309224 198.544464 
L 955.388041 200.639295 
L 962.504688 209.856554 
L 971.372213 228.011761 
L 978.478026 207.063446 
L 992.689829 180.947879 
L 999.763318 163.211638 
L 1006.869131 141.844356 
L 1013.975121 58.330405 
L 1028.620648 138.632281 
L 1035.428432 142.821944 
L 1044.23628 218.934158 
L 1051.293428 229.547971 
L 1058.43725 192.678936 
L 1072.638219 199.522052 
L 1079.72787 241.418683 
L 1086.844517 270.885981 
L 1093.955836 262.64631 
L 1108.156806 75.508023 
L 1115.241128 121.594318 
L 1122.352447 156.368522 
L 1129.469272 177.596148 
L 1143.69191 247.284212 
L 1150.770726 213.627251 
L 1157.876539 199.103086 
L 1164.998692 223.682443 
L 1179.1835 143.380566 
L 1186.283984 130.113299 
L 1193.406138 139.609869 
L 1200.506622 173.406485 
L 1214.702086 104.975321 
L 1221.808077 43.387273 
L 1228.897727 117.125344 
L 1228.897727 117.125344 
" clip-path="url(#p567035e889)" style="fill: none; stroke: #1f77b4; stroke-width: 1.5; stroke-linecap: square"/>
   </g>
   <g id="line2d_14">
    <path d="M 102.852273 250.915253 
L 109.96892 235.413499 
L 117.074911 221.028989 
L 131.27588 117.683966 
L 138.387199 124.247771 
L 145.493012 162.23405 
L 152.631506 159.021975 
L 166.821641 146.592641 
L 173.927632 179.69098 
L 181.017282 208.041034 
L 188.161104 224.241064 
L 202.324065 247.284212 
L 209.430056 246.72559 
L 216.541375 214.604839 
L 223.679868 71.737327 
L 237.848157 226.894518 
L 245.366025 161.675428 
L 252.46651 178.15477 
L 259.285306 215.722083 
L 273.394096 245.608346 
L 280.483746 219.353124 
L 287.584231 199.103086 
L 294.717219 175.501317 
L 308.885685 128.018468 
L 316.018673 187.372029 
L 323.102818 203.851371 
L 330.230477 162.23405 
L 344.409778 166.423713 
L 351.542765 222.565199 
L 358.632416 218.375536 
L 365.749241 217.816914 
L 379.93387 261.668722 
L 387.045189 157.904732 
L 394.172848 63.637311 
L 401.278839 199.522052 
L 415.457963 169.077167 
L 422.60729 200.080674 
L 430.24984 231.084181 
L 436.770429 248.2618 
L 450.982233 220.470368 
L 458.093552 171.171998 
L 465.194036 131.090888 
L 472.337858 120.896041 
L 486.517159 174.384073 
L 493.612138 184.159954 
L 500.718129 141.285735 
L 507.86195 160.558185 
L 522.214776 219.353124 
L 529.130902 217.816914 
L 536.350741 223.682443 
L 543.359046 253.14974 
L 557.560016 132.766753 
L 564.64416 122.15294 
L 571.760985 198.544464 
L 578.904807 199.522052 
L 593.084108 197.42722 
L 600.325615 222.565199 
L 607.258081 236.949709 
L 614.401902 224.799686 
L 628.592038 182.065122 
L 635.703357 156.787488 
L 642.803842 140.168491 
L 649.925995 129.554678 
L 664.549676 194.215145 
L 671.194946 180.249602 
L 678.3171 164.328882 
L 685.455593 193.237557 
L 699.634894 223.123821 
L 706.751541 234.296256 
L 713.852026 244.072137 
L 720.968851 253.14974 
L 735.153481 122.990872 
L 742.259471 203.851371 
L 749.37079 163.211638 
L 756.492943 152.597825 
L 770.699419 216.280705 
L 777.778235 216.280705 
L 784.894883 226.894518 
L 792.017036 218.934158 
L 806.201843 173.825451 
L 813.307656 146.592641 
L 820.413647 138.073659 
L 827.557468 143.939188 
L 841.752932 203.851371 
L 848.853594 173.406485 
L 855.937739 162.653016 
L 870.144215 196.449632 
L 877.233865 201.197917 
L 884.350512 236.391088 
L 891.472666 273.539434 
L 898.57315 217.816914 
L 912.763286 102.321867 
L 919.890945 208.599655 
L 926.980596 179.69098 
L 934.102749 159.021975 
L 948.309224 209.856554 
L 955.388041 218.934158 
L 962.504688 241.418683 
L 971.372213 248.820421 
L 978.478026 216.280705 
L 992.689829 188.349617 
L 999.763318 171.73062 
L 1006.869131 157.904732 
L 1013.975121 169.077167 
L 1028.620648 156.787488 
L 1035.428432 106.511531 
L 1044.23628 159.440941 
L 1051.293428 226.335896 
L 1058.43725 235.413499 
L 1072.638219 215.722083 
L 1079.72787 178.853047 
L 1086.844517 150.502993 
L 1093.955836 148.687473 
L 1108.156806 227.872106 
L 1115.241128 272.42219 
L 1122.352447 197.985842 
L 1129.469272 85.144249 
L 1143.69191 185.696164 
L 1150.770726 159.021975 
L 1157.876539 178.15477 
L 1164.998692 232.201424 
L 1179.1835 200.639295 
L 1186.283984 164.887503 
L 1193.406138 154.692657 
L 1200.506622 191.561692 
L 1214.702086 184.997886 
L 1221.808077 159.021975 
L 1228.897727 147.84954 
L 1228.897727 147.84954 
" clip-path="url(#p567035e889)" style="fill: none; stroke: #ff7f0e; stroke-width: 1.5; stroke-linecap: square"/>
   </g>
   <g id="line2d_15">
    <path d="M 102.852273 302.168799 
L 109.96892 300.772244 
L 117.074911 316.273998 
L 131.27588 275.075644 
L 138.387199 182.065122 
L 145.493012 250.915253 
L 152.631506 293.649817 
L 166.821641 311.944679 
L 173.927632 252.591118 
L 181.017282 299.515345 
L 188.161104 294.208439 
L 202.324065 306.637773 
L 209.430056 322.558493 
L 216.541375 315.156754 
L 223.679868 340.853355 
L 237.848157 278.846341 
L 245.366025 306.637773 
L 252.46651 305.101563 
L 259.285306 300.073967 
L 273.394096 298.677413 
L 280.483746 298.118791 
L 287.584231 307.196394 
L 294.717219 300.073967 
L 308.885685 228.989349 
L 316.018673 274.517022 
L 323.102818 310.827436 
L 330.230477 301.330866 
L 344.409778 311.944679 
L 351.542765 269.07046 
L 358.632416 280.941172 
L 365.749241 322.558493 
L 379.93387 304.542941 
L 387.045189 341.970598 
L 394.172848 311.944679 
L 401.278839 252.032497 
L 415.457963 307.196394 
L 422.60729 302.867076 
L 430.24984 298.677413 
L 436.770429 302.867076 
L 450.982233 314.598133 
L 458.093552 311.944679 
L 465.194036 283.594625 
L 472.337858 190.025482 
L 486.517159 295.325682 
L 493.612138 336.524036 
L 500.718129 315.715376 
L 507.86195 260.551478 
L 522.214776 301.889488 
L 529.130902 301.889488 
L 536.350741 321.580904 
L 543.359046 330.239542 
L 557.560016 321.022283 
L 564.64416 309.291226 
L 571.760985 296.861892 
L 578.904807 302.168799 
L 593.084108 300.073967 
L 600.325615 294.76706 
L 607.258081 293.649817 
L 614.401902 303.984319 
L 628.592038 305.101563 
L 635.703357 295.325682 
L 642.803842 276.192887 
L 649.925995 244.630758 
L 664.549676 322.558493 
L 671.194946 320.463661 
L 678.3171 279.823929 
L 685.455593 290.996364 
L 699.634894 282.058416 
L 706.751541 290.996364 
L 713.852026 336.10507 
L 720.968851 341.411977 
L 735.153481 301.889488 
L 742.259471 268.511838 
L 749.37079 304.542941 
L 756.492943 303.984319 
L 770.699419 292.672229 
L 777.778235 292.672229 
L 784.894883 291.554985 
L 792.017036 296.861892 
L 806.201843 313.061923 
L 813.307656 293.649817 
L 820.413647 257.339403 
L 827.557468 235.413499 
L 841.752932 342.948186 
L 848.853594 359.427528 
L 855.937739 340.853355 
L 870.144215 265.020452 
L 877.233865 308.732604 
L 884.350512 315.715376 
L 891.472666 316.273998 
L 898.57315 302.168799 
L 912.763286 299.515345 
L 919.890945 285.689457 
L 926.980596 298.118791 
L 934.102749 299.236034 
L 948.309224 296.023959 
L 955.388041 297.420514 
L 962.504688 295.325682 
L 971.372213 296.582581 
L 978.478026 304.542941 
L 992.689829 294.76706 
L 999.763318 291.554985 
L 1006.869131 218.375536 
L 1013.975121 199.103086 
L 1028.620648 326.329189 
L 1035.428432 352.584412 
L 1044.23628 344.06543 
L 1051.293428 348.255093 
L 1058.43725 373.532727 
L 1072.638219 314.598133 
L 1079.72787 302.168799 
L 1086.844517 278.287719 
L 1093.955836 150.502993 
L 1108.156806 323.117114 
L 1115.241128 305.520529 
L 1122.352447 290.018776 
L 1129.469272 234.854878 
L 1143.69191 296.582581 
L 1150.770726 324.234358 
L 1157.876539 316.273998 
L 1164.998692 306.637773 
L 1179.1835 338.199902 
L 1186.283984 307.196394 
L 1193.406138 112.377059 
L 1200.506622 329.122298 
L 1214.702086 310.408469 
L 1221.808077 208.599655 
L 1228.897727 275.634265 
L 1228.897727 275.634265 
" clip-path="url(#p567035e889)" style="fill: none; stroke: #2ca02c; stroke-width: 1.5; stroke-linecap: square"/>
   </g>
   <g id="patch_3">
    <path d="M 46.55 390.04 
L 46.55 26.88 
" style="fill: none; stroke: #000000; stroke-width: 0.8; stroke-linejoin: miter; stroke-linecap: square"/>
   </g>
   <g id="patch_4">
    <path d="M 1285.2 390.04 
L 1285.2 26.88 
" style="fill: none; stroke: #000000; stroke-width: 0.8; stroke-linejoin: miter; stroke-linecap: square"/>
   </g>
   <g id="patch_5">
    <path d="M 46.55 390.04 
L 1285.2 390.04 
" style="fill: none; stroke: #000000; stroke-width: 0.8; stroke-linejoin: miter; stroke-linecap: square"/>
   </g>
   <g id="patch_6">
    <path d="M 46.55 26.88 
L 1285.2 26.88 
" style="fill: none; stroke: #000000; stroke-width: 0.8; stroke-linejoin: miter; stroke-linecap: square"/>
   </g>
   <g id="text_16">
    <!-- User 7, Action 2 -->
    <g transform="translate(618.145937 20.88) scale(0.12 -0.12)">
     <defs>
      <path id="DejaVuSans-55" d="M 556 4666 
L 1191 4666 
L 1191 1831 
Q 1191 1081 1462 751 
Q 1734 422 2344 422 
Q 2950 422 3222 751 
Q 3494 1081 3494 1831 
L 3494 4666 
L 4128 4666 
L 4128 1753 
Q 4128 841 3676 375 
Q 3225 -91 2344 -91 
Q 1459 -91 1007 375 
Q 556 841 556 1753 
L 556 4666 
z
" transform="scale(0.015625)"/>
      <path id="DejaVuSans-73" d="M 2834 3397 
L 2834 2853 
Q 2591 2978 2328 3040 
Q 2066 3103 1784 3103 
Q 1356 3103 1142 2972 
Q 928 2841 928 2578 
Q 928 2378 1081 2264 
Q 1234 2150 1697 2047 
L 1894 2003 
Q 2506 1872 2764 1633 
Q 3022 1394 3022 966 
Q 3022 478 2636 193 
Q 2250 -91 1575 -91 
Q 1294 -91 989 -36 
Q 684 19 347 128 
L 347 722 
Q 666 556 975 473 
Q 1284 391 1588 391 
Q 1994 391 2212 530 
Q 2431 669 2431 922 
Q 2431 1156 2273 1281 
Q 2116 1406 1581 1522 
L 1381 1569 
Q 847 1681 609 1914 
Q 372 2147 372 2553 
Q 372 3047 722 3315 
Q 1072 3584 1716 3584 
Q 2034 3584 2315 3537 
Q 2597 3491 2834 3397 
z
" transform="scale(0.015625)"/>
      <path id="DejaVuSans-72" d="M 2631 2963 
Q 2534 3019 2420 3045 
Q 2306 3072 2169 3072 
Q 1681 3072 1420 2755 
Q 1159 2438 1159 1844 
L 1159 0 
L 581 0 
L 581 3500 
L 1159 3500 
L 1159 2956 
Q 1341 3275 1631 3429 
Q 1922 3584 2338 3584 
Q 2397 3584 2469 3576 
Q 2541 3569 2628 3553 
L 2631 2963 
z
" transform="scale(0.015625)"/>
      <path id="DejaVuSans-20" transform="scale(0.015625)"/>
      <path id="DejaVuSans-2c" d="M 750 794 
L 1409 794 
L 1409 256 
L 897 -744 
L 494 -744 
L 750 256 
L 750 794 
z
" transform="scale(0.015625)"/>
      <path id="DejaVuSans-41" d="M 2188 4044 
L 1331 1722 
L 3047 1722 
L 2188 4044 
z
M 1831 4666 
L 2547 4666 
L 4325 0 
L 3669 0 
L 3244 1197 
L 1141 1197 
L 716 0 
L 50 0 
L 1831 4666 
z
" transform="scale(0.015625)"/>
      <path id="DejaVuSans-6f" d="M 1959 3097 
Q 1497 3097 1228 2736 
Q 959 2375 959 1747 
Q 959 1119 1226 758 
Q 1494 397 1959 397 
Q 2419 397 2687 759 
Q 2956 1122 2956 1747 
Q 2956 2369 2687 2733 
Q 2419 3097 1959 3097 
z
M 1959 3584 
Q 2709 3584 3137 3096 
Q 3566 2609 3566 1747 
Q 3566 888 3137 398 
Q 2709 -91 1959 -91 
Q 1206 -91 779 398 
Q 353 888 353 1747 
Q 353 2609 779 3096 
Q 1206 3584 1959 3584 
z
" transform="scale(0.015625)"/>
      <path id="DejaVuSans-6e" d="M 3513 2113 
L 3513 0 
L 2938 0 
L 2938 2094 
Q 2938 2591 2744 2837 
Q 2550 3084 2163 3084 
Q 1697 3084 1428 2787 
Q 1159 2491 1159 1978 
L 1159 0 
L 581 0 
L 581 3500 
L 1159 3500 
L 1159 2956 
Q 1366 3272 1645 3428 
Q 1925 3584 2291 3584 
Q 2894 3584 3203 3211 
Q 3513 2838 3513 2113 
z
" transform="scale(0.015625)"/>
     </defs>
     <use xlink:href="#DejaVuSans-55"/>
     <use xlink:href="#DejaVuSans-73" x="73.193359"/>
     <use xlink:href="#DejaVuSans-65" x="125.292969"/>
     <use xlink:href="#DejaVuSans-72" x="186.816406"/>
     <use xlink:href="#DejaVuSans-20" x="227.929688"/>
     <use xlink:href="#DejaVuSans-37" x="259.716797"/>
     <use xlink:href="#DejaVuSans-2c" x="323.339844"/>
     <use xlink:href="#DejaVuSans-20" x="355.126953"/>
     <use xlink:href="#DejaVuSans-41" x="386.914062"/>
     <use xlink:href="#DejaVuSans-63" x="453.572266"/>
     <use xlink:href="#DejaVuSans-74" x="508.552734"/>
     <use xlink:href="#DejaVuSans-69" x="547.761719"/>
     <use xlink:href="#DejaVuSans-6f" x="575.544922"/>
     <use xlink:href="#DejaVuSans-6e" x="636.726562"/>
     <use xlink:href="#DejaVuSans-20" x="700.105469"/>
     <use xlink:href="#DejaVuSans-32" x="731.892578"/>
    </g>
   </g>
   <g id="legend_1">
    <g id="patch_7">
     <path d="M 53.55 78.914375 
L 112.201562 78.914375 
Q 114.201562 78.914375 114.201562 76.914375 
L 114.201562 33.88 
Q 114.201562 31.88 112.201562 31.88 
L 53.55 31.88 
Q 51.55 31.88 51.55 33.88 
L 51.55 76.914375 
Q 51.55 78.914375 53.55 78.914375 
z
" style="fill: #ffffff; opacity: 0.8; stroke: #cccccc; stroke-linejoin: miter"/>
    </g>
    <g id="line2d_16">
     <path d="M 55.55 39.978437 
L 65.55 39.978437 
L 75.55 39.978437 
" style="fill: none; stroke: #1f77b4; stroke-width: 1.5; stroke-linecap: square"/>
    </g>
    <g id="text_17">
     <!-- acc-x -->
     <g transform="translate(83.55 43.478437) scale(0.1 -0.1)">
      <defs>
       <path id="DejaVuSans-2d" d="M 313 2009 
L 1997 2009 
L 1997 1497 
L 313 1497 
L 313 2009 
z
" transform="scale(0.015625)"/>
       <path id="DejaVuSans-78" d="M 3513 3500 
L 2247 1797 
L 3578 0 
L 2900 0 
L 1881 1375 
L 863 0 
L 184 0 
L 1544 1831 
L 300 3500 
L 978 3500 
L 1906 2253 
L 2834 3500 
L 3513 3500 
z
" transform="scale(0.015625)"/>
      </defs>
      <use xlink:href="#DejaVuSans-61"/>
      <use xlink:href="#DejaVuSans-63" x="61.279297"/>
      <use xlink:href="#DejaVuSans-63" x="116.259766"/>
      <use xlink:href="#DejaVuSans-2d" x="171.240234"/>
      <use xlink:href="#DejaVuSans-78" x="207.324219"/>
     </g>
    </g>
    <g id="line2d_17">
     <path d="M 55.55 54.656563 
L 65.55 54.656563 
L 75.55 54.656563 
" style="fill: none; stroke: #ff7f0e; stroke-width: 1.5; stroke-linecap: square"/>
    </g>
    <g id="text_18">
     <!-- acc-y -->
     <g transform="translate(83.55 58.156563) scale(0.1 -0.1)">
      <defs>
       <path id="DejaVuSans-79" d="M 2059 -325 
Q 1816 -950 1584 -1140 
Q 1353 -1331 966 -1331 
L 506 -1331 
L 506 -850 
L 844 -850 
Q 1081 -850 1212 -737 
Q 1344 -625 1503 -206 
L 1606 56 
L 191 3500 
L 800 3500 
L 1894 763 
L 2988 3500 
L 3597 3500 
L 2059 -325 
z
" transform="scale(0.015625)"/>
      </defs>
      <use xlink:href="#DejaVuSans-61"/>
      <use xlink:href="#DejaVuSans-63" x="61.279297"/>
      <use xlink:href="#DejaVuSans-63" x="116.259766"/>
      <use xlink:href="#DejaVuSans-2d" x="171.240234"/>
      <use xlink:href="#DejaVuSans-79" x="205.574219"/>
     </g>
    </g>
    <g id="line2d_18">
     <path d="M 55.55 69.334687 
L 65.55 69.334687 
L 75.55 69.334687 
" style="fill: none; stroke: #2ca02c; stroke-width: 1.5; stroke-linecap: square"/>
    </g>
    <g id="text_19">
     <!-- acc-z -->
     <g transform="translate(83.55 72.834687) scale(0.1 -0.1)">
      <defs>
       <path id="DejaVuSans-7a" d="M 353 3500 
L 3084 3500 
L 3084 2975 
L 922 459 
L 3084 459 
L 3084 0 
L 275 0 
L 275 525 
L 2438 3041 
L 353 3041 
L 353 3500 
z
" transform="scale(0.015625)"/>
      </defs>
      <use xlink:href="#DejaVuSans-61"/>
      <use xlink:href="#DejaVuSans-63" x="61.279297"/>
      <use xlink:href="#DejaVuSans-63" x="116.259766"/>
      <use xlink:href="#DejaVuSans-2d" x="171.240234"/>
      <use xlink:href="#DejaVuSans-7a" x="207.324219"/>
     </g>
    </g>
   </g>
  </g>
 </g>
 <defs>
  <clipPath id="p567035e889">
   <rect x="46.55" y="26.88" width="1238.65" height="363.16"/>
  </clipPath>
 </defs>
</svg>
