<?xml version="1.0" encoding="utf-8" standalone="no"?>
<!DOCTYPE svg PUBLIC "-//W3C//DTD SVG 1.1//EN"
  "http://www.w3.org/Graphics/SVG/1.1/DTD/svg11.dtd">
<svg xmlns:xlink="http://www.w3.org/1999/xlink" width="1296pt" height="432pt" viewBox="0 0 1296 432" xmlns="http://www.w3.org/2000/svg" version="1.1">
 <metadata>
  <rdf:RDF xmlns:dc="http://purl.org/dc/elements/1.1/" xmlns:cc="http://creativecommons.org/ns#" xmlns:rdf="http://www.w3.org/1999/02/22-rdf-syntax-ns#">
   <cc:Work>
    <dc:type rdf:resource="http://purl.org/dc/dcmitype/StillImage"/>
    <dc:date>2025-03-28T12:10:53.171062</dc:date>
    <dc:format>image/svg+xml</dc:format>
    <dc:creator>
     <cc:Agent>
      <dc:title>Matplotlib v3.7.5, https://matplotlib.org/</dc:title>
     </cc:Agent>
    </dc:creator>
   </cc:Work>
  </rdf:RDF>
 </metadata>
 <defs>
  <style type="text/css">*{stroke-linejoin: round; stroke-linecap: butt}</style>
 </defs>
 <g id="figure_1">
  <g id="patch_1">
   <path d="M 0 432 
L 1296 432 
L 1296 0 
L 0 0 
z
" style="fill: #ffffff"/>
  </g>
  <g id="axes_1">
   <g id="patch_2">
    <path d="M 46.64 390.04 
L 1285.2 390.04 
L 1285.2 26.88 
L 46.64 26.88 
z
" style="fill: #ffffff"/>
   </g>
   <g id="matplotlib.axis_1">
    <g id="xtick_1">
     <g id="line2d_1">
      <defs>
       <path id="mc0a6194071" d="M 0 0 
L 0 3.5 
" style="stroke: #000000; stroke-width: 0.8"/>
      </defs>
      <g>
       <use xlink:href="#mc0a6194071" x="143.585517" y="390.04" style="stroke: #000000; stroke-width: 0.8"/>
      </g>
     </g>
     <g id="text_1">
      <!-- −6 -->
      <g transform="translate(136.214423 404.638438) scale(0.1 -0.1)">
       <defs>
        <path id="DejaVuSans-2212" d="M 678 2272 
L 4684 2272 
L 4684 1741 
L 678 1741 
L 678 2272 
z
" transform="scale(0.015625)"/>
        <path id="DejaVuSans-36" d="M 2113 2584 
Q 1688 2584 1439 2293 
Q 1191 2003 1191 1497 
Q 1191 994 1439 701 
Q 1688 409 2113 409 
Q 2538 409 2786 701 
Q 3034 994 3034 1497 
Q 3034 2003 2786 2293 
Q 2538 2584 2113 2584 
z
M 3366 4563 
L 3366 3988 
Q 3128 4100 2886 4159 
Q 2644 4219 2406 4219 
Q 1781 4219 1451 3797 
Q 1122 3375 1075 2522 
Q 1259 2794 1537 2939 
Q 1816 3084 2150 3084 
Q 2853 3084 3261 2657 
Q 3669 2231 3669 1497 
Q 3669 778 3244 343 
Q 2819 -91 2113 -91 
Q 1303 -91 875 529 
Q 447 1150 447 2328 
Q 447 3434 972 4092 
Q 1497 4750 2381 4750 
Q 2619 4750 2861 4703 
Q 3103 4656 3366 4563 
z
" transform="scale(0.015625)"/>
       </defs>
       <use xlink:href="#DejaVuSans-2212"/>
       <use xlink:href="#DejaVuSans-36" x="83.789062"/>
      </g>
     </g>
    </g>
    <g id="xtick_2">
     <g id="line2d_2">
      <g>
       <use xlink:href="#mc0a6194071" x="321.46152" y="390.04" style="stroke: #000000; stroke-width: 0.8"/>
      </g>
     </g>
     <g id="text_2">
      <!-- −5 -->
      <g transform="translate(314.090426 404.638438) scale(0.1 -0.1)">
       <defs>
        <path id="DejaVuSans-35" d="M 691 4666 
L 3169 4666 
L 3169 4134 
L 1269 4134 
L 1269 2991 
Q 1406 3038 1543 3061 
Q 1681 3084 1819 3084 
Q 2600 3084 3056 2656 
Q 3513 2228 3513 1497 
Q 3513 744 3044 326 
Q 2575 -91 1722 -91 
Q 1428 -91 1123 -41 
Q 819 9 494 109 
L 494 744 
Q 775 591 1075 516 
Q 1375 441 1709 441 
Q 2250 441 2565 725 
Q 2881 1009 2881 1497 
Q 2881 1984 2565 2268 
Q 2250 2553 1709 2553 
Q 1456 2553 1204 2497 
Q 953 2441 691 2322 
L 691 4666 
z
" transform="scale(0.015625)"/>
       </defs>
       <use xlink:href="#DejaVuSans-2212"/>
       <use xlink:href="#DejaVuSans-35" x="83.789062"/>
      </g>
     </g>
    </g>
    <g id="xtick_3">
     <g id="line2d_3">
      <g>
       <use xlink:href="#mc0a6194071" x="499.337522" y="390.04" style="stroke: #000000; stroke-width: 0.8"/>
      </g>
     </g>
     <g id="text_3">
      <!-- −4 -->
      <g transform="translate(491.966429 404.638438) scale(0.1 -0.1)">
       <defs>
        <path id="DejaVuSans-34" d="M 2419 4116 
L 825 1625 
L 2419 1625 
L 2419 4116 
z
M 2253 4666 
L 3047 4666 
L 3047 1625 
L 3713 1625 
L 3713 1100 
L 3047 1100 
L 3047 0 
L 2419 0 
L 2419 1100 
L 313 1100 
L 313 1709 
L 2253 4666 
z
" transform="scale(0.015625)"/>
       </defs>
       <use xlink:href="#DejaVuSans-2212"/>
       <use xlink:href="#DejaVuSans-34" x="83.789062"/>
      </g>
     </g>
    </g>
    <g id="xtick_4">
     <g id="line2d_4">
      <g>
       <use xlink:href="#mc0a6194071" x="677.213525" y="390.04" style="stroke: #000000; stroke-width: 0.8"/>
      </g>
     </g>
     <g id="text_4">
      <!-- −3 -->
      <g transform="translate(669.842432 404.638438) scale(0.1 -0.1)">
       <defs>
        <path id="DejaVuSans-33" d="M 2597 2516 
Q 3050 2419 3304 2112 
Q 3559 1806 3559 1356 
Q 3559 666 3084 287 
Q 2609 -91 1734 -91 
Q 1441 -91 1130 -33 
Q 819 25 488 141 
L 488 750 
Q 750 597 1062 519 
Q 1375 441 1716 441 
Q 2309 441 2620 675 
Q 2931 909 2931 1356 
Q 2931 1769 2642 2001 
Q 2353 2234 1838 2234 
L 1294 2234 
L 1294 2753 
L 1863 2753 
Q 2328 2753 2575 2939 
Q 2822 3125 2822 3475 
Q 2822 3834 2567 4026 
Q 2313 4219 1838 4219 
Q 1578 4219 1281 4162 
Q 984 4106 628 3988 
L 628 4550 
Q 988 4650 1302 4700 
Q 1616 4750 1894 4750 
Q 2613 4750 3031 4423 
Q 3450 4097 3450 3541 
Q 3450 3153 3228 2886 
Q 3006 2619 2597 2516 
z
" transform="scale(0.015625)"/>
       </defs>
       <use xlink:href="#DejaVuSans-2212"/>
       <use xlink:href="#DejaVuSans-33" x="83.789062"/>
      </g>
     </g>
    </g>
    <g id="xtick_5">
     <g id="line2d_5">
      <g>
       <use xlink:href="#mc0a6194071" x="855.089528" y="390.04" style="stroke: #000000; stroke-width: 0.8"/>
      </g>
     </g>
     <g id="text_5">
      <!-- −2 -->
      <g transform="translate(847.718434 404.638438) scale(0.1 -0.1)">
       <defs>
        <path id="DejaVuSans-32" d="M 1228 531 
L 3431 531 
L 3431 0 
L 469 0 
L 469 531 
Q 828 903 1448 1529 
Q 2069 2156 2228 2338 
Q 2531 2678 2651 2914 
Q 2772 3150 2772 3378 
Q 2772 3750 2511 3984 
Q 2250 4219 1831 4219 
Q 1534 4219 1204 4116 
Q 875 4013 500 3803 
L 500 4441 
Q 881 4594 1212 4672 
Q 1544 4750 1819 4750 
Q 2544 4750 2975 4387 
Q 3406 4025 3406 3419 
Q 3406 3131 3298 2873 
Q 3191 2616 2906 2266 
Q 2828 2175 2409 1742 
Q 1991 1309 1228 531 
z
" transform="scale(0.015625)"/>
       </defs>
       <use xlink:href="#DejaVuSans-2212"/>
       <use xlink:href="#DejaVuSans-32" x="83.789062"/>
      </g>
     </g>
    </g>
    <g id="xtick_6">
     <g id="line2d_6">
      <g>
       <use xlink:href="#mc0a6194071" x="1032.965531" y="390.04" style="stroke: #000000; stroke-width: 0.8"/>
      </g>
     </g>
     <g id="text_6">
      <!-- −1 -->
      <g transform="translate(1025.594437 404.638438) scale(0.1 -0.1)">
       <defs>
        <path id="DejaVuSans-31" d="M 794 531 
L 1825 531 
L 1825 4091 
L 703 3866 
L 703 4441 
L 1819 4666 
L 2450 4666 
L 2450 531 
L 3481 531 
L 3481 0 
L 794 0 
L 794 531 
z
" transform="scale(0.015625)"/>
       </defs>
       <use xlink:href="#DejaVuSans-2212"/>
       <use xlink:href="#DejaVuSans-31" x="83.789062"/>
      </g>
     </g>
    </g>
    <g id="xtick_7">
     <g id="line2d_7">
      <g>
       <use xlink:href="#mc0a6194071" x="1210.841534" y="390.04" style="stroke: #000000; stroke-width: 0.8"/>
      </g>
     </g>
     <g id="text_7">
      <!-- 0 -->
      <g transform="translate(1207.660284 404.638438) scale(0.1 -0.1)">
       <defs>
        <path id="DejaVuSans-30" d="M 2034 4250 
Q 1547 4250 1301 3770 
Q 1056 3291 1056 2328 
Q 1056 1369 1301 889 
Q 1547 409 2034 409 
Q 2525 409 2770 889 
Q 3016 1369 3016 2328 
Q 3016 3291 2770 3770 
Q 2525 4250 2034 4250 
z
M 2034 4750 
Q 2819 4750 3233 4129 
Q 3647 3509 3647 2328 
Q 3647 1150 3233 529 
Q 2819 -91 2034 -91 
Q 1250 -91 836 529 
Q 422 1150 422 2328 
Q 422 3509 836 4129 
Q 1250 4750 2034 4750 
z
" transform="scale(0.015625)"/>
       </defs>
       <use xlink:href="#DejaVuSans-30"/>
      </g>
     </g>
    </g>
    <g id="text_8">
     <!-- time -->
     <g transform="translate(654.623906 418.316562) scale(0.1 -0.1)">
      <defs>
       <path id="DejaVuSans-74" d="M 1172 4494 
L 1172 3500 
L 2356 3500 
L 2356 3053 
L 1172 3053 
L 1172 1153 
Q 1172 725 1289 603 
Q 1406 481 1766 481 
L 2356 481 
L 2356 0 
L 1766 0 
Q 1100 0 847 248 
Q 594 497 594 1153 
L 594 3053 
L 172 3053 
L 172 3500 
L 594 3500 
L 594 4494 
L 1172 4494 
z
" transform="scale(0.015625)"/>
       <path id="DejaVuSans-69" d="M 603 3500 
L 1178 3500 
L 1178 0 
L 603 0 
L 603 3500 
z
M 603 4863 
L 1178 4863 
L 1178 4134 
L 603 4134 
L 603 4863 
z
" transform="scale(0.015625)"/>
       <path id="DejaVuSans-6d" d="M 3328 2828 
Q 3544 3216 3844 3400 
Q 4144 3584 4550 3584 
Q 5097 3584 5394 3201 
Q 5691 2819 5691 2113 
L 5691 0 
L 5113 0 
L 5113 2094 
Q 5113 2597 4934 2840 
Q 4756 3084 4391 3084 
Q 3944 3084 3684 2787 
Q 3425 2491 3425 1978 
L 3425 0 
L 2847 0 
L 2847 2094 
Q 2847 2600 2669 2842 
Q 2491 3084 2119 3084 
Q 1678 3084 1418 2786 
Q 1159 2488 1159 1978 
L 1159 0 
L 581 0 
L 581 3500 
L 1159 3500 
L 1159 2956 
Q 1356 3278 1631 3431 
Q 1906 3584 2284 3584 
Q 2666 3584 2933 3390 
Q 3200 3197 3328 2828 
z
" transform="scale(0.015625)"/>
       <path id="DejaVuSans-65" d="M 3597 1894 
L 3597 1613 
L 953 1613 
Q 991 1019 1311 708 
Q 1631 397 2203 397 
Q 2534 397 2845 478 
Q 3156 559 3463 722 
L 3463 178 
Q 3153 47 2828 -22 
Q 2503 -91 2169 -91 
Q 1331 -91 842 396 
Q 353 884 353 1716 
Q 353 2575 817 3079 
Q 1281 3584 2069 3584 
Q 2775 3584 3186 3129 
Q 3597 2675 3597 1894 
z
M 3022 2063 
Q 3016 2534 2758 2815 
Q 2500 3097 2075 3097 
Q 1594 3097 1305 2825 
Q 1016 2553 972 2059 
L 3022 2063 
z
" transform="scale(0.015625)"/>
      </defs>
      <use xlink:href="#DejaVuSans-74"/>
      <use xlink:href="#DejaVuSans-69" x="39.208984"/>
      <use xlink:href="#DejaVuSans-6d" x="66.992188"/>
      <use xlink:href="#DejaVuSans-65" x="164.404297"/>
     </g>
    </g>
    <g id="text_9">
     <!-- 1e9+2.093e14 -->
     <g transform="translate(1210.435938 417.316562) scale(0.1 -0.1)">
      <defs>
       <path id="DejaVuSans-39" d="M 703 97 
L 703 672 
Q 941 559 1184 500 
Q 1428 441 1663 441 
Q 2288 441 2617 861 
Q 2947 1281 2994 2138 
Q 2813 1869 2534 1725 
Q 2256 1581 1919 1581 
Q 1219 1581 811 2004 
Q 403 2428 403 3163 
Q 403 3881 828 4315 
Q 1253 4750 1959 4750 
Q 2769 4750 3195 4129 
Q 3622 3509 3622 2328 
Q 3622 1225 3098 567 
Q 2575 -91 1691 -91 
Q 1453 -91 1209 -44 
Q 966 3 703 97 
z
M 1959 2075 
Q 2384 2075 2632 2365 
Q 2881 2656 2881 3163 
Q 2881 3666 2632 3958 
Q 2384 4250 1959 4250 
Q 1534 4250 1286 3958 
Q 1038 3666 1038 3163 
Q 1038 2656 1286 2365 
Q 1534 2075 1959 2075 
z
" transform="scale(0.015625)"/>
       <path id="DejaVuSans-2b" d="M 2944 4013 
L 2944 2272 
L 4684 2272 
L 4684 1741 
L 2944 1741 
L 2944 0 
L 2419 0 
L 2419 1741 
L 678 1741 
L 678 2272 
L 2419 2272 
L 2419 4013 
L 2944 4013 
z
" transform="scale(0.015625)"/>
       <path id="DejaVuSans-2e" d="M 684 794 
L 1344 794 
L 1344 0 
L 684 0 
L 684 794 
z
" transform="scale(0.015625)"/>
      </defs>
      <use xlink:href="#DejaVuSans-31"/>
      <use xlink:href="#DejaVuSans-65" x="63.623047"/>
      <use xlink:href="#DejaVuSans-39" x="125.146484"/>
      <use xlink:href="#DejaVuSans-2b" x="188.769531"/>
      <use xlink:href="#DejaVuSans-32" x="272.558594"/>
      <use xlink:href="#DejaVuSans-2e" x="336.181641"/>
      <use xlink:href="#DejaVuSans-30" x="367.96875"/>
      <use xlink:href="#DejaVuSans-39" x="431.591797"/>
      <use xlink:href="#DejaVuSans-33" x="495.214844"/>
      <use xlink:href="#DejaVuSans-65" x="558.837891"/>
      <use xlink:href="#DejaVuSans-31" x="620.361328"/>
      <use xlink:href="#DejaVuSans-34" x="683.984375"/>
     </g>
    </g>
   </g>
   <g id="matplotlib.axis_2">
    <g id="ytick_1">
     <g id="line2d_8">
      <defs>
       <path id="mc4f6b325d7" d="M 0 0 
L -3.5 0 
" style="stroke: #000000; stroke-width: 0.8"/>
      </defs>
      <g>
       <use xlink:href="#mc4f6b325d7" x="46.64" y="353.184427" style="stroke: #000000; stroke-width: 0.8"/>
      </g>
     </g>
     <g id="text_10">
      <!-- −6 -->
      <g transform="translate(24.897812 356.983646) scale(0.1 -0.1)">
       <use xlink:href="#DejaVuSans-2212"/>
       <use xlink:href="#DejaVuSans-36" x="83.789062"/>
      </g>
     </g>
    </g>
    <g id="ytick_2">
     <g id="line2d_9">
      <g>
       <use xlink:href="#mc4f6b325d7" x="46.64" y="307.45791" style="stroke: #000000; stroke-width: 0.8"/>
      </g>
     </g>
     <g id="text_11">
      <!-- −4 -->
      <g transform="translate(24.897812 311.257129) scale(0.1 -0.1)">
       <use xlink:href="#DejaVuSans-2212"/>
       <use xlink:href="#DejaVuSans-34" x="83.789062"/>
      </g>
     </g>
    </g>
    <g id="ytick_3">
     <g id="line2d_10">
      <g>
       <use xlink:href="#mc4f6b325d7" x="46.64" y="261.731393" style="stroke: #000000; stroke-width: 0.8"/>
      </g>
     </g>
     <g id="text_12">
      <!-- −2 -->
      <g transform="translate(24.897812 265.530611) scale(0.1 -0.1)">
       <use xlink:href="#DejaVuSans-2212"/>
       <use xlink:href="#DejaVuSans-32" x="83.789062"/>
      </g>
     </g>
    </g>
    <g id="ytick_4">
     <g id="line2d_11">
      <g>
       <use xlink:href="#mc4f6b325d7" x="46.64" y="216.004875" style="stroke: #000000; stroke-width: 0.8"/>
      </g>
     </g>
     <g id="text_13">
      <!-- 0 -->
      <g transform="translate(33.2775 219.804094) scale(0.1 -0.1)">
       <use xlink:href="#DejaVuSans-30"/>
      </g>
     </g>
    </g>
    <g id="ytick_5">
     <g id="line2d_12">
      <g>
       <use xlink:href="#mc4f6b325d7" x="46.64" y="170.278358" style="stroke: #000000; stroke-width: 0.8"/>
      </g>
     </g>
     <g id="text_14">
      <!-- 2 -->
      <g transform="translate(33.2775 174.077577) scale(0.1 -0.1)">
       <use xlink:href="#DejaVuSans-32"/>
      </g>
     </g>
    </g>
    <g id="ytick_6">
     <g id="line2d_13">
      <g>
       <use xlink:href="#mc4f6b325d7" x="46.64" y="124.551841" style="stroke: #000000; stroke-width: 0.8"/>
      </g>
     </g>
     <g id="text_15">
      <!-- 4 -->
      <g transform="translate(33.2775 128.35106) scale(0.1 -0.1)">
       <use xlink:href="#DejaVuSans-34"/>
      </g>
     </g>
    </g>
    <g id="ytick_7">
     <g id="line2d_14">
      <g>
       <use xlink:href="#mc4f6b325d7" x="46.64" y="78.825324" style="stroke: #000000; stroke-width: 0.8"/>
      </g>
     </g>
     <g id="text_16">
      <!-- 6 -->
      <g transform="translate(33.2775 82.624542) scale(0.1 -0.1)">
       <use xlink:href="#DejaVuSans-36"/>
      </g>
     </g>
    </g>
    <g id="ytick_8">
     <g id="line2d_15">
      <g>
       <use xlink:href="#mc4f6b325d7" x="46.64" y="33.098806" style="stroke: #000000; stroke-width: 0.8"/>
      </g>
     </g>
     <g id="text_17">
      <!-- 8 -->
      <g transform="translate(33.2775 36.898025) scale(0.1 -0.1)">
       <defs>
        <path id="DejaVuSans-38" d="M 2034 2216 
Q 1584 2216 1326 1975 
Q 1069 1734 1069 1313 
Q 1069 891 1326 650 
Q 1584 409 2034 409 
Q 2484 409 2743 651 
Q 3003 894 3003 1313 
Q 3003 1734 2745 1975 
Q 2488 2216 2034 2216 
z
M 1403 2484 
Q 997 2584 770 2862 
Q 544 3141 544 3541 
Q 544 4100 942 4425 
Q 1341 4750 2034 4750 
Q 2731 4750 3128 4425 
Q 3525 4100 3525 3541 
Q 3525 3141 3298 2862 
Q 3072 2584 2669 2484 
Q 3125 2378 3379 2068 
Q 3634 1759 3634 1313 
Q 3634 634 3220 271 
Q 2806 -91 2034 -91 
Q 1263 -91 848 271 
Q 434 634 434 1313 
Q 434 1759 690 2068 
Q 947 2378 1403 2484 
z
M 1172 3481 
Q 1172 3119 1398 2916 
Q 1625 2713 2034 2713 
Q 2441 2713 2670 2916 
Q 2900 3119 2900 3481 
Q 2900 3844 2670 4047 
Q 2441 4250 2034 4250 
Q 1625 4250 1398 4047 
Q 1172 3844 1172 3481 
z
" transform="scale(0.015625)"/>
       </defs>
       <use xlink:href="#DejaVuSans-38"/>
      </g>
     </g>
    </g>
    <g id="text_18">
     <!-- acc -->
     <g transform="translate(18.818125 217.0225) rotate(-90) scale(0.1 -0.1)">
      <defs>
       <path id="DejaVuSans-61" d="M 2194 1759 
Q 1497 1759 1228 1600 
Q 959 1441 959 1056 
Q 959 750 1161 570 
Q 1363 391 1709 391 
Q 2188 391 2477 730 
Q 2766 1069 2766 1631 
L 2766 1759 
L 2194 1759 
z
M 3341 1997 
L 3341 0 
L 2766 0 
L 2766 531 
Q 2569 213 2275 61 
Q 1981 -91 1556 -91 
Q 1019 -91 701 211 
Q 384 513 384 1019 
Q 384 1609 779 1909 
Q 1175 2209 1959 2209 
L 2766 2209 
L 2766 2266 
Q 2766 2663 2505 2880 
Q 2244 3097 1772 3097 
Q 1472 3097 1187 3025 
Q 903 2953 641 2809 
L 641 3341 
Q 956 3463 1253 3523 
Q 1550 3584 1831 3584 
Q 2591 3584 2966 3190 
Q 3341 2797 3341 1997 
z
" transform="scale(0.015625)"/>
       <path id="DejaVuSans-63" d="M 3122 3366 
L 3122 2828 
Q 2878 2963 2633 3030 
Q 2388 3097 2138 3097 
Q 1578 3097 1268 2742 
Q 959 2388 959 1747 
Q 959 1106 1268 751 
Q 1578 397 2138 397 
Q 2388 397 2633 464 
Q 2878 531 3122 666 
L 3122 134 
Q 2881 22 2623 -34 
Q 2366 -91 2075 -91 
Q 1284 -91 818 406 
Q 353 903 353 1747 
Q 353 2603 823 3093 
Q 1294 3584 2113 3584 
Q 2378 3584 2631 3529 
Q 2884 3475 3122 3366 
z
" transform="scale(0.015625)"/>
      </defs>
      <use xlink:href="#DejaVuSans-61"/>
      <use xlink:href="#DejaVuSans-63" x="61.279297"/>
      <use xlink:href="#DejaVuSans-63" x="116.259766"/>
     </g>
    </g>
   </g>
   <g id="line2d_16">
    <path d="M 102.938182 357.071181 
L 110.076524 356.156651 
L 117.155099 357.985711 
L 124.287927 357.985711 
L 138.49933 355.24212 
L 145.637672 356.156651 
L 152.748799 358.671609 
L 159.870776 359.58614 
L 166.99809 359.58614 
L 181.524334 358.671609 
L 188.315284 357.071181 
L 195.437261 357.071181 
L 209.664851 356.156651 
L 216.770641 356.156651 
L 223.892619 357.071181 
L 245.253214 357.071181 
L 252.369677 358.671609 
L 259.931364 358.671609 
L 266.608296 356.156651 
L 280.814185 360.50067 
L 287.947012 358.671609 
L 295.031102 357.985711 
L 302.16393 359.58614 
L 316.402548 355.24212 
L 323.535376 356.156651 
L 330.640989 359.58614 
L 337.746779 356.156651 
L 351.99607 358.671609 
L 359.112711 352.727162 
L 366.185772 355.24212 
L 373.32945 361.4152 
L 387.540854 357.071181 
L 394.673859 357.985711 
L 401.768622 355.24212 
L 408.885263 354.32759 
L 423.102002 359.58614 
L 430.272895 359.58614 
L 437.802031 357.985711 
L 444.467934 357.071181 
L 458.690188 360.50067 
L 465.828529 357.985711 
L 472.907105 362.329731 
L 480.061634 361.4152 
L 494.278551 355.24212 
L 501.395014 358.671609 
L 508.522506 360.50067 
L 515.622782 358.671609 
L 529.866737 356.156651 
L 538.248076 359.58614 
L 545.967183 360.50067 
L 552.964291 357.985711 
L 560.113484 360.50067 
L 574.324887 357.985711 
L 581.446864 345.639552 
L 588.530776 319.346804 
L 595.658267 344.725021 
L 602.785581 368.274178 
L 609.902222 371.932299 
L 627.685553 359.58614 
L 634.791166 357.985711 
L 641.902293 356.156651 
L 649.469494 358.671609 
L 663.268225 360.50067 
L 670.363165 367.58828 
L 677.479628 373.532727 
L 684.596269 364.844689 
L 698.823859 355.24212 
L 705.973051 354.32759 
L 713.073327 357.985711 
L 720.162753 357.985711 
L 734.412222 362.329731 
L 741.534199 363.930159 
L 748.634476 362.329731 
L 755.745603 363.244261 
L 770.022109 359.58614 
L 784.200961 359.58614 
L 791.333788 360.50067 
L 805.561556 363.244261 
L 812.667169 362.329731 
L 819.799996 363.244261 
L 841.155078 360.50067 
L 848.331485 362.329731 
L 855.399032 362.329731 
L 862.488458 360.50067 
L 876.737927 361.4152 
L 883.843718 362.329731 
L 890.93848 362.329731 
L 907.196347 363.930159 
L 921.190741 361.4152 
L 928.279989 361.4152 
L 935.418331 362.329731 
L 942.534972 362.329731 
L 956.762562 357.985711 
L 963.857502 349.983571 
L 970.979479 355.24212 
L 978.172074 368.274178 
L 986.976758 363.244261 
L 1001.242413 356.156651 
L 1008.35354 358.671609 
L 1015.470181 367.58828 
L 1022.564943 370.103238 
L 1036.803562 365.759219 
L 1043.909174 359.58614 
L 1051.020301 354.32759 
L 1058.142456 352.727162 
L 1072.37556 360.50067 
L 1079.502874 365.759219 
L 1086.586964 363.244261 
L 1093.730642 363.244261 
L 1107.952895 366.67375 
L 1115.074873 366.67375 
L 1122.191336 369.188708 
L 1129.291612 367.58828 
L 1143.541081 363.244261 
L 1151.330805 360.50067 
L 1157.752484 367.58828 
L 1164.863611 368.274178 
L 1179.102229 367.58828 
L 1186.207842 370.103238 
L 1193.318969 367.58828 
L 1200.59303 364.844689 
L 1214.684901 369.188708 
L 1221.779841 369.188708 
L 1228.901818 368.274178 
L 1228.901818 368.274178 
" clip-path="url(#p135db43586)" style="fill: none; stroke: #1f77b4; stroke-width: 1.5; stroke-linecap: square"/>
   </g>
   <g id="line2d_17">
    <path d="M 102.938182 292.825424 
L 110.076524 292.368159 
L 117.155099 292.825424 
L 124.287927 294.883118 
L 138.49933 289.395936 
L 145.637672 292.368159 
L 152.748799 289.395936 
L 159.870776 289.395936 
L 166.99809 290.539098 
L 181.524334 292.368159 
L 188.315284 292.368159 
L 195.437261 291.453629 
L 209.664851 290.539098 
L 216.770641 291.453629 
L 223.892619 290.539098 
L 231.014596 291.453629 
L 245.253214 289.395936 
L 252.369677 289.395936 
L 259.931364 292.368159 
L 266.608296 291.453629 
L 280.814185 293.968587 
L 287.947012 291.453629 
L 295.031102 292.825424 
L 302.16393 292.825424 
L 316.402548 284.137386 
L 323.535376 292.825424 
L 330.640989 292.368159 
L 337.746779 288.481405 
L 351.99607 292.825424 
L 359.112711 292.368159 
L 366.185772 291.453629 
L 373.32945 292.825424 
L 387.540854 290.539098 
L 394.673859 292.825424 
L 401.768622 290.539098 
L 408.885263 291.453629 
L 423.102002 289.395936 
L 430.272895 292.368159 
L 437.802031 291.453629 
L 444.467934 289.395936 
L 458.690188 294.883118 
L 465.828529 293.968587 
L 472.907105 292.825424 
L 480.061634 290.539098 
L 494.278551 289.395936 
L 501.395014 292.368159 
L 508.522506 290.539098 
L 515.622782 289.395936 
L 529.866737 295.797648 
L 538.248076 298.312606 
L 545.967183 295.797648 
L 552.964291 292.368159 
L 560.113484 290.539098 
L 574.324887 296.712178 
L 581.446864 281.622428 
L 588.530776 271.105329 
L 595.658267 316.603213 
L 602.785581 303.571156 
L 609.902222 292.368159 
L 627.685553 273.84892 
L 634.791166 299.227137 
L 641.902293 302.656626 
L 649.469494 299.227137 
L 663.268225 285.966447 
L 670.363165 282.536958 
L 677.479628 285.051916 
L 684.596269 288.02414 
L 698.823859 300.141667 
L 705.973051 304.485686 
L 713.073327 299.227137 
L 720.162753 295.797648 
L 734.412222 294.883118 
L 741.534199 296.712178 
L 748.634476 295.797648 
L 755.745603 298.312606 
L 770.022109 295.797648 
L 777.089834 298.312606 
L 784.200961 301.056197 
L 791.333788 301.056197 
L 805.561556 297.626709 
L 812.667169 297.626709 
L 819.799996 298.312606 
L 826.911123 300.141667 
L 841.155078 301.970728 
L 855.399032 298.312606 
L 862.488458 300.141667 
L 876.737927 301.970728 
L 883.843718 301.970728 
L 890.93848 300.141667 
L 907.196347 300.141667 
L 921.190741 302.656626 
L 928.279989 301.056197 
L 935.418331 300.141667 
L 942.534972 300.141667 
L 956.762562 304.485686 
L 963.857502 304.485686 
L 970.979479 302.656626 
L 978.172074 298.312606 
L 986.976758 290.539098 
L 1001.242413 295.797648 
L 1008.35354 296.712178 
L 1015.470181 294.883118 
L 1022.564943 295.797648 
L 1036.803562 299.227137 
L 1043.909174 294.883118 
L 1051.020301 292.368159 
L 1058.142456 296.712178 
L 1072.37556 292.825424 
L 1079.502874 297.626709 
L 1086.586964 300.141667 
L 1093.730642 303.571156 
L 1107.952895 294.883118 
L 1115.074873 295.797648 
L 1122.191336 293.968587 
L 1129.291612 296.712178 
L 1143.541081 301.056197 
L 1151.330805 308.829705 
L 1157.752484 296.712178 
L 1164.863611 292.825424 
L 1179.102229 298.312606 
L 1186.207842 300.141667 
L 1193.318969 297.626709 
L 1200.59303 298.312606 
L 1214.684901 299.227137 
L 1221.779841 298.312606 
L 1228.901818 297.626709 
L 1228.901818 297.626709 
" clip-path="url(#p135db43586)" style="fill: none; stroke: #ff7f0e; stroke-width: 1.5; stroke-linecap: square"/>
   </g>
   <g id="line2d_18">
    <path d="M 102.938182 56.647963 
L 110.076524 55.733432 
L 117.155099 53.218474 
L 124.287927 53.218474 
L 138.49933 55.047535 
L 145.637672 54.133004 
L 152.748799 55.733432 
L 159.870776 56.647963 
L 166.99809 56.647963 
L 181.524334 57.562493 
L 188.315284 55.047535 
L 195.437261 56.647963 
L 209.664851 56.647963 
L 216.770641 53.218474 
L 223.892619 53.218474 
L 231.014596 54.133004 
L 245.253214 55.733432 
L 259.931364 55.733432 
L 266.608296 54.133004 
L 280.814185 55.047535 
L 287.947012 54.133004 
L 295.031102 56.647963 
L 302.16393 56.647963 
L 316.402548 54.133004 
L 323.535376 55.047535 
L 330.640989 55.047535 
L 337.746779 53.218474 
L 351.99607 55.047535 
L 359.112711 55.047535 
L 366.185772 55.733432 
L 373.32945 57.562493 
L 387.540854 54.133004 
L 394.673859 53.218474 
L 408.885263 55.047535 
L 430.272895 57.562493 
L 437.802031 55.733432 
L 444.467934 55.733432 
L 458.690188 57.562493 
L 465.828529 56.647963 
L 472.907105 59.391554 
L 480.061634 57.562493 
L 494.278551 55.047535 
L 501.395014 54.133004 
L 508.522506 55.733432 
L 515.622782 55.047535 
L 529.866737 57.562493 
L 538.248076 57.562493 
L 545.967183 55.047535 
L 552.964291 54.133004 
L 560.113484 55.047535 
L 574.324887 55.047535 
L 581.446864 50.24625 
L 588.530776 50.24625 
L 595.658267 43.387273 
L 602.785581 61.906512 
L 609.902222 58.477023 
L 627.685553 57.562493 
L 634.791166 63.735573 
L 641.902293 51.160781 
L 649.469494 53.218474 
L 663.268225 63.735573 
L 670.363165 57.562493 
L 677.479628 57.562493 
L 684.596269 61.906512 
L 698.823859 59.391554 
L 705.973051 58.477023 
L 713.073327 58.477023 
L 720.162753 57.562493 
L 734.412222 60.991982 
L 741.534199 60.077452 
L 748.634476 60.077452 
L 755.745603 60.991982 
L 770.022109 60.991982 
L 777.089834 60.077452 
L 791.333788 60.077452 
L 805.561556 60.991982 
L 812.667169 63.735573 
L 819.799996 61.906512 
L 841.155078 61.906512 
L 848.331485 60.991982 
L 855.399032 60.991982 
L 876.737927 63.735573 
L 907.196347 63.735573 
L 921.190741 62.821043 
L 928.279989 63.735573 
L 935.418331 61.906512 
L 942.534972 59.391554 
L 956.762562 57.562493 
L 963.857502 59.391554 
L 970.979479 61.906512 
L 978.172074 61.906512 
L 986.976758 62.821043 
L 1001.242413 57.562493 
L 1008.35354 60.077452 
L 1015.470181 64.421471 
L 1022.564943 65.336001 
L 1036.803562 63.735573 
L 1043.909174 59.391554 
L 1051.020301 55.733432 
L 1058.142456 55.047535 
L 1072.37556 60.077452 
L 1086.586964 63.735573 
L 1093.730642 65.336001 
L 1107.952895 67.165062 
L 1115.074873 65.336001 
L 1122.191336 67.165062 
L 1129.291612 64.421471 
L 1143.541081 68.079592 
L 1151.330805 65.336001 
L 1157.752484 64.421471 
L 1164.863611 64.421471 
L 1179.102229 68.079592 
L 1186.207842 63.735573 
L 1193.318969 66.250531 
L 1200.59303 68.994122 
L 1214.684901 67.165062 
L 1221.779841 68.079592 
L 1228.901818 66.250531 
L 1228.901818 66.250531 
" clip-path="url(#p135db43586)" style="fill: none; stroke: #2ca02c; stroke-width: 1.5; stroke-linecap: square"/>
   </g>
   <g id="patch_3">
    <path d="M 46.64 390.04 
L 46.64 26.88 
" style="fill: none; stroke: #000000; stroke-width: 0.8; stroke-linejoin: miter; stroke-linecap: square"/>
   </g>
   <g id="patch_4">
    <path d="M 1285.2 390.04 
L 1285.2 26.88 
" style="fill: none; stroke: #000000; stroke-width: 0.8; stroke-linejoin: miter; stroke-linecap: square"/>
   </g>
   <g id="patch_5">
    <path d="M 46.64 390.04 
L 1285.2 390.04 
" style="fill: none; stroke: #000000; stroke-width: 0.8; stroke-linejoin: miter; stroke-linecap: square"/>
   </g>
   <g id="patch_6">
    <path d="M 46.64 26.88 
L 1285.2 26.88 
" style="fill: none; stroke: #000000; stroke-width: 0.8; stroke-linejoin: miter; stroke-linecap: square"/>
   </g>
   <g id="text_19">
    <!-- User 7, Action 4 -->
    <g transform="translate(618.190938 20.88) scale(0.12 -0.12)">
     <defs>
      <path id="DejaVuSans-55" d="M 556 4666 
L 1191 4666 
L 1191 1831 
Q 1191 1081 1462 751 
Q 1734 422 2344 422 
Q 2950 422 3222 751 
Q 3494 1081 3494 1831 
L 3494 4666 
L 4128 4666 
L 4128 1753 
Q 4128 841 3676 375 
Q 3225 -91 2344 -91 
Q 1459 -91 1007 375 
Q 556 841 556 1753 
L 556 4666 
z
" transform="scale(0.015625)"/>
      <path id="DejaVuSans-73" d="M 2834 3397 
L 2834 2853 
Q 2591 2978 2328 3040 
Q 2066 3103 1784 3103 
Q 1356 3103 1142 2972 
Q 928 2841 928 2578 
Q 928 2378 1081 2264 
Q 1234 2150 1697 2047 
L 1894 2003 
Q 2506 1872 2764 1633 
Q 3022 1394 3022 966 
Q 3022 478 2636 193 
Q 2250 -91 1575 -91 
Q 1294 -91 989 -36 
Q 684 19 347 128 
L 347 722 
Q 666 556 975 473 
Q 1284 391 1588 391 
Q 1994 391 2212 530 
Q 2431 669 2431 922 
Q 2431 1156 2273 1281 
Q 2116 1406 1581 1522 
L 1381 1569 
Q 847 1681 609 1914 
Q 372 2147 372 2553 
Q 372 3047 722 3315 
Q 1072 3584 1716 3584 
Q 2034 3584 2315 3537 
Q 2597 3491 2834 3397 
z
" transform="scale(0.015625)"/>
      <path id="DejaVuSans-72" d="M 2631 2963 
Q 2534 3019 2420 3045 
Q 2306 3072 2169 3072 
Q 1681 3072 1420 2755 
Q 1159 2438 1159 1844 
L 1159 0 
L 581 0 
L 581 3500 
L 1159 3500 
L 1159 2956 
Q 1341 3275 1631 3429 
Q 1922 3584 2338 3584 
Q 2397 3584 2469 3576 
Q 2541 3569 2628 3553 
L 2631 2963 
z
" transform="scale(0.015625)"/>
      <path id="DejaVuSans-20" transform="scale(0.015625)"/>
      <path id="DejaVuSans-37" d="M 525 4666 
L 3525 4666 
L 3525 4397 
L 1831 0 
L 1172 0 
L 2766 4134 
L 525 4134 
L 525 4666 
z
" transform="scale(0.015625)"/>
      <path id="DejaVuSans-2c" d="M 750 794 
L 1409 794 
L 1409 256 
L 897 -744 
L 494 -744 
L 750 256 
L 750 794 
z
" transform="scale(0.015625)"/>
      <path id="DejaVuSans-41" d="M 2188 4044 
L 1331 1722 
L 3047 1722 
L 2188 4044 
z
M 1831 4666 
L 2547 4666 
L 4325 0 
L 3669 0 
L 3244 1197 
L 1141 1197 
L 716 0 
L 50 0 
L 1831 4666 
z
" transform="scale(0.015625)"/>
      <path id="DejaVuSans-6f" d="M 1959 3097 
Q 1497 3097 1228 2736 
Q 959 2375 959 1747 
Q 959 1119 1226 758 
Q 1494 397 1959 397 
Q 2419 397 2687 759 
Q 2956 1122 2956 1747 
Q 2956 2369 2687 2733 
Q 2419 3097 1959 3097 
z
M 1959 3584 
Q 2709 3584 3137 3096 
Q 3566 2609 3566 1747 
Q 3566 888 3137 398 
Q 2709 -91 1959 -91 
Q 1206 -91 779 398 
Q 353 888 353 1747 
Q 353 2609 779 3096 
Q 1206 3584 1959 3584 
z
" transform="scale(0.015625)"/>
      <path id="DejaVuSans-6e" d="M 3513 2113 
L 3513 0 
L 2938 0 
L 2938 2094 
Q 2938 2591 2744 2837 
Q 2550 3084 2163 3084 
Q 1697 3084 1428 2787 
Q 1159 2491 1159 1978 
L 1159 0 
L 581 0 
L 581 3500 
L 1159 3500 
L 1159 2956 
Q 1366 3272 1645 3428 
Q 1925 3584 2291 3584 
Q 2894 3584 3203 3211 
Q 3513 2838 3513 2113 
z
" transform="scale(0.015625)"/>
     </defs>
     <use xlink:href="#DejaVuSans-55"/>
     <use xlink:href="#DejaVuSans-73" x="73.193359"/>
     <use xlink:href="#DejaVuSans-65" x="125.292969"/>
     <use xlink:href="#DejaVuSans-72" x="186.816406"/>
     <use xlink:href="#DejaVuSans-20" x="227.929688"/>
     <use xlink:href="#DejaVuSans-37" x="259.716797"/>
     <use xlink:href="#DejaVuSans-2c" x="323.339844"/>
     <use xlink:href="#DejaVuSans-20" x="355.126953"/>
     <use xlink:href="#DejaVuSans-41" x="386.914062"/>
     <use xlink:href="#DejaVuSans-63" x="453.572266"/>
     <use xlink:href="#DejaVuSans-74" x="508.552734"/>
     <use xlink:href="#DejaVuSans-69" x="547.761719"/>
     <use xlink:href="#DejaVuSans-6f" x="575.544922"/>
     <use xlink:href="#DejaVuSans-6e" x="636.726562"/>
     <use xlink:href="#DejaVuSans-20" x="700.105469"/>
     <use xlink:href="#DejaVuSans-34" x="731.892578"/>
    </g>
   </g>
   <g id="legend_1">
    <g id="patch_7">
     <path d="M 1219.548438 231.977188 
L 1278.2 231.977188 
Q 1280.2 231.977188 1280.2 229.977188 
L 1280.2 186.942813 
Q 1280.2 184.942813 1278.2 184.942813 
L 1219.548438 184.942813 
Q 1217.548438 184.942813 1217.548438 186.942813 
L 1217.548438 229.977188 
Q 1217.548438 231.977188 1219.548438 231.977188 
z
" style="fill: #ffffff; opacity: 0.8; stroke: #cccccc; stroke-linejoin: miter"/>
    </g>
    <g id="line2d_19">
     <path d="M 1221.548438 193.04125 
L 1231.548438 193.04125 
L 1241.548438 193.04125 
" style="fill: none; stroke: #1f77b4; stroke-width: 1.5; stroke-linecap: square"/>
    </g>
    <g id="text_20">
     <!-- acc-x -->
     <g transform="translate(1249.548438 196.54125) scale(0.1 -0.1)">
      <defs>
       <path id="DejaVuSans-2d" d="M 313 2009 
L 1997 2009 
L 1997 1497 
L 313 1497 
L 313 2009 
z
" transform="scale(0.015625)"/>
       <path id="DejaVuSans-78" d="M 3513 3500 
L 2247 1797 
L 3578 0 
L 2900 0 
L 1881 1375 
L 863 0 
L 184 0 
L 1544 1831 
L 300 3500 
L 978 3500 
L 1906 2253 
L 2834 3500 
L 3513 3500 
z
" transform="scale(0.015625)"/>
      </defs>
      <use xlink:href="#DejaVuSans-61"/>
      <use xlink:href="#DejaVuSans-63" x="61.279297"/>
      <use xlink:href="#DejaVuSans-63" x="116.259766"/>
      <use xlink:href="#DejaVuSans-2d" x="171.240234"/>
      <use xlink:href="#DejaVuSans-78" x="207.324219"/>
     </g>
    </g>
    <g id="line2d_20">
     <path d="M 1221.548438 207.719375 
L 1231.548438 207.719375 
L 1241.548438 207.719375 
" style="fill: none; stroke: #ff7f0e; stroke-width: 1.5; stroke-linecap: square"/>
    </g>
    <g id="text_21">
     <!-- acc-y -->
     <g transform="translate(1249.548438 211.219375) scale(0.1 -0.1)">
      <defs>
       <path id="DejaVuSans-79" d="M 2059 -325 
Q 1816 -950 1584 -1140 
Q 1353 -1331 966 -1331 
L 506 -1331 
L 506 -850 
L 844 -850 
Q 1081 -850 1212 -737 
Q 1344 -625 1503 -206 
L 1606 56 
L 191 3500 
L 800 3500 
L 1894 763 
L 2988 3500 
L 3597 3500 
L 2059 -325 
z
" transform="scale(0.015625)"/>
      </defs>
      <use xlink:href="#DejaVuSans-61"/>
      <use xlink:href="#DejaVuSans-63" x="61.279297"/>
      <use xlink:href="#DejaVuSans-63" x="116.259766"/>
      <use xlink:href="#DejaVuSans-2d" x="171.240234"/>
      <use xlink:href="#DejaVuSans-79" x="205.574219"/>
     </g>
    </g>
    <g id="line2d_21">
     <path d="M 1221.548438 222.3975 
L 1231.548438 222.3975 
L 1241.548438 222.3975 
" style="fill: none; stroke: #2ca02c; stroke-width: 1.5; stroke-linecap: square"/>
    </g>
    <g id="text_22">
     <!-- acc-z -->
     <g transform="translate(1249.548438 225.8975) scale(0.1 -0.1)">
      <defs>
       <path id="DejaVuSans-7a" d="M 353 3500 
L 3084 3500 
L 3084 2975 
L 922 459 
L 3084 459 
L 3084 0 
L 275 0 
L 275 525 
L 2438 3041 
L 353 3041 
L 353 3500 
z
" transform="scale(0.015625)"/>
      </defs>
      <use xlink:href="#DejaVuSans-61"/>
      <use xlink:href="#DejaVuSans-63" x="61.279297"/>
      <use xlink:href="#DejaVuSans-63" x="116.259766"/>
      <use xlink:href="#DejaVuSans-2d" x="171.240234"/>
      <use xlink:href="#DejaVuSans-7a" x="207.324219"/>
     </g>
    </g>
   </g>
  </g>
 </g>
 <defs>
  <clipPath id="p135db43586">
   <rect x="46.64" y="26.88" width="1238.56" height="363.16"/>
  </clipPath>
 </defs>
</svg>
